<svg xmlns="http://www.w3.org/2000/svg" viewBox="0 0 32 32"><path d="M26.201,12.831c-3.325,0-5.29,3.153-5.416,3.153c-0.126,0-2.078-3.153-5.428-3.153c-3.35,0-4.307,3.153-4.408,3.153 c-0.101,0-0.869-2.587-3.766-2.587c-2.342,0-2.67,1.08-2.871,1.08c0,0,0.176-1.155,0.529-3.215h5.781V9H2.801l-1.322,7.574H4.01 c0,0,0.579-1.068,2.116-1.068c1.536,0,2.468,1.181,2.468,2.512c0,1.331-1.033,2.788-2.468,2.788c-1.436,0-2.267-1.231-2.267-2.085 c-1.184,0-2.821,0-2.821,0C1.038,19.475,1.643,23,6.126,23c3.652,0,4.824-2.721,4.824-3.048c0,0.276,1.411,3.048,4.408,3.048 c3.476,0,5.226-3.048,5.428-3.048c0.202,0,2.267,3.048,5.416,3.048c3.149,0,4.761-2.772,4.761-5.108 C30.962,15.556,29.526,12.831,26.201,12.831z M19.104,17.939h-0.001c-0.022,0.027-1.946,2.363-3.73,2.363 c-1.793,0-2.125-1.787-2.125-2.363h0v-0.001v-0.001h0c0-0.576,0.332-2.363,2.125-2.363c1.784,0,3.708,2.336,3.73,2.363h0.001 V17.939L19.104,17.939z M28.349,17.939L28.349,17.939c0,0.576-0.332,2.364-2.125,2.364c-1.784,0-3.708-2.336-3.73-2.363h-0.001 l0.001-0.001l-0.001-0.001h0.001c0.022-0.027,1.946-2.363,3.73-2.363C28.017,15.575,28.348,17.362,28.349,17.939L28.349,17.939z"/></svg>