<svg xmlns="http://www.w3.org/2000/svg" viewBox="0 0 32 32"><path d="M 18 3 C 16.895 3 16 3.895 16 5 L 16 6 L 2 6 L 1 6 L 1 7 L 1 24 L 1 25 L 2 25 L 4.15625 25 C 4.6033156 26.719842 6.1468019 28 8 28 C 9.8531978 28 11.396684 26.719842 11.84375 25 L 20.15625 25 C 20.603316 26.719842 22.146802 28 24 28 C 25.853198 28 27.396684 26.719842 27.84375 25 L 30 25 L 31 25 L 31 24 L 31 14 L 31 13.625 L 30.75 13.34375 L 24.75 6.34375 L 24.46875 6 L 24 6 L 20 6 L 20 5 C 20 3.895 19.105 3 18 3 z M 3 8 L 23.53125 8 L 29 14.375 L 29 23 L 27.84375 23 C 27.396684 21.280158 25.853198 20 24 20 C 22.146802 20 20.603316 21.280158 20.15625 23 L 11.84375 23 C 11.396684 21.280158 9.8531978 20 8 20 C 6.1468019 20 4.6033156 21.280158 4.15625 23 L 3 23 L 3 8 z M 14 11 L 14 14 L 11 14 L 11 16 L 14 16 L 14 19 L 16 19 L 16 16 L 19 16 L 19 14 L 16 14 L 16 11 L 14 11 z M 8 22 C 9.116414 22 10 22.883586 10 24 C 10 25.116414 9.116414 26 8 26 C 6.883586 26 6 25.116414 6 24 C 6 22.883586 6.883586 22 8 22 z M 24 22 C 25.116414 22 26 22.883586 26 24 C 26 25.116414 25.116414 26 24 26 C 22.883586 26 22 25.116414 22 24 C 22 22.883586 22.883586 22 24 22 z"/></svg>