<svg xmlns="http://www.w3.org/2000/svg" viewBox="0 0 32 32"><path d="M 16 4 C 13.802706 4 12 5.8027056 12 8 C 12 9.8531978 13.280158 11.396684 15 11.84375 L 15 14 L 12 14 L 12 16 L 15 16 L 15 23.96875 C 12.573856 23.776099 10.959278 22.889748 9.8125 21.875 C 8.9381373 21.101304 8.3529411 20.251933 7.9375 19.53125 L 9.53125 18.75 L 5.53125 16.9375 L 4.46875 21.25 L 6.125 20.4375 C 6.5978015 21.286157 7.3335925 22.370534 8.46875 23.375 C 9.9235523 24.66231 12.067003 25.730999 15 25.9375 L 15 26 L 16 27 L 17 26 L 17 25.9375 C 19.932997 25.730999 22.076448 24.66231 23.53125 23.375 C 24.666407 22.370534 25.402198 21.286157 25.875 20.4375 L 27.53125 21.25 L 26.46875 16.9375 L 22.46875 18.75 L 24.0625 19.53125 C 23.647059 20.251933 23.061863 21.101304 22.1875 21.875 C 21.040722 22.889748 19.426144 23.776099 17 23.96875 L 17 16 L 20 16 L 20 14 L 17 14 L 17 11.84375 C 18.719842 11.396684 20 9.8531978 20 8 C 20 5.8027056 18.197294 4 16 4 z M 16 6 C 17.116414 6 18 6.883586 18 8 C 18 9.116414 17.116414 10 16 10 C 14.883586 10 14 9.116414 14 8 C 14 6.883586 14.883586 6 16 6 z"/></svg>