<svg xmlns="http://www.w3.org/2000/svg" viewBox="4 -4 32 32"><path d="M 16.1875 4 C 12.8955 4 9.23875 5.2445 8.46875 9.3125 C 8.38675 9.7445 8.68575 9.96725 8.96875 10.03125 L 12.3125 10.375 C 12.6265 10.359 12.8775 10.062 12.9375 9.75 C 13.2255 8.348 14.39975 7.65625 15.71875 7.65625 C 16.43075 7.65625 17.23525 7.9255 17.65625 8.5625 C 18.14225 9.2735 18.0625 10.2385 18.0625 11.0625 L 18.0625 11.53125 C 16.0565 11.75625 13.4395 11.89475 11.5625 12.71875 C 9.3945 13.65575 7.875 15.566 7.875 18.375 C 7.875 21.969 10.1495 23.78125 13.0625 23.78125 C 15.5225 23.78125 16.851 23.185 18.75 21.25 C 19.378 22.159 19.601 22.6065 20.75 23.5625 C 21.008 23.7005 21.3335 23.67375 21.5625 23.46875 L 21.5625 23.5 C 22.2535 22.885 23.51275 21.7805 24.21875 21.1875 C 24.49975 20.9575 24.43975 20.59625 24.21875 20.28125 C 23.58575 19.40725 22.9375 18.6835 22.9375 17.0625 L 22.9375 11.6875 C 22.9375 9.4035 23.08925 7.29075 21.40625 5.71875 C 20.07825 4.44475 17.8705 4 16.1875 4 z M 17.125 14.3125 C 17.436814 14.292063 17.749625 14.3125 18.0625 14.3125 L 18.0625 15.0625 C 18.0625 16.4105 18.1165 17.51975 17.4375 18.71875 C 16.8875 19.69275 16.00225 20.28125 15.03125 20.28125 C 13.70425 20.28125 12.9375 19.27825 12.9375 17.78125 C 12.9375 15.2035 14.942299 14.455562 17.125 14.3125 z M 26.6875 22.375 C 25.81125 22.387125 24.7845 22.574 24 23.125 C 23.759 23.295 23.7945 23.532 24.0625 23.5 C 24.9455 23.394 26.899 23.14475 27.25 23.59375 C 27.601 24.04275 26.86125 25.89175 26.53125 26.71875 C 26.43125 26.96775 26.649 27.064 26.875 26.875 C 28.345 25.645 28.7385 23.09175 28.4375 22.71875 C 28.288 22.53425 27.56375 22.362875 26.6875 22.375 z M 3.65625 22.84375 C 3.4735312 22.867844 3.401 23.10725 3.59375 23.28125 C 6.86275 26.23225 11.17275 28 15.96875 28 C 19.39075 28 23.384 26.92925 26.125 24.90625 C 26.578 24.57125 26.18275 24.053 25.71875 24.25 C 22.64575 25.554 19.288 26.1875 16.25 26.1875 C 11.746 26.1875 7.401 24.95825 3.875 22.90625 C 3.79775 22.86125 3.7171562 22.835719 3.65625 22.84375 z" transform="translate(4 -4)"/></svg>