<svg xmlns="http://www.w3.org/2000/svg" viewBox="0 0 32 32"><path d="M 16 3 C 8.8321429 3 3 8.8321429 3 16 C 3 23.167857 8.8321429 29 16 29 C 23.167857 29 29 23.167857 29 16 C 29 8.8321429 23.167857 3 16 3 z M 16 5 C 22.086977 5 27 9.9130231 27 16 C 27 22.086977 22.086977 27 16 27 C 9.9130231 27 5 22.086977 5 16 C 5 9.9130231 9.9130231 5 16 5 z M 16 8.875 L 15.28125 9.59375 L 9.59375 15.28125 L 11 16.71875 L 15 12.71875 L 15 23 L 17 23 L 17 12.71875 L 21 16.71875 L 22.40625 15.28125 L 16.71875 9.59375 L 16 8.875 z"/></svg>