<svg xmlns="http://www.w3.org/2000/svg" viewBox="0 0 32 32"><path d="M 12.8125 4 C 12.500145 3.9792166 12.177755 4.0345863 11.875 4.15625 C 11.296092 4.3888401 10.900672 4.9027713 10.71875 5.40625 C 10.536828 5.9097287 10.485959 6.4258164 10.5 6.96875 C 10.52808 8.0546172 10.799475 9.2648335 11.125 10.4375 C 11.391429 11.397279 11.695414 12.294998 11.96875 13.0625 C 11.804896 13.032175 11.63793 13.022949 11.46875 13.03125 C 11.10932 13.04889 10.756328 13.168934 10.4375 13.375 C 9.6569429 13.879698 9.1829163 14.680181 9.09375 15.4375 C 9.0135006 16.119087 9.1703168 16.733325 9.375 17.28125 C 8.8350856 17.336345 8.3089994 17.513999 7.90625 17.90625 C 7.2609043 18.534773 7 19.452885 7 20.53125 C 7 24.082833 8.8905189 26.163952 10.90625 27.09375 C 12.921981 28.023548 15.038299 28 15.84375 28 C 16.719278 28 18.737399 27.92498 20.59375 26.65625 C 22.450101 25.387522 24 22.875379 24 18.65625 C 24 18.291337 24.274568 16.662875 23.25 15.28125 C 23.029816 14.984333 22.734717 14.717001 22.40625 14.46875 C 22.605716 13.816184 23.083706 12.240771 23.46875 10.28125 C 23.706559 9.0710172 23.895516 7.8414927 23.875 6.78125 C 23.86474 6.2511287 23.81517 5.7602374 23.625 5.28125 C 23.434828 4.8022626 22.971986 4.2631687 22.34375 4.125 C 21.705394 3.9848976 21.050381 4.114061 20.53125 4.40625 C 20.012119 4.6984391 19.627118 5.1195306 19.28125 5.59375 C 18.589513 6.5421888 18.078522 7.7367642 17.6875 8.9375 C 17.553682 9.3484223 17.452337 9.7553786 17.34375 10.15625 C 17.171611 9.6725218 16.987827 9.1856516 16.78125 8.6875 C 16.279688 7.4780039 15.693534 6.2851647 14.96875 5.375 C 14.606358 4.9199177 14.208147 4.5145604 13.6875 4.25 C 13.427176 4.1177198 13.124855 4.0207834 12.8125 4 z M 12.65625 5.96875 C 12.677983 5.9715491 12.7148 5.997485 12.78125 6.03125 C 12.914146 6.09878 13.153595 6.307723 13.40625 6.625 C 13.911559 7.2595541 14.472687 8.3166211 14.9375 9.4375 C 15.529371 10.864774 15.932162 12.100402 16.1875 13 C 16.165469 12.999945 16.147146 13 16.125 13 C 15.425769 13 14.786191 13.288194 14.34375 13.71875 C 14.112517 13.155967 13.528558 11.697746 13.03125 9.90625 C 12.72865 8.8161665 12.520199 7.7185703 12.5 6.9375 C 12.4899 6.5469648 12.54311 6.2338885 12.59375 6.09375 C 12.61907 6.0236808 12.629435 6.0066814 12.625 6 C 12.638387 5.9946949 12.643211 5.9670705 12.65625 5.96875 z M 21.65625 6.125 C 21.703126 6.1250834 21.741373 6.1262625 21.78125 6.125 C 21.82055 6.2647822 21.86858 6.480964 21.875 6.8125 C 21.8902 7.5981948 21.723816 8.7359828 21.5 9.875 C 21.188715 11.459156 20.831388 12.742528 20.59375 13.5625 C 20.042106 13.388739 19.408291 13.250394 18.6875 13.15625 C 18.839439 12.323905 19.105816 11.060827 19.59375 9.5625 C 19.949978 8.4686108 20.407424 7.4223425 20.875 6.78125 C 21.108788 6.4607038 21.331654 6.2510023 21.5 6.15625 C 21.553871 6.125929 21.609374 6.1249166 21.65625 6.125 z M 16.125 15 C 19.81071 15 21.169318 15.843375 21.65625 16.5 C 22.143182 17.156625 22 17.834163 22 18.65625 C 22 22.411121 20.789649 24.097228 19.46875 25 C 18.147851 25.902772 16.571222 26 15.84375 26 C 15.046201 26 13.255519 25.975702 11.75 25.28125 C 10.244481 24.586798 9 23.438667 9 20.53125 C 9 19.783115 9.2014082 19.420696 9.3125 19.3125 C 9.4235918 19.204304 9.5298007 19.161285 9.90625 19.25 C 10.513078 19.393007 11.574485 20.125546 12.5625 21.4375 C 12.791142 21.741107 13.002675 22.071347 13.21875 22.4375 C 13.15605 22.51157 12.967888 22.625 12.84375 22.625 C 12.69305 22.625 12.546268 22.58002 12.28125 22.34375 C 12.016232 22.107483 11.690146 21.661961 11.34375 21.125 L 9.65625 22.21875 C 10.047854 22.825789 10.439768 23.368767 10.9375 23.8125 C 11.435232 24.256233 12.10345 24.625 12.84375 24.625 C 13.610612 24.625 14.284452 24.268683 14.75 23.71875 C 14.869376 23.577736 14.8896 23.371324 14.96875 23.1875 C 15.115188 23.598536 15.279834 23.972139 15.46875 24.25 C 15.89154 24.871845 16.40625 25.1875 16.40625 25.1875 L 17.5 23.53125 C 17.5 23.53125 17.35321 23.46065 17.125 23.125 C 16.89679 22.789345 16.65625 22.241007 16.65625 21.375 C 16.65625 21.062207 16.703798 20.807671 16.8125 20.59375 C 16.991035 20.242401 17.308249 19.999659 17.65625 19.78125 C 18.216133 19.429861 18.78125 19.3125 18.78125 19.3125 A 1.0001 1.0001 0 0 0 18.84375 17.375 C 18.84375 17.375 17.258082 16.900568 16 16.53125 C 15.920761 16.507967 15.842862 16.462039 15.78125 16.40625 C 15.759029 16.38613 15.738417 16.36742 15.71875 16.34375 C 15.674212 16.27223 15.639343 16.195029 15.59375 16.125 C 15.537892 15.979654 15.516266 15.803868 15.53125 15.625 C 15.54923 15.410358 15.631421 15.25112 15.71875 15.15625 C 15.806079 15.06138 15.876916 15 16.125 15 z M 11.5 15.03125 C 11.54234 15.00388 11.54605 15.0053 11.78125 15.09375 C 12.016453 15.1822 12.391371 15.426625 12.78125 15.8125 C 13.561009 16.58425 14.401295 17.879698 14.9375 19.25 C 15.063569 19.572073 15.03326 19.649516 15 19.71875 C 14.96674 19.78798 14.867358 19.885155 14.6875 19.96875 C 14.507642 20.05234 14.24968 20.098069 14.09375 20.09375 C 13.93782 20.08945 13.959794 19.961448 14.15625 20.21875 L 14.09375 20.25 C 13.494492 19.427116 12.881913 18.755541 12.21875 18.25 C 12.21875 18.25 11.605563 17.520786 11.28125 16.71875 C 11.119093 16.317732 11.063385 15.91415 11.09375 15.65625 C 11.12411 15.39835 11.16006 15.251052 11.5 15.03125 z"/></svg>