<svg xmlns="http://www.w3.org/2000/svg" viewBox="0 0 32 32"><path d="M 16 4 C 9.3844277 4 4 9.3844277 4 16 C 4 22.615572 9.3844277 28 16 28 C 22.615572 28 28 22.615572 28 16 C 28 9.3844277 22.615572 4 16 4 z M 16 6 C 21.534692 6 26 10.465308 26 16 C 26 21.534692 21.534692 26 16 26 C 10.465308 26 6 21.534692 6 16 C 6 10.465308 10.465308 6 16 6 z M 16 9.9375 L 9.40625 19.84375 L 11 19.84375 L 12.53125 17.53125 L 19.46875 17.53125 L 21.03125 19.84375 L 22.625 19.84375 L 16 9.9375 z M 16 12.34375 L 18.84375 16.59375 L 13.15625 16.59375 L 16 12.34375 z"/></svg>