<svg xmlns="http://www.w3.org/2000/svg" viewBox="0 0 32 32"><path d="M 20.84375 2 C 19.201974 2 17.547858 2.8511558 16.4375 4.15625 L 16.4375 4.1875 C 15.649668 5.1662554 14.79492 6.7157178 15.0625 8.5 C 14.932754 8.4507048 14.925 8.4644739 14.78125 8.40625 C 14.091115 8.1267215 13.233334 7.8125 12.21875 7.8125 C 8.2365773 7.8125 5.21875 11.41611 5.21875 16.15625 C 5.21875 19.222434 6.249998 22.09652 7.625 24.25 C 8.312501 25.32674 9.0930688 26.213926 9.90625 26.875 C 10.719431 27.536074 11.57039 28 12.53125 28 C 13.492047 28 14.210218 27.673857 14.75 27.4375 C 15.289782 27.201143 15.705121 27 16.5 27 C 17.215788 27 17.578079 27.196571 18.125 27.4375 C 18.671921 27.678429 19.416874 28 20.40625 28 C 21.475665 28 22.385296 27.478157 23.125 26.8125 C 23.864704 26.146843 24.482954 25.293469 25 24.46875 C 25.517046 23.644031 25.922297 22.835148 26.21875 22.1875 C 26.366976 21.863676 26.47587 21.593214 26.5625 21.375 C 26.64913 21.156786 26.691696 21.094192 26.75 20.84375 L 26.9375 20.03125 L 26.1875 19.6875 C 26.010615 19.60818 25.310855 19.262271 24.6875 18.625 C 24.064145 17.987729 23.53125 17.11639 23.53125 15.78125 C 23.53125 14.488243 24.027487 13.620026 24.5625 13 C 24.830007 12.689987 25.10455 12.4377 25.3125 12.28125 C 25.416475 12.20303 25.50051 12.164758 25.5625 12.125 C 25.62449 12.08524 25.61226 12.09856 25.71875 12.03125 L 26.5625 11.5 L 26 10.65625 C 24.367358 8.1447654 21.755134 7.8137382 20.71875 7.8125 C 20.23671 7.8125 19.899235 7.9788442 19.46875 8.0625 C 19.710692 7.8371109 20.02176 7.6950755 20.21875 7.4375 C 20.22285 7.43215 20.21465 7.41161 20.21875 7.40625 C 20.22855 7.395538 20.24031 7.385779 20.25 7.375 L 20.28125 7.375 C 21.346925 6.1824159 21.937915 4.5830302 21.84375 2.9375 L 21.78125 2 L 20.84375 2 z M 19.65625 4.3125 C 19.484287 4.9713788 19.201256 5.6031689 18.75 6.09375 L 18.71875 6.125 L 18.6875 6.15625 C 18.303929 6.6737582 17.715543 7.0555744 17.125 7.28125 C 17.288029 6.6275457 17.57241 5.9689974 17.96875 5.46875 C 17.97795 5.457992 17.99068 5.448179 18 5.4375 C 18.437878 4.9360285 19.042294 4.5629434 19.65625 4.3125 z M 12.21875 9.8125 C 12.776166 9.8125 13.390635 10.021779 14.03125 10.28125 C 14.671865 10.540721 15.270804 10.875 16.125 10.875 C 16.975431 10.875 17.619338 10.539977 18.375 10.28125 C 19.130662 10.022523 19.932187 9.8125 20.71875 9.8125 C 21.242591 9.8131259 22.53364 10.144205 23.625 11.15625 C 23.435087 11.32761 23.264797 11.453059 23.0625 11.6875 C 22.299513 12.571724 21.53125 13.946257 21.53125 15.78125 C 21.53125 17.68911 22.361605 19.123021 23.25 20.03125 C 23.800887 20.594436 24.140838 20.725714 24.5625 20.96875 C 24.50882 21.09458 24.47573 21.191964 24.40625 21.34375 C 24.13814 21.929477 23.767204 22.680969 23.3125 23.40625 C 22.857796 24.131531 22.307108 24.839282 21.78125 25.3125 C 21.255392 25.785718 20.782835 26 20.40625 26 C 19.838626 26 19.508579 25.845321 18.9375 25.59375 C 18.366421 25.342179 17.581212 25 16.5 25 C 15.364879 25 14.522468 25.337607 13.9375 25.59375 C 13.352532 25.849893 13.047453 26 12.53125 26 C 12.28511 26 11.754944 25.799207 11.15625 25.3125 C 10.557556 24.825793 9.903999 24.082635 9.3125 23.15625 C 8.129502 21.30348 7.21875 18.763066 7.21875 16.15625 C 7.21875 12.21439 9.4189227 9.8125 12.21875 9.8125 z"/></svg>