<svg xmlns="http://www.w3.org/2000/svg" viewBox="0 0 32 32"><path d="M 16.1875 4 C 8.8227525 3.8922232 2.9146119 10.485994 4.15625 18.03125 C 4.9981586 23.151675 9.2050458 27.181379 14.34375 27.875 C 17.808627 28.342845 21.04781 27.343076 23.5 25.375 L 22.25 23.8125 C 20.20419 25.454424 17.512873 26.300405 14.59375 25.90625 C 10.338454 25.331871 6.8523414 21.952325 6.15625 17.71875 C 5.1078881 11.348006 9.9909975 5.9097768 16.15625 6 C 21.411045 6.077063 25.840449 10.43502 26 15.6875 C 26.0035 15.80006 26 15.909499 26 16.03125 C 25.992 18.234184 24.20805 20.000804 22 20 C 20.883008 19.999326 20 19.115742 20 18 L 20 17.5 L 20 14.5 L 20 10 L 18 10 L 18 10.78125 C 17.281448 10.294583 16.427539 10 15.5 10 C 13.026562 10 11 12.026562 11 14.5 L 11 17.5 C 11 19.973438 13.026562 22 15.5 22 C 16.847912 22 18.048165 21.385525 18.875 20.4375 C 19.60945 21.371627 20.728798 21.999233 22 22 C 25.28395 22.0012 27.988022 19.320316 28 16.03125 C 28 15.899001 28.0045 15.76844 28 15.625 C 27.807551 9.2894804 22.524705 4.0929369 16.1875 4 z M 15.5 12 C 16.892562 12 18 13.107438 18 14.5 L 18 17.5 C 18 18.892562 16.892562 20 15.5 20 C 14.107438 20 13 18.892562 13 17.5 L 13 14.5 C 13 13.107438 14.107438 12 15.5 12 z"/></svg>