<svg xmlns="http://www.w3.org/2000/svg" viewBox="0 0 32 32"><path d="M 10.53125 3.5 A 0.50005 0.50005 0 0 0 10.28125 4.3125 L 11.75 6.4375 C 10.083434 7.7192576 9 9.7440996 9 12 L 9 22 C 9 22.702291 9.4424038 23.205054 10 23.5625 L 10 26.5 C 10 27.869063 11.130937 29 12.5 29 C 13.869063 29 15 27.869063 15 26.5 L 15 24 L 17 24 L 17 26.5 C 17 27.869063 18.130937 29 19.5 29 C 20.869063 29 22 27.869063 22 26.5 L 22 23.5625 C 22.557596 23.205054 23 22.702291 23 22 L 23 12 C 23 9.7440996 21.916566 7.7192576 20.25 6.4375 L 21.71875 4.3125 A 0.50005 0.50005 0 0 0 21.3125 3.5 A 0.50005 0.50005 0 0 0 21.21875 3.5 A 0.50005 0.50005 0 0 0 20.90625 3.75 L 19.40625 5.875 C 18.399833 5.3135663 17.229922 5 16 5 C 14.770078 5 13.600167 5.3135663 12.59375 5.875 L 11.09375 3.75 A 0.50005 0.50005 0 0 0 10.6875 3.5 A 0.50005 0.50005 0 0 0 10.59375 3.5 A 0.50005 0.50005 0 0 0 10.53125 3.5 z M 16 7 C 18.426958 7 20.442195 8.7157262 20.90625 11 L 11.09375 11 C 11.557805 8.7157262 13.573042 7 16 7 z M 14 8 C 13.447715 8 13 8.4477153 13 9 C 13 9.5522847 13.447715 10 14 10 C 14.552285 10 15 9.5522847 15 9 C 15 8.4477153 14.552285 8 14 8 z M 18 8 C 17.447715 8 17 8.4477153 17 9 C 17 9.5522847 17.447715 10 18 10 C 18.552285 10 19 9.5522847 19 9 C 19 8.4477153 18.552285 8 18 8 z M 6 11 L 6 21 L 8 21 L 8 11 L 6 11 z M 24 11 L 24 21 L 26 21 L 26 11 L 24 11 z M 11 13 L 21 13 L 21 22 L 20 22 L 20 23 L 20 26.5 C 20 26.786937 19.786937 27 19.5 27 C 19.213063 27 19 26.786937 19 26.5 L 19 23 L 19 22 L 18 22 L 14 22 L 13 22 L 13 23 L 13 26.5 C 13 26.786937 12.786937 27 12.5 27 C 12.213063 27 12 26.786937 12 26.5 L 12 23 L 12 22 L 11 22 L 11 13 z"/></svg>