<svg xmlns="http://www.w3.org/2000/svg" viewBox="0 0 32 32"><path d="M 11 5 C 9.0324246 5 7.4597826 6.4414951 7.125 8.3125 C 5.2359745 8.7886073 3.5935337 10.018444 2.875 11.96875 L 2.84375 11.96875 L 0.71875 17.9375 C 0.26582757 18.863052 0 19.903751 0 21 C 0 24.854148 3.1458513 28 7 28 C 10.471624 28 13.365403 25.448353 13.90625 22.125 C 14.449196 22.659566 15.185962 23 16 23 C 16.814038 23 17.550804 22.659566 18.09375 22.125 C 18.634597 25.448353 21.528376 28 25 28 C 28.854148 28 32 24.854148 32 21 C 32 20.026447 31.799662 19.093879 31.4375 18.25 L 29.15625 11.875 L 29.125 11.84375 L 29.125 11.8125 C 28.395391 10.040591 26.77674 8.8003956 24.875 8.3125 C 24.540217 6.4414951 22.967575 5 21 5 C 19.142915 5 17.638423 6.2848308 17.1875 8 L 14.8125 8 C 14.361577 6.2848308 12.857085 5 11 5 z M 11 7 C 12.190196 7 13 7.8098039 13 9 L 13 10 L 14 10 L 18 10 L 19 10 L 19 9 C 19 7.8098039 19.809804 7 21 7 C 22.190196 7 23 7.8098039 23 9 L 23 9.90625 L 23.90625 10 C 25.392247 10.156421 26.672101 11.192362 27.25 12.53125 C 27.2591 12.55239 27.27248 12.57245 27.28125 12.59375 L 28.03125 14.71875 C 27.112106 14.273563 26.086233 14 25 14 C 22.075522 14 19.5752 15.817416 18.53125 18.375 C 17.995152 17.544443 17.052597 17 16 17 C 14.947403 17 14.004848 17.544443 13.46875 18.375 C 12.4248 15.817416 9.9244779 14 7 14 C 5.9282903 14 4.9097689 14.253428 4 14.6875 L 4.75 12.65625 L 4.75 12.625 C 5.3305473 11.076539 6.5584091 10.161615 8.09375 10 L 9 9.90625 L 9 9 C 9 7.8098039 9.8098039 7 11 7 z M 7 16 C 9.7732677 16 12 18.226732 12 21 C 12 23.773268 9.7732677 26 7 26 C 4.2267317 26 2 23.773268 2 21 C 2 20.291826 2.175079 19.64017 2.4375 19.03125 C 2.454016 18.992926 2.4513123 18.944063 2.46875 18.90625 C 3.2592583 17.192074 4.979476 16 7 16 z M 25 16 C 27.773268 16 30 18.226732 30 21 C 30 23.773268 27.773268 26 25 26 C 22.226732 26 20 23.773268 20 21 C 20 18.226732 22.226732 16 25 16 z M 16 19 C 16.564128 19 17 19.435872 17 20 C 17 20.564128 16.564128 21 16 21 C 15.435872 21 15 20.564128 15 20 C 15 19.435872 15.435872 19 16 19 z"/></svg>