<svg xmlns="http://www.w3.org/2000/svg" viewBox="0 0 32 32"><path d="M 3.71875 2.28125 L 2.28125 3.71875 L 28.28125 29.71875 L 29.71875 28.28125 L 26 24.5625 L 26 23 L 25 23 C 24.448 23 24 22.552 24 22 L 24 13.28125 C 24 9.4540228 21.417972 6.2014684 17.96875 5.28125 C 17.981784 5.1890095 18 5.0958376 18 5 C 18 3.8954305 17.104569 3 16 3 C 14.895431 3 14 3.8954305 14 5 C 14 5.0852793 14.020891 5.1675298 14.03125 5.25 C 12.693023 5.5888868 11.456312 6.2598315 10.4375 7.25 C 10.137914 7.5403049 9.8712755 7.8616454 9.625 8.1875 L 3.71875 2.28125 z M 15.5625 7 C 15.763939 6.9863145 15.98275 6.9935 16.1875 7 C 19.3935 7.096 22 9.90825 22 13.28125 L 22 20.5625 L 11.0625 9.625 C 11.286211 9.2977665 11.520497 8.9706001 11.8125 8.6875 C 12.840625 7.689125 14.152424 7.0957988 15.5625 7 z M 8.03125 12.25 C 8.00725 12.502 8 12.744 8 13 L 8 22 C 8 22.552 7.552 23 7 23 L 6 23 L 6 25 L 13.1875 25 C 13.073239 25.315761 13 25.647008 13 26 C 13 27.64501 14.35499 29 16 29 C 17.64501 29 19 27.64501 19 26 C 19 25.647008 18.926761 25.315761 18.8125 25 L 20.8125 25 L 18.8125 23 L 9.8125 23 C 9.9245 22.686 10 22.352 10 22 L 10 14.1875 L 8.03125 12.25 z M 16 25 C 16.564128 25 17 25.435872 17 26 C 17 26.564128 16.564128 27 16 27 C 15.435872 27 15 26.564128 15 26 C 15 25.435872 15.435872 25 16 25 z"/></svg>