<svg xmlns="http://www.w3.org/2000/svg" viewBox="0 0 32 32"><path d="M 16 3 C 14.136251 3 12.600787 4.2754401 12.15625 6 L 4 6 L 3 6 L 3 7 L 3 25 L 3 26 L 4 26 L 28 26 L 29 26 L 29 25 L 29 7 L 29 6 L 28 6 L 19.84375 6 C 19.399213 4.2754401 17.863749 3 16 3 z M 16 5 C 16.810108 5 17.427761 5.3850682 17.75 6 L 14.25 6 C 14.572239 5.3850682 15.189892 5 16 5 z M 5 8 L 27 8 L 27 17 L 5 17 L 5 8 z M 16 14 C 15.447715 14 15 14.447715 15 15 C 15 15.552285 15.447715 16 16 16 C 16.552285 16 17 15.552285 17 15 C 17 14.447715 16.552285 14 16 14 z M 5 19 L 27 19 L 27 24 L 5 24 L 5 19 z"/></svg>