<svg xmlns="http://www.w3.org/2000/svg" viewBox="0 0 32 32"><path d="M 16 5 C 13.706573 5 11.404791 5.2986879 9.59375 5.78125 C 8.6882294 6.022531 7.912284 6.2776889 7.28125 6.65625 C 6.650216 7.0348111 6 7.6017691 6 8.5 C 6 8.7245577 6.0541823 8.9396189 6.125 9.125 C 6.2718008 9.8857561 8.7785615 22.924058 9.03125 24.1875 C 9.151927 24.789773 9.5344617 25.232713 9.96875 25.5625 C 10.403038 25.892287 10.899173 26.136806 11.5 26.34375 C 12.701654 26.757639 14.250765 27 16 27 C 17.748229 27 19.289974 26.756124 20.5 26.34375 C 21.105013 26.137563 21.625618 25.897967 22.0625 25.5625 C 22.499382 25.227033 22.910312 24.784642 23 24.15625 C 23.02022 24.014744 23.212108 22.812815 23.5 21.3125 C 23.787892 19.812185 24.165738 17.933795 24.53125 16.0625 C 25.21875 12.542735 25.798158 9.5200373 25.875 9.125 C 25.945818 8.9396189 26 8.7245577 26 8.5 C 26 7.6017691 25.349784 7.0348111 24.71875 6.65625 C 24.087716 6.2776889 23.311771 6.022531 22.40625 5.78125 C 20.595209 5.2986879 18.293427 5 16 5 z M 16 7 C 18.124573 7 20.321791 7.2653121 21.90625 7.6875 C 22.698479 7.898594 23.321346 8.1553423 23.6875 8.375 C 23.790305 8.4366731 23.796654 8.4598727 23.84375 8.5 C 23.796654 8.5401273 23.790305 8.5633269 23.6875 8.625 C 23.321346 8.8446577 22.698479 9.101406 21.90625 9.3125 C 20.321791 9.7346879 18.124573 10 16 10 C 13.875427 10 11.678209 9.7346879 10.09375 9.3125 C 9.3015206 9.101406 8.6786535 8.8446577 8.3125 8.625 C 8.2096954 8.5633269 8.203346 8.5401273 8.15625 8.5 C 8.203346 8.4598727 8.2096954 8.4366731 8.3125 8.375 C 8.6786535 8.1553423 9.3015206 7.898594 10.09375 7.6875 C 11.678209 7.2653121 13.875427 7 16 7 z M 8.46875 10.875 C 8.8228148 10.999406 9.1856427 11.110008 9.59375 11.21875 C 11.404791 11.701312 13.706573 12 16 12 C 18.293427 12 20.595209 11.701312 22.40625 11.21875 C 22.814358 11.110008 23.177185 10.999406 23.53125 10.875 C 23.255232 12.236125 23.038977 13.216849 22.5625 15.65625 C 22.328952 16.851938 22.145042 17.921983 21.9375 19.03125 C 21.924994 19.045924 21.913635 19.033858 21.8125 19.15625 C 21.672288 19.325929 21.414577 19.607903 21 19.875 C 20.170847 20.409195 18.675415 21 16 21 C 13.323583 21 11.799549 20.406094 10.96875 19.875 C 10.553351 19.609453 10.327901 19.355903 10.1875 19.1875 C 10.047099 19.019097 10.03125 19 10.03125 19 C 9.3520676 15.491878 8.8714825 12.960997 8.46875 10.875 z M 16 13 C 14.35499 13 13 14.35499 13 16 C 13 17.64501 14.35499 19 16 19 C 17.64501 19 19 17.64501 19 16 C 19 14.35499 17.64501 13 16 13 z M 16 15 C 16.564128 15 17 15.435872 17 16 C 17 16.564128 16.564128 17 16 17 C 15.435872 17 15 16.564128 15 16 C 15 15.435872 15.435872 15 16 15 z M 10.59375 21.90625 C 11.795996 22.503733 13.513117 23 16 23 C 18.45775 23 20.174609 22.533946 21.375 21.9375 C 21.224291 22.694041 21.035956 23.59206 21 23.84375 C 20.979676 23.870072 20.926969 23.90485 20.84375 23.96875 C 20.658819 24.110752 20.336237 24.311562 19.875 24.46875 C 18.952526 24.783126 17.565771 25 16 25 C 14.435235 25 13.071846 24.784111 12.15625 24.46875 C 11.698452 24.311069 11.349493 24.115494 11.15625 23.96875 C 10.963007 23.822006 10.956573 23.751727 10.96875 23.8125 C 10.939223 23.664867 10.689761 22.399585 10.59375 21.90625 z"/></svg>