<svg xmlns="http://www.w3.org/2000/svg" viewBox="0 0 32 32"><path d="M 23.40625 1.875 L 22 3.28125 L 18.28125 7 L 17.9375 7.34375 L 18 7.84375 L 18.03125 8.125 C 15.908339 7.807844 13.690968 8.4340319 12.0625 10.0625 L 11.90625 10.1875 L 5.5 16.59375 C 3.6192315 18.475121 3.3468267 21.20603 3.4375 23.375 C 3.528173 25.54397 4.03125 27.28125 4.03125 27.28125 L 4.1875 27.8125 L 4.71875 27.96875 C 4.71875 27.96875 6.4559961 28.471958 8.625 28.5625 C 10.794004 28.65304 13.524953 28.381297 15.40625 26.5 L 21.9375 19.9375 C 23.565861 18.309139 24.192493 16.091876 23.875 13.96875 L 24.15625 14 L 24.65625 14.0625 L 25 13.71875 L 28.71875 10 L 30.125 8.59375 L 28.15625 8.3125 L 24.25 7.75 L 23.6875 3.84375 L 23.40625 1.875 z M 22 6.125 L 22.375 8.78125 L 22.46875 9.53125 L 23.21875 9.625 L 25.875 10 L 23.9375 11.9375 L 22.71875 11.75 L 21 11.5 L 21.625 13.125 C 22.352514 14.927136 22.00005 17.06245 20.53125 18.53125 L 14 25.0625 C 12.759297 26.303203 10.622246 26.641958 8.71875 26.5625 C 7.1442058 26.496773 6.2869451 26.231591 5.875 26.125 C 5.7684041 25.713048 5.5033247 24.855822 5.4375 23.28125 C 5.3579233 21.37772 5.6972685 19.240629 6.9375 18 L 13.46875 11.46875 C 14.937415 10.000085 17.072501 9.6481723 18.875 10.375 L 20.46875 11 L 20.25 9.28125 L 20.0625 8.0625 L 22 6.125 z"/></svg>