<svg xmlns="http://www.w3.org/2000/svg" viewBox="0 0 32 32"><path d="M 16 3 C 8.8321429 3 3 8.8321429 3 16 C 3 23.167857 8.8321429 29 16 29 C 23.167857 29 29 23.167857 29 16 C 29 8.8321429 23.167857 3 16 3 z M 16 5 C 22.086977 5 27 9.9130231 27 16 C 27 18.726349 26.010263 21.205644 24.375 23.125 L 9.03125 7.46875 C 10.926833 5.9178445 13.352785 5 16 5 z M 7.625 8.875 L 22.96875 24.53125 C 21.073167 26.082156 18.647215 27 16 27 C 9.9130231 27 5 22.086977 5 16 C 5 13.273651 5.9897374 10.794356 7.625 8.875 z"/></svg>