<svg xmlns="http://www.w3.org/2000/svg" viewBox="0 0 32 32"><path d="M 10 5 C 6.7729384 5 3.625 6.3125 3.625 6.3125 L 3 6.59375 L 3 7.25 L 3 25.46875 L 3 26.96875 L 3 27 L 14.28125 27 C 14.627196 27.596897 15.260107 28 16 28 C 16.739893 28 17.372804 27.596897 17.71875 27 L 29 27 L 29 26.96875 L 29 25.46875 L 29 7.25 L 29 6.59375 L 28.375 6.3125 C 28.375 6.3125 25.227062 5 22 5 C 19.080278 5 16.517877 5.9809907 16 6.1875 C 15.482123 5.9809907 12.919722 5 10 5 z M 10 7 C 11.933413 7 13.999795 7.6259376 15 7.96875 L 15 24.09375 C 13.887962 23.724721 12.057028 23.21875 10 23.21875 C 7.8969385 23.21875 6.1875284 23.70191 5 24.09375 L 5 7.96875 C 5.7681164 7.6900448 7.8008862 7 10 7 z M 22 7 C 24.199114 7 26.231884 7.6900448 27 7.96875 L 27 24.09375 C 25.812472 23.70191 24.103061 23.21875 22 23.21875 C 19.942972 23.21875 18.112038 23.724721 17 24.09375 L 17 7.96875 C 18.000205 7.6259376 20.066587 7 22 7 z"/></svg>