<svg xmlns="http://www.w3.org/2000/svg" viewBox="0 0 32 32"><path d="M 28 3.03125 L 26.40625 4.1875 C 26.40625 4.1875 24.419288 5.6623555 21.5625 7.125 C 18.705712 8.5876445 14.989218 10 11.71875 10 L 3 10 L 2 10 L 2 11 L 2 19 L 2 19.125 L 2.03125 19.28125 L 4.03125 26.28125 L 4.25 27 L 5 27 L 9 27 L 10.3125 27 L 9.96875 25.71875 L 8.34375 20 L 11.71875 20 C 14.94439 20 18.662884 21.44286 21.53125 22.90625 C 24.399616 24.36964 26.40625 25.8125 26.40625 25.8125 L 28 26.96875 L 28 25 L 28 17.8125 C 29.155736 17.394273 30 16.291987 30 15 C 30 13.708013 29.155736 12.605727 28 12.1875 L 28 5 L 28 3.03125 z M 26 6.75 L 26 12 L 26 13 L 26 17 L 26 18 L 26 23.21875 C 25.17299 22.660572 24.515216 22.153764 22.4375 21.09375 C 19.499137 19.594649 15.707655 18.073248 12 18 L 12 12 C 15.743199 11.925334 19.539335 10.374829 22.46875 8.875 C 24.541526 7.8137614 25.179862 7.3083494 26 6.75 z M 4 12 L 10 12 L 10 18 L 4 18 L 4 12 z M 4.34375 20 L 6.25 20 L 7.65625 25 L 5.75 25 L 4.34375 20 z"/></svg>