<svg xmlns="http://www.w3.org/2000/svg" viewBox="0 0 32 32"><path d="M 19 6 L 19 7 L 19 7.25 L 19 7.4375 L 19.09375 7.625 L 20.125 10 L 11.9375 10 L 11.4375 10 L 11.125 10.4375 L 8.40625 14.28125 C 7.802522 14.095314 7.1640848 14 6.5 14 C 2.917 14 5.9211895e-16 16.916 0 20.5 C 0 24.084 2.916 27 6.5 27 C 9.9132127 27 12.708944 24.347721 12.96875 21 L 15.875 21 L 16.40625 21 L 16.71875 20.5625 L 21.59375 13.375 L 22.25 14.875 C 20.310517 16.004057 19 18.109537 19 20.5 C 19 24.070455 21.929545 27 25.5 27 C 29.070455 27 32 24.070455 32 20.5 C 32 16.929545 29.070455 14 25.5 14 C 25.019564 14 24.545402 14.055741 24.09375 14.15625 L 21.40625 8 L 24.5 8 C 24.786937 8 25 8.2130628 25 8.5 C 25 8.7869372 24.786937 9 24.5 9 L 24.5 11 C 25.869063 11 27 9.8690628 27 8.5 C 27 7.1309372 25.869063 6 24.5 6 L 20 6 L 19 6 z M 8 7 L 8 9 L 14 9 L 13 7 L 8 7 z M 13.46875 12 L 20.125 12 L 16.09375 17.9375 L 13.46875 12 z M 11.71875 13 L 14.34375 19 L 6 19 L 6 21 L 10.9375 21 C 10.684618 23.243145 8.8095191 25 6.5 25 C 4.019 25 2 22.981 2 20.5 C 2 18.019 4.019 16 6.5 16 C 8.057 16 9.442 16.795 10.25 18 L 12.5 18 C 12.017965 16.848417 11.23166 15.86057 10.21875 15.15625 L 11.71875 13 z M 25.5 16 C 27.979545 16 30 18.020455 30 20.5 C 30 22.979545 27.979545 25 25.5 25 C 23.020455 25 21 22.979545 21 20.5 C 21 18.925393 21.832762 17.554471 23.0625 16.75 L 25.09375 21.40625 L 26.90625 20.59375 L 24.9375 16.0625 C 25.123763 16.038868 25.307471 16 25.5 16 z"/></svg>