<svg xmlns="http://www.w3.org/2000/svg" viewBox="0 0 32 32"><path d="M 1 6.75 L 1 25.25 L 9.9375 25.25 C 10.7645 25.25 16.46875 25.083 16.46875 19.875 C 16.46875 16.62 14.23075 15.5145 13.09375 15.1875 C 13.92875 14.7925 15.59375 13.85675 15.59375 11.34375 C 15.59375 9.94375 15.3945 6.75 9.6875 6.75 L 1 6.75 z M 21.375 8.46875 L 21.375 10.15625 L 28.28125 10.15625 L 28.28125 8.46875 L 21.375 8.46875 z M 5.0625 9.90625 L 8.875 9.90625 C 9.235 9.90625 11.65625 9.71625 11.65625 12.03125 C 11.65625 14.01125 9.9075 14.21875 9.1875 14.21875 L 5.0625 14.21875 L 5.0625 9.90625 z M 25 11.6875 C 19.779 11.6875 18.6875 16.2235 18.6875 18.1875 C 18.6875 24.0185 23.468 24.6875 25 24.6875 C 29.129 24.6875 30.30125 22.01625 30.78125 20.53125 L 27.78125 20.53125 C 27.66525 20.91325 26.788 22.15625 25.125 22.15625 C 22.335 22.15625 22.09375 19.975 22.09375 19 L 30.96875 19 C 31.14875 15.624 29.67 11.6875 25 11.6875 z M 24.90625 14.21875 C 25.73825 14.21875 26.4105 14.46025 26.8125 14.90625 C 27.2165 15.35525 27.51275 16.011 27.59375 16.875 L 22.09375 16.875 C 22.10975 16.635 22.163 16.3625 22.25 16.0625 C 22.336 15.7545 22.4685 15.4605 22.6875 15.1875 C 22.9075 14.9185 23.2115 14.683 23.5625 14.5 C 23.9215 14.314 24.36525 14.21875 24.90625 14.21875 z M 5.0625 17 L 9.46875 17 C 10.34375 17 12.40625 17.13525 12.40625 19.65625 C 12.40625 22.09825 9.80725 22.09375 9.40625 22.09375 L 5.0625 22.09375 L 5.0625 17 z"/></svg>