<svg xmlns="http://www.w3.org/2000/svg" viewBox="0 0 32 32"><path d="M 16 1.25 L 15.1875 2.4375 C 15.1875 2.4375 14.648128 3.1913546 14.125 4.09375 C 13.863436 4.5449477 13.617642 5.0190835 13.40625 5.5 C 13.194858 5.9809165 13 6.4219697 13 7 C 13 8.6454545 14.354545 10 16 10 C 17.645455 10 19 8.6454545 19 7 C 19 6.4219697 18.805142 5.9809165 18.59375 5.5 C 18.382358 5.0190835 18.136564 4.5449477 17.875 4.09375 C 17.351872 3.1913546 16.8125 2.4375 16.8125 2.4375 L 16 1.25 z M 16 10 L 14 10 L 13 10 L 13 11 L 13 14 L 7 14 C 4.7901961 14 3 15.790196 3 18 C 3 19.015812 3.3765617 19.950905 4 20.65625 L 4 27 L 4 28 L 5 28 L 27 28 L 28 28 L 28 27 L 28 20.65625 C 28.623438 19.950905 29 19.015812 29 18 C 29 15.790196 27.209804 14 25 14 L 19 14 L 19 11 L 19 10 L 18 10 L 16 10 z M 16 4.875 C 16.06572 4.9839175 16.05811 4.978371 16.125 5.09375 C 16.363436 5.5050523 16.617642 5.9402915 16.78125 6.3125 C 16.944858 6.6847085 17 7.0280303 17 7 C 17 7.5545455 16.554545 8 16 8 C 15.445455 8 15 7.5545455 15 7 C 15 7.0280303 15.055142 6.6847085 15.21875 6.3125 C 15.382358 5.9402915 15.636564 5.5050523 15.875 5.09375 C 15.941886 4.978371 15.934283 4.9839175 16 4.875 z M 15 12 L 17 12 L 17 14 L 15 14 L 15 12 z M 7 16 L 25 16 C 26.190196 16 27 16.809804 27 18 C 27 19.190196 26.190196 20 25 20 C 23.809804 20 23 19.190196 23 18 L 21 18 C 21 19.190196 20.190196 20 19 20 C 17.809804 20 17 19.190196 17 18 L 15 18 C 15 19.190196 14.190196 20 13 20 C 11.809804 20 11 19.190196 11 18 L 9 18 C 9 19.190196 8.1901961 20 7 20 C 5.8098039 20 5 19.190196 5 18 C 5 16.809804 5.8098039 16 7 16 z M 10 20.65625 C 10.732793 21.485316 11.806008 22 13 22 C 14.193992 22 15.267207 21.485316 16 20.65625 C 16.732793 21.485316 17.806008 22 19 22 C 20.193992 22 21.267207 21.485316 22 20.65625 C 22.732793 21.485316 23.806008 22 25 22 C 25.346055 22 25.679789 21.92629 26 21.84375 L 26 26 L 6 26 L 6 21.84375 C 6.3202111 21.92629 6.6539447 22 7 22 C 8.1939917 22 9.2672068 21.485316 10 20.65625 z"/></svg>