<svg xmlns="http://www.w3.org/2000/svg" viewBox="0 0 32 32"><path d="M 13.5 4 C 12.253894 4 11.189641 4.583156 10.375 5.40625 C 9.9285152 5.2327875 9.5068235 5 9 5 C 6.8026661 5 5 6.8026661 5 9 C 5 10.027886 5.4176901 10.945219 6.0625 11.65625 A 1.0001 1.0001 0 0 0 6 12 L 6 25 C 6 26.64497 7.3550302 28 9 28 L 21 28 C 22.64497 28 24 26.64497 24 25 L 24 23 L 25 23 C 26.64497 23 28 21.64497 28 20 L 28 16 C 28 14.35503 26.64497 13 25 13 L 24 13 L 24 11.8125 A 1.0001 1.0001 0 0 0 24 11.59375 C 24.610415 10.890852 25 9.9967242 25 9 C 25 6.8026661 23.197334 5 21 5 C 20.252221 5 19.594604 5.267348 19 5.625 C 18.405396 5.267348 17.747779 5 17 5 C 16.743509 5 16.539554 5.0790237 16.3125 5.125 C 15.536196 4.4738021 14.59568 4 13.5 4 z M 13.5 6 C 14.234874 6 14.879991 6.3321664 15.34375 6.84375 L 15.78125 7.3125 L 16.40625 7.125 C 16.630376 7.0526018 16.810505 7 17 7 C 17.512933 7 17.97976 7.2035217 18.34375 7.53125 L 19 8.125 L 19.65625 7.53125 C 20.02024 7.2035217 20.487067 7 21 7 C 22.116666 7 23 7.8833339 23 9 C 23 10.116666 22.116666 11 21 11 C 19.892184 11 18.28125 10.53125 18.28125 10.53125 L 17 10.15625 L 17 11.5 C 17 12.90213 17.300315 13.974508 17.5625 14.78125 C 17.824685 15.587992 18 16.103624 18 16.5 C 18 17.340812 17.340812 18 16.5 18 C 15.659188 18 15 17.340812 15 16.5 C 15 16.103624 15.175632 15.558516 15.4375 14.75 C 15.699368 13.941484 16 12.892723 16 11.5 L 16 9.71875 L 14.5 10.65625 C 14.5 10.65625 14.32194 10.74594 14.09375 10.84375 C 13.86556 10.94156 13.583625 11 13.5 11 C 12.85375 11 12.264789 10.755319 11.8125 10.34375 L 11.09375 9.6875 L 10.4375 10.375 C 10.07095 10.755001 9.5683695 11 9 11 C 7.8833339 11 7 10.116666 7 9 C 7 7.8833339 7.8833339 7 9 7 C 9.4046799 7 9.774715 7.1348902 10.09375 7.34375 L 10.90625 7.84375 L 11.46875 7.0625 C 11.923095 6.4165117 12.649333 6 13.5 6 z M 11.1875 12.25 C 11.870036 12.674602 12.635116 13 13.5 13 C 13.603844 13 13.654097 12.94767 13.75 12.9375 C 13.66948 13.323278 13.67157 13.819495 13.5625 14.15625 C 13.324368 14.891484 13 15.592376 13 16.5 C 13 18.421188 14.578812 20 16.5 20 C 18.421188 20 20 18.421188 20 16.5 C 20 15.592376 19.675315 14.888008 19.4375 14.15625 C 19.30861 13.759655 19.271912 13.19425 19.1875 12.71875 C 19.82627 12.867001 20.117028 13 21 13 C 21.344103 13 21.680662 12.926758 22 12.84375 L 22 13.6875 A 1.001098 1.001098 0 0 0 22 14.28125 L 22 21.8125 A 1.0001 1.0001 0 0 0 22 22.21875 L 22 25 C 22 25.56503 21.56503 26 21 26 L 9 26 C 8.4349698 26 8 25.56503 8 25 L 8 12.84375 C 8.3193379 12.926758 8.6558975 13 9 13 C 9.823788 13 10.550363 12.68035 11.1875 12.25 z M 24 15 L 25 15 C 25.56503 15 26 15.43497 26 16 L 26 20 C 26 20.56503 25.56503 21 25 21 L 24 21 L 24 15 z"/></svg>