<svg xmlns="http://www.w3.org/2000/svg" viewBox="0 0 32 32"><path d="M 16 5 C 14.707983 5 13.605718 5.8442551 13.1875 7 L 6 7 L 6 9 L 7.40625 9 L 7.125 9.5 L 3.125 16.5 L 3 16.75 L 3 17 C 3 19.749516 5.2504839 22 8 22 C 10.749516 22 13 19.749516 13 17 L 13 16.75 L 12.875 16.5 L 8.875 9.5 L 8.59375 9 L 13.1875 9 C 13.49281 9.8437236 14.157891 10.508062 15 10.8125 L 15 24 L 11 24 L 11 26 L 21 26 L 21 24 L 17 24 L 17 10.8125 C 17.839984 10.508543 18.508543 9.8399844 18.8125 9 L 23.40625 9 L 23.125 9.5 L 19.125 16.5 L 19 16.75 L 19 17 C 19 19.749516 21.250484 22 24 22 C 26.749516 22 29 19.749516 29 17 L 29 16.75 L 28.875 16.5 L 24.875 9.5 L 24.59375 9 L 26 9 L 26 7 L 18.8125 7 C 18.394282 5.8442551 17.292017 5 16 5 z M 16 7 C 16.564129 7 17 7.4358709 17 8 C 17 8.5641291 16.564129 9 16 9 C 15.435871 9 15 8.5641291 15 8 C 15 7.4358709 15.435871 7 16 7 z M 8 12.03125 L 10.28125 16 L 5.71875 16 L 8 12.03125 z M 24 12.03125 L 26.28125 16 L 21.71875 16 L 24 12.03125 z M 5.25 18 L 10.75 18 C 10.348049 19.161004 9.3060098 20 8 20 C 6.6939902 20 5.6519508 19.161004 5.25 18 z M 21.25 18 L 26.75 18 C 26.348049 19.161004 25.30601 20 24 20 C 22.69399 20 21.651951 19.161004 21.25 18 z"/></svg>