<svg xmlns="http://www.w3.org/2000/svg" viewBox="0 0 32 32"><path d="M 16 3 C 8.8262205 3 3 8.8262205 3 16 C 3 23.173779 8.8262205 29 16 29 C 23.173779 29 29 23.173779 29 16 C 29 8.8262205 23.173779 3 16 3 z M 16 4 C 22.633339 4 28 9.3666607 28 16 C 28 22.633339 22.633339 28 16 28 C 9.3666607 28 4 22.633339 4 16 C 4 9.3666607 9.3666607 4 16 4 z M 16 6 C 10.488997 6 6 10.488997 6 16 C 6 21.511003 10.488997 26 16 26 C 21.511003 26 26 21.511003 26 16 C 26 10.488997 21.511003 6 16 6 z M 16 8 C 20.430123 8 24 11.569877 24 16 C 24 20.430123 20.430123 24 16 24 C 11.569877 24 8 20.430123 8 16 C 8 11.569877 11.569877 8 16 8 z M 16 10 C 12.698136 10 10 12.698136 10 16 C 10 19.301864 12.698136 22 16 22 C 19.301864 22 22 19.301864 22 16 C 22 12.698136 19.301864 10 16 10 z M 16 12 C 18.220984 12 20 13.779016 20 16 C 20 18.220984 18.220984 20 16 20 C 13.779016 20 12 18.220984 12 16 C 12 13.779016 13.779016 12 16 12 z M 16 14 C 14.895431 14 14 14.895431 14 16 C 14 17.104569 14.895431 18 16 18 C 17.104569 18 18 17.104569 18 16 C 18 14.895431 17.104569 14 16 14 z"/></svg>