<svg xmlns="http://www.w3.org/2000/svg" viewBox="0 0 32 32"><path d="M 10.71875 3.28125 L 9.28125 4.71875 L 11.21875 6.65625 C 9.7571264 7.7749169 8.6089253 9.4115915 7.875 11.3125 L 5.4375 10.09375 L 4.5625 11.90625 L 7.3125 13.28125 C 7.1296685 14.157104 7 15.062959 7 16 C 7 16.340323 7.0062438 16.666395 7.03125 17 L 4 17 L 4 19 L 7.375 19 C 7.6173022 20.043389 7.9364203 21.03909 8.40625 21.9375 L 5.40625 24.1875 L 6.59375 25.8125 L 9.53125 23.625 C 11.149057 25.680857 13.4166 27 16 27 C 18.5834 27 20.850943 25.680857 22.46875 23.625 L 25.40625 25.8125 L 26.59375 24.1875 L 23.59375 21.9375 C 24.06358 21.03909 24.382698 20.043389 24.625 19 L 28 19 L 28 17 L 24.96875 17 C 24.993756 16.666395 25 16.340323 25 16 C 25 15.062959 24.870332 14.157104 24.6875 13.28125 L 27.4375 11.90625 L 26.5625 10.09375 L 24.125 11.3125 C 23.391075 9.4115915 22.242874 7.7749169 20.78125 6.65625 L 22.71875 4.71875 L 21.28125 3.28125 L 18.96875 5.59375 C 18.045715 5.2033938 17.046992 5 16 5 C 14.953008 5 13.954285 5.2033938 13.03125 5.59375 L 10.71875 3.28125 z M 16 7 C 17.978032 7 19.827322 8.0938286 21.125 9.875 C 19.991202 10.386272 18.200706 11 16 11 C 13.799294 11 12.008798 10.386272 10.875 9.875 C 12.172678 8.0938286 14.021968 7 16 7 z M 9.90625 11.59375 C 11.058777 12.136082 12.829995 12.775241 15 12.9375 L 15 24.90625 C 11.697753 24.28155 9 20.628575 9 16 C 9 14.382289 9.3372993 12.885354 9.90625 11.59375 z M 22.09375 11.59375 C 22.662701 12.885354 23 14.382289 23 16 C 23 20.628575 20.302247 24.28155 17 24.90625 L 17 12.9375 C 19.170005 12.775241 20.941223 12.136082 22.09375 11.59375 z"/></svg>