<svg xmlns="http://www.w3.org/2000/svg" viewBox="0 0 32 32"><path d="M 12 3 L 12 6 L 9 6 L 8 6 L 8 7 L 8 16 L 8 17 L 8 25 L 8 26 L 9 26 L 12 26 L 12 29 L 14 29 L 14 26 L 16 26 L 16 29 L 18 29 L 18 26 L 19.5 26 C 22.525577 26 25 23.525577 25 20.5 C 25 18.419916 23.839134 16.590353 22.125 15.65625 C 23.280912 14.646142 24 13.146733 24 11.5 C 24 8.4744232 21.525577 6 18.5 6 L 18 6 L 18 3 L 16 3 L 16 6 L 14 6 L 14 3 L 12 3 z M 10 8 L 18.5 8 C 20.444423 8 22 9.5555768 22 11.5 C 22 13.444423 20.444423 15 18.5 15 L 10 15 L 10 8 z M 10 17 L 18.5 17 L 19.5 17 C 21.444423 17 23 18.555577 23 20.5 C 23 22.444423 21.444423 24 19.5 24 L 10 24 L 10 17 z"/></svg>