<svg xmlns="http://www.w3.org/2000/svg" viewBox="4 -4 32 32"><path d="M 12 2 L 12 6 L 14 6 L 14 2 L 12 2 z M 16 3 L 16 6 L 18 6 L 18 3 L 16 3 z M 6 7 L 6 8 L 6 25 C 6 26.645455 7.354545 28 9 28 L 21 28 C 22.645455 28 24 26.645455 24 25 L 24 20 L 26 20 C 27.645455 20 29 18.645455 29 17 L 29 14 C 29 12.354546 27.645455 11 26 11 L 24 11 L 24 8 L 24 7 L 23 7 L 7 7 L 6 7 z M 8 9 L 22 9 L 22 25 C 22 25.554545 21.554545 26 21 26 L 9 26 C 8.445455 26 8 25.554545 8 25 L 8 9 z M 24 13 L 26 13 C 26.554545 13 27 13.445454 27 14 L 27 17 C 27 17.554545 26.554545 18 26 18 L 24 18 L 24 13 z" transform="translate(4 -4)"/></svg>