<svg xmlns="http://www.w3.org/2000/svg" viewBox="0 0 32 32"><path d="M 16 3 C 14.74096 3 13.84816 3.8903886 13.40625 5 L 11 5 L 10 5 L 7 5 L 6 5 L 6 6 L 6 27 L 6 28 L 7 28 L 25 28 L 26 28 L 26 27 L 26 6 L 26 5 L 25 5 L 22 5 L 21 5 L 18.59375 5 C 18.15184 3.8903886 17.25904 3 16 3 z M 16 5 C 16.554545 5 17 5.4454545 17 6 L 17 7 L 18 7 L 20 7 L 20 9 L 12 9 L 12 7 L 14 7 L 15 7 L 15 6 C 15 5.4454545 15.445455 5 16 5 z M 8 7 L 10 7 L 10 10 L 10 11 L 11 11 L 21 11 L 22 11 L 22 10 L 22 7 L 24 7 L 24 26 L 8 26 L 8 7 z"/></svg>