<svg xmlns="http://www.w3.org/2000/svg" viewBox="0 0 32 32"><path d="M 16 3 C 8.8321429 3 3 8.8321429 3 16 C 3 23.167857 8.8321429 29 16 29 C 23.167857 29 29 23.167857 29 16 C 29 8.8321429 23.167857 3 16 3 z M 16 5 C 22.086977 5 27 9.9130231 27 16 C 27 22.086977 22.086977 27 16 27 C 9.9130231 27 5 22.086977 5 16 C 5 9.9130231 9.9130231 5 16 5 z M 15.90625 10 C 12.58244 10 9.90625 12.67619 9.90625 16 C 9.90625 19.32381 12.58244 22 15.90625 22 C 18.30625 22 20.357299 20.561052 21.3125 18.53125 L 19.5 17.6875 C 18.855201 19.057698 17.50625 20 15.90625 20 C 13.63006 20 11.90625 18.27619 11.90625 16 C 11.90625 13.72381 13.63006 12 15.90625 12 C 17.50625 12 18.855201 12.942302 19.5 14.3125 L 21.3125 13.46875 C 20.357299 11.438948 18.30625 10 15.90625 10 z"/></svg>