<svg xmlns="http://www.w3.org/2000/svg" viewBox="0 0 32 32"><path d="M 4 7 C 3.448 7 3 7.448 3 8 C 3 8.552 3.448 9 4 9 L 6.21875 9 L 8.84375 19.5 C 9.06675 20.39 9.86325 21 10.78125 21 L 13 21 L 22 21 L 23.25 21 C 24.152 21 24.91825 20.40125 25.15625 19.53125 L 27.75 10 L 25.65625 10 L 23.25 19 L 10.78125 19 L 8.15625 8.5 C 7.93425 7.61 7.13675 7 6.21875 7 L 4 7 z M 22 21 C 20.35499 21 19 22.35499 19 24 C 19 25.64501 20.35499 27 22 27 C 23.64501 27 25 25.64501 25 24 C 25 22.35499 23.64501 21 22 21 z M 13 21 C 11.35499 21 10 22.35499 10 24 C 10 25.64501 11.35499 27 13 27 C 14.64501 27 16 25.64501 16 24 C 16 22.35499 14.64501 21 13 21 z M 16 7 L 16 10 L 13 10 L 13 12 L 16 12 L 16 15 L 18 15 L 18 12 L 21 12 L 21 10 L 18 10 L 18 7 L 16 7 z M 13 23 C 13.564128 23 14 23.435872 14 24 C 14 24.564128 13.564128 25 13 25 C 12.435872 25 12 24.564128 12 24 C 12 23.435872 12.435872 23 13 23 z M 22 23 C 22.564128 23 23 23.435872 23 24 C 23 24.564128 22.564128 25 22 25 C 21.435872 25 21 24.564128 21 24 C 21 23.435872 21.435872 23 22 23 z"/></svg>