<svg xmlns="http://www.w3.org/2000/svg" viewBox="0 0 32 32"><path d="M 5 6 C 3.3550302 6 2 7.3550302 2 9 L 2 23 C 2 24.64497 3.3550302 26 5 26 L 27 26 C 28.64497 26 30 24.64497 30 23 L 30 9 C 30 7.3550302 28.64497 6 27 6 L 5 6 z M 5 8 L 27 8 C 27.56503 8 28 8.4349698 28 9 L 28 23 C 28 23.56503 27.56503 24 27 24 L 5 24 C 4.4349698 24 4 23.56503 4 23 L 4 9 C 4 8.4349698 4.4349698 8 5 8 z M 19.40625 12.375 C 17.48025 12.375 16.46875 13.32525 16.46875 14.53125 C 16.46875 16.71225 19.03125 16.41025 19.03125 17.53125 C 19.03125 17.72225 18.8705 18.15625 17.8125 18.15625 C 16.7525 18.15625 16.0625 17.78125 16.0625 17.78125 L 15.75 19.21875 C 15.75 19.21875 16.40575 19.625 17.71875 19.625 C 19.03075 19.625 20.875 18.61725 20.875 17.15625 C 20.875 15.39925 18.3125 15.283 18.3125 14.5 C 18.3125 14.1 18.6515 13.78125 19.5625 13.78125 C 20.1555 13.78125 20.8125 14.25 20.8125 14.25 L 21.125 12.71875 C 21.125 12.71875 20.25525 12.375 19.40625 12.375 z M 11.1875 12.5 L 9.5 17.4375 C 9.5 17.4375 9.416 17.01 9.375 16.75 C 8.42 14.61 6.875 13.8125 6.875 13.8125 L 8.34375 19.40625 L 10.34375 19.40625 L 13.15625 12.5 L 11.1875 12.5 z M 13.875 12.5 L 12.78125 19.40625 L 14.625 19.40625 L 15.71875 12.5 L 13.875 12.5 z M 23.8125 12.5 L 20.8125 19.40625 L 22.625 19.40625 L 23 18.4375 L 25.3125 18.4375 L 25.5 19.40625 L 27.15625 19.40625 L 25.75 12.5 L 23.8125 12.5 z M 4.84375 12.53125 C 4.84375 12.53125 8.44025 13.63475 9.28125 16.34375 L 8.65625 13.21875 C 8.65625 13.21875 8.38125 12.53125 7.65625 12.53125 L 4.84375 12.53125 z M 24.5 14.5 L 25.03125 17.09375 L 23.53125 17.09375 L 24.5 14.5 z"/></svg>