<svg xmlns="http://www.w3.org/2000/svg" viewBox="0 0 32 32"><path d="M 16 5 C 12.66937 5 9.9482319 7.370825 9.25 10.5 C 8.0323941 10.979587 7.1250623 11.871246 6.59375 13.0625 C 6.393524 13.040162 6.2108978 13 6 13 C 2.6983746 13 0 15.698375 0 19 C 0 22.301625 2.6983746 25 6 25 L 26 25 C 29.301625 25 32 22.301625 32 19 C 32 16.834851 30.729674 15.054754 29 14 C 29 10.698375 26.301625 8 23 8 C 22.567646 8 22.204176 8.1301253 21.8125 8.21875 C 20.563417 6.3016794 18.451368 5 16 5 z M 16 7 C 17.958258 7 19.644293 8.1194266 20.46875 9.75 L 20.84375 10.53125 L 21.6875 10.25 C 22.124556 10.09644 22.555632 10 23 10 C 25.220375 10 27 11.779625 27 14 C 27 13.991 26.98625 14.07798 26.96875 14.3125 L 26.90625 15.03125 L 27.5625 15.3125 C 28.990818 15.922353 30 17.338324 30 19 C 30 21.220375 28.220375 23 26 23 L 6 23 C 3.7796254 23 2 21.220375 2 19 C 2 16.779625 3.7796254 15 6 15 C 6.2910493 15 6.5770183 15.0266 6.875 15.09375 L 7.875 15.3125 L 8.0625 14.34375 C 8.3101638 13.229637 9.2024354 12.358515 10.3125 12.09375 L 10.96875 11.9375 L 11.0625 11.25 C 11.418499 8.8363784 13.477927 7 16 7 z"/></svg>