<svg xmlns="http://www.w3.org/2000/svg" viewBox="0 0 32 32"><path d="M 16 3 C 8.8 3 3 8.8 3 16 C 3 23.2 8.8 29 16 29 C 23.2 29 29 23.2 29 16 C 29 14.6 28.8125 13.20625 28.3125 11.90625 L 26.6875 13.5 C 26.8875 14.3 27 15.1 27 16 C 27 22.1 22.1 27 16 27 C 9.9 27 5 22.1 5 16 C 5 9.9 9.9 5 16 5 C 19 5 21.69375 6.19375 23.59375 8.09375 L 25 6.6875 C 22.7 4.3875 19.5 3 16 3 z M 27.28125 7.28125 L 16 18.5625 L 11.71875 14.28125 L 10.28125 15.71875 L 15.28125 20.71875 L 16 21.40625 L 16.71875 20.71875 L 28.71875 8.71875 L 27.28125 7.28125 z"/></svg>