<svg xmlns="http://www.w3.org/2000/svg" viewBox="0 0 32 32"><path d="M 5 6 C 3.3550302 6 2 7.3550302 2 9 L 2 23 C 2 24.64497 3.3550302 26 5 26 L 27 26 C 28.64497 26 30 24.64497 30 23 L 30 9 C 30 7.3550302 28.64497 6 27 6 L 5 6 z M 5 8 L 27 8 C 27.56503 8 28 8.4349698 28 9 L 28 23 C 28 23.56503 27.56503 24 27 24 L 5 24 C 4.4349698 24 4 23.56503 4 23 L 4 9 C 4 8.4349698 4.4349698 8 5 8 z M 16.5 11.4375 C 16.026 11.4375 15.65625 11.80725 15.65625 12.28125 C 15.65625 12.74925 16.026 13.125 16.5 13.125 C 16.968 13.125 17.34375 12.74925 17.34375 12.28125 C 17.34375 11.80725 16.967 11.4375 16.5 11.4375 z M 11.0625 12.1875 L 9.6875 12.40625 L 9.5 13.625 L 9 13.71875 L 8.8125 14.84375 L 9.5 14.84375 L 9.5 17.1875 C 9.5 17.7975 9.65075 18.20975 9.96875 18.46875 C 10.23475 18.68275 10.61725 18.78125 11.15625 18.78125 C 11.57225 18.78125 11.825 18.70225 12 18.65625 L 12 17.40625 C 11.903 17.43225 11.68125 17.46875 11.53125 17.46875 C 11.21325 17.46875 11.0625 17.3085 11.0625 16.9375 L 11.0625 14.84375 L 11.90625 14.84375 L 12.09375 13.625 L 11.0625 13.625 L 11.0625 12.1875 z M 6.90625 13.53125 C 6.36025 13.53125 5.8875 13.6715 5.5625 13.9375 C 5.2245 14.2165 5.0625 14.638 5.0625 15.125 C 5.0625 16.008 5.59175 16.3695 6.46875 16.6875 C 7.03375 16.8885 7.21875 17.029 7.21875 17.25 C 7.21875 17.464 7.04975 17.59375 6.71875 17.59375 C 6.30975 17.59375 5.6285 17.385 5.1875 17.125 L 5 18.34375 C 5.377 18.55775 6.0855 18.78125 6.8125 18.78125 C 7.3905 18.78125 7.8635 18.66625 8.1875 18.40625 C 8.5515 18.12025 8.75 17.67 8.75 17.125 C 8.751 16.222 8.2025 15.84925 7.3125 15.53125 C 6.8385 15.35625 6.5625 15.24525 6.5625 15.03125 C 6.5625 14.84925 6.70175 14.71875 6.96875 14.71875 C 7.45575 14.71875 7.9685 14.92475 8.3125 15.09375 L 8.5 13.875 C 8.227 13.745 7.67925 13.53125 6.90625 13.53125 z M 20.71875 13.53125 C 20.25075 13.53125 19.8205 13.74725 19.4375 14.15625 L 19.375 13.625 L 17.9375 13.625 L 17.9375 20.5625 L 19.5625 20.28125 L 19.5625 18.6875 C 19.8095 18.7655 20.05425 18.78125 20.28125 18.78125 C 20.68425 18.78125 21.26375 18.6805 21.71875 18.1875 C 22.15375 17.7135 22.375 16.99925 22.375 16.03125 C 22.374 15.17425 22.23025 14.50975 21.90625 14.09375 C 21.62025 13.72375 21.22475 13.53125 20.71875 13.53125 z M 24.9375 13.53125 C 23.5675 13.53125 22.71875 14.5635 22.71875 16.1875 C 22.71875 17.0965 22.927 17.78375 23.375 18.21875 C 23.778 18.60875 24.379 18.78125 25.125 18.78125 C 25.813 18.78125 26.44175 18.642 26.84375 18.375 L 26.65625 17.25 C 26.26025 17.464 25.80125 17.59375 25.28125 17.59375 C 24.96925 17.59375 24.74975 17.511 24.59375 17.375 C 24.42475 17.232 24.3455 17.0185 24.3125 16.6875 L 26.96875 16.6875 C 26.97775 16.6105 27 16.242 27 16.125 C 27 15.32 26.81375 14.66675 26.46875 14.21875 C 26.11775 13.76375 25.6065 13.53125 24.9375 13.53125 z M 15 13.5625 C 14.545 13.5625 14.17425 13.822 14.03125 14.25 L 13.9375 13.625 L 12.53125 13.625 L 12.53125 18.6875 L 14.15625 18.6875 L 14.15625 15.40625 C 14.35725 15.15925 14.64125 15.0625 15.03125 15.0625 C 15.11525 15.0625 15.2015 15.07475 15.3125 15.09375 L 15.3125 13.59375 C 15.2005 13.56775 15.098 13.5625 15 13.5625 z M 15.6875 13.625 L 15.6875 18.6875 L 17.3125 18.6875 L 17.3125 13.625 L 15.6875 13.625 z M 24.90625 14.625 C 25.27025 14.625 25.474 14.9725 25.5 15.6875 L 24.3125 15.6875 C 24.3575 14.9665 24.53625 14.625 24.90625 14.625 z M 20.15625 14.78125 C 20.56525 14.78125 20.78125 15.1995 20.78125 16.0625 C 20.78225 16.5555 20.7115 16.95875 20.5625 17.21875 C 20.4325 17.46575 20.234 17.59375 20 17.59375 C 19.838 17.59375 19.6925 17.565 19.5625 17.5 L 19.5625 15.09375 C 19.8355 14.80775 20.06625 14.78125 20.15625 14.78125 z"/></svg>