<svg xmlns="http://www.w3.org/2000/svg" viewBox="0 0 32 32"><path d="M 2 6 L 2 7 L 2 22.90625 L 2 23.90625 L 3 23.90625 L 29 23.90625 L 30 23.90625 L 30 22.90625 L 30 7 L 30 6 L 29 6 L 3 6 L 2 6 z M 4 8 L 28 8 L 28 21.90625 L 4 21.90625 L 4 8 z M 12 10 C 9.2504839 10 7 12.250484 7 15 C 7 17.749516 9.2504839 20 12 20 C 13.193552 20 14.277963 19.559287 15.125 18.875 L 13.875 17.3125 C 13.348037 17.738213 12.708448 18 12 18 C 10.331516 18 9 16.668484 9 15 C 9 13.331516 10.331516 12 12 12 C 12.708448 12 13.348037 12.261787 13.875 12.6875 L 15.125 11.125 C 14.277963 10.440713 13.193552 10 12 10 z M 22 10 C 19.250484 10 17 12.250484 17 15 C 17 17.749516 19.250484 20 22 20 C 23.193552 20 24.277963 19.559287 25.125 18.875 L 23.875 17.3125 C 23.348037 17.738213 22.708448 18 22 18 C 20.331516 18 19 16.668484 19 15 C 19 13.331516 20.331516 12 22 12 C 22.708448 12 23.348037 12.261787 23.875 12.6875 L 25.125 11.125 C 24.277963 10.440713 23.193552 10 22 10 z"/></svg>