<svg xmlns="http://www.w3.org/2000/svg" viewBox="0 0 32 32"><path d="M 16 4 C 9.3844277 4 4 9.3844277 4 16 C 4 22.615572 9.3844277 28 16 28 C 22.615572 28 28 22.615572 28 16 C 28 9.3844277 22.615572 4 16 4 z M 16 6 C 19.928643 6 23.300989 8.2461124 24.9375 11.53125 L 18.1875 11.53125 C 17.522425 11.202443 16.78846 11 16 11 C 14.367437 11 12.914043 11.811102 12 13.03125 L 8.4375 9.46875 C 10.269371 7.3458878 12.967138 6 16 6 z M 7.625 10.5625 L 11.03125 16.46875 C 11.25384 18.787311 13.077035 20.675224 15.375 20.96875 L 14.125 25.84375 C 9.485346 24.973685 6 20.897404 6 16 C 6 13.990556 6.6103305 12.127503 7.625 10.5625 z M 25.46875 12.75 C 25.818199 13.769902 26 14.859588 26 16 C 26 21.534692 21.534692 26 16 26 C 15.821819 26 15.644601 25.977893 15.46875 25.96875 L 18.875 20.09375 C 20.154579 19.185763 21 17.679046 21 16 C 21 15.322916 20.840526 14.684146 20.59375 14.09375 L 25.46875 12.75 z M 16 13 C 16.625762 13 17.209044 13.177984 17.6875 13.5 C 18.484927 14.036693 19 14.957063 19 16 C 19 17.668699 17.668699 19 16 19 C 14.331301 19 13 17.668699 13 16 C 13 14.331301 14.331301 13 16 13 z"/></svg>