<svg xmlns="http://www.w3.org/2000/svg" viewBox="0 0 32 32"><path d="M 22.40625 4 L 17.78125 8.59375 C 16.627697 9.7473034 16.627697 11.658947 17.78125 12.8125 L 16 14.5625 L 14.71875 13.28125 L 7.21875 5.78125 L 6.5 5.09375 L 5.78125 5.78125 C 4.0108607 7.5516393 4.0108607 10.448361 5.78125 12.21875 L 12.0625 18.5 L 4.28125 26.28125 L 5.71875 27.71875 L 13.5 19.9375 L 14.6875 21.09375 L 15.40625 21.8125 L 16.09375 21.09375 L 17.875 19.3125 L 26.28125 27.71875 L 27.71875 26.28125 L 18.59375 17.1875 L 17.4375 16 L 19.1875 14.21875 L 19.21875 14.21875 L 19.25 14.25 C 20.408243 15.351399 22.27026 15.35474 23.40625 14.21875 L 23.5 14.09375 L 28 9.59375 L 26.59375 8.1875 L 22 12.78125 C 21.565016 13.216234 21.063246 13.225147 20.625 12.8125 L 25.90625 7.5 L 24.5 6.09375 L 19.1875 11.375 C 18.774853 10.936754 18.783766 10.434984 19.21875 10 L 23.8125 5.40625 L 22.40625 4 z M 6.78125 8.21875 L 16.46875 17.90625 L 15.40625 18.96875 L 7.21875 10.78125 C 6.4780362 10.040536 6.4562078 9.1037986 6.78125 8.21875 z"/></svg>