<svg xmlns="http://www.w3.org/2000/svg" viewBox="0 0 32 32"><path d="M 16 5 C 11.881031 5 8.6410897 8.1306815 8.1875 12.125 C 6.3932503 12.4248 4.9405202 13.644661 4.34375 15.34375 C 1.883741 16.056388 0 18.249284 0 21 C 0 24.32381 2.6761905 27 6 27 L 26 27 C 29.32381 27 32 24.32381 32 21 C 32 19.239589 31.145477 17.664208 29.90625 16.5625 C 29.674011 13.048311 26.870723 10.244435 23.34375 10.0625 C 22.139865 7.1309484 19.377659 5 16 5 z M 16 7 C 18.7625 7 20.971089 8.7714244 21.75 11.28125 L 21.96875 12 L 22.6875 12 L 23 12 C 25.754545 12 28 14.245455 28 17 L 28 17.5 L 28.40625 17.8125 C 29.35025 18.5205 30 19.733333 30 21 C 30 23.27619 28.27619 25 26 25 L 6 25 C 3.7238095 25 2 23.27619 2 21 C 2 18.98 3.448849 17.412428 5.28125 17.09375 L 5.9375 16.96875 L 6.0625 16.3125 C 6.3621165 14.964226 7.5561404 14 9 14 L 10 14 L 10 13 C 10 9.6299145 12.629915 7 16 7 z M 15 12 L 15 18.5625 L 12.71875 16.28125 L 11.28125 17.71875 L 15.28125 21.71875 L 16 22.40625 L 16.71875 21.71875 L 20.71875 17.71875 L 19.28125 16.28125 L 17 18.5625 L 17 12 L 15 12 z"/></svg>