<svg xmlns="http://www.w3.org/2000/svg" viewBox="0 0 32 32"><path d="M 5 6 C 3.3550302 6 2 7.3550302 2 9 L 2 23 C 2 24.64497 3.3550302 26 5 26 L 27 26 C 28.64497 26 30 24.64497 30 23 L 30 9 C 30 7.3550302 28.64497 6 27 6 L 5 6 z M 5 8 L 27 8 C 27.56503 8 28 8.4349698 28 9 L 28 23 C 28 23.56503 27.56503 24 27 24 L 5 24 C 4.4349698 24 4 23.56503 4 23 L 4 9 C 4 8.4349698 4.4349698 8 5 8 z M 12 9 C 8.1458513 9 5 12.145852 5 16 C 5 19.854148 8.1458513 23 12 23 C 13.485804 23 14.864379 22.545395 16 21.75 C 17.131395 22.542398 18.511784 23 20 23 C 23.854334 23 27 19.854334 27 16 C 27 12.145666 23.854334 9 20 9 C 18.511784 9 17.131395 9.4576018 16 10.25 C 14.864379 9.4546053 13.485804 9 12 9 z M 12 11 C 13.281778 11 14.430115 11.495792 15.3125 12.28125 C 14.903713 12.794844 14.567831 13.370037 14.34375 14 L 16.5625 14 C 16.70185 14.318428 16.83521 14.650395 16.90625 15 L 14.09375 15 C 14.03775 15.326 14 15.658 14 16 C 14 16.342 14.03875 16.674 14.09375 17 L 16.90625 17 C 16.83521 17.349605 16.70185 17.681572 16.5625 18 L 14.34375 18 C 14.567831 18.629963 14.904097 19.205156 15.3125 19.71875 C 14.430115 20.504208 13.281778 21 12 21 C 9.2267317 21 7 18.773268 7 16 C 7 13.226732 9.2267317 11 12 11 z M 20 11 C 22.773666 11 25 13.226334 25 16 C 25 18.773666 22.773666 21 20 21 C 19.084946 21 18.237717 20.741062 17.5 20.3125 C 18.44087 19.120293 19 17.629913 19 16 C 19 14.370087 18.44087 12.879707 17.5 11.6875 C 18.237717 11.258938 19.084946 11 20 11 z"/></svg>