<svg xmlns="http://www.w3.org/2000/svg" viewBox="0 0 32 32"><path d="M 5 6 C 3.3550302 6 2 7.3550302 2 9 L 2 23 C 2 24.64497 3.3550302 26 5 26 L 27 26 C 28.64497 26 30 24.64497 30 23 L 30 9 C 30 7.3550302 28.64497 6 27 6 L 5 6 z M 5 8 L 27 8 C 27.56503 8 28 8.4349698 28 9 L 28 23 C 28 23.56503 27.56503 24 27 24 L 5 24 C 4.4349698 24 4 23.56503 4 23 L 4 9 C 4 8.4349698 4.4349698 8 5 8 z M 10.4375 14.15625 C 9.8135 14.15625 9.34375 14.6105 9.34375 15.1875 C 9.34375 15.6735 9.57575 15.91425 10.21875 16.15625 C 10.59375 16.29725 10.90625 16.37775 10.90625 16.71875 C 10.90625 17.00475 10.682 17.21875 10.375 17.21875 C 10.047 17.21875 9.783 17.057 9.625 16.75 L 9.15625 17.15625 C 9.47325 17.62125 9.88225 17.84375 10.40625 17.84375 C 11.12125 17.84375 11.59375 17.3705 11.59375 16.6875 C 11.59275 16.1265 11.37675 15.8495 10.59375 15.5625 C 10.18075 15.4095 10.0625 15.315 10.0625 15.125 C 10.0625 14.903 10.2655 14.75 10.5625 14.75 C 10.7685 14.75 10.946 14.83025 11.125 15.03125 L 11.5 14.5625 C 11.204 14.3035 10.8245 14.15625 10.4375 14.15625 z M 13.6875 14.15625 C 12.6455 14.15825 11.8125 14.974 11.8125 16 C 11.8125 17.037 12.6395 17.84375 13.6875 17.84375 C 13.9835 17.84375 14.2495 17.773 14.5625 17.625 L 14.5625 16.8125 C 14.2875 17.0875 14.03075 17.1875 13.71875 17.1875 C 13.02575 17.1875 12.53125 16.68275 12.53125 15.96875 C 12.53125 15.29175 13.0425 14.78125 13.6875 14.78125 C 14.0155 14.78125 14.2765 14.87625 14.5625 15.15625 L 14.5625 14.34375 C 14.2605 14.19075 13.9835 14.15625 13.6875 14.15625 z M 16.59375 14.15625 C 15.577546 14.15625 14.75 14.983796 14.75 16 C 14.75 17.016204 15.577546 17.84375 16.59375 17.84375 C 17.609954 17.84375 18.4375 17.016204 18.4375 16 C 18.4375 14.983796 17.609954 14.15625 16.59375 14.15625 z M 5 14.21875 L 5 17.75 L 6 17.75 C 7.535 17.75 7.90625 16.55 7.90625 16 C 7.90625 14.96 7.116 14.21875 6 14.21875 L 5 14.21875 z M 8.21875 14.21875 L 8.21875 17.75 L 8.90625 17.75 L 8.90625 14.21875 L 8.21875 14.21875 z M 18.3125 14.21875 L 19.8125 17.84375 L 20.1875 17.84375 L 21.71875 14.21875 L 20.96875 14.21875 L 20 16.59375 L 19.0625 14.21875 L 18.3125 14.21875 z M 22.03125 14.21875 L 22.03125 17.75 L 23.96875 17.75 L 23.96875 17.15625 L 22.71875 17.15625 L 22.71875 16.1875 L 23.9375 16.1875 L 23.9375 15.59375 L 22.71875 15.59375 L 22.71875 14.8125 L 23.96875 14.8125 L 23.96875 14.21875 L 22.03125 14.21875 z M 24.4375 14.21875 L 24.4375 17.75 L 25.125 17.75 L 25.125 16.34375 L 25.1875 16.34375 L 26.15625 17.75 L 27 17.75 L 25.875 16.25 C 26.394 16.145 26.6875 15.79 26.6875 15.25 C 26.6875 14.589 26.2315 14.21875 25.4375 14.21875 L 24.4375 14.21875 z M 25.125 14.78125 L 25.3125 14.78125 C 25.7415 14.78125 26 14.9695 26 15.3125 C 26 15.6675 25.7525 15.84375 25.3125 15.84375 L 25.125 15.84375 L 25.125 14.78125 z M 5.6875 14.8125 L 5.90625 14.8125 C 6.84425 14.8125 7.1875 15.445 7.1875 16 C 7.1865 16.266 7.114 17.15625 5.875 17.15625 L 5.6875 17.15625 L 5.6875 14.8125 z"/></svg>