<svg xmlns="http://www.w3.org/2000/svg" viewBox="0 0 32 32"><path d="M 8.90625 5 L 8.71875 5.78125 L 5.03125 22.78125 L 4.75 24 L 6 24 L 9.625 24 L 9.03125 26.78125 L 8.75 28 L 10 28 L 14.90625 28 L 15.71875 28 L 15.875 27.1875 L 16.90625 22.375 L 19.59375 22.375 C 23.356649 22.375 26.660453 19.93132 27.5 16 C 27.941441 13.934306 27.4745 12.184052 26.5 11 C 25.709607 10.039648 24.639076 9.4616787 23.53125 9.1875 C 23.318282 8.2007095 22.865119 7.3581168 22.25 6.71875 C 21.111471 5.5353402 19.534422 5 18.0625 5 L 9.6875 5 L 8.90625 5 z M 10.53125 7 L 18.0625 7 C 19.042578 7 20.124529 7.3786598 20.8125 8.09375 C 21.500471 8.8088402 21.901967 9.8284189 21.53125 11.5625 C 20.870797 14.65518 18.534851 16.375 15.59375 16.375 L 12.09375 16.375 L 11.28125 16.375 L 11.125 17.15625 L 10.09375 22 L 10.0625 22 L 7.25 22 L 10.53125 7 z M 13.0625 8.46875 L 12.875 9.25 L 11.84375 13.875 L 11.5625 15.09375 L 12.8125 15.09375 L 15.09375 15.09375 C 16.870704 15.09375 18.407126 13.801171 18.84375 12.0625 L 18.875 12.0625 C 18.8807 12.0417 18.8698 12.02082 18.875 12 C 19.095478 11.123551 18.95394 10.227234 18.46875 9.5625 C 17.972035 8.8819741 17.137222 8.46875 16.25 8.46875 L 13.84375 8.46875 L 13.0625 8.46875 z M 14.65625 10.46875 L 16.25 10.46875 C 16.562778 10.46875 16.727715 10.55978 16.84375 10.71875 C 16.959785 10.877724 17.044633 11.137512 16.9375 11.53125 L 16.9375 11.5625 C 16.749497 12.372166 15.79479 13.09375 15.09375 13.09375 L 14.0625 13.09375 L 14.65625 10.46875 z M 23.59375 11.34375 C 24.1229 11.560188 24.616232 11.852929 24.96875 12.28125 C 25.550996 12.988698 25.872809 13.964194 25.53125 15.5625 C 24.870797 18.65518 22.534851 20.375 19.59375 20.375 L 16.09375 20.375 L 15.28125 20.375 L 15.125 21.15625 L 14.09375 26 L 11.25 26 L 11.6875 24 L 11.71875 24 L 11.875 23.1875 L 12.90625 18.375 L 15.59375 18.375 C 19.356649 18.375 22.660453 15.93132 23.5 12 C 23.548309 11.774026 23.566648 11.561587 23.59375 11.34375 z"/></svg>