<svg xmlns="http://www.w3.org/2000/svg" viewBox="0 0 32 32"><path d="M 5.65625 5.46875 C 4.74925 5.46875 4 6.18675 4 7.09375 L 4 24.90625 C 4 25.81325 4.74925 26.53125 5.65625 26.53125 L 9.375 26.53125 C 7.779 24.78325 7.056 22.25525 7 22.03125 C 6.763 21.08125 5.827 16.93075 5.5 14.96875 C 5.368 14.17775 5.28125 13.3115 5.28125 12.1875 C 5.28125 8.6045 7.14375 6.47375 8.34375 5.46875 L 5.65625 5.46875 z M 22.15625 5.46875 C 23.77025 6.91875 24.65625 9.40625 24.65625 9.40625 L 18.25 10.75 C 18.25 10.75 17.304 8.625 15.125 8.625 C 13.939 8.625 11.78125 9.45875 11.78125 11.59375 C 11.78125 12.97775 12.26525 15.867 12.90625 18.625 C 13.68225 21.966 14.5255 23.71875 16.6875 23.71875 C 20.2425 23.71875 20.21875 20.1875 20.21875 20.1875 L 26.65625 18.75 C 26.65625 18.75 26.65625 19.3955 26.65625 20.3125 C 26.65625 23.4215 24.634 25.85025 24 26.53125 L 26.34375 26.53125 C 27.25075 26.53125 28 25.81325 28 24.90625 L 28 7.09375 C 27.999 6.18675 27.25075 5.46875 26.34375 5.46875 L 22.15625 5.46875 z"/></svg>