<svg xmlns="http://www.w3.org/2000/svg" viewBox="0 0 32 32"><path d="M 16 4 C 9.3844277 4 4 9.3844277 4 16 C 4 22.615572 9.3844277 28 16 28 C 22.615572 28 28 22.615572 28 16 C 28 9.3844277 22.615572 4 16 4 z M 16 6 C 21.534692 6 26 10.465308 26 16 C 26 21.534692 21.534692 26 16 26 C 10.465308 26 6 21.534692 6 16 C 6 10.465308 10.465308 6 16 6 z M 12 12 C 10.35503 12 9 13.35503 9 15 L 9 17 C 9 18.64497 10.35503 20 12 20 C 13.64497 20 15 18.64497 15 17 L 13 17 C 13 17.56503 12.56503 18 12 18 C 11.43497 18 11 17.56503 11 17 L 11 15 C 11 14.43497 11.43497 14 12 14 C 12.56503 14 13 14.43497 13 15 L 15 15 C 15 13.35503 13.64497 12 12 12 z M 20 12 C 18.35503 12 17 13.35503 17 15 L 17 17 C 17 18.64497 18.35503 20 20 20 C 21.64497 20 23 18.64497 23 17 L 21 17 C 21 17.56503 20.56503 18 20 18 C 19.43497 18 19 17.56503 19 17 L 19 15 C 19 14.43497 19.43497 14 20 14 C 20.56503 14 21 14.43497 21 15 L 23 15 C 23 13.35503 21.64497 12 20 12 z"/></svg>