<svg xmlns="http://www.w3.org/2000/svg" viewBox="0 0 32 32"><path d="M 15 3 L 15 5.0625 C 9.7324351 5.5397801 5.5397801 9.7324351 5.0625 15 L 3 15 L 3 17 L 5.0625 17 C 5.5397801 22.267565 9.7324351 26.46022 15 26.9375 L 15 29 L 17 29 L 17 26.9375 C 22.267565 26.46022 26.46022 22.267565 26.9375 17 L 29 17 L 29 15 L 26.9375 15 C 26.46022 9.7324351 22.267565 5.5397801 17 5.0625 L 17 3 L 15 3 z M 15 7.03125 L 15 9 L 17 9 L 17 7.03125 C 21.192969 7.4846347 24.515365 10.807031 24.96875 15 L 23 15 L 23 17 L 24.96875 17 C 24.515365 21.192969 21.192969 24.515365 17 24.96875 L 17 23 L 15 23 L 15 24.96875 C 10.807031 24.515365 7.4846347 21.192969 7.03125 17 L 9 17 L 9 15 L 7.03125 15 C 7.4846347 10.807031 10.807031 7.4846347 15 7.03125 z"/></svg>