<svg xmlns="http://www.w3.org/2000/svg" viewBox="0 0 32 32"><path d="M 11 4 C 9.3549904 4 8 5.3549904 8 7 C 8 8.292018 8.8442552 9.3942821 10 9.8125 L 10 22.1875 C 8.8442551 22.605718 8 23.707983 8 25 C 8 26.645009 9.3549901 28 11 28 C 12.64501 28 14 26.64501 14 25 C 14 23.73209 13.184789 22.654436 12.0625 22.21875 C 12.205143 20.989248 12.685338 20.38295 13.4375 19.875 C 14.335192 19.268771 15.715808 18.909367 17.21875 18.5625 C 18.721692 18.215633 20.335387 17.853762 21.6875 16.90625 C 22.87685 16.072796 23.772615 14.71175 23.96875 12.8125 C 25.13879 12.402134 26 11.3023 26 10 C 26 8.3549901 24.645009 7 23 7 C 21.354991 7 20 8.3549901 20 10 C 20 11.27831 20.832041 12.352938 21.96875 12.78125 C 21.832884 14.094348 21.323514 14.747959 20.5625 15.28125 C 19.664613 15.910457 18.278308 16.279492 16.78125 16.625 C 15.284192 16.970508 13.664808 17.27426 12.3125 18.1875 C 12.204315 18.260559 12.102875 18.355375 12 18.4375 L 12 9.8125 C 13.155745 9.3942822 14 8.2920182 14 7 C 14 5.3549901 12.645009 4 11 4 z M 11 6 C 11.564129 6 12 6.4358709 12 7 C 12 7.5641291 11.564129 8 11 8 C 10.435871 8 10 7.5641294 10 7 C 10 6.4358706 10.435871 6 11 6 z M 23 9 C 23.564129 9 24 9.4358709 24 10 C 24 10.564128 23.564128 11 23 11 C 22.435872 11 22 10.564128 22 10 C 22 9.4358709 22.435871 9 23 9 z M 11 24 C 11.564128 24 12 24.435872 12 25 C 12 25.564128 11.564128 26 11 26 C 10.435871 26 10 25.564129 10 25 C 10 24.435871 10.435871 24 11 24 z"/></svg>