<svg xmlns="http://www.w3.org/2000/svg" viewBox="0 0 32 32"><path d="M 16 3 C 8.8321429 3 3 8.8321429 3 16 C 3 23.167857 8.8321429 29 16 29 C 23.167857 29 29 23.167857 29 16 C 29 8.8321429 23.167857 3 16 3 z M 14.875 5.0625 C 14.916024 5.0583495 14.958843 5.0662007 15 5.0625 L 15 6 L 17 6 L 17 5.0625 C 22.284136 5.5376347 26.462365 9.7158645 26.9375 15 L 26 15 L 26 17 L 26.9375 17 C 26.462365 22.284136 22.284136 26.462365 17 26.9375 L 17 26 L 15 26 L 15 26.9375 C 9.7158645 26.462365 5.5376347 22.284136 5.0625 17 L 6 17 L 6 15 L 5.0625 15 C 5.5339339 9.7570218 9.6490529 5.5912324 14.875 5.0625 z M 22.09375 9.90625 L 13.59375 13.59375 L 9.90625 22.09375 L 18.40625 18.40625 L 22.09375 9.90625 z M 16 14.5 C 16.8 14.5 17.5 15.2 17.5 16 C 17.5 16.8 16.8 17.5 16 17.5 C 15.2 17.5 14.5 16.8 14.5 16 C 14.5 15.2 15.2 14.5 16 14.5 z"/></svg>