<svg xmlns="http://www.w3.org/2000/svg" viewBox="0 0 32 32"><path d="M 5 6 C 3.3550302 6 2 7.3550302 2 9 L 2 23 C 2 24.64497 3.3550302 26 5 26 L 27 26 C 28.64497 26 30 24.64497 30 23 L 30 9 C 30 7.3550302 28.64497 6 27 6 L 5 6 z M 5 8 L 27 8 C 27.56503 8 28 8.4349698 28 9 L 28 23 C 28 23.56503 27.56503 24 27 24 L 5 24 C 4.4349698 24 4 23.56503 4 23 L 4 9 C 4 8.4349698 4.4349698 8 5 8 z M 8.15625 11 C 6.92825 11 6 11.776 6 13.125 L 6 16.125 L 6 21 L 9.9375 21 C 10.8965 21 12 20.1055 12 18.9375 L 12 11 L 8.15625 11 z M 15.15625 11 C 13.93225 11 13 11.781 13 13.125 L 13 20.9375 L 16.9375 20.9375 C 17.8935 20.9375 19 20.04 19 18.875 L 19 11 L 15.15625 11 z M 22.15625 11 C 20.93325 11 20 11.782 20 13.125 L 20 20.9375 L 23.90625 20.9375 C 24.86025 20.9375 26 20.039 26 18.875 L 26 16.5625 L 26 11 L 22.15625 11 z M 15.375 14 L 18.25 14 L 18.25 14.625 C 17.563 14.466 16.8915 14.375 16.5625 14.375 C 15.8455 14.375 15.28125 14.993 15.28125 15.75 C 15.28125 16.509 15.8455 17.09375 16.5625 17.09375 C 16.8915 17.09375 17.563 17.035 18.25 16.875 L 18.25 17.46875 L 15.375 17.46875 C 14.48 17.46875 13.71875 16.697 13.71875 15.75 C 13.71875 14.804 14.48 14 15.375 14 z M 20.84375 14 L 24.53125 14 C 24.97925 14 25.34375 14.39575 25.34375 14.84375 C 25.34375 15.29075 25.04175 15.71875 24.59375 15.71875 C 25.10175 15.71875 25.5 16.1155 25.5 16.5625 C 25.5 17.0105 25.10075 17.4375 24.59375 17.4375 L 20.84375 17.4375 L 20.84375 14 z M 9.46875 14.03125 L 11.1875 14.03125 L 11.1875 15.96875 C 11.1875 17.04775 9.79925 17.625 8.78125 17.625 C 7.67225 17.625 6.67875 16.964 6.46875 16.125 L 7.21875 16.125 C 7.30875 16.635 7.806 17 8.375 17 C 9.005 17 9.46875 16.53875 9.46875 15.96875 L 9.46875 14.03125 z M 22.25 14.34375 L 22.25 15.5 L 23.4375 15.5 C 23.7355 15.5 24 15.2355 24 14.9375 C 24 14.6395 23.7355 14.34375 23.4375 14.34375 L 22.25 14.34375 z M 22.25 15.9375 L 22.25 17.09375 L 23.46875 17.09375 C 23.76775 17.09375 24.03125 16.82825 24.03125 16.53125 C 24.03125 16.23225 23.76775 15.9375 23.46875 15.9375 L 22.25 15.9375 z"/></svg>