<svg xmlns="http://www.w3.org/2000/svg" viewBox="0 0 32 32"><path d="M 16 3 C 15.376018 3 14.752023 3.2128405 14.21875 3.59375 L 12.5625 4.75 L 10.65625 5 L 10.625 5 L 10.59375 5.03125 C 9.3185879 5.3146194 8.3146194 6.3185879 8.03125 7.59375 L 8 7.625 L 8 7.65625 L 7.75 9.59375 L 6.59375 11.09375 L 6.5625 11.125 L 6.5625 11.15625 C 5.8639985 12.273852 5.831931 13.714703 6.59375 14.78125 L 7.78125 16.4375 L 8.09375 18.15625 L 4.875 23.0625 L 3.84375 24.59375 L 5.6875 24.59375 L 8.625 24.59375 L 9.78125 27.28125 L 10.5 29 L 11.53125 27.4375 L 14.6875 22.6875 C 15.533959 23.036543 16.494097 23.066439 17.3125 22.6875 L 20.46875 27.4375 L 21.5 29 L 22.21875 27.28125 L 23.375 24.59375 L 26.3125 24.59375 L 28.15625 24.59375 L 27.125 23.0625 L 24 18.3125 L 24.25 16.4375 L 25.40625 14.78125 L 25.4375 14.75 L 25.4375 14.71875 C 26.136001 13.601148 26.168069 12.191547 25.40625 11.125 L 24.25 9.46875 L 23.875 7.59375 L 23.90625 7.59375 C 23.903548 7.5694295 23.8783 7.5553909 23.875 7.53125 C 23.696104 6.2226056 22.658258 5.1595936 21.34375 5 L 21.3125 5 L 19.4375 4.75 L 17.78125 3.59375 C 17.247977 3.2128405 16.623982 3 16 3 z M 16 5.03125 C 16.229137 5.03125 16.458274 5.0996595 16.625 5.21875 L 18.40625 6.5 L 18.625 6.65625 L 18.875 6.6875 L 21.0625 7 L 21.09375 7 C 21.54125 7.049722 21.856528 7.3649999 21.90625 7.8125 L 21.90625 7.84375 L 21.90625 7.875 L 22.3125 10.09375 L 22.34375 10.3125 L 22.5 10.5 L 23.78125 12.28125 C 24.019431 12.614703 24.051499 13.173852 23.75 13.65625 L 22.5 15.40625 L 22.34375 15.625 L 22.3125 15.875 L 22 18.0625 L 22 18.09375 C 21.981704 18.25842 21.92732 18.409031 21.84375 18.53125 L 21.78125 18.5625 L 21.78125 18.59375 C 21.637022 18.764211 21.437647 18.878456 21.1875 18.90625 L 21.15625 18.90625 L 21.125 18.90625 L 18.84375 19.3125 L 18.59375 19.34375 L 18.40625 19.5 L 16.625 20.78125 C 16.291547 21.019431 15.701148 21.051499 15.21875 20.75 L 13.59375 19.5 L 13.40625 19.34375 L 13.125 19.3125 L 10.9375 19 L 10.90625 19 C 10.597022 18.965643 10.357712 18.806469 10.21875 18.5625 C 10.156612 18.453408 10.109114 18.325772 10.09375 18.1875 L 10.09375 18.15625 L 10.09375 18.125 L 9.6875 15.84375 L 9.65625 15.59375 L 9.5 15.40625 L 8.21875 13.625 C 7.980569 13.291547 7.9485015 12.701148 8.25 12.21875 L 9.5 10.59375 L 9.65625 10.40625 L 9.6875 10.125 L 9.96875 8.03125 C 9.9721803 8.0158136 9.9960847 8.0152152 10 8 C 10.12529 7.5131144 10.513114 7.1252903 11 7 C 11.01521 6.99608 11.01581 6.97218 11.03125 6.96875 L 13.125 6.6875 L 13.375 6.65625 L 13.59375 6.5 L 15.375 5.21875 C 15.541726 5.0996595 15.770863 5.03125 16 5.03125 z M 22.90625 20.25 L 24.4375 22.59375 L 22.6875 22.59375 L 22.03125 22.59375 L 21.78125 23.21875 L 21.09375 24.8125 L 18.96875 21.5625 L 19.4375 21.21875 L 21.40625 20.875 L 21.40625 20.90625 C 21.43057 20.90355 21.44461 20.8783 21.46875 20.875 C 22.006123 20.801539 22.49726 20.572815 22.90625 20.25 z M 9.09375 20.28125 C 9.5213129 20.662466 10.06145 20.927786 10.65625 21 C 10.66605 21.0012 10.6777 20.9989 10.6875 21 L 12.59375 21.25 L 13.03125 21.59375 L 10.90625 24.8125 L 10.21875 23.21875 L 9.96875 22.59375 L 9.3125 22.59375 L 7.5625 22.59375 L 9.09375 20.28125 z"/></svg>