<svg xmlns="http://www.w3.org/2000/svg" viewBox="0 0 32 32"><path d="M 5 6 C 3.3550302 6 2 7.3550302 2 9 L 2 23 C 2 24.64497 3.3550302 26 5 26 L 27 26 C 28.64497 26 30 24.64497 30 23 L 30 9 C 30 7.3550302 28.64497 6 27 6 L 5 6 z M 5 8 L 27 8 C 27.56503 8 28 8.4349698 28 9 L 28 23 C 28 23.56503 27.56503 24 27 24 L 5 24 C 4.4349698 24 4 23.56503 4 23 L 4 9 C 4 8.4349698 4.4349698 8 5 8 z M 15 10 C 11.698136 10 9 12.698136 9 16 C 9 19.301864 11.698136 22 15 22 L 17 22 C 20.314 22 23 19.314 23 16 C 23 12.686 20.314 10 17 10 L 15 10 z M 15 12 C 17.220984 12 19 13.779016 19 16 C 19 18.220984 17.220984 20 15 20 C 12.779016 20 11 18.220984 11 16 C 11 13.779016 12.779016 12 15 12 z M 14.1875 13.65625 C 13.2145 13.99825 12.5 14.91 12.5 16 C 12.5 17.09 13.2145 18.00175 14.1875 18.34375 L 14.1875 13.65625 z M 15.8125 13.65625 L 15.8125 18.34375 C 16.7855 18.00075 17.5 17.09 17.5 16 C 17.5 14.91 16.7855 13.99825 15.8125 13.65625 z"/></svg>