<svg xmlns="http://www.w3.org/2000/svg" viewBox="0 0 32 32"><path d="M 21.75 4 C 20.079 4 18.4935 4.66075 17.3125 5.84375 L 15.84375 7.3125 C 14.66175 8.4945 14 10.079 14 11.75 C 14 12.544 14.1525 13.31525 14.4375 14.03125 L 16.0625 12.40625 C 15.8585 11.11125 16.253 9.71475 17.25 8.71875 L 18.71875 7.25 C 19.52275 6.444 20.612 6 21.75 6 C 22.887 6 23.946 6.445 24.75 7.25 C 26.41 8.909 26.41 11.62125 24.75 13.28125 L 23.28125 14.75 C 22.47625 15.555 21.388 16 20.25 16 C 20.026 16 19.80875 15.9755 19.59375 15.9375 L 17.96875 17.5625 C 18.68475 17.8475 19.457 18 20.25 18 C 21.921 18 23.5065 17.33925 24.6875 16.15625 L 26.15625 14.6875 C 27.33825 13.5055 28 11.921 28 10.25 C 28 8.579 27.33825 7.02575 26.15625 5.84375 C 24.97525 4.66075 23.421 4 21.75 4 z M 19.28125 11.28125 L 11.28125 19.28125 L 12.71875 20.71875 L 20.71875 12.71875 L 19.28125 11.28125 z M 11.75 14 C 10.079 14 8.4935 14.66075 7.3125 15.84375 L 5.84375 17.3125 C 4.66175 18.4945 4 20.079 4 21.75 C 4 23.421 4.66175 24.97425 5.84375 26.15625 C 7.02475 27.33925 8.579 28 10.25 28 C 11.921 28 13.5065 27.33925 14.6875 26.15625 L 16.15625 24.6875 C 17.33825 23.5055 18 21.921 18 20.25 C 18 19.456 17.8475 18.68475 17.5625 17.96875 L 15.9375 19.59375 C 16.1415 20.88875 15.747 22.28525 14.75 23.28125 L 13.28125 24.75 C 12.47725 25.556 11.388 26 10.25 26 C 9.113 26 8.054 25.555 7.25 24.75 C 5.59 23.091 5.59 20.37875 7.25 18.71875 L 8.71875 17.25 C 9.52375 16.445 10.612 16 11.75 16 C 11.974 16 12.19125 16.0245 12.40625 16.0625 L 14.03125 14.4375 C 13.31525 14.1525 12.543 14 11.75 14 z"/></svg>