<svg xmlns="http://www.w3.org/2000/svg" viewBox="0 0 32 32"><path d="M 24.5 3 L 24.1875 3.28125 L 20.46875 7 L 11 7 C 8.2504839 7 6 9.2504839 6 12 L 6 22 C 6 24.749516 8.2504839 27 11 27 L 21 27 C 23.749516 27 26 24.749516 26 22 L 26 4 L 26 3 L 25 3 L 24.90625 3 L 24.5 3 z M 24 6.3125 L 24 22 C 24 23.668484 22.668484 25 21 25 L 11 25 C 9.3315161 25 8 23.668484 8 22 L 8 12 C 8 10.331516 9.3315161 9 11 9 L 20.90625 9 L 21.3125 9 L 21.59375 8.71875 L 24 6.3125 z M 13 12 C 11.906937 12 11 12.906937 11 14 L 11 20 C 11 21.093063 11.906937 22 13 22 L 21 22 L 23.40625 22 L 21.71875 20.28125 L 21 19.5625 L 21 14 C 21 12.906937 20.093063 12 19 12 L 13 12 z M 13 14 L 19 14 L 19 20 L 13 20 L 13 14 z"/></svg>