<svg xmlns="http://www.w3.org/2000/svg" viewBox="0 0 32 32"><path d="M 16 4 C 9.3844277 4 4 9.3844277 4 16 C 4 22.615572 9.3844277 28 16 28 C 22.615572 28 28 22.615572 28 16 C 28 9.3844277 22.615572 4 16 4 z M 16 6 C 18.533991 6 20.833984 6.9539111 22.59375 8.5 C 22.405145 8.7608816 22.153055 9.0785421 21.75 9.46875 C 20.89424 10.297234 19.526092 11.293163 17.4375 12.0625 C 16.022665 9.4496354 14.637651 7.4826176 13.71875 6.25 C 14.449926 6.0805835 15.216301 6 16 6 z M 11.75 6.9375 C 12.569236 8.0109707 14.030454 10.002245 15.5 12.65625 C 11.433175 13.736147 7.7038952 13.8723 6.21875 13.875 C 6.8813503 10.786272 8.9596563 8.2412017 11.75 6.9375 z M 23.96875 9.96875 C 25.188755 11.582496 25.947078 13.577906 26 15.75 C 25.107938 15.551928 23.795966 15.353858 22.09375 15.34375 C 21.206238 15.338441 20.202287 15.402878 19.125 15.53125 C 18.875574 14.960314 18.604338 14.410301 18.34375 13.875 C 20.586898 13.015514 22.114837 11.884213 23.125 10.90625 C 23.470027 10.572221 23.737242 10.261053 23.96875 9.96875 z M 16.40625 14.46875 C 16.637809 14.934699 16.870348 15.41159 17.09375 15.90625 C 12.821719 17.089667 9.7487175 20.715875 8.4375 22.53125 C 6.9263755 20.780085 6 18.50183 6 16 C 6 15.958224 5.9994927 15.916653 6 15.875 C 7.3506826 15.888682 11.649778 15.797507 16.40625 14.46875 z M 22.09375 17.3125 C 23.879138 17.310565 25.114507 17.563902 25.84375 17.75 C 25.378248 20.413161 23.873882 22.697425 21.75 24.1875 C 21.349834 21.796109 20.696811 19.523498 19.90625 17.4375 C 20.693635 17.360006 21.441615 17.313207 22.09375 17.3125 z M 17.875 17.78125 C 18.771741 20.064321 19.526623 22.566163 19.90625 25.21875 C 18.709311 25.723852 17.383673 26 16 26 C 13.706515 26 11.590841 25.229371 9.90625 23.9375 C 10.932473 22.530715 13.954628 18.787896 17.875 17.78125 z"/></svg>