<svg xmlns="http://www.w3.org/2000/svg" viewBox="0 0 32 32"><path d="M 15 3 L 15 5.09375 C 12.162243 5.5714673 10 8.0518049 10 11 C 10 12.775538 10.830697 14.147615 11.9375 15.03125 C 13.044303 15.914885 14.37532 16.406503 15.625 16.90625 C 16.87468 17.405997 18.044357 17.915532 18.8125 18.53125 C 19.580643 19.146968 20 19.773927 20 21 C 20 23.154386 18.207094 25 16 25 C 13.779625 25 12 23.220375 12 21 L 12 20 L 10 20 L 10 21 C 10 23.96477 12.165351 26.431397 15 26.90625 L 15 29 L 17 29 L 17 26.90625 C 19.842081 26.424567 22 23.925249 22 21 C 22 19.219573 21.169357 17.855969 20.0625 16.96875 C 18.955643 16.081531 17.62532 15.562503 16.375 15.0625 C 15.12468 14.562497 13.955697 14.082053 13.1875 13.46875 C 12.419303 12.855447 12 12.218962 12 11 C 12 8.8071668 13.785179 7 16 7 C 18.220375 7 20 8.7796254 20 11 L 20 12 L 22 12 L 22 11 C 22 8.0352296 19.834649 5.5686026 17 5.09375 L 17 3 L 15 3 z"/></svg>