<svg xmlns="http://www.w3.org/2000/svg" viewBox="0 0 32 32"><path d="M 14.53125 2.78125 L 14.03125 5.0625 C 14.03125 5.0625 13.90721 5.6283879 13.625 6.25 C 13.34279 6.8716121 12.861302 7.4305244 12.59375 7.53125 L 12.59375 7.5625 C 8.1861781 8.9998441 5 13.125222 5 18 C 5 24.063407 9.9365932 29 16 29 C 22.063407 29 27 24.063407 27 18 C 27 12.695042 23.232899 8.245572 18.21875 7.21875 C 18.133586 7.2001895 17.329762 6.6379149 16.78125 6 C 16.232738 5.3620851 15.84375 4.75 15.84375 4.75 L 14.53125 2.78125 z M 15.3125 7.34375 C 15.946758 8.0828671 16.643846 8.9328052 17.8125 9.1875 C 21.910351 10.026678 25 13.640958 25 18 C 25 19.245648 24.735735 20.422691 24.28125 21.5 C 24.514425 20.858852 24.625 20.143965 24.625 19.6875 C 24.625 19.0305 24.34125 17.9375 23.28125 17.9375 C 22.28425 17.9375 20.2475 20.01025 19.1875 20.03125 C 17.9375 20.05325 16.19875 17.57275 13.71875 17.59375 C 11.76875 17.61575 10.23975 19.1595 10.21875 20.8125 C 10.19775 21.7445 10.52125 22.43 11.15625 22.875 C 11.58025 23.15 11.94675 23.34375 13.21875 23.34375 C 15.31675 23.34375 17.98975 20.73925 19.21875 20.78125 C 20.19375 20.82425 21.737 23.186 22.5 23.25 C 23.093 23.292 23.39725 23.02325 23.90625 22.28125 C 22.384942 25.087132 19.425533 27 16 27 C 11.017407 27 7 22.982593 7 18 C 7 13.973776 9.6207709 10.594789 13.25 9.4375 L 13.28125 9.40625 L 13.3125 9.40625 C 14.38126 9.0038933 14.935688 8.1257535 15.3125 7.34375 z M 18.3125 22.25 C 18.177375 22.263375 18.02475 22.3005 17.84375 22.375 C 17.48375 22.523 17.108 22.8505 16.875 23.0625 C 16.642 23.2745 16.59175 23.455 16.71875 23.625 C 16.84675 23.795 16.98375 23.70325 17.34375 23.40625 C 17.70375 23.10925 17.91425 22.84375 18.65625 22.84375 C 19.39725 22.84375 19.5395 23.13025 19.6875 23.40625 C 19.8355 23.68125 19.852 23.71 20 23.625 C 20.17 23.54 20.2725 23.43075 20.1875 23.21875 C 20.1035 23.00675 19.9415 22.6075 19.6875 22.4375 C 19.4325 22.2675 19.089 22.25 18.75 22.25 C 18.5805 22.25 18.447625 22.236625 18.3125 22.25 z M 20.5 24.53125 C 20.464844 24.538828 20.42275 24.55675 20.375 24.59375 C 19.951 24.91075 18.981 25.28125 17.625 25.28125 C 16.269 25.28125 15.64275 24.99525 15.21875 24.65625 C 15.15575 24.61425 15.1895 24.625 15.0625 24.625 C 14.9355 24.625 14.82475 24.69625 14.71875 24.78125 C 14.61275 24.86625 14.57075 25.07075 14.71875 25.21875 C 15.65075 26.06675 17.19875 26.01225 18.34375 25.90625 C 19.48775 25.80025 20.48775 25.106 20.59375 25 C 20.74275 24.852 20.67725 24.74125 20.65625 24.65625 C 20.6405 24.5925 20.605469 24.508516 20.5 24.53125 z"/></svg>