<svg xmlns="http://www.w3.org/2000/svg" viewBox="0 0 32 32"><path d="M9.52,6.988c0,0.372,0,1.959,0,1.959h2.814c0,0,0.359,0.009,0.359-0.397c0-0.372,0.002-1.959,0.002-1.959H9.88 C9.88,6.591,9.52,6.582,9.52,6.988z M9.521,11.053c0,0.371,0,10.588,0,10.588h2.812c0,0,0.359,0.009,0.359-0.396 c0-0.082,0.002-10.587,0.002-10.587H9.881C9.881,10.657,9.521,10.648,9.521,11.053z M5.388,6.988v3.669H0.359 c0,0-0.359-0.009-0.359,0.397V21.64h8.202c0,0,0.359,0.009,0.359-0.397c0-0.372,0.002-14.652,0.002-14.652H5.748 C5.748,6.591,5.388,6.582,5.388,6.988z M5.39,18.885c0,0.407-0.36,0.397-0.36,0.397H3.11v-5.875c0-0.407,0.36-0.397,0.36-0.397h1.92 V18.885z M13.784,11.054V21.64h5.388v1.413h-5.029c0,0-0.359-0.009-0.359,0.397c0,0.372,0,1.959,0,1.959h8.202 c0,0,0.36,0.009,0.36-0.397c0-0.372,0.002-14.348,0.002-14.348l-8.204-0.006C14.144,10.657,13.784,10.648,13.784,11.054z M16.894,13.408c0-0.407,0.36-0.397,0.36-0.397h1.921v5.875c0,0.407-0.36,0.397-0.36,0.397h-1.92V13.408z M23.796,10.657 c0,0-0.359-0.009-0.359,0.397V21.64h5.388v1.413h-5.029c0,0-0.359-0.009-0.359,0.397c0,0.372,0,1.959,0,1.959h8.202 c0,0,0.359,0.009,0.359-0.397C31.998,24.64,32,10.663,32,10.663L23.796,10.657z M28.827,18.885c0,0.407-0.36,0.397-0.36,0.397h-1.92 v-5.875c0-0.407,0.36-0.397,0.36-0.397h1.921V18.885z"/></svg>