<svg xmlns="http://www.w3.org/2000/svg" viewBox="0 0 32 32"><path d="M 16 4 C 9.3844277 4 4 9.3844277 4 16 C 4 22.615572 9.3844277 28 16 28 C 22.615572 28 28 22.615572 28 16 C 28 9.3844277 22.615572 4 16 4 z M 16 6 C 21.534692 6 26 10.465308 26 16 C 26 21.534692 21.534692 26 16 26 C 10.465308 26 6 21.534692 6 16 C 6 10.465308 10.465308 6 16 6 z M 16 7 C 15.447715 7 15 7.4477153 15 8 C 15 8.5522847 15.447715 9 16 9 C 16.552285 9 17 8.5522847 17 8 C 17 7.4477153 16.552285 7 16 7 z M 10.34375 9.34375 C 9.7914657 9.34375 9.34375 9.7914657 9.34375 10.34375 C 9.34375 10.896035 9.7914657 11.34375 10.34375 11.34375 C 10.896035 11.34375 11.34375 10.896035 11.34375 10.34375 C 11.34375 9.7914657 10.896035 9.34375 10.34375 9.34375 z M 20.9375 9.65625 L 16.5 14.0625 C 16.340241 14.021396 16.172589 14 16 14 C 14.895431 14 14 14.895431 14 16 C 14 17.104569 14.895431 18 16 18 C 17.104569 18 18 17.104569 18 16 C 18 15.827411 17.978604 15.659759 17.9375 15.5 L 22.375 11.0625 L 20.9375 9.65625 z M 8 15 C 7.4477153 15 7 15.447715 7 16 C 7 16.552285 7.4477153 17 8 17 C 8.5522847 17 9 16.552285 9 16 C 9 15.447715 8.5522847 15 8 15 z M 24 15 C 23.447715 15 23 15.447715 23 16 C 23 16.552285 23.447715 17 24 17 C 24.552285 17 25 16.552285 25 16 C 25 15.447715 24.552285 15 24 15 z M 10.34375 20.65625 C 9.7914657 20.65625 9.34375 21.103965 9.34375 21.65625 C 9.34375 22.208534 9.7914657 22.65625 10.34375 22.65625 C 10.896035 22.65625 11.34375 22.208534 11.34375 21.65625 C 11.34375 21.103965 10.896035 20.65625 10.34375 20.65625 z M 21.65625 20.65625 C 21.103965 20.65625 20.65625 21.103965 20.65625 21.65625 C 20.65625 22.208534 21.103965 22.65625 21.65625 22.65625 C 22.208534 22.65625 22.65625 22.208534 22.65625 21.65625 C 22.65625 21.103965 22.208534 20.65625 21.65625 20.65625 z"/></svg>