<svg xmlns="http://www.w3.org/2000/svg" viewBox="0 0 32 32"><path d="M 16 8 C 7.6644477 8 1.25 15.34375 1.25 15.34375 L 0.65625 16 L 1.25 16.65625 C 1.25 16.65625 7.0993746 23.323781 14.875 23.9375 C 15.246868 23.984608 15.615658 24 16 24 C 16.384342 24 16.753132 23.984608 17.125 23.9375 C 24.900625 23.323781 30.75 16.65625 30.75 16.65625 L 31.34375 16 L 30.75 15.34375 C 30.75 15.34375 24.335552 8 16 8 z M 16 10 C 18.202084 10 20.234561 10.601586 22 11.40625 C 22.635281 12.459897 23 13.675275 23 15 C 23 18.613815 20.289168 21.583168 16.78125 21.96875 C 16.760549 21.971025 16.739506 21.966654 16.71875 21.96875 C 16.480148 21.982364 16.24281 22 16 22 C 15.736125 22 15.477642 21.98478 15.21875 21.96875 C 11.710832 21.583168 9 18.613815 9 15 C 9 13.695022 9.3508068 12.481701 9.96875 11.4375 L 9.9375 11.4375 C 11.717537 10.617794 13.771553 10 16 10 z M 16 12 C 14.343146 12 13 13.343146 13 15 C 13 16.656854 14.343146 18 16 18 C 17.656854 18 19 16.656854 19 15 C 19 13.343146 17.656854 12 16 12 z M 7.25 12.9375 C 7.0924367 13.607659 7 14.286222 7 15 C 7 16.754268 7.5016414 18.394904 8.375 19.78125 C 5.8554469 18.326057 4.1044757 16.586262 3.53125 16 C 4.0120443 15.508272 5.3532099 14.203069 7.25 12.9375 z M 24.75 12.9375 C 26.64679 14.203069 27.987956 15.508272 28.46875 16 C 27.895524 16.586262 26.144553 18.326057 23.625 19.78125 C 24.498359 18.394904 25 16.754268 25 15 C 25 14.285987 24.906641 13.602838 24.75 12.9375 z"/></svg>