<svg xmlns="http://www.w3.org/2000/svg" viewBox="0 0 32 32"><path d="M 3.71875 2.28125 L 2.28125 3.71875 L 8.46875 9.875 L 10 11.40625 L 13.0625 14.46875 L 16.53125 17.9375 L 19.59375 21 L 21.4375 22.84375 L 28.28125 29.71875 L 29.71875 28.28125 L 23.375 21.9375 C 27.472167 19.853342 30.526114 16.910518 30.71875 16.71875 L 31.375 16.0625 L 30.75 15.34375 C 30.494 15.04375 24.395 8 16 8 C 14.006995 8 12.153739 8.4191302 10.46875 9.03125 L 3.71875 2.28125 z M 16 10 C 18.164 10 20.1615 10.55575 21.9375 11.34375 C 22.6145 12.44375 23 13.7 23 15 C 23 16.814903 22.300102 18.470218 21.15625 19.71875 L 18.3125 16.875 C 18.727333 16.361769 19 15.710443 19 15 C 19 13.346 17.654 12 16 12 C 15.289557 12 14.638231 12.272667 14.125 12.6875 L 12.0625 10.625 C 13.302612 10.254073 14.611291 10 16 10 z M 6.625 10.875 C 3.387 12.865 1.394 15.17375 1.25 15.34375 L 0.625 16.0625 L 1.28125 16.71875 C 1.56725 17.00375 8.0985 23.3825 15.0625 23.9375 L 15.125 23.9375 C 15.415 23.9625 15.71 24 16 24 C 16.29 24 16.585 23.9625 16.875 23.9375 L 16.9375 23.9375 C 17.7355 23.8745 18.5345 23.72925 19.3125 23.53125 L 17.59375 21.8125 C 17.34375 21.8695 17.0735 21.9085 16.8125 21.9375 L 16.6875 21.96875 C 16.2205 22.00775 15.7785 22.00775 15.3125 21.96875 L 15.21875 21.9375 C 11.67975 21.5395 9 18.565 9 15 C 9 14.464 9.0665 13.9505 9.1875 13.4375 L 6.625 10.875 z M 7.28125 12.84375 C 7.10725 13.54775 7 14.263 7 15 C 7 16.612 7.4375 18.1215 8.1875 19.4375 C 6.0655 18.1755 4.32025 16.7485 3.40625 15.9375 C 4.15125 15.1945 5.50625 13.98975 7.28125 12.84375 z M 24.71875 12.84375 C 26.49075 13.98875 27.8175 15.22675 28.5625 15.96875 C 27.6485 16.77975 25.9355 18.1755 23.8125 19.4375 C 24.5625 18.1205 25 16.614 25 15 C 25 14.265 24.89175 13.54575 24.71875 12.84375 z M 16 14 C 16.552 14 17 14.449 17 15 C 17 15.162317 16.943962 15.301757 16.875 15.4375 L 15.5625 14.125 C 15.698267 14.055942 15.837389 14 16 14 z"/></svg>