<svg xmlns="http://www.w3.org/2000/svg" viewBox="0 0 32 32"><path d="M 18 4 C 13.262055 4 9.4130602 7.8873077 8.3125 13 L 6 13 L 6 15 L 8.0625 15 C 8.0399162 15.328357 8 15.665596 8 16 C 8 16.334404 8.0399162 16.671643 8.0625 17 L 6 17 L 6 19 L 8.3125 19 C 9.4130602 24.112692 13.262055 28 18 28 C 20.70855 28 23.169484 26.696606 24.9375 24.65625 L 23.40625 23.34375 C 21.954266 25.019394 20.07145 26 18 26 C 14.497717 26 11.411494 23.102459 10.375 19 L 19 19 L 19 17 L 10.03125 17 C 10.004828 16.668594 10 16.341395 10 16 C 10 15.658605 10.004828 15.331406 10.03125 15 L 19 15 L 19 13 L 10.375 13 C 11.411494 8.8975407 14.497717 6 18 6 C 20.07145 6 21.954266 6.9806061 23.40625 8.65625 L 24.9375 7.34375 C 23.169484 5.3033939 20.70855 4 18 4 z"/></svg>