<svg xmlns="http://www.w3.org/2000/svg" viewBox="0 0 32 32"><path d="M 16 6 C 14.895431 6 14 6.8954305 14 8 C 14 9.1045695 14.895431 10 16 10 C 17.104569 10 18 9.1045695 18 8 C 18 6.8954305 17.104569 6 16 6 z M 16 14 C 14.895431 14 14 14.895431 14 16 C 14 17.104569 14.895431 18 16 18 C 17.104569 18 18 17.104569 18 16 C 18 14.895431 17.104569 14 16 14 z M 16 22 C 14.895431 22 14 22.895431 14 24 C 14 25.104569 14.895431 26 16 26 C 17.104569 26 18 25.104569 18 24 C 18 22.895431 17.104569 22 16 22 z"/></svg>