<svg xmlns="http://www.w3.org/2000/svg" viewBox="0 0 32 32"><path d="M 24.65625 3.03125 C 23.547884 3.03125 22.434125 3.4408751 21.59375 4.28125 L 18.8125 7.09375 L 17.8125 6.09375 L 16.40625 7.5 L 17.40625 8.5 L 7.90625 18 C 6.8664752 19.039775 6.2725381 19.791788 5.90625 20.46875 C 5.5399619 21.145712 5.4118089 21.754084 5.34375 22.15625 C 5.2756911 22.558416 5.2436387 22.776772 5 23.21875 C 4.7563613 23.660728 4.2674454 24.295055 3.28125 25.28125 L 2.59375 26 L 3.28125 26.71875 L 5.28125 28.71875 L 6 29.40625 L 6.71875 28.71875 C 7.6789752 27.758525 8.2925868 27.293087 8.71875 27.0625 C 9.1449132 26.831913 9.3709163 26.788191 9.78125 26.71875 C 10.191584 26.64931 10.782603 26.534486 11.46875 26.15625 C 12.154897 25.778014 12.936195 25.157555 14 24.09375 L 23.5 14.59375 L 24.5 15.59375 L 25.90625 14.1875 L 24.90625 13.1875 L 27.71875 10.40625 C 29.3995 8.7255002 29.3995 5.9619998 27.71875 4.28125 C 26.878375 3.4408751 25.764616 3.03125 24.65625 3.03125 z M 24.65625 5.03125 C 25.247884 5.03125 25.821625 5.2591249 26.28125 5.71875 C 27.2005 6.6380002 27.2005 8.0807498 26.28125 9 L 23.5 11.78125 L 20.21875 8.5 L 23 5.71875 C 23.459625 5.2591249 24.064616 5.03125 24.65625 5.03125 z M 18.8125 9.90625 L 22.09375 13.1875 L 12.59375 22.6875 C 11.607555 23.673695 10.941978 24.162611 10.5 24.40625 C 10.058022 24.649889 9.8396663 24.681941 9.4375 24.75 C 9.0353337 24.81806 8.4582118 24.914962 7.78125 25.28125 C 7.3209986 25.530281 6.6943854 26.127577 6.09375 26.65625 L 5.34375 25.90625 C 5.8914278 25.287399 6.4912031 24.656976 6.75 24.1875 C 7.1282363 23.501353 7.2430589 22.879084 7.3125 22.46875 C 7.3819411 22.058416 7.4256631 21.863663 7.65625 21.4375 C 7.8868369 21.011337 8.3522748 20.366475 9.3125 19.40625 L 18.8125 9.90625 z"/></svg>