<svg xmlns="http://www.w3.org/2000/svg" viewBox="0 0 32 32"><path d="M 16 4 C 9.3844277 4 4 9.3844277 4 16 C 4 22.615572 9.3844277 28 16 28 C 22.615572 28 28 22.615572 28 16 C 28 9.3844277 22.615572 4 16 4 z M 16 6 C 21.534692 6 26 10.465308 26 16 C 26 21.534692 21.534692 26 16 26 C 10.465308 26 6 21.534692 6 16 C 6 10.465308 10.465308 6 16 6 z M 16.03125 7.84375 C 13.59225 7.89075 11.625 9.89275 11.625 12.34375 L 11.625 13.5625 C 11.625 13.7735 11.788 13.9375 12 13.9375 L 12.9375 13.9375 C 13.1485 13.9365 13.3125 13.7735 13.3125 13.5625 L 13.3125 12.34375 C 13.3125 10.82175 14.479 9.52275 16 9.46875 C 17.597 9.41175 18.9375 10.69725 18.9375 12.28125 L 18.9375 13.5625 C 18.9375 13.7735 19.1005 13.9375 19.3125 13.9375 L 20.21875 13.9375 C 20.42975 13.9375 20.59375 13.7745 20.59375 13.5625 L 20.59375 12.40625 C 20.59375 9.88925 18.54825 7.79575 16.03125 7.84375 z M 10.4375 14.34375 C 9.9775 14.34375 9.59375 14.69625 9.59375 15.15625 L 9.59375 21.625 C 9.59375 22.085 9.9775 22.4375 10.4375 22.4375 L 21.75 22.4375 C 22.21 22.4375 22.59375 22.085 22.59375 21.625 L 22.59375 15.15625 C 22.59375 14.69625 22.21 14.34375 21.75 14.34375 L 10.4375 14.34375 z M 10.59375 15.15625 L 10.96875 15.15625 C 11.06875 15.15625 11.15625 15.24375 11.15625 15.34375 L 11.15625 21.46875 C 11.15625 21.56875 11.06875 21.65625 10.96875 21.65625 L 10.59375 21.65625 C 10.49375 21.65625 10.40625 21.56875 10.40625 21.46875 L 10.40625 15.34375 C 10.40625 15.24375 10.49375 15.15625 10.59375 15.15625 z M 16.0625 15.96875 C 16.9425 15.96875 17.65625 16.6825 17.65625 17.5625 C 17.65625 18.1515 17.348 18.6615 16.875 18.9375 L 16.875 20.4375 C 16.875 20.6575 16.68875 20.8125 16.46875 20.8125 L 15.65625 20.8125 C 15.43625 20.8125 15.25 20.6575 15.25 20.4375 L 15.25 18.9375 C 14.776 18.6615 14.46875 18.1505 14.46875 17.5625 C 14.46875 16.6825 15.1825 15.96875 16.0625 15.96875 z"/></svg>