<svg xmlns="http://www.w3.org/2000/svg" viewBox="0 0 32 32"><path d="M27.593,12.893c-0.552-2.065-1.64-3.91-3.107-5.377c-1.468-1.468-3.316-2.557-5.383-3.109C18.113,4.142,17.073,4,16,4 c-1.075,0-2.116,0.142-3.108,0.407c-2.066,0.552-3.912,1.642-5.38,3.11c-1.466,1.467-2.554,3.312-3.106,5.377 C4.142,13.885,4,14.926,4,16c0,1.073,0.142,2.112,0.406,3.102c0.551,2.065,1.638,3.911,3.105,5.379 c1.468,1.47,3.316,2.56,5.383,3.113C13.884,27.858,14.926,28,16,28c1.074,0,2.114-0.142,3.104-0.406 c2.066-0.552,3.913-1.64,5.38-3.108c1.467-1.466,2.555-3.311,3.107-5.375C27.857,18.119,28,17.076,28,16 C28,14.925,27.858,13.884,27.593,12.893L27.593,12.893z M16.407,5.342c0.81,0.031,1.597,0.152,2.35,0.353 c1.837,0.49,3.479,1.459,4.784,2.764c0.539,0.539,1.022,1.136,1.436,1.78l-0.434,0.25c-0.392-0.607-0.847-1.169-1.355-1.678 l-0.896,0.896c-1.089-1.089-2.46-1.897-3.993-2.307l0.328-1.224c-0.712-0.19-1.456-0.305-2.221-0.335V5.342L16.407,5.342z M19.6,16 c0,0.324-0.044,0.638-0.124,0.937l3.687,0.988c-0.342,1.275-1.013,2.415-1.919,3.32l-2.699-2.699 c-0.441,0.44-0.995,0.766-1.615,0.932l0.988,3.687c-0.612,0.163-1.254,0.252-1.918,0.252c-0.664,0-1.307-0.089-1.92-0.252 l0.988-3.687c-0.622-0.166-1.177-0.494-1.618-0.937l-2.699,2.699c-0.906-0.907-1.577-2.049-1.917-3.325l3.687-0.988 C12.442,16.631,12.4,16.321,12.4,16c0-0.322,0.043-0.634,0.122-0.931l-3.687-0.988c0.341-1.276,1.012-2.416,1.918-3.323l2.699,2.699 c0.44-0.441,0.995-0.768,1.615-0.934l-0.988-3.687C14.692,8.672,15.335,8.583,16,8.583c0.663,0,1.305,0.088,1.917,0.251 l-0.988,3.687c0.621,0.165,1.176,0.492,1.617,0.933l2.699-2.699c0.906,0.907,1.578,2.048,1.919,3.323l-3.687,0.988 C19.557,15.365,19.6,15.677,19.6,16L19.6,16z M8.456,8.461c1.304-1.305,2.945-2.274,4.781-2.765c0.698-0.187,1.424-0.305,2.17-0.346 v0.501c-0.702,0.04-1.384,0.152-2.041,0.327l0.328,1.224c-1.532,0.41-2.902,1.218-3.99,2.307L8.809,8.813 c-0.508,0.508-0.962,1.07-1.353,1.676l-0.434-0.25C7.435,9.595,7.917,9,8.456,8.461L8.456,8.461z M6.521,20.895 c-0.349-0.674-0.627-1.391-0.827-2.139C5.459,17.877,5.333,16.953,5.333,16c0-0.955,0.127-1.88,0.362-2.761 c0.2-0.747,0.477-1.462,0.826-2.135l0.433,0.25c-0.327,0.635-0.588,1.309-0.776,2.014l1.224,0.328C7.205,14.431,7.1,15.203,7.1,16 c0,0.795,0.105,1.566,0.3,2.299l-1.224,0.328c0.188,0.706,0.45,1.382,0.778,2.018L6.521,20.895L6.521,20.895z M15.407,26.65 c-0.746-0.041-1.471-0.159-2.169-0.346c-1.838-0.491-3.48-1.461-4.785-2.768c-0.538-0.538-1.019-1.133-1.432-1.776l0.434-0.25 c0.391,0.605,0.844,1.166,1.351,1.674l0.896-0.896c1.089,1.09,2.46,1.9,3.994,2.31l-0.328,1.224 c0.656,0.175,1.338,0.287,2.039,0.327V26.65L15.407,26.65z M23.541,23.542c-1.305,1.305-2.946,2.272-4.782,2.763 c-0.754,0.201-1.541,0.323-2.352,0.353v-0.5c0.766-0.03,1.509-0.145,2.222-0.335l-0.328-1.224c1.532-0.409,2.902-1.216,3.991-2.305 l0.896,0.896c0.509-0.509,0.964-1.072,1.356-1.679l0.434,0.251C24.564,22.406,24.081,23.002,23.541,23.542L23.541,23.542z M25.479,20.895l-0.433-0.25c0.326-0.634,0.587-1.306,0.775-2.008l-1.224-0.328C24.794,17.572,24.9,16.799,24.9,16 c0-0.797-0.105-1.57-0.302-2.305l1.224-0.328c-0.188-0.704-0.45-1.378-0.776-2.013l0.433-0.25c0.348,0.673,0.626,1.387,0.825,2.134 c0.236,0.881,0.362,1.807,0.362,2.762c0,0.957-0.127,1.883-0.363,2.766C26.104,19.511,25.826,20.224,25.479,20.895L25.479,20.895z"/></svg>