<svg xmlns="http://www.w3.org/2000/svg" viewBox="0 0 32 32"><path d="M 18.125 4 C 14.820811 4 10.960733 4.5476509 7.96875 7.5625 C 4.9767666 10.577349 3 15.866256 3 25 L 3 26 L 4 26 L 12.65625 26 C 13.64512 26.624629 14.759046 27 16 27 C 17.24015 27 18.354742 26.61707 19.34375 26 L 28 26 L 29 26 L 29 25 C 29 16.874706 27.429684 12.155539 25.375 9.40625 C 23.565932 6.9856096 21.482722 6.3122487 19.9375 6.15625 L 19 4.5 L 18.71875 4 L 18.125 4 z M 17.5625 6.0625 L 18.375 7.5 L 18.65625 8 L 19.25 8 C 20.260707 8 22.097684 8.3410393 23.78125 10.59375 C 25.384608 12.739138 26.801004 16.83027 26.9375 24 L 21.5625 24 C 21.672152 23.859679 21.772928 23.708238 21.875 23.5625 C 23.232638 21.624061 24 19.206716 24 17 L 22 17 C 22 18.722284 21.356112 20.826939 20.25 22.40625 C 19.143888 23.985561 17.664699 25 16 25 C 14.336909 25 12.856619 23.98853 11.75 22.40625 C 10.643381 20.82397 10 18.711045 10 17 C 10 16.556131 10.08518 16.333221 10.21875 16.15625 C 10.352315 15.979279 10.584318 15.826901 10.9375 15.6875 C 11.643864 15.408698 12.835504 15.293318 14.09375 15.1875 C 15.351996 15.081682 16.663507 14.982025 17.84375 14.4375 C 19.023993 13.892975 20 12.660378 20 11 L 18 11 C 18 12.044122 17.726007 12.304462 17.03125 12.625 C 16.336493 12.945538 15.148004 13.083068 13.90625 13.1875 C 12.664496 13.291932 11.356136 13.351239 10.1875 13.8125 C 9.6031821 14.04313 9.0383103 14.38987 8.625 14.9375 C 8.2116897 15.48513 8 16.216619 8 17 C 8 19.197955 8.7678691 21.59078 10.125 23.53125 C 10.235329 23.689002 10.349573 23.848296 10.46875 24 L 5.0625 24 C 5.2152086 15.863862 7.0091575 11.352673 9.375 8.96875 C 11.695941 6.6300713 14.648747 6.1216678 17.5625 6.0625 z M 13 17 C 12.447715 17 12 17.447715 12 18 C 12 18.552285 12.447715 19 13 19 C 13.552285 19 14 18.552285 14 18 C 14 17.447715 13.552285 17 13 17 z M 19 17 C 18.447715 17 18 17.447715 18 18 C 18 18.552285 18.447715 19 19 19 C 19.552285 19 20 18.552285 20 18 C 20 17.447715 19.552285 17 19 17 z"/></svg>