<svg xmlns="http://www.w3.org/2000/svg" viewBox="0 0 32 32"><path d="M 7.875 4 L 8 5.125 L 8.875 13 L 8.03125 13 L 6.3125 10.4375 L 6.03125 10 L 5.46875 10 L 3 10 L 1.78125 10 L 2.03125 11.1875 L 3 16 L 2.03125 20.8125 L 1.78125 22 L 3 22 L 5.46875 22 L 6.03125 22 L 6.3125 21.5625 L 8.03125 19 L 8.875 19 L 8 26.875 L 7.875 28 L 9 28 L 11 28 L 11.40625 28 L 11.71875 27.71875 L 20.4375 19 L 26 19 C 27.155818 19 27.893526 18.327909 28.5625 17.78125 C 29.231474 17.234591 29.71875 16.6875 29.71875 16.6875 L 30.375 16 L 29.71875 15.3125 C 29.71875 15.3125 29.231474 14.765409 28.5625 14.21875 C 27.893526 13.672091 27.155818 13 26 13 L 20.4375 13 L 11.71875 4.28125 L 11.40625 4 L 11 4 L 9 4 L 7.875 4 z M 10.125 6 L 10.5625 6 L 19.28125 14.71875 L 19.59375 15 L 20 15 L 26 15 C 25.94918 15 26.726474 15.327909 27.28125 15.78125 C 27.417787 15.892823 27.413675 15.894567 27.53125 16 C 27.413675 16.105433 27.417787 16.107177 27.28125 16.21875 C 26.726474 16.672091 25.949182 17 26 17 L 20 17 L 19.59375 17 L 19.28125 17.28125 L 10.5625 26 L 10.125 26 L 11 18.125 L 11.125 17 L 10 17 L 7.46875 17 L 6.9375 17 L 6.65625 17.4375 L 4.9375 20 L 4.21875 20 L 4.96875 16.1875 L 5.03125 16 L 4.96875 15.8125 L 4.21875 12 L 4.9375 12 L 6.65625 14.5625 L 6.9375 15 L 7.46875 15 L 10 15 L 11.125 15 L 11 13.875 L 10.125 6 z M 16 7 L 18 9 L 20 9 L 21 8 L 20 7 L 16 7 z M 18 23 L 16 25 L 20 25 L 21 24 L 20 23 L 18 23 z"/></svg>