<svg xmlns="http://www.w3.org/2000/svg" viewBox="0 0 32 32"><path d="M 5 5 L 5 6 L 5 26 L 5 27 L 6 27 L 26 27 L 27 27 L 27 26 L 27 6 L 27 5 L 26 5 L 6 5 L 5 5 z M 7 7 L 25 7 L 25 25 L 7 25 L 7 7 z M 19.71875 8.90625 L 19.03125 10.1875 L 17.78125 10.1875 L 17.625 10.625 L 18.625 11.6875 L 18.21875 13.1875 C 18.21875 13.1875 18.50625 13.53925 18.53125 13.53125 C 18.55625 13.52225 19.9375 12.75 19.9375 12.75 L 21.3125 13.53125 L 21.6875 13.1875 L 21.25 11.6875 L 22.25 10.59375 L 22.03125 10.1875 L 20.8125 10.1875 L 20.125 8.90625 L 19.71875 8.90625 z M 14.375 10.71875 C 10.872 10.71875 10.96875 13.375 10.96875 13.375 L 10.96875 14.75 L 9.6875 14.75 L 9.6875 16.4375 L 10.9375 16.4375 L 10.9375 21.8125 L 9.6875 21.96875 L 9.6875 23.125 L 15.5625 23.125 C 15.5455 23.143 15.5625 22 15.5625 22 L 13.46875 21.78125 L 13.46875 16.4375 L 15.96875 16.4375 L 16.46875 14.75 L 13.46875 14.75 L 13.46875 13 C 13.46875 13 13.63625 12.25 14.28125 12.25 C 14.92625 12.25 15.03125 12.84375 15.03125 12.84375 L 15.03125 13.34375 L 17.28125 13.03125 C 17.28125 13.03125 17.704 10.71875 14.375 10.71875 z M 17.8125 14.78125 L 17.4375 16.0625 L 18.625 16.40625 C 18.768 16.44525 18.875 16.56975 18.875 16.71875 L 18.875 21.5 C 18.875 21.658 18.74875 21.7825 18.59375 21.8125 L 17.65625 22 L 17.65625 23.125 L 22.21875 23.125 L 22.21875 22.03125 L 21.6875 21.9375 C 21.5315 21.9085 21.40625 21.75275 21.40625 21.59375 L 21.40625 14.78125 L 17.8125 14.78125 z"/></svg>