<svg xmlns="http://www.w3.org/2000/svg" viewBox="0 0 32 32"><path d="M26.816,12.624c-0.049,0.564-0.317,1.171-0.317,1.171c-0.032-1.258-0.218-2.383-0.565-3.373c0-0.005-0.005-0.015-0.01-0.025 c-0.27-0.773-0.637-1.462-1.098-2.074c0.215,0.845,0.322,1.502,0.328,1.979c-0.418-1.477-2.433-5.128-9.209-4.352 c1.015,0,1.99,0.167,2.907,0.466c-0.148-0.009-0.292-0.02-0.444-0.025c1.45,0.409,2.383,1.075,2.507,1.382 c-0.535-0.097-1.015-0.061-1.441,0.104c3.046,1.201,4.493,2.632,4.326,4.285c-0.222-0.347-0.518-0.576-0.897-0.689 c0.467,1.813,0.514,3.31,0.136,4.492c-0.259-0.788-0.497-1.259-0.711-1.425c0.297,2.43-0.103,4.227-1.196,5.398 c0.207-0.716,0.291-1.3,0.243-1.762c-1.185,1.88-2.896,2.979-4.383,2.979c-2.088,0-3.443-1.057-4.124-1.742 c0.165,0.014,0.328,0.021,0.488,0.021c2.566,0,3.33-1.507,4.038-1.507c0.093,0,0.183,0.021,0.271,0.062 c0.257-0.035,0.389-0.158,0.389-0.328c0-0.386-0.827-1.057-1.713-1.057c-1.038,0-1.262,0.706-2.319,0.706 c-1.318,0-2.495-1.813-2.495-1.813c0-0.477,0.232-0.788,0.636-0.85c-0.112-0.01,0.98,0.144,1.571,0.315 c0.098-0.564-0.032-1.166-0.388-1.771c0-0.005,0.847-0.794,1.466-1.124c0.187-0.099,0.295-0.25,0.332-0.451 c0.05-0.028,0.103-0.117,0.103-0.204s-0.058-0.165-0.174-0.236c-1.796,0.15-1.93-0.874-2.612-1.268 c0.201-1.285,1.109-2.046,1.694-2.44c-1.088,0.136-2.072,0.621-2.948,1.461C10.737,8.531,8.624,8.388,8.1,8.648 c-0.332-0.423-0.57-1.08-0.706-1.981c-0.793,0.776-1.177,2.164-1.15,4.17C6.201,10.893,5,12.407,5,13.484 c0,0.116,0.013,0.272,0.036,0.353l0.643-0.524c-0.233,0.587-0.516,1.469-0.516,2.675c0,4.461,3.917,10.169,10.835,10.169 C24.473,26.157,27,19.142,27,14.116C27,13.525,26.941,13.016,26.816,12.624z"/></svg>