<svg xmlns="http://www.w3.org/2000/svg" viewBox="0 0 32 32"><path d="M 5 4 L 5 5 L 5 28 L 7 28 L 7 20 L 26 20 L 27 20 L 27 19 L 27 5 L 27 4 L 26 4 L 6 4 L 5 4 z M 7 6 L 10 6 L 10 9 L 13 9 L 13 6 L 16 6 L 16 9 L 19 9 L 19 6 L 22 6 L 22 9 L 25 9 L 25 12 L 22 12 L 22 15 L 25 15 L 25 18 L 22 18 L 22 15 L 19 15 L 19 18 L 16 18 L 16 15 L 13 15 L 13 18 L 10 18 L 10 15 L 7 15 L 7 12 L 10 12 L 10 9 L 7 9 L 7 6 z M 10 12 L 10 15 L 13 15 L 13 12 L 10 12 z M 13 12 L 16 12 L 16 9 L 13 9 L 13 12 z M 16 12 L 16 15 L 19 15 L 19 12 L 16 12 z M 19 12 L 22 12 L 22 9 L 19 9 L 19 12 z"/></svg>