<svg xmlns="http://www.w3.org/2000/svg" viewBox="0 0 32 32"><path d="M 6 3 L 6 4 L 6 28 L 6 29 L 7 29 L 25 29 L 26 29 L 26 28 L 26 4 L 26 3 L 25 3 L 7 3 L 6 3 z M 8 5 L 24 5 L 24 27 L 8 27 L 8 5 z M 18 12 L 18 13 L 18 18.5 C 18 18.716667 17.716667 19 17.5 19 C 17.45833 19 17.52044 19.04808 17.4375 18.9375 C 17.354563 18.826917 17.230978 18.54891 17.15625 18.25 C 17.006795 17.652179 17 17 17 17 L 17 15 L 15 15 L 15 17 L 15 19.5 C 15 19.716667 14.716667 20 14.5 20 C 14.283333 20 14 19.716667 14 19.5 L 14 14 L 14 13 L 13 13 L 10 13 L 10 15 L 12 15 L 12 19.5 C 12 20.883333 13.116667 22 14.5 22 C 15.484224 22 16.185647 21.355655 16.59375 20.53125 C 16.895982 20.716885 17.114192 21 17.5 21 C 18.883333 21 20 19.883333 20 18.5 L 20 14 L 22 14 L 22 12 L 19 12 L 18 12 z"/></svg>