<svg xmlns="http://www.w3.org/2000/svg" viewBox="0 0 32 32"><path d="M 6 3 L 6 4 L 6 28 L 6 29 L 7 29 L 25 29 L 26 29 L 26 28 L 26 4 L 26 3 L 25 3 L 7 3 L 6 3 z M 8 5 L 15 5 L 15 6 L 17 6 L 17 5 L 24 5 L 24 27 L 8 27 L 8 5 z M 15 7 L 15 9 L 17 9 L 17 7 L 15 7 z M 15 10 L 15 12 L 17 12 L 17 10 L 15 10 z M 15 13 L 15 15.1875 C 13.844255 15.605718 13 16.707982 13 18 C 13 19.64501 14.35499 21 16 21 C 17.64501 21 19 19.64501 19 18 C 19 16.707982 18.155745 15.605718 17 15.1875 L 17 13 L 15 13 z M 16 17 C 16.564128 17 17 17.435872 17 18 C 17 18.564128 16.564128 19 16 19 C 15.435872 19 15 18.564128 15 18 C 15 17.435872 15.435872 17 16 17 z"/></svg>