<svg xmlns="http://www.w3.org/2000/svg" viewBox="0 0 32 32"><path d="M 8 5 C 6.3550302 5 5 6.3550302 5 8 L 5 24 C 5 25.64497 6.3550302 27 8 27 L 24 27 C 25.64497 27 27 25.64497 27 24 L 27 8 C 27 6.3550302 25.64497 5 24 5 L 8 5 z M 8 7 L 24 7 C 24.56503 7 25 7.4349698 25 8 L 25 24 C 25 24.56503 24.56503 25 24 25 L 8 25 C 7.4349698 25 7 24.56503 7 24 L 7 8 C 7 7.4349698 7.4349698 7 8 7 z M 11.5 12.5 C 9.5670034 12.5 8 14.067003 8 16 C 8 17.932997 9.5670034 19.5 11.5 19.5 C 13.432997 19.5 15 17.932997 15 16 C 15 14.067003 13.432997 12.5 11.5 12.5 z M 20.5 12.5 C 18.567003 12.5 17 14.067003 17 16 C 17 17.932997 18.567003 19.5 20.5 19.5 C 22.432997 19.5 24 17.932997 24 16 C 24 14.067003 22.432997 12.5 20.5 12.5 z"/></svg>