<svg xmlns="http://www.w3.org/2000/svg" viewBox="0 0 32 32"><path d="M 7 5 C 5.9069372 5 5 5.9069372 5 7 L 5 25 C 5 26.093063 5.9069372 27 7 27 L 25 27 C 26.093063 27 27 26.093063 27 25 L 27 7 C 27 5.9069372 26.093063 5 25 5 L 7 5 z M 7 7 L 25 7 L 25 25 L 19.8125 25 L 19.8125 18.25 L 22.40625 18.25 L 22.78125 15.25 L 19.8125 15.25 L 19.8125 13.3125 C 19.8125 12.4385 20.02825 11.84375 21.28125 11.84375 L 22.90625 11.84375 L 22.90625 9.125 C 22.62925 9.088 21.6665 9.03125 20.5625 9.03125 C 18.2585 9.03125 16.6875 10.417 16.6875 13 L 16.6875 15.25 L 14.0625 15.25 L 14.0625 18.25 L 16.6875 18.25 L 16.6875 25 L 7 25 L 7 7 z"/></svg>