<svg xmlns="http://www.w3.org/2000/svg" viewBox="0 0 32 32"><path d="M 17 0 C 16.447715 0 16 0.44771525 16 1 C 16 1.5522847 16.447715 2 17 2 C 17.552285 2 18 1.5522847 18 1 C 18 0.44771525 17.552285 0 17 0 z M 14 3 C 13.447715 3 13 3.4477153 13 4 L 10 4 L 10 6 L 11 6 L 11 13.65625 L 4.84375 21.59375 C 4.3010111 22.291557 4 23.146692 4 24.03125 C 4 26.216473 5.7835271 28 7.96875 28 L 24.03125 28 C 26.216473 28 28 26.216473 28 24.03125 C 28 23.146692 27.698989 22.291557 27.15625 21.59375 L 21 13.65625 L 21 6 L 22 6 L 22 4 L 15 4 C 15 3.4477153 14.552285 3 14 3 z M 13 6 L 19 6 L 19 14 L 19 14.34375 L 19.21875 14.625 L 21.84375 18 L 10.15625 18 L 12.78125 14.625 L 13 14.34375 L 13 14 L 13 6 z M 17 10 C 16.447715 10 16 10.447715 16 11 C 16 11.552285 16.447715 12 17 12 C 17.552285 12 18 11.552285 18 11 C 18 10.447715 17.552285 10 17 10 z M 8.59375 20 L 23.40625 20 L 25.59375 22.8125 C 25.863011 23.158693 26 23.591808 26 24.03125 C 26 25.136027 25.136027 26 24.03125 26 L 7.96875 26 C 6.8639729 26 6 25.136027 6 24.03125 C 6 23.591808 6.1369889 23.158693 6.40625 22.8125 L 8.59375 20 z"/></svg>