<svg xmlns="http://www.w3.org/2000/svg" viewBox="0 0 32 32"><path d="M 14.375 3 L 14.1875 3.78125 C 13.887497 5.1272974 11.953887 7.3487458 9.96875 10.0625 C 7.9836132 12.776254 6 16.161831 6 20.40625 C 6 22.411343 6.6113831 24.550219 8.125 26.21875 C 9.6386169 27.887281 12.04717 29 15.3125 29 C 15.455431 29 15.579271 28.971145 15.71875 28.96875 C 15.813964 28.972226 15.902984 29 16 29 C 16.304627 29 16.591687 28.965714 16.875 28.9375 C 16.961884 28.931466 17.039606 28.913302 17.125 28.90625 C 20.470719 28.629966 22.693508 27.597828 24.0625 26.0625 C 25.666995 24.263054 26 21.97776 26 20 C 26 15.536271 23.430588 11.382172 20.9375 8.3125 C 18.444412 5.242828 15.9375 3.21875 15.9375 3.21875 L 15.65625 3 L 15.3125 3 L 15.15625 3 L 14.375 3 z M 15.5 5.5 C 16.308014 6.2106711 17.669982 7.4944076 19.375 9.59375 C 21.727912 12.490828 24 16.330729 24 20 C 24 21.75524 23.692505 23.451446 22.5625 24.71875 C 22.319658 24.991099 22.027201 25.258602 21.6875 25.5 C 22.225742 23.940758 22.107573 22.166896 21.75 20.40625 C 21.341345 18.394083 20.562084 16.376654 19.8125 14.75 C 19.062916 13.123346 18.422583 11.976336 17.875 11.34375 L 17.59375 11 L 17.125 11 L 17 11 L 15.65625 11 L 16.03125 12.28125 C 17.078492 15.685378 16.526126 17.998611 15.9375 18.6875 C 15.643187 19.031945 15.515373 19.061671 15.21875 18.96875 C 14.922127 18.87583 14.386078 18.486536 13.875 17.53125 L 13.125 16.125 L 12.1875 17.40625 C 10.3175 19.927131 9.5995684 22.688921 10.21875 25 C 10.273181 25.20316 10.359824 25.40093 10.4375 25.59375 C 10.139018 25.367819 9.8625127 25.136822 9.625 24.875 C 8.5078669 23.643531 8 22.001157 8 20.40625 C 8 16.783669 9.7018868 13.836246 11.59375 11.25 C 13.133901 9.1445577 14.631887 7.3656317 15.5 5.5 z M 18.5625 17.21875 C 19.02541 18.394331 19.531382 19.582181 19.78125 20.8125 C 20.144345 22.600333 20.136408 24.237124 19.625 25.28125 C 19.241444 26.064344 18.647611 26.636319 17.4375 26.875 C 17.303043 26.90152 17.14991 26.919467 17 26.9375 C 16.685806 26.963407 16.344795 26.98931 16 27 C 15.909942 27 15.836391 27.00286 15.75 27 C 13.586896 26.928393 12.548406 25.963712 12.15625 24.5 C 11.832394 23.291217 12.25352 21.610589 13.15625 19.90625 C 13.599708 20.367427 14.073534 20.702246 14.625 20.875 C 15.645159 21.194579 16.780438 20.80555 17.46875 20 C 18.059992 19.308049 18.405053 18.352255 18.5625 17.21875 z"/></svg>