<svg xmlns="http://www.w3.org/2000/svg" viewBox="0 0 32 32"><path d="M 16 3 C 8.8321429 3 3 8.8321429 3 16 C 3 23.167857 8.8321429 29 16 29 C 23.167857 29 29 23.167857 29 16 C 29 8.8321429 23.167857 3 16 3 z M 16 5 C 16.602026 5 17.175063 5.0629106 17.75 5.15625 L 16 6.40625 L 14.25 5.15625 C 14.821835 5.0649447 15.401955 5 16 5 z M 11.8125 5.84375 L 15.40625 8.46875 L 16 8.90625 L 16.59375 8.46875 L 20.1875 5.84375 C 21.786724 6.5068658 23.197008 7.5241433 24.3125 8.8125 L 22.9375 13.09375 L 22.71875 13.78125 L 23.3125 14.1875 L 26.9375 16.84375 C 26.80377 18.606368 26.265991 20.255892 25.40625 21.6875 L 20.84375 21.6875 L 20.125 21.6875 L 19.90625 22.375 L 18.5 26.71875 C 17.697582 26.905012 16.861139 27 16 27 C 15.105345 27 14.238312 26.887897 13.40625 26.6875 L 12.03125 22.40625 L 11.8125 21.71875 L 11.09375 21.71875 L 6.59375 21.71875 C 5.718339 20.280059 5.1972661 18.620026 5.0625 16.84375 L 8.65625 14.21875 L 9.25 13.8125 L 9.03125 13.125 L 7.625 8.875 C 8.7490612 7.5556564 10.183641 6.5139176 11.8125 5.84375 z M 16 10.09375 L 15.40625 10.53125 L 10.84375 13.84375 L 10.28125 14.28125 L 10.5 14.96875 L 12.25 20.3125 L 12.46875 21 L 13.1875 21 L 18.8125 21 L 19.53125 21 L 19.75 20.3125 L 21.5 14.96875 L 21.71875 14.28125 L 21.15625 13.84375 L 16.59375 10.53125 L 16 10.09375 z M 25.75 10.90625 C 26.296912 11.952652 26.657202 13.100453 26.84375 14.3125 L 25.0625 13.03125 L 25.75 10.90625 z M 6.21875 10.96875 L 6.90625 13.03125 L 5.15625 14.3125 C 5.3391136 13.124392 5.6889796 11.998329 6.21875 10.96875 z M 16 12.59375 L 19.375 15.03125 L 18.09375 19 L 13.90625 19 L 12.625 15.03125 L 16 12.59375 z M 21.59375 23.6875 L 23.84375 23.6875 C 22.990799 24.564678 22.01259 25.291409 20.90625 25.84375 L 21.59375 23.6875 z M 8.15625 23.71875 L 10.34375 23.71875 L 11.03125 25.8125 C 9.9621647 25.27102 8.9881565 24.563999 8.15625 23.71875 z"/></svg>