<svg xmlns="http://www.w3.org/2000/svg" viewBox="0 0 32 32"><path d="M 10 5 C 8.9069372 5 8 5.9069372 8 7 L 8 25.71875 C 8 26.227298 8.3578913 26.690478 8.78125 26.84375 C 9.1953679 26.993677 9.7652252 26.87273 10.09375 26.5 L 16.40625 19 L 19.84375 19 C 20.794566 19 21.628375 18.305522 21.8125 17.375 L 23.75 7.375 C 23.986203 6.1605206 23.018623 5 21.78125 5 L 10 5 z M 10 7 L 21.78125 7 L 21 11 L 14.46875 11 C 14.21775 11 14 11.21875 14 11.46875 L 14 12.53125 C 14 12.78225 14.21775 13 14.46875 13 L 20.625 13 L 19.84375 17 L 15.90625 17 A 1.0001 1.0001 0 0 0 15.125 17.34375 L 10 23.5 L 10 7 z"/></svg>