<svg xmlns="http://www.w3.org/2000/svg" viewBox="0 0 32 32"><path d="M 6 3 L 6 4 L 6 28 L 6 29 L 7 29 L 25 29 L 26 29 L 26 28 L 26 4 L 26 3 L 25 3 L 7 3 L 6 3 z M 8 5 L 24 5 L 24 27 L 8 27 L 8 5 z M 15.40625 10.34375 C 15.100739 10.33895 14.746037 10.447983 14.5 10.65625 C 14.246353 10.870958 14.131454 11.137565 14.0625 11.40625 C 13.924591 11.943619 13.96525 12.504916 14.09375 13.125 C 14.244148 13.850747 14.681231 14.725388 15.03125 15.5625 C 14.851781 16.32584 14.806128 16.998444 14.53125 17.78125 C 14.295185 18.453521 13.99486 18.839828 13.71875 19.4375 C 13.088997 19.674832 12.339842 19.816996 11.84375 20.125 C 11.309503 20.456693 10.841523 20.825697 10.5625 21.34375 C 10.283477 21.861803 10.315465 22.596319 10.6875 23.125 C 10.871837 23.401505 11.113635 23.622073 11.4375 23.75 C 11.761365 23.877927 12.111864 23.882799 12.40625 23.78125 C 12.995022 23.578152 13.412627 23.12516 13.8125 22.59375 C 14.182165 22.102485 14.446903 21.265807 14.78125 20.59375 C 15.285831 20.426201 15.65036 20.2139 16.1875 20.09375 C 16.750736 19.967763 17.126955 20.02898 17.65625 19.96875 C 17.883834 20.227942 18.075978 20.638764 18.3125 20.84375 C 18.789019 21.256733 19.31247 21.586901 19.9375 21.625 C 20.56253 21.6631 21.186591 21.27342 21.53125 20.6875 L 21.5625 20.6875 L 21.5625 20.65625 C 21.714115 20.388695 21.818815 20.103148 21.8125 19.78125 C 21.8062 19.459352 21.642977 19.125962 21.4375 18.90625 C 21.026546 18.466827 20.5043 18.3553 19.9375 18.28125 C 19.501669 18.22431 18.891702 18.3797 18.375 18.40625 C 17.922799 17.81033 17.47174 17.359763 17.0625 16.59375 C 16.841493 16.180071 16.780315 15.826507 16.59375 15.40625 C 16.736712 14.727156 17.023129 13.969782 17.0625 13.375 C 17.11003 12.656916 17.08228 12.035966 16.875 11.46875 C 16.771358 11.185142 16.601061 10.902751 16.34375 10.6875 C 16.093999 10.478574 15.76787 10.350725 15.4375 10.34375 C 15.4275 10.343539 15.41623 10.34375 15.40625 10.34375 z M 16.0625 17.75 C 16.243259 18.066229 16.463587 18.267119 16.65625 18.5625 C 16.374434 18.61267 16.160186 18.5612 15.875 18.625 C 15.82708 18.63572 15.79788 18.67643 15.75 18.6875 C 15.8075 18.532777 15.882419 18.438112 15.9375 18.28125 C 16.00169 18.098449 16.00224 17.934188 16.0625 17.75 z M 19.75 19.78125 C 20.087388 19.82533 20.205132 19.887072 20.25 19.90625 C 20.2427 19.92219 20.26218 19.91605 20.25 19.9375 C 20.126748 20.142703 20.111384 20.129885 20.03125 20.125 C 19.96399 20.1209 19.711397 19.982937 19.46875 19.8125 C 19.53942 19.818 19.686405 19.77294 19.75 19.78125 z M 12.75 21.34375 C 12.69453 21.42539 12.647864 21.615585 12.59375 21.6875 C 12.288567 22.093073 12.008437 22.28286 11.9375 22.3125 C 11.92549 22.29882 11.9572 22.3108 11.9375 22.28125 L 11.90625 22.28125 C 11.803285 22.134931 11.83371 22.19718 11.90625 22.0625 C 11.97879 21.927819 12.215497 21.660495 12.625 21.40625 C 12.65496 21.38765 12.71859 21.3623 12.75 21.34375 z"/></svg>