<svg xmlns="http://www.w3.org/2000/svg" viewBox="0 0 32 32"><path d="M 6 3 L 6 4 L 6 28 L 6 29 L 7 29 L 25 29 L 26 29 L 26 28 L 26 4 L 26 3 L 25 3 L 7 3 L 6 3 z M 8 5 L 24 5 L 24 27 L 8 27 L 8 5 z M 16 9.71875 L 16 11 L 16 16.1875 C 15.684239 16.073239 15.352992 16 15 16 C 13.35499 16 12 17.35499 12 19 C 12 20.64501 13.35499 22 15 22 C 16.64501 22 18 20.64501 18 19 L 18 12.28125 L 20.75 12.96875 L 21.25 11.03125 L 17.25 10.03125 L 16 9.71875 z M 15 18 C 15.564128 18 16 18.435872 16 19 C 16 19.564128 15.564128 20 15 20 C 14.435872 20 14 19.564128 14 19 C 14 18.435872 14.435872 18 15 18 z"/></svg>