<svg xmlns="http://www.w3.org/2000/svg" viewBox="0 0 32 32"><path d="M 6 3 L 6 4 L 6 10 L 8 10 L 8 5 L 24 5 L 24 10 L 26 10 L 26 4 L 26 3 L 25 3 L 7 3 L 6 3 z M 8 12 L 10 16 L 8 20 L 10 20 L 11 18 L 12 20 L 14 20 L 12 16 L 14 12 L 12 12 L 11 14 L 10 12 L 8 12 z M 15 12 L 15 19 L 15 20 L 16 20 L 19 20 L 19 18 L 17 18 L 17 12 L 15 12 z M 22.5 12 C 21.116667 12 20 13.116667 20 14.5 C 20 15.883333 21.116667 17 22.5 17 C 22.716667 17 23 17.283333 23 17.5 C 23 17.8 22.881481 18 22.5 18 C 22.131818 18 22.075546 17.91998 22.0625 17.90625 C 22.049454 17.892518 22 17.827083 22 17.59375 L 20 17.59375 C 20 18.160417 20.163046 18.794982 20.625 19.28125 C 21.086954 19.767518 21.768182 20 22.5 20 C 23.918519 20 25 18.8 25 17.5 C 25 16.116667 23.883333 15 22.5 15 C 22.283333 15 22 14.716667 22 14.5 C 22 14.283333 22.283333 14 22.5 14 C 22.766667 14 22.847593 14.06341 22.90625 14.125 C 22.964907 14.18659 23 14.294345 23 14.40625 L 25 14.40625 C 25 13.818155 24.785093 13.21341 24.34375 12.75 C 23.902407 12.28659 23.233333 12 22.5 12 z M 6 22 L 6 28 L 6 29 L 7 29 L 25 29 L 26 29 L 26 28 L 26 22 L 24 22 L 24 27 L 8 27 L 8 22 L 6 22 z"/></svg>