<svg xmlns="http://www.w3.org/2000/svg" viewBox="0 0 32 32"><path d="M 16 2.96875 C 8.812 2.96875 2.96875 8.813 2.96875 16 C 2.96875 16.99 3.07225 17.949 3.28125 18.875 C 5.97725 11.859 11.42275 5.972 18.71875 3.25 C 17.83775 3.062 16.937 2.96875 16 2.96875 z M 23.375 5.28125 C 19.877 6.29225 9.45625 10.33425 5.28125 23.40625 C 6.00625 24.44825 6.883 25.3985 7.875 26.1875 C 12.363 12.6275 22.6295 8.83325 26.1875 7.90625 C 25.3915 6.90425 24.428 6.01125 23.375 5.28125 z M 27.96875 10.875 C 16.38275 14.601 12.1565 24.32275 10.9375 27.96875 C 11.9795 28.40775 13.091 28.72 14.25 28.875 C 15.478 25.786 19.386 18.0535 28.875 14.1875 C 28.715 13.0255 28.41475 11.918 27.96875 10.875 z M 28.875 17.84375 C 27.674 18.43975 25.70725 19.65125 23.03125 22.15625 C 19.99125 25.00225 18.57475 27.46275 17.96875 28.84375 C 19.70575 28.57575 21.34225 27.97575 22.78125 27.09375 L 29 29 C 29 29 27.76425 24.40125 27.15625 22.65625 C 28.02525 21.20625 28.626 19.58775 28.875 17.84375 z"/></svg>