<svg xmlns="http://www.w3.org/2000/svg" viewBox="0 0 32 32"><path d="M 12.96875 4 C 6.58075 4 5.5625 8.4545 5.5625 9.9375 C 5.5625 12.1455 7.277 14.90625 10.75 14.90625 C 11.066 14.90625 11.42425 14.88475 11.78125 14.84375 C 11.72225 15.00875 11.46875 15.5535 11.46875 16.0625 C 11.46875 17.1225 12.14 17.80575 12.375 18.21875 C 8.575 18.18175 4 19.833 4 23.5 C 4 24.842 5.1485 28 10.5625 28 C 16.7375 28 18.625 24.1995 18.625 22.0625 C 18.625 17.9805 14.3125 17.29125 14.3125 15.40625 C 14.3125 13.42825 17.53125 13.26725 17.53125 9.40625 C 17.53125 6.60925 15.572 5.248 15.375 5.125 L 17.3125 5.125 L 19.25 4 L 12.96875 4 z M 11.03125 5.03125 C 14.10925 5.03125 14.875 9.60175 14.875 10.84375 C 14.875 11.13075 15.06975 14.03125 12.21875 14.03125 C 10.05675 14.03125 8.21875 11.31225 8.21875 8.40625 C 8.21875 7.54325 8.64225 5.03125 11.03125 5.03125 z M 24 11 L 24 14 L 21 14 L 21 16 L 24 16 L 24 19 L 26 19 L 26 16 L 29 16 L 29 14 L 26 14 L 26 11 L 24 11 z M 12.53125 19.09375 C 12.80125 19.09375 13.01875 19.104 13.21875 19.125 C 14.31075 19.941 16.59375 21.10825 16.59375 23.28125 C 16.59275 24.26625 16.0045 26.6875 12.0625 26.6875 C 10.0835 26.6875 6.65625 25.84275 6.65625 22.84375 C 6.65625 21.80675 7.27625 19.09375 12.53125 19.09375 z"/></svg>