<svg xmlns="http://www.w3.org/2000/svg" viewBox="0 0 32 32"><path d="M 21.5 2.5 L 21.5 3.90625 C 20.663243 4.0535741 19.887374 4.372549 19.21875 4.84375 L 18.1875 3.875 L 16.8125 5.34375 L 17.8125 6.28125 C 17.361761 6.9371285 17.049529 7.6862154 16.90625 8.5 L 15.5 8.5 L 15.5 10.5 L 16.90625 10.5 C 17.052122 11.328511 17.379936 12.085907 17.84375 12.75 L 16.78125 13.78125 L 18.21875 15.21875 L 19.25 14.15625 C 19.914093 14.620064 20.671489 14.947878 21.5 15.09375 L 21.5 16.5 L 23.5 16.5 L 23.5 15.09375 C 24.313785 14.950471 25.062871 14.638239 25.71875 14.1875 L 26.65625 15.1875 L 28.125 13.8125 L 27.15625 12.78125 C 27.627451 12.112626 27.946426 11.336757 28.09375 10.5 L 29.5 10.5 L 29.5 8.5 L 28.09375 8.5 C 27.947878 7.6714893 27.620064 6.9140926 27.15625 6.25 L 28.09375 5.3125 L 26.6875 3.90625 L 25.75 4.84375 C 25.085907 4.379936 24.328511 4.0521222 23.5 3.90625 L 23.5 2.5 L 21.5 2.5 z M 22.5 5.8125 C 24.555298 5.8125 26.1875 7.444702 26.1875 9.5 C 26.1875 11.555298 24.555298 13.1875 22.5 13.1875 C 20.444702 13.1875 18.8125 11.555298 18.8125 9.5 C 18.8125 7.444702 20.444702 5.8125 22.5 5.8125 z M 9.53125 11.71875 L 7.6875 12.46875 L 8.40625 14.28125 C 7.4544116 14.850462 6.6397578 15.64876 6.0625 16.59375 L 4.28125 15.875 L 3.53125 17.71875 L 5.3125 18.4375 C 5.178895 18.966111 5.09375 19.52425 5.09375 20.09375 C 5.09375 20.66325 5.178895 21.220162 5.3125 21.75 L 3.53125 22.46875 L 4.28125 24.3125 L 6.0625 23.59375 C 6.6408571 24.55339 7.4456124 25.360573 8.40625 25.9375 L 7.6875 27.71875 L 9.53125 28.46875 L 10.25 26.6875 C 10.783009 26.822186 11.333376 26.90625 11.90625 26.90625 C 12.47575 26.90625 13.033889 26.821105 13.5625 26.6875 L 14.28125 28.46875 L 16.125 27.71875 L 15.40625 25.9375 C 16.35124 25.360242 17.149538 24.545588 17.71875 23.59375 L 19.53125 24.3125 L 20.28125 22.46875 L 18.46875 21.75 C 18.601129 21.220162 18.6875 20.66325 18.6875 20.09375 C 18.6875 19.52425 18.601129 18.966111 18.46875 18.4375 L 20.28125 17.71875 L 19.53125 15.875 L 17.71875 16.59375 C 17.148394 15.652791 16.350516 14.852038 15.40625 14.28125 L 16.125 12.46875 L 14.28125 11.71875 L 13.5625 13.53125 C 13.032141 13.397617 12.476928 13.3125 11.90625 13.3125 C 11.33675 13.3125 10.779838 13.398871 10.25 13.53125 L 9.53125 11.71875 z M 11.90625 15.3125 C 14.569061 15.3125 16.6875 17.430939 16.6875 20.09375 C 16.6875 22.756562 14.569061 24.90625 11.90625 24.90625 C 9.2434382 24.90625 7.09375 22.756562 7.09375 20.09375 C 7.09375 17.430939 9.2434382 15.3125 11.90625 15.3125 z"/></svg>