<svg xmlns="http://www.w3.org/2000/svg" viewBox="0 0 32 32"><path d="M 12 5 C 10.35503 5 9 6.3550302 9 8 C 9 8.3529831 9.0732364 8.6842419 9.1875 9 L 5 9 L 4 9 L 4 10 L 4 14 L 4 15 L 5 15 L 5 27 L 5 28 L 6 28 L 26 28 L 27 28 L 27 27 L 27 15 L 28 15 L 28 14 L 28 10 L 28 9 L 27 9 L 22.8125 9 C 22.926764 8.6842419 23 8.3529831 23 8 C 23 6.3550302 21.64497 5 20 5 C 18.251096 5 17.060552 6.32916 16.28125 7.4375 C 16.176872 7.5859486 16.091945 7.7301211 16 7.875 C 15.908055 7.7301211 15.823128 7.5859486 15.71875 7.4375 C 14.939448 6.32916 13.748904 5 12 5 z M 12 7 C 12.626096 7 13.435552 7.67084 14.0625 8.5625 C 14.215094 8.7795221 14.191622 8.7942313 14.3125 9 L 12 9 C 11.43497 9 11 8.5650302 11 8 C 11 7.4349698 11.43497 7 12 7 z M 20 7 C 20.56503 7 21 7.4349698 21 8 C 21 8.5650302 20.56503 9 20 9 L 17.6875 9 C 17.808378 8.7942313 17.78491 8.7795221 17.9375 8.5625 C 18.564448 7.67084 19.373904 7 20 7 z M 6 11 L 14.5 11 L 16 11 L 26 11 L 26 13 L 17 13 L 17 12 L 15 12 L 15 13 L 6 13 L 6 11 z M 7 15 L 25 15 L 25 26 L 17 26 L 17 16 L 15 16 L 15 26 L 7 26 L 7 15 z"/></svg>