<svg xmlns="http://www.w3.org/2000/svg" viewBox="0 0 32 32"><path d="M 16 4 C 9.3844277 4 4 9.3844277 4 16 C 4 22.615572 9.3844277 28 16 28 C 22.615572 28 28 22.615572 28 16 C 28 9.3844277 22.615572 4 16 4 z M 16 6 C 21.534692 6 26 10.465308 26 16 C 26 21.534692 21.534692 26 16 26 C 10.465308 26 6 21.534692 6 16 C 6 10.465308 10.465308 6 16 6 z M 12.5 12 C 11.119 12 10 13.119 10 14.5 C 10 15.029 10.1565 15.5335 10.4375 15.9375 C 10.4385 15.9395 10.46875 15.9375 10.46875 15.9375 L 16 22.25 L 21.53125 15.9375 C 21.53125 15.9375 21.5615 15.90725 21.5625 15.90625 C 21.8435 15.50325 22 15.029 22 14.5 C 22 13.119 20.881 12 19.5 12 C 17.733 12 17.311 13.6875 16 13.6875 C 14.689 13.6875 14.267 12 12.5 12 z"/></svg>