<svg xmlns="http://www.w3.org/2000/svg" viewBox="0 0 32 32"><path d="M 16 2 C 15.496877 1.999955 15.002957 2.1845434 14.625 2.5625 L 11.8125 5.40625 A 1.0001 1.0001 0 0 0 11.4375 5.75 L 2.5625 14.625 C 1.8050519 15.380423 1.8065867 16.619087 2.5625 17.375 L 14.625 29.4375 C 15.381423 30.1919 16.618577 30.1919 17.375 29.4375 L 29.4375 17.375 C 30.194948 16.619577 30.193413 15.380913 29.4375 14.625 L 17.375 2.5625 C 16.997289 2.183776 16.503123 2.000045 16 2 z M 16 4.03125 L 27.96875 16 L 16 27.96875 L 4.03125 16 L 12.3125 7.71875 L 14.0625 9.46875 C 14.016492 9.6371022 14 9.8170557 14 10 C 14 10.739604 14.403104 11.372707 15 11.71875 L 15 20.28125 C 14.403104 20.627293 14 21.260396 14 22 C 14 23.104569 14.895431 24 16 24 C 17.104569 24 18 23.104569 18 22 C 18 21.260396 17.596896 20.627293 17 20.28125 L 17 12.4375 L 20.0625 15.5 C 20.021396 15.659759 20 15.827411 20 16 C 20 17.104569 20.895431 18 22 18 C 23.104569 18 24 17.104569 24 16 C 24 14.895431 23.104569 14 22 14 C 21.827411 14 21.659759 14.021396 21.5 14.0625 L 17.9375 10.5 C 17.978604 10.340241 18 10.172589 18 10 C 18 8.8954305 17.104569 8 16 8 C 15.817056 8 15.637102 8.0164918 15.46875 8.0625 L 13.71875 6.3125 L 16 4.03125 z"/></svg>