<svg xmlns="http://www.w3.org/2000/svg" viewBox="0 0 32 32"><path d="M 7 5 C 5.3550302 5 4 6.3550302 4 8 L 4 15 C 4 21.615466 9.3845336 27 16 27 C 22.615466 27 28 21.615466 28 15 L 28 8 C 28 6.3550302 26.64497 5 25 5 L 7 5 z M 7 7 L 25 7 C 25.56503 7 26 7.4349698 26 8 L 26 15 C 26 20.534534 21.534534 25 16 25 C 10.465466 25 6 20.534534 6 15 L 6 8 C 6 7.4349698 6.4349698 7 7 7 z M 10.65625 11.40625 C 10.272625 11.40625 9.88625 11.582 9.59375 11.875 C 9.00875 12.461 9.00775 13.38375 9.59375 13.96875 L 15 19.375 C 15.281 19.656 15.6655 19.8125 16.0625 19.8125 C 16.4605 19.8125 16.844 19.656 17.125 19.375 L 22.40625 14.125 C 22.99125 13.541 22.99125 12.586 22.40625 12 C 21.82025 11.414 20.86625 11.415 20.28125 12 L 16.0625 16.21875 L 11.71875 11.875 C 11.42575 11.582 11.039875 11.40625 10.65625 11.40625 z"/></svg>