<svg xmlns="http://www.w3.org/2000/svg" viewBox="0 0 32 32"><path d="M18.682,15.407c0-1.978,3.213-2.151,3.213-6.012c0-2.797-1.947-4.136-2.144-4.259h1.936L23.626,4h-6.278 C10.96,4,9.939,8.467,9.939,9.95c0,2.208,1.724,4.95,5.197,4.95c0.316,0,0.652-0.02,1.009-0.061c-0.059,0.165-0.31,0.727-0.31,1.236 c0,1.06,0.68,1.736,0.915,2.149c-3.799-0.037-8.375,1.612-8.375,5.279c0,1.342,1.153,4.497,6.567,4.497 c6.175,0,8.045-3.814,8.045-5.951C22.986,17.967,18.682,17.292,18.682,15.407z M16.587,14.042c-2.162,0-3.987-2.717-3.987-5.623 c0-0.863,0.416-3.374,2.805-3.374c3.078,0,3.829,4.566,3.829,5.808C19.234,11.14,19.438,14.042,16.587,14.042z M16.436,26.68 c-1.979,0-5.398-0.846-5.398-3.845c0-1.037,0.608-3.752,5.863-3.752c0.27,0,0.505,0.01,0.705,0.031 c1.092,0.816,3.359,1.994,3.359,4.167C20.964,24.266,20.377,26.68,16.436,26.68z"/></svg>