<svg xmlns="http://www.w3.org/2000/svg" viewBox="0 0 32 32"><path d="M 5.6875 5 C 5.6875 5 5 6.208 5 8.25 C 5 9.6066228 5.3078506 10.320752 5.53125 10.6875 C 3.9670531 12.311614 3 14.516809 3 17.34375 C 3 24.58675 7.59 27 16 27 C 24.41 27 29 24.58675 29 17.34375 C 29 14.416981 28.085799 12.220597 26.59375 10.625 C 26.963127 9.5169767 27.383931 7.4236965 26.34375 5 C 23.240874 5 20.654497 7.3831831 20.5625 7.46875 C 19.114436 7.1507331 17.573212 7 16 7 C 14.392733 7 12.818723 7.196443 11.34375 7.5625 C 9.2672024 5.5028868 6.7572162 5 5.6875 5 z M 20.6875 15.4375 C 21.533084 15.429033 22.313375 15.500125 23 15.71875 C 24.831 16.30175 26 17.986 26 19.875 C 25.999 25.109 23.192 26 16 26 C 10.655 26 6.3125 25.0595 6.3125 20.0625 C 6.3125 18.1565 7.34875 17.07825 8.09375 16.40625 C 9.73275 14.92825 12.326 15.65625 16 15.65625 C 17.67 15.65625 19.278193 15.451611 20.6875 15.4375 z M 10.5 18 C 9.672 18 9 18.895 9 20 C 9 21.105 9.672 22 10.5 22 C 11.328 22 12 21.105 12 20 C 12 18.895 11.328 18 10.5 18 z M 21.5 18 C 20.672 18 20 18.895 20 20 C 20 21.105 20.672 22 21.5 22 C 22.328 22 23 21.105 23 20 C 23 18.895 22.328 18 21.5 18 z M 10.34375 18.84375 C 10.57975 18.84375 10.75 19.04125 10.75 19.28125 C 10.75 19.52125 10.57975 19.71875 10.34375 19.71875 C 10.10775 19.71875 9.90625 19.52125 9.90625 19.28125 C 9.90625 19.04125 10.10775 18.84375 10.34375 18.84375 z M 21.34375 18.84375 C 21.57975 18.84375 21.75 19.04125 21.75 19.28125 C 21.75 19.52125 21.57975 19.71875 21.34375 19.71875 C 21.10775 19.71875 20.90625 19.52125 20.90625 19.28125 C 20.90625 19.04125 21.10775 18.84375 21.34375 18.84375 z"/></svg>