<svg xmlns="http://www.w3.org/2000/svg" viewBox="0 0 32 32"><path d="M 22 3.5 C 21.42 3.5 20.85675 3.6605 20.34375 3.9375 C 18.65075 4.8575 18.0225 6.96225 18.9375 8.65625 C 18.94294 8.6671291 19.388472 9.6007838 19.8125 11.125 C 17.688683 8.062439 15.422351 6.4508313 15.3125 6.375 C 15.295349 6.3599037 15.267417 6.3584898 15.25 6.34375 A 1.0001 1.0001 0 0 0 15.15625 6.28125 C 14.543144 5.7949099 13.797632 5.5 13 5.5 C 12.289 5.5 11.61725 5.721 11.03125 6.125 C 9.44825 7.213 9.042 9.37875 10.125 10.96875 C 10.125 10.96875 10.378687 11.418391 10.65625 12.0625 C 10.301042 11.783473 9.9466118 11.530221 9.59375 11.3125 C 8.1823033 10.441616 7.0049887 10 6 10 C 4.3550302 10 3 11.35503 3 13 C 3 14.008333 3.6138908 14.788047 4.28125 15.34375 C 4.9486092 15.899453 5.7336963 16.368308 6.53125 16.90625 C 8.0138719 17.906265 9.5057221 19.106049 10.34375 21.375 C 10.121194 21.89775 9.9423796 22.303391 9.9375 22.3125 C 9.0015 23.9735 9.60525 26.08125 11.28125 27.03125 C 11.80625 27.32925 12.397 27.5 13 27.5 C 14.258 27.5 15.41125 26.81375 16.03125 25.71875 C 16.193784 25.429377 17.142939 23.663859 17.8125 21.125 C 18.233035 22.386432 18.595993 24.023782 18.5 25.9375 A 1.0001 1.0001 0 0 0 18.5625 26.53125 C 18.565834 26.552164 18.55879 26.572912 18.5625 26.59375 C 18.759043 27.697686 19.463125 28.695625 20.5625 29.1875 C 21.0135 29.3895 21.504 29.5 22 29.5 C 23.379 29.5 24.6245 28.6965 25.1875 27.4375 C 25.4235 26.9075 27.5 22.09575 27.5 16.09375 C 27.5 9.94875 25.3115 5.7675 25.0625 5.3125 C 24.4485 4.1925 23.278 3.5 22 3.5 z M 22 5.5 C 22.53 5.5 23.0405 5.78525 23.3125 6.28125 C 23.4015 6.44425 25.5 10.33675 25.5 16.09375 C 25.5 21.78775 23.462 26.431 23.375 26.625 C 23.126 27.182 22.573 27.5 22 27.5 C 21.796 27.5 21.574 27.464 21.375 27.375 C 20.619 27.037 20.288 26.131 20.625 25.375 C 20.653093 25.311322 22.26353 21.620061 22.46875 17.03125 A 1.0001 1.0001 0 0 0 22.5 16.5 C 22.502709 16.363308 22.5 16.231716 22.5 16.09375 C 22.5 11.14475 20.7055 7.75275 20.6875 7.71875 C 20.2935 6.99275 20.55525 6.0825 21.28125 5.6875 C 21.51025 5.5625 21.757 5.5 22 5.5 z M 13 7.5 C 13.35475 7.5 13.69275 7.6355156 13.96875 7.875 A 1.0001 1.0001 0 0 0 14 7.90625 C 14.079461 7.9793368 14.154529 8.063781 14.21875 8.15625 C 14.31075 8.29025 16.5 11.4775 16.5 16.1875 C 16.5 20.8235 14.4015 24.592 14.3125 24.75 C 14.0365 25.237 13.523 25.5 13 25.5 C 12.749 25.5 12.483 25.4445 12.25 25.3125 C 11.53 24.9045 11.2805 23.971 11.6875 23.25 C 11.7135 23.202 13.5 20.0005 13.5 16.1875 C 13.5 12.4555 11.79725 9.86975 11.78125 9.84375 C 11.31625 9.16075 11.47525 8.24925 12.15625 7.78125 C 12.41425 7.60225 12.707 7.5 13 7.5 z M 17.96875 11.96875 C 18.916955 13.273616 19.834902 14.867707 20.46875 16.78125 C 20.409114 18.390367 20.169473 19.874944 19.875 21.125 C 19.327517 19.21959 18.668384 18.055682 18.4375 17.6875 C 18.479956 17.190477 18.5 16.708299 18.5 16.1875 C 18.5 14.618177 18.275471 13.199395 17.96875 11.96875 z M 6 12 C 6.1000113 12 7.3596967 12.308384 8.53125 13.03125 C 9.6263813 13.706962 10.754838 14.700789 11.5 16.03125 C 11.500817 16.083443 11.5 16.134763 11.5 16.1875 C 11.5 17.071765 11.385597 17.911209 11.21875 18.6875 C 10.1674 17.099083 8.8189191 16.034209 7.65625 15.25 C 6.7975537 14.670817 6.0279533 14.200078 5.5625 13.8125 C 5.0970467 13.424922 5 13.241667 5 13 C 5 12.43497 5.4349698 12 6 12 z"/></svg>