<svg xmlns="http://www.w3.org/2000/svg" viewBox="0 0 32 32"><path d="M15.999,4C9.373,4,4,9.373,4,16.001c0,5.301,3.438,9.799,8.207,11.386 c0.6,0.11,0.819-0.26,0.819-0.578c0-0.285-0.01-1.04-0.016-2.041c-3.338,0.725-4.042-1.609-4.042-1.609 c-0.546-1.386-1.332-1.755-1.332-1.755c-1.09-0.745,0.082-0.729,0.082-0.729c1.204,0.085,1.838,1.237,1.838,1.237 c1.07,1.834,2.809,1.304,3.492,0.997c0.109-0.775,0.419-1.304,0.762-1.604c-2.665-0.303-5.466-1.332-5.466-5.931 c0-1.31,0.468-2.381,1.235-3.22c-0.123-0.304-0.535-1.524,0.118-3.176c0,0,1.008-0.323,3.3,1.23 c0.957-0.266,1.984-0.399,3.004-0.404c1.019,0.005,2.046,0.138,3.004,0.404c2.291-1.553,3.297-1.23,3.297-1.23 c0.655,1.652,0.243,2.872,0.119,3.176c0.769,0.839,1.233,1.91,1.233,3.22c0,4.61-2.806,5.624-5.479,5.921 c0.431,0.37,0.815,1.103,0.815,2.222c0,1.604-0.015,2.898-0.015,3.292c0,0.321,0.216,0.694,0.825,0.577 C24.565,25.795,28,21.301,28,16.001C28,9.373,22.627,4,15.999,4z" fill-rule="evenodd" clip-rule="evenodd"/></svg>