<svg xmlns="http://www.w3.org/2000/svg" viewBox="0 0 32 32"><path d="M 8.25 5 L 8 5.59375 C 7.4133127 6.9229808 7 8.6745483 7 11 C 7 15.615686 10.516257 19.431188 15 19.9375 L 15 26 L 10 26 L 10 28 L 22 28 L 22 26 L 17 26 L 17 19.9375 C 21.483743 19.431188 25 15.615686 25 11 C 25 8.6697699 24.585215 6.9202384 24 5.59375 L 23.75 5 L 23.09375 5 L 8.90625 5 L 8.25 5 z M 9.65625 7 L 22.375 7 C 22.660543 7.792656 22.856576 8.7586665 22.9375 10 L 11 10 L 11 12 L 22.90625 12 C 22.420574 15.396992 19.535296 18 16 18 C 12.122516 18 9 14.877484 9 11 C 9 9.2354277 9.2944521 8.0010864 9.65625 7 z"/></svg>