<svg xmlns="http://www.w3.org/2000/svg" viewBox="0 0 32 32"><path d="M 17.6875 5 C 17.418107 4.9994053 17.139717 5.0281276 16.875 5.0625 C 13.69839 5.4749684 11 8.2019451 11 11.65625 C 11 12.785948 11.282983 13.897658 11.65625 15 L 9 15 L 9 17 L 12.40625 17 C 12.603549 17.555358 12.764974 18.10282 12.90625 18.65625 C 13.469387 20.862271 13.526687 22.838235 11.53125 25 L 8 25 L 8 27 L 23 27 L 24 27 L 24 26 L 24 22 L 22 22 L 22 25 L 14.0625 25 C 15.454806 22.694152 15.379553 20.255193 14.84375 18.15625 C 14.741919 17.757341 14.619074 17.383772 14.5 17 L 20 17 L 20 15 L 13.84375 15 C 13.389907 13.692731 13 12.531865 13 11.65625 C 13 8.4239898 16.299357 6.1133271 19.375 7.34375 L 20.125 5.5 C 19.309683 5.1738293 18.49568 5.0017841 17.6875 5 z"/></svg>