<svg xmlns="http://www.w3.org/2000/svg" viewBox="0 0 32 32"><path d="M 16 7 C 9.6167955 7 4.03125 9.0625 4.03125 9.0625 L 3.4375 9.28125 L 3.375 9.875 L 2.03125 20.125 C 1.6662312 22.960062 3.696431 25.603762 6.53125 25.96875 C 9.1711323 26.308639 11.537516 24.528664 12.15625 22 L 19.84375 22 C 20.463393 24.528422 22.829561 26.308698 25.46875 25.96875 C 28.303569 25.603762 30.333769 22.960062 29.96875 20.125 L 28.625 9.875 L 28.5625 9.28125 L 27.96875 9.0625 C 27.96875 9.0625 22.383205 7 16 7 z M 16 9 C 21.485557 9 26.00672 10.523595 26.75 10.78125 L 27.96875 20.40625 C 28.195731 22.169188 26.981931 23.741738 25.21875 23.96875 C 23.457067 24.195668 21.852012 22.981931 21.625 21.21875 L 21.59375 20.875 L 21.46875 20 L 20.59375 20 L 11.40625 20 L 10.53125 20 L 10.40625 20.875 L 10.375 21.21875 C 10.148791 22.981643 8.5441885 24.195731 6.78125 23.96875 C 5.018069 23.741738 3.8042688 22.169188 4.03125 20.40625 L 5.25 10.78125 C 5.9929999 10.523601 10.514443 9 16 9 z M 9 12 L 9 14 L 7 14 L 7 16 L 9 16 L 9 18 L 11 18 L 11 16 L 13 16 L 13 14 L 11 14 L 11 12 L 9 12 z M 22 12 C 21.447715 12 21 12.447715 21 13 C 21 13.552285 21.447715 14 22 14 C 22.552285 14 23 13.552285 23 13 C 23 12.447715 22.552285 12 22 12 z M 20 14 C 19.447715 14 19 14.447715 19 15 C 19 15.552285 19.447715 16 20 16 C 20.552285 16 21 15.552285 21 15 C 21 14.447715 20.552285 14 20 14 z M 24 14 C 23.447715 14 23 14.447715 23 15 C 23 15.552285 23.447715 16 24 16 C 24.552285 16 25 15.552285 25 15 C 25 14.447715 24.552285 14 24 14 z M 22 16 C 21.447715 16 21 16.447715 21 17 C 21 17.552285 21.447715 18 22 18 C 22.552285 18 23 17.552285 23 17 C 23 16.447715 22.552285 16 22 16 z"/></svg>