<svg xmlns="http://www.w3.org/2000/svg" viewBox="0 0 32 32"><path d="M 16 5 C 9.9365932 5 5 9.9365932 5 16 L 5 20 L 5 24 C 5 25.64497 6.3550302 27 8 27 L 10 27 L 11 27 L 11 26 L 11 19 L 11 18 L 10 18 L 7 18 L 7 16 C 7 11.017407 11.017407 7 16 7 C 20.982593 7 25 11.017407 25 16 L 25 18 L 22 18 L 21 18 L 21 19 L 21 26 L 21 27 L 22 27 L 24 27 C 25.64497 27 27 25.64497 27 24 L 27 20 L 27 16 C 27 9.9365932 22.063407 5 16 5 z M 7 20 L 9 20 L 9 25 L 8 25 C 7.4349698 25 7 24.56503 7 24 L 7 20 z M 23 20 L 25 20 L 25 24 C 25 24.56503 24.56503 25 24 25 L 23 25 L 23 20 z"/></svg>