<svg xmlns="http://www.w3.org/2000/svg" viewBox="0 0 32 32"><path d="M 10 2 L 10 3 L 10 7.59375 L 3.28125 14.375 L 3 14.6875 L 3 15.09375 C 3 16.709921 4.2300298 18.001571 5.65625 18 C 6.9925134 18 7.9833496 17.532087 8.625 17.0625 C 9.0260315 16.769008 9.0936816 16.640625 9.25 16.4375 L 10 16.25 L 10 27 C 10 28.64497 11.35503 30 13 30 C 14.64497 30 16 28.64497 16 27 L 16 23.4375 L 23.625 21.78125 C 25.002126 21.485512 26 20.252639 26 18.84375 L 26 3 L 26 2 L 25 2 L 11 2 L 10 2 z M 12 4 L 24 4 L 24 7 L 12 7 L 12 4 z M 11.40625 9 L 24 9 L 24 18.84375 C 24 19.320861 23.685624 19.743488 23.21875 19.84375 L 14.78125 21.625 L 14 21.8125 L 14 22.625 L 14 27 C 14 27.56503 13.56503 28 13 28 C 12.43497 28 12 27.56503 12 27 L 12 14.9375 L 12 13.65625 L 10.75 13.96875 L 8.5 14.5625 L 8.09375 14.6875 L 7.90625 15.03125 C 7.90625 15.03125 7.82185 15.210337 7.46875 15.46875 C 7.1156504 15.727163 6.5589866 16 5.65625 16 C 5.3486297 16.000339 5.1754567 15.827534 5.09375 15.40625 L 11.40625 9 z"/></svg>