<svg xmlns="http://www.w3.org/2000/svg" viewBox="0 0 32 32"><path d="M 15 3 L 15 5 L 13 5 L 13 7 L 15 7 L 15 9 L 17 9 L 17 7 L 19 7 L 19 5 L 17 5 L 17 3 L 15 3 z M 6 5 L 6 6 L 6 27 L 6 28 L 7 28 L 14 28 L 15 28 L 15 27 L 15 25 L 17 25 L 17 27 L 17 28 L 18 28 L 25 28 L 26 28 L 26 27 L 26 6 L 26 5 L 25 5 L 21 5 L 21 7 L 24 7 L 24 26 L 19 26 L 19 24 L 19 23 L 18 23 L 14 23 L 13 23 L 13 24 L 13 26 L 8 26 L 8 7 L 11 7 L 11 5 L 7 5 L 6 5 z M 11 11 L 11 13 L 13 13 L 13 11 L 11 11 z M 15 11 L 15 13 L 17 13 L 17 11 L 15 11 z M 19 11 L 19 13 L 21 13 L 21 11 L 19 11 z M 11 15 L 11 17 L 13 17 L 13 15 L 11 15 z M 15 15 L 15 17 L 17 17 L 17 15 L 15 15 z M 19 15 L 19 17 L 21 17 L 21 15 L 19 15 z M 11 19 L 11 21 L 13 21 L 13 19 L 11 19 z M 15 19 L 15 21 L 17 21 L 17 19 L 15 19 z M 19 19 L 19 21 L 21 21 L 21 19 L 19 19 z"/></svg>