<svg xmlns="http://www.w3.org/2000/svg" viewBox="0 0 32 32"><path d="M 13 2 C 11.35503 2 10 3.3550302 10 5 L 10 15.75 L 9.25 15.5625 C 9.0936816 15.359375 9.0260315 15.230992 8.625 14.9375 C 7.9833496 14.467913 6.9925134 14 5.65625 14 C 4.2300298 13.998429 3 15.290079 3 16.90625 L 3 17.3125 L 3.28125 17.625 L 10 24.40625 L 10 29 L 10 30 L 11 30 L 25 30 L 26 30 L 26 29 L 26 13.15625 C 26 11.747361 25.002126 10.514488 23.625 10.21875 L 16 8.5625 L 16 5 C 16 3.3550302 14.64497 2 13 2 z M 13 4 C 13.56503 4 14 4.4349698 14 5 L 14 9.375 L 14 10.1875 L 14.78125 10.375 L 23.21875 12.15625 C 23.685624 12.256512 24 12.679139 24 13.15625 L 24 23 L 11.40625 23 L 5.09375 16.59375 C 5.1754567 16.172466 5.3486297 15.999661 5.65625 16 C 6.5589866 16 7.1156504 16.272837 7.46875 16.53125 C 7.8218496 16.789663 7.90625 16.96875 7.90625 16.96875 L 8.09375 17.3125 L 8.5 17.4375 L 10.75 18.03125 L 12 18.34375 L 12 17.0625 L 12 5 C 12 4.4349698 12.43497 4 13 4 z M 12 25 L 24 25 L 24 28 L 12 28 L 12 25 z"/></svg>