<svg xmlns="http://www.w3.org/2000/svg" viewBox="0 0 32 32"><path d="M 14.3125 4 C 12.535319 4 10.863979 4.9342493 9.96875 6.46875 L 4.6875 15.5625 C 4.2414621 16.327136 4 17.208726 4 18.09375 L 4 27 L 4 28 L 5 28 L 13 28 L 14 28 L 14 27 L 14 23.6875 C 16.62932 22.897298 17.983991 21.516914 18.40625 21 L 24.71875 21 C 25.995454 21 26.965887 19.73855 26.65625 18.5 L 26.53125 18.03125 C 26.087114 16.256037 24.486223 15 22.65625 15 L 15.78125 15 L 15.28125 13 L 21.65625 13 C 23.486223 13 25.087114 11.743963 25.53125 9.96875 L 25.875 8.65625 C 27.053778 8.2507961 28 7.308554 28 6 L 28 5 L 28 4 L 27 4 L 14.3125 4 z M 14.3125 6 L 26 6 C 26 6.5650302 25.56503 7 25 7 L 24.21875 7 L 16 7 L 15 9 L 23.71875 9 L 23.59375 9.5 C 23.369886 10.394787 22.578277 11 21.65625 11 L 15.28125 11 C 14.004546 11 13.034113 12.26145 13.34375 13.5 L 13.84375 15.5 C 14.064722 16.385879 14.869091 17 15.78125 17 L 22.65625 17 C 23.578277 17 24.369886 17.605213 24.59375 18.5 L 24.71875 19 L 18 19 L 17.5 19 L 17.1875 19.40625 C 17.1875 19.40625 15.745099 21.452692 12.8125 22.03125 L 12 22.1875 L 12 23 L 12 26 L 6 26 L 6 18.09375 C 6 17.562774 6.1382879 17.021864 6.40625 16.5625 L 11.71875 7.5 C 12.257521 6.5765007 13.243681 6 14.3125 6 z"/></svg>