<svg xmlns="http://www.w3.org/2000/svg" viewBox="0 0 32 32"><path d="M 6 6 C 4.3545455 6 3 7.3545455 3 9 L 3 15.78125 C 2.3897999 16.33203 2 17.121617 2 18 L 2 26 L 2 27 L 3 27 L 6 27 L 7 27 L 7 26 L 7 25 L 25 25 L 25 26 L 25 27 L 26 27 L 29 27 L 30 27 L 30 26 L 30 18 C 30 17.121617 29.6102 16.33203 29 15.78125 L 29 9 C 29 7.3545455 27.645455 6 26 6 L 6 6 z M 6 8 L 26 8 C 26.554545 8 27 8.4454545 27 9 L 27 15 L 25 15 L 25 14 C 25 12.354545 23.645455 11 22 11 L 18 11 C 17.232928 11 16.532874 11.300266 16 11.78125 C 15.467126 11.300266 14.767072 11 14 11 L 10 11 C 8.3545455 11 7 12.354545 7 14 L 7 15 L 5 15 L 5 9 C 5 8.4454545 5.4454545 8 6 8 z M 10 13 L 14 13 C 14.554545 13 15 13.445455 15 14 L 15 15 L 9 15 L 9 14 C 9 13.445455 9.4454545 13 10 13 z M 18 13 L 22 13 C 22.554545 13 23 13.445455 23 14 L 23 15 L 17 15 L 17 14 C 17 13.445455 17.445455 13 18 13 z M 5 17 L 27 17 C 27.554545 17 28 17.445455 28 18 L 28 25 L 27 25 L 27 24 L 27 23 L 26 23 L 6 23 L 5 23 L 5 24 L 5 25 L 4 25 L 4 18 C 4 17.445455 4.4454545 17 5 17 z"/></svg>