<svg xmlns="http://www.w3.org/2000/svg" viewBox="0 0 32 32"><path d="M 11.40625 6.96875 C 10.579529 6.9524777 9.8924258 7.1233027 9.46875 7.25 A 1.0001 1.0001 0 0 0 9.4375 7.25 L 6.9375 8.03125 C 4.0058544 8.9342807 2 11.651011 2 14.71875 L 2 20 C 2 23.854334 5.1456661 27 9 27 L 18.90625 27 C 20.123138 27.029246 21.306517 26.31299 21.78125 25.125 C 22.082386 24.371425 22.038509 23.577994 21.75 22.875 C 22.361855 22.550562 22.882945 22.02768 23.15625 21.34375 C 23.470557 20.557983 23.417811 19.722954 23.09375 19 L 27 19 C 28.64497 19 30 17.64497 30 16 C 30 14.35503 28.64497 13 27 13 L 25.46875 13 L 25.875 12.875 C 27.449178 12.396938 28.352931 10.698748 27.875 9.125 C 27.396938 7.5508215 25.698748 6.647069 24.125 7.125 L 15.6875 9.71875 C 15.61194 9.5330134 15.528947 9.3300743 15.40625 9.125 C 14.906884 8.2903696 13.894757 7.3452239 12.28125 7.0625 C 11.982399 7.0102089 11.681824 6.9741741 11.40625 6.96875 z M 25.125 9 C 25.514112 9.0437665 25.845797 9.3138839 25.96875 9.71875 C 26.132819 10.259002 25.821072 10.804812 25.28125 10.96875 L 18.4375 13.03125 L 18.78125 14.15625 L 18.78125 15 L 27 15 C 27.56503 15 28 15.43497 28 16 C 28 16.56503 27.56503 17 27 17 L 20.40625 17 L 17.78125 15.96875 C 17.400974 15.81719 17.012394 15.744116 16.625 15.75 L 16.09375 11.65625 L 24.71875 9.03125 C 24.853813 8.9902328 24.995296 8.9854112 25.125 9 z M 11.375 9.03125 C 11.564903 9.031529 11.764851 9.0322911 11.9375 9.0625 C 13.011993 9.2507761 13.426866 9.7206304 13.6875 10.15625 C 13.948134 10.59187 13.96875 10.90625 13.96875 10.90625 A 1.0001 1.0001 0 0 0 13.96875 10.96875 L 14.8125 17.40625 A 1.0001 1.0001 0 0 0 14.84375 17.5 C 14.969462 18.02739 14.652327 18.530553 14.125 18.65625 C 13.801726 18.73331 13.634805 18.693 13.46875 18.59375 C 13.302695 18.4945 13.092551 18.287378 12.9375 17.84375 L 11.6875 13 A 1.0001 1.0001 0 0 0 10.25 12.375 L 8.59375 13.28125 A 1.0001221 1.0001221 0 1 0 9.5625 15.03125 L 10.0625 14.75 L 11.03125 18.4375 A 1.0001 1.0001 0 0 0 11.0625 18.53125 C 11.332449 19.303622 11.792555 19.927004 12.4375 20.3125 C 12.966239 20.628537 13.578954 20.748634 14.1875 20.6875 C 13.871274 20.982092 13.60767 21.35541 13.4375 21.78125 C 12.979654 22.92698 13.27011 24.1823 14.09375 25 L 9 25 C 6.2263339 25 4 22.773666 4 20 L 4 14.71875 C 4 12.520489 5.4308956 10.584469 7.53125 9.9375 L 10.03125 9.1875 C 10.234574 9.1266975 10.805291 9.0304129 11.375 9.03125 z M 16.8125 17.78125 C 16.887647 17.792917 16.955466 17.782296 17.03125 17.8125 L 20.75 19.3125 C 21.274126 19.521946 21.521635 20.070914 21.3125 20.59375 C 21.103054 21.117876 20.522836 21.365385 20 21.15625 L 16.28125 19.6875 C 16.227521 19.666029 16.20223 19.621951 16.15625 19.59375 C 16.551068 19.086659 16.804563 18.44701 16.8125 17.78125 z M 16.1875 21.90625 C 16.320845 21.905622 16.46253 21.916313 16.59375 21.96875 L 17.9375 22.5 L 19.25 23.03125 L 19.375 23.0625 C 19.898919 23.271863 20.147247 23.85012 19.9375 24.375 C 19.784722 24.757319 19.444066 24.982099 19.0625 25 A 1.0001 1.0001 0 0 0 19.03125 25 C 18.899956 25.001971 18.75622 24.989937 18.625 24.9375 L 15.84375 23.8125 C 15.320809 23.603324 15.071711 23.02436 15.28125 22.5 C 15.385932 22.238041 15.5792 22.068598 15.8125 21.96875 C 15.92915 21.918825 16.054155 21.906878 16.1875 21.90625 z"/></svg>