<svg xmlns="http://www.w3.org/2000/svg" viewBox="0 0 32 32"><path d="M 14.6875 3 L 14.375 3.28125 L 7.59375 10 L 3 10 L 2 10 L 2 11 L 2 25 L 2 26 L 3 26 L 18.84375 26 C 20.252639 26 21.485512 25.002126 21.78125 23.625 L 23.4375 16 L 27 16 C 28.64497 16 30 14.64497 30 13 C 30 11.35503 28.64497 10 27 10 L 16.25 10 L 16.4375 9.25 C 16.640625 9.0936816 16.769008 9.0260315 17.0625 8.625 C 17.532087 7.9833496 18 6.9925134 18 5.65625 C 18.001571 4.2300298 16.709921 3 15.09375 3 L 14.6875 3 z M 15.40625 5.09375 C 15.827534 5.175457 16.000339 5.3486297 16 5.65625 C 16 6.5589866 15.727163 7.1156504 15.46875 7.46875 C 15.210337 7.8218496 15.03125 7.90625 15.03125 7.90625 L 14.6875 8.09375 L 14.5625 8.5 L 13.96875 10.75 L 13.65625 12 L 14.9375 12 L 27 12 C 27.56503 12 28 12.43497 28 13 C 28 13.56503 27.56503 14 27 14 L 22.625 14 L 21.8125 14 L 21.625 14.78125 L 19.84375 23.21875 C 19.743488 23.685624 19.320861 24 18.84375 24 L 9 24 L 9 11.40625 L 15.40625 5.09375 z M 4 12 L 7 12 L 7 24 L 4 24 L 4 12 z"/></svg>