<svg xmlns="http://www.w3.org/2000/svg" viewBox="0 0 32 32"><path d="M 15 6 C 13.937526 6 13.002321 6.5626655 12.46875 7.40625 C 12.032541 7.1574694 11.533567 7 11 7 C 9.3550302 7 8 8.3550302 8 10 L 8 13 L 8 13.65625 L 5.90625 16.34375 C 4.6284988 17.99617 4.7148054 20.368579 6.09375 21.9375 L 8.46875 24.625 C 9.7972337 26.137769 11.705767 27 13.71875 27 L 19 27 C 22.854334 27 26 23.854334 26 20 L 26 11 C 26 9.3550302 24.64497 8 23 8 C 22.466433 8 21.967459 8.1574694 21.53125 8.40625 C 20.997679 7.5626655 20.062474 7 19 7 C 18.466433 7 17.967459 7.1574694 17.53125 7.40625 C 16.997679 6.5626655 16.062474 6 15 6 z M 15 8 C 15.56503 8 16 8.4349698 16 9 L 16 12 L 18 12 L 18 10 C 18 9.4349698 18.43497 9 19 9 C 19.56503 9 20 9.4349698 20 10 L 20 12 L 22 12 L 22 11 C 22 10.43497 22.43497 10 23 10 C 23.56503 10 24 10.43497 24 11 L 24 20 C 24 22.773666 21.773666 25 19 25 L 13.71875 25 C 12.279733 25 10.918266 24.393731 9.96875 23.3125 L 7.59375 20.59375 C 6.8386946 19.734671 6.7997512 18.49933 7.5 17.59375 L 8 16.9375 L 8 18 L 10 18 L 10 14.34375 L 10 14 L 10 13 L 10 10 C 10 9.4349698 10.43497 9 11 9 C 11.56503 9 12 9.4349698 12 10 L 12 12 L 14 12 L 14 10 L 14 9 C 14 8.4349698 14.43497 8 15 8 z"/></svg>