<svg xmlns="http://www.w3.org/2000/svg" viewBox="0 0 32 32"><path d="M 13 2 C 11.354545 2 10 3.3545455 10 5 L 10 16.8125 L 9.34375 16.125 L 9.09375 15.90625 C 7.9401966 14.752697 6.0598034 14.752697 4.90625 15.90625 C 3.7526966 17.059803 3.7526966 18.940197 4.90625 20.09375 L 4.90625 20.125 L 13.09375 28.21875 L 13.15625 28.25 L 13.1875 28.3125 C 14.536833 29.3245 16.252206 30 18.1875 30 L 19.90625 30 C 24.439583 30 28.09375 26.345833 28.09375 21.8125 L 28.09375 14 C 28.09375 12.354545 26.739205 11 25.09375 11 C 24.66782 11 24.274748 11.118176 23.90625 11.28125 C 23.577762 9.981929 22.395209 9 21 9 C 20.232928 9 19.532874 9.3002657 19 9.78125 C 18.467126 9.3002657 17.767072 9 17 9 C 16.646913 9 16.315787 9.0732667 16 9.1875 L 16 5 C 16 3.3545455 14.645455 2 13 2 z M 13 4 C 13.554545 4 14 4.4454545 14 5 L 14 12 L 14 16 L 16 16 L 16 12 C 16 11.445455 16.445455 11 17 11 C 17.554545 11 18 11.445455 18 12 L 18 16 L 20 16 L 20 12 C 20 11.445455 20.445455 11 21 11 C 21.554545 11 22 11.445455 22 12 L 22 16 L 22.09375 16 L 24 16 L 24.09375 16 L 24.09375 14 C 24.09375 13.445455 24.539205 13 25.09375 13 C 25.648295 13 26.09375 13.445455 26.09375 14 L 26.09375 21.8125 C 26.09375 25.279167 23.372917 28 19.90625 28 L 18.1875 28 C 16.722794 28 15.456917 27.4755 14.40625 26.6875 L 6.3125 18.6875 C 5.8660534 18.241053 5.8660534 17.758947 6.3125 17.3125 C 6.7589466 16.866053 7.2410534 16.866053 7.6875 17.3125 L 10.28125 19.90625 L 12 21.625 L 12 19.1875 L 12 5 C 12 4.4454545 12.445455 4 13 4 z"/></svg>