<svg xmlns="http://www.w3.org/2000/svg" viewBox="0 0 32 32"><path d="M 9.5 5 C 5.362182 5 2 8.4035211 2 12.5 C 2 13.928333 2.6498412 15.167108 3.25 16.0625 C 3.8501588 16.957892 4.46875 17.53125 4.46875 17.53125 L 15.28125 28.375 L 16 29.09375 L 16.71875 28.375 L 27.53125 17.53125 C 27.53125 17.53125 30 15.357368 30 12.5 C 30 8.4035211 26.637818 5 22.5 5 C 19.067499 5 16.855077 7.0662313 16 7.9375 C 15.144923 7.0662313 12.932501 5 9.5 5 z M 9.5 7 C 12.486472 7 15.25 9.90625 15.25 9.90625 L 16 10.75 L 16.75 9.90625 C 16.75 9.90625 19.513528 7 22.5 7 C 25.542182 7 28 9.4964789 28 12.5 C 28 14.044632 26.125 16.125 26.125 16.125 L 16 26.25 L 5.875 16.125 C 5.875 16.125 5.3895912 15.658608 4.90625 14.9375 C 4.4229088 14.216392 4 13.271667 4 12.5 C 4 9.4964789 6.457818 7 9.5 7 z M 8.875 10.84375 L 7.40625 12.21875 L 11.90625 17.0625 L 12.71875 17.90625 L 13.4375 16.96875 L 14.34375 15.75 L 16.78125 18.21875 L 15 20 L 20 20 L 20 15 L 18.21875 16.78125 L 14.9375 13.53125 L 14.125 12.71875 L 13.4375 13.625 L 12.5625 14.8125 L 8.875 10.84375 z"/></svg>