<svg xmlns="http://www.w3.org/2000/svg" viewBox="0 0 32 32"><path d="M 7 4 L 7 6 L 9 6 L 9 10 C 9 12.542128 10.368674 14.77362 12.40625 16 C 10.368674 17.22638 9 19.457872 9 22 L 9 26 L 7 26 L 7 28 L 9 28 L 23 28 L 25 28 L 25 26 L 23 26 L 23 22 C 23 19.457872 21.631326 17.22638 19.59375 16 C 21.631326 14.77362 23 12.542128 23 10 L 23 6 L 25 6 L 25 4 L 7 4 z M 11 6 L 21 6 L 21 10 C 21 12.773666 18.773666 15 16 15 C 13.226334 15 11 12.773666 11 10 L 11 6 z M 12 8 L 12 10 C 12 12.209 13.791 14 16 14 C 18.209 14 20 12.209 20 10 L 20 8 L 12 8 z M 16 17 C 18.773666 17 21 19.226334 21 22 L 21 26 L 11 26 L 11 22 C 11 19.226334 13.226334 17 16 17 z"/></svg>