<svg xmlns="http://www.w3.org/2000/svg" viewBox="0 0 32 32"><path d="M 6.21875 6 L 6.03125 6.75 L 3.03125 18.75 L 3 18.875 L 3 19 L 3 25 L 3 26 L 4 26 L 28 26 L 29 26 L 29 25 L 29 19 L 29 18.875 L 28.96875 18.75 L 25.96875 6.75 L 25.78125 6 L 25 6 L 7 6 L 6.21875 6 z M 7.78125 8 L 24.21875 8 L 26.71875 18 L 5.28125 18 L 7.78125 8 z M 5 20 L 27 20 L 27 24 L 5 24 L 5 20 z M 24 21 C 23.447715 21 23 21.447715 23 22 C 23 22.552285 23.447715 23 24 23 C 24.552285 23 25 22.552285 25 22 C 25 21.447715 24.552285 21 24 21 z"/></svg>