<svg xmlns="http://www.w3.org/2000/svg" viewBox="0 0 32 32"><path d="M 12.40625 2 C 12.210789 2.0031506 12.011157 2.0174932 11.8125 2.0625 C 10.472093 2.3661761 9.5317396 3.557338 9.46875 4.875 C 9.1033462 4.8173755 8.7238242 4.8201422 8.34375 4.90625 C 6.7396935 5.2696574 5.6989895 6.8954887 6.0625 8.5 L 8 16.90625 L 8 17 L 8 17.75 L 7.125 16.875 C 5.9619269 15.711927 4.0380731 15.711927 2.875 16.875 C 1.7119269 18.038073 1.7119269 19.961927 2.875 21.125 L 9.65625 27.90625 C 10.831677 29.077174 12.455692 30 14.375 30 L 19 30 C 22.854334 30 26 26.854334 26 23 L 26 16.03125 L 26 16 L 26.9375 11.28125 C 27.25325 9.6667537 26.177104 8.0657712 24.5625 7.75 C 24.223014 7.683606 23.886786 7.6699929 23.5625 7.71875 L 23.78125 6.59375 C 24.097 4.9792537 23.020854 3.3782712 21.40625 3.0625 C 19.791754 2.7467498 18.222021 3.8228964 17.90625 5.4375 L 16.90625 10.1875 L 15.375 4.34375 C 15.373 4.33478 15.3771 4.321435 15.375 4.3125 L 15.34375 4.3125 C 15.008177 2.931938 13.774474 1.9779458 12.40625 2 z M 12.25 4.03125 C 12.799489 3.9067605 13.312907 4.2313065 13.4375 4.78125 L 13.4375 4.8125 L 15.9375 14.40625 L 16.125 15.15625 L 16.90625 15.15625 L 17.09375 15.15625 L 17.90625 15.15625 L 18.09375 14.34375 L 19.84375 5.84375 L 19.84375 5.8125 C 19.951979 5.2591036 20.477746 4.9230002 21.03125 5.03125 C 21.584646 5.1394788 21.92075 5.6652463 21.8125 6.21875 L 20 15.34375 L 21.96875 15.71875 L 23 10.53125 L 23.03125 10.53125 C 23.139479 9.9778536 23.633996 9.6105002 24.1875 9.71875 C 24.740896 9.8269788 25.077 10.352746 24.96875 10.90625 L 24.03125 15.8125 L 24 15.90625 L 24 16 L 24 23 C 24 25.773666 21.773666 28 19 28 L 14.375 28 C 13.102308 28 12.006323 27.377826 11.09375 26.46875 L 4.28125 19.71875 C 3.8823231 19.319823 3.8823231 18.680177 4.28125 18.28125 C 4.6801769 17.882323 5.3198231 17.882323 5.71875 18.28125 L 8.28125 20.875 L 10 22.59375 L 10 20.1875 L 10 16.90625 L 10 16.78125 L 9.96875 16.6875 L 8.03125 8.0625 C 7.9067605 7.5130113 8.2313065 6.9683426 8.78125 6.84375 C 9.3307387 6.7192605 9.8441574 7.0750565 9.96875 7.625 L 11.75 15.5625 L 13.71875 15.125 L 11.9375 7.15625 C 11.935229 7.1462246 11.93987 7.1349787 11.9375 7.125 L 11.5 5.21875 C 11.37551 4.6692613 11.700057 4.1558426 12.25 4.03125 z"/></svg>