<svg xmlns="http://www.w3.org/2000/svg" viewBox="0 0 32 32"><path d="M 16.90625 3 C 15.290079 3 13.998429 4.2300298 14 5.65625 C 14 6.9925134 14.467913 7.9833496 14.9375 8.625 C 15.230992 9.0260315 15.359375 9.0936816 15.5625 9.25 L 15.75 10 L 5 10 C 3.3550302 10 2 11.35503 2 13 C 2 14.64497 3.3550302 16 5 16 L 8.5625 16 L 10.21875 23.625 C 10.514488 25.002126 11.747361 26 13.15625 26 L 29 26 L 30 26 L 30 25 L 30 11 L 30 10 L 29 10 L 24.40625 10 L 17.625 3.28125 L 17.3125 3 L 16.90625 3 z M 16.59375 5.09375 L 23 11.40625 L 23 24 L 13.15625 24 C 12.679139 24 12.256512 23.685624 12.15625 23.21875 L 10.375 14.78125 L 10.1875 14 L 9.375 14 L 5 14 C 4.4349698 14 4 13.56503 4 13 C 4 12.43497 4.4349698 12 5 12 L 17.0625 12 L 18.34375 12 L 18.03125 10.75 L 17.4375 8.5 L 17.3125 8.09375 L 16.96875 7.90625 C 16.96875 7.90625 16.789663 7.82185 16.53125 7.46875 C 16.272837 7.1156504 16 6.5589866 16 5.65625 C 15.999661 5.3486297 16.172466 5.1754567 16.59375 5.09375 z M 25 12 L 28 12 L 28 24 L 25 24 L 25 12 z"/></svg>