<svg xmlns="http://www.w3.org/2000/svg" viewBox="0 0 32 32"><path d="M 15 2 C 13.35503 2 12 3.3550302 12 5 L 12 6.53125 L 11.875 6.125 C 11.396938 4.5508215 9.6987477 3.647069 8.125 4.125 C 6.550269 4.6032296 5.6467043 6.3015414 6.125 7.875 L 8.71875 16.3125 C 8.5330133 16.38806 8.3300743 16.471052 8.125 16.59375 C 7.2903696 17.093116 6.3452239 18.105243 6.0625 19.71875 C 5.8533357 20.914155 6.08107 21.966349 6.25 22.53125 A 1.0001 1.0001 0 0 0 6.25 22.5625 L 7.03125 25.0625 C 7.9342807 27.994146 10.651011 30 13.71875 30 L 19 30 C 22.854334 30 26 26.854334 26 23 L 26 13.09375 C 26.001032 13.050801 26.0008 13.011565 26 12.96875 A 1.0001 1.0001 0 0 0 26 12.90625 C 25.999606 12.896117 26.000495 12.885122 26 12.875 A 1.0001 1.0001 0 0 0 25.96875 12.78125 C 25.880452 11.680658 25.210356 10.65247 24.125 10.21875 C 23.371425 9.9176138 22.577994 9.9614915 21.875 10.25 C 21.550562 9.6381453 21.02768 9.1170553 20.34375 8.84375 C 19.557983 8.5294432 18.722954 8.5821885 18 8.90625 L 18 5 C 18 3.3550302 16.64497 2 15 2 z M 15 4 C 15.56503 4 16 4.4349698 16 5 L 16 11.59375 L 14.96875 14.21875 C 14.820502 14.590719 14.748381 14.991328 14.75 15.375 L 10.65625 15.90625 L 8.0625 7.28125 C 7.8987957 6.7427086 8.179481 6.1950204 8.71875 6.03125 C 9.2590023 5.867181 9.8048118 6.1789285 9.96875 6.71875 L 12.03125 13.5625 L 13.15625 13.21875 L 14 13.21875 L 14 5 C 14 4.4349698 14.43497 4 15 4 z M 19.1875 10.625 C 19.315762 10.623016 19.463041 10.635216 19.59375 10.6875 C 20.117876 10.896946 20.365385 11.477164 20.15625 12 L 19.65625 13.25 L 19.09375 14.65625 L 19.09375 14.6875 L 18.6875 15.71875 C 18.666029 15.772479 18.621951 15.79777 18.59375 15.84375 C 18.086659 15.448932 17.44701 15.195437 16.78125 15.1875 C 16.792917 15.112353 16.782296 15.044534 16.8125 14.96875 L 18.3125 11.25 C 18.469584 10.856905 18.802714 10.630951 19.1875 10.625 z M 22.96875 12 C 23.102095 11.999372 23.24378 12.010063 23.375 12.0625 C 23.767939 12.219522 23.994086 12.574868 24 12.96875 A 1.0001 1.0001 0 0 0 24 13 C 23.998225 13.121847 23.985996 13.25364 23.9375 13.375 L 22.8125 16.15625 C 22.603324 16.679191 22.02436 16.928289 21.5 16.71875 C 20.976081 16.509387 20.759003 15.93113 20.96875 15.40625 L 22.03125 12.75 C 22.047273 12.709942 22.048366 12.665365 22.0625 12.625 C 22.167182 12.363041 22.36045 12.162348 22.59375 12.0625 C 22.7104 12.012575 22.835405 12.000628 22.96875 12 z M 16.5 17.15625 C 17.02739 17.030538 17.530553 17.347673 17.65625 17.875 C 17.73331 18.198274 17.693 18.365195 17.59375 18.53125 C 17.4945 18.697305 17.287378 18.907449 16.84375 19.0625 L 12 20.3125 A 1.0001 1.0001 0 0 0 11.375 21.75 L 12.28125 23.40625 A 1.0001221 1.0001221 0 1 0 14.03125 22.4375 L 13.75 21.9375 L 17.4375 20.96875 A 1.0001 1.0001 0 0 0 17.53125 20.9375 C 18.303622 20.667551 18.927004 20.207445 19.3125 19.5625 C 19.628537 19.033761 19.748634 18.421046 19.6875 17.8125 C 19.982092 18.128726 20.35541 18.39233 20.78125 18.5625 C 21.92698 19.020346 23.1823 18.72989 24 17.90625 L 24 23 C 24 25.773666 21.773666 28 19 28 L 13.71875 28 C 11.520489 28 9.5844693 26.569104 8.9375 24.46875 L 8.1875 21.96875 C 8.10643 21.697651 7.9416643 20.753095 8.0625 20.0625 C 8.2507761 18.988007 8.7206304 18.573134 9.15625 18.3125 C 9.5918696 18.051866 9.90625 18.03125 9.90625 18.03125 A 1.0001 1.0001 0 0 0 9.96875 18.03125 L 16.40625 17.1875 A 1.0001 1.0001 0 0 0 16.5 17.15625 z"/></svg>