<svg xmlns="http://www.w3.org/2000/svg" viewBox="0 0 32 32"><path d="M 7.15625 5 L 7 5.84375 L 5 18.84375 L 5 18.9375 L 5 19 L 5 26 L 5 27 L 6 27 L 26 27 L 27 27 L 27 26 L 27 19 L 27 18.9375 L 27 18.84375 L 25 5.84375 L 24.84375 5 L 24 5 L 8 5 L 7.15625 5 z M 8.875 7 L 23.125 7 L 24.8125 18 L 19 18 L 18 18 L 18 19 C 18 20.116666 17.116666 21 16 21 C 14.883334 21 14 20.116666 14 19 L 14 18 L 13 18 L 7.1875 18 L 8.875 7 z M 7 20 L 12.1875 20 C 12.640967 21.710579 14.153394 23 16 23 C 17.846606 23 19.359033 21.710579 19.8125 20 L 25 20 L 25 25 L 7 25 L 7 20 z"/></svg>