<svg xmlns="http://www.w3.org/2000/svg" viewBox="0 0 32 32"><path d="M27.701,8.812c2.444-6.242-2.303-5.805-2.303-5.805c-3.047,0-6.855,2.73-6.855,2.73S14,4.533,9.457,7.236 c-4.95,3.105-4.787,8.619-4.787,8.619c4.026-5.673,9.629-7.976,9.629-7.976v0.375C6.029,13.818,4.071,21.958,3.581,23.618 S3.417,29,6.899,29s7.018-2.76,7.018-2.76s0.761,0.161,2.829,0.161c8.706,0,10.772-7.549,10.772-7.549h-7.726 c0,0-0.542,2.464-3.317,2.464c-3.809,0-3.591-3.91-3.591-3.91h14.743c0.709-10.064-8.214-11.509-8.214-11.509 s3.153-2.194,5.875-2.194c4.315,0,2.275,4.974,2.275,4.974L27.701,8.812z M13.486,26.128c0,0-5.313,3.173-7.699,0.975 c-1.277-2.2,0.799-5.313,0.799-5.313S8.342,24.997,13.486,26.128z M19.876,13.982h-7.013c0,0-0.089-3.363,3.594-3.363 C20.017,10.619,19.876,13.982,19.876,13.982z"/></svg>