<svg xmlns="http://www.w3.org/2000/svg" viewBox="0 0 32 32"><path d="M 16 4 C 9.3844277 4 4 9.3844277 4 16 C 4 17.040242 4.1561387 18.036785 4.40625 19 L 2 19 C 1.448 19 1 19.448 1 20 C 1 20.552 1.448 21 2 21 L 5.09375 21 C 6.9956121 25.122157 11.171265 28 16 28 C 22.615572 28 28 22.615572 28 16 C 28 14.959758 27.843861 13.963215 27.59375 13 L 30 13 C 30.552 13 31 12.552 31 12 C 31 11.448 30.552 11 30 11 L 26.90625 11 C 25.004388 6.8778431 20.828735 4 16 4 z M 16 6 C 19.713796 6 22.931387 8.0049951 24.65625 11 L 11 11 C 10.448 11 10 11.448 10 12 C 10 12.552 10.448 13 11 13 L 25.5625 13 C 25.859598 13.948198 26 14.952081 26 16 C 26 21.534692 21.534692 26 16 26 C 12.286204 26 9.0686127 23.995005 7.34375 21 L 21 21 C 21.552 21 22 20.552 22 20 C 22 19.448 21.552 19 21 19 L 6.4375 19 C 6.1404022 18.051802 6 17.047919 6 16 C 6 10.465308 10.465308 6 16 6 z M 11 15 C 10.448 15 10 15.448 10 16 C 10 16.552 10.448 17 11 17 L 21 17 C 21.552 17 22 16.552 22 16 C 22 15.448 21.552 15 21 15 L 11 15 z"/></svg>