<svg xmlns="http://www.w3.org/2000/svg" viewBox="0 0 32 32"><path d="M 16 4 C 13.802706 4 12 5.8027056 12 8 C 12 10.197294 13.802706 12 16 12 C 18.197294 12 20 10.197294 20 8 C 20 5.8027056 18.197294 4 16 4 z M 16 6 C 17.116414 6 18 6.883586 18 8 C 18 9.116414 17.116414 10 16 10 C 14.883586 10 14 9.116414 14 8 C 14 6.883586 14.883586 6 16 6 z M 11 13 L 11 14 L 11 17 L 11 18 L 12 18 L 13 18 L 13 23 L 12 23 L 11 23 L 11 24 L 11 27 L 11 28 L 12 28 L 20 28 L 21 28 L 21 27 L 21 24 L 21 23 L 20 23 L 19 23 L 19 14 L 19 13 L 18 13 L 12 13 L 11 13 z M 13 15 L 17 15 L 17 24 L 17 25 L 18 25 L 19 25 L 19 26 L 13 26 L 13 25 L 14 25 L 15 25 L 15 24 L 15 17 L 15 16 L 14 16 L 13 16 L 13 15 z"/></svg>