<svg xmlns="http://www.w3.org/2000/svg" viewBox="0 0 32 32"><path d="M 8 5 C 6.3550302 5 5 6.3550302 5 8 L 5 24 C 5 25.64497 6.3550302 27 8 27 L 24 27 C 25.64497 27 27 25.64497 27 24 L 27 8 C 27 6.3550302 25.64497 5 24 5 L 8 5 z M 21 8 L 24 8 L 24 11 L 21 11 L 21 8 z M 16 12 C 18.220984 12 20 13.779016 20 16 C 20 18.220984 18.220984 20 16 20 C 13.779016 20 12 18.220984 12 16 C 12 13.779016 13.779016 12 16 12 z M 7 14 L 10.34375 14 C 10.122261 14.624412 10 15.301793 10 16 C 10 19.301864 12.698136 22 16 22 C 19.301864 22 22 19.301864 22 16 C 22 15.301793 21.877739 14.624412 21.65625 14 L 25 14 L 25 24 C 25 24.56503 24.56503 25 24 25 L 8 25 C 7.4349698 25 7 24.56503 7 24 L 7 14 z"/></svg>