<svg xmlns="http://www.w3.org/2000/svg" viewBox="0 0 32 32"><path d="M25.992,14.346C25.909,9.723,22.142,6,17.5,6c-3.474,0-6.457,2.087-7.775,5.073C9.489,11.03,9.248,11,9,11 c-2.14,0-3.872,1.684-3.98,3.797C3.217,15.832,2,17.772,2,20c0,3.314,2.686,6,6,6h16c3.314,0,6-2.686,6-6 C30,17.386,28.325,15.168,25.992,14.346z M20.889,23c-1.914,0-3.744-1.646-5.514-3.236C13.863,18.405,12.3,17,11.111,17 C9.927,17,9,17.879,9,19c0,1.084,0.967,2,2.111,2c0.986,0,1.878-0.411,2.727-1.258l1.412,1.416C14.024,22.381,12.632,23,11.111,23 C8.844,23,7,21.206,7,19s1.844-4,4.111-4c1.956,0,3.809,1.666,5.6,3.276c1.49,1.339,3.03,2.724,4.177,2.724 C22.053,21,23,20.103,23,19c0-1.121-0.927-2-2.111-2c-1.355,0-2.562,0.903-2.877,1.22l-1.416-1.412 C16.669,16.733,18.427,15,20.889,15C23.156,15,25,16.794,25,19S23.156,23,20.889,23z"/></svg>