<svg xmlns="http://www.w3.org/2000/svg" viewBox="0 0 32 32"><path d="M6.025,8.687c0-1.476,1.197-2.676,2.675-2.676c1.33,0.002,2.434,0.972,2.64,2.243c1.443-0.339,3.023,0.055,4.148,1.18 l0.154,0.154l-1.974,1.974l-0.153-0.154c-0.641-0.641-1.679-0.641-2.321,0.001c-0.643,0.642-0.642,1.684-0.003,2.323l0.387,0.386 l1.974,1.973l2.089,2.087l-1.973,1.975l-2.09-2.089l-1.975-1.974l-0.385-0.385c-1.193-1.193-1.562-2.897-1.11-4.409 C6.916,11.029,6.025,9.963,6.025,8.687z M11.813,13.884l1.974,1.974l2.089-2.086l1.974-1.974l0.386-0.385 c0.643-0.643,1.679-0.642,2.318-0.003c0.641,0.64,0.641,1.679-0.001,2.32l-0.152,0.154l1.974,1.974l0.154-0.154 c1.18-1.182,1.556-2.863,1.125-4.362c1.311-0.172,2.323-1.294,2.323-2.653c0.001-1.477-1.197-2.676-2.675-2.676 c-1.352,0-2.471,1.004-2.651,2.307c-1.505-0.441-3.199-0.068-4.387,1.119l-0.386,0.384l-1.975,1.974L11.813,13.884z M23.701,20.664 c0.354-1.453-0.038-3.05-1.173-4.185l-0.387-0.388l-1.974-1.974l-2.083-2.085l-1.975,1.973l2.085,2.087l1.974,1.974l0.386,0.387 c0.644,0.644,0.642,1.68,0.004,2.319c-0.641,0.641-1.68,0.641-2.321-0.001l-0.152-0.151l-1.973,1.976l0.151,0.151 c1.202,1.201,2.922,1.568,4.441,1.102c0.246,1.223,1.327,2.142,2.621,2.142c1.477,0,2.676-1.198,2.676-2.676 C26.001,21.963,25.001,20.846,23.701,20.664z M19.934,18.299l-1.974-1.974l-2.085,2.087l-1.974,1.974l-0.386,0.387 c-0.639,0.64-1.68,0.641-2.323-0.002c-0.641-0.641-0.641-1.679-0.001-2.321l0.153-0.151L9.37,16.325l-0.151,0.15 c-1.148,1.148-1.534,2.768-1.161,4.233C6.878,20.985,6,22.046,6,23.311c0,1.477,1.198,2.676,2.676,2.676 c1.271-0.002,2.336-0.886,2.608-2.075c1.459,0.362,3.066-0.025,4.206-1.165l0.387-0.387l1.973-1.976L19.934,18.299z"/></svg>