<svg xmlns="http://www.w3.org/2000/svg" viewBox="0 0 32 32"><path d="M 3 7 C 1.9069372 7 1 7.9069372 1 9 L 1 23 C 1 24.093063 1.9069372 25 3 25 L 29 25 C 30.093063 25 31 24.093063 31 23 L 31 9 C 31 7.9069372 30.093063 7 29 7 L 3 7 z M 3 9 L 29 9 L 29 23 L 3 23 L 3 9 z M 5 11 L 5 13 L 7 13 L 7 11 L 5 11 z M 9 11 L 9 13 L 11 13 L 11 11 L 9 11 z M 13 11 L 13 13 L 15 13 L 15 11 L 13 11 z M 17 11 L 17 13 L 19 13 L 19 11 L 17 11 z M 21 11 L 21 13 L 23 13 L 23 11 L 21 11 z M 25 11 L 25 13 L 27 13 L 27 11 L 25 11 z M 5 15 L 5 17 L 9 17 L 9 15 L 5 15 z M 11 15 L 11 17 L 13 17 L 13 15 L 11 15 z M 15 15 L 15 17 L 17 17 L 17 15 L 15 15 z M 19 15 L 19 17 L 21 17 L 21 15 L 19 15 z M 23 15 L 23 17 L 27 17 L 27 15 L 23 15 z M 5 19 L 5 21 L 9 21 L 9 19 L 5 19 z M 11 19 L 11 21 L 21 21 L 21 19 L 11 19 z M 23 19 L 23 21 L 27 21 L 27 19 L 23 19 z"/></svg>