<svg xmlns="http://www.w3.org/2000/svg" viewBox="0 0 32 32"><path d="M 10.34375 6 C 6.9550091 6 3.40625 7.90625 3.40625 7.90625 L 2.9375 8.15625 L 2.875 8.6875 L 1 24.875 L 0.8125 26.59375 L 2.40625 25.90625 C 2.40625 25.90625 6.5250888 24.1875 10.40625 24.1875 C 12.705974 24.1875 15.46875 25.84375 15.46875 25.84375 L 16 26.1875 L 16.53125 25.84375 C 16.53125 25.84375 19.294026 24.1875 21.59375 24.1875 C 25.474911 24.1875 29.59375 25.90625 29.59375 25.90625 L 31.1875 26.59375 L 31 24.875 L 29.125 8.6875 L 29.0625 8.15625 L 28.59375 7.90625 C 28.59375 7.90625 25.044991 6 21.65625 6 C 18.779024 6 16.681786 7.2586917 16 7.6875 C 15.318027 7.2587127 13.220976 6 10.34375 6 z M 10.34375 8 C 12.929009 8 15.4375 9.625 15.4375 9.625 L 16 10 L 16.5625 9.625 C 16.5625 9.625 19.070991 8 21.65625 8 C 23.931888 8 26.518892 9.1866437 27.1875 9.5 L 28.8125 23.53125 C 27.279402 22.981692 24.758848 22.1875 21.59375 22.1875 C 18.869785 22.1875 16.674446 23.465806 16 23.875 C 15.325554 23.465806 13.130215 22.1875 10.40625 22.1875 C 7.2411521 22.1875 4.7205983 22.981692 3.1875 23.53125 L 4.8125 9.5 C 5.4809031 9.1866537 8.0681119 8 10.34375 8 z M 10.34375 9.5 C 8.89675 9.5 7.1065 10.133 6.1875 10.5 L 4.9375 21.4375 C 6.8965 20.9505 8.72925 20.6875 10.40625 20.6875 C 12.53625 20.6875 14.584 21.46625 16 22.15625 C 17.509 21.42125 19.78025 20.60575 22.03125 20.71875 L 20.78125 9.59375 C 18.96725 9.87275 17.393 10.864 17.375 10.875 L 16 11.8125 L 14.59375 10.875 C 14.57275 10.862 12.49375 9.5 10.34375 9.5 z"/></svg>