<svg xmlns="http://www.w3.org/2000/svg" viewBox="0 0 32 32"><path d="M 5 6 L 5 7 L 5 19.5625 L 2.71875 21.875 C 2.2660776 22.327672 2 22.953861 2 23.59375 C 2 24.915083 3.0849171 26 4.40625 26 L 27.59375 26 C 28.915083 26 30 24.915083 30 23.59375 C 30 22.953861 29.733922 22.327672 29.28125 21.875 L 27 19.5625 L 27 7 L 27 6 L 26 6 L 6 6 L 5 6 z M 7 8 L 25 8 L 25 19 L 7 19 L 7 8 z M 6.4375 21 L 25.5625 21 L 27.875 23.28125 C 27.952328 23.358578 28 23.483639 28 23.59375 C 28 23.834417 27.834417 24 27.59375 24 L 4.40625 24 C 4.1655829 24 4 23.834417 4 23.59375 C 4 23.483639 4.0476724 23.358578 4.125 23.28125 L 6.4375 21 z"/></svg>