<svg xmlns="http://www.w3.org/2000/svg" viewBox="0 0 32 32"><path d="M 25.03125 4 L 24 4.46875 C 20.82146 5.8728848 16.225887 6.3976806 12.3125 7.78125 C 10.355807 8.4730347 8.5417439 9.3926913 7.1875 10.875 C 5.8332561 12.357309 5 14.394956 5 17 C 5 19.69686 6.5853657 21.542394 8.0625 22.59375 C 8.692744 23.042329 9.3004888 23.365692 9.8125 23.59375 C 9.1937251 24.73819 8.739961 25.771184 8.4375 26.65625 C 7.8909345 28.255619 7.8034417 29.503263 7.84375 30.40625 C 7.884058 31.309237 7.9983249 31.92621 8 31.90625 L 10 32.09375 C 10.06067 31.37079 9.874098 30.992356 9.84375 30.3125 C 9.813402 29.632644 9.870441 28.697506 10.34375 27.3125 C 11.290369 24.542488 13.910683 19.982744 20.71875 12.6875 L 19.28125 11.3125 C 15.199373 15.68647 12.563415 19.09958 10.84375 21.84375 C 10.405785 21.667107 9.8214359 21.397713 9.21875 20.96875 C 8.0583843 20.142856 7 18.93814 7 17 C 7 14.796044 7.6275564 13.344723 8.65625 12.21875 C 9.6849436 11.092777 11.180193 10.28859 12.96875 9.65625 C 16.205312 8.5119705 20.214502 7.9323673 23.65625 6.65625 C 23.978307 7.8720997 25 12.030052 25 18.53125 C 25 22.217863 24.136804 24.330144 23.125 25.5 C 22.113196 26.669856 20.895606 27 19.8125 27 C 18.735253 27 17.570913 26.448364 16.5625 25.75 C 15.554087 25.051636 14.860056 24.31976 14.15625 23.875 L 13.09375 25.5625 C 13.272944 25.67574 14.268413 26.596614 15.4375 27.40625 C 16.606587 28.215886 18.084747 29 19.8125 29 C 21.350394 29 23.233804 28.457144 24.65625 26.8125 C 26.078696 25.167856 27 22.526637 27 18.53125 C 27 10.709443 25.34375 5.09375 25.34375 5.09375 L 25.03125 4 z"/></svg>