<svg xmlns="http://www.w3.org/2000/svg" viewBox="0 0 32 32"><path d="M14.348,22.078l-1.026-2.79c0,0-1.668,1.86-4.169,1.86c-2.213,0-3.785-1.924-3.785-5.004c0-3.945,1.988-5.356,3.945-5.356 c2.822,0,3.72,1.828,4.49,4.17l1.026,3.207c1.026,3.111,2.951,5.613,8.499,5.613c3.977,0,6.671-1.219,6.671-4.426 c0-2.598-1.476-3.945-4.234-4.587l-2.053-0.449c-1.411-0.321-1.828-0.898-1.828-1.86c0-1.09,0.866-1.732,2.277-1.732 c1.539,0,2.373,0.577,2.502,1.957l3.207-0.385c-0.257-2.887-2.245-4.073-5.517-4.073c-2.886,0-5.709,1.091-5.709,4.586 c0,2.181,1.058,3.56,3.72,4.202l2.181,0.513c1.636,0.385,2.181,1.058,2.181,1.989c0,1.186-1.155,1.668-3.336,1.668 c-3.239,0-4.586-1.7-5.356-4.041l-1.058-3.207c-1.347-4.17-3.496-5.709-7.762-5.709C4.502,8.222,2,11.205,2,16.273 c0,4.875,2.502,7.505,6.992,7.505C12.616,23.778,14.348,22.078,14.348,22.078L14.348,22.078z"/></svg>