<svg xmlns="http://www.w3.org/2000/svg" viewBox="0 0 32 32"><path d="M 13 4 C 10.419308 4 8.1212747 5.438716 6.53125 7.625 C 4.9412253 9.811284 4 12.76591 4 16 C 4 19.23409 4.9412253 22.188716 6.53125 24.375 C 8.1212747 26.561284 10.419308 28 13 28 C 21.232113 28 25.61697 23.292243 26.6875 18.34375 C 27.443105 17.799088 28 16.996982 28 16 C 28 15.003018 27.443105 14.200912 26.6875 13.65625 C 25.557736 8.5830581 20.3118 4 13 4 z M 13 6 C 14.837586 6 16.538344 7.017567 17.84375 8.8125 C 19.149156 10.607433 20 13.158958 20 16 C 20 18.841042 19.149156 21.392567 17.84375 23.1875 C 16.538344 24.982433 14.837586 26 13 26 C 11.162414 26 9.4616558 24.982433 8.15625 23.1875 C 6.8508442 21.392567 6 18.841042 6 16 C 6 13.158958 6.8508442 10.607433 8.15625 8.8125 C 9.4616558 7.017567 11.162414 6 13 6 z M 19.375 7.53125 C 22.415878 9.1401434 24.368843 11.789397 24.84375 14.375 L 24.9375 14.875 L 25.40625 15.09375 C 25.753986 15.252269 26 15.588198 26 16 C 26 16.411802 25.753986 16.747731 25.40625 16.90625 L 24.9375 17.125 L 24.84375 17.625 C 24.312431 20.517734 22.56585 23.360034 19.0625 24.875 C 19.199429 24.709077 19.340772 24.550969 19.46875 24.375 C 21.058775 22.188716 22 19.23409 22 16 C 22 12.76591 21.058775 9.811284 19.46875 7.625 C 19.442573 7.5890063 19.401559 7.5668354 19.375 7.53125 z M 13 8 C 12.287 8 11.613 8.2565 11 8.6875 L 13.03125 13.46875 L 15.09375 8.71875 C 14.45975 8.25275 13.743 8 13 8 z M 9.5 10.28125 C 8.713 11.51325 8.17525 13.161 8.03125 15 L 11.5 15 L 9.5 10.28125 z M 16.5625 10.375 L 14.53125 15 L 17.96875 15 C 17.82875 13.203 17.3205 11.598 16.5625 10.375 z M 8.03125 17 C 8.17125 18.797 8.6795 20.402 9.4375 21.625 L 11.46875 17 L 8.03125 17 z M 14.5 17 L 16.5 21.71875 C 17.287 20.48675 17.82475 18.838 17.96875 17 L 14.5 17 z M 12.96875 18.53125 L 10.90625 23.28125 C 11.54025 23.74725 12.257 24 13 24 C 13.713 24 14.387 23.7435 15 23.3125 L 12.96875 18.53125 z"/></svg>