<svg xmlns="http://www.w3.org/2000/svg" viewBox="0 0 32 32"><path d="M 16 4 C 9.3844277 4 4 9.3844277 4 16 C 4 22.615572 9.3844277 28 16 28 C 22.615572 28 28 22.615572 28 16 C 28 9.3844277 22.615572 4 16 4 z M 16 6 C 16.335474 6 16.67314 6.0304457 17 6.0625 L 17 9.09375 C 16.672579 9.0464251 16.340129 9 16 9 C 15.659871 9 15.327421 9.0464251 15 9.09375 L 15 6.0625 C 15.32686 6.0304457 15.664526 6 16 6 z M 13 6.4375 L 13 9.6875 C 11.545106 10.381665 10.379416 11.547071 9.6875 13 L 6.46875 13 C 7.4424678 9.8767335 9.8839912 7.4138353 13 6.4375 z M 19 6.4375 C 22.111611 7.4124573 24.587543 9.8883892 25.5625 13 L 22.3125 13 C 21.619607 11.547771 20.452229 10.380393 19 9.6875 L 19 6.4375 z M 16 11 C 18.773268 11 21 13.226732 21 16 C 21 18.773268 18.773268 21 16 21 C 13.226732 21 11 18.773268 11 16 C 11 13.226732 13.226732 11 16 11 z M 6.0625 15 L 9.0625 15 C 9.015985 15.324557 9 15.662696 9 16 C 9 16.340129 9.0464251 16.672579 9.09375 17 L 6.0625 17 C 6.0304457 16.67314 6 16.335474 6 16 C 6 15.66513 6.0305009 15.326492 6.0625 15 z M 22.90625 15 L 25.9375 15 C 25.969554 15.32686 26 15.664526 26 16 C 26 16.335474 25.969554 16.67314 25.9375 17 L 22.90625 17 C 22.953575 16.672579 23 16.340129 23 16 C 23 15.659871 22.953575 15.327421 22.90625 15 z M 6.4375 19 L 9.6875 19 C 10.380393 20.452229 11.547771 21.619607 13 22.3125 L 13 25.5625 C 9.8883892 24.587543 7.4124573 22.111611 6.4375 19 z M 22.3125 19 L 25.5625 19 C 24.587543 22.111611 22.111611 24.587543 19 25.5625 L 19 22.3125 C 20.452229 21.619607 21.619607 20.452229 22.3125 19 z M 15 22.90625 C 15.327421 22.953575 15.659871 23 16 23 C 16.340129 23 16.672579 22.953575 17 22.90625 L 17 25.9375 C 16.67314 25.969554 16.335474 26 16 26 C 15.664526 26 15.32686 25.969554 15 25.9375 L 15 22.90625 z"/></svg>