<svg xmlns="http://www.w3.org/2000/svg" viewBox="0 0 32 32"><path d="M 16 5 C 10.488666 5 6 9.4886661 6 15 L 6 23 C 6 24.116666 5.1166661 25 4 25 L 4 27 C 6.1973339 27 8 25.197334 8 23 L 8 15 C 8 10.569334 11.569334 7 16 7 C 17.015361 7 17.9827 7.1889374 18.875 7.53125 C 18.582876 7.943902 18.73654 8.6740401 19.28125 9.21875 C 19.867036 9.8045364 20.671976 9.9530245 21.0625 9.5625 C 21.208947 9.4160533 21.25151 9.1959699 21.25 8.96875 C 22.930157 10.433372 24 12.586805 24 15 L 24 23 C 24 25.197334 25.802666 27 28 27 L 28 25 C 26.883334 25 26 24.116666 26 23 L 26 15 C 26 9.4886661 21.511334 5 16 5 z M 13 11 C 11.479311 11 10.332449 11.85245 9.75 12.875 C 9.167551 13.89755 9 15.048185 9 16 C 9 17.355146 9.4144885 18.347195 9.875 18.96875 C 9.9182722 19.027155 9.9553463 19.072001 10 19.125 C 9.3866471 19.780807 9 20.592142 9 21.5 C 9 22.929733 9.9729891 24.098827 11.25 24.84375 C 12.527011 25.588673 14.185518 26 16 26 C 17.814482 26 19.472989 25.588673 20.75 24.84375 C 22.027011 24.098827 23 22.929733 23 21.5 C 23 20.592142 22.613353 19.780807 22 19.125 C 22.044654 19.072001 22.081728 19.027155 22.125 18.96875 C 22.585511 18.347195 23 17.355146 23 16 C 23 15.048185 22.832449 13.89755 22.25 12.875 C 21.667551 11.85245 20.520689 11 19 11 C 17.669397 11 16.630503 11.651807 16 12.5 C 15.369497 11.651807 14.330603 11 13 11 z M 13 13 C 13.866311 13 14.210449 13.3118 14.53125 13.875 C 14.852051 14.4382 15 15.294815 15 16 L 17 16 C 17 15.294815 17.147949 14.4382 17.46875 13.875 C 17.789551 13.3118 18.133689 13 19 13 C 19.866311 13 20.210449 13.3118 20.53125 13.875 C 20.852051 14.4382 21 15.294815 21 16 C 21 16.962854 20.721489 17.482305 20.5 17.78125 C 20.428207 17.878149 20.38947 17.922562 20.34375 17.96875 C 20.118848 17.855563 19.900082 17.71887 19.65625 17.625 C 19.868353 17.349946 20 16.953573 20 16.5 C 20 15.671573 19.552285 15 19 15 C 18.447715 15 18 15.671573 18 16.5 C 18 16.76424 18.076285 17.00313 18.15625 17.21875 C 17.468386 17.080515 16.758942 17 16 17 C 15.241058 17 14.531614 17.080515 13.84375 17.21875 C 13.923715 17.00313 14 16.76424 14 16.5 C 14 15.671573 13.552285 15 13 15 C 12.447715 15 12 15.671573 12 16.5 C 12 16.953573 12.131647 17.349946 12.34375 17.625 C 12.099918 17.71887 11.881152 17.855563 11.65625 17.96875 C 11.61053 17.922562 11.571793 17.878148 11.5 17.78125 C 11.278511 17.482305 11 16.962854 11 16 C 11 15.294815 11.147949 14.4382 11.46875 13.875 C 11.789551 13.3118 12.133689 13 13 13 z M 16 19 C 17.499226 19 18.855438 19.353172 19.75 19.875 C 20.644562 20.396828 21 20.996736 21 21.5 C 21 22.003264 20.644562 22.603172 19.75 23.125 C 18.855438 23.646828 17.499226 24 16 24 C 14.500774 24 13.144562 23.646828 12.25 23.125 C 11.355438 22.603172 11 22.003264 11 21.5 C 11 20.996736 11.355438 20.396828 12.25 19.875 C 13.144562 19.353172 14.500774 19 16 19 z M 13.5 20.4375 L 12.5 22.15625 C 12.5 22.15625 13.927017 23 16 23 C 18.072983 23 19.5 22.15625 19.5 22.15625 L 18.5 20.4375 C 18.5 20.4375 17.547017 21 16 21 C 14.452983 21 13.5 20.4375 13.5 20.4375 z"/></svg>