<svg xmlns="http://www.w3.org/2000/svg" viewBox="0 0 32 32"><path d="M 22.5 6 C 21.8445 6 21.297687 6.4136884 21.09375 7 L 17 7 L 17 9 L 21.25 9 L 21.5625 10 L 18 10 C 15.390137 10 14.077708 11.407815 13.59375 12 L 10.21875 12 C 9.8313089 11.771519 8.451171 11 6.5 11 C 4.3411478 11 2.5625 11.84375 2.5625 11.84375 L 3.4375 13.65625 C 3.4375 13.65625 4.8688522 13 6.5 13 C 7.3092915 13 8.0690555 13.248036 8.625 13.46875 L 7.75 15.28125 C 7.1978408 15.112666 6.6070997 15 6 15 C 2.691 15 0 17.691 0 21 C 0 24.309 2.691 27 6 27 C 8.9713926 27 11.432542 24.838776 11.90625 22 L 15.375 22 C 16.133947 22 16.851536 21.556926 17.1875 20.875 L 17.15625 20.875 L 18.25 18.65625 C 19.913789 17.890525 21.267809 16.560888 22.21875 15.3125 C 22.479255 14.97051 22.702132 14.651037 22.90625 14.34375 L 25.03125 21.28125 L 26.96875 20.71875 L 25.84375 17.03125 C 25.898236 17.028418 25.944744 17 26 17 C 28.206 17 30 18.794 30 21 C 30 23.206 28.206 25 26 25 C 23.794 25 22 23.206 22 21 C 22 19.934 22.41175 18.967 23.09375 18.25 L 22.46875 16.15625 C 20.97775 17.24825 20 19.014 20 21 C 20 24.309 22.691 27 26 27 C 29.309 27 32 24.309 32 21 C 32 17.691 29.309 15 26 15 C 25.732873 15 25.476736 15.027788 25.21875 15.0625 L 23.375 9 L 25 9 L 25 6 L 22.5 6 z M 18 12 L 22 12 C 21.852821 12.270077 21.407989 13.065848 20.625 14.09375 C 19.695271 15.314292 18.401017 16.60921 17.15625 17.0625 L 16.75 17.1875 L 16.59375 17.5625 L 15.375 20 L 6 20 L 6 22 L 9.84375 22 C 9.3984439 23.723125 7.8605404 25 6 25 C 3.794 25 2 23.206 2 21 C 2 18.794 3.794 17 6 17 C 7.474 17 8.7435 17.81 9.4375 19 L 11.65625 19 C 11.24826 17.850613 10.497343 16.863726 9.53125 16.15625 L 10.625 14 L 14 14 L 14.53125 14 L 14.84375 13.5625 C 14.84375 13.5625 15.812771 12 18 12 z"/></svg>