<svg xmlns="http://www.w3.org/2000/svg" viewBox="0 0 32 32"><path d="M 4 11 C 2.3550302 11 1 12.35503 1 14 L 1 21 L 3 21 L 3 14 C 3 13.43497 3.4349698 13 4 13 L 7 13 C 7.5650302 13 8 13.43497 8 14 L 8 21 L 10 21 L 10 14 C 10 13.43497 10.43497 13 11 13 L 14 13 C 14.56503 13 15 13.43497 15 14 L 15 21 L 17 21 L 17 14 C 17 12.35503 15.64497 11 14 11 L 11 11 C 10.233154 11 9.5329226 11.300202 9 11.78125 C 8.4670774 11.300202 7.7668462 11 7 11 L 4 11 z M 22 11 C 20.35503 11 19 12.35503 19 14 L 19 15 L 19 18 L 19 25 L 21 25 L 21 20.8125 C 21.315758 20.926764 21.647017 21 22 21 L 28 21 C 29.64497 21 31 19.64497 31 18 L 31 14 C 31 12.35503 29.64497 11 28 11 L 22 11 z M 22 13 L 28 13 C 28.56503 13 29 13.43497 29 14 L 29 18 C 29 18.56503 28.56503 19 28 19 L 22 19 C 21.43497 19 21 18.56503 21 18 L 21 15 L 21 14 C 21 13.43497 21.43497 13 22 13 z"/></svg>