<svg xmlns="http://www.w3.org/2000/svg" viewBox="0 0 32 32"><path d="M 27 3.78125 L 25.8125 4.03125 L 9.8125 7.03125 L 9 7.15625 L 9 8 L 9 20.5625 C 8.4074074 20.214051 7.7324315 20 7 20 C 4.8027056 20 3 21.802706 3 24 C 3 26.197294 4.8027056 28 7 28 C 9.1972944 28 11 26.197294 11 24 L 11 12.8125 L 25 10.1875 L 25 17.5625 C 24.407407 17.214051 23.732431 17 23 17 C 20.802706 17 19 18.802706 19 21 C 19 23.197294 20.802706 25 23 25 C 25.197294 25 27 23.197294 27 21 L 27 5 L 27 3.78125 z M 25 6.1875 L 25 8.1875 L 11 10.8125 L 11 8.8125 L 25 6.1875 z M 23 19 C 24.116414 19 25 19.883586 25 21 C 25 22.116414 24.116414 23 23 23 C 21.883586 23 21 22.116414 21 21 C 21 19.883586 21.883586 19 23 19 z M 7 22 C 8.116414 22 9 22.883586 9 24 C 9 25.116414 8.116414 26 7 26 C 5.883586 26 5 25.116414 5 24 C 5 22.883586 5.883586 22 7 22 z"/></svg>