<svg xmlns="http://www.w3.org/2000/svg" viewBox="0 0 32 32"><path d="M 10 8 C 5.5935666 8 2 11.593567 2 16 C 2 20.406433 5.5935666 24 10 24 C 14.064866 24 17.438983 20.933201 17.9375 17 L 20 17 L 20 20 L 22 20 L 22 17 L 26.5625 17 L 22.28125 21.28125 L 23.71875 22.71875 L 29.71875 16.71875 L 30.40625 16 L 29.71875 15.28125 L 23.71875 9.28125 L 22.28125 10.71875 L 26.5625 15 L 22 15 L 22 12 L 20 12 L 20 15 L 17.9375 15 C 17.438983 11.066799 14.064866 8 10 8 z M 10 10 C 13.325553 10 16 12.674447 16 16 C 16 19.325553 13.325553 22 10 22 C 6.674447 22 4 19.325553 4 16 C 4 12.674447 6.674447 10 10 10 z"/></svg>