<svg xmlns="http://www.w3.org/2000/svg" viewBox="0 0 32 32"><path d="M 10.28125 5.28125 L 2.28125 13.28125 L 1.59375 14 L 2.28125 14.71875 L 10.28125 22.71875 L 11.71875 21.28125 L 4.4375 14 L 11.71875 6.71875 L 10.28125 5.28125 z M 15.28125 5.28125 L 7.28125 13.28125 L 6.59375 14 L 7.28125 14.71875 L 15.28125 22.71875 L 16.71875 21.28125 L 10.4375 15 L 23 15 C 25.773666 15 28 17.226334 28 20 C 28 22.773666 25.773666 25 23 25 L 23 27 C 26.854334 27 30 23.854334 30 20 C 30 16.145666 26.854334 13 23 13 L 10.4375 13 L 16.71875 6.71875 L 15.28125 5.28125 z"/></svg>