<svg xmlns="http://www.w3.org/2000/svg" viewBox="0 0 32 32"><path d="M 3.71875 2.28125 L 2.28125 3.71875 L 28.28125 29.71875 L 29.71875 28.28125 L 23.4375 22 C 24.398589 20.936032 25 19.543584 25 18 L 25 14 L 23 14 L 23 18 C 23 18.993949 22.635179 19.897058 22.03125 20.59375 L 20.625 19.1875 C 20.864969 18.857595 21 18.438347 21 18 L 21 6 C 21 4.897 20.103 4 19 4 L 13 4 C 11.897 4 11 4.897 11 6 L 11 9.5625 L 3.71875 2.28125 z M 13 6 L 19 6 L 19 17.5625 L 13 11.5625 L 13 6 z M 7 14 L 7 18 C 7 21.309 9.691 24 13 24 L 15 24 L 15 26 L 11 26 L 11 28 L 21 28 L 21 26 L 17 26 L 17 24 L 19 24 C 19.254 24 19.505 23.9685 19.75 23.9375 L 17.8125 22 L 13 22 C 10.794 22 9 20.206 9 18 L 9 14 L 7 14 z M 11 15.1875 L 11 18 C 11 19.103 11.897 20 13 20 L 15.8125 20 L 13.8125 18 L 13 18 L 13 17.1875 L 11 15.1875 z"/></svg>