<svg xmlns="http://www.w3.org/2000/svg" viewBox="0 0 32 32"><path d="M 14 3 L 14 5 L 19.5625 5 L 14.15625 10.40625 C 12.957143 9.513472 11.521643 9 10 9 C 8.13 9 6.3845 9.7405 5.0625 11.0625 C 3.7405 12.3845 3 14.13 3 16 C 3 17.87 3.7405 19.6145 5.0625 20.9375 C 6.3845 22.2605 8.13 23 10 23 C 11.87 23 13.6155 22.2595 14.9375 20.9375 C 15.7485 20.1265 16.3535 19.15675 16.6875 18.09375 C 15.9125 17.96775 15.098 18.067 14.375 18.375 C 14.148 18.792 13.87725 19.18625 13.53125 19.53125 C 12.58725 20.47525 11.335 21 10 21 C 8.665 21 7.41275 20.47525 6.46875 19.53125 C 5.52475 18.58725 5 17.335 5 16 C 5 14.665 5.52475 13.41375 6.46875 12.46875 C 7.41275 11.52375 8.665 11 10 11 C 11.335 11 12.58725 11.52475 13.53125 12.46875 C 14.01325 12.95075 14.377 13.512 14.625 14.125 C 15.073 14.048 15.536 14 16 14 C 16.241 14 16.48175 14.01025 16.71875 14.03125 C 16.487834 13.238321 16.091266 12.512586 15.59375 11.84375 L 21 6.4375 L 21 11 L 23 11 L 25.5625 11 L 20.15625 16.40625 C 18.957361 15.513472 17.522457 15 16 15 C 14.13 15 12.3845 15.7405 11.0625 17.0625 C 10.2515 17.8735 9.6465 18.84325 9.3125 19.90625 C 10.0875 20.03125 10.902 19.933 11.625 19.625 C 11.852 19.208 12.12275 18.81375 12.46875 18.46875 C 13.41275 17.52475 14.665 17 16 17 C 17.335 17 18.58725 17.52475 19.53125 18.46875 C 20.47525 19.41275 21 20.665 21 22 C 21 23.335 20.47525 24.58625 19.53125 25.53125 C 18.58725 26.47625 17.335 27 16 27 C 14.665 27 13.41275 26.47525 12.46875 25.53125 C 11.98675 25.04925 11.623 24.488 11.375 23.875 C 10.927 23.952 10.464 24 10 24 C 9.759 24 9.51825 23.98975 9.28125 23.96875 C 9.60625 25.08475 10.2175 26.0925 11.0625 26.9375 C 12.3845 28.2595 14.13 29 16 29 C 17.869 29 19.6155 28.2595 20.9375 26.9375 C 22.2595 25.6155 23 23.87 23 22 C 23 20.477543 22.486774 19.043179 21.59375 17.84375 L 27 12.4375 L 27 18 L 29 18 L 29 10 L 29 9 L 28 9 L 23 9 L 23 4 L 23 3 L 22 3 L 14 3 z"/></svg>