<svg xmlns="http://www.w3.org/2000/svg" viewBox="0 0 32 32"><path d="M 16 7.78125 L 15.6875 7.875 L 3.1875 12.0625 L 0.34375 13 L 2 13.53125 L 2 22.28125 C 1.4031044 22.627293 1 23.260396 1 24 C 1 25.104569 1.8954305 26 3 26 C 4.1045695 26 5 25.104569 5 24 C 5 23.260396 4.5968956 22.627293 4 22.28125 L 4 14.21875 L 6 14.875 L 6 20 C 6 20.8195 6.4992454 21.500184 7.09375 21.96875 C 7.6882546 22.437316 8.4257966 22.766932 9.3125 23.0625 C 11.085907 23.653636 13.424444 24 16 24 C 18.575556 24 20.914093 23.653636 22.6875 23.0625 C 23.574203 22.766932 24.311745 22.437316 24.90625 21.96875 C 25.500755 21.500184 26 20.8195 26 20 L 26 14.875 L 28.8125 13.9375 L 31.65625 13 L 28.8125 12.0625 L 16.3125 7.875 L 16 7.78125 z M 16 9.875 L 25.375 13 L 16 16.125 L 6.625 13 L 16 9.875 z M 8 15.5625 L 15.6875 18.125 L 16 18.21875 L 16.3125 18.125 L 24 15.5625 L 24 20 C 24 20.009 24.0038 20.125723 23.6875 20.375 C 23.371223 20.624277 22.804422 20.940193 22.0625 21.1875 C 20.578657 21.682114 18.395444 22 16 22 C 13.604556 22 11.421343 21.682114 9.9375 21.1875 C 9.1955784 20.940193 8.6287766 20.624277 8.3125 20.375 C 7.9962234 20.125723 8 20.009 8 20 L 8 15.5625 z"/></svg>