<svg xmlns="http://www.w3.org/2000/svg" viewBox="0 0 32 32"><path d="M 16 1.59375 L 15.28125 2.28125 L 9.28125 8.28125 L 10.71875 9.71875 L 15 5.4375 L 15 10 L 12 10 L 12 12 L 15 12 L 15 14.0625 C 11.066799 14.561017 8 17.935134 8 22 C 8 26.406433 11.593567 30 16 30 C 20.406433 30 24 26.406433 24 22 C 24 17.935134 20.933201 14.561017 17 14.0625 L 17 12 L 20 12 L 20 10 L 17 10 L 17 5.4375 L 21.28125 9.71875 L 22.71875 8.28125 L 16.71875 2.28125 L 16 1.59375 z M 16 16 C 19.325553 16 22 18.674447 22 22 C 22 25.325553 19.325553 28 16 28 C 12.674447 28 10 25.325553 10 22 C 10 18.674447 12.674447 16 16 16 z"/></svg>