<svg xmlns="http://www.w3.org/2000/svg" viewBox="0 0 32 32"><path d="M 16 3 C 13.077778 3 10.4661 3.97855 8.3125 5.59375 L 7.625 6.09375 L 8 6.84375 C 7.980743 6.8052361 8 6.8 8 7 C 8 7.5545455 7.5545455 8 7 8 C 6.8 8 6.8052361 7.980743 6.84375 8 L 6.09375 7.625 L 5.59375 8.3125 C 3.97855 10.4661 3 13.077778 3 16 C 3 20.976812 5.798051 25.422879 10.03125 27.59375 L 10.6875 27.9375 L 11.21875 27.40625 C 11.500899 27.124101 11.733333 27 12 27 C 12.466667 27 12.953857 27.444818 13 27.90625 L 13.09375 28.6875 L 13.84375 28.78125 C 14.530551 28.879364 15.204762 29 16 29 C 22.694624 29 28.149553 24.01722 28.90625 17.53125 L 28.96875 16.75 L 28.28125 16.46875 C 28.250824 16.45658 28 16.155556 28 16 C 28 15.844444 28.250824 15.54342 28.28125 15.53125 L 28.96875 15.25 L 28.90625 14.46875 C 28.149553 7.9827797 22.694624 3 16 3 z M 15.15625 5.03125 C 15.681379 5.3804584 17.187955 6.5042049 18.5625 8.71875 L 18.84375 9.1875 L 19.40625 9.1875 L 19.59375 9.1875 C 20.060417 9.1875 20.40625 9.5333333 20.40625 10 C 20.40625 10.266667 20.34107 10.346426 20 10.6875 L 19.5625 11.125 L 19.75 11.71875 C 19.82892 11.955504 19.941418 12.355504 20.0625 12.71875 L 20.25 13.28125 L 20.84375 13.375 C 20.981656 13.397984 21 13.438194 21 13.59375 C 21 13.69375 20.94561 13.761571 20.84375 13.8125 L 20.3125 14.09375 L 20.3125 14.6875 C 20.3125 15.254167 20.40625 15.766667 20.40625 16 C 20.40625 19.118182 19.534381 21.546012 18.53125 23.1875 L 18.25 23.65625 L 18.5 24.15625 C 18.6 24.35625 18.59375 24.328472 18.59375 24.40625 C 18.59375 24.63006 18.63006 24.59375 18.40625 24.59375 L 18.09375 24.59375 L 17.625 24.59375 L 17.3125 24.96875 C 16.401273 26.075239 15.615481 26.669143 15.21875 26.9375 C 15.001181 26.908677 14.793949 26.876651 14.5625 26.84375 C 14.08084 25.804239 13.194837 25 12 25 C 11.410611 25 10.932618 25.229974 10.5 25.5 C 7.2100505 23.586824 5 20.023828 5 16 C 5 13.72603 5.7541275 11.74409 6.9375 10 C 6.9500834 9.9999572 6.9887137 10 7 10 C 8.6454545 10 10 8.6454545 10 7 C 10 6.9887137 9.9999572 6.9500834 10 6.9375 C 11.526079 5.9020491 13.229667 5.1917736 15.15625 5.03125 z M 18.3125 5.25 C 22.735374 6.1858523 26.063636 9.7567356 26.78125 14.28125 C 26.328329 14.73907 26 15.303704 26 16 C 26 16.696296 26.328329 17.26093 26.78125 17.71875 C 26.06899 22.20951 22.77984 25.750796 18.40625 26.71875 C 18.480335 26.638481 18.550359 26.584915 18.625 26.5 C 19.692835 26.368317 20.59375 25.498427 20.59375 24.40625 C 20.59375 24.138562 20.50362 24.011885 20.4375 23.8125 C 21.535546 21.878136 22.40625 19.279496 22.40625 16 C 22.40625 15.595375 22.37291 15.326331 22.34375 15.0625 C 22.709122 14.672627 23 14.188108 23 13.59375 C 23 12.831511 22.51047 12.214682 21.875 11.8125 C 21.85442 11.74167 21.804 11.673369 21.78125 11.59375 C 22.104173 11.163671 22.40625 10.666667 22.40625 10 C 22.40625 8.612069 21.302763 7.5530599 19.96875 7.34375 C 19.422367 6.5276598 18.851892 5.8316054 18.3125 5.25 z M 13.71875 8.34375 C 12.420582 8.3375642 11.232349 9.2046695 10.84375 10.5 C 10.368002 12.085826 11.443447 13.623659 12.90625 14.0625 L 13.5 12.15625 C 12.962803 11.995091 12.625748 11.507924 12.75 11.09375 C 12.905887 10.574128 13.409112 10.275572 13.90625 10.375 L 14.28125 8.40625 C 14.093392 8.3686785 13.904203 8.3446337 13.71875 8.34375 z M 8.71875 15.78125 C 7.5739728 16.271869 6.8450739 17.563568 7.40625 18.78125 C 7.4125284 18.785571 7.4031185 18.80555 7.40625 18.8125 C 7.41251 18.8264 7.430991 18.83 7.4375 18.84375 C 7.9648284 19.958052 9.280727 20.647546 10.5 20.125 L 9.71875 18.28125 C 9.568124 18.345804 9.3195264 18.235145 9.21875 18 L 9.21875 17.96875 L 9.1875 17.9375 C 9.2055186 17.973537 9.264855 17.725776 9.5 17.625 L 8.71875 15.78125 z M 13.1875 19.09375 C 11.9715 20.00575 11.516 21.78175 12.5 23.09375 C 13.412 24.30975 15.188 24.7965 16.5 23.8125 L 15.3125 22.1875 C 15.0245 22.4035 14.38175 22.29025 14.09375 21.90625 C 13.87775 21.61825 14.02225 20.9755 14.40625 20.6875 L 13.1875 19.09375 z"/></svg>