<svg xmlns="http://www.w3.org/2000/svg" viewBox="0 0 32 32"><path d="M 11 2 C 11 3.4761746 11.661161 4.8013089 12.6875 5.71875 C 9.9310731 6.9840917 8 9.7773719 8 13 C 8 17.064866 11.066799 20.438983 15 20.9375 L 15 24 L 11 24 L 11 26 L 15 26 L 15 30 L 17 30 L 17 26 L 21 26 L 21 24 L 17 24 L 17 20.9375 C 20.933201 20.438983 24 17.064866 24 13 C 24 9.7773719 22.068927 6.9840917 19.3125 5.71875 C 20.338839 4.8013089 21 3.4761746 21 2 L 19 2 C 19 3.6684839 17.668484 5 16 5 C 14.331516 5 13 3.6684839 13 2 L 11 2 z M 16 7 C 19.325553 7 22 9.674447 22 13 C 22 16.325553 19.325553 19 16 19 C 12.674447 19 10 16.325553 10 13 C 10 9.674447 12.674447 7 16 7 z"/></svg>