<svg xmlns="http://www.w3.org/2000/svg" viewBox="0 0 32 32"><path d="M 13 4 C 11.906937 4 11 4.9069372 11 6 L 11 18 C 11 19.093063 11.906937 20 13 20 L 19 20 C 20.093063 20 21 19.093063 21 18 L 21 6 C 21 4.9069372 20.093063 4 19 4 L 13 4 z M 13 6 L 19 6 L 19 18 L 13 18 L 13 6 z M 7 14 L 7 18 C 7 21.301625 9.6983746 24 13 24 L 15 24 L 15 26 L 11 26 L 11 28 L 21 28 L 21 26 L 17 26 L 17 24 L 19 24 C 22.301625 24 25 21.301625 25 18 L 25 14 L 23 14 L 23 18 C 23 20.220375 21.220375 22 19 22 L 13 22 C 10.779625 22 9 20.220375 9 18 L 9 14 L 7 14 z"/></svg>