<svg xmlns="http://www.w3.org/2000/svg" viewBox="0 0 32 32"><path d="M 14 5 C 12.906937 5 12 5.9069372 12 7 L 12 8 L 6 8 C 4.3550302 8 3 9.3550302 3 11 L 3 25 L 3 26 L 4 26 L 28 26 L 29 26 L 29 25 L 29 11 C 29 9.3550302 27.64497 8 26 8 L 20 8 L 20 7 C 20 5.9069372 19.093063 5 18 5 L 14 5 z M 14 7 L 18 7 L 18 8 L 14 8 L 14 7 z M 6 10 L 26 10 C 26.56503 10 27 10.43497 27 11 L 27 24 L 5 24 L 5 11 C 5 10.43497 5.4349698 10 6 10 z M 15 13 L 15 16 L 12 16 L 12 18 L 15 18 L 15 21 L 17 21 L 17 18 L 20 18 L 20 16 L 17 16 L 17 13 L 15 13 z"/></svg>