<svg xmlns="http://www.w3.org/2000/svg" viewBox="0 0 32 32"><path d="M 17 4 L 17 6 L 24.5625 6 L 20 10.5625 L 17.71875 8.28125 L 16.28125 9.71875 L 18.5625 12 L 16.875 13.6875 C 15.523453 12.64391 13.833076 12 12 12 C 7.5935666 12 4 15.593567 4 20 C 4 24.406433 7.5935666 28 12 28 C 16.406433 28 20 24.406433 20 20 C 20 18.166924 19.35609 16.476547 18.3125 15.125 L 20 13.4375 L 22.28125 15.71875 L 23.71875 14.28125 L 21.4375 12 L 26 7.4375 L 26 15 L 28 15 L 28 5 L 28 4 L 27 4 L 17 4 z M 12 14 C 15.325553 14 18 16.674447 18 20 C 18 23.325553 15.325553 26 12 26 C 8.674447 26 6 23.325553 6 20 C 6 16.674447 8.674447 14 12 14 z"/></svg>