<svg xmlns="http://www.w3.org/2000/svg" viewBox="0 0 32 32"><path d="M 16 5 C 9.9365932 5 5 9.9365932 5 16 L 5 26 L 5 27 L 6 27 L 12 27 L 13 27 L 13 26 L 13 16 C 13 14.331516 14.331516 13 16 13 C 17.668484 13 19 14.331516 19 16 L 19 26 L 19 27 L 20 27 L 26 27 L 27 27 L 27 26 L 27 16 C 27 9.9365932 22.063407 5 16 5 z M 16 7 C 20.982593 7 25 11.017407 25 16 L 25 21 L 21 21 L 21 16 C 21 13.250484 18.749516 11 16 11 C 13.250484 11 11 13.250484 11 16 L 11 21 L 7 21 L 7 16 C 7 11.017407 11.017407 7 16 7 z M 7 23 L 11 23 L 11 25 L 7 25 L 7 23 z M 21 23 L 25 23 L 25 25 L 21 25 L 21 23 z"/></svg>