<svg xmlns="http://www.w3.org/2000/svg" viewBox="0 0 32 32"><path d="M120.001,753.38c10.372,0,18.807-8.435,18.807-18.807c0-10.362-8.435-18.799-18.807-18.799 c-10.362,0-18.807,8.437-18.807,18.799C101.194,744.945,109.639,753.38,120.001,753.38z M120.001,689.164 c25.055,0,45.422,20.367,45.422,45.409c0,25.052-20.367,45.427-45.422,45.427c-25.049,0-45.422-20.375-45.422-45.427 C74.579,709.532,94.952,689.164,120.001,689.164z M138.378,652.109c9.247,2.107,18.165,5.765,26.377,10.925 c6.215,3.917,8.089,12.134,4.172,18.35c-3.912,6.23-12.124,8.103-18.35,4.186c-18.605-11.703-42.561-11.698-61.156,0 c-6.227,3.917-14.438,2.043-18.346-4.186c-3.917-6.221-2.049-14.433,4.168-18.35c8.211-5.154,17.129-8.818,26.376-10.925 l-25.395-25.394c-5.192-5.197-5.192-13.621,0.005-18.817c2.601-2.596,6.004-3.897,9.406-3.897c3.408,0,6.816,1.3,9.417,3.897 l24.943,24.954l24.965-24.954c5.192-5.197,13.616-5.197,18.812,0c5.202,5.196,5.202,13.626,0,18.817 C163.773,626.715,138.378,652.109,138.378,652.109z" transform="matrix(.125 0 0 -.125 0 102.5)"/></svg>