<svg xmlns="http://www.w3.org/2000/svg" viewBox="0 0 32 32"><path d="M 15.96875 4 C 9.6721682 4 4.998935 8.9443184 5 15.90625 C 5 22.190168 9.4619117 28 15.96875 28 C 22.525996 28 27 22.192688 27 15.90625 C 27 8.882485 22.211837 4 15.96875 4 z M 15.96875 6 C 21.211663 6 25 9.752015 25 15.90625 C 25 21.259812 21.345504 26 15.96875 26 C 10.653588 26 7 21.262332 7 15.90625 C 6.999065 9.7941816 10.675332 6 15.96875 6 z M 15.96875 6.3125 C 14.926286 6.3125 13.972388 6.7189922 13.3125 7.375 C 12.652612 8.0310078 12.23568 8.8661654 11.9375 9.78125 C 11.34114 11.611419 11.21875 13.795618 11.21875 15.71875 C 11.21775 17.480134 11.28706 19.725715 11.84375 21.65625 C 12.122094 22.621517 12.517051 23.535966 13.1875 24.25 C 13.857949 24.964034 14.854102 25.437823 15.96875 25.4375 C 17.0907 25.4375 18.068186 24.959431 18.75 24.25 C 19.431814 23.540569 19.83869 22.620862 20.125 21.65625 C 20.697619 19.727025 20.78125 17.498259 20.78125 15.71875 C 20.78125 13.653939 20.622694 11.491271 20 9.6875 C 19.688653 8.7856144 19.265814 7.9419298 18.59375 7.3125 C 17.921686 6.6830702 16.997121 6.3125 15.96875 6.3125 z M 15.96875 8.3125 C 16.538879 8.3125 16.876533 8.4607423 17.21875 8.78125 C 17.560967 9.1017577 17.883222 9.6121356 18.125 10.3125 C 18.608556 11.713229 18.78125 13.755561 18.78125 15.71875 C 18.78125 17.438241 18.677631 19.547725 18.21875 21.09375 C 17.98931 21.866763 17.672998 22.4999 17.3125 22.875 C 16.952002 23.2501 16.5948 23.4375 15.96875 23.4375 C 15.360398 23.437677 15.008738 23.250403 14.65625 22.875 C 14.303762 22.499597 13.973906 21.870233 13.75 21.09375 C 13.302188 19.540785 13.217766 17.424366 13.21875 15.71875 C 13.21875 13.890882 13.37336 11.849831 13.84375 10.40625 C 14.078945 9.6844596 14.410794 9.1497109 14.75 8.8125 C 15.089206 8.4752891 15.413714 8.3125 15.96875 8.3125 z"/></svg>