<svg xmlns="http://www.w3.org/2000/svg" viewBox="0 0 32 32"><path d="M 1 5.25 C 3.935 10.816 9.11525 11.6835 15.40625 11.8125 C 19.11625 11.8895 27.28125 11.5735 27.28125 13.5625 C 27.28125 15.0545 21.84375 19.7315 21.84375 20.6875 C 21.84375 20.6875 25.61475 17.499 27.71875 15.625 C 29.82275 13.751 31 12.64025 31 11.53125 C 31 9.27425 22.27075 9.6875 15.21875 9.6875 C 8.16675 9.6875 4.313 8.353 1 5.25 z M 8.875 22.53125 C 7.7058131 22.53125 6.75 23.455814 6.75 24.625 C 6.75 25.794187 7.7058131 26.75 8.875 26.75 C 10.044187 26.75 10.96875 25.794187 10.96875 24.625 C 10.96875 23.455814 10.044187 22.53125 8.875 22.53125 z M 18.625 22.53125 C 17.455813 22.53125 16.53125 23.455814 16.53125 24.625 C 16.53125 25.794187 17.455813 26.75 18.625 26.75 C 19.794187 26.75 20.75 25.794187 20.75 24.625 C 20.75 23.455814 19.794187 22.53125 18.625 22.53125 z"/></svg>