<svg xmlns="http://www.w3.org/2000/svg" viewBox="0 0 32 32"><path d="M 5 5 L 5 9 L 6 9 L 6 23 L 5 23 L 5 27 L 9 27 L 9 26 L 23 26 L 23 27 L 27 27 L 27 23 L 26 23 L 26 9 L 27 9 L 27 5 L 23 5 L 23 6 L 9 6 L 9 5 L 5 5 z M 9 8 L 23 8 L 23 9 L 24 9 L 24 23 L 23 23 L 23 24 L 9 24 L 9 23 L 8 23 L 8 9 L 9 9 L 9 8 z M 10 10 L 10 11 L 10 17 L 10 18 L 11 18 L 14 18 L 14 21 L 14 22 L 15 22 L 21 22 L 22 22 L 22 21 L 22 15 L 22 14 L 21 14 L 18 14 L 18 11 L 18 10 L 17 10 L 11 10 L 10 10 z M 12 12 L 16 12 L 16 16 L 12 16 L 12 12 z M 18 16 L 20 16 L 20 20 L 16 20 L 16 18 L 17 18 L 18 18 L 18 17 L 18 16 z"/></svg>