<svg xmlns="http://www.w3.org/2000/svg" viewBox="0 0 32 32"><path d="M 19 4 L 15 5.9375 L 15 25.625 C 9.854 24.953 6.9375 22.60025 6.9375 19.65625 C 6.9375 16.89425 9.92 14.5545 14 13.8125 L 14 11.3125 C 7.723 12.1095 3 15.54125 3 19.65625 C 3 23.94825 7.521 27.47275 15 28.09375 L 19 26.21875 L 19 4 z M 20 11.375 L 20 13.90625 C 21.314372 14.187241 22.503557 14.645598 23.5 15.21875 L 21.375 16.40625 L 29 18.0625 L 28.46875 12.4375 L 26.4375 13.5625 C 24.6857 12.500621 22.466833 11.740457 20 11.375 z"/></svg>