<svg xmlns="http://www.w3.org/2000/svg" viewBox="0 0 32 32"><path d="M 16.84375 3.25 C 14.73975 3.25 14 5.03125 14 5.03125 C 14 5.03125 15.05625 4.375 16.40625 4.375 C 18.72225 4.375 20.125 6.1875 20.125 6.1875 C 20.125 6.1875 20.05975 3.25 16.84375 3.25 z M 14.875 5.53125 C 11.771 5.53125 10.15625 6.03125 10.15625 6.03125 C 10.15625 6.03125 11.7735 6.2945 12.9375 6.8125 C 8.6055 7.4165 6.53125 10.03125 6.53125 10.03125 C 6.53125 10.03125 8.13675 9.7485 8.71875 9.8125 C 8.1700227 10.125955 7.7518218 10.475196 7.40625 10.8125 C 7.3445707 10.81222 7.2718929 10.817357 7.21875 10.8125 C 6.51775 10.7485 6.2385 10.78975 6.1875 10.09375 C 6.1375 9.39675 6.021 9 5.375 9 C 4.729 9 3.8125 10.41575 3.8125 11.84375 C 3.8125 13.469925 4.184136 14.875254 7.03125 14.96875 C 7.0283358 14.998794 7.03125 15.09375 7.03125 15.09375 C 7.03125 15.09375 7.99 15.15375 8.25 15.71875 C 8.36975 15.75525 8.47725 15.823891 8.59375 15.90625 L 7.78125 16 C 7.5214594 15.675163 7.1554865 15.625 6.8125 15.625 C 6.7865 15.452 6.55175 15.09375 6.21875 15.09375 C 5.64675 15.09375 5.375 15.90625 5.375 15.90625 C 5.375 15.90625 4.125 16.282 4.125 17.625 C 4.125 19.174 5.51325 19.9375 6.40625 19.9375 L 6.40625 20.96875 C 6.1625937 20.755 5.92425 20.625 5.71875 20.625 C 5.50675 20.625 5.28975 20.6565 5.09375 20.6875 C 4.99475 20.5825 4.81375 20.40625 4.59375 20.40625 C 4.31775 20.40625 4.258 20.7385 4.25 20.9375 C 3.959 21.0595 3.6745 21.199 3.4375 21.375 C 3.3395 21.324 3.225 21.28125 3.125 21.28125 C 2.955 21.28125 2.9375 21.4585 2.9375 21.5625 C 2.9375 21.6145 2.9235 21.7105 2.9375 21.8125 C 2.7295 22.0315 2.5745 22.264 2.4375 22.5 C 2.3605 22.473 2.23025 22.4375 2.15625 22.4375 C 2.03325 22.4375 2 22.4775 2 22.5625 C 2.001 22.6255 2.07225 22.89975 2.15625 23.09375 C 2.09025 23.30175 2.0625 23.5055 2.0625 23.6875 C 2.0625 24.8395 3.89 26.75 5.75 26.75 C 5.9618814 26.75 7.1543103 26.545442 7.65625 25.59375 C 7.7663391 25.597008 13.269036 25.75 15.875 25.75 C 18.469431 25.75 24.148478 25.567743 24.3125 25.5625 C 24.804332 26.54055 26.035908 26.75 26.25 26.75 C 28.11 26.75 29.9375 24.8395 29.9375 23.6875 C 29.9375 23.5055 29.90975 23.333 29.84375 23.125 C 29.92875 22.93 30 22.6245 30 22.5625 C 30 22.4775 29.96675 22.4375 29.84375 22.4375 C 29.76875 22.4375 29.6395 22.473 29.5625 22.5 C 29.4255 22.264 29.2705 22.0315 29.0625 21.8125 C 29.0765 21.7095 29.0625 21.6145 29.0625 21.5625 C 29.0625 21.4585 29.045 21.28125 28.875 21.28125 C 28.775 21.28125 28.6605 21.324 28.5625 21.375 C 28.3255 21.199 28.041 21.0595 27.75 20.9375 C 27.742 20.7385 27.68325 20.40625 27.40625 20.40625 C 27.18625 20.40625 27.00525 20.5825 26.90625 20.6875 C 26.71025 20.6565 26.49325 20.65625 26.28125 20.65625 C 26.076 20.65625 25.837359 20.755 25.59375 20.96875 L 25.59375 19.9375 C 26.48675 19.9375 27.875 19.174 27.875 17.625 C 27.875 16.282 26.625 15.90625 26.625 15.90625 C 26.625 15.90625 26.35325 15.09375 25.78125 15.09375 C 25.44825 15.09375 25.2135 15.452 25.1875 15.625 C 24.832237 15.625 24.447699 15.672594 24.1875 16.03125 C 24.017655 16.015114 23.700857 15.9722 23.3125 15.9375 C 23.439812 15.851531 23.5775 15.77825 23.75 15.71875 C 24.116 15.15875 24.96875 15.125 24.96875 15.125 C 24.96875 15.125 24.968389 15.01096 24.96875 14.96875 C 27.90063 14.903309 28.25 13.456012 28.25 11.8125 C 28.251 10.3855 27.36475 9 26.71875 9 C 26.07275 9 25.926 9.3665 25.875 10.0625 C 25.824 10.7595 25.54475 10.7495 24.84375 10.8125 C 24.594912 10.835243 24.281473 10.806608 24.0625 10.78125 C 22.937736 8.2379666 20.442273 5.53125 14.875 5.53125 z M 16.0625 6.53125 C 18.1175 6.53125 19.78125 8.195 19.78125 10.25 C 19.78125 12.305 18.1175 13.96875 16.0625 13.96875 C 14.0075 13.96875 12.3125 12.305 12.3125 10.25 C 12.3125 8.195 14.0075 6.53125 16.0625 6.53125 z M 16.125 9.09375 C 15.783 9.09375 15.45425 9.136 15.15625 9.25 C 15.60325 9.414 15.90625 9.8355 15.90625 10.3125 C 15.90625 10.9345 15.38275 11.4375 14.71875 11.4375 C 14.26875 11.4375 13.86225 11.218 13.65625 10.875 C 13.60925 11.054 13.59375 11.21425 13.59375 11.40625 C 13.59375 12.69525 14.731 13.75 16.125 13.75 C 17.519 13.75 18.65625 12.69625 18.65625 11.40625 C 18.65725 10.11725 17.519 9.09375 16.125 9.09375 z M 5.46875 9.6875 C 5.70275 9.6875 5.70775 10.13325 5.71875 10.28125 C 5.72975 10.42925 5.8125 10.65625 5.8125 10.65625 C 4.6975 11.20925 4.4725 12.1085 4.3125 12.4375 C 4.3125 10.1225 5.23575 9.6875 5.46875 9.6875 z M 26.59375 9.71875 C 26.82775 9.71875 27.78125 10.1235 27.78125 12.4375 C 27.62125 12.1075 27.365 11.20825 26.25 10.65625 C 26.25 10.65625 26.33275 10.42925 26.34375 10.28125 C 26.35475 10.13225 26.35975 9.71875 26.59375 9.71875 z M 6.03125 11 C 6.14825 11.096 6.2525 11.25025 6.6875 11.28125 C 6.6875 11.28125 6.03125 12.23025 6.03125 13.28125 C 6.03125 14.33225 6.125 14.34375 6.125 14.34375 C 6.125 14.34375 4.8705 14.15025 4.5625 13.40625 C 4.6365 12.29125 5.09725 11.329 6.03125 11 z M 26.0625 11 C 26.9965 11.329 27.426 12.29225 27.5 13.40625 C 27.193 14.15025 25.9375 14.34375 25.9375 14.34375 C 25.9375 14.34375 26.03125 14.33225 26.03125 13.28125 C 26.03125 12.23025 25.375 11.28125 25.375 11.28125 C 25.81 11.24925 25.9465 11.095 26.0625 11 z M 24.28125 11.34375 L 24.90625 11.34375 C 24.90625 11.34375 25.65625 12.26425 25.65625 13.15625 C 25.65625 14.04825 25.5625 14.4375 25.5625 14.4375 L 24.9375 14.46875 C 24.89435 13.782415 24.763291 12.636298 24.28125 11.34375 z M 7.875 11.4375 L 7.78125 11.9375 L 7.75 12 C 7.3830552 12.873181 7.1849315 13.844014 7.09375 14.46875 L 6.53125 14.4375 C 6.53025 14.4375 6.40625 14.04825 6.40625 13.15625 C 6.40625 12.590173 6.681399 12.094277 6.90625 11.75 C 7.2281555 11.625059 7.569801 11.521684 7.875 11.4375 z M 17.75 14.9375 C 18.211 14.9375 19.0625 14.96875 19.0625 14.96875 C 19.0625 14.96875 19.125 15.46175 19.125 15.96875 C 19.125 16.24875 19.11375 16.5295 19.09375 16.6875 C 19.06775 16.8905 19.05875 17.09375 18.59375 17.09375 C 18.03975 17.09375 18.119 17.15625 17.75 17.15625 C 17.381 17.15625 16.431 17.16125 16.375 16.65625 C 16.313 16.10025 16.25 14.96875 16.25 14.96875 C 16.25 14.96875 17.289 14.9375 17.75 14.9375 z M 15.5625 14.96875 C 15.5625 14.96875 15.65625 15.757 15.65625 16.5 C 15.65625 17.243 15.668 16.60175 15.625 17.21875 C 15.602 17.54975 15.759 17.71875 14.25 17.71875 C 12.688 17.71875 12.6875 17.6275 12.6875 16.4375 C 12.6875 15.2475 12.78125 15 12.78125 15 C 12.78125 15 15.3385 15.00075 15.5625 14.96875 z M 19.75 14.96875 C 19.75 14.96875 21.5395 15.0345 21.6875 15.0625 C 21.6875 15.6075 21.35775 17.875 20.34375 17.875 C 19.99375 17.875 19.9835 16.6885 19.9375 16.1875 C 19.8825 15.5885 19.75 14.96875 19.75 14.96875 z M 12.125 15 C 12.125 15 12.021 16.4215 12 16.6875 C 11.979 16.9535 11.90625 17.47825 11.90625 17.53125 C 11.90625 17.58425 11.84725 17.84375 11.65625 17.84375 C 11.44325 17.84375 10.25 17.45925 10.25 15.78125 C 10.25 15.47325 10.3125 15.09375 10.3125 15.09375 L 12.125 15 z M 9.78125 16.46875 C 10.08025 17.81875 11.26075 18.40625 11.71875 18.40625 C 12.19775 18.40625 12.2735 17.9465 12.3125 17.6875 C 12.6115 18.2125 13.4775 18.25 14.0625 18.25 C 16.2705 18.25 16.24225 17.723 16.28125 17.5 C 16.28125 17.5 16.62375 17.71875 17.59375 17.71875 C 19.51175 17.71875 19.625 17.25 19.625 17.25 C 19.625 17.25 19.815 18.46875 20.375 18.46875 C 21.582 18.46875 22.125 16.5 22.125 16.5 C 22.220394 16.503574 22.358812 16.516859 22.625 16.53125 L 22.75 16.53125 C 23.005468 16.546234 23.236597 16.570383 23.4375 16.59375 C 23.411561 16.650789 23.375 16.699425 23.375 16.75 C 23.375 17.005 23.78125 17.1875 23.78125 17.1875 C 23.78125 17.1875 23.660513 17.282496 23.5625 17.40625 C 22.991906 17.929301 22.042656 18.822687 21.28125 19.46875 C 20.30925 20.29275 18.4755 21.65025 15.8125 22.40625 C 15.5565 22.35025 12.7975 21.2335 11.1875 19.9375 C 10.05799 19.027578 9.1209898 18.146783 8.53125 17.5625 C 8.4297187 17.347344 8.21875 17.1875 8.21875 17.1875 C 8.21875 17.1875 8.625 17.005 8.625 16.75 C 8.625 16.699425 8.5884394 16.650789 8.5625 16.59375 L 9.78125 16.46875 z M 23.65625 18.25 C 23.834435 18.38333 24.03125 18.4375 24.03125 18.4375 L 24.0625 18.59375 C 24.0625 18.59375 23.78125 18.68975 23.78125 18.96875 C 23.78125 19.34075 24.53125 19.46875 24.53125 19.46875 C 24.53125 19.46875 24.627534 19.648213 24.875 19.78125 L 24.875 21.875 C 24.466302 22.562026 24.174052 23.469355 24.125 24.4375 C 22.570808 23.358151 19.296977 22.26145 18.59375 22.03125 C 19.418378 21.609915 20.255843 21.099154 21.0625 20.5 C 22.042766 19.772028 22.988684 18.882852 23.65625 18.25 z M 8.3125 18.28125 C 8.7423826 18.679261 10.016491 19.838922 10.8125 20.5 C 11.318463 20.920455 12.247866 21.492994 13.1875 22 C 10.568914 22.829697 8.1322234 24.253214 7.875 24.40625 C 7.8207058 23.449792 7.5291686 22.554604 7.125 21.875 L 7.125 19.78125 C 7.372466 19.648213 7.46875 19.46875 7.46875 19.46875 C 7.46875 19.46875 8.21875 19.34075 8.21875 18.96875 C 8.21875 18.68975 7.9375 18.59375 7.9375 18.59375 L 7.96875 18.4375 C 7.96875 18.4375 8.1431447 18.39419 8.3125 18.28125 z M 5.6875 21.9375 C 6.9245 21.9375 7.59375 24.2835 7.59375 24.8125 C 7.59375 25.8325 6.4615 26.4375 5.6875 26.4375 C 4.5355 26.4375 2.75 25.05125 2.75 24.53125 C 2.75 23.28525 4.3755 21.9375 5.6875 21.9375 z M 26.3125 21.9375 C 27.6245 21.9375 29.25 23.28525 29.25 24.53125 C 29.25 25.05125 27.4645 26.4375 26.3125 26.4375 C 25.5385 26.4375 24.40625 25.8325 24.40625 24.8125 C 24.40625 24.2835 25.0755 21.9375 26.3125 21.9375 z M 5.71875 22.34375 C 5.02075 22.34375 3.21875 23.5695 3.21875 24.4375 C 3.21875 25.1925 4.20275 25.25 4.34375 25.25 C 4.83475 25.251 6.625 24.4195 6.625 23.4375 C 6.625 23.2205 6.41675 22.34375 5.71875 22.34375 z M 17.9375 22.34375 C 18.310631 22.480352 20.02925 23.10875 20.84375 23.46875 C 21.74875 23.86875 23.53125 24.9375 23.53125 24.9375 C 23.53125 24.9375 19.242 25.09375 16 25.09375 C 12.758 25.09375 8.53125 24.90625 8.53125 24.90625 C 10.343531 23.691543 13.873736 22.461698 14.03125 22.40625 C 14.767028 22.765099 15.461067 23.090625 15.84375 23.15625 C 16.449756 22.980838 17.171017 22.697603 17.9375 22.34375 z M 26.28125 22.34375 C 25.58325 22.34375 25.375 23.2205 25.375 23.4375 C 25.375 24.4195 27.16525 25.251 27.65625 25.25 C 27.79725 25.25 28.78125 25.1925 28.78125 24.4375 C 28.78125 23.5695 26.97925 22.34375 26.28125 22.34375 z M 6.8125 24.375 C 6.4445 24.375 5.3125 25.15075 5.3125 25.59375 C 5.3125 26.03675 5.8925 26.09375 6.0625 26.09375 C 6.2325 26.09375 7.21875 25.71025 7.21875 25.03125 C 7.21875 25.03125 7.1805 24.375 6.8125 24.375 z M 25.1875 24.375 C 24.8195 24.375 24.78125 25.03125 24.78125 25.03125 C 24.78125 25.71025 25.7675 26.09375 25.9375 26.09375 C 26.1075 26.09375 26.6875 26.03675 26.6875 25.59375 C 26.6875 25.15075 25.5555 24.375 25.1875 24.375 z"/></svg>