<svg xmlns="http://www.w3.org/2000/svg" viewBox="0 0 32 32"><path d="M 22 3.59375 L 18 7.5625 L 15.71875 5.28125 L 14.28125 6.71875 L 15.03125 7.46875 L 9.90625 12.59375 C 8.693771 13.806229 8.693771 15.787521 9.90625 17 L 11.75 18.84375 L 4.28125 26.28125 L 5.71875 27.71875 L 13.15625 20.25 L 15 22.09375 C 16.212479 23.306229 18.193771 23.306229 19.40625 22.09375 L 24.53125 16.96875 L 25.28125 17.71875 L 26.71875 16.28125 L 24.4375 14 L 28.40625 10 L 27 8.59375 L 23 12.5625 L 19.4375 9 L 23.40625 5 L 22 3.59375 z M 16.4375 8.875 L 23.125 15.5625 L 18 20.6875 C 17.612479 21.075021 16.793771 21.075021 16.40625 20.6875 L 11.3125 15.59375 C 10.924979 15.206229 10.924979 14.387521 11.3125 14 L 16.4375 8.875 z"/></svg>