<svg xmlns="http://www.w3.org/2000/svg" viewBox="0 0 32 32"><path d="M 17 3 C 14.790196 3 13 4.7901961 13 7 L 8 7 L 7 7 L 7 8 L 7 12 C 4.7901961 12 3 13.790196 3 16 C 3 18.209804 4.7901961 20 7 20 L 7 24 L 7 25 L 8 25 L 13 25 C 13 27.209804 14.790196 29 17 29 C 19.209804 29 21 27.209804 21 25 L 26 25 L 27 25 L 27 24 L 27 19 L 27 18 L 26 18 L 25 18 C 23.809804 18 23 17.190196 23 16 C 23 14.809804 23.809804 14 25 14 L 26 14 L 27 14 L 27 13 L 27 8 L 27 7 L 26 7 L 21 7 C 21 4.7901961 19.209804 3 17 3 z M 17 5 C 18.190196 5 19 5.8098039 19 7 L 19 8 L 19 9 L 20 9 L 25 9 L 25 12 C 22.790196 12 21 13.790196 21 16 C 21 18.209804 22.790196 20 25 20 L 25 23 L 20 23 L 19 23 L 19 24 L 19 25 C 19 26.190196 18.190196 27 17 27 C 15.809804 27 15 26.190196 15 25 L 15 24 L 15 23 L 14 23 L 9 23 L 9 19 L 9 18 L 8 18 L 7 18 C 5.8098039 18 5 17.190196 5 16 C 5 14.809804 5.8098039 14 7 14 L 8 14 L 9 14 L 9 13 L 9 9 L 14 9 L 15 9 L 15 8 L 15 7 C 15 5.8098039 15.809804 5 17 5 z"/></svg>