<svg xmlns="http://www.w3.org/2000/svg" viewBox="0 0 32 32"><path d="M16,4C9.373,4,4,9.373,4,16c0,5.084,3.163,9.426,7.627,11.174c-0.105-0.949-0.2-2.406,0.042-3.442 c0.218-0.936,1.407-5.965,1.407-5.965s-0.359-0.719-0.359-1.781c0-1.669,0.967-2.914,2.171-2.914c1.024,0,1.518,0.769,1.518,1.69 c0,1.03-0.655,2.569-0.994,3.995c-0.283,1.195,0.599,2.169,1.777,2.169c2.133,0,3.772-2.249,3.772-5.495 c0-2.873-2.064-4.882-5.012-4.882c-3.414,0-5.418,2.561-5.418,5.208c0,1.031,0.397,2.137,0.893,2.739 c0.098,0.119,0.112,0.223,0.083,0.344c-0.091,0.379-0.293,1.194-0.333,1.361c-0.052,0.22-0.174,0.266-0.401,0.16 c-1.499-0.698-2.436-2.889-2.436-4.649c0-3.785,2.75-7.262,7.929-7.262c4.163,0,7.398,2.966,7.398,6.931 c0,4.136-2.608,7.464-6.227,7.464c-1.216,0-2.359-0.632-2.75-1.378c0,0-0.602,2.291-0.748,2.853 c-0.271,1.042-1.002,2.349-1.492,3.146C13.57,27.812,14.763,28,16,28c6.627,0,12-5.373,12-12C28,9.373,22.627,4,16,4z"/></svg>