<svg xmlns="http://www.w3.org/2000/svg" viewBox="0 0 32 32"><path d="M 8.65625 3 C 8.1327819 3 7.6152588 3.189043 7.1875 3.53125 L 7.125 3.5625 L 7.09375 3.59375 L 3.96875 6.8125 L 4 6.84375 C 3.0365432 7.73509 2.7372965 9.0666437 3.15625 10.21875 C 3.1584 10.22495 3.15408 10.24379 3.15625 10.25 C 4.0032406 12.677572 6.1733584 17.360858 10.40625 21.59375 C 14.65572 25.84322 19.403183 27.92543 21.75 28.84375 L 21.78125 28.84375 C 22.997478 29.249159 24.311802 28.96042 25.25 28.15625 L 25.28125 28.125 L 25.3125 28.09375 L 28.40625 25 C 29.236233 24.170017 29.236233 22.736233 28.40625 21.90625 L 24.34375 17.84375 L 24.3125 17.78125 C 23.482517 16.951267 22.017483 16.951267 21.1875 17.78125 L 21.15625 17.8125 L 19.1875 19.78125 C 18.464474 19.43545 16.741138 18.541257 15.09375 16.96875 C 13.458085 15.407433 12.619959 13.61108 12.3125 12.90625 L 14.3125 10.90625 C 15.154265 10.064485 15.167132 8.6695101 14.28125 7.84375 L 14.3125 7.8125 L 14.21875 7.71875 L 10.21875 3.59375 L 10.1875 3.5625 L 10.125 3.53125 C 9.6972412 3.189043 9.1797181 3 8.65625 3 z M 8.65625 5 C 8.7295044 5 8.8027588 5.035957 8.875 5.09375 L 12.875 9.1875 L 12.9375 9.25 L 12.96875 9.28125 C 12.96085 9.27494 13.02913 9.377124 12.90625 9.5 L 10.40625 12 L 9.9375 12.4375 L 10.15625 13.0625 C 10.15625 13.0625 11.306566 16.13496 13.71875 18.4375 L 13.9375 18.625 C 16.260558 20.74677 19 21.90625 19 21.90625 L 19.625 22.1875 L 20.09375 21.71875 L 22.59375 19.21875 C 22.763767 19.048733 22.736233 19.048733 22.90625 19.21875 L 27 23.3125 C 27.170017 23.482517 27.170017 23.423733 27 23.59375 L 23.9375 26.65625 C 23.475698 27.05208 22.990022 27.132091 22.40625 26.9375 C 20.138957 26.047527 15.736488 24.111488 11.8125 20.1875 C 7.8562209 16.231221 5.7887768 11.74039 5.03125 9.5625 C 4.8787539 9.1558438 4.9891373 8.5539537 5.34375 8.25 L 5.375 8.21875 L 5.40625 8.1875 L 8.4375 5.09375 C 8.5097413 5.035957 8.5829956 5 8.65625 5 z"/></svg>