<svg xmlns="http://www.w3.org/2000/svg" viewBox="0 0 32 32"><path d="M 13.46875 4 C 12.623014 4 11.860048 4.270649 11.125 4.59375 L 8 4.59375 L 7 4.59375 L 7 5.59375 L 7 19.78125 L 7 21 L 8.1875 20.75 L 11.78125 20.03125 L 12.59375 19.875 L 12.59375 19.0625 L 12.59375 16.71875 C 12.733862 16.740735 12.867268 16.80486 13 16.84375 L 13 27 L 13 28.21875 L 14.1875 27.96875 L 17.78125 27.25 L 18.59375 27.09375 L 18.59375 26.28125 L 18.59375 23.9375 C 18.893787 23.98458 19.156906 24.125 19.46875 24.125 C 22.895913 24.125 25.65625 21.178599 25.65625 17.65625 C 25.65625 14.177821 22.961437 11.290186 19.59375 11.21875 C 19.624066 10.961446 19.65625 10.702322 19.65625 10.4375 C 19.65508 6.9145013 16.895913 4 13.46875 4 z M 13.46875 6 C 15.757587 6 17.65542 7.9404987 17.65625 10.4375 C 17.65625 12.933151 15.757587 14.90625 13.46875 14.90625 C 12.935683 14.90625 12.437296 14.787576 11.96875 14.59375 L 10.59375 14.03125 L 10.59375 15.53125 L 10.59375 18.21875 L 9 18.5625 L 9 6.59375 L 11.125 6.59375 L 11.375 6.59375 L 11.59375 6.46875 C 12.159642 6.16373 12.792175 6 13.46875 6 z M 12.625 6.78125 C 12.068149 6.78125 11.547691 6.9576978 11.09375 7.21875 L 10.59375 7.5 L 10.59375 8.0625 L 10.59375 12.75 L 10.59375 13.3125 L 11.09375 13.59375 C 11.547677 13.853963 12.068667 14.03125 12.625 14.03125 C 14.511245 14.03125 15.9375 12.327166 15.9375 10.40625 C 15.9375 8.485334 14.511768 6.78125 12.625 6.78125 z M 12.59375 8.78125 C 12.60421 8.7809574 12.61444 8.78125 12.625 8.78125 C 13.286232 8.78125 13.9375 9.439166 13.9375 10.40625 C 13.9375 11.373334 13.286755 12.03125 12.625 12.03125 C 12.61452 12.03125 12.60415 12.031542 12.59375 12.03125 L 12.59375 8.78125 z M 19.46875 13.21875 C 21.757587 13.21875 23.65625 15.160599 23.65625 17.65625 C 23.65625 20.151901 21.757587 22.125 19.46875 22.125 C 18.935683 22.125 18.437296 22.006326 17.96875 21.8125 L 16.59375 21.25 L 16.59375 22.75 L 16.59375 25.4375 L 15 25.78125 L 15 16.71875 C 15.561126 16.567857 16.10619 16.330577 16.59375 16.03125 L 16.59375 19.96875 L 16.59375 20.53125 L 17.09375 20.8125 C 17.547677 21.072713 18.068667 21.25 18.625 21.25 C 20.511245 21.25 21.9375 19.545916 21.9375 17.625 C 21.9375 15.704084 20.511768 14 18.625 14 C 18.774881 13.763955 18.88024 13.505707 19 13.25 C 19.001811 13.246133 19.029446 13.253871 19.03125 13.25 C 19.170878 13.23057 19.32305 13.21875 19.46875 13.21875 z M 18.59375 16 C 18.60421 15.999707 18.61444 16 18.625 16 C 19.286232 16 19.9375 16.657916 19.9375 17.625 C 19.9375 18.592084 19.286755 19.25 18.625 19.25 C 18.61452 19.25 18.60414 19.250292 18.59375 19.25 L 18.59375 16 z"/></svg>