<svg xmlns="http://www.w3.org/2000/svg" viewBox="0 0 32 32"><path d="M 15.09375 4 C 15.09375 4 13.885 5.66225 14.25 8.28125 C 14.527395 10.26192 16.180627 11.503926 17.09375 12.03125 C 17.123524 12.983906 17.102597 13.957525 17 14.9375 C 16.539099 13.811588 15.506627 11.845474 13.59375 11.15625 C 11.73475 10.48625 9.375 11.34375 9.375 11.34375 C 9.692 13.66175 11.2105 15.46225 13.6875 15.90625 C 15.273438 16.190941 16.331722 16.00724 16.875 15.875 C 16.62467 17.547237 16.165565 19.199594 15.5 20.6875 C 15.139766 19.583125 13.99 17.3185 10.65625 16.9375 C 8.70025 16.7135 6.84375 17.9375 6.84375 17.9375 C 6.84375 17.9375 8.034 22.21775 11.875 22.21875 C 13.434447 22.21875 14.466189 21.864198 15.0625 21.59375 C 15.029627 21.65531 15.002448 21.720411 14.96875 21.78125 C 13.261393 24.863751 10.556988 27 6.46875 27 L 6.46875 28 C 10.915512 28 14.010107 25.560499 15.84375 22.25 C 15.956095 22.04717 16.052668 21.834079 16.15625 21.625 C 16.431183 21.833604 17.91436 22.875 20.84375 22.875 C 24.08275 22.875 25.53125 19.21875 25.53125 19.21875 C 25.53125 19.21875 23.9145 17.875 21.4375 17.875 C 19.0924 17.875 17.338082 19.740791 16.53125 20.8125 C 17.176288 19.305952 17.627251 17.680654 17.875 16.03125 C 18.050344 16.064468 21.394665 16.667752 23.28125 14.75 C 25.21825 12.781 24.90625 10.96875 24.90625 10.96875 C 24.90625 10.96875 21.649 10.502 19.875 12.125 C 18.756 13.1495 18.168313 14.846594 17.9375 15.625 C 18.112083 14.297471 18.151918 12.972148 18.09375 11.6875 C 18.448975 11.032109 18.9375 9.9094194 18.9375 8.4375 C 18.9375 5.2425 15.09375 4 15.09375 4 z"/></svg>