<svg xmlns="http://www.w3.org/2000/svg" viewBox="0 0 32 32"><path d="M 15 3 C 13.74096 3 12.84816 3.8903886 12.40625 5 L 10 5 L 6 5 L 5 5 L 5 6 L 5 27 L 5 28 L 6 28 L 13 28 L 13 29 L 13 30 L 14 30 L 26 30 L 27 30 L 27 29 L 27 15 L 27 14 L 26 14 L 25 14 L 25 6 L 25 5 L 24 5 L 21 5 L 20 5 L 17.59375 5 C 17.15184 3.8903886 16.25904 3 15 3 z M 15 5 C 15.554545 5 16 5.4454545 16 6 L 16 7 L 17 7 L 19 7 L 19 9 L 11 9 L 11 7 L 13 7 L 14 7 L 14 6 C 14 5.4454545 14.445455 5 15 5 z M 7 7 L 9 7 L 9 10 L 9 11 L 10 11 L 20 11 L 21 11 L 21 10 L 21 7 L 23 7 L 23 14 L 14 14 L 13 14 L 13 15 L 13 26 L 7 26 L 7 7 z M 15 16 L 25 16 L 25 28 L 15 28 L 15 16 z"/></svg>