<svg xmlns="http://www.w3.org/2000/svg" viewBox="0 0 32 32"><path d="M 16 3 C 8.8321429 3 3 8.8321429 3 16 C 3 23.167857 8.8321429 29 16 29 C 23.167857 29 29 23.167857 29 16 C 29 8.8321429 23.167857 3 16 3 z M 14.875 5.0625 C 14.916024 5.0583495 14.958843 5.0662007 15 5.0625 L 15 16 L 15 16.40625 L 15.28125 16.71875 L 23.0625 24.46875 C 21.154621 26.061987 18.687118 27 16 27 C 9.9130231 27 5 22.086977 5 16 C 5 10.293459 9.3197247 5.624552 14.875 5.0625 z M 17 5.0625 C 22.284136 5.5376347 26.462365 9.7158645 26.9375 15 L 17 15 L 17 5.0625 z M 18.4375 17 L 26.9375 17 C 26.731229 19.294013 25.861406 21.394814 24.46875 23.0625 L 18.4375 17 z"/></svg>