<svg xmlns="http://www.w3.org/2000/svg" viewBox="0 0 32 32"><path d="M 30.1875 1.4375 C 29.1795 3.0925 27.48 7.57075 19.75 9.71875 L 19.75 8.625 C 18.781 8.733 18.43175 7.522 18.09375 7.375 C 17.32375 8.165 16.86525 8.8895 16.03125 9.4375 C 15.02425 10.0995 13.868 10.32575 13.625 11.21875 C 13.915 11.10775 14.87475 10.59375 17.46875 10.59375 C 19.12375 10.59375 19.107 10.772 20 11.875 C 20.304 11.794 20.3455 11.6355 20.4375 11.4375 C 19.9635 10.5915 19.72825 10.5345 19.78125 10.1875 C 22.44525 9.9645 28.9765 7.9055 30.1875 1.4375 z M 17.03125 11.03125 C 15.13125 11.03125 14.58625 11.2455 14.53125 11.3125 C 14.41525 11.7495 14.9485 12.7125 13.9375 13.9375 C 14.2765 14.0325 14.61675 14.11975 14.96875 14.21875 C 14.92675 14.29475 14.8125 14.49425 14.8125 14.78125 C 14.8125 15.85425 17.09375 14.877 17.09375 16.625 C 17.09375 17.188 15.56575 19.75 14.09375 19.75 C 12.69675 18.546 11.15475 16.98225 11.34375 16.28125 C 12.16075 16.09125 13.9765 15.72825 14.1875 15.65625 C 14.4375 15.57125 14.723 15.2795 14.625 14.9375 C 14.528 14.5955 14.20675 14.3565 13.46875 14.5625 C 13.27675 14.6155 11.34375 15.03125 11.34375 15.03125 C 10.75275 13.81725 10.4085 14.43825 9.9375 14.53125 C 9.2505 14.66625 8.5365 14.8365 8.9375 15.5625 C 8.7165 15.6165 1.82475 17.13325 1.71875 17.15625 C 1.51975 17.19925 0.89425 17.4305 1.03125 17.9375 C 1.16225 18.4195 1.55025 18.41925 1.65625 18.40625 C 2.06725 18.35725 9.373 16.7075 9.5 16.6875 C 9.625 17.0415 10.15125 17.17475 10.78125 18.09375 C 10.95925 18.35275 13.3145 21.71875 13.9375 21.71875 C 16.2235 21.71875 18.4375 19.09375 18.4375 19.09375 C 18.3945 19.98975 16.59375 21.5 16.59375 21.5 C 16.59375 21.905 16.6675 23.43625 16.6875 23.65625 C 16.7405 23.65625 17.24175 23.8125 18.59375 23.8125 C 19.94575 23.8125 20.84375 23.46875 20.84375 23.46875 C 20.84375 23.46875 21.34375 21.6125 21.34375 20.4375 C 21.34375 17.5395 20.55225 17.372 19.28125 16.25 C 19.28125 16.25 19.44525 16.14225 19.65625 16.15625 C 24.19025 16.45225 22.34175 24.91725 25.46875 28.40625 C 25.56575 28.37425 29.842 26.66625 31 25.90625 C 25.431 21.39725 25.303 15.46675 19.125 15.46875 C 19.125 14.00075 20.6235 15.7515 20.9375 13.5625 C 20.6815 13.6885 20.44875 13.79225 20.21875 13.90625 C 19.23475 11.38525 19.47625 11.03125 17.03125 11.03125 z M 12.90625 13.90625 C 12.66225 13.91125 12.45175 13.97925 12.21875 14.03125 C 12.11775 14.05425 12.02325 14.092 11.90625 14.125 C 11.96025 14.217 12.18275 14.6275 12.21875 14.6875 C 12.70075 14.5845 13.16525 14.48 13.65625 14.375 C 13.46125 14.286 13.09125 13.90225 12.90625 13.90625 z M 13.71875 15.90625 C 13.47175 15.96725 13.241 16.03375 13 16.09375 C 13.04 16.16875 14.13125 18.96275 14.28125 19.34375 C 14.66025 19.09575 15.04025 18.865 15.40625 18.625 C 15.18625 18.311 13.77075 15.95825 13.71875 15.90625 z M 20.8125 23.9375 C 20.4525 23.9555 17.705 24.295 17.5 24.375 L 17.625 25.125 C 17.997 25.069 20.39375 24.59825 20.96875 24.40625 C 20.94675 24.31725 20.9565 24.0395 20.8125 23.9375 z M 16.6875 24.125 C 16.5885 24.464 16.6455 25.30625 16.6875 25.53125 C 16.7865 25.51225 17.16025 25.421 17.28125 25.375 C 17.22925 24.962 17.178 24.543 17.125 24.125 L 16.6875 24.125 z M 21.125 24.90625 C 18.496 25.01825 16.8075 25.878 16.6875 26 C 16.6475 26.193 17.02925 28.14525 17.03125 28.40625 C 20.59725 28.91425 22.5845 27.918 22.6875 27.875 C 22.5605 27.461 21.244 24.90125 21.125 24.90625 z"/></svg>