<svg xmlns="http://www.w3.org/2000/svg" viewBox="0 0 32 32"><path d="M 12.5 5 C 11.431336 5 10.498494 5.6083586 9.90625 6.4375 C 9.3140062 7.2666414 9 8.3404874 9 9.5 C 9 10.659513 9.3140061 11.733359 9.90625 12.5625 C 10.498494 13.391641 11.431336 14 12.5 14 C 13.568664 14 14.501506 13.391641 15.09375 12.5625 C 15.685994 11.733359 16 10.659513 16 9.5 C 16 8.3404874 15.685994 7.2666414 15.09375 6.4375 C 14.501506 5.6083586 13.568664 5 12.5 5 z M 16 9.5 C 16 10.659513 16.314006 11.733359 16.90625 12.5625 C 17.498494 13.391641 18.431336 14 19.5 14 C 20.568664 14 21.501506 13.391641 22.09375 12.5625 C 22.685994 11.733359 23 10.659513 23 9.5 C 23 8.3404874 22.685994 7.2666414 22.09375 6.4375 C 21.501506 5.6083586 20.568664 5 19.5 5 C 18.431336 5 17.498494 5.6083586 16.90625 6.4375 C 16.314006 7.2666414 16 8.3404874 16 9.5 z M 12.5 7 C 12.812048 7 13.156172 7.1561405 13.46875 7.59375 C 13.781328 8.0313595 14 8.726516 14 9.5 C 14 10.273484 13.781328 10.968641 13.46875 11.40625 C 13.156172 11.843859 12.812048 12 12.5 12 C 12.187952 12 11.843828 11.843859 11.53125 11.40625 C 11.218672 10.968641 11 10.273484 11 9.5 C 11 8.726516 11.218672 8.0313595 11.53125 7.59375 C 11.843828 7.1561405 12.187952 7 12.5 7 z M 19.5 7 C 19.812048 7 20.156172 7.1561405 20.46875 7.59375 C 20.781328 8.0313595 21 8.726516 21 9.5 C 21 10.273484 20.781328 10.968641 20.46875 11.40625 C 20.156172 11.843859 19.812048 12 19.5 12 C 19.187952 12 18.843828 11.843859 18.53125 11.40625 C 18.218672 10.968641 18 10.273484 18 9.5 C 18 8.726516 18.218672 8.0313595 18.53125 7.59375 C 18.843828 7.1561405 19.187952 7 19.5 7 z M 7.5 12 C 6.4313361 12 5.4984939 12.608359 4.90625 13.4375 C 4.3140061 14.266641 4 15.340487 4 16.5 C 4 17.659513 4.3140061 18.733359 4.90625 19.5625 C 5.4984939 20.391641 6.4313361 21 7.5 21 C 8.5686639 21 9.5015061 20.391641 10.09375 19.5625 C 10.685994 18.733359 11 17.659513 11 16.5 C 11 15.340487 10.685994 14.266641 10.09375 13.4375 C 9.5015061 12.608359 8.5686639 12 7.5 12 z M 24.5 12 C 23.431336 12 22.498494 12.608359 21.90625 13.4375 C 21.314006 14.266641 21 15.340487 21 16.5 C 21 17.659513 21.314006 18.733359 21.90625 19.5625 C 22.498494 20.391641 23.431336 21 24.5 21 C 25.568664 21 26.501506 20.391641 27.09375 19.5625 C 27.685994 18.733359 28 17.659513 28 16.5 C 28 15.340487 27.685994 14.266641 27.09375 13.4375 C 26.501506 12.608359 25.568664 12 24.5 12 z M 7.5 14 C 7.812048 14 8.1561718 14.156141 8.46875 14.59375 C 8.7813282 15.031359 9 15.726516 9 16.5 C 9 17.273484 8.7813282 17.968641 8.46875 18.40625 C 8.1561718 18.843859 7.812048 19 7.5 19 C 7.187952 19 6.8438282 18.843859 6.53125 18.40625 C 6.2186718 17.968641 6 17.273484 6 16.5 C 6 15.726516 6.2186718 15.031359 6.53125 14.59375 C 6.8438282 14.156141 7.187952 14 7.5 14 z M 24.5 14 C 24.812048 14 25.156172 14.156141 25.46875 14.59375 C 25.781328 15.031359 26 15.726516 26 16.5 C 26 17.273484 25.781328 17.968641 25.46875 18.40625 C 25.156172 18.843859 24.812048 19 24.5 19 C 24.187952 19 23.843828 18.843859 23.53125 18.40625 C 23.218672 17.968641 23 17.273484 23 16.5 C 23 15.726516 23.218672 15.031359 23.53125 14.59375 C 23.843828 14.156141 24.187952 14 24.5 14 z M 16 16 C 14.666667 16 13.736955 16.865491 13.28125 17.625 C 12.825545 18.384509 12.545548 19.016952 12.28125 19.28125 C 12.126672 19.435828 11.161949 19.799737 10.15625 20.3125 C 9.6534005 20.568881 9.1462048 20.913463 8.71875 21.4375 C 8.2912952 21.961537 8 22.686573 8 23.5 C 8 25.421188 9.5788117 27 11.5 27 C 12.366601 27 13.269683 26.721082 14.15625 26.46875 C 15.042817 26.216418 16.000497 26 16 26 C 15.999503 26 16.957183 26.216418 17.84375 26.46875 C 18.730317 26.721082 19.633399 27 20.5 27 C 22.421188 27 24 25.421188 24 23.5 C 24 22.706224 23.707065 21.980728 23.28125 21.46875 C 22.855435 20.956772 22.34341 20.640742 21.84375 20.375 C 20.84443 19.843516 19.861007 19.423507 19.71875 19.28125 C 19.479748 19.042248 19.210296 18.388722 18.75 17.625 C 18.289704 16.861278 17.339 16 16 16 z M 16 18 C 16.661 18 16.733046 18.161472 17.03125 18.65625 C 17.329454 19.151028 17.554252 19.991752 18.28125 20.71875 C 19.104993 21.542493 20.14707 21.721234 20.90625 22.125 C 21.28584 22.326883 21.576753 22.541696 21.75 22.75 C 21.923247 22.958304 22 23.147276 22 23.5 C 22 24.340812 21.340812 25 20.5 25 C 20.209601 25 19.276433 24.778918 18.40625 24.53125 C 17.536067 24.283582 16.816497 24 16 24 C 15.183503 24 14.463933 24.283582 13.59375 24.53125 C 12.723567 24.778918 11.790399 25 11.5 25 C 10.659188 25 10 24.340812 10 23.5 C 10 23.097927 10.08371 22.891369 10.25 22.6875 C 10.416295 22.483631 10.721599 22.283494 11.09375 22.09375 C 11.838051 21.714263 12.873328 21.564172 13.71875 20.71875 C 14.454452 19.983048 14.674455 19.115491 14.96875 18.625 C 15.263045 18.134509 15.333333 18 16 18 z"/></svg>