<svg xmlns="http://www.w3.org/2000/svg" viewBox="0 0 32 32"><path d="M 9 4 L 9 5 L 9 11 L 7 11 C 5.3550302 11 4 12.35503 4 14 L 4 23 L 4 24 L 5 24 L 9 24 L 9 27 L 9 28 L 10 28 L 22 28 L 23 28 L 23 27 L 23 24 L 27 24 L 28 24 L 28 23 L 28 14 C 28 12.35503 26.64497 11 25 11 L 23 11 L 23 5 L 23 4 L 22 4 L 10 4 L 9 4 z M 11 6 L 21 6 L 21 11 L 11 11 L 11 6 z M 7 13 L 25 13 C 25.56503 13 26 13.43497 26 14 L 26 22 L 23 22 L 23 19 L 23 18 L 22 18 L 10 18 L 9 18 L 9 19 L 9 22 L 6 22 L 6 14 C 6 13.43497 6.4349698 13 7 13 z M 8 14 C 7.4477153 14 7 14.447715 7 15 C 7 15.552285 7.4477153 16 8 16 C 8.5522847 16 9 15.552285 9 15 C 9 14.447715 8.5522847 14 8 14 z M 11 20 L 21 20 L 21 26 L 11 26 L 11 20 z"/></svg>