<svg xmlns="http://www.w3.org/2000/svg" viewBox="0 0 32 32"><path d="M 21 4 C 19.610233 4 18.242073 4.5391769 17.1875 5.59375 L 7.8125 14.96875 C 4.8402801 17.94097 4.8405014 22.776854 7.8125 25.75 C 10.78472 28.72222 15.620604 28.721999 18.59375 25.75 L 24.84375 19.5 L 23.4375 18.09375 L 17.1875 24.34375 C 14.978646 26.551751 11.42653 26.55153 9.21875 24.34375 C 7.0107486 22.134896 7.0109699 18.58278 9.21875 16.375 L 18.59375 7 C 19.938604 5.6551461 22.092646 5.6551461 23.4375 7 C 24.782354 8.3448539 24.782354 10.498896 23.4375 11.84375 L 14.0625 21.21875 C 13.580646 21.700047 12.824382 21.699382 12.34375 21.21875 C 11.862453 20.736896 11.863118 19.980632 12.34375 19.5 L 20.9375 10.90625 L 19.53125 9.5 L 10.9375 18.09375 C 9.6921325 19.339118 9.6927965 21.378854 10.9375 22.625 C 12.182868 23.870368 14.222604 23.869703 15.46875 22.625 L 24.84375 13.25 C 26.952896 11.140854 26.952896 7.7028961 24.84375 5.59375 C 23.789177 4.5391769 22.389767 4 21 4 z"/></svg>