<svg xmlns="http://www.w3.org/2000/svg" viewBox="0 0 32 32"><path d="M 24.8125 4.03125 C 23.975609 4.03125 23.133324 4.366676 22.5 5 L 9.8125 17.5 L 9.1875 18.09375 C 8.4384567 18.233668 7.7211068 18.602542 7.15625 19.21875 C 6.3232106 20.12752 6.1611002 21.241334 5.84375 22.4375 C 5.5263998 23.633666 5.1234834 24.963621 4.15625 26.4375 L 3.15625 28 L 5 28 C 8.9148148 28 11.494649 26.130351 12.8125 24.8125 L 12.84375 24.78125 C 13.446302 24.165307 13.782128 23.38683 13.90625 22.59375 L 14.40625 22.125 L 27.09375 9.625 L 27.09375 9.59375 C 28.360398 8.327102 28.360398 6.266648 27.09375 5 C 26.460426 4.366676 25.649391 4.03125 24.8125 4.03125 z M 24.8125 6 C 25.125609 6 25.420824 6.139574 25.6875 6.40625 C 26.220852 6.939602 26.220852 7.654148 25.6875 8.1875 L 16.65625 17.125 L 14.84375 15.3125 L 23.90625 6.40625 C 24.172926 6.139574 24.499391 6 24.8125 6 z M 13.40625 16.71875 L 15.21875 18.53125 L 13.71875 20 L 11.90625 18.1875 L 13.40625 16.71875 z M 9.96875 20.03125 C 10.474482 20.04557 11.020166 20.242444 11.4375 20.625 C 12.21468 21.337415 12.233055 22.579445 11.40625 23.40625 C 10.537351 24.275149 8.9990436 25.391273 6.75 25.8125 C 7.2314875 24.763227 7.5652808 23.782788 7.78125 22.96875 C 8.1138998 21.714916 8.3580394 20.85373 8.625 20.5625 C 8.9718576 20.18411 9.4630176 20.016934 9.96875 20.03125 z"/></svg>