<svg xmlns="http://www.w3.org/2000/svg" viewBox="0 0 32 32"><path d="M16,5.887c6.085,0,6.394,5.437,6.732,6.507c0,0,0.478,0.535,0.592,1.352c0.073,0.527-0.225,1.127-0.225,1.127 s1.944,2.62,1.944,4.676c0,1.287-0.38,1.95-0.822,1.95c-0.442,0-1.094-1.358-1.094-1.358s-1.014,2.169-1.521,2.479 c-0.507,0.31,1.831,0.648,1.831,1.662c0,1.014-1.859,1.465-3.38,1.465c-1.521,0-3.944-0.789-3.944-0.789l-0.873-0.028 c0,0-0.676,0.958-3.465,0.958c-2.789,0-4-0.761-4-1.662c0-1.215,1.775-1.38,1.775-1.38s-1.132-0.313-2.091-2.994 c0,0-0.664,1.445-1.6,1.445c0,0-0.394-0.234-0.394-1.549c0-2.725,1.955-4.052,2.8-4.869c0,0-0.141-0.357-0.066-0.797 c0.084-0.494,0.374-0.789,0.374-0.789s-0.108-0.59,0.301-1.066C8.958,10.901,9.915,5.887,16,5.887 M16,3.887 c-6.399,0-8.668,4.588-9.07,7.668c-0.192,0.374-0.3,0.76-0.346,1.125c-0.149,0.287-0.286,0.644-0.358,1.065 c-0.018,0.108-0.031,0.214-0.039,0.317c-1.11,1.021-2.723,2.76-2.723,5.685c0,2.029,0.747,2.898,1.374,3.27l0.472,0.28h0.548 c0.017,0,0.034,0,0.051,0c-0.088,0.285-0.135,0.595-0.135,0.93c0,0.859,0.433,3.662,6,3.662c2.037,0,3.312-0.439,4.094-0.911 c0.821,0.246,2.738,0.77,4.188,0.77c3.268,0,5.38-1.36,5.38-3.465c0-0.376-0.071-0.71-0.192-1.005 c0.962-0.439,1.797-1.566,1.797-3.727c0-1.896-1.047-3.883-1.759-5.016c0.054-0.325,0.074-0.687,0.022-1.062 c-0.117-0.842-0.451-1.507-0.721-1.927c-0.008-0.037-0.016-0.077-0.024-0.118C23.51,6.423,20.63,3.887,16,3.887L16,3.887z"/></svg>