<svg xmlns="http://www.w3.org/2000/svg" viewBox="0 0 32 32"><path d="M 16 3 C 8.8321429 3 3 8.8321429 3 16 C 3 23.167857 8.8321429 29 16 29 C 23.167857 29 29 23.167857 29 16 C 29 8.8321429 23.167857 3 16 3 z M 16 5 C 22.086977 5 27 9.9130231 27 16 C 27 22.086977 22.086977 27 16 27 C 9.9130231 27 5 22.086977 5 16 C 5 9.9130231 9.9130231 5 16 5 z M 12 10 L 12 11 L 12 17 L 12 18 L 12 22 L 14 22 L 14 18 L 17.40625 18 L 19 22 L 21 22 L 19.3125 17.75 C 20.874979 17.205788 22 15.748397 22 14 C 22 11.790196 20.209804 10 18 10 L 13 10 L 12 10 z M 14 12 L 18 12 C 19.190196 12 20 12.809804 20 14 C 20 15.190196 19.190196 16 18 16 L 14 16 L 14 12 z"/></svg>