<svg xmlns="http://www.w3.org/2000/svg" viewBox="0 0 32 32"><path d="M16.001,4C8.75,4,4,10.042,4,15.973C4,22.604,9.383,28,16,28c6.617,0,12-5.396,12-12.027C28,10.042,23.252,4,16.001,4z M16,26c-5.523,0-10-4.49-10-10.027c0-4.794,3.355-8.801,7.839-9.792c-3.276,1.863-4.202,4.494-4.49,6.308 c-0.371,2.332,0.618,4.831,2.507,5.146c0.146,0.024,0.286,0.036,0.422,0.036c1.655,0,2.517-1.724,2.644-2.702 c0.153-1.181-0.346-2.422-1.023-3.286c-0.364-0.464-0.889-1.09-1.638-1.644L13.393,8.8c0.529,0.343,0.942,0.932,1.146,1.371 c0,0,0.016-0.444-0.077-0.788c-0.123-0.454-0.289-0.796-0.377-0.951c-0.052-0.092-0.1-0.166-0.145-0.23l2.061-2.256l2.06,2.254 c-0.045,0.064-0.093,0.138-0.146,0.231c-0.088,0.155-0.254,0.497-0.377,0.951c-0.093,0.344-0.078,0.788-0.078,0.788 c0.204-0.439,0.618-1.028,1.148-1.371l1.131,1.237c-0.75,0.555-1.275,1.18-1.639,1.645c-0.677,0.864-1.176,2.105-1.023,3.286 c0.127,0.978,0.989,2.702,2.644,2.702c0.135,0,0.276-0.012,0.422-0.036c1.889-0.316,2.877-2.814,2.507-5.146 c-0.288-1.813-1.213-4.443-4.485-6.306C22.647,7.173,26,11.18,26,15.973C26,21.51,21.523,26,16,26z M12.325,12.916 c0.435,0.555,0.681,1.276,0.614,1.796c-0.041,0.316-0.373,0.959-0.661,0.959c-0.027,0-0.058-0.003-0.092-0.009 c-0.506-0.085-1.094-1.399-0.862-2.86c0.044-0.277,0.101-0.545,0.173-0.804C11.831,12.306,12.098,12.628,12.325,12.916z M20.502,11.998c0.071,0.259,0.129,0.527,0.173,0.804c0.232,1.46-0.355,2.775-0.861,2.86c-0.034,0.006-0.065,0.009-0.092,0.009 c-0.288,0-0.62-0.644-0.661-0.96c-0.067-0.519,0.179-1.241,0.614-1.795C19.901,12.626,20.168,12.304,20.502,11.998z"/></svg>