<svg xmlns="http://www.w3.org/2000/svg" viewBox="0 0 32 32"><path d="M 7.5625 7 C 3.2795 7.719 -1.1842379e-15 11.4505 0 15.9375 C 0 18.1675 0.81925 20.20325 2.15625 21.78125 C 5.32725 20.24725 7.5465 16.792 7.5625 12.75 L 7.5625 7 z M 10.5625 7 L 10.5625 12.6875 C 10.5625 16.7465 12.78775 20.24025 15.96875 21.78125 C 14.63275 20.20325 13.8125 18.1675 13.8125 15.9375 C 13.8125 13.7065 14.63075 11.67075 15.96875 10.09375 C 14.61575 8.49775 12.7165 7.361 10.5625 7 z M 15.96875 10.09375 C 17.30575 11.67175 18.1875 13.7065 18.1875 15.9375 C 18.1875 18.1675 17.30575 20.20325 15.96875 21.78125 C 19.13975 20.24625 21.4225 16.791 21.4375 12.75 L 21.4375 7 C 19.2835 7.362 17.32175 8.49675 15.96875 10.09375 z M 24.4375 7 L 24.4375 12.6875 C 24.4375 16.7465 26.66275 20.24025 29.84375 21.78125 C 31.18075 20.20325 32 18.1675 32 15.9375 C 32 11.4505 28.7205 7.719 24.4375 7 z M 9.0625 18.21875 C 8.4985 20.55475 6.81875 22.548 4.71875 23.875 C 6.00975 24.583 7.4865 25 9.0625 25 C 10.6385 25 12.11525 24.583 13.40625 23.875 C 11.30725 22.548 9.6265 20.55375 9.0625 18.21875 z M 22.9375 18.21875 C 22.3735 20.55475 20.69375 22.548 18.59375 23.875 C 19.88475 24.583 21.3615 25 22.9375 25 C 24.5135 25 25.99025 24.583 27.28125 23.875 C 25.18225 22.548 23.5015 20.55375 22.9375 18.21875 z"/></svg>