<svg xmlns="http://www.w3.org/2000/svg" viewBox="0 0 32 32"><path d="M 25.90625 4 C 25.209191 3.9996631 24.243016 4.0299025 23.21875 4.125 C 21.170219 4.3151947 18.810061 4.6593713 17.34375 6.125 C 16.112043 7.3561341 13.571734 10.619802 11.21875 13.6875 C 10.75377 14.293717 10.773748 14.279483 10.34375 14.84375 L 8.625 14.75 C 7.3467124 14.68202 6.1177299 15.224211 5.3125 16.21875 L 3.21875 18.78125 L 2.1875 20.09375 L 3.8125 20.40625 L 7.09375 21.0625 L 10.9375 24.90625 L 11.59375 28.1875 L 11.9375 29.8125 L 13.21875 28.78125 L 15.78125 26.6875 C 16.777039 25.882338 17.31798 24.653288 17.25 23.375 L 17.15625 21.6875 C 17.736409 21.247113 17.719857 21.259482 18.34375 20.78125 C 21.418784 18.424146 24.693534 15.89964 25.90625 14.6875 C 27.359833 13.234607 27.682426 10.835457 27.875 8.78125 C 28.067574 6.7270434 27.96875 4.96875 27.96875 4.96875 L 27.9375 4.0625 L 27.03125 4.03125 C 27.03125 4.03125 26.603309 4.0003369 25.90625 4 z M 25 6 C 25.397618 5.9985072 25.680792 6.024267 25.96875 6.03125 C 25.98039 6.6121314 26.00394 7.2183466 25.875 8.59375 C 25.697324 10.489043 25.120167 12.598893 24.46875 13.25 C 23.576466 14.14186 20.186716 16.840604 17.125 19.1875 C 14.41792 21.262557 12.512297 22.719436 11.96875 23.125 L 8.90625 20.0625 C 9.318068 19.510549 10.716803 17.597769 12.78125 14.90625 C 15.123766 11.852198 17.831707 8.4491159 18.75 7.53125 C 19.433689 6.8478787 21.520781 6.2688053 23.40625 6.09375 C 24.090319 6.030238 24.602382 6.0014928 25 6 z M 20.4375 9.53125 C 19.32078 9.53125 18.4375 10.44578 18.4375 11.5625 C 18.4375 12.67922 19.32078 13.59375 20.4375 13.59375 C 21.55422 13.59375 22.46875 12.67922 22.46875 11.5625 C 22.46875 10.44578 21.55422 9.53125 20.4375 9.53125 z M 8.5 16.75 L 8.875 16.78125 C 8.2727214 17.577693 7.2881878 18.855726 7.15625 19.03125 L 5.8125 18.75 L 6.84375 17.5 C 7.2465201 17.002539 7.8602876 16.71598 8.5 16.75 z M 6.21875 21.9375 C 5.3643014 22.792631 4.8765591 23.976403 4.53125 24.96875 C 4.1859409 25.961097 4.03125 26.78125 4.03125 26.78125 L 3.71875 28.25 L 5.1875 27.96875 C 5.1875 27.96875 5.9853776 27.833983 6.96875 27.5 C 7.9521224 27.166017 9.1377166 26.674783 10.03125 25.78125 L 8.625 24.375 C 8.1792711 24.820729 7.2981488 25.210292 6.5 25.5 C 6.8047772 24.666761 7.2481033 23.720948 7.625 23.34375 L 6.21875 21.9375 z M 15.21875 23.125 L 15.25 23.5 C 15.28402 24.139712 15.029461 24.753412 14.53125 25.15625 L 13.25 26.1875 L 12.96875 24.84375 C 13.14456 24.712921 14.421782 23.723283 15.21875 23.125 z"/></svg>