<svg xmlns="http://www.w3.org/2000/svg" viewBox="0 0 32 32"><path d="M 18.65625 4 C 16.559146 4 15 5.7072773 15 7.65625 L 15 11.03125 C 12.240625 11.173868 9.743117 11.904796 7.71875 13.0625 C 6.9452768 12.316605 5.9137488 11.999258 4.90625 12 C 3.8170621 12.000802 2.7055462 12.354788 1.9375 13.21875 L 1.9375 13.25 L 1.90625 13.28125 C 1.1694793 14.20204 0.8660252 15.431653 1.0625 16.65625 C 1.2426019 17.778797 1.897438 18.919865 3.03125 19.65625 C 3.0251 19.770649 3 19.884303 3 20 C 3 22.604015 4.5752352 24.887819 6.9375 26.46875 C 9.2997648 28.049681 12.486509 29 16 29 C 19.513491 29 22.700235 28.049681 25.0625 26.46875 C 27.424765 24.887819 29 22.604015 29 20 C 29 19.884303 28.9749 19.770649 28.96875 19.65625 C 30.102562 18.919865 30.757398 17.778797 30.9375 16.65625 C 31.133975 15.431653 30.830521 14.20204 30.09375 13.28125 L 30.0625 13.25 C 29.29435 12.385922 28.183028 12.000802 27.09375 12 C 26.086168 11.999258 25.05449 12.316329 24.28125 13.0625 C 22.256883 11.904796 19.759375 11.173868 17 11.03125 L 17 7.65625 C 17 6.6772227 17.559354 6 18.65625 6 C 19.176937 6 19.819057 6.2452792 20.8125 6.59375 C 21.656988 6.8899719 22.750899 7.2188325 24.15625 7.3125 C 24.498011 8.2871851 25.412409 9 26.5 9 C 27.875 9 29 7.875 29 6.5 C 29 5.125 27.875 4 26.5 4 C 25.554688 4 24.737152 4.5333557 24.3125 5.3125 C 23.115195 5.2435093 22.246336 4.9915044 21.46875 4.71875 C 20.564943 4.4017208 19.732563 4 18.65625 4 z M 16 13 C 19.153509 13 21.966515 13.868431 23.9375 15.1875 C 25.908485 16.506569 27 18.204015 27 20 C 27 21.795985 25.908485 23.493431 23.9375 24.8125 C 21.966515 26.131569 19.153509 27 16 27 C 12.846491 27 10.033485 26.131569 8.0625 24.8125 C 6.0915148 23.493431 5 21.795985 5 20 C 5 18.204015 6.0915148 16.506569 8.0625 15.1875 C 10.033485 13.868431 12.846491 13 16 13 z M 4.90625 14 C 5.2867576 13.99972 5.6609599 14.093841 5.96875 14.25 C 4.88352 15.158744 4.0387823 16.240486 3.53125 17.4375 C 3.2755289 17.11627 3.1249609 16.733058 3.0625 16.34375 C 2.9547728 15.672304 3.150091 14.975874 3.46875 14.5625 C 3.47407 14.5556 3.46336 14.53798 3.46875 14.53125 C 3.771677 14.210772 4.3130608 14.000437 4.90625 14 z M 27.09375 14 C 27.687095 14.000437 28.228403 14.210874 28.53125 14.53125 C 28.53345 14.53355 28.52905 14.56015 28.53125 14.5625 C 28.849909 14.975874 29.045227 15.672304 28.9375 16.34375 C 28.875039 16.733058 28.724471 17.11627 28.46875 17.4375 C 27.961218 16.240486 27.11648 15.158744 26.03125 14.25 C 26.33904 14.09382 26.713143 13.99972 27.09375 14 z M 11 16 C 9.8954305 16 9 16.895431 9 18 C 9 19.104569 9.8954305 20 11 20 C 12.104569 20 13 19.104569 13 18 C 13 16.895431 12.104569 16 11 16 z M 21 16 C 19.895431 16 19 16.895431 19 18 C 19 19.104569 19.895431 20 21 20 C 22.104569 20 23 19.104569 23 18 C 23 16.895431 22.104569 16 21 16 z M 21.25 21.53125 C 20.1 22.59825 18.172 23.28125 16 23.28125 C 13.828 23.28125 11.9 22.58925 10.75 21.65625 C 11.389 23.38925 13.444 25 16 25 C 18.556 25 20.611 23.39825 21.25 21.53125 z"/></svg>