<svg xmlns="http://www.w3.org/2000/svg" viewBox="0 0 32 32"><path d="M 15 3 L 15 5 L 16 5 L 16 3 L 15 3 z M 12.84375 3.4375 L 12 3.65625 L 11.96875 3.6875 L 11.9375 3.6875 L 11.09375 4 L 11.0625 4 L 11.03125 4.03125 L 10.9375 4.0625 L 11.78125 5.875 L 11.8125 5.875 L 11.875 5.84375 L 12.5625 5.59375 L 12.625 5.5625 L 13.40625 5.34375 L 12.84375 3.4375 z M 20 4 L 20 5 L 20 12 L 22 12 L 22 6.78125 C 25.029465 8.7614222 27 12.060564 27 16 C 27 22.054545 22.054545 27 16 27 C 9.9454545 27 5 22.054545 5 16 L 5 15 L 3 15 L 3 16 C 3 23.145455 8.8545455 29 16 29 C 23.145455 29 29 23.145455 29 16 C 29 11.941019 27.204846 8.3854935 24.34375 6 L 28 6 L 28 4 L 21 4 L 20 4 z M 9.15625 5 L 8.625 5.34375 L 8.59375 5.375 L 8.5625 5.375 L 7.875 5.90625 L 7.84375 5.9375 L 7.8125 5.9375 L 7.53125 6.1875 L 8.84375 7.6875 L 9.0625 7.5 L 9.125 7.46875 L 9.6875 7.03125 L 9.75 7 L 10.21875 6.6875 L 9.15625 5 z M 6.09375 7.59375 L 5.875 7.875 L 5.84375 7.90625 L 5.8125 7.9375 L 5.28125 8.625 L 5.28125 8.65625 L 5.25 8.6875 L 4.90625 9.21875 L 6.59375 10.3125 L 6.875 9.84375 L 6.9375 9.78125 L 7.375 9.1875 L 7.40625 9.15625 L 7.625 8.90625 L 6.09375 7.59375 z M 3.96875 11 L 3.9375 11.125 L 3.90625 11.15625 L 3.90625 11.1875 L 3.59375 12 L 3.59375 12.03125 L 3.5625 12.09375 L 3.34375 12.9375 L 5.25 13.46875 L 5.46875 12.6875 L 5.5 12.625 L 5.75 11.9375 L 5.78125 11.875 L 5.78125 11.84375 L 3.96875 11 z"/></svg>