<svg xmlns="http://www.w3.org/2000/svg" viewBox="0 0 32 32"><path d="M 5 5 L 5 6 L 5 26 L 5 27 L 6 27 L 26 27 L 27 27 L 27 26 L 27 6 L 27 5 L 26 5 L 6 5 L 5 5 z M 7 7 L 25 7 L 25 25 L 7 25 L 7 7 z M 12 10 C 11.315 10 10.646 10.0555 10 10.1875 L 10 12.25 C 10.641 12.083 11.308 12 12 12 C 16.411 12 20 15.589 20 20 C 20 20.692 19.916 21.359 19.75 22 L 21.8125 22 C 21.9435 21.354 22 20.685 22 20 C 22 14.486 17.514 10 12 10 z M 12 14 C 11.298 14 10.627 14.12175 10 14.34375 L 10 16.5625 C 10.591 16.2185 11.268 16 12 16 C 14.206 16 16 17.794 16 20 C 16 20.732 15.7815 21.409 15.4375 22 L 17.65625 22 C 17.87925 21.373 18 20.702 18 20 C 18 16.691 15.309 14 12 14 z M 12 18 C 10.895431 18 10 18.895431 10 20 C 10 21.104569 10.895431 22 12 22 C 13.104569 22 14 21.104569 14 20 C 14 18.895431 13.104569 18 12 18 z"/></svg>