<svg xmlns="http://www.w3.org/2000/svg" viewBox="0 0 32 32"><path d="M 5 4 L 5 5 L 5 22.78125 L 5 23.4375 L 5.59375 23.6875 L 15.46875 27.90625 L 15.84375 28.09375 L 16.25 27.9375 L 26.375 23.6875 L 27 23.4375 L 27 22.78125 L 27 5 L 27 4 L 26 4 L 6 4 L 5 4 z M 7 6 L 25 6 L 25 9 L 7 9 L 7 6 z M 7 11 L 25 11 L 25 22.09375 L 15.84375 25.90625 L 7 22.09375 L 7 11 z M 16 13 C 13.239 13 11 15.239 11 18 C 11 20.761 13.239 23 16 23 C 18.761 23 21 20.761 21 18 C 21 15.239 18.761 13 16 13 z M 16.1875 15.03125 C 17.5925 15.03125 18.73325 15.84 18.78125 15.875 L 18.03125 16.90625 C 18.02225 16.90025 17.1725 16.28125 16.1875 16.28125 C 15.5845 16.28125 14.5625 16.4505 14.5625 17.0625 C 14.7845 17.3185 15.65625 17.3105 16.03125 17.3125 L 16.21875 17.3125 C 17.85175 17.3125 18.90625 17.9325 18.90625 18.9375 C 18.90725 19.8715 18.167 20.96875 16.125 20.96875 C 14.586 20.96875 13.304 20.16 13.25 20.125 L 13.9375 19.09375 C 13.9475 19.10075 14.96 19.71875 16.125 19.71875 C 16.824 19.71875 17.65625 19.5095 17.65625 18.9375 C 17.65625 18.7775 17.03875 18.5625 16.21875 18.5625 L 16.0625 18.5625 C 15.3005 18.5575 14.2665 18.54375 13.6875 17.96875 C 13.4395 17.72175 13.3125 17.4265 13.3125 17.0625 C 13.3125 15.8325 14.4415 15.03125 16.1875 15.03125 z"/></svg>