<svg xmlns="http://www.w3.org/2000/svg" viewBox="0 0 32 32"><path d="M17.803,6.594c1.858,0,6.905,1.462,6.905,6.881c0,0.329-0.07,1.104-0.07,1.104s0.916-0.282,1.949-0.282 c1.362,0,5.414,1.069,5.414,5.39c0,4.11-3.535,5.719-5.789,5.719c-8.244,0-10.076-12.518-18.014-12.518 c-3.687,0-5.566,2.701-5.566,5.12c0,3.617,2.701,5.543,5.707,5.543c4.51,0,7.061-2.959,7.42-2.959c0.425,0,0.612,0.239,0.612,0.474 c0,0.963-4.087,4.341-8.455,4.341C3.653,25.406,0,22.705,0,18.008c0-4.273,3.546-7.351,7.657-7.351 c9.22,0,11.03,12.354,18.084,12.354c2.513,0,3.758-1.785,3.758-3.382c0-1.996-1.456-3.64-3.523-3.64 c-0.846,0-1.738,0.564-2.349,0.564c-0.611,0-0.846-0.423-0.846-0.799c0-0.446,0.329-1.198,0.329-2.043 c0-1.451-1.139-5.519-5.872-5.519c-2.771,0-3.946,1.879-4.462,1.879c-0.517,0-0.564-0.258-0.564-0.587 C12.213,9.154,13.998,6.594,17.803,6.594z"/></svg>