<svg xmlns="http://www.w3.org/2000/svg" viewBox="0 0 32 32"><path d="M 18 4 C 14.334819 4 11.274627 6.2487808 9.875 9.40625 C 9.2929077 9.1651121 8.6701558 9 8 9 C 5.2504839 9 3 11.250484 3 14 C 3 14.144867 3.0186545 14.267758 3.03125 14.40625 C 1.2588549 15.676572 0 17.659921 0 20 C 0 23.854334 3.1456661 27 7 27 L 25 27 C 28.854334 27 32 23.854334 32 20 C 32 16.847175 29.848001 14.27453 26.96875 13.40625 C 26.976331 13.269138 27 13.142036 27 13 C 27 8.0414839 22.958516 4 18 4 z M 18 6 C 21.877484 6 25 9.1225161 25 13 C 25 13.305891 24.98164 13.611981 24.9375 13.9375 L 24.78125 14.90625 L 25.78125 15.0625 C 28.17848 15.431753 30 17.49 30 20 C 30 22.773666 27.773666 25 25 25 L 7 25 C 4.2263339 25 2 22.773666 2 20 C 2 18.115673 3.0329939 16.48019 4.5625 15.625 L 5.1875 15.28125 L 5.0625 14.5625 C 5.0244268 14.365788 5 14.186926 5 14 C 5 12.331516 6.3315161 11 8 11 C 8.6516092 11 9.2512437 11.204399 9.75 11.5625 L 10.875 12.40625 L 11.28125 11.03125 C 12.130233 8.1240732 14.807483 6 18 6 z M 20 13 L 20 22 L 22 22 L 22 13 L 20 13 z M 16 15 L 16 22 L 18 22 L 18 15 L 16 15 z M 12 16 L 12 22 L 14 22 L 14 16 L 12 16 z M 8 17 L 8 22 L 10 22 L 10 17 L 8 17 z"/></svg>