<svg xmlns="http://www.w3.org/2000/svg" viewBox="0 0 32 32"><path d="M 23.09375 4 C 22.647477 4.0083055 22.194055 4.0708275 21.75 4.15625 C 19.973781 4.4979397 18.192221 5.4015288 16.875 6.71875 C 15.557779 8.0359712 14.940199 9.5860269 15 11.09375 C 15.046565 12.267778 15.503341 13.383003 16.21875 14.34375 L 4.28125 26.28125 L 5.71875 27.71875 L 17.65625 15.78125 C 18.616997 16.496658 19.732222 16.953434 20.90625 17 C 22.413973 17.0598 23.964029 16.442221 25.28125 15.125 C 26.598471 13.807779 27.50206 12.026219 27.84375 10.25 C 28.18544 8.4737805 27.967156 6.5921564 26.6875 5.3125 C 26.047672 4.6726718 25.260456 4.2997888 24.40625 4.125 C 23.979147 4.0376056 23.540023 3.9916945 23.09375 4 z M 23.09375 6 C 23.402774 5.9952508 23.70004 6.0095507 23.96875 6.0625 C 24.506169 6.1683987 24.956078 6.3935782 25.28125 6.71875 C 25.931594 7.3690936 26.16706 8.5192195 25.90625 9.875 C 25.64544 11.230781 24.873779 12.688721 23.875 13.6875 C 22.876221 14.686279 21.925277 15.036699 21 15 C 20.074723 14.963301 19.133575 14.508575 18.3125 13.6875 C 17.491425 12.866425 17.036699 11.925277 17 11 C 16.963301 10.074723 17.313721 9.1237788 18.3125 8.125 C 19.311279 7.1262212 20.769219 6.3545603 22.125 6.09375 C 22.463945 6.0285474 22.784726 6.0047492 23.09375 6 z"/></svg>