<svg xmlns="http://www.w3.org/2000/svg" viewBox="0 0 32 32"><path d="M 16 3 C 14.343146 3 13 4.3431458 13 6 C 13 7.6568542 14.343146 9 16 9 C 17.656854 9 19 7.6568542 19 6 C 19 4.3431458 17.656854 3 16 3 z M 8.9375 6.4375 C 7.5567881 6.4375 6.4375 7.5567881 6.4375 8.9375 C 6.4375 10.318212 7.5567881 11.4375 8.9375 11.4375 C 10.318212 11.4375 11.4375 10.318212 11.4375 8.9375 C 11.4375 7.5567881 10.318212 6.4375 8.9375 6.4375 z M 23.0625 7.9375 C 22.510215 7.9375 22.0625 8.3852153 22.0625 8.9375 C 22.0625 9.4897848 22.510215 9.9375 23.0625 9.9375 C 23.614785 9.9375 24.0625 9.4897848 24.0625 8.9375 C 24.0625 8.3852153 23.614785 7.9375 23.0625 7.9375 z M 6 13.75 C 4.7573593 13.75 3.75 14.757359 3.75 16 C 3.75 17.242641 4.7573593 18.25 6 18.25 C 7.2426407 18.25 8.25 17.242641 8.25 16 C 8.25 14.757359 7.2426407 13.75 6 13.75 z M 26 14.75 C 25.309644 14.75 24.75 15.309644 24.75 16 C 24.75 16.690356 25.309644 17.25 26 17.25 C 26.690356 17.25 27.25 16.690356 27.25 16 C 27.25 15.309644 26.690356 14.75 26 14.75 z M 8.9375 21.0625 C 7.8329305 21.0625 6.9375 21.957931 6.9375 23.0625 C 6.9375 24.16707 7.8329305 25.0625 8.9375 25.0625 C 10.042069 25.0625 10.9375 24.16707 10.9375 23.0625 C 10.9375 21.957931 10.042069 21.0625 8.9375 21.0625 z M 23.0625 21.5625 C 22.234073 21.5625 21.5625 22.234073 21.5625 23.0625 C 21.5625 23.890927 22.234073 24.5625 23.0625 24.5625 C 23.890927 24.5625 24.5625 23.890927 24.5625 23.0625 C 24.5625 22.234073 23.890927 21.5625 23.0625 21.5625 z M 16 24.25 C 15.033502 24.25 14.25 25.033502 14.25 26 C 14.25 26.966498 15.033502 27.75 16 27.75 C 16.966498 27.75 17.75 26.966498 17.75 26 C 17.75 25.033502 16.966498 24.25 16 24.25 z"/></svg>