<svg xmlns="http://www.w3.org/2000/svg" viewBox="0 0 32 32"><path d="M 3 6 L 3 7 L 3 25 L 3 26 L 4 26 L 28 26 L 29 26 L 29 25 L 29 7 L 29 6 L 28 6 L 4 6 L 3 6 z M 5 8 L 27 8 L 27 12 L 5 12 L 5 8 z M 7 9 L 7 11 L 15 11 L 15 9 L 7 9 z M 24 9 C 23.447715 9 23 9.4477153 23 10 C 23 10.552285 23.447715 11 24 11 C 24.552285 11 25 10.552285 25 10 C 25 9.4477153 24.552285 9 24 9 z M 5 14 L 27 14 L 27 18 L 5 18 L 5 14 z M 7 15 L 7 17 L 15 17 L 15 15 L 7 15 z M 24 15 C 23.447715 15 23 15.447715 23 16 C 23 16.552285 23.447715 17 24 17 C 24.552285 17 25 16.552285 25 16 C 25 15.447715 24.552285 15 24 15 z M 5 20 L 27 20 L 27 24 L 5 24 L 5 20 z M 7 21 L 7 23 L 15 23 L 15 21 L 7 21 z M 24 21 C 23.447715 21 23 21.447715 23 22 C 23 22.552285 23.447715 23 24 23 C 24.552285 23 25 22.552285 25 22 C 25 21.447715 24.552285 21 24 21 z"/></svg>