<svg xmlns="http://www.w3.org/2000/svg" viewBox="0 0 32 32"><path d="M 9 4 C 6.8026661 4 5 5.8026661 5 8 L 5 22 C 5 24.197334 6.8026661 26 9 26 L 17 26 L 17 29.21875 L 17 30.21875 L 18 30.21875 L 18.15625 30.21875 L 18.5625 30.21875 L 18.875 29.90625 L 22.5625 26 L 23 26 C 25.197334 26 27 24.197334 27 22 L 27 8 C 27 5.8026661 25.197334 4 23 4 L 9 4 z M 9 6 L 23 6 C 24.116666 6 25 6.8833339 25 8 L 25 9 L 7 9 L 7 8 C 7 6.8833339 7.8833339 6 9 6 z M 7 11 L 25 11 L 25 14 L 7 14 L 7 11 z M 7 16 L 25 16 L 25 19 L 7 19 L 7 16 z M 7 21 L 25 21 L 25 22 C 25 23.116666 24.116666 24 23 24 L 22.125 24 L 21.6875 24 L 21.40625 24.3125 L 19 26.84375 L 19 25 L 19 24 L 18 24 L 9 24 C 7.8833339 24 7 23.116666 7 22 L 7 21 z"/></svg>