<svg xmlns="http://www.w3.org/2000/svg" viewBox="0 0 32 32"><path d="M 2 4 L 2 5 L 2 10 L 0 10 L 0 13 L 1 13 L 1 19 L 0 19 L 0 22 L 2 22 L 2 27 L 2 28 L 3 28 L 6.5625 28 C 9.0202819 28 11.387478 27.019893 13.125 25.28125 L 17.46875 20.96875 L 25.5 20.28125 C 28.073322 20.066995 30.41106 18.710401 31.84375 16.5625 L 32.1875 16 L 31.84375 15.4375 C 30.41106 13.289599 28.073322 11.933005 25.5 11.71875 L 17.46875 11.03125 L 13.28125 6.84375 L 13.125 6.71875 C 11.386776 4.9805255 9.0202819 4 6.5625 4 L 3 4 L 2 4 z M 4 6 L 6.5625 6 C 8.4907181 6 10.354974 6.7612245 11.71875 8.125 L 14.5625 11 L 10 11 L 10 13 L 17 13 L 25.3125 13.6875 C 27.001415 13.828119 28.463897 14.738176 29.5625 16 C 28.463897 17.261824 27.001415 18.171881 25.3125 18.3125 L 16.90625 19 L 10 19 L 10 21 L 14.5625 21 L 11.71875 23.875 C 10.356272 25.238357 8.4907181 26 6.5625 26 L 4 26 L 4 21 L 4 20 L 4 19 L 3 19 L 3 13 L 4 13 L 4 10 L 4 6 z M 24 15 L 24 17 L 26 17 L 26 15 L 24 15 z M 6 21 L 6 24 L 8 24 L 8 21 L 6 21 z"/></svg>