<svg xmlns="http://www.w3.org/2000/svg" viewBox="0 0 32 32"><path d="M 8.5 5 C 6.5761905 5 5 6.5761905 5 8.5 L 5 9 L 7 9 L 7 8.5 C 7 7.6238095 7.6238095 7 8.5 7 L 9.5 7 C 10.37619 7 11 7.6238095 11 8.5 C 11 8.9555556 10.64653 9.478731 10.0625 9.84375 C 8.8282933 10.603262 7.7463538 11.087745 6.84375 11.59375 C 6.3924481 11.846753 5.9770999 12.090122 5.625 12.46875 C 5.2729001 12.847378 5 13.41859 5 14 L 5 15 L 6 15 L 13 15 L 13 13 L 8.4375 13 C 9.1731379 12.622117 10.018222 12.243594 11.125 11.5625 C 12.14097 10.927519 13 9.8444444 13 8.5 C 13 6.5761905 11.42381 5 9.5 5 L 8.5 5 z M 22 5 L 22 23.6875 L 19.40625 21.09375 L 18 22.5 L 22.28125 26.8125 L 23 27.5 L 23.71875 26.8125 L 28 22.5 L 26.59375 21.09375 L 24 23.6875 L 24 5 L 22 5 z M 8.59375 17 L 8.4375 17.78125 C 8.4375 17.78125 8.2721192 18.35635 7.875 18.9375 C 7.4778808 19.51865 6.9796296 20 6 20 L 6 22 C 7.3763439 22 8.3188615 21.324574 9 20.59375 L 9 27 L 11 27 L 11 18 L 11 17 L 10 17 L 9.40625 17 L 8.59375 17 z"/></svg>