<svg xmlns="http://www.w3.org/2000/svg" viewBox="0 0 32 32"><path d="M 17.65625 3 C 17.376781 2.9783125 17.06375 3.0305 16.78125 3.125 C 15.65125 3.503 15.0595 4.71375 15.4375 5.84375 L 16.34375 8.5 L 11.21875 10.21875 L 10.375 7.65625 C 9.997 6.52625 8.78625 5.9345 7.65625 6.3125 C 6.52525 6.6905 5.90325 7.90125 6.28125 9.03125 L 7.125 11.5625 L 4.46875 12.46875 C 3.33875 12.84675 2.747 14.08875 3.125 15.21875 C 3.503 16.34875 4.71375 16.9405 5.84375 16.5625 L 8.5 15.6875 L 10.21875 20.78125 L 7.65625 21.625 C 6.52625 22.003 5.9345 23.21375 6.3125 24.34375 C 6.6905 25.47475 7.90125 26.09675 9.03125 25.71875 L 11.5625 24.875 L 12.46875 27.53125 C 12.84675 28.66125 14.08875 29.253 15.21875 28.875 C 16.34875 28.497 16.9395 27.28625 16.5625 26.15625 L 15.6875 23.5 L 20.78125 21.78125 L 21.625 24.34375 C 22.003 25.47375 23.21375 26.0655 24.34375 25.6875 C 25.47475 25.3095 26.09575 24.09875 25.71875 22.96875 L 24.875 20.4375 L 27.53125 19.53125 C 28.66125 19.15325 29.253 17.91125 28.875 16.78125 C 28.497 15.65125 27.28625 15.0595 26.15625 15.4375 L 23.5 16.3125 L 21.78125 11.21875 L 24.34375 10.375 C 25.47375 9.997 26.0655 8.78625 25.6875 7.65625 C 25.3095 6.52625 24.09875 5.90325 22.96875 6.28125 L 20.4375 7.125 L 19.53125 4.46875 C 19.24775 3.62125 18.494656 3.0650625 17.65625 3 z M 17.6875 12.59375 L 19.40625 17.6875 L 14.3125 19.40625 L 12.59375 14.3125 L 17.6875 12.59375 z"/></svg>