<svg xmlns="http://www.w3.org/2000/svg" viewBox="0 0 32 32"><path d="M 16 4 C 9.3709022 4 4 9.3709022 4 16 C 4 22.629098 9.3709022 28 16 28 C 22.629098 28 28 22.629098 28 16 C 28 9.3709022 22.629098 4 16 4 z M 16 6 C 21.554902 6 26 10.445098 26 16 C 26 21.554902 21.554902 26 16 26 C 10.445098 26 6 21.554902 6 16 C 6 10.445098 10.445098 6 16 6 z M 14.40625 10.75 C 12.46025 10.75 10.76425 10.9295 9.15625 11.4375 C 8.73225 11.5215 8.375 11.8455 8.375 12.4375 C 8.375 13.0295 8.81425 13.55375 9.40625 13.46875 C 9.66025 13.46875 9.831 13.375 10 13.375 C 11.354 13.036 12.88325 12.875 14.40625 12.875 C 17.36725 12.875 20.4065 13.53375 22.4375 14.71875 C 22.6915 14.80275 22.77725 14.90625 23.03125 14.90625 C 23.62325 14.90625 24.039 14.467 24.125 13.875 C 24.125 13.368 23.86925 13.044 23.53125 12.875 C 20.99325 11.437 17.62125 10.75 14.40625 10.75 z M 14.125 14.46875 C 12.348 14.46875 11.0815 14.7245 9.8125 15.0625 C 9.3895 15.2315 9.15625 15.492 9.15625 16 C 9.15625 16.423 9.492 16.84375 10 16.84375 C 10.17 16.84375 10.246 16.835 10.5 16.75 C 11.431 16.496 12.7085 16.34375 14.0625 16.34375 C 16.8545 16.34375 19.2855 17.025 21.0625 18.125 C 21.2315 18.209 21.40225 18.28125 21.65625 18.28125 C 22.16425 18.28125 22.5 17.85075 22.5 17.34375 C 22.5 17.00575 22.338 16.669 22 16.5 C 19.8 15.146 17.002 14.46875 14.125 14.46875 z M 14.40625 18.125 C 12.96825 18.125 11.604 18.287 10.25 18.625 C 9.912 18.71 9.65625 18.952 9.65625 19.375 C 9.65625 19.714 9.92075 20.0625 10.34375 20.0625 C 10.42875 20.0625 10.67475 19.96875 10.84375 19.96875 C 11.94375 19.71475 13.1275 19.5625 14.3125 19.5625 C 16.4275 19.5625 18.36075 20.069 19.96875 21 C 20.13875 21.084 20.331 21.15625 20.5 21.15625 C 20.838 21.15625 21.166 20.9005 21.25 20.5625 C 21.25 20.1385 21.0665 19.9815 20.8125 19.8125 C 18.9505 18.7125 16.77525 18.125 14.40625 18.125 z"/></svg>