<svg xmlns="http://www.w3.org/2000/svg" viewBox="0 0 32 32"><path d="M 14 3 C 12.906937 3 12 3.9069372 12 5 L 12 6 L 9 6 L 9 5 L 7 5 L 7 6 L 5 6 C 3.9069372 6 3 6.9069372 3 8 L 3 24 C 3 25.093063 3.9069372 26 5 26 L 27 26 C 28.093063 26 29 25.093063 29 24 L 29 8 C 29 6.9069372 28.093063 6 27 6 L 25 6 L 25 5 L 23 5 L 23 6 L 20 6 L 20 5 C 20 3.9069372 19.093063 3 18 3 L 14 3 z M 14 5 L 18 5 L 18 6 L 14 6 L 14 5 z M 5 8 L 27 8 L 27 24 L 25 24 L 25 9 L 23 9 L 23 24 L 9 24 L 9 9 L 7 9 L 7 24 L 5 24 L 5 8 z"/></svg>