<svg xmlns="http://www.w3.org/2000/svg" viewBox="0 0 32 32"><path d="M 11 4 C 7.1456661 4 4 7.1456661 4 11 C 4 12.032442 4.3147412 12.989386 4.71875 13.875 C 4.5885045 14.566625 4.5 15.269744 4.5 16 C 4.5 22.339438 9.660562 27.5 16 27.5 C 16.730256 27.5 17.433375 27.41149 18.125 27.28125 C 19.010614 27.685259 19.967558 28 21 28 C 24.854334 28 28 24.854334 28 21 C 28 19.967558 27.685259 19.010614 27.28125 18.125 C 27.411495 17.433375 27.5 16.730256 27.5 16 C 27.5 9.660562 22.339438 4.5 16 4.5 C 15.269744 4.5 14.566625 4.5885045 13.875 4.71875 C 12.989386 4.3147412 12.032442 4 11 4 z M 11 6 C 11.864559 6 12.667781 6.210569 13.375 6.59375 A 1.0001 1.0001 0 0 0 14.0625 6.6875 C 14.690503 6.5570058 15.333746 6.5 16 6.5 C 21.258562 6.5 25.5 10.741438 25.5 16 C 25.5 16.666254 25.44299 17.309497 25.3125 17.9375 A 1.0001 1.0001 0 0 0 25.40625 18.625 C 25.789431 19.332219 26 20.135441 26 21 C 26 23.773666 23.773666 26 21 26 C 20.135441 26 19.332219 25.789431 18.625 25.40625 A 1.0001 1.0001 0 0 0 17.9375 25.3125 C 17.309497 25.442994 16.666254 25.5 16 25.5 C 10.741438 25.5 6.5 21.258562 6.5 16 C 6.5 15.333746 6.557006 14.690503 6.6875 14.0625 A 1.0001 1.0001 0 0 0 6.59375 13.375 C 6.210569 12.667781 6 11.864559 6 11 C 6 8.2263339 8.2263339 6 11 6 z M 15.84375 9.15625 C 13.37175 9.15625 10.71875 10.204 10.71875 13 C 10.71875 14.347 11.19375 15.7735 13.84375 16.4375 L 17.15625 17.25 C 18.15225 17.495 18.40625 18.0575 18.40625 18.5625 C 18.40625 19.4035 17.5745 20.21875 16.0625 20.21875 C 13.1085 20.21875 13.48925 17.96875 11.90625 17.96875 C 11.19425 17.96875 10.6875 18.45725 10.6875 19.15625 C 10.6875 20.51925 12.3625 22.3125 16.0625 22.3125 C 19.5825 22.3125 21.3125 20.61475 21.3125 18.34375 C 21.3125 16.87675 20.63675 15.344 17.96875 14.75 L 15.53125 14.1875 C 14.60525 13.9755 13.53125 13.71675 13.53125 12.84375 C 13.53125 11.96875 14.274 11.34375 15.625 11.34375 C 18.346 11.34375 18.11775 13.21875 19.46875 13.21875 C 20.17975 13.21875 20.78125 12.81275 20.78125 12.09375 C 20.78125 10.41575 18.12075 9.15625 15.84375 9.15625 z"/></svg>