<svg xmlns="http://www.w3.org/2000/svg" viewBox="0 0 32 32"><path d="M 16 4 C 13.802706 4 12 5.8027056 12 8 C 12 9.1142275 12.475261 10.116062 13.21875 10.84375 C 11.88816 11.744728 11 13.281553 11 15 L 11 19 L 11 19.625 L 11.5625 19.90625 L 13 20.625 L 13 24 L 13 25 L 14 25 L 18 25 L 19 25 L 19 24 L 19 20.625 L 20.4375 19.90625 L 21 19.625 L 21 19 L 21 15 C 21 13.281553 20.11184 11.744728 18.78125 10.84375 C 19.524739 10.116062 20 9.1142275 20 8 C 20 5.8027056 18.197294 4 16 4 z M 16 6 C 17.116414 6 18 6.883586 18 8 C 18 9.116414 17.116414 10 16 10 C 14.883586 10 14 9.116414 14 8 C 14 6.883586 14.883586 6 16 6 z M 16 12 C 17.668484 12 19 13.331516 19 15 L 19 18.375 L 17.5625 19.09375 L 17 19.375 L 17 20 L 17 23 L 15 23 L 15 20 L 15 19.375 L 14.4375 19.09375 L 13 18.375 L 13 15 C 13 13.331516 14.331516 12 16 12 z M 9 18.875 C 6.082 19.693 4 21.076 4 23 C 4 26.283 10.037 28 16 28 C 21.963 28 28 26.283 28 23 C 28 21.076 25.918 19.693 23 18.875 L 23 20.96875 C 24.901 21.58175 26 22.375 26 23 C 26 24.194 22.012 26 16 26 C 9.988 26 6 24.194 6 23 C 6 22.375 7.099 21.58175 9 20.96875 L 9 18.875 z"/></svg>