<svg xmlns="http://www.w3.org/2000/svg" viewBox="0 0 32 32"><path d="M 24.96875 3 C 23.342541 3 22 4.3425413 22 5.96875 L 22 6 L 24 6 L 24 5.96875 C 24 5.4229587 24.422959 5 24.96875 5 L 25.03125 5 C 25.577041 5 26 5.4229587 26 5.96875 C 26 6.2870535 25.856747 6.5689123 25.59375 6.75 L 23.46875 8.21875 C 22.553068 8.8476603 22 9.8892009 22 11 L 22 12 L 23 12 L 28 12 L 28 10 L 24.53125 10 C 24.56859 9.96797 24.55264 9.903238 24.59375 9.875 L 26.71875 8.40625 C 27.521753 7.8533377 28 6.9444465 28 5.96875 C 28 4.3425413 26.657459 3 25.03125 3 L 24.96875 3 z M 4.15625 8 L 5.15625 9.53125 L 9.3125 16 L 5.15625 22.46875 L 4.15625 24 L 6 24 L 10 24 L 10.53125 24 L 10.84375 23.53125 L 12.5 20.96875 L 14.15625 23.53125 L 14.46875 24 L 15 24 L 19 24 L 20.84375 24 L 19.84375 22.46875 L 15.6875 16 L 19.84375 9.53125 L 20.84375 8 L 19 8 L 15 8 L 14.46875 8 L 14.15625 8.46875 L 12.5 11.03125 L 10.84375 8.46875 L 10.53125 8 L 10 8 L 6 8 L 4.15625 8 z M 7.8125 10 L 9.46875 10 L 11.65625 13.4375 L 12.5 14.75 L 13.34375 13.4375 L 15.53125 10 L 17.1875 10 L 13.65625 15.46875 L 13.3125 16 L 13.65625 16.53125 L 17.1875 22 L 15.53125 22 L 13.34375 18.5625 L 12.5 17.25 L 11.65625 18.5625 L 9.46875 22 L 7.8125 22 L 11.34375 16.53125 L 11.6875 16 L 11.34375 15.46875 L 7.8125 10 z"/></svg>