<svg xmlns="http://www.w3.org/2000/svg" viewBox="0 0 32 32"><path d="M 15 3 L 15 5 L 12 5 L 11 5 L 11 6 L 11 8 L 8 8 L 7 8 L 7 9 L 7 13.90625 L 6.15625 14.09375 L 6.15625 14.125 C 4.3521632 14.514026 3.4564888 16.604048 4.40625 18.1875 L 6 20.875 L 6 25.84375 C 5.1904439 25.616929 4.625 25.21875 4.625 25.21875 L 3.375 26.78125 C 3.375 26.78125 4.9182241 28 7.03125 28 C 8.4913746 28 9.4202898 27.515635 10 27.15625 C 10.581221 27.512184 11.556815 28 13.03125 28 C 14.491375 28 15.42029 27.515635 16 27.15625 C 16.581221 27.512184 17.556815 28 19.03125 28 C 20.491375 28 21.42029 27.515635 22 27.15625 C 22.581221 27.512184 23.556815 28 25.03125 28 C 27.144276 28 28.625 26.78125 28.625 26.78125 L 27.375 25.21875 C 27.375 25.21875 26.83011 25.652697 26 25.875 L 26 20.875 L 27.59375 18.1875 C 28.544249 16.604369 27.64837 14.514141 25.84375 14.125 L 25 13.9375 L 25 9 L 25 8 L 24 8 L 21 8 L 21 6 L 21 5 L 20 5 L 17 5 L 17 3 L 15 3 z M 13 7 L 19 7 L 19 9 L 19 10 L 20 10 L 23 10 L 23 13.5 L 16.21875 12.03125 L 16 12 L 15.78125 12.03125 L 9 13.5 L 9 10 L 12 10 L 13 10 L 13 9 L 13 7 z M 16 14.0625 L 25.40625 16.0625 C 25.929628 16.175359 26.181751 16.697381 25.90625 17.15625 L 24.15625 20.09375 L 24 20.3125 L 24 20.59375 L 24 25.84375 C 23.190444 25.616929 22.625 25.21875 22.625 25.21875 L 22 24.71875 L 21.375 25.21875 C 21.375 25.21875 20.372224 26 19.03125 26 C 17.690276 26 16.625 25.21875 16.625 25.21875 L 16 24.71875 L 15.375 25.21875 C 15.375 25.21875 14.372224 26 13.03125 26 C 11.690276 26 10.625 25.21875 10.625 25.21875 L 10 24.71875 L 9.375 25.21875 C 9.375 25.21875 8.8301103 25.652697 8 25.875 L 8 20.59375 L 8 20.3125 L 7.84375 20.09375 L 6.09375 17.15625 C 5.8175112 16.695702 6.069837 16.175474 6.59375 16.0625 L 16 14.0625 z M 11 16 C 10.4 16 10 16.7 10 17.5 C 10 18.3 10.4 19 11 19 C 11.6 19 12 18.3 12 17.5 C 12 16.7 11.6 16 11 16 z M 21 16 C 20.4 16 20 16.7 20 17.5 C 20 18.3 20.4 19 21 19 C 21.6 19 22 18.3 22 17.5 C 22 16.7 21.6 16 21 16 z"/></svg>