<svg xmlns="http://www.w3.org/2000/svg" viewBox="0 0 32 32"><path d="M 8 4 C 6.3550302 4 5 5.3550302 5 7 L 5 15.40625 C 4.2297597 14.962682 3.6302961 14.5625 3.5 14.5625 C 3.139 14.5625 3 14.905 3 15.125 C 3 16.247 6.3345 18.4055 8.4375 19.1875 C 8.4375 19.1875 7.90625 20.737 7.90625 22.5 C 7.90625 24.263 8.9915 28 12.4375 28 C 12.4375 28 15 27.99275 15 25.46875 L 15 20.5 L 17 21.09375 L 17 25.46875 C 17 27.99275 19.5625 28 19.5625 28 C 23.0085 28 24.09375 24.263 24.09375 22.5 C 24.09375 20.737 23.5625 19.1875 23.5625 19.1875 C 25.6655 18.4055 29 16.247 29 15.125 C 29 14.905 28.861 14.5625 28.5 14.5625 C 28.369704 14.5625 27.77024 14.962682 27 15.40625 L 27 7 C 27 5.3550302 25.64497 4 24 4 L 8 4 z M 8 6 L 24 6 C 24.56503 6 25 6.4349698 25 7 L 25 16.40625 C 23.886751 16.869268 22.600337 17.25 21.28125 17.25 C 19.81925 17.25 18.90225 17.15625 18.28125 17.15625 C 17.07925 17.15625 17 18.4375 17 18.4375 L 17 19.34375 L 14.65625 17.5625 C 14.469629 17.340664 14.1695 17.15625 13.71875 17.15625 C 13.09775 17.15625 12.18075 17.25 10.71875 17.25 C 9.3996634 17.25 8.1132488 16.869268 7 16.40625 L 7 7 C 7 6.4349698 7.4349698 6 8 6 z M 12.3125 10.96875 C 10.836795 10.96875 9.65625 12.113765 9.65625 13.5 C 9.65625 14.886234 10.836795 16 12.3125 16 C 13.788205 16 15 14.886234 15 13.5 C 15 12.113765 13.788205 10.96875 12.3125 10.96875 z M 19.6875 10.96875 C 18.211795 10.96875 17 12.113765 17 13.5 C 17 14.886234 18.211795 16 19.6875 16 C 21.163205 16 22.34375 14.886234 22.34375 13.5 C 22.34375 12.113765 21.163205 10.96875 19.6875 10.96875 z"/></svg>