<svg xmlns="http://www.w3.org/2000/svg" viewBox="0 0 32 32"><path d="M 5 5 L 5 16 L 8.8125 17.59375 C 9.5215 16.65975 10.621 16.036 11.875 16 L 14.03125 12.75 C 14.15625 10.101 16.319 8 19 8 C 21.761 8 24 10.239 24 13 C 24 15.681 21.899 17.84375 19.25 17.96875 L 16 20.125 C 15.938 22.281 14.17 24 12 24 C 9.791 24 8 22.209 8 20 C 8 19.808 8.0365 19.6225 8.0625 19.4375 L 5 18.15625 L 5 27 L 27 27 L 27 5 L 5 5 z M 19 10 C 17.349068 10 16 11.349068 16 13 C 16 14.650932 17.349068 16 19 16 C 20.650932 16 22 14.650932 22 13 C 22 11.349068 20.650932 10 19 10 z M 19 11 C 20.110492 11 21 11.889508 21 13 C 21 14.110492 20.110492 15 19 15 C 17.889508 15 17 14.110492 17 13 C 17 11.889508 17.889508 11 19 11 z M 12 18 C 11.545 18 11.11725 18.15025 10.78125 18.40625 L 12.375 19.0625 C 12.885 19.2745 13.1505 19.865 12.9375 20.375 C 12.7775 20.759 12.392 21 12 21 C 11.871 21 11.751 20.9905 11.625 20.9375 L 10.03125 20.25 C 10.16025 21.231 10.985 22 12 22 C 13.105 22 14 21.105 14 20 C 14 18.895 13.105 18 12 18 z"/></svg>