<svg xmlns="http://www.w3.org/2000/svg" viewBox="0 0 32 32"><path d="M 10 4 C 7.2504839 4 5 6.2504839 5 9 L 5 21 C 5 23.424631 6.450528 25.524574 8.53125 26.46875 L 6 29 L 8.34375 29 L 10.375 26.96875 C 10.576127 26.98932 10.793648 27 11 27 L 21 27 C 21.206352 27 21.423873 26.98932 21.625 26.96875 L 23.65625 29 L 26 29 L 23.46875 26.46875 C 25.549472 25.524574 27 23.424631 27 21 L 27 9 C 27 6.2504839 24.749516 4 22 4 L 10 4 z M 10 6 L 22 6 C 23.318362 6 24.436798 6.8279881 24.84375 8 L 7.15625 8 C 7.5632023 6.8279881 8.6816384 6 10 6 z M 7 10 L 15 10 L 15 16 L 7 16 L 7 10 z M 17 10 L 25 10 L 25 16 L 17 16 L 17 10 z M 7 18 L 25 18 L 25 21 C 25 23.220375 23.220375 25 21 25 L 11 25 C 8.7796254 25 7 23.220375 7 21 L 7 18 z M 10.5 20 C 9.6715729 20 9 20.671573 9 21.5 C 9 22.328427 9.6715729 23 10.5 23 C 11.328427 23 12 22.328427 12 21.5 C 12 20.671573 11.328427 20 10.5 20 z M 21.5 20 C 20.671573 20 20 20.671573 20 21.5 C 20 22.328427 20.671573 23 21.5 23 C 22.328427 23 23 22.328427 23 21.5 C 23 20.671573 22.328427 20 21.5 20 z"/></svg>