<svg xmlns="http://www.w3.org/2000/svg" viewBox="0 0 32 32"><path d="M 19.625 9.0625 C 18.737 9.0625 17.85875 9.23625 17.09375 9.53125 C 16.79675 9.64625 16.72175 9.77 16.71875 10 L 16.71875 22.46875 C 16.72175 22.70975 16.92125 22.9135 17.15625 22.9375 C 17.16625 22.9385 28.0625 22.9375 28.0625 22.9375 C 30.2365 22.9375 32 21.174 32 19 C 32 16.826 30.2365 15.0625 28.0625 15.0625 C 27.5235 15.0625 26.99925 15.178 26.53125 15.375 C 26.21825 11.828 23.253 9.0625 19.625 9.0625 z M 15.9375 9.96875 C 15.8345 9.96875 15.73025 10.0005 15.65625 10.0625 C 15.56025 10.1415 15.502 10.27225 15.5 10.40625 L 15.5 10.4375 L 15.3125 19.28125 L 15.40625 20.90625 L 15.5 22.5 C 15.503 22.735 15.7005 22.90625 15.9375 22.90625 C 16.1725 22.90625 16.34075 22.738 16.34375 22.5 L 16.5625 19.28125 L 16.34375 10.40625 C 16.33975 10.24825 16.28125 10.10725 16.15625 10.03125 C 16.09125 9.99225 16.0175 9.96875 15.9375 9.96875 z M 14.59375 10.75 C 14.51375 10.75 14.439 10.7705 14.375 10.8125 C 14.264 10.8845 14.1895 11.01425 14.1875 11.15625 L 14.1875 11.21875 L 14.03125 19.28125 C 14.03125 19.28625 14.1875 22.53125 14.1875 22.53125 C 14.1875 22.53625 14.1875 22.5575 14.1875 22.5625 C 14.1925 22.6535 14.22525 22.71525 14.28125 22.78125 C 14.35625 22.87125 14.46975 22.9375 14.59375 22.9375 C 14.70375 22.9375 14.802 22.8865 14.875 22.8125 C 14.948 22.7395 14.998 22.64325 15 22.53125 L 15 22.21875 L 15.15625 19.28125 L 15 11.15625 C 14.996 11.01825 14.9195 10.8855 14.8125 10.8125 C 14.7475 10.7685 14.67575 10.75 14.59375 10.75 z M 10.4375 11.6875 C 10.322656 11.735875 10.25375 11.865 10.25 12 L 10.03125 19.28125 L 10.25 22.625 C 10.255 22.804 10.3855 22.9375 10.5625 22.9375 C 10.7385 22.9375 10.869 22.77475 10.875 22.59375 L 11.125 19.28125 L 10.875 12 C 10.869 11.819 10.7385 11.6875 10.5625 11.6875 C 10.51825 11.6875 10.475781 11.671375 10.4375 11.6875 z M 11.75 11.84375 C 11.625031 11.89625 11.535 12.0405 11.53125 12.1875 L 11.34375 19.28125 L 11.53125 22.59375 C 11.53525 22.78775 11.683 22.9375 11.875 22.9375 C 12.067 22.9375 12.245 22.7585 12.25 22.5625 L 12.4375 19.28125 L 12.25 12.1875 C 12.246 11.9925 12.09825 11.84375 11.90625 11.84375 C 11.858 11.84375 11.791656 11.82625 11.75 11.84375 z M 9.25 11.9375 C 9.089 11.9375 8.9435 12.05375 8.9375 12.21875 L 8.71875 19.28125 L 8.9375 22.625 C 8.9435 22.789 9.089 22.9375 9.25 22.9375 C 9.41 22.9375 9.52425 22.79 9.53125 22.625 L 9.78125 19.28125 L 9.53125 12.21875 C 9.52425 12.05375 9.41 11.9375 9.25 11.9375 z M 13.21875 12.0625 C 13.01075 12.0625 12.84775 12.2265 12.84375 12.4375 L 12.6875 19.28125 L 12.84375 22.5625 C 12.84775 22.7715 13.00975 22.9375 13.21875 22.9375 C 13.42675 22.9375 13.58875 22.7745 13.59375 22.5625 L 13.8125 19.28125 L 13.59375 12.4375 C 13.58975 12.2265 13.42675 12.0625 13.21875 12.0625 z M 7.90625 12.53125 C 7.76125 12.53125 7.66225 12.63125 7.65625 12.78125 L 7.40625 19.28125 L 7.65625 22.6875 C 7.66225 22.8365 7.76025 22.9375 7.90625 22.9375 C 8.05025 22.9375 8.1815 22.8375 8.1875 22.6875 L 8.4375 19.28125 L 8.1875 12.78125 C 8.1805 12.63125 8.05025 12.53125 7.90625 12.53125 z M 6.625 13.75 C 6.496 13.75 6.41225 13.83375 6.40625 13.96875 L 6.15625 19.28125 L 6.40625 22.6875 C 6.41325 22.8205 6.496 22.9375 6.625 22.9375 C 6.753 22.9375 6.868 22.8215 6.875 22.6875 L 7.15625 19.28125 L 6.875 13.96875 C 6.867 13.83475 6.753 13.75 6.625 13.75 z M 4.0625 15.59375 C 3.9635 15.59375 3.883 15.644 3.875 15.75 L 3.59375 19.28125 L 3.875 22.65625 C 3.883 22.76125 3.9635 22.84375 4.0625 22.84375 C 4.1605 22.84375 4.242 22.76125 4.25 22.65625 L 4.5625 19.28125 L 4.25 15.75 C 4.242 15.645 4.1605 15.59375 4.0625 15.59375 z M 2.8125 15.6875 C 2.7275 15.6875 2.66425 15.75275 2.65625 15.84375 L 2.34375 19.28125 L 2.65625 22.5625 C 2.66425 22.6535 2.7285 22.71875 2.8125 22.71875 C 2.8955 22.71875 2.95875 22.6535 2.96875 22.5625 L 3.3125 19.25 L 2.96875 15.84375 C 2.95875 15.75375 2.8955 15.6875 2.8125 15.6875 z M 5.34375 15.8125 C 5.22875 15.8125 5.132 15.91025 5.125 16.03125 L 4.875 19.28125 L 5.125 22.6875 C 5.132 22.8075 5.22875 22.90625 5.34375 22.90625 C 5.45775 22.90625 5.5545 22.8085 5.5625 22.6875 L 5.875 19.28125 L 5.5625 16.03125 C 5.5545 15.91125 5.45775 15.8125 5.34375 15.8125 z M 1.53125 16.25 C 1.46325 16.25 1.41525 16.33125 1.40625 16.40625 L 1.09375 19.28125 L 1.40625 22.0625 C 1.41525 22.1375 1.46325 22.21875 1.53125 22.21875 C 1.59825 22.21875 1.6765 22.1385 1.6875 22.0625 L 2.03125 19.28125 L 1.6875 16.40625 C 1.6765 16.33025 1.59925 16.25 1.53125 16.25 z M 0.375 17.375 C 0.308 17.375 0.22775 17.427 0.21875 17.5 L 0 19.28125 L 0.21875 21 C 0.22775 21.074 0.309 21.125 0.375 21.125 C 0.44 21.125 0.489 21.073 0.5 21 L 0.78125 19.28125 L 0.5 17.5 C 0.49 17.427 0.44 17.375 0.375 17.375 z"/></svg>