<svg xmlns="http://www.w3.org/2000/svg" viewBox="0 0 32 32"><path d="M 7 4 C 6.2111474 4 5.5442766 4.4615731 5.21875 5.125 C 3.9531355 5.4767424 3 6.6291918 3 8 L 3 17 L 3 17.375 L 3.25 17.65625 C 3.25 17.65625 5.60572 20.415647 9 20.90625 L 9 23 C 9 26.301625 11.698375 29 15 29 C 18.301625 29 21 26.301625 21 23 L 21 18 C 21 16.883334 21.883334 16 23 16 C 24.116666 16 25 16.883334 25 18 L 25 18.1875 C 23.844255 18.605718 23 19.707982 23 21 C 23 22.64501 24.35499 24 26 24 C 27.64501 24 29 22.64501 29 21 C 29 19.707982 28.155745 18.605718 27 18.1875 L 27 18 C 27 15.802666 25.197334 14 23 14 C 20.802666 14 19 15.802666 19 18 L 19 23 C 19 25.220375 17.220375 27 15 27 C 12.779625 27 11 25.220375 11 23 L 11 20.90625 C 14.39428 20.415647 16.75 17.65625 16.75 17.65625 L 17 17.375 L 17 17 L 17 8 C 17 6.6291918 16.046865 5.4767424 14.78125 5.125 C 14.455723 4.4615731 13.788852 4 13 4 C 11.895431 4 11 4.8954305 11 6 C 11 7.1045695 11.895431 8 13 8 C 13.65798 8 14.229261 7.6779131 14.59375 7.1875 C 14.842748 7.3668302 15 7.6596546 15 8 L 15 16.5625 C 14.641071 16.92486 12.513178 19 10 19 C 7.4868222 19 5.3589288 16.92486 5 16.5625 L 5 8 C 5 7.6596546 5.1572518 7.3668302 5.40625 7.1875 C 5.7707392 7.6779131 6.3420194 8 7 8 C 8.1045695 8 9 7.1045695 9 6 C 9 4.8954305 8.1045695 4 7 4 z M 26 20 C 26.564128 20 27 20.435872 27 21 C 27 21.564128 26.564128 22 26 22 C 25.435872 22 25 21.564128 25 21 C 25 20.435872 25.435872 20 26 20 z"/></svg>