<svg xmlns="http://www.w3.org/2000/svg" viewBox="0 0 32 32"><path d="M 19.59375 2.84375 L 17.96875 3.96875 L 23.5625 12.1875 L 25.1875 11.0625 L 19.59375 2.84375 z M 15.375 6.53125 L 14.0625 8.03125 L 21.5625 14.53125 L 22.875 13.03125 L 15.375 6.53125 z M 12.375 10.90625 L 11.46875 12.6875 L 20.3125 17.1875 L 21.21875 15.40625 L 12.375 10.90625 z M 10.65625 15.4375 L 10.21875 17.375 L 19.875 19.65625 L 20.3125 17.71875 L 10.65625 15.4375 z M 6 18 L 6 28 L 6 29 L 7 29 L 23 29 L 24 29 L 24 28 L 24 18 L 22 18 L 22 27 L 8 27 L 8 18 L 6 18 z M 10.09375 19.6875 L 9.96875 21.6875 L 19.875 22.25 L 20 20.25 L 10.09375 19.6875 z M 10 23 L 10 25 L 19.9375 25 L 19.9375 23 L 10 23 z"/></svg>