<svg xmlns="http://www.w3.org/2000/svg" viewBox="0 0 32 32"><path d="M 6 7 C 4.9069372 7 4 7.9069372 4 9 L 4 23 C 4 24.093063 4.9069372 25 6 25 L 26 25 C 27.093063 25 28 24.093063 28 23 L 28 9 C 28 7.9069372 27.093063 7 26 7 L 22 7 C 20.906937 7 20 7.9069372 20 9 L 20 10 L 12 10 L 12 9 C 12 7.9069372 11.093063 7 10 7 L 6 7 z M 6 9 L 10 9 L 10 11 L 10 12 L 11 12 L 21 12 L 22 12 L 22 11 L 22 9 L 26 9 L 26 23 L 6 23 L 6 9 z M 12 14.5 C 10.343146 14.5 9 15.843146 9 17.5 C 9 19.156854 10.343146 20.5 12 20.5 C 13.656854 20.5 15 19.156854 15 17.5 C 15 15.843146 13.656854 14.5 12 14.5 z M 20 14.5 C 18.343146 14.5 17 15.843146 17 17.5 C 17 19.156854 18.343146 20.5 20 20.5 C 21.656854 20.5 23 19.156854 23 17.5 C 23 15.843146 21.656854 14.5 20 14.5 z"/></svg>