<svg xmlns="http://www.w3.org/2000/svg" viewBox="0 0 32 32"><path d="M 20.46875 2.5625 L 19.75 3.3125 C 18.705223 4.4617546 18.207776 5.9178358 18.09375 7.375 L 14.03125 11.4375 C 11.55925 10.99868 8.9027667 11.690983 7 13.59375 L 6.28125 14.3125 L 7 15 L 11.3125 19.3125 L 3 27.59375 L 3 29 L 4.40625 29 L 12.6875 20.6875 L 16.90625 24.90625 L 17.59375 25.625 L 18.3125 24.90625 C 20.408241 22.810509 21.003462 19.931711 20.375 17.34375 L 23.9375 13.78125 C 25.674951 13.987658 27.450979 13.486521 28.71875 12.21875 L 29.40625 11.5 L 28.71875 10.78125 L 21.21875 3.28125 L 20.46875 2.5625 z M 20.6875 5.625 L 26.375 11.3125 C 25.549553 11.779487 24.659282 12.071071 23.75 11.84375 L 23.1875 11.6875 L 22.78125 12.09375 L 18.59375 16.28125 L 18.15625 16.71875 L 18.34375 17.3125 C 18.931368 19.075355 18.659114 21.06291 17.5 22.6875 L 9.3125 14.5 C 10.766836 13.500434 12.517698 13.041302 14.15625 13.46875 L 14.6875 13.625 L 15.09375 13.21875 L 19.71875 8.59375 L 20 8.3125 L 20 7.90625 C 20 7.1033608 20.292757 6.3428686 20.6875 5.625 z"/></svg>