<svg xmlns="http://www.w3.org/2000/svg" viewBox="0 0 32 32"><path d="M28,8.557c-0.883,0.392-1.832,0.656-2.828,0.775c1.017-0.609,1.797-1.574,2.165-2.724c-0.951,0.564-2.005,0.974-3.127,1.195	c-0.898-0.957-2.178-1.555-3.594-1.555c-2.719,0-4.924,2.205-4.924,4.924c0,0.386,0.044,0.762,0.127,1.122	c-4.092-0.205-7.72-2.166-10.149-5.145C5.247,7.876,5.004,8.722,5.004,9.625c0,1.708,0.869,3.215,2.19,4.098	c-0.807-0.026-1.566-0.247-2.23-0.616c0,0.021,0,0.041,0,0.062c0,2.386,1.697,4.376,3.95,4.828C8.501,18.11,8.066,18.17,7.616,18.17	c-0.317,0-0.626-0.031-0.926-0.088c0.627,1.956,2.445,3.38,4.6,3.42c-1.685,1.321-3.808,2.108-6.115,2.108	c-0.397,0-0.789-0.023-1.175-0.069c2.179,1.397,4.767,2.212,7.548,2.212c9.057,0,14.009-7.503,14.009-14.01	c0-0.213-0.005-0.426-0.014-0.637C26.505,10.411,27.34,9.544,28,8.557z"/></svg>