<svg xmlns="http://www.w3.org/2000/svg" viewBox="0 0 32 32"><path d="M 5 5 L 5 6 L 5 26 L 5 27 L 6 27 L 26 27 L 27 27 L 27 26 L 27 6 L 27 5 L 26 5 L 6 5 L 5 5 z M 7 7 L 12 7 L 12 12 L 7 12 L 7 7 z M 14 7 L 18 7 L 18 12 L 14 12 L 14 7 z M 20 7 L 25 7 L 25 12 L 20 12 L 20 7 z M 7 14 L 12 14 L 12 18 L 7 18 L 7 14 z M 14 14 L 18 14 L 18 18 L 14 18 L 14 14 z M 20 14 L 25 14 L 25 18 L 20 18 L 20 14 z M 7 20 L 12 20 L 12 25 L 7 25 L 7 20 z M 14 20 L 18 20 L 18 25 L 14 25 L 14 20 z M 20 20 L 25 20 L 25 25 L 20 25 L 20 20 z"/></svg>