<svg xmlns="http://www.w3.org/2000/svg" viewBox="0 0 32 32"><path d="M 16 3.4375 L 15.21875 4.375 C 15.21875 4.375 13.219896 6.7834652 11.1875 9.78125 C 10.171302 11.280142 9.12558 12.916794 8.34375 14.5 C 7.56192 16.083206 7 17.59697 7 19 C 7 23.945455 11.054545 28 16 28 C 20.945455 28 25 23.945455 25 19 C 25 17.59697 24.43808 16.083206 23.65625 14.5 C 22.87442 12.916794 21.828698 11.280142 20.8125 9.78125 C 18.780104 6.7834652 16.78125 4.375 16.78125 4.375 L 16 3.4375 z M 16 6.65625 C 16.560398 7.3457364 17.605228 8.5723988 19.1875 10.90625 C 20.171302 12.357358 21.12558 13.951956 21.84375 15.40625 C 22.56192 16.860544 23 18.20303 23 19 C 23 22.854545 19.854545 26 16 26 C 12.145455 26 9 22.854545 9 19 C 9 18.20303 9.43808 16.860544 10.15625 15.40625 C 10.87442 13.951956 11.828698 12.357358 12.8125 10.90625 C 14.394772 8.5723988 15.439602 7.3457364 16 6.65625 z M 11 19 C 11 21.745455 13.254545 24 16 24 L 16 22 C 14.345455 22 13 20.654545 13 19 L 11 19 z"/></svg>