<svg xmlns="http://www.w3.org/2000/svg" viewBox="0 0 32 32"><path d="M 16 6.59375 C 11.746 6.59375 7.7775 7.7345 5.0625 9.5625 L 0 9.5625 C 0.827 10.5295 1.44175 11.851 1.59375 12.75 C 0.63775 14.064 0.0625 15.6885 0.0625 17.4375 C 0.0625 21.8375 3.63125 25.40625 8.03125 25.40625 C 10.52725 25.40625 12.75775 24.2345 14.21875 22.4375 C 14.81375 23.1335 15.8 24.5305 16 24.9375 C 16 24.9375 17.13825 23.25675 17.78125 22.46875 C 19.24125 24.26175 21.47575 25.40625 23.96875 25.40625 C 28.36775 25.40625 31.9375 21.8365 31.9375 17.4375 C 31.9375 15.6895 31.36225 14.063 30.40625 12.75 C 30.55725 11.85 31.172 10.5315 32 9.5625 L 26.6875 9.5625 C 23.9725 7.7355 20.251 6.59375 16 6.59375 z M 16 7.9375 C 18.851 7.9375 21.43775 8.47175 23.71875 9.46875 C 19.43575 9.59975 16.001 13.1225 16 17.4375 C 15.999 13.0435 12.4555 9.47475 8.0625 9.46875 C 10.3415 8.47575 13.154 7.9375 16 7.9375 z M 8.03125 11 C 11.57325 11 14.4375 13.8965 14.4375 17.4375 C 14.4375 20.9805 11.57225 23.84375 8.03125 23.84375 C 4.48925 23.84375 1.625 20.9795 1.625 17.4375 C 1.625 13.8965 4.48925 11 8.03125 11 z M 23.96875 11 C 27.50975 11 30.375 13.8965 30.375 17.4375 C 30.375 20.9805 27.50975 23.84375 23.96875 23.84375 C 20.42675 23.84375 17.5625 20.9795 17.5625 17.4375 C 17.5625 13.8965 20.42675 11 23.96875 11 z M 7.9375 13.53125 C 5.8025 13.53125 4.0625 15.27025 4.0625 17.40625 C 4.0625 19.54225 5.8025 21.28125 7.9375 21.28125 C 10.0735 21.28125 11.8125 19.54225 11.8125 17.40625 C 11.8125 15.27025 10.0735 13.53125 7.9375 13.53125 z M 23.96875 13.53125 C 21.83275 13.53125 20.09375 15.27025 20.09375 17.40625 C 20.09375 19.54125 21.83275 21.25 23.96875 21.25 C 26.10375 21.25 27.84375 19.54125 27.84375 17.40625 C 27.84375 15.27025 26.10375 13.53125 23.96875 13.53125 z M 7.9375 14.71875 C 9.4175 14.71875 10.625 15.92625 10.625 17.40625 C 10.626 18.88625 9.4175 20.09375 7.9375 20.09375 C 6.4575 20.09375 5.25 18.88625 5.25 17.40625 C 5.25 15.92625 6.4575 14.71875 7.9375 14.71875 z M 23.96875 14.71875 C 25.44875 14.71875 26.65625 15.92525 26.65625 17.40625 C 26.65625 18.88525 25.44875 20.0625 23.96875 20.0625 C 22.48875 20.0625 21.28125 18.88625 21.28125 17.40625 C 21.28125 15.92625 22.48875 14.71875 23.96875 14.71875 z M 7.75 16.09375 C 7.0320298 16.09375 6.4375 16.68828 6.4375 17.40625 C 6.4375 18.12422 7.0320298 18.71875 7.75 18.71875 C 8.4679701 18.71875 9.03125 18.12422 9.03125 17.40625 C 9.03125 16.68828 8.4679701 16.09375 7.75 16.09375 z M 23.75 16.09375 C 23.03203 16.09375 22.46875 16.68828 22.46875 17.40625 C 22.46875 18.12422 23.03203 18.6875 23.75 18.6875 C 24.467971 18.6875 25.0625 18.12422 25.0625 17.40625 C 25.0625 16.68828 24.467971 16.09375 23.75 16.09375 z"/></svg>