<svg xmlns="http://www.w3.org/2000/svg" viewBox="0 0 32 32"><path d="M 16 6 C 9.3845336 6 4 11.384534 4 18 C 4 20.89568 5.03695 23.551021 6.75 25.625 L 7.03125 26 L 7.5 26 L 24.5 26 L 24.96875 26 L 25.25 25.625 C 26.96305 23.551021 28 20.89568 28 18 C 28 11.384534 22.615466 6 16 6 z M 16 8 C 21.534534 8 26 12.465466 26 18 C 26 20.267111 25.205204 22.324197 23.9375 24 L 8.0625 24 C 6.7947962 22.324197 6 20.267111 6 18 C 6 12.465466 10.465466 8 16 8 z M 16 9 C 15.447715 9 15 9.4477153 15 10 C 15 10.552285 15.447715 11 16 11 C 16.552285 11 17 10.552285 17 10 C 17 9.4477153 16.552285 9 16 9 z M 12 10.0625 C 11.447715 10.0625 11 10.510215 11 11.0625 C 11 11.614784 11.447715 12.0625 12 12.0625 C 12.552285 12.0625 13 11.614784 13 11.0625 C 13 10.510215 12.552285 10.0625 12 10.0625 z M 20 10.0625 C 19.447715 10.0625 19 10.510215 19 11.0625 C 19 11.614784 19.447715 12.0625 20 12.0625 C 20.552285 12.0625 21 11.614784 21 11.0625 C 21 10.510215 20.552285 10.0625 20 10.0625 z M 9.0625 13 C 8.5102153 13 8.0625 13.447715 8.0625 14 C 8.0625 14.552285 8.5102153 15 9.0625 15 C 9.6147848 15 10.0625 14.552285 10.0625 14 C 10.0625 13.447715 9.6147848 13 9.0625 13 z M 22.65625 13.03125 L 17 16.28125 C 16.705456 16.110492 16.364965 16 16 16 C 14.895431 16 14 16.895431 14 18 C 14 19.104569 14.895431 20 16 20 C 17.094011 20 17.983107 19.121239 18 18.03125 C 18.000163 18.02073 18 18.010558 18 18 L 23.65625 14.78125 L 22.65625 13.03125 z M 8 17 C 7.4477153 17 7 17.447715 7 18 C 7 18.552285 7.4477153 19 8 19 C 8.5522847 19 9 18.552285 9 18 C 9 17.447715 8.5522847 17 8 17 z M 24 17 C 23.447715 17 23 17.447715 23 18 C 23 18.552285 23.447715 19 24 19 C 24.552285 19 25 18.552285 25 18 C 25 17.447715 24.552285 17 24 17 z M 9.0625 21 C 8.5102153 21 8.0625 21.447715 8.0625 22 C 8.0625 22.552285 8.5102153 23 9.0625 23 C 9.6147848 23 10.0625 22.552285 10.0625 22 C 10.0625 21.447715 9.6147848 21 9.0625 21 z M 22.9375 21 C 22.385216 21 21.9375 21.447715 21.9375 22 C 21.9375 22.552285 22.385216 23 22.9375 23 C 23.489785 23 23.9375 22.552285 23.9375 22 C 23.9375 21.447715 23.489785 21 22.9375 21 z"/></svg>