<svg xmlns="http://www.w3.org/2000/svg" viewBox="0 0 32 32"><path d="M 16 5 L 15.6875 5.28125 L 4.28125 16.8125 L 3.59375 17.5 L 4.28125 18.21875 L 13.78125 27.71875 L 14.5 28.40625 L 15.1875 27.71875 L 26.71875 16.3125 L 27 16 L 27 15.59375 L 27 6 L 27 5 L 26 5 L 16.40625 5 L 16 5 z M 16.84375 7 L 25 7 L 25 15.15625 L 14.5 25.59375 L 6.40625 17.5 L 16.84375 7 z M 22 9 C 21.447715 9 21 9.4477153 21 10 C 21 10.552285 21.447715 11 22 11 C 22.552285 11 23 10.552285 23 10 C 23 9.4477153 22.552285 9 22 9 z"/></svg>