<svg xmlns="http://www.w3.org/2000/svg" viewBox="0 0 32 32"><path d="M 5 6 C 3.3545455 6 2 7.3545455 2 9 L 2 23 C 2 24.645455 3.3545455 26 5 26 L 27 26 C 28.645455 26 30 24.645455 30 23 L 30 9 C 30 7.3545455 28.645455 6 27 6 L 5 6 z M 5 8 L 27 8 C 27.554545 8 28 8.4454545 28 9 L 28 23 C 28 23.554545 27.554545 24 27 24 L 5 24 C 4.4454545 24 4 23.554545 4 23 L 4 9 C 4 8.4454545 4.4454545 8 5 8 z M 6 15 C 5.4477153 15 5 15.447715 5 16 C 5 16.552285 5.4477153 17 6 17 C 6.5522847 17 7 16.552285 7 16 C 7 15.447715 6.5522847 15 6 15 z"/></svg>