<svg xmlns="http://www.w3.org/2000/svg" viewBox="0 0 32 32"><path d="M 16 4 C 12.1071 4 8.8100486 4.7161004 6.59375 5.375 C 4.4731733 6.0052066 3 7.9670506 3 10.1875 L 3 13 C 3 14.093063 3.9069372 15 5 15 L 9 15 C 10.093063 15 11 14.093063 11 13 L 11 10.375 C 11.187332 10.28745 11.227215 10.254646 11.78125 10.09375 C 12.691587 9.8293812 14.083401 9.5625 16 9.5625 C 17.916599 9.5625 19.308413 9.8293812 20.21875 10.09375 C 20.772785 10.254646 20.812668 10.287446 21 10.375 L 21 13 C 21 14.093063 21.906937 15 23 15 L 27 15 C 28.093063 15 29 14.093063 29 13 L 29 10.1875 C 29 7.9670506 27.52639 6.0063196 25.40625 5.375 C 23.190333 4.7172464 19.8929 4 16 4 z M 16 6 C 19.6471 6 22.767667 6.6650036 24.84375 7.28125 C 26.13561 7.6659304 27 8.8479494 27 10.1875 L 27 13 L 23 13 L 23 9.71875 L 23 9.125 L 22.5 8.84375 C 22.5 8.84375 21.864663 8.4708812 20.78125 8.15625 C 19.697837 7.8416188 18.108401 7.5625 16 7.5625 C 13.891599 7.5625 12.302163 7.8416188 11.21875 8.15625 C 10.135337 8.4708812 9.5 8.84375 9.5 8.84375 L 9 9.125 L 9 9.71875 L 9 13 L 5 13 L 5 10.1875 C 5 8.8479494 5.8648267 7.6650434 7.15625 7.28125 C 9.2319514 6.6641496 12.3529 6 16 6 z M 10 17 C 8.8954305 17 8 17.895431 8 19 C 8 20.104569 8.8954305 21 10 21 C 11.104569 21 12 20.104569 12 19 C 12 17.895431 11.104569 17 10 17 z M 16 17 C 14.895431 17 14 17.895431 14 19 C 14 20.104569 14.895431 21 16 21 C 17.104569 21 18 20.104569 18 19 C 18 17.895431 17.104569 17 16 17 z M 22 17 C 20.895431 17 20 17.895431 20 19 C 20 20.104569 20.895431 21 22 21 C 23.104569 21 24 20.104569 24 19 C 24 17.895431 23.104569 17 22 17 z M 10 23 C 8.8954305 23 8 23.895431 8 25 C 8 26.104569 8.8954305 27 10 27 C 11.104569 27 12 26.104569 12 25 C 12 23.895431 11.104569 23 10 23 z M 16 23 C 14.895431 23 14 23.895431 14 25 C 14 26.104569 14.895431 27 16 27 C 17.104569 27 18 26.104569 18 25 C 18 23.895431 17.104569 23 16 23 z M 22 23 C 20.895431 23 20 23.895431 20 25 C 20 26.104569 20.895431 27 22 27 C 23.104569 27 24 26.104569 24 25 C 24 23.895431 23.104569 23 22 23 z"/></svg>