<svg xmlns="http://www.w3.org/2000/svg" viewBox="0 0 32 32"><path d="M 14.21875 5 C 13.540655 5 12.96875 5.5719048 12.96875 6.25 C 12.96875 7.7624222 12.201851 8.8147941 11.34375 9.5625 C 10.914699 9.936353 10.454356 10.222992 10.125 10.40625 C 9.9603221 10.49788 9.8425316 10.550627 9.75 10.59375 C 9.703734 10.61531 9.678268 10.6468 9.65625 10.65625 C 9.634232 10.66565 9.5368599 10.6893 9.625 10.65625 C 9.1400484 10.846231 8.8125 11.298244 8.8125 11.8125 L 8.8125 14.03125 C 8.8125 14.709345 9.3844048 15.28125 10.0625 15.28125 L 11.1875 15.28125 L 11.1875 20.5 C 11.1875 20.856919 11.1887 22.345039 11.875 23.875 C 12.56131 25.404961 14.13688 27 16.71875 27 C 20.65419 27 22.603532 25.439582 22.75 25.3125 C 23.018292 25.073476 23.1875 24.721973 23.1875 24.375 L 23.1875 23.375 L 23.1875 21.71875 C 23.1875 21.274496 22.922638 20.845156 22.53125 20.625 C 22.156065 20.416564 21.700696 20.461833 21.3125 20.6875 L 21.28125 20.65625 C 21.280884 20.656459 21.25191 20.68641 21.25 20.6875 C 21.17876 20.72824 20.093223 21.34375 18.90625 21.34375 C 18.288134 21.34375 18.244741 21.168565 18.125 20.9375 C 18.005259 20.706435 17.96875 20.310551 17.96875 20.40625 L 17.96875 15.46875 L 21.0625 15.46875 C 21.740595 15.46875 22.3125 14.901607 22.3125 14.21875 L 22.3125 11.21875 C 22.3125 10.535893 21.740595 9.96875 21.0625 9.96875 L 17.96875 9.96875 L 17.96875 6.25 C 17.96875 5.5719048 17.396845 5 16.71875 5 L 14.21875 5 z M 14.78125 7 L 15.96875 7 L 15.96875 10.96875 L 15.96875 11.96875 L 16.96875 11.96875 L 20.3125 11.96875 L 20.3125 13.46875 L 16.96875 13.46875 L 15.96875 13.46875 L 15.96875 14.46875 L 15.96875 20.40625 C 15.96875 20.578949 15.97625 21.165815 16.34375 21.875 C 16.711259 22.584185 17.637366 23.34375 18.90625 23.34375 C 19.808828 23.34375 20.58999 23.128151 21.1875 22.90625 L 21.1875 23.9375 C 20.925197 24.146484 19.762907 25 16.71875 25 C 14.88062 25 14.20144 24.138539 13.71875 23.0625 C 13.23606 21.986461 13.1875 20.705081 13.1875 20.5 L 13.1875 14.28125 L 13.1875 13.28125 L 12.1875 13.28125 L 10.8125 13.28125 L 10.8125 12.3125 C 10.91202 12.2628 10.99921 12.22624 11.125 12.15625 C 11.547894 11.920946 12.092301 11.553897 12.65625 11.0625 C 13.637032 10.207896 14.528616 8.7914758 14.78125 7 z"/></svg>