<svg xmlns="http://www.w3.org/2000/svg" viewBox="0 0 32 32"><path d="M 14 3 C 12.74133 3 11.848273 3.8904725 11.40625 5 L 10 5 C 7.2504839 5 5 7.2504839 5 10 L 5 21 C 5 23.424631 6.450528 25.524574 8.53125 26.46875 L 6 29 L 8.34375 29 L 10.375 26.96875 C 10.576127 26.98932 10.793648 27 11 27 L 21 27 C 21.206352 27 21.423873 26.98932 21.625 26.96875 L 23.65625 29 L 26 29 L 23.46875 26.46875 C 25.549472 25.524574 27 23.424631 27 21 L 27 10 C 27 7.2504839 24.749516 5 22 5 L 20.59375 5 C 20.151727 3.8904725 19.25867 3 18 3 L 14 3 z M 14 5 L 18 5 C 18.56503 5 19 5.4349698 19 6 L 19 7 L 20 7 L 22 7 C 23.318362 7 24.436798 7.8279881 24.84375 9 L 7.15625 9 C 7.5632023 7.8279881 8.6816384 7 10 7 L 12 7 L 13 7 L 13 6 C 13 5.4349698 13.43497 5 14 5 z M 7 11 L 25 11 L 25 16 L 7 16 L 7 11 z M 7 18 L 25 18 L 25 21 C 25 23.220375 23.220375 25 21 25 L 11 25 C 8.7796254 25 7 23.220375 7 21 L 7 18 z M 16 19 C 14.895431 19 14 19.895431 14 21 C 14 22.104569 14.895431 23 16 23 C 17.104569 23 18 22.104569 18 21 C 18 19.895431 17.104569 19 16 19 z"/></svg>