<svg xmlns="http://www.w3.org/2000/svg" viewBox="0 0 32 32"><path d="M 10.15625 6 C 8.747361 6 7.5144885 6.9978744 7.21875 8.375 L 5.0625 18.375 C 4.6666009 20.221046 6.111662 22 8 22 L 13.75 22 L 13.5625 22.75 C 13.359375 22.906318 13.230992 22.973969 12.9375 23.375 C 12.467913 24.01665 12 25.007487 12 26.34375 C 12 27.769371 13.290079 29 14.90625 29 L 15.3125 29 L 15.625 28.71875 L 22.40625 22 L 26 22 L 27 22 L 27 21 L 27 7 L 27 6 L 26 6 L 10.15625 6 z M 10.15625 8 L 21 8 L 21 20.59375 L 14.59375 26.90625 C 14.172301 26.82439 14 26.651843 14 26.34375 C 14 25.441013 14.272837 24.88435 14.53125 24.53125 C 14.789663 24.17815 14.96875 24.09375 14.96875 24.09375 L 15.3125 23.90625 L 15.4375 23.5 L 16.03125 21.25 L 16.34375 20 L 15.0625 20 L 8 20 C 7.340338 20 6.8931491 19.425204 7.03125 18.78125 L 9.15625 8.78125 C 9.2565115 8.3143756 9.679139 8 10.15625 8 z M 23 8 L 25 8 L 25 20 L 23 20 L 23 8 z"/></svg>