<svg xmlns="http://www.w3.org/2000/svg" viewBox="0 0 32 32"><path d="M 13 4 L 12.34375 6 L 9.5 6 C 8.1798539 6 7.0045735 6.8592569 6.625 8.125 L 5.25 12.71875 L 3.3125 12.0625 L 2.6875 13.9375 L 4.65625 14.59375 L 4.03125 16.71875 A 1.0001 1.0001 0 0 0 4 17 L 4 24 A 1.0001 1.0001 0 0 0 4 24.09375 L 4 25 C 4 25.552 4.448 26 5 26 L 8 26 L 8.34375 25 L 23.65625 25 L 24 26 L 27 26 C 27.552 26 28 25.552 28 25 L 28 24.15625 A 1.0001 1.0001 0 0 0 28 24 L 28 17 A 1.0001 1.0001 0 0 0 27.96875 16.71875 L 27.34375 14.59375 L 29.3125 13.9375 L 28.6875 12.0625 L 26.75 12.71875 L 25.375 8.125 C 24.995209 6.8600268 23.820146 6 22.5 6 L 19.65625 6 L 19 4 L 13 4 z M 9.5 8 L 22.5 8 C 22.945854 8 23.340541 8.2917232 23.46875 8.71875 L 24.75 13 L 7.25 13 L 8.53125 8.71875 C 8.6596765 8.2904931 9.0541461 8 9.5 8 z M 6.65625 15 L 25.34375 15 L 26 17.1875 L 26 23 L 9 23 L 6 23 L 6 17.1875 L 6.65625 15 z M 8.5 16 C 7.6715729 16 7 16.671573 7 17.5 C 7 18.328427 7.6715729 19 8.5 19 C 9.3284271 19 10 18.328427 10 17.5 C 10 16.671573 9.3284271 16 8.5 16 z M 23.5 16 C 22.671573 16 22 16.671573 22 17.5 C 22 18.328427 22.671573 19 23.5 19 C 24.328427 19 25 18.328427 25 17.5 C 25 16.671573 24.328427 16 23.5 16 z M 12 19 L 10.75 22 L 12.90625 22 L 13.34375 21 L 18.65625 21 L 19.09375 22 L 21.25 22 L 20 19 L 12 19 z"/></svg>