<svg xmlns="http://www.w3.org/2000/svg" viewBox="0 0 32 32"><path d="M 19 3 L 19 5 L 22.59375 5 L 18.1875 9.40625 C 17.015932 8.5232967 15.573637 8 14 8 C 10.145852 8 7 11.145852 7 15 C 7 18.514019 9.6172708 21.417316 13 21.90625 L 13 25 L 10 25 L 10 27 L 13 27 L 13 30 L 15 30 L 15 27 L 18 27 L 18 25 L 15 25 L 15 21.90625 C 18.382729 21.417316 21 18.514019 21 15 C 21 13.426363 20.476703 11.984068 19.59375 10.8125 L 24 6.40625 L 24 10 L 26 10 L 26 4 L 26 3 L 25 3 L 19 3 z M 14 10 C 16.773268 10 19 12.226732 19 15 C 19 17.773268 16.773268 20 14 20 C 11.226732 20 9 17.773268 9 15 C 9 12.226732 11.226732 10 14 10 z"/></svg>