<svg xmlns="http://www.w3.org/2000/svg" viewBox="0 0 32 32"><path d="M 1 4 L 1 5 L 1 24 L 1 25 L 2 25 L 4.15625 25 C 4.6033156 26.719842 6.1468019 28 8 28 C 9.8531978 28 11.396684 26.719842 11.84375 25 L 20.15625 25 C 20.603316 26.719842 22.146802 28 24 28 C 25.853198 28 27.396684 26.719842 27.84375 25 L 30 25 L 31 25 L 31 24 L 31 15 L 31 14.59375 L 30.71875 14.28125 L 24.71875 8.28125 L 24.40625 8 L 24 8 L 19 8 L 19 5 L 19 4 L 18 4 L 2 4 L 1 4 z M 3 6 L 17 6 L 17 9 L 17 23 L 11.84375 23 C 11.396684 21.280158 9.8531978 20 8 20 C 6.1468019 20 4.6033156 21.280158 4.15625 23 L 3 23 L 3 6 z M 19 10 L 23.5625 10 L 29 15.4375 L 29 23 L 27.84375 23 C 27.396684 21.280158 25.853198 20 24 20 C 22.146802 20 20.603316 21.280158 20.15625 23 L 19 23 L 19 10 z M 8 22 C 9.116414 22 10 22.883586 10 24 C 10 25.116414 9.116414 26 8 26 C 6.883586 26 6 25.116414 6 24 C 6 22.883586 6.883586 22 8 22 z M 24 22 C 25.116414 22 26 22.883586 26 24 C 26 25.116414 25.116414 26 24 26 C 22.883586 26 22 25.116414 22 24 C 22 22.883586 22.883586 22 24 22 z"/></svg>