<svg xmlns="http://www.w3.org/2000/svg" viewBox="0 0 32 32"><path d="M 16 3.59375 L 15.28125 4.28125 L 9.34375 10.25 L 8.34375 11.21875 L 9.625 11.84375 C 9.625 11.84375 10.640196 12.20958 12.0625 12.53125 L 7.65625 16.9375 L 6.65625 17.90625 L 7.90625 18.53125 C 7.90625 18.53125 8.9851607 18.835414 9.53125 19.03125 L 5.9375 22.625 L 4.96875 23.625 L 6.21875 24.25 C 6.21875 24.25 8.6567179 25.42626 13 25.84375 L 13 29 L 15 29 L 15 25.96875 C 15.334329 25.979235 15.648377 26 16 26 C 16.351623 26 16.665484 25.979235 17 25.96875 L 17 29 L 19 29 L 19 25.84375 C 23.350737 25.42626 25.8125 24.25 25.8125 24.25 L 27.03125 23.625 L 26.0625 22.625 L 22.46875 19.03125 C 23.014652 18.835687 24.09375 18.53125 24.09375 18.53125 L 25.34375 17.90625 L 24.34375 16.9375 L 19.9375 12.53125 C 21.359935 12.209543 22.375 11.84375 22.375 11.84375 L 23.65625 11.21875 L 22.65625 10.25 L 16.71875 4.28125 L 16 3.59375 z M 16 6.4375 L 20 10.40625 C 19.406842 10.60566 19.286094 10.762485 17.8125 10.90625 L 16 11.09375 L 14.1875 10.90625 C 12.714508 10.762489 12.593431 10.605698 12 10.40625 L 16 6.4375 z M 16 11.4375 L 17.1875 12.59375 L 21.78125 17.1875 C 21.315705 17.350398 21.327726 17.405762 20.375 17.59375 L 18.53125 17.96875 L 19.875 19.28125 L 23.53125 22.9375 C 22.258009 23.39313 20.07733 24 16 24 C 11.959403 24 9.7872969 23.394089 8.5 22.9375 L 12.125 19.28125 L 13.46875 17.96875 L 11.625 17.59375 C 10.672053 17.406285 10.683848 17.350374 10.21875 17.1875 L 14.8125 12.59375 L 16 11.4375 z"/></svg>