<svg xmlns="http://www.w3.org/2000/svg" viewBox="0 0 32 32"><path d="M 17 2 C 12.038 2 8 6.038 8 11 C 8 12.531 8.3835 13.95675 9.0625 15.21875 C 9.4565 14.50575 9.905 13.8315 10.375 13.1875 C 10.145 12.4955 10 11.769 10 11 C 10 7.14 13.14 4 17 4 C 20.86 4 24 7.14 24 11 C 24 14.86 20.86 18 17 18 C 16.185 18 15.4155 17.85175 14.6875 17.59375 C 14.3425 18.15475 14.029 18.743 13.75 19.375 C 14.761 19.77 15.851 20 17 20 C 21.962 20 26 15.962 26 11 C 26 6.038 21.962 2 17 2 z M 17 8 C 15.343146 8 14 9.3431458 14 11 C 14 11.334823 14.086294 11.636795 14.1875 11.9375 C 8.4554514 17.243838 8 25.210862 8 29 L 10 29 C 10 25.385435 10.417516 18.25708 15.40625 13.53125 C 15.868572 13.822381 16.413295 14 17 14 C 18.656854 14 20 12.656854 20 11 C 20 9.3431458 18.656854 8 17 8 z"/></svg>