<svg xmlns="http://www.w3.org/2000/svg" viewBox="0 0 32 32"><path d="M 4 4 L 4 5 L 4 11 L 6 11 L 6 7.40625 L 9.0625 10.5 L 7.28125 12.28125 L 8.71875 13.71875 L 10.5 11.9375 L 11.8125 13.25 C 11.286452 14.041269 11 14.984142 11 16 C 11 18.405882 12.727252 20.437913 15 20.90625 L 15 23 L 12 23 L 12 25 L 15 25 L 15 28 L 17 28 L 17 25 L 20 25 L 20 23 L 17 23 L 17 20.90625 C 19.272748 20.437913 21 18.405882 21 16 C 21 14.984142 20.713548 14.041269 20.1875 13.25 L 26 7.40625 L 26 11 L 28 11 L 28 5 L 28 4 L 27 4 L 21 4 L 21 6 L 24.59375 6 L 18.75 11.8125 C 17.958731 11.286452 17.015858 11 16 11 C 14.984142 11 14.041269 11.286452 13.25 11.8125 L 11.9375 10.5 L 13.71875 8.71875 L 12.28125 7.28125 L 10.5 9.0625 L 7.40625 6 L 11 6 L 11 4 L 5 4 L 4 4 z M 16 13 C 17.668699 13 19 14.331301 19 16 C 19 17.668699 17.668699 19 16 19 C 14.331301 19 13 17.668699 13 16 C 13 14.331301 14.331301 13 16 13 z"/></svg>