<svg xmlns="http://www.w3.org/2000/svg" viewBox="0 0 32 32"><path d="M 9 7 C 8.3801855 7 7.7725548 7.0673061 7.1875 7.1875 C 6.8949657 7.2475944 6.5940536 7.3183964 6.3125 7.40625 C 3.7911647 8.2019795 1.7418575 10.087357 0.71875 12.5 C 0.60466246 12.769047 0.49410363 13.030946 0.40625 13.3125 C 0.13715343 14.165155 0 15.060185 0 16 C 0 16.929722 0.14267891 17.811603 0.40625 18.65625 C 0.40917253 18.665727 0.40329694 18.678036 0.40625 18.6875 C 1.2019795 21.208835 3.0873566 23.258143 5.5 24.28125 C 5.7690475 24.395338 6.0309464 24.505896 6.3125 24.59375 C 7.165155 24.862847 8.0601848 25 9 25 L 23 25 C 27.958516 25 32 20.958516 32 16 C 32 11.041484 27.958516 7 23 7 L 9 7 z M 9 9 C 12.877838 9 16 12.122162 16 16 C 16 19.877838 12.877838 23 9 23 C 5.1225161 23 2 19.877484 2 16 C 2 15.757635 2.0074359 15.517133 2.03125 15.28125 C 2.3884996 11.743252 5.3648588 9 9 9 z M 14.625 9 L 23 9 C 26.877484 9 30 12.122516 30 16 C 30 19.877484 26.877484 23 23 23 L 14.625 23 C 16.676123 21.348302 18 18.829372 18 16 C 18 13.170628 16.676123 10.651698 14.625 9 z"/></svg>