<svg xmlns="http://www.w3.org/2000/svg" viewBox="0 0 32 32"><path d="M 16.6875 3 L 16.375 3.28125 L 9.59375 10 L 6 10 L 5 10 L 5 11 L 5 25 L 5 26 L 6 26 L 21.84375 26 C 23.252639 26 24.485512 25.002126 24.78125 23.625 L 26.9375 13.625 C 27.333399 11.778954 25.888338 10 24 10 L 18.25 10 L 18.4375 9.25 C 18.640625 9.0936816 18.769008 9.0260315 19.0625 8.625 C 19.532087 7.9833496 20 6.9925134 20 5.65625 C 20.001571 4.2300298 18.709921 3 17.09375 3 L 16.6875 3 z M 17.40625 5.09375 C 17.827534 5.175457 18.000339 5.3486297 18 5.65625 C 18 6.5589866 17.727163 7.1156504 17.46875 7.46875 C 17.210337 7.8218496 17.03125 7.90625 17.03125 7.90625 L 16.6875 8.09375 L 16.5625 8.5 L 15.96875 10.75 L 15.65625 12 L 16.9375 12 L 24 12 C 24.659662 12 25.106851 12.574796 24.96875 13.21875 L 22.84375 23.21875 C 22.743488 23.685624 22.320861 24 21.84375 24 L 11 24 L 11 11.40625 L 17.40625 5.09375 z M 7 12 L 9 12 L 9 24 L 7 24 L 7 12 z"/></svg>