<svg xmlns="http://www.w3.org/2000/svg" viewBox="0 0 32 32"><path d="M 14 4 C 10.145852 4 7 7.1458513 7 11 C 7 13.408843 8.2311596 15.55212 10.09375 16.8125 C 6.5266132 18.342333 4 21.881262 4 26 L 6 26 C 6 21.569334 9.5693339 18 14 18 C 15.376046 18 16.65445 18.35784 17.78125 18.96875 C 16.671114 20.342565 16 22.103031 16 24 C 16 28.406433 19.593567 32 24 32 C 28.406433 32 32 28.406433 32 24 C 32 19.593567 28.406433 16 24 16 C 22.252849 16 20.630732 16.574679 19.3125 17.53125 C 18.870028 17.253247 18.392372 17.020656 17.90625 16.8125 C 19.76884 15.55212 21 13.408843 21 11 C 21 7.1458513 17.854148 4 14 4 z M 14 6 C 16.773268 6 19 8.2267317 19 11 C 19 13.773268 16.773268 16 14 16 C 11.226732 16 9 13.773268 9 11 C 9 8.2267317 11.226732 6 14 6 z M 24 18 C 27.325553 18 30 20.674447 30 24 C 30 27.325553 27.325553 30 24 30 C 20.674447 30 18 27.325553 18 24 C 18 20.674447 20.674447 18 24 18 z M 21.71875 20.28125 L 20.28125 21.71875 L 22.5625 24 L 20.28125 26.28125 L 21.71875 27.71875 L 24 25.4375 L 26.28125 27.71875 L 27.71875 26.28125 L 25.4375 24 L 27.71875 21.71875 L 26.28125 20.28125 L 24 22.5625 L 21.71875 20.28125 z"/></svg>