<svg xmlns="http://www.w3.org/2000/svg" viewBox="0 0 32 32"><path d="M 13.0625 4 C 12.188737 4 11.416278 4.4500516 10.875 5.03125 C 10.333722 5.6124484 9.9399873 6.3385458 9.59375 7.125 C 9.0608989 8.3353348 8.6837189 9.6786115 8.34375 10.9375 C 7.2582963 11.25398 6.3344969 11.64779 5.59375 12.125 C 4.7277099 12.682928 4 13.457072 4 14.5 C 4 15.407892 4.5534996 16.132306 5.25 16.65625 C 5.8429132 17.10227 6.5743949 17.472104 7.4375 17.78125 C 7.4864802 18.013224 7.5637475 18.247632 7.65625 18.46875 C 6.8126862 18.945685 5.4782239 19.865857 4.1875 21.625 L 3.59375 22.46875 L 4.4375 23.0625 L 7.71875 25.3125 L 7.09375 26.5625 L 6.375 28 L 8 28 L 24 28 L 25.625 28 L 24.90625 26.5625 L 24.28125 25.3125 L 27.5625 23.0625 L 28.40625 22.46875 L 27.8125 21.625 C 26.521776 19.865857 25.187314 18.945685 24.34375 18.46875 C 24.436241 18.247522 24.513391 18.013247 24.5625 17.78125 C 25.425605 17.472104 26.157087 17.10227 26.75 16.65625 C 27.4465 16.132306 28 15.407892 28 14.5 C 28 13.455151 27.274525 12.68323 26.40625 12.125 C 25.663592 11.647531 24.74248 11.253896 23.65625 10.9375 C 23.28313 9.6344381 22.868762 8.2655875 22.34375 7.0625 C 22.005286 6.2868958 21.629412 5.5706808 21.09375 5 C 20.558088 4.4293192 19.79806 4 18.9375 4 C 18.353744 4 17.91323 4.1616598 17.4375 4.28125 C 16.96177 4.4008402 16.479499 4.5 16 4.5 C 15.041003 4.5 14.235293 4 13.0625 4 z M 13.0625 6 C 13.267707 6 14.498997 6.5 16 6.5 C 16.750501 6.5 17.41873 6.3491598 17.9375 6.21875 C 18.45627 6.0883402 18.851256 6 18.9375 6 C 19.16894 6 19.34088 6.072306 19.625 6.375 C 19.90912 6.6776942 20.244589 7.2181042 20.53125 7.875 C 21.073884 9.1184691 21.487685 10.814294 21.9375 12.375 C 21.936587 12.373 21.99087 12.32659 21.84375 12.40625 C 21.592783 12.54214 21.072187 12.717682 20.4375 12.8125 C 19.168127 13.002136 17.4375 13 16 13 C 14.569688 13 12.834765 12.978523 11.5625 12.78125 C 10.926367 12.682614 10.412019 12.511852 10.15625 12.375 C 10.077891 12.333073 10.048862 12.348826 10.03125 12.34375 A 1.0001 1.0001 0 0 0 10.03125 12.3125 C 10.033752 12.303166 10.028743 12.290598 10.03125 12.28125 A 1.0001 1.0001 0 0 0 10.0625 12.25 A 1.0001 1.0001 0 0 0 10.1875 11.8125 A 1.0001 1.0001 0 0 0 10.1875 11.78125 C 10.547435 10.454359 10.949159 9.0467346 11.4375 7.9375 C 11.731388 7.2699542 12.046497 6.7254266 12.34375 6.40625 C 12.641003 6.0870734 12.844263 6 13.0625 6 z M 8.1875 13.09375 C 8.4127881 13.562506 8.8113385 13.938261 9.21875 14.15625 C 9.8262619 14.481305 10.526758 14.633011 11.28125 14.75 C 12.790235 14.983977 14.555312 15 16 15 C 17.4375 15 19.206873 15.0071 20.71875 14.78125 C 21.474688 14.668318 22.168936 14.519047 22.78125 14.1875 C 23.191882 13.965157 23.588285 13.570311 23.8125 13.09375 C 24.431331 13.313605 24.949391 13.5478 25.3125 13.78125 C 25.893475 14.15477 26 14.433849 26 14.5 C 26 14.55861 25.94803 14.748975 25.53125 15.0625 C 25.114469 15.376025 24.394041 15.736842 23.46875 16.03125 C 21.618168 16.620066 18.951519 17 16 17 C 13.048481 17 10.381832 16.620066 8.53125 16.03125 C 7.6059592 15.736842 6.8855309 15.376025 6.46875 15.0625 C 6.0519691 14.748975 6 14.558608 6 14.5 C 6 14.43393 6.07754 14.185322 6.65625 13.8125 C 7.0189346 13.578848 7.5565626 13.323417 8.1875 13.09375 z M 10.78125 18.5625 C 11.111307 18.616664 11.434963 18.706428 11.78125 18.75 C 11.910969 19.62701 12.594625 20.40225 13.6875 20.46875 C 14.529369 20.520352 15.478911 20.122279 15.5625 19 C 15.710794 19.001755 15.850356 19 16 19 C 16.149644 19 16.289206 19.001755 16.4375 19 C 16.521089 20.122279 17.470631 20.520352 18.3125 20.46875 C 19.405375 20.40225 20.089031 19.62701 20.21875 18.75 C 20.565037 18.706428 20.888693 18.616664 21.21875 18.5625 L 21.125 19.1875 C 20.817076 20.830369 20.080923 22.355924 19.15625 23.40625 C 18.231577 24.456576 17.145329 25.016131 16 25 C 14.824138 24.983168 13.761431 24.416065 12.84375 23.375 C 11.926069 22.333935 11.20318 20.838001 10.875 19.1875 L 10.78125 18.5625 z M 23 20 C 23.372383 20.217567 24.348879 20.859934 25.46875 22.09375 L 22.4375 24.1875 L 21.71875 24.65625 L 22.09375 25.4375 L 22.375 26 L 19.21875 26 C 19.740846 25.646656 20.227903 25.205305 20.65625 24.71875 C 21.756445 23.469051 22.494687 21.830283 22.90625 20.0625 C 22.9401 20.044341 22.966917 20.019003 23 20 z M 8.96875 20.03125 C 9.0083973 20.05445 9.0527984 20.072159 9.09375 20.09375 C 9.5217895 21.83873 10.258808 23.456686 11.34375 24.6875 C 11.79312 25.197288 12.316572 25.636553 12.875 26 L 9.625 26 L 9.90625 25.4375 L 10.28125 24.65625 L 9.5625 24.1875 L 6.53125 22.09375 C 7.5913224 20.925818 8.5529523 20.281506 8.96875 20.03125 z"/></svg>