<svg xmlns="http://www.w3.org/2000/svg" viewBox="0 0 32 32"><path d="M 16 3 C 12.964103 3 10.415582 4.9657337 9.375 7.625 L 11.21875 8.375 C 11.978168 6.4342663 13.835897 5 16 5 C 18.754545 5 21 7.2454545 21 10 L 21 11.375 C 19.524681 10.515738 17.825695 10 16 10 C 10.488997 10 6 14.488997 6 20 C 6 25.511003 10.488997 30 16 30 C 21.511003 30 26 25.511003 26 20 C 26 17.213251 24.847408 14.690806 23 12.875 L 23 10 C 23 6.1545455 19.845455 3 16 3 z M 16 12 C 20.430123 12 24 15.569877 24 20 C 24 24.430123 20.430123 28 16 28 C 11.569877 28 8 24.430123 8 20 C 8 15.569877 11.569877 12 16 12 z M 16 18 C 14.895431 18 14 18.895431 14 20 C 14 20.739604 14.403104 21.372707 15 21.71875 L 15 25 L 17 25 L 17 21.71875 C 17.596896 21.372707 18 20.739604 18 20 C 18 18.895431 17.104569 18 16 18 z"/></svg>