<svg xmlns="http://www.w3.org/2000/svg" viewBox="0 0 32 32"><path d="M 15 4 L 15 6.0625 C 8.9880933 6.5648838 4.2554503 11.469397 4.03125 16.625 C 4.0257394 16.75172 4 16.873057 4 17 L 6 17 C 6 16.9202 6.0881603 16.721907 6.53125 16.46875 C 6.9743397 16.215593 7.687837 16 8.5 16 C 9.312163 16 10.02566 16.215593 10.46875 16.46875 C 10.91184 16.721907 11 16.9202 11 17 L 13 17 C 13 16.98777 13.08313 16.739636 13.625 16.46875 C 14.166867 16.197864 15.030554 16 16 16 C 16.969446 16 17.833133 16.197864 18.375 16.46875 C 18.916867 16.739636 19 16.987771 19 17 L 21 17 C 21 16.9202 21.08816 16.721907 21.53125 16.46875 C 21.97434 16.215593 22.687837 16 23.5 16 C 24.312163 16 25.02566 16.215593 25.46875 16.46875 C 25.91184 16.721907 26 16.9202 26 17 L 28 17 C 28 16.87185 27.989707 16.745511 27.96875 16.625 C 27.74455 11.469397 23.011907 6.5648838 17 6.0625 L 17 4 L 15 4 z M 16 8 C 20.346133 8 24.061122 10.95403 25.4375 14.28125 C 24.842757 14.097467 24.193251 14 23.5 14 C 22.379163 14 21.35491 14.248157 20.53125 14.71875 C 20.332717 14.832181 20.145512 14.976035 19.96875 15.125 C 19.755061 14.96056 19.521434 14.807571 19.28125 14.6875 C 18.375367 14.234636 17.239554 14 16 14 C 14.760446 14 13.624633 14.234636 12.71875 14.6875 C 12.485631 14.80404 12.271032 14.966669 12.0625 15.125 C 12.05597 15.119414 12.037822 15.130539 12.03125 15.125 C 11.854488 14.976035 11.667283 14.832181 11.46875 14.71875 C 10.64509 14.248157 9.620837 14 8.5 14 C 7.8067487 14 7.1572432 14.097467 6.5625 14.28125 C 7.9388777 10.95403 11.653867 8 16 8 z M 15 17 L 15 25 C 15 25.56503 14.56503 26 14 26 C 13.43497 26 13 25.56503 13 25 L 13 24 L 11 24 L 11 25 C 11 26.64497 12.35503 28 14 28 C 15.64497 28 17 26.64497 17 25 L 17 17 L 15 17 z"/></svg>