<svg xmlns="http://www.w3.org/2000/svg" viewBox="0 0 32 32"><path d="M 21.75 4 C 20.146717 4 18.530042 4.6262083 17.3125 5.84375 L 15.84375 7.3125 C 14.827463 8.3287868 14.224977 9.6187122 14.0625 10.9375 L 16.0625 11.1875 C 16.174023 10.282288 16.558287 9.4104632 17.25 8.71875 L 18.71875 7.25 C 20.389667 5.5790834 23.079083 5.5790834 24.75 7.25 C 26.420917 8.9209166 26.420917 11.610333 24.75 13.28125 L 23.28125 14.75 L 23.25 14.75 C 22.557246 15.443565 21.713743 15.826366 20.8125 15.9375 L 21.0625 17.9375 C 22.383257 17.774634 23.672254 17.172685 24.6875 16.15625 L 26.15625 14.6875 C 28.591333 12.252417 28.591333 8.2788334 26.15625 5.84375 C 24.938708 4.6262083 23.353283 4 21.75 4 z M 7.71875 6.28125 L 6.28125 7.71875 L 10.28125 11.71875 L 11.71875 10.28125 L 7.71875 6.28125 z M 10.9375 14.0625 C 9.6167435 14.225366 8.3277464 14.827315 7.3125 15.84375 L 5.84375 17.3125 C 3.4086666 19.747583 3.4086666 23.721167 5.84375 26.15625 C 8.2788334 28.591333 12.252417 28.591333 14.6875 26.15625 L 16.15625 24.6875 C 17.172537 23.671213 17.775023 22.381288 17.9375 21.0625 L 15.9375 20.8125 C 15.825977 21.717712 15.441713 22.589537 14.75 23.28125 L 13.28125 24.75 C 11.610333 26.420917 8.9209166 26.420917 7.25 24.75 C 5.5790834 23.079083 5.5790834 20.389667 7.25 18.71875 L 8.71875 17.25 L 8.75 17.25 C 9.4427536 16.556435 10.286257 16.173634 11.1875 16.0625 L 10.9375 14.0625 z M 21.71875 20.28125 L 20.28125 21.71875 L 24.28125 25.71875 L 25.71875 24.28125 L 21.71875 20.28125 z"/></svg>