<svg xmlns="http://www.w3.org/2000/svg" viewBox="0 0 32 32"><path d="M 8.4375 6 L 8.15625 6.46875 C 8.15625 6.46875 5 11.653086 5 20 L 5 21 L 6 21 L 11.09375 21 C 11.026845 21.324678 11 21.656303 11 22 C 11 24.749579 13.250421 27 16 27 C 18.749579 27 21 24.749579 21 22 C 21 21.656303 20.973155 21.324678 20.90625 21 L 26 21 L 27 21 L 27 20 C 27 15.388889 26.224366 12.010704 25.4375 9.78125 C 24.650634 7.5517957 23.8125 6.40625 23.8125 6.40625 L 23.5 6 L 23 6 L 9 6 L 8.4375 6 z M 9.65625 8 L 22.375 8 C 22.520667 8.2079407 22.949479 8.7318578 23.5625 10.46875 C 24.212538 12.310524 24.793853 15.201012 24.90625 19 L 20 19 C 19.085111 17.790574 17.624111 17 16 17 C 14.375889 17 12.914889 17.790574 12 19 L 7.09375 19 C 7.3220744 12.350427 9.3257876 8.5703107 9.65625 8 z M 15 10 L 15 12 L 13 12 L 13 14 L 15 14 L 15 16 L 17 16 L 17 14 L 19 14 L 19 12 L 17 12 L 17 10 L 15 10 z M 16 19 C 17.668699 19 19 20.331301 19 22 C 19 23.668699 17.668699 25 16 25 C 14.331301 25 13 23.668699 13 22 C 13 20.331301 14.331301 19 16 19 z M 16 21 C 15.447715 21 15 21.447715 15 22 C 15 22.552285 15.447715 23 16 23 C 16.552285 23 17 22.552285 17 22 C 17 21.447715 16.552285 21 16 21 z"/></svg>