<svg xmlns="http://www.w3.org/2000/svg" viewBox="0 0 32 32"><path d="M 15 4.59375 L 13.28125 6.28125 L 8.5625 11 L 5 11 L 4 11 L 4 12 L 4 20 L 4 21 L 5 21 L 8.5625 21 L 13.28125 25.71875 L 15 27.40625 L 15 25 L 15 7 L 15 4.59375 z M 24.125 6.375 L 22.71875 7.78125 C 24.74275 9.92925 26 12.822 26 16 C 26 19.178 24.74275 22.06975 22.71875 24.21875 L 24.125 25.625 C 26.51 23.113 28 19.729 28 16 C 28 12.271 26.51 8.886 24.125 6.375 z M 21.3125 9.1875 L 19.90625 10.625 C 21.20625 12.048 22 13.925 22 16 C 22 18.075 21.20625 19.951 19.90625 21.375 L 21.3125 22.8125 C 22.9735 21.0255 24 18.626 24 16 C 24 13.374 22.9735 10.9735 21.3125 9.1875 z M 13 9.4375 L 13 22.5625 L 9.71875 19.28125 L 9.40625 19 L 9 19 L 6 19 L 6 13 L 9 13 L 9.40625 13 L 9.71875 12.71875 L 13 9.4375 z M 18.5 12.03125 L 17.0625 13.46875 C 17.6405 14.16275 18 15.028 18 16 C 18 16.972 17.6405 17.83725 17.0625 18.53125 L 18.5 19.96875 C 19.439 18.90975 20 17.523 20 16 C 20 14.477 19.439 13.09025 18.5 12.03125 z"/></svg>