<svg xmlns="http://www.w3.org/2000/svg" viewBox="0 0 32 32"><path d="M 11 3 C 6.589 3 3 6.589 3 11 C 3 15.07157 6.0603265 18.442775 10 18.9375 L 10 23 L 6 23 L 6 25 L 10 25 L 10 29 L 12 29 L 12 25 L 16 25 L 20 25 L 20 29 L 22 29 L 22 25 L 26 25 L 26 23 L 22 23 L 22 18.9375 C 25.939674 18.442775 29 15.07157 29 11 C 29 6.589 25.411 3 21 3 C 19.479 3 18.05575 3.4475 16.84375 4.1875 C 17.36375 4.6335 17.844 5.1355 18.25 5.6875 C 19.078 5.2565 20.005 5 21 5 C 24.309 5 27 7.691 27 11 C 27 14.309 24.309 17 21 17 C 17.691 17 15 14.309 15 11 C 15 10.205 15.1555 9.445 15.4375 8.75 C 15.1005 8.087 14.61525 7.5145 14.03125 7.0625 C 13.37025 8.2255 13 9.568 13 11 C 13 15.07157 16.060326 18.442775 20 18.9375 L 20 23 L 16 23 L 12 23 L 12 18.90625 C 13.14312 18.761057 14.213816 18.387914 15.15625 17.8125 C 14.63625 17.3665 14.157 16.8645 13.75 16.3125 C 12.923 16.7435 11.995 17 11 17 C 7.691 17 5 14.309 5 11 C 5 7.691 7.691 5 11 5 C 14.309 5 17 7.691 17 11 C 17 11.795 16.8445 12.555 16.5625 13.25 C 16.8995 13.913 17.38475 14.4855 17.96875 14.9375 C 18.62975 13.7745 19 12.432 19 11 C 19 6.589 15.411 3 11 3 z"/></svg>