<svg xmlns="http://www.w3.org/2000/svg" viewBox="0 0 32 32"><path d="M 15 4.59375 L 13.28125 6.28125 L 8.5625 11 L 5 11 L 4 11 L 4 12 L 4 20 L 4 21 L 5 21 L 8.5625 21 L 13.28125 25.71875 L 15 27.40625 L 15 25 L 15 7 L 15 4.59375 z M 13 9.4375 L 13 22.5625 L 9.71875 19.28125 L 9.40625 19 L 9 19 L 6 19 L 6 13 L 9 13 L 9.40625 13 L 9.71875 12.71875 L 13 9.4375 z M 18.5 12.03125 L 17.0625 13.46875 C 17.6405 14.16275 18 15.028 18 16 C 18 16.972 17.6405 17.83725 17.0625 18.53125 L 18.5 19.96875 C 19.439 18.90975 20 17.523 20 16 C 20 14.477 19.439 13.09025 18.5 12.03125 z"/></svg>