<svg xmlns="http://www.w3.org/2000/svg" viewBox="0 0 32 32"><path d="M 21.9375 6.28125 C 21.393125 6.2556406 20.849 6.29225 20.3125 6.40625 C 19.8165 6.51225 19.48675 7.005 19.59375 7.5 C 19.69875 7.996 20.1915 8.32475 20.6875 8.21875 C 22.2145 7.89475 23.879 8.35375 25 9.59375 C 26.119 10.83475 26.4165 12.54625 25.9375 14.03125 C 25.7815 14.51525 26.04725 15.0315 26.53125 15.1875 C 27.01325 15.3435 27.5305 15.07575 27.6875 14.59375 C 28.3605 12.50375 27.952 10.121 26.375 8.375 C 25.193 7.06475 23.570625 6.3580781 21.9375 6.28125 z M 13.65625 9.03125 C 11.981113 9.2097126 9.6408125 10.516125 7.5625 12.59375 C 5.2995 14.85875 4 17.26875 4 19.34375 C 4 23.31275 9.0835 25.71875 14.0625 25.71875 C 20.5895 25.71875 24.9375 21.91725 24.9375 18.90625 C 24.9375 17.08625 23.40825 16.052 22.03125 15.625 C 21.69325 15.524 21.448 15.47525 21.625 15.03125 C 22.008 14.06725 22.07225 13.219 21.65625 12.625 C 20.87725 11.512 18.72425 11.57075 16.28125 12.59375 C 16.28125 12.59275 15.52275 12.95275 15.71875 12.34375 C 16.09475 11.13575 16.0225 10.11625 15.4375 9.53125 C 15.023438 9.1165625 14.417676 8.9501306 13.65625 9.03125 z M 21.78125 9.53125 C 21.516094 9.5188906 21.26125 9.53825 21 9.59375 C 20.572 9.68475 20.283 10.1345 20.375 10.5625 C 20.467 10.9885 20.8865 11.24925 21.3125 11.15625 C 21.8235 11.04825 22.40525 11.21 22.78125 11.625 C 23.15625 12.041 23.25475 12.59675 23.09375 13.09375 C 22.95975 13.50875 23.17775 13.95875 23.59375 14.09375 C 24.00975 14.22675 24.45975 14.00975 24.59375 13.59375 C 24.92175 12.57675 24.7065 11.4135 23.9375 10.5625 C 23.36225 9.92425 22.576719 9.5683281 21.78125 9.53125 z M 14.59375 14.8125 C 17.9154 14.928629 20.58675 16.593875 20.8125 18.875 C 21.0705 21.484 18.06675 23.9205 14.09375 24.3125 C 10.12075 24.7045 6.66425 22.88925 6.40625 20.28125 C 6.14825 17.67325 9.18425 15.23575 13.15625 14.84375 C 13.652875 14.794625 14.119229 14.79591 14.59375 14.8125 z M 13.03125 16.75 C 11.593969 16.885469 10.24075 17.71925 9.625 18.96875 C 8.789 20.66775 9.59 22.5705 11.5 23.1875 C 13.479 23.8255 15.814 22.834 16.625 21 C 17.425 19.207 16.42575 17.38 14.46875 16.875 C 13.996 16.752 13.510344 16.704844 13.03125 16.75 z M 13.9375 18.9375 C 14.000516 18.936406 14.03475 18.94525 14.09375 18.96875 C 14.33475 19.05675 14.4455 19.3235 14.3125 19.5625 C 14.1735 19.8005 13.866 19.9115 13.625 19.8125 C 13.388 19.7155 13.3035 19.45275 13.4375 19.21875 C 13.54175 19.04475 13.748453 18.940781 13.9375 18.9375 z M 12.09375 19.5 C 12.260703 19.502047 12.44 19.52925 12.59375 19.59375 C 13.21675 19.85875 13.40925 20.5685 13.03125 21.1875 C 12.64725 21.8005 11.83875 22.0955 11.21875 21.8125 C 10.60775 21.5345 10.4285 20.81575 10.8125 20.21875 C 11.0975 19.7725 11.592891 19.493859 12.09375 19.5 z"/></svg>