<svg xmlns="http://www.w3.org/2000/svg" viewBox="0 0 32 32"><path d="M 16 4 C 9.382 4 4 9.382 4 16 C 4 22.616 9.383 28 16 28 C 22.618 28 28 22.616 28 16 C 28 9.384 22.618 4 16 4 z M 16 4.5625 C 22.314 4.5625 27.4375 9.687 27.4375 16 C 27.4375 22.313 22.313 27.4375 16 27.4375 C 9.687 27.4375 4.5625 22.312 4.5625 16 C 4.5625 9.687 9.686 4.5625 16 4.5625 z M 16 5.71875 C 12.403 5.71875 9.24625 7.54775 7.40625 10.34375 C 7.64825 10.35075 7.8685 10.34375 8.0625 10.34375 C 9.1395 10.34375 10.8125 10.21875 10.8125 10.21875 C 11.3675 10.18675 11.429 10.9965 10.875 11.0625 C 10.875 11.0625 10.3075 11.1555 9.6875 11.1875 L 13.4375 22.3125 L 15.6875 15.5625 L 14.09375 11.1875 C 13.53875 11.1555 13 11.0625 13 11.0625 C 12.445 11.0295 12.5075 10.18575 13.0625 10.21875 C 13.0625 10.21875 14.77025 10.34375 15.78125 10.34375 C 16.85825 10.34375 18.53125 10.21875 18.53125 10.21875 C 19.08625 10.18675 19.14775 10.9965 18.59375 11.0625 C 18.59375 11.0625 18.02525 11.1555 17.40625 11.1875 L 21.125 22.25 L 22.15625 18.8125 C 22.67725 17.4755 22.9375 16.35175 22.9375 15.46875 C 22.9375 14.19675 22.48675 13.34125 22.09375 12.65625 C 21.57275 11.80725 21.09375 11.06775 21.09375 10.21875 C 21.09375 9.27375 21.8015 8.40625 22.8125 8.40625 C 22.8575 8.40625 22.8925 8.40525 22.9375 8.40625 C 21.1065 6.72725 18.68 5.71875 16 5.71875 z M 25.03125 11.0625 C 25.07625 11.3905 25.09375 11.745 25.09375 12.125 C 25.09375 13.169 24.8995 14.3445 24.3125 15.8125 L 21.1875 24.90625 C 24.2485 23.12125 26.28125 19.797 26.28125 16 C 26.28225 14.209 25.83525 12.5275 25.03125 11.0625 z M 6.59375 11.8125 C 6.02275 13.0915 5.71875 14.507 5.71875 16 C 5.71875 20.074 8.065 23.581 11.5 25.25 L 6.59375 11.8125 z M 16.1875 16.90625 L 13.09375 25.875 C 14.01675 26.146 14.989 26.28125 16 26.28125 C 17.198 26.28125 18.33625 26.09475 19.40625 25.71875 C 19.37925 25.67475 19.36475 25.6125 19.34375 25.5625 L 16.1875 16.90625 z"/></svg>