<svg xmlns="http://www.w3.org/2000/svg" viewBox="0 0 32 32"><path d="M 16 7 C 10.983 7 6.4555 9.08325 3.1875 12.40625 L 4.59375 13.8125 C 7.49875 10.8515 11.534 9 16 9 C 20.466 9 24.50125 10.8515 27.40625 13.8125 L 28.8125 12.40625 C 25.5445 9.08325 21.017 7 16 7 z M 16 12 C 12.361 12 9.08075 13.5195 6.71875 15.9375 L 8.125 17.34375 C 10.125 15.28775 12.913 14 16 14 C 19.087 14 21.875 15.28875 23.875 17.34375 L 25.28125 15.9375 C 22.91925 13.5205 19.639 12 16 12 z M 16 17 C 13.74 17 11.706 17.95575 10.25 19.46875 L 11.65625 20.875 C 12.75025 19.725 14.291 19 16 19 C 17.709 19 19.25075 19.725 20.34375 20.875 L 21.75 19.46875 C 20.295 17.95575 18.26 17 16 17 z M 16 22 C 15.116 22 14.33025 22.392 13.78125 23 L 16 25.21875 L 18.21875 23 C 17.66975 22.392 16.884 22 16 22 z"/></svg>