<svg xmlns="http://www.w3.org/2000/svg" viewBox="0 0 32 32"><path d="M 14 5 C 8.5786547 5 4 8.709521 4 13.5 C 4 15.117392 4.5924277 16.600978 5.5 17.875 L 5.125 20.78125 L 4.90625 22.53125 L 6.5 21.84375 L 9 20.8125 C 10.248432 21.428044 11.655758 21.82027 13.15625 21.9375 C 13.886822 24.890388 16.976299 27 20.5 27 C 21.953316 27 23.279584 26.589298 24.4375 25.96875 L 25.625 26.65625 L 27.34375 27.59375 L 27.09375 25.65625 L 26.875 23.84375 C 27.537366 22.892336 28 21.800388 28 20.59375 C 28 18.036462 26.291484 15.891465 23.875 14.84375 C 23.96072 14.405975 24 13.967849 24 13.5 C 24 8.709521 19.421345 5 14 5 z M 14 7 C 18.520655 7 22 10.006479 22 13.5 C 22 13.764801 21.978828 14.026509 21.9375 14.28125 C 21.465903 14.201114 20.994245 14.15625 20.5 14.15625 C 16.700566 14.15625 13.409804 16.616043 13.03125 19.9375 C 11.712753 19.805933 10.501424 19.424494 9.46875 18.84375 L 9.03125 18.625 L 8.59375 18.8125 L 7.3125 19.34375 L 7.53125 17.8125 L 7.5625 17.375 L 7.3125 17.0625 C 6.4742024 16.024401 6 14.806263 6 13.5 C 6 10.006479 9.4793453 7 14 7 z M 10.5625 9.15625 C 9.7855 9.15625 9.15625 9.7865 9.15625 10.5625 C 9.15625 11.3405 9.7855 12 10.5625 12 C 11.3395 12 11.96875 11.3385 11.96875 10.5625 C 11.96875 9.7865 11.3405 9.15625 10.5625 9.15625 z M 17.25 9.15625 C 16.473 9.15625 15.8125 9.7855 15.8125 10.5625 C 15.8125 11.3405 16.471 12 17.25 12 C 18.027 12 18.65625 11.3405 18.65625 10.5625 C 18.65625 9.7865 18.027 9.15625 17.25 9.15625 z M 20.5 16.15625 C 23.639675 16.15625 26 18.250146 26 20.59375 C 26 21.482054 25.679647 22.28709 25.09375 23 L 24.8125 23.34375 L 24.875 23.75 L 24.90625 23.9375 L 24.4375 23.6875 L 23.9375 24.03125 C 23.003479 24.637812 21.813397 25 20.5 25 C 17.360325 25 15 22.937354 15 20.59375 C 15 18.251363 17.360511 16.15625 20.5 16.15625 z M 18 17.4375 C 17.41 17.4375 16.90625 17.912 16.90625 18.5 C 16.90625 19.088 17.411 19.5625 18 19.5625 C 18.587 19.5625 19.0615 19.088 19.0625 18.5 C 19.0625 17.912 18.588 17.4375 18 17.4375 z M 23.03125 17.4375 C 22.44425 17.4375 21.96875 17.912 21.96875 18.5 C 21.96875 19.088 22.44325 19.5625 23.03125 19.5625 C 23.62025 19.5625 24.09375 19.088 24.09375 18.5 C 24.09375 17.912 23.62025 17.4375 23.03125 17.4375 z"/></svg>