<svg xmlns="http://www.w3.org/2000/svg" viewBox="0 0 32 32"><path d="M 20 3 C 18.354991 3 17 4.3549901 17 6 C 17 7.6450099 18.354991 9 20 9 C 21.645009 9 23 7.6450099 23 6 C 23 4.3549901 21.645009 3 20 3 z M 20 5 C 20.564129 5 21 5.4358709 21 6 C 21 6.5641291 20.564129 7 20 7 C 19.435871 7 19 6.5641291 19 6 C 19 5.4358709 19.435871 5 20 5 z M 14.53125 7.78125 L 10.9375 8.1875 C 10.344576 8.2553769 9.8251973 8.589895 9.5 9.09375 L 7 12.96875 L 8.6875 14.03125 L 11.1875 10.1875 L 13.46875 9.9375 L 12 14.09375 C 8.6172704 14.582684 6 17.485981 6 21 C 6 24.854148 9.1458513 28 13 28 C 16.854148 28 20 24.854148 20 21 C 20 20.659871 19.953575 20.327421 19.90625 20 L 21.1875 20 L 22.53125 26.09375 L 24.46875 25.65625 L 23.15625 19.5625 C 22.9575 18.648248 22.12133 18 21.1875 18 L 19.3125 18 C 18.912504 17.161652 18.339328 16.427823 17.65625 15.8125 L 18.8125 12.59375 C 19.317019 11.199606 18.712208 9.6374933 17.40625 8.9375 L 15.71875 8 L 15.71875 8.03125 C 15.358914 7.8382653 14.935061 7.7352716 14.53125 7.78125 z M 15.53125 10.1875 L 16.46875 10.6875 C 16.912792 10.925507 17.108981 11.432394 16.9375 11.90625 L 15.9375 14.65625 C 15.361213 14.38828 14.741068 14.196145 14.09375 14.09375 L 15.53125 10.1875 z M 13 16 C 15.773268 16 18 18.226732 18 21 C 18 23.773268 15.773268 26 13 26 C 10.226732 26 8 23.773268 8 21 C 8 18.226732 10.226732 16 13 16 z"/></svg>