<svg xmlns="http://www.w3.org/2000/svg" viewBox="0 0 32 32"><path d="M 21 3 C 16.570085 3 13 6.5700855 13 11 C 13 11.234522 13.03701 11.552859 13.0625 11.84375 L 4.5 20.40625 C 2.5317152 22.374535 2.5317152 25.531715 4.5 27.5 C 6.4682848 29.468285 9.6254652 29.468285 11.59375 27.5 L 20.15625 18.9375 C 20.447141 18.962993 20.765478 19 21 19 C 25.429915 19 29 15.429915 29 11 C 29 9.6333333 28.648022 8.3664396 28.0625 7.3125 L 27.4375 6.15625 L 26.5 7.09375 L 22.1875 11.375 L 20.625 9.8125 L 24.90625 5.5 L 25.84375 4.5625 L 24.6875 3.9375 C 23.63356 3.351978 22.366667 3 21 3 z M 21 5 C 21.485935 5 21.848238 5.208554 22.28125 5.3125 L 18.5 9.09375 L 17.78125 9.8125 L 18.5 10.5 L 21.5 13.5 L 22.1875 14.21875 L 22.90625 13.5 L 26.6875 9.71875 C 26.791446 10.151762 27 10.514065 27 11 C 27 14.370085 24.370085 17 21 17 C 20.6 17 20.279071 16.999455 20.03125 16.9375 L 19.5 16.78125 L 19.09375 17.1875 L 10.1875 26.09375 C 8.9557848 27.325465 7.1379652 27.325465 5.90625 26.09375 L 5.875 26.0625 C 4.6754069 24.831406 4.6853049 23.033445 5.90625 21.8125 L 14.8125 12.90625 L 15.21875 12.5 L 15.0625 11.96875 C 15.000545 11.720929 15 11.4 15 11 C 15 7.6299145 17.629915 5 21 5 z"/></svg>