<svg xmlns="http://www.w3.org/2000/svg" viewBox="0 0 32 32"><path d="M30,9.214c0,0.172-0.138,0.311-0.311,0.311h-1.68L20.39,25.74c-0.05,0.107-0.158,0.178-0.278,0.179 c-0.001,0-0.004,0-0.004,0c-0.118,0-0.226-0.066-0.279-0.172l-3.615-7.17l-3.901,7.179c-0.056,0.103-0.156,0.161-0.282,0.163 c-0.117-0.004-0.223-0.072-0.273-0.178L4.056,9.525H2.311C2.139,9.525,2,9.385,2,9.214V8.392C2,8.22,2.139,8.081,2.311,8.081h6.214 c0.172,0,0.311,0.139,0.311,0.311v0.821c0,0.172-0.139,0.311-0.311,0.311H7.187l5.316,12.263l2.766-5.168l-3.507-7.093h-0.844 c-0.172,0-0.311-0.139-0.311-0.311V8.393c0-0.172,0.139-0.311,0.311-0.311h4.596c0.172,0,0.311,0.139,0.311,0.311v0.821 c0,0.172-0.139,0.311-0.311,0.311h-0.809l2.017,4.414l2.402-4.414h-1.473c-0.173,0-0.311-0.139-0.311-0.311V8.393 c0-0.172,0.138-0.311,0.311-0.311h4.465c0.173,0,0.311,0.139,0.311,0.311v0.821c0,0.172-0.138,0.311-0.311,0.311h-0.979 l-3.506,6.369l2.857,5.874l5.513-12.243h-1.747c-0.172,0-0.311-0.139-0.311-0.311V8.393c0-0.172,0.139-0.311,0.311-0.311h5.434 C29.862,8.082,30,8.222,30,8.393V9.214z"/></svg>