<svg xmlns="http://www.w3.org/2000/svg" viewBox="0 0 32 32"><path d="M 21.40625 5 C 20.980397 5 20.526537 5.1694656 20.25 5.40625 C 19.973463 5.6430344 19.843594 5.8935449 19.75 6.0625 C 19.75 6.0625 17.340164 10.344773 15.4375 13.71875 A 1.0001 1.0001 0 0 0 15.3125 13.40625 C 15.3005 13.38725 13.34375 10 13.34375 10 C 13.244711 9.8233928 13.092621 9.5708675 12.8125 9.34375 C 12.532379 9.1166325 12.124199 8.9375 11.6875 8.9375 L 8.78125 8.9375 C 8.369329 8.9375 7.867273 9.1077607 7.5625 9.59375 A 1.0001 1.0001 0 0 0 7.53125 9.59375 C 7.2374369 10.076995 7.3384658 10.66194 7.53125 11.03125 A 1.0001 1.0001 0 0 0 7.5625 11.0625 L 9.21875 13.96875 L 6.4375 18.875 A 1.0001 1.0001 0 0 0 6.40625 18.90625 C 6.1925594 19.323079 6.1592189 19.899223 6.4375 20.34375 C 6.6843697 20.739418 7.2062148 21 7.6875 21 L 10.5625 21 C 11.003037 21 11.443898 20.828272 11.71875 20.59375 C 11.993602 20.359228 12.12317 20.111105 12.21875 19.9375 C 12.21875 19.9375 12.793053 18.908976 13.21875 18.15625 A 1.0001 1.0001 0 0 0 13.3125 18.375 C 13.3225 18.395 17.4375 25.9375 17.4375 25.9375 C 17.53739 26.118279 17.68976 26.364744 17.96875 26.59375 C 18.24774 26.822756 18.683034 27 19.125 27 L 22 27 C 22.426429 27 22.945234 26.779898 23.21875 26.34375 C 23.511914 25.877695 23.480613 25.300053 23.28125 24.90625 A 1.0001 1.0001 0 0 0 23.25 24.875 L 19.4375 17.9375 L 25.5625 7.125 A 1.0001 1.0001 0 0 0 25.59375 7.0625 C 25.792262 6.6654768 25.854026 6.1242254 25.5625 5.65625 C 25.282773 5.2002572 24.735982 5 24.3125 5 L 21.40625 5 z M 21.53125 7 L 23.3125 7 L 17.4375 17.4375 C 17.322493 17.638763 17.33902 18.119968 17.46875 18.40625 L 17.4375 18.40625 L 17.46875 18.46875 L 17.46875 18.5 L 21.03125 25 L 19.21875 25 C 19.20848 24.98555 19.2037 24.9981 19.1875 24.96875 C 19.1875 24.96875 15.829314 18.771911 15.375 17.9375 C 16.058907 16.725356 21.5 7.03125 21.5 7.03125 C 21.523233 6.9893097 21.518289 7.0189224 21.53125 7 z M 9.78125 10.9375 L 11.5625 10.9375 C 11.5693 10.9465 11.5674 10.92171 11.59375 10.96875 A 1.0001 1.0001 0 0 0 11.625 11 C 11.625 11 12.865793 13.159831 13.3125 13.9375 C 12.801474 14.841691 10.46875 18.96875 10.46875 18.96875 C 10.44897 19.00467 10.44976 18.98228 10.4375 19 L 8.65625 19 L 11.25 14.46875 A 1.0001 1.0001 0 0 0 11.28125 14.34375 C 11.30312 14.29271 11.375 14.17125 11.375 13.96875 C 11.375 13.76625 11.30312 13.613542 11.28125 13.5625 A 1.0001 1.0001 0 0 0 11.21875 13.4375 L 9.78125 10.9375 z"/></svg>