<svg xmlns="http://www.w3.org/2000/svg" viewBox="0 0 32 32"><path d="M 14.34375 4 C 12.869963 4.050627 9.740375 4.988625 9.09375 5.65625 C 8.85575 5.90425 8.7425 6.229 8.8125 6.5 C 8.9295 6.739 13.875 14.5 13.875 14.5 C 14.608 15.686 15.21125 15.4985 15.40625 15.4375 C 15.60125 15.3775 16.192 15.1975 16.125 13.8125 C 16.054 12.1915 15.58925 4.99125 15.53125 4.65625 C 15.44825 4.35325 15.18575 4.11625 14.84375 4.03125 C 14.71325 3.99875 14.554291 3.9927676 14.34375 4 z M 21.8125 11.09375 C 21.665625 11.09925 21.53325 11.13325 21.40625 11.21875 C 21.24825 11.32175 21.1275 11.47375 18.9375 14.46875 C 18.9375 14.46875 17.9495 15.83175 17.9375 15.84375 C 17.6765 16.15975 17.6835 16.611 17.9375 17 C 18.2015 17.404 18.62425 17.614 19.03125 17.5 C 19.03125 17.5 19.03625 17.52525 19.03125 17.53125 C 19.23425 17.45625 19.594 17.3435 20.25 17.1875 C 24.343 16.1965 24.49425 16.1675 24.65625 16.0625 C 24.90225 15.8955 25.021 15.591 25 15.25 C 25 15.239 25.002 15.23075 25 15.21875 C 24.895 14.21575 23.15025 11.6105 22.28125 11.1875 C 22.12775 11.113 21.959375 11.08825 21.8125 11.09375 z M 8.0625 15.125 C 7.7665 15.114 7.4955 15.2745 7.3125 15.5625 C 6.9235 16.1885 6.77125 18.1325 6.90625 19.4375 C 6.95525 19.8695 7.012 20.25375 7.125 20.46875 C 7.281 20.76475 7.54575 20.9275 7.84375 20.9375 C 8.03575 20.9465 8.18125 20.908 11.78125 19.75 C 11.78125 19.75 13.368 19.254 13.375 19.25 C 13.774 19.149 14.0345 18.7815 14.0625 18.3125 C 14.0885 17.8315 13.8445 17.402 13.4375 17.25 C 13.4375 17.25 12.3155 16.78125 12.3125 16.78125 C 8.4405 15.18425 8.2585 15.127 8.0625 15.125 z M 19.09375 19.53125 C 18.796328 19.524734 18.4705 19.666 18.25 19.9375 C 17.945 20.3095 17.91325 20.8165 18.15625 21.1875 L 18.78125 22.21875 C 20.91925 25.69175 21.095 25.91025 21.25 26.03125 C 21.488 26.21825 21.77975 26.25 22.09375 26.125 C 23.00475 25.761 24.984 23.25225 25.125 22.28125 C 25.172 21.94225 25.07675 21.65475 24.84375 21.46875 C 24.68975 21.35375 24.56775 21.308 20.96875 20.125 C 20.96875 20.125 19.395 19.60475 19.375 19.59375 C 19.27975 19.557 19.192891 19.533422 19.09375 19.53125 z M 14.71875 20.65625 C 14.508625 20.7035 14.3225 20.831 14.1875 21 C 14.1875 21 13.40825 21.9375 13.40625 21.9375 C 10.69225 25.1225 10.59625 25.2485 10.53125 25.4375 C 10.49025 25.5485 10.45575 25.6945 10.46875 25.8125 C 10.48475 25.9825 10.5595 26.12725 10.6875 26.28125 C 11.3165 27.02825 14.3505 28.13375 15.3125 27.96875 C 15.6475 27.90775 15.86275 27.74975 15.96875 27.46875 C 16.03075 27.28575 16.0515 27.16 16.0625 23.375 C 16.0625 23.375 16.0615 21.7055 16.0625 21.6875 C 16.0885 21.2785 15.84125 20.88675 15.40625 20.71875 C 15.18275 20.63275 14.928875 20.609 14.71875 20.65625 z"/></svg>