<svg xmlns="http://www.w3.org/2000/svg" viewBox="0 0 32 32"><path d="M 16 6 C 12.232613 6 8.9061461 6.3915243 6.875 6.6875 C 5.1969947 6.9321537 3.8398593 8.1996921 3.53125 9.875 C 3.2683908 11.301505 3 13.386967 3 16 C 3 18.61206 3.2684065 20.69858 3.53125 22.125 C 3.8411667 23.800153 5.1960063 25.069033 6.875 25.3125 C 8.9124112 25.608352 12.252866 26 16 26 C 19.746153 26 23.086728 25.608329 25.125 25.3125 C 26.804743 25.069117 28.160169 23.801489 28.46875 22.125 C 28.731498 20.697021 29 18.605507 29 16 C 29 13.393519 28.732674 11.303721 28.46875 9.875 C 28.160158 8.1997853 26.803517 6.9322283 25.125 6.6875 C 23.093901 6.3915311 19.766406 6 16 6 z M 16 8 C 19.631594 8 22.880849 8.3702189 24.84375 8.65625 C 25.689233 8.7795217 26.346592 9.4172147 26.5 10.25 C 26.744076 11.571279 27 13.528481 27 16 C 27 18.470493 26.743252 20.427979 26.5 21.75 C 26.346581 22.583511 25.690007 23.221133 24.84375 23.34375 C 22.872022 23.629921 19.609847 24 16 24 C 12.389134 24 9.1268388 23.629898 7.15625 23.34375 C 6.3112437 23.221217 5.6540833 22.582847 5.5 21.75 C 5.2568435 20.43042 5 18.47794 5 16 C 5 13.521033 5.2568592 11.569495 5.5 10.25 C 5.6533907 9.4173079 6.3102553 8.7795963 7.15625 8.65625 C 9.1191039 8.3702257 12.367387 8 16 8 z M 13 10.28125 L 13 12 L 13 20 L 13 21.71875 L 14.5 20.875 L 21.5 16.875 L 23 16 L 21.5 15.125 L 14.5 11.125 L 13 10.28125 z M 15 13.71875 L 18.96875 16 L 15 18.28125 L 15 13.71875 z"/></svg>