<svg xmlns="http://www.w3.org/2000/svg" viewBox="0 0 32 32"><path d="M 8.78125 4 L 10.4375 9.4375 L 10.4375 12.96875 L 11.8125 12.96875 L 11.8125 9.25 L 13.4375 4 L 12.03125 4 L 11.15625 7.59375 L 11.09375 7.59375 L 10.1875 4 L 8.78125 4 z M 15.21875 6.1875 C 14.65975 6.1875 14.207 6.35225 13.875 6.65625 C 13.543 6.95825 13.375 7.362 13.375 7.875 L 13.375 11.3125 C 13.375 11.8755 13.552 12.32425 13.875 12.65625 C 14.201 12.98925 14.61525 13.15625 15.15625 13.15625 C 15.71625 13.15625 16.14775 12.97825 16.46875 12.65625 C 16.78675 12.33225 16.9375 11.91075 16.9375 11.34375 L 16.9375 7.90625 C 16.9375 7.40225 16.79375 6.97525 16.46875 6.65625 C 16.14475 6.33425 15.73075 6.1875 15.21875 6.1875 z M 18 6.34375 L 18 11.90625 C 18 12.30325 18.07375 12.58425 18.21875 12.78125 C 18.36375 12.97825 18.591 13.0625 18.875 13.0625 C 19.105 13.0625 19.3185 13.014 19.5625 12.875 C 19.8095 12.735 20.05425 12.52 20.28125 12.25 L 20.28125 12.96875 L 21.5 12.96875 L 21.5 6.34375 L 20.28125 6.34375 L 20.28125 11.375 C 20.16625 11.518 20.04525 11.658 19.90625 11.75 C 19.76925 11.843 19.6535 11.875 19.5625 11.875 C 19.4485 11.875 19.3625 11.85025 19.3125 11.78125 C 19.2595 11.71125 19.21875 11.5915 19.21875 11.4375 L 19.21875 6.34375 L 18 6.34375 z M 15.15625 7.34375 C 15.31925 7.34375 15.4635 7.38075 15.5625 7.46875 C 15.6625 7.55775 15.6875 7.6695 15.6875 7.8125 L 15.6875 11.4375 C 15.6875 11.6155 15.6605 11.74475 15.5625 11.84375 C 15.4625 11.94575 15.32425 12 15.15625 12 C 14.99425 12 14.86725 11.94175 14.78125 11.84375 C 14.69025 11.74375 14.65625 11.6185 14.65625 11.4375 C 14.65625 11.4375 14.65525 7.8125 14.65625 7.8125 C 14.65625 7.6695 14.68725 7.55775 14.78125 7.46875 C 14.87525 7.37975 15.00525 7.34375 15.15625 7.34375 z M 15 14.53125 C 12.625 14.52825 10.30725 14.56025 8.03125 14.65625 C 6.44025 14.65625 5.125 15.95625 5.125 17.53125 C 5.031 18.77725 4.997 20.03225 5 21.28125 C 4.996 22.52825 5.029 23.751 5.125 25 C 5.125 26.578 6.43925 27.875 8.03125 27.875 C 10.30725 27.969 12.625 28.004 15 28 C 17.377 28.005 19.69375 27.969 21.96875 27.875 C 23.56075 27.875 24.875 26.578 24.875 25 C 24.97 23.751 25.004 22.52825 25 21.28125 C 25.005 20.03225 24.971 18.77725 24.875 17.53125 C 24.875 15.95525 23.56175 14.65625 21.96875 14.65625 C 19.69375 14.56125 17.377 14.52925 15 14.53125 z M 6.5625 16.59375 L 10.75 16.59375 C 10.826 16.59375 10.875 16.64275 10.875 16.71875 L 10.875 18 C 10.875 18.076 10.826 18.125 10.75 18.125 L 9.46875 18.125 L 9.46875 25.5625 C 9.46875 25.6385 9.41975 25.6875 9.34375 25.6875 L 7.96875 25.6875 C 7.89275 25.6875 7.8125 25.6385 7.8125 25.5625 L 7.8125 18.125 L 6.5625 18.125 C 6.4865 18.125 6.40625 18.076 6.40625 18 L 6.40625 16.71875 C 6.40625 16.64275 6.4865 16.59375 6.5625 16.59375 z M 15.375 16.59375 L 16.59375 16.59375 C 16.66975 16.59375 16.75 16.64275 16.75 16.71875 L 16.75 19.21875 C 16.851 19.12675 16.9535 19.063 17.0625 19 C 17.2695 18.885 17.4765 18.8125 17.6875 18.8125 C 18.1155 18.8125 18.42725 18.96525 18.65625 19.28125 C 18.87525 19.58425 19 20.03375 19 20.59375 L 19 24.21875 C 19 24.71375 18.8975 25.107 18.6875 25.375 C 18.4705 25.655 18.152 25.78125 17.75 25.78125 C 17.495 25.78125 17.2695 25.729 17.0625 25.625 C 16.9515 25.568 16.851 25.49625 16.75 25.40625 L 16.75 25.5625 C 16.75 25.6385 16.66975 25.6875 16.59375 25.6875 L 15.375 25.6875 C 15.299 25.6875 15.25 25.6385 15.25 25.5625 L 15.25 16.71875 C 15.25 16.64275 15.299 16.59375 15.375 16.59375 z M 21.625 18.71875 C 22.218 18.71875 22.677 18.92325 23 19.28125 C 23.321 19.63725 23.5 20.13025 23.5 20.78125 L 23.5 22.46875 C 23.5 22.54475 23.41975 22.59375 23.34375 22.59375 L 21.15625 22.59375 L 21.15625 23.6875 C 21.15625 24.0865 21.206 24.2395 21.25 24.3125 C 21.286 24.3715 21.3725 24.46875 21.5625 24.46875 C 21.7165 24.46875 21.821 24.41675 21.875 24.34375 C 21.901 24.30575 21.96875 24.1635 21.96875 23.6875 L 21.96875 23.21875 C 21.96875 23.14275 22.01775 23.09375 22.09375 23.09375 L 23.34375 23.09375 C 23.41975 23.09375 23.46875 23.14275 23.46875 23.21875 L 23.46875 23.71875 C 23.46875 24.42175 23.325 24.9505 23 25.3125 C 22.673 25.6785 22.17625 25.875 21.53125 25.875 C 20.94925 25.875 20.462 25.67025 20.125 25.28125 C 19.792 24.89825 19.625 24.37775 19.625 23.71875 L 19.625 20.78125 C 19.625 20.18125 19.8205 19.6945 20.1875 19.3125 C 20.5555 18.9295 21.044 18.71875 21.625 18.71875 z M 10.71875 18.90625 L 11.9375 18.90625 C 12.0135 18.90625 12.09375 18.95525 12.09375 19.03125 L 12.09375 24.03125 C 12.09375 24.19525 12.106 24.25625 12.125 24.28125 C 12.133 24.29225 12.147 24.34375 12.25 24.34375 C 12.285 24.34375 12.38725 24.31675 12.53125 24.21875 C 12.64825 24.13975 12.74975 24.0495 12.84375 23.9375 L 12.84375 19.03125 C 12.84375 18.95525 12.89275 18.90625 12.96875 18.90625 L 14.1875 18.90625 C 14.2635 18.90625 14.3125 18.95525 14.3125 19.03125 L 14.3125 25.5625 L 14.34375 25.5625 C 14.34375 25.6385 14.2635 25.6875 14.1875 25.6875 L 12.96875 25.6875 C 12.89275 25.6875 12.84375 25.6385 12.84375 25.5625 L 12.84375 25.1875 C 12.68175 25.3445 12.51175 25.4675 12.34375 25.5625 C 12.07975 25.7145 11.8185 25.78125 11.5625 25.78125 C 11.2375 25.78125 11.01175 25.6685 10.84375 25.4375 C 10.68475 25.2185 10.59375 24.915 10.59375 24.5 L 10.59375 19.03125 C 10.59375 18.95525 10.64275 18.90625 10.71875 18.90625 z M 17.1875 20.125 C 17.107375 20.110875 17.00625 20.1375 16.90625 20.1875 C 16.84925 20.2155 16.809 20.2525 16.75 20.3125 L 16.75 24.28125 C 16.823 24.35525 16.8715 24.4035 16.9375 24.4375 C 17.0115 24.4745 17.1055 24.46875 17.1875 24.46875 C 17.3425 24.46875 17.39125 24.42725 17.40625 24.40625 C 17.44425 24.35825 17.46875 24.24825 17.46875 24.03125 L 17.46875 20.65625 C 17.46875 20.46925 17.442 20.338 17.375 20.25 C 17.3305 20.1895 17.267625 20.139125 17.1875 20.125 z M 21.5625 20.15625 C 21.4165 20.15625 21.31 20.19925 21.25 20.28125 C 21.207 20.34125 21.15625 20.47625 21.15625 20.78125 L 21.15625 21.3125 L 21.96875 21.3125 L 21.96875 20.78125 C 21.96875 20.48125 21.88975 20.34825 21.84375 20.28125 C 21.78775 20.20125 21.7025 20.15625 21.5625 20.15625 z"/></svg>