<?xml version="1.0" encoding="UTF-8"?>
<svg width="64px" height="64px" viewBox="0 0 64 64" version="1.1" xmlns="http://www.w3.org/2000/svg" xmlns:xlink="http://www.w3.org/1999/xlink">
    <title>film</title>
    <desc>Created with Sketch.</desc>
    <defs></defs>
    <g id="film" stroke="none" stroke-width="1" fill="none" fill-rule="evenodd">
        <path d="M0,0 C0.666666667,0 2,0 2.66666667,0 C17.3333333,0 46.6666667,0 61.3333333,0 C62,0 63.3333333,0 64,0 C64,0.666666667 64,2 64,2.66666667 C64,17.3333333 64,46.6666667 64,61.3333333 C64,62 64,63.3333333 64,64 C63.3333333,64 62,64 61.3333333,64 C46.6666667,64 17.3333333,64 2.66666667,64 C2,64 0.666666667,64 0,64 C0,63.3333333 0,62 0,61.3333333 C0,46.6666667 0,17.3333333 0,2.66666667 C0,2 0,0.666666667 0,0 Z M5,5 C5,18.25 5,44.75 5,58 C6.325,58 8.975,58 10.3,58 C10.3,57.3375 10.3,56.0125 10.3,55.35 C11.625,55.35 14.275,55.35 15.6,55.35 C15.6,56.0125 15.6,57.3375 15.6,58 C23.55,58 39.45,58 47.4,58 C47.4,57.3375 47.4,56.0125 47.4,55.35 C48.725,55.35 51.375,55.35 52.7,55.35 C52.7,56.0125 52.7,57.3375 52.7,58 C54.025,58 56.675,58 58,58 C58,44.75 58,18.25 58,5 C56.675,5 54.025,5 52.7,5 C52.7,5.6625 52.7,6.9875 52.7,7.65 C51.375,7.65 48.725,7.65 47.4,7.65 C47.4,6.9875 47.4,5.6625 47.4,5 C39.45,5 23.55,5 15.6,5 C15.6,5.6625 15.6,6.9875 15.6,7.65 C14.275,7.65 11.625,7.65 10.3,7.65 C10.3,6.9875 10.3,5.6625 10.3,5 C8.975,5 6.325,5 5,5 Z M11,13 C12.25,13 14.75,13 16,13 C16,14.25 16,16.75 16,18 C14.75,18 12.25,18 11,18 C11,16.75 11,14.25 11,13 Z M48,13 C49.25,13 51.75,13 53,13 C53,14.25 53,16.75 53,18 C51.75,18 49.25,18 48,18 C48,16.75 48,14.25 48,13 Z M11,24 C12.25,24 14.75,24 16,24 C16,25.25 16,27.75 16,29 C14.75,29 12.25,29 11,29 C11,27.75 11,25.25 11,24 Z M48,24 C49.25,24 51.75,24 53,24 C53,25.25 53,27.75 53,29 C51.75,29 49.25,29 48,29 C48,27.75 48,25.25 48,24 Z M11,35 C12.25,35 14.75,35 16,35 C16,36.25 16,38.75 16,40 C14.75,40 12.25,40 11,40 C11,38.75 11,36.25 11,35 Z M48,35 C49.25,35 51.75,35 53,35 C53,36.25 53,38.75 53,40 C51.75,40 49.25,40 48,40 C48,38.75 48,36.25 48,35 Z M11,45 C12.25,45 14.75,45 16,45 C16,46.25 16,48.75 16,50 C14.75,50 12.25,50 11,50 C11,48.75 11,46.25 11,45 Z M48,45 C49.25,45 51.75,45 53,45 C53,46.25 53,48.75 53,50 C51.75,50 49.25,50 48,50 C48,48.75 48,46.25 48,45 Z" fill="#000000" fill-rule="nonzero"></path>
    </g>
</svg>