<?xml version="1.0" encoding="UTF-8"?>
<svg width="49px" height="64px" viewBox="0 0 49 64" version="1.1" xmlns="http://www.w3.org/2000/svg" xmlns:xlink="http://www.w3.org/1999/xlink">
    <title>glass</title>
    <desc>Created with Sketch.</desc>
    <defs></defs>
    <g id="glass" stroke="none" stroke-width="1" fill="none" fill-rule="evenodd" transform="translate(-8.000000, 0.000000)">
        <path d="M11.4027778,0 L53.5972222,0 C53.9375,0.869565217 54.1643519,1.44927536 54.2777778,1.73913043 C56.0925926,5.91304348 57,10.8985507 57,16.6956522 C57,23.0724641 54.9016204,28.6376815 50.7048611,33.3913043 C46.5081019,38.1449272 41.3472222,40.8695651 35.2222222,41.5652178 C35.2222222,45.31401 35.2222222,51.0960075 35.2222222,58.9112103 L49.0004883,58.9112103 L49.0004883,64 L15.9939423,64 L15.9939423,58.9112103 L29.7777778,58.9112103 C29.7777778,50.1588095 29.7777778,44.376812 29.7777778,41.5652178 C23.6527778,40.8695651 18.4918981,38.1449272 14.2951389,33.3913043 C10.0983796,28.6376815 8,23.0724641 8,16.6956522 C8,10.8985507 8.90740741,5.91304348 10.7222222,1.73913043 C10.8734568,1.352657 11.1003086,0.77294686 11.4027778,0 Z M15.1458333,5 C14.0115741,8.47216702 13.4444444,12.3035241 13.4444444,16.4940711 C13.4444444,22.1213771 15.2876157,26.880641 18.9739581,30.7718629 C22.6603006,34.6630847 27.1689812,36.6086957 32.5,36.6086957 C37.2638889,36.6086957 41.4322916,34.9624093 45.0052081,31.6698367 C48.5781246,28.3772641 50.6481479,24.2765148 51.2152778,19.3675889 C38.6799496,19.3082368 23.0107893,19.2340467 13.6092932,19.1895326 C13.515341,18.4693338 11.6264704,17.6386686 11.6116943,16.6976318 C11.5969183,15.756595 13.461162,15.1534886 13.5354128,14.1222443 C17.2745237,14.1483679 45.0770831,14.0233241 51.3854171,14.00354 C51.1585647,10.6511026 50.6481479,7.39459816 49.8541667,5 C38.2847222,5 23.8229167,5 15.1458333,5 Z" fill="#000000" fill-rule="nonzero"></path>
    </g>
</svg>