<?xml version="1.0" encoding="UTF-8"?>
<svg width="64px" height="64px" viewBox="0 0 64 64" version="1.1" xmlns="http://www.w3.org/2000/svg" xmlns:xlink="http://www.w3.org/1999/xlink">
    <title>heart</title>
    <desc>Created with Sketch.</desc>
    <defs></defs>
    <g id="heart" stroke="none" stroke-width="1" fill="none" fill-rule="evenodd">
        <path d="M32,6.07055664 C36.8571431,1.68960426 41.8095241,0 46.8571429,0 C51.6190476,0 55.6666667,1.66666667 59,5 C62.3333333,8.33333333 64,12.3809524 64,17.1428571 C64,38.8571429 38.6071428,57.4285714 32,64 L32.0001919,57.248559 C37.4126673,51.8653401 58.8171387,34.2965511 58.8171387,19.0264218 C58.8171387,15.1255386 57.9781768,11.8291568 55.2475586,9.09853859 C52.5169403,6.36792034 49.3974877,5.33066466 45.4966045,5.33066466 C41.3616685,5.33066466 35.979093,9.0424634 32,12.6311029 C28.020907,9.0424634 22.6383315,5.33066466 18.5033955,5.33066466 C14.6025123,5.33066466 11.4830597,6.36792034 8.75244141,9.09853859 C6.02182315,11.8291568 5.18286133,15.1255386 5.18286133,19.0264218 C5.18286133,34.2965511 26.5873327,51.8653401 31.9998081,57.248559 L32,64 C25.3928572,57.4285714 0,38.8571429 0,17.1428571 C2.91582571e-16,12.3809524 1.66666667,8.33333333 5,5 C8.33333333,1.66666667 12.3809524,0 17.1428571,0 C22.1904759,0 27.1428569,1.68960426 32,6.07055664 Z" fill="#000000" fill-rule="nonzero"></path>
    </g>
</svg>