<?xml version="1.0" encoding="UTF-8"?>
<svg width="64px" height="64px" viewBox="0 0 64 64" version="1.1" xmlns="http://www.w3.org/2000/svg" xmlns:xlink="http://www.w3.org/1999/xlink">
    <title>music</title>
    <desc>Created with Sketch.</desc>
    <defs></defs>
    <g id="music" stroke="none" stroke-width="1" fill="none" fill-rule="evenodd">
        <path d="M64,0 C64,22.8888889 64,37.8888889 64,45 C64,47.8888889 62.9444444,50.3888889 60.8333333,52.5 C58.7222222,54.6111111 56.2222222,55.6666667 53.3333333,55.6666667 C50.4444444,55.6666667 47.9444444,54.6111111 45.8333333,52.5 C43.7222222,50.3888889 42.6666667,47.8888889 42.6666667,45 C42.6666667,42.1111111 43.7222222,39.6111111 45.8333333,37.5 C47.9444444,35.3888889 50.4444444,34.3333333 53.3333333,34.3333333 C55.2222219,34.3333333 56.9999997,34.8333332 58.6666667,35.8333329 C58.6666667,31.4629627 58.6666667,25.5368089 58.6666667,18.0548715 L21.3333333,25.0548706 C21.3333333,38.7127346 21.3333333,48.0277777 21.3333333,53 C21.3333333,55.8888889 20.2777778,58.3888889 18.1666667,60.5 C16.0555556,62.6111111 13.5555556,63.6666667 10.6666667,63.6666667 C7.77777778,63.6666667 5.27777778,62.6111111 3.16666667,60.5 C1.05555556,58.3888889 0,55.8888889 0,53 C0,50.1111111 1.05555556,47.6111111 3.16666667,45.5 C5.27777778,43.3888889 7.77777778,42.3333333 10.6666667,42.3333333 C12.5555553,42.3333333 14.333333,42.8333332 16,43.8333329 C16,36.3888886 16,24.7777776 16,9 L64,0 Z M58.6666667,7.06860437 L21.3333333,14.0686035 L21.3333333,19.4019368 L58.6666667,12.4019377 L58.6666667,7.06860437 Z M53.3333333,39.6666667 C51.8888892,39.6666667 50.6388892,40.1944445 49.5833335,41.2500002 C48.5277778,42.3055559 48,43.5555558 48,45 C48,46.4444442 48.5277778,47.6944441 49.5833335,48.7499998 C50.6388892,49.8055555 51.8888892,50.3333333 53.3333333,50.3333333 C54.7777775,50.3333333 56.0277774,49.8055555 57.0833331,48.7499998 C58.1388888,47.6944441 58.6666667,46.4444442 58.6666667,45 C58.6666667,43.5555558 58.1388888,42.3055559 57.0833331,41.2500002 C56.0277774,40.1944445 54.7777775,39.6666667 53.3333333,39.6666667 Z M10.6666667,47.6666667 C9.22222251,47.6666667 7.97222258,48.1944445 6.91666688,49.2500002 C5.86111118,50.3055559 5.33333333,51.5555558 5.33333333,53 C5.33333333,54.4444442 5.86111118,55.6944441 6.91666688,56.7499998 C7.97222258,57.8055555 9.22222251,58.3333333 10.6666667,58.3333333 C12.1111108,58.3333333 13.3611108,57.8055555 14.4166665,56.7499998 C15.4722222,55.6944441 16,54.4444442 16,53 C16,51.5555558 15.4722222,50.3055559 14.4166665,49.2500002 C13.3611108,48.1944445 12.1111108,47.6666667 10.6666667,47.6666667 Z" fill="#000000" fill-rule="nonzero"></path>
    </g>
</svg>