<?xml version="1.0" encoding="UTF-8"?>
<svg width="64px" height="64px" viewBox="0 0 64 64" version="1.1" xmlns="http://www.w3.org/2000/svg" xmlns:xlink="http://www.w3.org/1999/xlink">
    <title>search</title>
    <desc>Created with Sketch.</desc>
    <defs></defs>
    <g id="search" stroke="none" stroke-width="1" fill="none" fill-rule="evenodd">
        <path d="M39.0500607,0 C45.8683252,0 51.7051729,2.42771541 56.5606038,7.28314624 C61.4160346,12.1385771 63.84375,17.9754248 63.84375,24.7936893 C63.84375,31.6119539 61.4160346,37.4488016 56.5606038,42.3042324 C51.7051729,47.1596632 45.8683252,49.5873786 39.0500607,49.5873786 C33.1615597,49.5873786 27.9445544,47.7278519 23.3990447,44.0087985 C16.8390476,50.620449 8.63905122,58.8850121 3.7190534,63.84375 C2.78929005,62.9139867 0.92976335,61.05446 0,60.1246966 C4.95873786,55.2046988 14.8762136,45.3647031 19.8349515,40.4447053 C16.1158981,35.8991956 14.2563714,30.6821903 14.2563714,24.7936893 C14.2563714,17.9754248 16.6840869,12.1385772 21.539518,7.28314663 C26.3949486,2.42771554 32.2317961,0 39.0500607,0 Z M39.0500607,4.95873786 C33.5747879,4.95873786 28.9001444,6.89574491 25.0261304,10.769759 C21.1521163,14.6437731 19.2151092,19.3184165 19.2151092,24.7936893 C19.2151092,30.2689621 21.1521163,34.9436056 25.0261304,38.8176196 C28.9001444,42.6916337 33.5747879,44.6286408 39.0500607,44.6286408 C44.5253335,44.6286408 49.1999769,42.6916337 53.073991,38.8176196 C56.9480051,34.9436056 58.8850121,30.2689621 58.8850121,24.7936893 C58.8850121,19.3184165 56.9480051,14.6437731 53.073991,10.769759 C49.1999769,6.89574491 44.5253335,4.95873786 39.0500607,4.95873786 Z" fill="#000000" fill-rule="nonzero"></path>
    </g>
</svg>