<?xml version="1.0" encoding="UTF-8"?>
<svg width="64px" height="61px" viewBox="0 0 64 61" version="1.1" xmlns="http://www.w3.org/2000/svg" xmlns:xlink="http://www.w3.org/1999/xlink">
    <title>star</title>
    <desc>Created with Sketch.</desc>
    <defs></defs>
    <g id="star" stroke="none" stroke-width="1" fill="none" fill-rule="evenodd" transform="translate(0.000000, -1.000000)">
        <path d="M64,24.3323816 C59.7729258,28.140242 51.3187774,35.7559628 47.0917032,39.5638232 C48.2794762,45.1533429 50.655022,56.3323824 51.842795,61.9219021 C46.8820962,59.0922076 36.9606987,53.4328187 32,50.6031243 C27.0393013,53.4328187 17.1179038,59.0922076 12.157205,61.9219021 C13.344978,56.3323824 15.7205238,45.1533429 16.9082968,39.5638232 C12.6812226,35.7559628 4.22707419,28.140242 0,24.3323816 C5.65938853,23.7384953 16.9781656,22.5507225 22.6375541,21.9568361 C24.9781656,16.7166614 29.6593885,6.23631193 32,0.996137195 C34.3406115,6.23631193 39.0218344,16.7166614 41.3624459,21.9568361 C47.0218344,22.5507225 58.3406115,23.7384953 64,24.3323816 Z" fill="#000000" fill-rule="nonzero"></path>
    </g>
</svg>