<?xml version="1.0" encoding="UTF-8"?>
<svg width="64px" height="61px" viewBox="0 0 64 61" version="1.1" xmlns="http://www.w3.org/2000/svg" xmlns:xlink="http://www.w3.org/1999/xlink">
    <title>star-o</title>
    <desc>Created with Sketch.</desc>
    <defs></defs>
    <g id="star-o" stroke="none" stroke-width="1" fill="none" fill-rule="evenodd" transform="translate(0.000000, -1.000000)">
        <path d="M64,24.3323816 C59.7729258,28.140242 51.3187774,35.7559628 47.0917032,39.5638232 C48.2794762,45.1533429 50.655022,56.3323824 51.842795,61.9219021 C46.8820962,59.0922076 36.9606987,53.4328187 32,50.6031243 C27.0393013,53.4328187 17.1179038,59.0922076 12.157205,61.9219021 C13.344978,56.3323824 15.7205238,45.1533429 16.9082968,39.5638232 C12.6812226,35.7559628 4.22707419,28.140242 0,24.3323816 C5.65938853,23.7384953 16.9781656,22.5507225 22.6375541,21.9568361 C24.9781656,16.7166614 29.6593885,6.23631193 32,0.996137195 C34.3406115,6.23631193 39.0218344,16.7166614 41.3624459,21.9568361 C47.0218344,22.5507225 58.3406115,23.7384953 64,24.3323816 Z M32,12.8521739 C30.6352871,15.9477424 27.9058612,22.1388792 26.5411483,25.2344477 C26.4080056,25.5340189 26.1417201,26.1331614 26.0085774,26.4327326 C25.7090062,26.4327326 25.1098637,26.4327326 24.8102925,26.4327326 C21.4817242,26.798875 14.8245875,27.5311599 11.4960192,27.8973023 C13.9591598,30.1274432 18.8854409,34.5877249 21.3485814,36.8178657 C21.6148669,37.0508656 22.1474378,37.5168653 22.4137233,37.7498652 C22.3471519,38.0494362 22.2140092,38.6485784 22.1474378,38.9481494 C21.4151528,42.2101464 19.9505827,48.7341403 19.2182977,51.9961372 C22.1474378,50.331853 28.005718,47.0032847 30.9348581,45.3390006 C31.2011436,45.2058579 31.7337145,44.9395724 32,44.8064297 C32.2662855,44.9395724 32.7988564,45.2058579 33.0651419,45.3390006 C35.994282,47.0032847 41.8525622,50.331853 44.7817023,51.9961372 C44.0494173,48.7341403 42.5848472,42.2101464 41.8525622,38.9481494 C41.7859908,38.6485784 41.6528481,38.0494362 41.5862767,37.7498652 C41.8525622,37.5168653 42.3851331,37.0508656 42.6514186,36.8178657 C45.1145591,34.5877249 50.0408402,30.1274432 52.5039808,27.8973023 C49.1754125,27.5311599 42.5182758,26.798875 39.1897075,26.4327326 C38.8901363,26.4327326 38.2909938,26.4327326 37.9914226,26.4327326 C37.8582799,26.1331614 37.5919944,25.5340189 37.4588517,25.2344477 C36.0941388,22.1388792 33.3647129,15.9477424 32,12.8521739 Z" fill="#000000" fill-rule="nonzero"></path>
    </g>
</svg>