<?xml version="1.0" encoding="UTF-8"?>
<svg width="59px" height="64px" viewBox="0 0 59 64" version="1.1" xmlns="http://www.w3.org/2000/svg" xmlns:xlink="http://www.w3.org/1999/xlink">
    <title>user</title>
    <desc>Created with Sketch.</desc>
    <defs></defs>
    <g id="user" stroke="none" stroke-width="1" fill="none" fill-rule="evenodd" transform="translate(-3.000000, 0.000000)">
        <path d="M32.0909091,0 C37.6666667,0 42.4545455,2 46.4545455,6 C50.4545455,10 52.4545455,14.7878788 52.4545455,20.3636364 C52.4545455,23.7575758 51.6363636,26.969697 49.9999998,30 C48.363636,33.030303 46.1515148,35.4545453 43.3636364,37.2727268 C48.6969697,39.5757574 53,43.1212122 56.2727273,47.9090911 C59.5454545,52.6969701 61.1818182,58.0606064 61.1818182,64 C59.2424242,64 56.8181818,64 55.3636364,64 C55.3636364,57.5757579 53.090909,52.0909095 48.5454543,47.5454548 C43.9999996,43.0000001 38.5151512,40.7272727 32.0909091,40.7272727 C25.666667,40.7272727 20.1818186,43.0000001 15.6363639,47.5454548 C11.0909092,52.0909095 8.81818182,57.5757579 8.81818182,64 C6.87878788,64 4.45454545,64 3,64 C3,58.0606064 4.63636364,52.6969701 7.90909091,47.9090911 C11.1818182,43.1212122 15.4848485,39.5757574 20.8181818,37.2727268 C18.0303033,35.4545453 15.8181822,33.030303 14.1818184,30 C12.5454546,26.969697 11.7272727,23.7575758 11.7272727,20.3636364 C11.7272727,14.7878788 13.7272726,9.99999984 17.7272723,5.99999953 C21.7272726,1.99999984 26.5151515,0 32.0909091,0 Z M32.0909091,5.81818182 C28.0909094,5.81818182 24.6666671,7.24242432 21.8181821,10.0909093 C18.969697,12.9393943 17.5454545,16.3636367 17.5454545,20.3636364 C17.5454545,24.3636361 18.969697,27.7878784 21.8181821,30.6363634 C24.6666671,33.4848484 28.0909094,34.9090909 32.0909091,34.9090909 C36.0909088,34.9090909 39.5151511,33.4848484 42.3636361,30.6363634 C45.2121211,27.7878784 46.6363636,24.3636361 46.6363636,20.3636364 C46.6363636,16.3636367 45.2121211,12.9393943 42.3636361,10.0909093 C39.5151511,7.24242432 36.0909088,5.81818182 32.0909091,5.81818182 Z" fill="#000000" fill-rule="nonzero"></path>
    </g>
</svg>