<?xml version="1.0" encoding="UTF-8"?>
<svg width="59px" height="76px" viewBox="0 0 59 76" version="1.1" xmlns="http://www.w3.org/2000/svg" xmlns:xlink="http://www.w3.org/1999/xlink">
    <!-- Generator: Sketch 48.1 (47250) - http://www.bohemiancoding.com/sketch -->
    <title>500px</title>
    <desc>Created with Sketch.</desc>
    <defs></defs>
    <g id="500px---f26e" stroke="none" stroke-width="1" fill="none" fill-rule="evenodd" transform="translate(-9.000000, 0.000000)">
        <path d="M19.9734061,51.6104471 C18.9723759,49.4214735 18.9107741,48.789446 21.1130404,48.0495112 C25.055559,46.8162867 22.3450775,49.4677195 27.7660406,55.6338422 L27.812242,55.6338422 L27.812242,41.1588691 C27.9970476,33.4203851 34.588446,26.9459563 42.858495,26.9459563 C51.1593448,26.9459563 57.9047479,33.6516147 57.9047479,41.8679732 C57.9047479,51.6412777 48.541266,59.3181005 38.1151522,56.2504544 C36.4981035,55.6030116 37.7917424,51.3638022 39.4241916,51.8416767 C47.5864373,51.8416767 53.192206,50.2847307 53.192206,41.9142191 C53.192206,32.510882 41.3184486,28.1021043 35.1890641,35.0389923 C31.5699551,39.1086333 32.4785825,41.5288365 32.4785825,59.3335158 C40.2866175,64.1122609 50.6973309,62.7248833 57.1809261,56.2350391 C61.0002411,52.4120431 63.1101046,47.2941612 63.1101046,41.8988038 C63.1101046,36.4726158 60.9848406,31.3855646 57.1347247,27.5163226 C53.3154097,23.6933265 48.2332567,21.5814295 42.7660922,21.5814295 C37.2989276,21.5814295 32.1705732,23.7087418 28.3666587,27.5163226 C28.3204573,27.5625685 25.9025845,30.0598482 25.1017604,31.2005809 L25.0247581,31.2930728 C24.5165428,32.0175922 24.0545289,32.6958657 21.9292649,32.2334065 C20.866633,31.9713463 19.7269986,31.3393187 19.7269986,30.4144003 L19.7269986,1.61860721 C19.7269986,0.847841873 20.3276167,0 21.3440473,0 L58.505366,0 C59.7836044,0 59.7836044,1.78817559 59.7836044,2.32771132 C59.7836044,2.92890829 59.7836044,4.65542265 58.505366,4.65542265 L24.1315312,4.65542265 L24.1315312,25.1423654 L24.1777326,25.1423654 C40.2250157,8.21635851 67.7302437,19.5928549 67.7302437,41.9296344 C67.7302437,69.3842958 30.0299088,75.8895553 19.9734061,51.6104471 Z M29.7218995,11.407327 C29.6448972,12.0547699 30.4303208,15.1840772 31.9703672,14.5828802 C51.1901458,7.26060949 63.2025074,20.8106642 64.218938,20.8106642 C64.9581602,20.8106642 67.7302437,18.4521222 66.4212042,17.2959742 C52.0679722,3.57635117 30.3071171,8.50924934 29.7218995,11.407327 Z M64.5885491,62.4628231 C47.6480391,79.4042452 18.541163,71.8353296 13.45901,46.4000734 C13.45901,44.519406 8.77726904,45.2593407 9.00827599,46.9087785 C12.7043873,73.6389205 46.8934164,86.5107017 67.776445,65.6075457 C68.839077,64.4051517 65.8359866,61.2295985 64.5885491,62.4628231 Z M36.9601174,45.7988764 C36.9601174,46.4154887 37.6223373,46.9241938 37.8071429,47.1091775 C38.2691568,47.5716367 38.7465712,47.787451 39.1161823,47.787451 C39.7013999,47.787451 39.5165944,47.8182816 42.5504857,44.7814662 C45.5689765,47.7566204 45.4919742,47.787451 45.9847891,47.787451 C46.8164141,47.787451 48.8338748,46.1842591 47.6326387,44.9818652 L44.9683585,42.3150171 L47.7712428,39.5094313 C48.741472,38.4611904 46.215796,36.1488944 45.2763677,37.0892281 L42.5196848,39.848568 C39.6551985,36.9504904 39.6859995,36.8425832 39.2085851,36.8425832 C38.4385619,36.8425832 36.4365016,38.6461741 37.2989276,39.5094313 L40.101812,42.3150171 C37.3143281,45.074357 36.9601174,45.274756 36.9601174,45.7988764 Z" id="500px" fill="#000000" fill-rule="nonzero"></path>
    </g>
</svg>