<?xml version="1.0" encoding="UTF-8"?>
<svg width="72px" height="76px" viewBox="0 0 72 76" version="1.1" xmlns="http://www.w3.org/2000/svg" xmlns:xlink="http://www.w3.org/1999/xlink">
    <!-- Generator: Sketch 48.1 (47250) - http://www.bohemiancoding.com/sketch -->
    <title>amazon</title>
    <desc>Created with Sketch.</desc>
    <defs></defs>
    <g id="amazon---f270" stroke="none" stroke-width="1" fill="none" fill-rule="evenodd" transform="translate(-2.000000, 0.000000)">
        <path d="M43.5087336,22.1723214 C35.4283619,22.4776786 15.3850578,24.8017857 15.3850578,42.1053571 C15.3850578,60.68125 38.3319862,61.4446429 45.8316331,49.4339286 C46.9101222,51.1642857 51.7052504,55.7955357 53.3478722,57.3732143 L62.7722072,47.8732143 C62.7722072,47.8732143 57.4129463,43.58125 57.4129463,38.9160714 L57.4129463,13.9616071 C57.4129463,9.66964286 53.3478722,0 38.779974,0 C24.1788915,0 16.4303625,9.33035714 16.4303625,17.69375 L28.6255848,18.8473214 C31.3301035,10.45 37.6185242,10.45 37.6185242,10.45 C44.3715249,10.4330357 43.5087336,15.5053571 43.5087336,22.1723214 Z M43.5087336,36.8973214 C43.5087336,50.46875 29.5381525,48.4330357 29.5381525,39.8151786 C29.5381525,31.8080357 37.9171827,30.1964286 43.5087336,30.0098214 L43.5087336,36.8973214 Z M66.0740429,64.6339286 C64.7964482,66.3303571 54.4595455,76 37.1207601,76 C19.7819746,76 6.50826331,63.8705357 2.44318921,58.8660714 C1.31492375,57.5598214 2.6091106,56.9491071 3.35575687,57.4580357 C15.5177949,65.0071429 34.5157942,77.4419643 65.1614752,62.5982143 C66.4058857,61.9705357 67.3682298,62.9375 66.0740429,64.6339286 Z M72.6777143,65.0071429 C71.5992252,67.6875 70.022972,69.5535714 69.1601808,70.2660714 C68.2476131,71.0294643 67.5839276,70.7241071 68.0816917,69.6214286 C68.5794559,68.51875 71.2839746,61.7330357 70.1888934,60.2910714 C69.1104044,58.8830357 64.0498019,59.5616071 62.2246666,59.7482143 C60.4327156,59.9178571 60.0676885,60.0875 59.9017671,59.6973214 C59.5201479,58.7303571 63.5022613,57.0678571 66.1238193,56.7285714 C68.7287852,56.4232143 72.9265964,56.5928571 73.7562033,57.6955357 C74.3701125,58.5607143 73.7562033,62.2928571 72.6777143,65.0071429 Z" id="amazon" fill="#000000" fill-rule="nonzero"></path>
    </g>
</svg>