<?xml version="1.0" encoding="UTF-8"?>
<svg width="66px" height="76px" viewBox="0 0 66 76" version="1.1" xmlns="http://www.w3.org/2000/svg" xmlns:xlink="http://www.w3.org/1999/xlink">
    <!-- Generator: Sketch 48.1 (47250) - http://www.bohemiancoding.com/sketch -->
    <title>android</title>
    <desc>Created with Sketch.</desc>
    <defs></defs>
    <g id="android---f17b" stroke="none" stroke-width="1" fill="none" fill-rule="evenodd" transform="translate(-5.000000, 0.000000)">
        <path d="M14.9,29.2862927 L14.9,48.9382433 C14.9,51.5517151 12.8203125,53.6390985 10.1734375,53.6390985 C7.54375,53.6390985 5,51.5347445 5,48.9382433 L5,29.2862927 C5,26.7237327 7.54375,24.6193787 10.1734375,24.6193787 C12.76875,24.6193787 14.9,26.7237327 14.9,29.2862927 Z M16.75625,55.930129 C16.75625,58.7133068 19.025,60.9534255 21.84375,60.9534255 L25.2640625,60.9534255 L25.315625,71.3224599 C25.315625,77.58461 34.803125,77.5336982 34.803125,71.3224599 L34.803125,60.9534255 L41.196875,60.9534255 L41.196875,71.3224599 C41.196875,77.5506688 50.7359375,77.5676394 50.7359375,71.3224599 L50.7359375,60.9534255 L54.2078125,60.9534255 C56.9921875,60.9534255 59.2609375,58.7133068 59.2609375,55.930129 L59.2609375,25.4848791 L16.75625,25.4848791 L16.75625,55.930129 Z M59.38125,23.8387313 L16.5671875,23.8387313 C16.5671875,16.5753161 20.9671875,10.2622542 27.4984375,6.96995852 L24.215625,0.979338002 C23.734375,0.147778781 24.9546875,-0.378309706 25.3671875,0.334455341 L28.7015625,6.37598764 C34.7,3.74554521 41.5921875,3.88130998 47.315625,6.37598764 L50.6328125,0.351425937 C51.0625,-0.378309706 52.265625,0.164749377 51.784375,0.996308599 L48.5015625,6.96995852 C54.98125,10.2622542 59.38125,16.5753161 59.38125,23.8387313 Z M30.0421875,14.4200503 C30.0421875,13.4527263 29.2515625,12.6381377 28.2375,12.6381377 C27.2578125,12.6381377 26.484375,13.4527263 26.484375,14.4200503 C26.484375,15.3873743 27.275,16.2019629 28.2375,16.2019629 C29.2515625,16.2019629 30.0421875,15.3873743 30.0421875,14.4200503 Z M49.5328125,14.4200503 C49.5328125,13.4527263 48.7421875,12.6381377 47.7796875,12.6381377 C46.765625,12.6381377 45.975,13.4527263 45.975,14.4200503 C45.975,15.3873743 46.765625,16.2019629 47.7796875,16.2019629 C48.7421875,16.2019629 49.5328125,15.3873743 49.5328125,14.4200503 Z M65.8265625,24.6193787 C63.23125,24.6193787 61.1,26.6728209 61.1,29.2862927 L61.1,48.9382433 C61.1,51.5517151 63.23125,53.6390985 65.8265625,53.6390985 C68.4734375,53.6390985 71,51.5347445 71,48.9382433 L71,29.2862927 C71,26.6728209 68.45625,24.6193787 65.8265625,24.6193787 Z" id="android" fill="#000000" fill-rule="nonzero"></path>
    </g>
</svg>