<?xml version="1.0" encoding="UTF-8"?>
<svg width="53px" height="76px" viewBox="0 0 53 76" version="1.1" xmlns="http://www.w3.org/2000/svg" xmlns:xlink="http://www.w3.org/1999/xlink">
    <!-- Generator: Sketch 48.1 (47250) - http://www.bohemiancoding.com/sketch -->
    <title>angellist</title>
    <desc>Created with Sketch.</desc>
    <defs></defs>
    <g id="angellist---f209" stroke="none" stroke-width="1" fill="none" fill-rule="evenodd" transform="translate(-12.000000, 0.000000)">
        <path d="M56.8243914,31.9734375 C58.5667342,27.134375 63.5852772,13.1367188 63.5852772,8.65390625 C63.5852772,4.70546875 61.2472616,1.3953125 57.0775523,1.3953125 C50.4358011,1.3953125 44.4790735,20.9445313 42.6175961,25.6054688 C41.1730897,21.375 34.4122038,0 28.4554763,0 C23.8241206,0 21.649915,3.39921875 21.649915,7.67421875 C21.649915,12.9140625 26.7429171,26.4960938 28.5895026,31.7210937 C27.651318,31.3796875 26.6386743,31.0828125 25.6111388,31.0828125 C22.1264532,31.0828125 18.4183903,35.4023437 18.4183903,38.890625 C18.4183903,40.2117187 19.1480894,42.0671875 19.6097358,43.2992188 C14.1146546,44.7835938 12.0000163,48.4351562 12.0000163,53.9421875 C11.9851245,64.659375 22.1711287,76 36.4970585,76 C54.0694049,76 65,62.8484375 65,45.8820313 C65,39.484375 63.9724645,33.7101563 56.8243914,31.9734375 Z M51.5526875,16.03125 C52.1483602,14.2054688 54.6948613,6.48671875 57.0775523,6.48671875 C58.3582487,6.48671875 58.7007606,7.8078125 58.7007606,8.86171875 C58.7007606,11.696875 52.9525185,27.3570313 51.6867138,30.8304688 L46.6234954,29.9398438 L51.5526875,16.03125 Z M26.3259462,7.16953125 C26.3259462,5.403125 28.4852599,0.3859375 33.2208583,14.1609375 L38.3734277,29.0492188 C36.0503039,28.85625 34.2483938,28.6039063 33.1017238,29.2570312 C31.4785155,24.9820312 26.3259462,11.4890625 26.3259462,7.16953125 Z M25.9834343,36.21875 C30.3467373,36.21875 35.9758448,50.2609375 35.9758448,52.1609375 C35.9758448,52.9179687 35.2461457,53.853125 34.397312,53.853125 C31.2849219,53.853125 22.9455032,42.4382812 22.9455032,39.3507812 C22.9603951,38.2078125 24.8367643,36.21875 25.9834343,36.21875 Z M53.4290567,63.8726563 C49.0955373,68.6226563 43.5557807,71.0867188 37.0927313,71.0867188 C28.2469908,71.0867188 21.2627277,66.2476563 17.8971766,57.9796875 C15.3506756,51.5375 18.4630657,47.8414063 20.9648913,47.8414063 C22.6625587,47.8414063 29.051149,56.7921875 29.051149,58.6921875 C29.051149,59.4195312 27.904479,59.9242188 27.3088062,59.9242188 C24.9112233,59.9242188 23.9730388,57.6234375 19.6990867,52.2945313 C15.2762165,56.703125 22.7519096,65.19375 28.3810172,65.19375 C32.2677819,65.19375 34.7993911,61.6015625 34.0399084,58.959375 C34.5909057,58.959375 35.2759293,59.0039063 35.7822512,58.8703125 C35.9460612,62.8929688 37.1374067,67.6875 41.9921397,68.0289063 C41.9921397,67.8953125 42.2899761,66.975 42.2899761,66.9304688 C42.2899761,64.3476563 40.7114433,62.0914063 40.7114433,59.4640625 C40.7114433,55.2632813 43.942968,51.1960938 47.2191682,48.8210938 C48.4105137,47.9304688 49.8550201,47.38125 51.2548511,46.8765625 C52.6993575,46.3273438 54.2332149,45.6890625 55.3352095,44.590625 C55.1713995,42.928125 54.4863758,41.4585938 52.8184921,41.4585938 C48.6934582,41.4585938 34.8589584,42.0523438 34.8589584,35.565625 C34.8589584,34.5710938 34.8738502,33.6210938 37.4501349,33.6210938 C42.2601924,33.6210938 54.471484,34.8085938 58.0455205,37.940625 C60.7409398,40.3304688 61.6642326,54.74375 53.4290567,63.8726563 Z M38.7457232,45.1695312 C40.1902296,45.6296875 41.6794115,45.7632812 43.1685934,46.0601562 C42.0665988,46.8617187 41.0837387,47.8414062 40.1455541,48.8953125 C39.7285832,47.6335937 39.2222614,46.4015625 38.7457232,45.1695312 Z" id="angellist" fill="#000000" fill-rule="nonzero"></path>
    </g>
</svg>