<?xml version="1.0" encoding="UTF-8"?>
<svg width="64px" height="76px" viewBox="0 0 64 76" version="1.1" xmlns="http://www.w3.org/2000/svg" xmlns:xlink="http://www.w3.org/1999/xlink">
    <!-- Generator: Sketch 48.1 (47250) - http://www.bohemiancoding.com/sketch -->
    <title>apple</title>
    <desc>Created with Sketch.</desc>
    <defs></defs>
    <g id="apple---f179" stroke="none" stroke-width="1" fill="none" fill-rule="evenodd" transform="translate(-6.000000, 0.000000)">
        <path d="M59.5090329,40.1617684 C59.4750266,33.9347431 62.2975558,29.2347812 68.010627,25.7734374 C64.8140276,21.2092144 59.9851222,18.6980434 53.6089267,18.2059897 C47.5727949,17.7309033 40.9755579,21.7182356 38.5611052,21.7182356 C36.010627,21.7182356 30.1615303,18.3756634 25.5706695,18.3756634 C16.0828905,18.5283697 6,25.9261437 6,40.9762023 C6,45.4216536 6.81615303,50.0198113 8.44845909,54.7537079 C10.6248672,60.9807333 18.4803401,76.2513677 26.6758767,75.9968571 C30.9606801,75.8950529 33.9872476,72.9596976 39.5642933,72.9596976 C44.9713071,72.9596976 47.7768332,75.9968571 52.554729,75.9968571 C60.8182784,75.8780855 67.9256111,61.9987756 70,55.7547829 C58.9139214,50.5457998 59.5090329,40.4841485 59.5090329,40.1617684 Z M49.8852285,12.3013444 C54.5270988,6.80391599 54.1020191,1.79854138 53.9659936,0 C49.8682253,0.237543201 45.1243358,2.78264893 42.4208289,5.92161267 C39.445271,9.28115223 37.6939426,13.4381583 38.0680128,18.1211528 C42.5058448,18.4605002 46.5526036,16.1868724 49.8852285,12.3013444 Z" id="apple" fill="#000000" fill-rule="nonzero"></path>
    </g>
</svg>