<?xml version="1.0" encoding="UTF-8"?>
<svg width="76px" height="76px" viewBox="0 0 76 76" version="1.1" xmlns="http://www.w3.org/2000/svg" xmlns:xlink="http://www.w3.org/1999/xlink">
    <!-- Generator: Sketch 48.1 (47250) - http://www.bohemiancoding.com/sketch -->
    <title>behance-square</title>
    <desc>Created with Sketch.</desc>
    <defs></defs>
    <g id="behance-square---f1b5" stroke="none" stroke-width="1" fill="none" fill-rule="evenodd">
        <path d="M31.6383929,44.2767857 C31.6383929,47.5508929 29.2633929,48.5857143 26.3455357,48.5857143 L18.6946429,48.5857143 L18.6946429,39.6116071 L26.4982143,39.6116071 C29.6535714,39.6285714 31.6383929,40.9348214 31.6383929,44.2767857 Z M30.3321429,30.3151786 C30.3321429,27.3125 28.0080357,26.6 25.4294643,26.6 L18.7116071,26.6 L18.7116071,34.2 L25.9553571,34.2 C28.5169643,34.2 30.3321429,33.0803571 30.3321429,30.3151786 Z M52.7758929,34.2508929 C49.6714286,34.2508929 47.6017857,36.1848214 47.3982143,39.2892857 L57.95,39.2892857 C57.6616071,36.1508929 56.0330357,34.2508929 52.7758929,34.2508929 Z M0,0 L76,0 L76,76 L0,76 L0,0 Z M46.0919643,25.9553571 L59.2901786,25.9553571 L59.2901786,22.7491071 L46.0919643,22.7491071 L46.0919643,25.9553571 Z M38.7973214,44.6669643 C38.7973214,40.5785714 36.8633929,37.05 32.8598214,35.9133929 C35.7776786,34.5223214 37.3044643,32.9107143 37.3044643,29.6366071 C37.3044643,23.15625 32.4696429,21.5785714 26.8883929,21.5785714 L11.5357143,21.5785714 L11.5357143,54.15 L27.3294643,54.15 C33.25,54.1160714 38.7973214,51.2830357 38.7973214,44.6669643 Z M64.4642857,42.15625 C64.4642857,35.1839286 60.3758929,29.3651786 52.9964286,29.3651786 C45.8035714,29.3651786 40.9348214,34.7598214 40.9348214,41.8508929 C40.9348214,49.1964286 45.5660714,54.2348214 52.9964286,54.2348214 C58.6285714,54.2348214 62.2758929,51.7071429 64.0401786,46.2955357 L58.3232143,46.2955357 C57.6955357,48.3142857 55.1678571,49.3660714 53.2,49.3660714 C49.4,49.3660714 47.4151786,47.14375 47.4151786,43.3776786 L64.4133929,43.3776786 C64.4303571,42.9875 64.4642857,42.5633929 64.4642857,42.15625 Z" id="behance-square" fill="#000000" fill-rule="nonzero"></path>
    </g>
</svg>