<?xml version="1.0" encoding="UTF-8"?>
<svg width="76px" height="48px" viewBox="0 0 76 48" version="1.1" xmlns="http://www.w3.org/2000/svg" xmlns:xlink="http://www.w3.org/1999/xlink">
    <!-- Generator: Sketch 48.1 (47250) - http://www.bohemiancoding.com/sketch -->
    <title>behance</title>
    <desc>Created with Sketch.</desc>
    <defs></defs>
    <g id="behance---f1b4" stroke="none" stroke-width="1" fill="none" fill-rule="evenodd" transform="translate(0.000000, -14.000000)">
        <path d="M30.6111111,35.5076156 C34.8069444,33.4871227 36.9972222,30.4297978 36.9972222,25.6710053 C36.9972222,16.2863473 30.0569444,14 22.0479167,14 L0,14 L0,61.109388 L22.6680556,61.109388 C31.1652778,61.109388 39.1479167,57.0019385 39.1479167,47.4311825 C39.1479167,41.5159236 36.3638889,37.1426198 30.6111111,35.5076156 Z M10.2784722,22.0420936 L19.9236111,22.0420936 C23.63125,22.0420936 26.9694444,23.0922182 26.9694444,27.4256439 C26.9694444,31.4267516 24.3701389,33.0351703 20.7020833,33.0351703 L10.2784722,33.0351703 L10.2784722,22.0420936 Z M21.2694444,53.1071725 L10.2784722,53.1071725 L10.2784722,40.133481 L21.4805556,40.133481 C26.00625,40.133481 28.8694444,42.0343395 28.8694444,46.8595957 C28.8694444,51.6183883 25.4520833,53.1071725 21.2694444,53.1071725 Z M68.5715278,21.1116034 L49.6111111,21.1116034 L49.6111111,16.4724453 L68.5715278,16.4724453 L68.5715278,21.1116034 Z M76,44.546663 C76,34.457491 70.1416667,26.0432013 59.5201389,26.0432013 C49.2020833,26.0432013 42.1958333,33.8593187 42.1958333,44.0947106 C42.1958333,54.7155912 48.8326389,62 59.5201389,62 C67.6083333,62 72.8465278,58.3312102 75.3666667,50.5283855 L67.1597222,50.5283855 C66.2756944,53.4394904 62.6340278,54.9814456 59.8104167,54.9814456 C54.3611111,54.9814456 51.4979167,51.7646081 51.4979167,46.3013016 L75.9208333,46.3013016 C75.9604167,45.7430075 76,45.1448352 76,44.546663 Z M51.5111111,40.3993354 C51.8145833,35.9196898 54.7701389,33.1149266 59.2298611,33.1149266 C63.9006944,33.1149266 66.2493056,35.8798117 66.6451389,40.3993354 L51.5111111,40.3993354 Z" id="behance" fill="#000000" fill-rule="nonzero"></path>
    </g>
</svg>