<?xml version="1.0" encoding="UTF-8"?>
<svg width="76px" height="76px" viewBox="0 0 76 76" version="1.1" xmlns="http://www.w3.org/2000/svg" xmlns:xlink="http://www.w3.org/1999/xlink">
    <!-- Generator: Sketch 49.3 (51167) - http://www.bohemiancoding.com/sketch -->
    <title>bitbucket-square</title>
    <desc>Created with Sketch.</desc>
    <defs></defs>
    <g id="line" stroke="none" stroke-width="1" fill="none" fill-rule="evenodd">
        <g id="bitbucket-square---f172" fill="#000000">
            <path d="M0,0 L76,0 L76,76 L0,76 L0,0 Z M12.7555495,12.0001157 L63.2438518,12.0219857 C63.3522191,12.0219857 63.4497496,12.0329207 63.5472801,12.0438557 C64.4900752,12.1969457 65.129442,13.0936159 64.9777279,14.044961 L57.6304282,59.5345681 C57.4895508,60.3874982 56.7526535,61.0107933 55.8965522,60.9998583 L20.6663588,60.9998583 C19.5285027,60.9889233 18.5531974,60.1578632 18.3689731,59.020623 L11.0216735,14.034026 C11.0108367,13.924676 11,13.826261 11,13.727846 C11.0108367,12.7546308 11.7910809,11.9891807 12.7555495,12.0001157 Z M44.122293,46 L47,29 L29,29 L32.2216561,46 L44.122293,46 Z" id="bitbucket-square"></path>
        </g>
    </g>
</svg>