<?xml version="1.0" encoding="UTF-8"?>
<svg width="76px" height="69px" viewBox="0 0 76 69" version="1.1" xmlns="http://www.w3.org/2000/svg" xmlns:xlink="http://www.w3.org/1999/xlink">
    <!-- Generator: Sketch 48.1 (47250) - http://www.bohemiancoding.com/sketch -->
    <title>bitbucket</title>
    <desc>Created with Sketch.</desc>
    <defs></defs>
    <g id="bitbucket---f171" stroke="none" stroke-width="1" fill="none" fill-rule="evenodd" transform="translate(0.000000, -4.000000)">
        <path d="M2.47077333,4.00016294 C1.11337317,3.98476467 0.0152516872,5.06264341 0,6.43308924 C0,6.57167364 0.0152516872,6.71025805 0.0305033744,6.86424073 L10.3711473,70.2127141 C10.630426,71.8141339 12.0030778,72.9844023 13.604505,72.9998005 L63.1877401,72.9998005 C64.3926234,73.0151988 65.4297382,72.1374975 65.6280101,70.9364326 L75.968654,6.879639 C76.1821776,5.53998971 75.2823281,4.27733176 73.9554313,4.06175601 C73.8181661,4.04635774 73.6809009,4.03095947 73.5283841,4.03095947 L2.47077333,4.00016294 Z M45.983837,49.7792128 L30.1525856,49.7792128 L25.8668615,27.1745558 L49.8120104,27.1745558 L45.983837,49.7792128 Z" id="bitbucket" fill="#000000" fill-rule="nonzero"></path>
    </g>
</svg>