<?xml version="1.0" encoding="UTF-8"?>
<svg width="75px" height="76px" viewBox="0 0 75 76" version="1.1" xmlns="http://www.w3.org/2000/svg" xmlns:xlink="http://www.w3.org/1999/xlink">
    <!-- Generator: Sketch 48.1 (47250) - http://www.bohemiancoding.com/sketch -->
    <title>chrome</title>
    <desc>Created with Sketch.</desc>
    <defs></defs>
    <g id="chrome---f268" stroke="none" stroke-width="1" fill="none" fill-rule="evenodd" transform="translate(-1.000000, 0.000000)">
        <path d="M20.8843652,32.1034849 L9.33177584,14.1137963 C16.5294624,5.0423349 27.3259923,0.0469017704 38.3644612,0.000931526963 C44.7607247,-0.0450387165 51.2930789,1.60989005 57.2357066,5.08830514 C63.7983032,8.94980559 68.788296,14.4968816 71.963746,20.8714221 L40.9199423,19.2164933 C32.1345308,18.6954972 23.7725126,23.7062537 20.8843652,32.1034849 Z M25.8592368,38.0029995 C25.8592368,45.082417 31.514562,50.813374 38.5005519,50.813374 C45.4865418,50.813374 51.141867,45.082417 51.141867,38.0029995 C51.141867,30.923582 45.4865418,25.192625 38.5005519,25.192625 C31.514562,25.192625 25.8592368,30.9082586 25.8592368,38.0029995 Z M73.475865,24.3345137 L52.3515622,25.4377996 C58.0824933,32.2260722 58.1732204,42.0177341 53.3495607,49.5262072 L36.3987064,75.9437738 C43.4300599,76.3268591 50.6731101,74.7638708 57.2357066,70.9023704 C73.475865,61.4018534 80.0535828,41.4814146 73.475865,24.3345137 Z M21.2170314,45.2969448 L7.10896087,17.1784792 C3.25305735,23.1546108 1,30.3259688 1,38.0029995 C1,57.0040334 14.7300408,72.7411801 32.6788936,75.5300416 L42.3110918,56.4064203 C33.6012862,58.061349 25.1939044,53.2191501 21.2170314,45.2969448 Z" id="chrome" fill="#000000" fill-rule="nonzero"></path>
    </g>
</svg>