<?xml version="1.0" encoding="UTF-8"?>
<svg width="76px" height="76px" viewBox="0 0 76 76" version="1.1" xmlns="http://www.w3.org/2000/svg" xmlns:xlink="http://www.w3.org/1999/xlink">
    <!-- Generator: Sketch 48.1 (47250) - http://www.bohemiancoding.com/sketch -->
    <title>codepen</title>
    <desc>Created with Sketch.</desc>
    <defs></defs>
    <g id="codepen---f1cb" stroke="none" stroke-width="1" fill="none" fill-rule="evenodd">
        <path d="M74.5577841,23.7060147 L39.8234769,0.549687308 C38.6379089,-0.179885443 37.3726301,-0.186565153 36.1762262,0.549687308 L1.44191906,23.7060147 C0.551295798,24.2996183 0,25.3600593 0,26.4202035 L0,49.5763824 C0,50.6366751 0.551295798,51.6969677 1.4420675,52.2907196 L36.1763747,75.4503127 C37.3619427,76.1798854 38.6272214,76.1865652 39.8236253,75.4503127 L74.5579325,52.2907196 C75.4485558,51.6971161 76,50.6366751 76,49.5763824 L76,26.4202035 C75.9998516,25.3600593 75.4485558,24.2996183 74.5577841,23.7060147 Z M41.2655444,9.37091211 L66.8391976,26.4202035 L55.4307589,34.0542212 L41.2655444,24.5964943 L41.2655444,9.37091211 Z M34.7343072,9.37091211 L34.7343072,24.5964943 L20.5690926,34.0542212 L9.16065398,26.4202035 L34.7343072,9.37091211 Z M6.53123724,32.527388 L14.7165103,37.9983672 L6.53123724,43.4693464 L6.53123724,32.527388 Z M34.7343072,66.6258223 L9.16065398,49.5765309 L20.5690926,41.9425132 L34.7343072,51.4002401 L34.7343072,66.6258223 Z M37.9999258,45.717143 L26.464128,37.9983672 L37.9999258,30.2795914 L49.5357236,37.9983672 L37.9999258,45.717143 Z M41.2655444,66.6258223 L41.2655444,51.4002401 L55.4307589,41.9425132 L66.8391976,49.5765309 L41.2655444,66.6258223 Z M69.4686143,43.4693464 L61.2833412,37.9983672 L69.4686143,32.527388 L69.4686143,43.4693464 Z" id="codepen" fill="#000000" fill-rule="nonzero"></path>
    </g>
</svg>