<?xml version="1.0" encoding="UTF-8"?>
<svg width="73px" height="76px" viewBox="0 0 73 76" version="1.1" xmlns="http://www.w3.org/2000/svg" xmlns:xlink="http://www.w3.org/1999/xlink">
    <!-- Generator: Sketch 48.1 (47250) - http://www.bohemiancoding.com/sketch -->
    <title>codiepie</title>
    <desc>Created with Sketch.</desc>
    <defs></defs>
    <g id="codiepie---f284" stroke="none" stroke-width="1" fill="none" fill-rule="evenodd" transform="translate(-2.000000, 0.000000)">
        <path d="M67.3442797,29.8637097 C72.0923729,29.8637097 72.5254237,38 67.2978814,38 L65.6275424,38 L65.6275424,44.7879032 L61.5135593,44.7879032 L61.5135593,29.8637097 L67.3442797,29.8637097 Z M75,52.8016129 C68.4887712,66.8830645 56.1932203,76 40.3559322,76 C19.1673729,76 2,58.9919355 2,38 C2,17.0080645 19.1673729,0 40.3559322,0 C55.4199153,0 67.0813559,8.22822581 74.1029661,21.2064516 L45.3360169,37.8774194 L75,52.8016129 Z M69.0455508,54.7169355 L59.7194915,50.0129032 C55.528178,56.8008065 48.8313559,60.9532258 40.7889831,60.9532258 C28.0294492,60.9532258 17.7135593,50.7330645 17.7135593,38.1379032 C17.7135593,25.4967742 28.0294492,15.2766129 40.7889831,15.2766129 C48.2745763,15.2766129 54.5383475,18.8774194 58.8688559,24.991129 L68.0711864,19.6895161 C61.7764831,10.0975806 51.878178,4.36693548 40.3559322,4.36693548 C21.6110169,4.36693548 6.40783898,19.4290323 6.40783898,38 C6.40783898,56.5709677 21.6110169,71.6330645 40.3559322,71.6330645 C52.5122881,71.6330645 63.0137712,65.1822581 69.0455508,54.7169355 Z" id="codiepie" fill="#000000" fill-rule="nonzero"></path>
    </g>
</svg>