<?xml version="1.0" encoding="UTF-8"?>
<svg width="76px" height="66px" viewBox="0 0 76 66" version="1.1" xmlns="http://www.w3.org/2000/svg" xmlns:xlink="http://www.w3.org/1999/xlink">
    <!-- Generator: Sketch 48.1 (47250) - http://www.bohemiancoding.com/sketch -->
    <title>connectdevelop</title>
    <desc>Created with Sketch.</desc>
    <defs></defs>
    <g id="connectdevelop---f20e" stroke="none" stroke-width="1" fill="none" fill-rule="evenodd" transform="translate(0.000000, -5.000000)">
        <path d="M74.3668815,35.9375086 L67.4275131,24.0044833 C67.5758903,23.7099595 67.687277,23.3784484 67.687277,23.0100875 C67.687277,21.9051421 66.7596081,20.9843084 65.6462945,20.9474586 L57.9646247,7.76222599 C58.0388826,7.54126441 58.1130019,7.32030283 58.1130019,7.09934125 C58.1130019,5.92083366 57.148204,5 55.9977615,5 C55.3298564,5 54.7731997,5.29466127 54.36492,5.77343428 L39.5956433,5.77343428 C39.2244925,5.29479877 38.6678358,5.0001375 37.9999307,5.0001375 C37.3320257,5.0001375 36.7753689,5.29479877 36.4042182,5.77357178 L21.7090607,5.77357178 C21.3007811,5.29479877 20.7442629,5.0001375 20.0762193,5.0001375 C18.9259153,5.0001375 17.9609789,5.92083366 17.9609789,7.09947875 C17.9609789,7.32044033 18.0352367,7.57825176 18.1094946,7.76236349 L10.353567,21.1318453 C9.61154263,21.4632189 9.09187622,22.163091 9.09187622,23.010225 C9.09187622,23.0837872 9.12900515,23.1574868 9.12900515,23.2311865 L1.74422823,35.9007962 C0.742301417,36.084908 0,36.9320419 0,37.9632877 C0,38.9576835 0.705033952,39.8048175 1.66997038,40.0257791 L9.31451123,53.1374494 C9.24025338,53.358411 9.20312446,53.5425227 9.20312446,53.8003342 C9.20312446,54.79473 9.90815841,55.641864 10.8730948,55.8259757 L18.0352367,68.1640743 C17.9609789,68.3850359 17.8868596,68.6428473 17.8868596,68.9006587 C17.8868596,70.0791663 18.8516575,71 20.0021,71 C20.670005,71 21.2266618,70.7053387 21.5978125,70.2634156 L36.4043567,70.2634156 C36.7753689,70.7052012 37.3691546,70.9998625 37.9999307,70.9998625 C38.6307068,70.9998625 39.2244925,70.7052012 39.5956433,70.2632781 L54.4393164,70.2632781 C54.8103286,70.6683514 55.3669854,70.9261628 55.9607711,70.9261628 C57.148204,70.9261628 58.0760115,69.9686168 58.0760115,68.8268216 C58.0760115,68.60586 58.0390211,68.4217482 57.9647633,68.2376365 L65.1269052,55.8258382 C66.091703,55.6417265 66.7968755,54.7945925 66.7968755,53.8001967 C66.7968755,53.5792351 66.7597466,53.3582735 66.6854888,53.1373119 L74.2929007,40.0256416 C75.2576986,39.8415298 76,38.9943959 76,37.9631502 C75.9997229,36.9687543 75.2945504,36.1216203 74.3668815,35.9375086 Z M19.3710468,64.7755384 L13.322357,54.3526694 L19.3710468,54.3526694 L19.3710468,64.7755384 Z M19.3710468,53.247724 L13.322357,53.247724 C13.2852281,53.1004621 13.2109702,52.9532002 13.1368509,52.8058008 L19.3710468,46.286953 L19.3710468,53.247724 Z M19.3710468,44.6662472 L12.3945495,51.9955167 C12.2090434,51.921817 12.0233988,51.8112675 11.8378927,51.7745551 L4.1193711,38.5156229 C4.19349041,38.3315111 4.19349041,38.1472619 4.19349041,37.9631502 C4.19349041,37.7790384 4.19349041,37.6317765 4.15636148,37.4843771 L11.3556323,25.1094287 C11.726783,25.0725789 12.0977952,24.9620293 12.431817,24.7410677 L19.3711853,31.8862255 L19.3711853,44.6662472 L19.3710468,44.6662472 Z M19.3710468,30.5970308 L13.0254642,24.078183 C13.2109702,23.7835217 13.322357,23.4152983 13.322357,23.010225 C13.322357,22.9733751 13.2852281,22.8996754 13.2852281,22.8628256 L19.3710468,20.6897846 L19.3710468,30.5970308 Z M19.3710468,19.5111395 L13.322357,21.6841805 L19.3710468,11.2980238 L19.3710468,19.5111395 Z M64.6072388,24.8884671 L64.7186255,25.0725789 L59.8201012,48.0546456 L50.9881274,38.8102841 L64.5701098,24.8516173 L64.6072388,24.8884671 Z M38.5194586,51.6271557 L40.1151711,53.247724 L36.960875,53.247724 L38.5194586,51.6271557 Z M38.4823297,50.0802872 L26.9414683,38.3315111 L37.9628018,26.729997 L49.4666727,38.7734343 L38.4823297,50.0802872 Z M39.2244925,50.8905713 L50.2088356,39.5837184 L59.5603372,49.3805526 L58.7440551,53.247724 L41.562368,53.247724 L39.2244925,50.8905713 Z M54.9588443,8.90415873 C55.1072214,8.97785843 55.2555986,9.05155812 55.4412432,9.08840796 L63.4567962,22.9365253 L63.4567962,23.010225 C63.4567962,23.4152983 63.5680445,23.7835217 63.7536891,24.078183 L50.2459645,38 L38.7422321,25.9565627 L54.9588443,8.90415873 Z M53.6971535,8.60949746 L37.9628018,25.1462786 L30.058497,16.8594631 L53.1032293,8.60949746 L53.6971535,8.60949746 Z M36.5897243,8.60949746 C36.9607365,8.97772093 37.4431354,9.19868251 37.9999307,9.19868251 C38.5567261,9.19868251 39.0389865,8.97772093 39.4101372,8.60949746 L49.8006945,8.60949746 L29.2422148,15.9754793 L22.1914597,8.60949746 L36.5897243,8.60949746 Z M20.4844989,9.38293174 L20.6328761,9.08840796 C20.7580755,9.05665142 20.8818982,9.01977007 21.0040268,8.97785843 L28.0919109,16.3808276 L20.4844989,19.1062037 L20.4844989,9.38293174 Z M20.4844989,20.2847113 L28.908193,17.2646739 L37.18351,25.9565627 L26.1621765,37.521227 L20.4844989,31.7389636 L20.4844989,20.2847113 Z M20.4844989,33.0278832 L25.5312619,38.2209616 L20.4844989,43.4877396 L20.4844989,33.0278832 Z M20.4844989,45.1083079 L26.3105537,38.9945334 L37.7772957,50.8170091 L35.4022914,53.247724 L20.4844989,53.247724 L20.4844989,45.1083079 Z M21.4492968,67.3905025 C21.2266618,67.169541 20.9668979,67.0222791 20.6328761,66.9117295 L20.4844989,66.690768 L20.4844989,54.3526694 L34.3261067,54.3526694 L21.6348029,67.3905025 L21.4492968,67.3905025 Z M39.4472661,67.3905025 C39.0761154,67.0591289 38.5567261,66.8013175 37.9999307,66.8013175 C37.4431354,66.8013175 36.9238846,67.0591289 36.5525954,67.3905025 L23.193248,67.3905025 L35.8845518,54.3526694 L41.1912172,54.3526694 L53.8825211,67.3905025 L39.4472661,67.3905025 Z M56.0721579,65.7699343 L55.4783721,66.80118 C55.2928661,66.8380298 55.1444889,66.911592 54.9959732,66.9852917 L42.6386912,54.3525319 L58.4844297,54.3525319 L56.0721579,65.7699343 Z M57.8532379,62.713047 L59.6345951,54.3526694 L62.6775044,54.3526694 L57.8532379,62.713047 Z M62.6775044,53.247724 L59.8572301,53.247724 L60.4880062,50.3382361 L62.8630105,52.8426507 C62.7888912,52.9530627 62.7146334,53.1003246 62.6775044,53.247724 Z M71.8435,38.478773 L64.1618302,51.7745551 C63.9763241,51.8481173 63.7906795,51.921817 63.6051734,52.032229 L60.7477701,49.0121916 L65.5349077,26.4721855 L71.8804904,37.3739651 C71.8435,37.5580768 71.7692421,37.7421886 71.7692421,37.9631502 C71.7692421,38.1472619 71.8063711,38.2946613 71.8435,38.478773 Z" id="connectdevelop" fill="#000000" fill-rule="nonzero"></path>
    </g>
</svg>