<?xml version="1.0" encoding="UTF-8"?>
<svg width="76px" height="67px" viewBox="0 0 76 67" version="1.1" xmlns="http://www.w3.org/2000/svg" xmlns:xlink="http://www.w3.org/1999/xlink">
    <!-- Generator: Sketch 48.1 (47250) - http://www.bohemiancoding.com/sketch -->
    <title>contao</title>
    <desc>Created with Sketch.</desc>
    <defs></defs>
    <g id="contao---f26d" stroke="none" stroke-width="1" fill="none" fill-rule="evenodd" transform="translate(0.000000, -5.000000)">
        <path d="M6.7390625,45.8190136 C8.8765625,55.8518188 10.6578125,65.1071189 16.8625,71.985048 L5.046875,71.985048 C2.27109375,71.985048 0,69.712341 0,66.9013613 L0,10.0836867 C0,7.287659 2.25625,5 5.046875,5 L13.6117188,5 C11.5632813,6.88395447 9.7375,9.06694934 8.134375,11.5190806 C1.3953125,21.9854943 4.1265625,33.4686454 6.7390625,45.8190136 Z M70.953125,5 L57.5640625,5 C60.740625,8.1997322 63.3828125,12.4012497 65.3867187,17.5746485 L45.0359375,21.9555903 C42.8242187,17.6195046 39.425,13.9861638 32.775,15.3916536 C29.1234375,16.1841107 26.6890625,18.2773934 25.6054687,20.5650524 C24.2992187,23.3610801 23.6460937,26.5159563 26.8226562,41.542736 C29.9546875,56.5246597 31.825,59.1412631 34.1703125,61.1597858 C36.0851562,62.8194599 39.128125,63.7016291 42.8242187,62.9091721 C49.4296875,61.5036822 51.0921875,56.8237001 51.3445312,51.9642937 L71.7398437,47.5384959 C72.2148437,58.2291899 68.9640625,66.2584245 63.2195312,72 L70.953125,72 C73.7289062,72 76,69.727293 76,66.9163133 L76,10.0836867 C76,7.27270699 73.74375,5 70.953125,5 Z" id="contao" fill="#000000" fill-rule="nonzero"></path>
    </g>
</svg>