<?xml version="1.0" encoding="UTF-8"?>
<svg width="61px" height="76px" viewBox="0 0 61 76" version="1.1" xmlns="http://www.w3.org/2000/svg" xmlns:xlink="http://www.w3.org/1999/xlink">
    <!-- Generator: Sketch 48.1 (47250) - http://www.bohemiancoding.com/sketch -->
    <title>dashcube</title>
    <desc>Created with Sketch.</desc>
    <defs></defs>
    <g id="dashcube---f210" stroke="none" stroke-width="1" fill="none" fill-rule="evenodd" transform="translate(-8.000000, 0.000000)">
        <path d="M53.7797852,15.4375 L21.5820312,15.4375 C13.9719238,15.4375 8,21.8648438 8,29.3164062 L8,63.3828125 C8,70.8789062 13.9719238,76 21.5820312,76 L55.4179688,76 C63.0280762,76 69,70.8789062 69,63.3828125 L69,0 L53.7797852,15.4375 Z M28.0603027,61.8242187 C25.4243164,61.8242187 23.2351074,59.5828125 23.2351074,56.9554687 L23.2351074,35.74375 C23.2351074,33.1164062 25.4243164,30.9195312 28.0603027,30.9195312 L49.0141602,30.9195312 C51.6501465,30.9195312 53.7797852,33.1164062 53.7797852,35.74375 L53.7797852,54.0757812 L61.3898926,61.8390625 L28.0603027,61.8390625 L28.0603027,61.8242187 Z" id="dashcube" fill="#000000" fill-rule="nonzero"></path>
    </g>
</svg>