<?xml version="1.0" encoding="UTF-8"?>
<svg width="76px" height="76px" viewBox="0 0 76 76" version="1.1" xmlns="http://www.w3.org/2000/svg" xmlns:xlink="http://www.w3.org/1999/xlink">
    <!-- Generator: Sketch 48.1 (47250) - http://www.bohemiancoding.com/sketch -->
    <title>delicious</title>
    <desc>Created with Sketch.</desc>
    <defs></defs>
    <g id="delicious---f1a5" stroke="none" stroke-width="1" fill="none" fill-rule="evenodd">
        <path d="M75.728632,6.09023279 C75.66079,5.8357687 75.5759875,5.58130461 75.491185,5.32684052 C75.3385405,4.90273371 75.151975,4.51255544 74.9314885,4.12237717 C74.6940415,3.71523463 74.4226735,3.30809209 74.134345,2.95184236 C73.7781745,2.52773555 73.388083,2.13755728 72.9640705,1.79827183 C72.777505,1.64559338 72.5909395,1.5098792 72.404374,1.37416502 C72.1838875,1.22148656 71.963401,1.08577238 71.725954,0.967022475 C71.420665,0.797379749 71.115376,0.661665568 70.7931265,0.542915661 C70.504798,0.424165753 70.199509,0.322380117 69.8772595,0.254523027 C69.2327605,0.0848803015 68.53738,5.89387003e-05 67.8419996,5.89387003e-05 L8.14103995,5.89387003e-05 C3.64650748,-0.0169053339 0,3.63041327 0,8.12594549 L0,67.8401849 C0,68.5357201 0.0848024994,69.2312552 0.254407498,69.8758976 C0.593617496,71.1821466 1.23811649,72.3526814 2.12006249,73.3196449 C2.28966748,73.5062519 2.47623298,73.6928589 2.67975898,73.8794659 C3.64650748,74.7616081 4.81678197,75.4062505 6.12274046,75.7455359 C6.76723946,75.9151786 7.46261995,76 8.15800045,76 L67.8589601,76 C72.3534925,76 76,72.3526814 76,67.8571492 L76,8.12594549 C75.9830395,7.43041032 75.898237,6.73487514 75.728632,6.09023279 Z M70.5556795,67.8401849 C70.5556795,69.3330409 69.3345235,70.5544685 67.8419996,70.5544685 L37.9915198,70.5544685 L37.9915198,37.9830652 L5.42735996,37.9830652 L5.42735996,8.12594549 C5.42735996,6.63308951 6.64851596,5.41166188 8.14103995,5.41166188 L37.9915198,5.41166188 L37.9915198,37.9830652 L70.5556795,37.9830652 L70.5556795,67.8401849 Z" id="delicious" fill="#000000" fill-rule="nonzero"></path>
    </g>
</svg>