<?xml version="1.0" encoding="UTF-8"?>
<svg width="76px" height="47px" viewBox="0 0 76 47" version="1.1" xmlns="http://www.w3.org/2000/svg" xmlns:xlink="http://www.w3.org/1999/xlink">
    <!-- Generator: Sketch 48.1 (47250) - http://www.bohemiancoding.com/sketch -->
    <title>digg</title>
    <desc>Created with Sketch.</desc>
    <defs></defs>
    <g id="digg---f1a6" stroke="none" stroke-width="1" fill="none" fill-rule="evenodd" transform="translate(0.000000, -15.000000)">
        <path d="M12.1273437,26.2065625 L0,26.2065625 L0,51.8215625 L19.6976562,51.8215625 L19.6976562,15 L12.1273437,15 L12.1273437,26.2065625 Z M12.1273437,45.7996875 L7.55546875,45.7996875 L7.55546875,32.243125 L12.1273437,32.243125 L12.1273437,45.7996875 Z M56.2429687,26.2065625 L56.2429687,51.8215625 L68.3851562,51.8215625 L68.3851562,56.0075 L56.2429687,56.0075 L56.2429687,62 L76,62 L76,26.2065625 L56.2429687,26.2065625 Z M68.3851562,45.7996875 L63.8132812,45.7996875 L63.8132812,32.243125 L68.3851562,32.243125 L68.3851562,45.7996875 Z M33.4132812,51.8215625 L45.6,51.8215625 L45.6,56.0075 L33.4132812,56.0075 L33.4132812,62 L53.2,62 L53.2,26.2065625 L33.4132812,26.2065625 L33.4132812,51.8215625 Z M41.0132812,32.243125 L45.5851562,32.243125 L45.5851562,45.7996875 L41.0132812,45.7996875 L41.0132812,32.243125 Z M22.7554687,15 L30.3703125,15 L30.3703125,22.490625 L22.7554687,22.490625 L22.7554687,15 Z M22.7554687,26.2065625 L30.3703125,26.2065625 L30.3703125,51.8215625 L22.7554687,51.8215625 L22.7554687,26.2065625 Z" id="digg" fill="#000000" fill-rule="nonzero"></path>
    </g>
</svg>