<?xml version="1.0" encoding="UTF-8"?>
<svg width="76px" height="76px" viewBox="0 0 76 76" version="1.1" xmlns="http://www.w3.org/2000/svg" xmlns:xlink="http://www.w3.org/1999/xlink">
    <!-- Generator: Sketch 48.1 (47250) - http://www.bohemiancoding.com/sketch -->
    <title>dribbble</title>
    <desc>Created with Sketch.</desc>
    <defs></defs>
    <g id="dribbble---f17d" stroke="none" stroke-width="1" fill="none" fill-rule="evenodd">
        <path d="M38,0 C17.0466774,0 0,17.0466774 0,38 C0,58.9533226 17.0466774,76 38,76 C58.9533226,76 76,58.9533226 76,38 C76,17.0466774 58.9533226,0 38,0 Z M63.1244355,17.5238226 C67.6450565,23.047 70.3825887,30.08175 70.4539919,37.7427339 C69.3838629,37.5164194 58.6528468,35.3398468 47.852879,36.6980403 C46.9715242,34.5465968 46.1396613,32.6539516 45.0002742,30.3217016 C57.0010726,25.422 62.440129,18.4494597 63.1244355,17.5238226 Z M59.516121,13.7704032 C58.9323306,14.6019597 54.0464194,21.1690645 42.5048387,25.4950887 C37.1860645,15.7229597 31.2910081,7.69515323 30.393871,6.4938629 C40.6869677,4.01267742 51.5338226,6.68845968 59.516121,13.7704032 Z M24.2006371,8.67564516 C25.0564032,9.84920161 30.8564597,17.8869677 36.2345323,27.4471855 C21.0518468,31.4790161 7.67937097,31.4209435 6.22770968,31.4017903 C8.33241935,21.3297984 15.1200161,12.9587661 24.2006371,8.67564516 Z M5.54217742,38.0494919 C5.54217742,37.7176048 5.54876613,37.38725 5.55872581,37.0576613 C6.97882258,37.0867742 22.7077581,37.2894919 38.9169032,32.4385161 C39.8460645,34.257 40.7337016,36.1029113 41.5484032,37.9468306 C29.8114597,41.2526774 19.1477097,50.7453226 13.8863952,59.7517823 C8.70230645,53.9975403 5.54217742,46.3860484 5.54217742,38.0494919 Z M18.077121,63.6555161 C21.4675484,56.7246532 30.6689113,47.7779516 43.7545484,43.313871 C48.3114839,55.155621 50.1960081,65.0800565 50.6786694,67.9277581 C40.2421532,72.3732984 27.6925,71.153621 18.077121,63.6555161 Z M56.1353468,64.95625 C55.8026935,62.9817823 54.0750726,53.4800968 49.8297984,41.8140968 C60.0009274,40.1859194 68.9370565,42.851129 70.0474839,43.2015565 C68.6007258,52.2328387 63.4169435,60.0324919 56.1353468,64.95625 Z" id="dribbble" fill="#000000" fill-rule="nonzero"></path>
    </g>
</svg>