<?xml version="1.0" encoding="UTF-8"?>
<svg width="65px" height="76px" viewBox="0 0 65 76" version="1.1" xmlns="http://www.w3.org/2000/svg" xmlns:xlink="http://www.w3.org/1999/xlink">
    <!-- Generator: Sketch 48.1 (47250) - http://www.bohemiancoding.com/sketch -->
    <title>drupal</title>
    <desc>Created with Sketch.</desc>
    <defs></defs>
    <g id="drupal---f1a9" stroke="none" stroke-width="1" fill="none" fill-rule="evenodd" transform="translate(-6.000000, 0.000000)">
        <path d="M54.6653646,13.9047193 C50.9075521,11.5249385 47.3020833,10.5900246 43.7135417,8.21024379 C41.5130208,6.71438157 38.4153646,3.11071349 35.8424479,0 C35.3854167,4.98054127 33.8958333,7.00335495 32.1184896,8.41422501 C28.5130208,11.3039588 26.2278646,12.1878774 23.0625,13.9047193 C20.3880208,15.3155894 6,25.2596735 6,43.7879669 C6,62.3502572 21.5390625,76 38.8046875,76 C56.0195312,76 71,63.4211586 71,44.3829121 C71,25.2936703 56.9505208,15.3155894 54.6653646,13.9047193 Z M55.0885417,69.2516216 C51.6861979,72.6683069 39.8372396,74.1301722 35.3346354,69.9655558 C34.5221354,69.149631 35.3854167,67.9257437 36.4348958,67.9257437 C36.4348958,67.9257437 39.3125,70.1865355 45.1523438,70.1865355 C49.7226562,70.1865355 52.9388021,68.877656 54.3776042,67.8067546 C55.4101562,67.0248267 55.7994792,68.5376873 55.0885417,69.2516216 Z M45.8632813,60.3104451 C47.3359375,59.6985015 50.7721354,59.6645046 52.0924479,60.5314247 C52.7864583,61.0073809 54.8177083,63.7271304 53.1419271,64.5600537 C51.7200521,65.2739879 52.9388021,61.8912995 48.65625,61.8912995 C46.1679688,61.8912995 45.3554688,62.7752181 44.1367188,63.7611273 C42.9518229,64.7810333 42.4778646,65.121002 42.0716146,64.5600537 C41.0559896,63.1661821 44.7630208,60.7694028 45.8632813,60.3104451 Z M61.5208333,63.2511742 C58.9479167,63.0811899 53.8190104,54.9559383 50.5182292,54.8369492 C45.2877604,54.6839633 32.8971354,68.5546858 23.2148437,61.9762917 C16.6471354,57.4547081 20.7434896,44.1619325 31.9830729,44.0939387 C40.3619792,44.0089465 46.1679688,52.4231715 50.3489583,52.3381794 C53.9544271,52.2871841 60.8098958,45.2328338 64.1953125,45.2328338 C72.4388021,45.2328338 68.1393229,63.8121226 61.5208333,63.2511742 Z" id="drupal" fill="#000000" fill-rule="nonzero"></path>
    </g>
</svg>