<?xml version="1.0" encoding="UTF-8"?>
<svg width="71px" height="76px" viewBox="0 0 71 76" version="1.1" xmlns="http://www.w3.org/2000/svg" xmlns:xlink="http://www.w3.org/1999/xlink">
    <!-- Generator: Sketch 48.1 (47250) - http://www.bohemiancoding.com/sketch -->
    <title>edge</title>
    <desc>Created with Sketch.</desc>
    <defs></defs>
    <g id="edge---f282" stroke="none" stroke-width="1" fill="none" fill-rule="evenodd" transform="translate(-3.000000, 0.000000)">
        <path d="M3,33.7346509 C3.01711129,33.7098283 3.03545583,33.6851589 3.05272128,33.6603363 C3.04948401,33.6851589 3.04578427,33.7098283 3.04270116,33.7346509 L3,33.7346509 Z M73.9998458,36.1108815 C73.9998458,29.3640293 72.8045218,23.1686379 69.5600046,17.3552391 C63.2416208,6.11043435 52.0520678,8.34021033e-05 38.9458957,8.34021033e-05 C17.3747202,-0.0423602313 5.29738391,16.1214625 3.05272128,33.6604895 C9.59339779,24.2658901 21.1002034,15.0625168 37.0248061,14.512435 C37.0248061,14.512435 53.9304562,14.512435 52.3508217,30.5945882 L25.2420615,30.5945882 C26.2238798,24.8660767 28.1022683,21.5563927 30.5356176,18.501064 C18.966533,23.8475828 11.7517332,33.2254806 11.9225378,47.3558395 C12.0504871,58.3035389 19.6494432,69.5484969 30.5357717,73.7070536 C43.3857369,78.5868456 60.2533106,74.8102816 67.5535127,70.4396599 L67.5535127,54.4422408 C55.087858,63.0985968 25.7971766,63.7775417 25.5838249,44.0884459 L74,44.0884459 L74,36.1108815 L73.9998458,36.1108815 Z" id="edge" fill="#000000" fill-rule="nonzero"></path>
    </g>
</svg>