<?xml version="1.0" encoding="UTF-8"?>
<svg width="73px" height="76px" viewBox="0 0 73 76" version="1.1" xmlns="http://www.w3.org/2000/svg" xmlns:xlink="http://www.w3.org/1999/xlink">
    <!-- Generator: Sketch 48.1 (47250) - http://www.bohemiancoding.com/sketch -->
    <title>eercast</title>
    <desc>Created with Sketch.</desc>
    <defs></defs>
    <g id="eercast---f2da" stroke="none" stroke-width="1" fill="none" fill-rule="evenodd" transform="translate(-2.000000, 0.000000)">
        <path d="M57.4632971,33.2000459 C58.2774449,31.9464342 58.1976265,30.0981605 57.1919146,27.6552249 C56.1862026,25.2122893 54.462125,23.1872243 52.0196817,21.5478859 C50.3754225,20.4389217 48.6034539,19.6674684 46.6878121,19.2495978 C44.7721703,18.8317273 43.0959837,18.7674395 41.6752161,19.0567345 C40.2384847,19.3460295 39.2647001,19.8764037 38.769826,20.647857 C38.4345887,21.3068068 38.370734,21.7086054 38.5782618,21.8532529 C38.7857897,21.9979004 39.3924096,22.1425479 40.3821578,22.2871954 C41.0366688,22.3675551 41.579434,22.4479148 42.0264171,22.4961307 C42.4734001,22.5443465 43.0959837,22.688994 43.9260952,22.8979293 C44.7402429,23.1068646 45.538427,23.3640157 46.3046837,23.6533107 C47.3263593,24.0229654 48.2841802,24.4729799 49.1781464,25.003354 C50.0721126,25.5337282 50.8224056,26.0641024 51.4290255,26.5944766 C52.0356454,27.1248508 52.6103379,27.6712969 53.1371394,28.2498869 C53.6639409,28.8284769 54.0949603,29.3588511 54.4301976,29.8731533 C54.765435,30.3874555 55.0847086,30.8856858 55.3720549,31.3517722 C55.6594011,31.8178586 55.8828927,32.2357292 56.0744568,32.57324 C56.266021,32.9107509 56.4256578,33.1839739 56.5852947,33.3607653 C56.7449315,33.5536286 56.8886046,33.6339884 57.0322777,33.6179164 C57.1280598,33.6018445 57.2876966,33.457197 57.4632971,33.2000459 Z M72.9001772,57.7740494 C71.4315185,61.4063089 69.3243126,64.5403381 66.5785593,67.192209 C63.8487698,69.8440799 60.7997066,71.8691449 57.4632971,73.2513322 C54.110924,74.6335194 50.5350593,75.5014044 46.7037758,75.8389153 C42.8724922,76.1764261 39.1050633,75.9835628 35.3855255,75.2603253 C31.6659877,74.5370878 28.1060867,73.2352602 24.7058225,71.3709146 C21.3055584,69.5065691 18.3203499,67.192209 15.7821245,64.4599784 C13.2279355,61.7277478 11.2324753,58.3526394 9.76381657,54.382869 C8.31112155,50.3970267 7.64064692,46.0736736 7.78432005,41.3967377 C7.81624742,40.2234857 7.92799319,39.0180899 8.15148473,37.7805501 C8.35901259,36.5430104 8.53461309,35.6269095 8.67828622,35.0483195 C8.82195936,34.4697295 9.15719667,33.3125495 9.69996184,31.6089233 C10.242727,29.8892252 10.5620006,28.8606208 10.6737464,28.4909661 C9.2210514,34.4215137 9.23701508,40.0949102 10.7216375,45.4950836 C12.2062599,50.895257 14.6487031,55.4275455 18.0808947,59.1080208 C21.5130862,62.7884961 25.6317161,65.729662 30.4527479,67.9315185 C35.2737797,70.1333749 40.17463,71.3066269 45.1712623,71.4834183 C50.1678947,71.6602096 55.1006723,70.5994613 60.0174862,68.3011732 C64.9183364,66.0028851 69.0210026,62.5152731 72.309521,57.8383372 C72.8842136,57.0668838 73.1236688,56.8740205 73.0757777,57.2436752 C73.059814,57.291891 73.011923,57.4847544 72.9001772,57.7740494 Z M62.7313121,38.5520035 C62.7313121,41.5253132 62.1566195,44.3539755 61.0072345,47.0701342 C59.8578494,49.7862928 58.3253359,52.1167248 56.3937305,54.093574 C54.462125,56.0704232 52.1633549,57.6294019 49.49742,58.7865819 C46.8314852,59.9437619 44.0218772,60.5223519 41.0845598,60.5223519 C38.1472424,60.5223519 35.3376345,59.9437619 32.6716996,58.7865819 C30.0057648,57.6294019 27.7069947,56.0704232 25.7753892,54.093574 C23.8437837,52.1167248 22.3112703,49.7862928 21.1618852,47.0701342 C20.0125001,44.3539755 19.4378076,41.5253132 19.4378076,38.5520035 C19.4378076,35.5786937 20.0125001,32.7500314 21.1618852,30.0338727 C22.3112703,27.3177141 23.8437837,24.9872821 25.7753892,23.0104329 C27.7069947,21.0335837 30.0057648,19.4746051 32.6716996,18.317425 C35.3376345,17.160245 38.1472424,16.581655 41.0845598,16.581655 C44.0218772,16.581655 46.8314852,17.160245 49.49742,18.317425 C52.1633549,19.4746051 54.462125,21.0335837 56.3937305,23.0104329 C58.3253359,24.9872821 59.8578494,27.3177141 61.0072345,30.0338727 C62.1566195,32.7500314 62.7313121,35.5786937 62.7313121,38.5520035 Z M74.9275648,26.2248218 C73.0917414,22.0300443 70.5215887,18.4460006 67.249034,15.4726908 C63.9764792,12.499381 60.3846509,10.3135965 56.4895126,8.89926541 C52.5943743,7.48493427 48.4597807,6.72955287 44.0697683,6.60097731 C39.6957195,6.48847369 35.4174529,7.00277593 31.2668957,8.15995595 C27.1163385,9.31713597 23.2052365,11.1493377 19.5495534,13.6887049 C15.8938703,16.2280722 12.7809524,19.2335259 10.194836,22.7372098 C7.60871956,26.2408938 5.75693249,30.4838872 4.6235111,35.4501181 C3.49008971,40.4163491 3.34641657,45.7361628 4.1924917,51.4256312 C2.8036514,46.829055 2.06932205,42.3931983 2.00546732,38.0859171 C1.94161259,33.7786359 2.43648672,29.9052972 3.52201707,26.4176852 C4.60754742,22.9300732 6.14006085,19.6996123 8.15148473,16.6941586 C10.1629086,13.6887049 12.5255335,11.1493377 15.207432,8.99569707 C17.8893305,6.84205648 20.8266479,5.04199867 24.0034205,3.59552364 C27.1801932,2.14904861 30.4846753,1.13651609 33.8689758,0.557926082 C37.2532763,-0.0206639289 40.7014315,-0.149239487 44.1815141,0.172199408 C47.6615966,0.493638303 51.0139698,1.26509165 54.2226698,2.48655945 C57.4313698,3.69195531 60.480433,5.47594117 63.4017867,7.82244511 C66.3231404,10.168949 68.8454021,12.9815394 70.9685718,16.2602161 C71.910429,17.6906192 72.7884315,19.4103173 73.6025792,21.4353823 C74.4326907,23.4604473 74.8796738,25.0515699 74.9275648,26.2248218 Z M72.2935573,40.8663635 C72.6287946,33.9072114 70.6971892,27.9605919 66.4827772,23.0586487 C62.2683653,18.1567056 56.6491494,14.7173094 49.6251295,12.788676 C49.4016379,12.788676 49.2579648,12.7243883 49.1941101,12.5797408 C49.1302554,12.4350933 49.4814564,12.3225896 50.2157857,12.2422299 C53.759723,12.3547335 57.0163141,13.0618991 60.0015225,14.3797986 C62.9707673,15.697698 65.4291743,17.4013242 67.3607797,19.5228209 C69.2923852,21.6282456 70.9366444,24.0390374 72.2935573,26.7391241 C73.6504703,29.4392108 74.4805817,32.283945 74.7838917,35.2572548 C75.0872016,38.2305646 75.0712379,41.2038743 74.7360006,44.1611122 C74.416727,47.11835 73.5387245,49.9309403 72.1179568,52.6149551 C70.6971892,55.2989699 68.9571479,57.6776177 66.9137966,59.7669705 C64.8544817,61.8563234 62.2364379,63.5278056 59.0437016,64.7974892 C55.8509653,66.0671729 52.3389554,66.7261226 48.4757444,66.7904104 C51.5407713,65.9385973 54.3982703,64.7974892 57.0482414,63.3670862 C59.6982126,61.9366831 62.1725832,60.1848411 64.439426,58.0954883 C66.7222325,56.0061355 68.5580558,53.4989121 69.9468961,50.5416742 C71.3357364,47.5844364 72.1339205,44.3539755 72.2935573,40.8663635 Z" id="eercast" fill="#000000" fill-rule="nonzero"></path>
    </g>
</svg>