<?xml version="1.0" encoding="UTF-8"?>
<svg width="76px" height="76px" viewBox="0 0 76 76" version="1.1" xmlns="http://www.w3.org/2000/svg" xmlns:xlink="http://www.w3.org/1999/xlink">
    <!-- Generator: Sketch 48.1 (47250) - http://www.bohemiancoding.com/sketch -->
    <title>empire</title>
    <desc>Created with Sketch.</desc>
    <defs></defs>
    <g id="empire---f1d1" stroke="none" stroke-width="1" fill="none" fill-rule="evenodd">
        <path d="M44.0677419,7.07903226 C42.4129032,6.74193548 40.6814516,6.5733871 38.9346774,6.52741935 L38.9346774,3.73870968 C50.9016129,4.07580645 61.3209677,10.4806452 67.2201613,20.0725806 L64.7991935,21.4669355 C63.8645161,19.9806452 62.8532258,18.5862903 61.7040323,17.3145161 L58.9459677,19.6895161 C54.9620968,15.1540323 49.5379032,11.9209677 43.3322581,10.741129 L44.0677419,7.07903226 Z M8.18225806,48.1741935 L11.7064516,46.9943548 C10.7258065,44.1903226 10.1741935,41.141129 10.1741935,38 C10.1741935,34.858871 10.6798387,31.8096774 11.6604839,29.0056452 L8.18225806,27.8258065 C8.73387097,26.1709677 9.45403226,24.5620968 10.266129,23.0758065 L7.84516129,21.6814516 C5.20967742,26.5080645 3.69274194,32.1008065 3.69274194,38 C3.69274194,43.8991935 5.225,49.4919355 7.84516129,54.333871 L10.266129,52.9395161 C9.45403226,51.4072581 8.77983871,49.8290323 8.18225806,48.1741935 Z M32.6524194,65.2741935 C26.4620968,64.0483871 21.0379032,60.8153226 17.0387097,56.2798387 L14.2806452,58.7008065 C13.1314516,57.3830645 12.0741935,55.9887097 11.1854839,54.5024194 L8.73387097,55.9427419 C14.6330645,65.4887097 25.0983871,71.9241935 37.0653226,72.2766129 L37.0653226,69.4725806 C35.333871,69.4266129 33.5870968,69.2120968 31.9322581,68.9209677 L32.6524194,65.2741935 Z M14.2959677,17.2991935 L17.0540323,19.6741935 C21.0379032,15.1387097 26.4620968,11.9056452 32.6677419,10.7258065 L31.9475806,7.07903226 C33.6024194,6.74193548 35.333871,6.5733871 37.0806452,6.52741935 L37.0806452,3.73870968 C25.1137097,4.07580645 14.6943548,10.4806452 8.79516129,20.0725806 L11.216129,21.4669355 C12.1354839,19.9806452 13.1467742,18.5709677 14.2959677,17.2991935 Z M61.7040323,58.7008065 L58.9459677,56.2798387 C54.9620968,60.8153226 49.5379032,64.0483871 43.3322581,65.2741935 L44.0524194,68.9209677 C42.3975806,69.2120968 40.666129,69.4266129 38.9193548,69.4725806 L38.9193548,72.2766129 C50.8862903,71.9395161 61.3516129,65.4887097 67.2508065,55.9427419 L64.783871,54.5024194 C63.9104839,55.9887097 62.8532258,57.3830645 61.7040323,58.7008065 Z M76,38 C76,58.9919355 58.9919355,76 38,76 C17.0080645,76 0,58.9919355 0,38 C0,17.0080645 17.0080645,0 38,0 C58.9919355,0 76,17.0080645 76,38 Z M74.1306452,38 C74.1306452,18.0653226 57.9346774,1.86935484 38,1.86935484 C18.0653226,1.86935484 1.86935484,18.0653226 1.86935484,38 C1.86935484,57.9346774 18.0653226,74.1306452 38,74.1306452 C57.9346774,74.1306452 74.1306452,57.9346774 74.1306452,38 Z M68.1548387,21.666129 L65.733871,23.0604839 C66.5459677,24.5467742 67.266129,26.1556452 67.8177419,27.8104839 L64.3395161,28.9903226 C65.3201613,31.7943548 65.8258065,34.8435484 65.8258065,37.9846774 C65.8258065,41.1258065 65.2741935,44.175 64.2935484,46.9790323 L67.8177419,48.158871 C67.2201613,49.8137097 66.5459677,51.3766129 65.733871,52.908871 L68.1548387,54.3032258 C70.7903226,49.4919355 72.3072581,43.8991935 72.3072581,38 C72.3072581,32.1008065 70.7903226,26.5080645 68.1548387,21.666129 Z M40.1145161,48.8943548 C42.6120968,48.3887097 44.7725806,47.1169355 46.3508065,45.2935484 L54.1959677,52.1580645 C56.0193548,50.0741935 57.4596774,47.6685484 58.3483871,44.9870968 L48.5112903,41.6008065 C48.8943548,40.4516129 49.108871,39.2717742 49.108871,38 C49.108871,36.7282258 48.8943548,35.5330645 48.5112903,34.3991935 L58.3943548,31.0129032 C57.4596774,28.3467742 56.0193548,25.9258065 54.1959677,23.8419355 L46.3508065,30.7064516 C44.7879032,28.8830645 42.6120968,27.5653226 40.1145161,27.0596774 L42.1524194,16.8854839 C40.8346774,16.5943548 39.4403226,16.4564516 38,16.4564516 C36.5596774,16.4564516 35.1653226,16.5790323 33.8475806,16.8854839 L35.8854839,27.0596774 C33.3879032,27.5653226 31.2274194,28.8830645 29.6491935,30.7064516 L21.8040323,23.8419355 C19.9806452,25.9258065 18.5403226,28.3314516 17.6056452,31.0129032 L27.4887097,34.3991935 C27.1056452,35.5483871 26.891129,36.7282258 26.891129,38 C26.891129,39.2717742 27.1056452,40.4669355 27.4887097,41.6008065 L17.6516129,44.9870968 C18.5403226,47.6532258 19.9806452,50.0741935 21.8040323,52.1580645 L29.6491935,45.2935484 C31.2120968,47.1169355 33.3879032,48.3887097 35.8854839,48.8943548 L33.8475806,59.1145161 C35.1653226,59.375 36.5596774,59.5435484 38,59.5435484 C39.4403226,59.5435484 40.8346774,59.375 42.1524194,59.1145161 L40.1145161,48.8943548 Z" id="empire" fill="#000000" fill-rule="nonzero"></path>
    </g>
</svg>