<?xml version="1.0" encoding="UTF-8"?>
<svg width="76px" height="76px" viewBox="0 0 76 76" version="1.1" xmlns="http://www.w3.org/2000/svg" xmlns:xlink="http://www.w3.org/1999/xlink">
    <!-- Generator: Sketch 48.1 (47250) - http://www.bohemiancoding.com/sketch -->
    <title>envira</title>
    <desc>Created with Sketch.</desc>
    <defs></defs>
    <g id="envira---f299" stroke="none" stroke-width="1" fill="none" fill-rule="evenodd">
        <path d="M0,0 C81.0214286,0 62.1910714,53.8276786 62.2758929,62.1401786 L76,76 L71.5892857,76 L59.6464286,63.9214286 C53.0303571,64.6339286 38.5428571,69.7741071 23.275,57.6446429 C7.97321429,45.5151786 8.82142857,30.99375 0,0 Z M13.5205357,7.80357143 C5.08928571,3.81696429 12.6383929,9.36428571 12.6383929,9.36428571 C20.30625,14.6571429 23.8348214,21.8669643 27.9401786,29.7044643 C33.2839286,39.9169643 41.3419643,53.4035714 52.4026786,58.1535714 C63.4294643,62.9035714 58.2044643,60.2741071 53.4205357,56.7116071 C48.6366071,53.1151786 41.8508929,41.9526786 37.9830357,34.6241071 C32.6053571,24.4455357 27.6348214,14.5044643 13.5205357,7.80357143 Z" id="envira" fill="#000000" fill-rule="nonzero"></path>
    </g>
</svg>