<?xml version="1.0" encoding="UTF-8"?>
<svg width="65px" height="76px" viewBox="0 0 65 76" version="1.1" xmlns="http://www.w3.org/2000/svg" xmlns:xlink="http://www.w3.org/1999/xlink">
    <!-- Generator: Sketch 48.1 (47250) - http://www.bohemiancoding.com/sketch -->
    <title>etsy</title>
    <desc>Created with Sketch.</desc>
    <defs></defs>
    <g id="etsy---f2d7" stroke="none" stroke-width="1" fill="none" fill-rule="evenodd" transform="translate(-6.000000, 0.000000)">
        <path d="M71,53.6071429 C70.703776,55.4308036 68.672526,72.2678571 68.3763021,76 C48.4228255,75.2707054 31.1544922,75.1953839 6,76 L6,71.6741071 C13.6945443,70.1561429 16.2623828,70.3137411 16.3255208,65.6941964 C16.6290234,53.4252857 16.9220312,24.2770804 16.3255208,11.0691964 C16.1513411,6.24116071 14.2722656,6.52870536 6,4.96205357 L6,0.636160714 C18.5067448,1.03617857 49.3219922,2.08677679 67.4451432,0 C66.8526953,6.48883929 66.1332943,21.4598214 66.1332943,21.4598214 L62.1979167,21.4598214 C60.3269661,14.1931696 59.0225651,6.10714286 52.9303385,6.10714286 L29.7402344,6.10714286 C28.0052083,6.10714286 27.9205729,6.70089286 27.9205729,7.76116071 L27.9205729,35.5401786 C37.7382812,35.625 42.9010417,35.1160714 42.9010417,35.1160714 C47.9402344,34.9547411 47.5661458,33.6737679 49.7988281,24.0467054 L54.1575521,24.0467054 C53.4115755,41.2401786 53.4957031,34.5355536 53.8613281,51.2319732 L49.5026042,51.2319732 C47.9529297,44.4316696 47.9681641,40.876125 42.816237,40.7989375 C42.816237,40.7989375 39.1769141,40.4596518 27.9204036,40.4596518 L27.9204036,64.0400089 C27.9204036,68.4507232 30.332513,70.5288482 35.410638,70.5288482 L50.5182292,70.5288482 C61.2899479,70.5288482 61.7855729,66.2884554 67.2338932,53.6069732 L71,53.6069732 L71,53.6071429 Z" id="etsy" fill="#000000" fill-rule="nonzero"></path>
    </g>
</svg>