<?xml version="1.0" encoding="UTF-8"?>
<svg width="76px" height="76px" viewBox="0 0 76 76" version="1.1" xmlns="http://www.w3.org/2000/svg" xmlns:xlink="http://www.w3.org/1999/xlink">
    <!-- Generator: Sketch 48.1 (47250) - http://www.bohemiancoding.com/sketch -->
    <title>expeditedssl</title>
    <desc>Created with Sketch.</desc>
    <defs></defs>
    <g id="expeditedssl---f23e" stroke="none" stroke-width="1" fill="none" fill-rule="evenodd">
        <path d="M38,5.42419355 C20.0112903,5.42419355 5.42419355,20.0112903 5.42419355,38 C5.42419355,55.9887097 20.0112903,70.5758065 38,70.5758065 C55.9887097,70.5758065 70.5758065,55.9887097 70.5758065,38 C70.5758065,20.0112903 55.9887097,5.42419355 38,5.42419355 Z M23.0758065,25.7879032 C23.0758065,17.5596774 29.7717742,10.8637097 38,10.8637097 C46.2282258,10.8637097 52.9241935,17.5596774 52.9241935,25.7879032 L52.9241935,29.8637097 C52.9241935,30.6298387 52.3266129,31.2274194 51.5604839,31.2274194 L48.8483871,31.2274194 C48.0822581,31.2274194 47.4846774,30.6298387 47.4846774,29.8637097 L47.4846774,25.7879032 C47.4846774,13.2080645 28.4846774,13.2080645 28.4846774,25.7879032 L28.4846774,29.8637097 C28.4846774,30.6298387 27.8870968,31.2274194 27.1209677,31.2274194 L24.408871,31.2274194 C23.6427419,31.2274194 23.0451613,30.6298387 23.0451613,29.8637097 L23.0451613,25.7879032 L23.0758065,25.7879032 Z M59.7120968,57 C59.7120968,58.4862903 58.4862903,59.7120968 57,59.7120968 L19,59.7120968 C17.5137097,59.7120968 16.2879032,58.4862903 16.2879032,57 L16.2879032,35.2879032 C16.2879032,33.8016129 17.5137097,32.5758065 19,32.5758065 L57,32.5758065 C58.4862903,32.5758065 59.7120968,33.8016129 59.7120968,35.2879032 L59.7120968,57 Z M21.7120968,35.9620968 L21.7120968,56.3258065 C21.7120968,56.708871 21.4209677,57 21.0379032,57 L19.6741935,57 C19.291129,57 19,56.708871 19,56.3258065 L19,35.9620968 C19,35.5790323 19.291129,35.2879032 19.6741935,35.2879032 L21.0379032,35.2879032 C21.4209677,35.2879032 21.7120968,35.5790323 21.7120968,35.9620968 Z M43.4241935,43.4241935 C43.4241935,45.416129 42.3209677,47.1629032 40.7120968,48.0822581 L40.7120968,52.9241935 C40.7120968,53.6903226 40.1145161,54.2879032 39.3483871,54.2879032 L36.6362903,54.2879032 C35.8701613,54.2879032 35.2725806,53.6903226 35.2725806,52.9241935 L35.2725806,48.0822581 C33.6637097,47.1475806 32.5604839,45.416129 32.5604839,43.4241935 C32.5604839,40.4056452 34.9814516,38 37.9846774,38 C40.9879032,38 43.4241935,40.4209677 43.4241935,43.4241935 Z M38,0 C17.0080645,0 0,17.0080645 0,38 C0,58.9919355 17.0080645,76 38,76 C58.9919355,76 76,58.9919355 76,38 C76,17.0080645 58.9919355,0 38,0 Z M38,73.2879032 C18.5403226,73.2879032 2.71209677,57.4596774 2.71209677,38 C2.71209677,18.5403226 18.5403226,2.71209677 38,2.71209677 C57.4596774,2.71209677 73.2879032,18.5403226 73.2879032,38 C73.2879032,57.4596774 57.4596774,73.2879032 38,73.2879032 Z" id="expeditedssl" fill="#000000" fill-rule="nonzero"></path>
    </g>
</svg>