<?xml version="1.0" encoding="UTF-8"?>
<svg width="66px" height="76px" viewBox="0 0 66 76" version="1.1" xmlns="http://www.w3.org/2000/svg" xmlns:xlink="http://www.w3.org/1999/xlink">
    <!-- Generator: Sketch 48.1 (47250) - http://www.bohemiancoding.com/sketch -->
    <title>fa</title>
    <desc>Created with Sketch.</desc>
    <defs></defs>
    <g id="fa---f2b4" stroke="none" stroke-width="1" fill="none" fill-rule="evenodd" transform="translate(-5.000000, 0.000000)">
        <path d="M70.9743789,53.3552059 C70.9743789,54.4238366 70.0520186,54.8818212 68.9759317,55.3398058 C64.697205,57.1717442 60.1110248,58.8255775 55.1917702,58.8255775 C48.2996894,58.8255775 45.0970497,54.5764982 36.8214286,54.5764982 C30.8517081,54.5764982 24.5745342,56.7137596 19.5271739,58.978239 C19.2197205,59.1309006 18.9122671,59.1309006 18.6048137,59.2835621 L18.6048137,70.8349515 C18.6048137,71.2929361 18.6048137,71.7509207 18.451087,72.0562437 L18.451087,72.3615668 C17.8361801,74.4988283 15.8377329,76 13.5574534,76 C10.6622671,76 8.35636646,73.710077 8.35636646,70.8349515 L8.35636646,15.2152662 C6.35791925,13.6886508 5,11.2715099 5,8.52360228 C5,3.81653833 8.81754658,0 13.5830745,0 C18.3229814,0 22.1661491,3.79109474 22.1661491,8.52360228 C22.1661491,11.2715099 20.9363354,13.6886508 18.8097826,15.2152662 L18.8097826,19.9223301 C19.2709627,19.7696686 19.7321429,19.617007 20.193323,19.311684 C24.9332298,17.327084 30.5954969,15.6732508 35.9503106,15.6732508 C41.7663043,15.6732508 46.3524845,17.1998661 51.5535714,19.1590224 C52.6296584,19.617007 53.7057453,19.7696686 54.9099379,19.7696686 C60.7259317,19.7696686 67.1568323,15.6732508 68.6940994,15.6732508 C69.923913,15.6732508 71,16.58922 71,17.6578507 L71,53.3552059 L70.9743789,53.3552059 Z" id="fa" fill="#000000" fill-rule="nonzero"></path>
    </g>
</svg>