<?xml version="1.0" encoding="UTF-8"?>
<svg width="76px" height="76px" viewBox="0 0 76 76" version="1.1" xmlns="http://www.w3.org/2000/svg" xmlns:xlink="http://www.w3.org/1999/xlink">
    <!-- Generator: Sketch 48.1 (47250) - http://www.bohemiancoding.com/sketch -->
    <title>facebook-official </title>
    <desc>Created with Sketch.</desc>
    <defs></defs>
    <g id="facebook-official---f230" stroke="none" stroke-width="1" fill="none" fill-rule="evenodd">
        <path d="M76,8.14285714 L76,67.8571429 C76,72.3526786 72.3526786,76 67.8571429,76 L53.3866071,76 L53.3866071,45.9392857 L63.6669643,45.9392857 L65.1428571,34.4714286 L53.3866071,34.4714286 L53.3866071,27.1428571 C53.3866071,23.8178571 54.3026786,21.5616071 59.0696429,21.5616071 L65.1428571,21.5616071 L65.1428571,11.3151786 C64.0910714,11.1794643 60.4946429,10.8571429 56.2875,10.8571429 C47.5339286,10.8571429 41.5285714,16.2008929 41.5285714,26.0232143 L41.5285714,34.4883929 L31.2142857,34.4883929 L31.2142857,45.95625 L41.5455357,45.95625 L41.5455357,76 L8.14285714,76 C3.64732143,76 0,72.3526786 0,67.8571429 L0,8.14285714 C0,3.64732143 3.64732143,0 8.14285714,0 L67.8571429,0 C72.3526786,0 76,3.64732143 76,8.14285714 Z" id="facebook-official-" fill="#000000" fill-rule="nonzero"></path>
    </g>
</svg>