<?xml version="1.0" encoding="UTF-8"?>
<svg width="74px" height="76px" viewBox="0 0 74 76" version="1.1" xmlns="http://www.w3.org/2000/svg" xmlns:xlink="http://www.w3.org/1999/xlink">
    <!-- Generator: Sketch 48.1 (47250) - http://www.bohemiancoding.com/sketch -->
    <title>firefox</title>
    <desc>Created with Sketch.</desc>
    <defs></defs>
    <g id="firefox---f269" stroke="none" stroke-width="1" fill="none" fill-rule="evenodd" transform="translate(-1.000000, 0.000000)">
        <path d="M74.7070833,34.729697 C74.5991667,34.0387879 74.49125,33.639596 74.49125,33.639596 C74.49125,33.639596 74.21375,33.9466667 73.7666667,34.5454545 C73.6279167,32.9026263 73.335,31.2905051 72.8725,29.6937374 C72.3020833,27.7131313 71.5620833,25.7939394 70.6370833,23.9515152 C70.05125,22.7232323 69.3729167,21.5563636 68.5866667,20.4509091 C68.3091667,20.0363636 68.01625,19.6218182 67.7233333,19.2379798 C66.3666667,17.0270707 64.7941667,15.6606061 62.9904167,13.0965657 C61.81875,11.1313131 61.0016667,8.96646465 60.61625,6.70949495 C60.1229167,8.0759596 59.7375,9.47313131 59.4754167,10.9010101 C57.61,9.02787879 56.0066667,7.70747475 55.02,6.80161616 C50.2408333,2.31838384 50.7958333,0 50.7958333,0 C50.7958333,0 41.8079167,9.99515152 45.6929167,20.4048485 C47.0341667,23.9361616 49.3620833,27.0222222 52.38375,29.2945455 C56.1454167,32.3959596 60.2154167,34.8218182 62.3583333,41.0553535 C60.6316667,37.7850505 58.02625,35.0367677 54.835,33.1482828 C55.7908333,35.4052525 56.2841667,37.8464646 56.26875,40.2876768 C56.26875,49.6533333 48.6220833,57.2533333 39.2179167,57.2379798 C37.9383333,57.2379798 36.6741667,57.099798 35.4408333,56.8080808 C33.97625,56.5317172 32.5579167,56.0557576 31.2166667,55.380202 C29.2279167,54.1826263 27.5166667,52.6012121 26.16,50.7280808 L26.1291667,50.6820202 L26.4375,50.7894949 C27.1466667,51.0351515 27.8558333,51.2193939 28.5958333,51.3575758 C31.47875,51.9717172 34.5004167,51.6185859 37.1675,50.3442424 C39.8654167,48.8549495 41.4841667,47.7494949 42.81,48.1947475 L42.8408333,48.1947475 C44.1358333,48.6092929 45.1533333,47.350303 44.2283333,46.0452525 C42.625,43.9878788 40.0041667,42.9745455 37.4141667,43.4351515 C34.71625,43.8189899 32.2495833,45.7381818 28.7191667,43.880404 C28.4879167,43.7575758 28.2720833,43.6347475 28.05625,43.4965657 C27.8095833,43.3583838 28.8116667,43.6961616 28.5804167,43.5426263 C27.8095833,43.1587879 27.0695833,42.7135354 26.3604167,42.2222222 C26.3141667,42.1761616 26.9,42.3911111 26.8383333,42.3450505 C25.92875,41.7309091 25.1425,40.9325253 24.5258333,40.0113131 C23.89375,38.8751515 23.8320833,37.4933333 24.3716667,36.3111111 C24.6954167,35.7276768 25.2041667,35.2517172 25.8054167,34.9753535 C26.2679167,35.2056566 26.5454167,35.3745455 26.5454167,35.3745455 C26.5454167,35.3745455 26.345,34.9907071 26.2216667,34.7911111 C26.2679167,34.7757576 26.29875,34.7911111 26.345,34.760404 C26.7458333,34.9292929 27.6245833,35.3745455 28.1025,35.6509091 C28.42625,35.819798 28.6883333,36.0654545 28.9041667,36.3725253 C28.9041667,36.3725253 29.0583333,36.2957576 28.9504167,35.9579798 C28.7808333,35.5434343 28.5033333,35.190303 28.1179167,34.9446465 L28.14875,34.9446465 C28.5033333,35.1288889 28.8425,35.3438384 29.16625,35.5741414 C29.4591667,34.8985859 29.5979167,34.1616162 29.5670833,33.4246465 C29.5979167,33.0254545 29.53625,32.6109091 29.3975,32.2270707 C29.2741667,31.9814141 29.4745833,31.8892929 29.6904167,32.150303 C29.6595833,31.9507071 29.5825,31.7664646 29.5054167,31.5822222 L29.5054167,31.5668687 C29.5054167,31.5668687 29.62875,31.3979798 29.6904167,31.3365657 C29.8445833,31.1830303 30.0141667,31.0448485 30.2145833,30.9220202 C31.3245833,30.2311111 32.49625,29.6323232 33.7141667,29.1410101 C34.7008333,28.7111111 35.5179167,28.3886869 35.6875,28.2812121 C35.9341667,28.1276768 36.1654167,27.9434343 36.38125,27.7438384 C37.1983333,27.0529293 37.76875,26.0856566 37.95375,25.0262626 C37.9691667,24.8880808 37.9845833,24.749899 38,24.5963636 L38,24.3660606 C37.86125,23.8286869 36.93625,23.4294949 32.08,22.9688889 C30.36875,22.6925253 28.9966667,21.4181818 28.61125,19.7292929 L28.61125,19.7446465 C28.5495833,19.9135354 28.4725,20.0977778 28.4108333,20.2820202 C28.4725,20.0977778 28.5341667,19.9288889 28.61125,19.7446465 L28.61125,19.7139394 C29.53625,17.3034343 31.20125,15.2460606 33.3595833,13.8335354 C33.4829167,13.7260606 32.86625,13.8642424 32.9895833,13.7567677 C33.4058333,13.5571717 33.8220833,13.3729293 34.25375,13.2193939 C34.4695833,13.1272727 33.32875,12.6973737 32.31125,12.8048485 C31.6945833,12.8355556 31.0779167,12.9890909 30.5075,13.2347475 C30.7541667,13.0351515 31.4633333,12.7587879 31.29375,12.7587879 C29.99875,13.0044444 28.75,13.480404 27.6091667,14.1406061 C27.6091667,14.0177778 27.6245833,13.910303 27.68625,13.8028283 C26.7766667,14.1866667 25.9904167,14.8008081 25.37375,15.5684848 C25.3891667,15.430303 25.4045833,15.2921212 25.4045833,15.1539394 C24.9883333,15.4610101 24.6029167,15.8141414 24.2791667,16.2133333 L24.26375,16.2286869 C21.58125,15.2 18.6675,14.9543434 15.84625,15.5070707 L15.8154167,15.4917172 L15.84625,15.4917172 C15.2604167,15.0157576 14.7516667,14.4630303 14.3508333,13.8181818 L14.32,13.8335354 L14.2583333,13.8028283 C14.0733333,13.5264646 13.8883333,13.2193939 13.6879167,12.8816162 C13.5491667,12.6359596 13.4104167,12.359596 13.2716667,12.0832323 C13.2716667,12.0678788 13.25625,12.0525253 13.2408333,12.0525253 C13.1791667,12.0525253 13.1483333,12.3135354 13.1020833,12.2521212 L13.1020833,12.2367677 C12.60875,10.9624242 12.3775,9.5959596 12.42375,8.21414141 L12.3929167,8.22949495 C11.6066667,8.76686869 11.0054167,9.54989899 10.6816667,10.4557576 C10.5429167,10.7781818 10.435,10.9624242 10.3425,11.1466667 L10.3425,11.069899 C10.3579167,10.9010101 10.435,10.5632323 10.4195833,10.5939394 C10.4041667,10.6246465 10.38875,10.64 10.3733333,10.6553535 C10.1420833,10.9163636 9.92625,11.2234343 9.77208333,11.5458586 C9.63333333,11.8375758 9.51,12.1446465 9.4175,12.4517172 C9.40208333,12.4977778 9.4175,12.4056566 9.4175,12.2981818 C9.4175,12.1907071 9.43291667,11.9911111 9.4175,12.0371717 L9.37125,12.1446465 C8.33833333,14.4323232 7.69083333,16.8735354 7.45958333,19.3761616 C7.39791667,19.8060606 7.36708333,20.2359596 7.3825,20.6505051 L7.3825,20.6812121 C6.6425,21.479596 5.995,22.370101 5.42458333,23.3066667 C3.55916667,26.4387879 2.17166667,29.8319192 1.29291667,33.3785859 C1.90958333,32.0274747 2.64958333,30.7377778 3.4975,29.5248485 C1.84791667,33.6856566 1,38.1228283 1,42.6060606 C1.2775,41.2856566 1.6475,39.9959596 2.07916667,38.7216162 C1.81708333,44.0185859 2.83458333,49.300202 5.07,54.1212121 C8.06083333,60.8 13.025,66.4040404 19.2995833,70.1963636 C21.85875,71.9159596 24.6491667,73.2517172 27.59375,74.1575758 C27.9791667,74.2957576 28.38,74.4339394 28.7808333,74.5721212 C28.6575,74.5260606 28.5341667,74.4646465 28.4108333,74.4185859 C31.895,75.4626263 35.5333333,76 39.1716667,76 C52.0754167,76 56.3304167,71.1022222 56.7158333,70.6262626 C57.3479167,70.0581818 57.8720833,69.3672727 58.2420833,68.5842424 C58.48875,68.4767677 58.7354167,68.3692929 58.9975,68.2618182 L59.1516667,68.1850505 L59.4445833,68.0468687 C61.3870833,67.1410101 63.2216667,65.9894949 64.8866667,64.6537374 C67.3995833,62.8573737 69.1879167,60.2472727 69.95875,57.2686869 C70.42125,56.1785859 70.4366667,54.9656566 70.0204167,53.860202 C70.1591667,53.6452525 70.2825,53.430303 70.4366667,53.2 C73.2116667,48.7628283 74.7841667,43.6961616 75,38.4759596 L75,38.0460606 C75,36.9252525 74.9075,35.819798 74.7070833,34.729697 Z" id="firefox" fill="#000000" fill-rule="nonzero"></path>
    </g>
</svg>