<?xml version="1.0" encoding="UTF-8"?>
<svg width="65px" height="76px" viewBox="0 0 65 76" version="1.1" xmlns="http://www.w3.org/2000/svg" xmlns:xlink="http://www.w3.org/1999/xlink">
    <!-- Generator: Sketch 48.1 (47250) - http://www.bohemiancoding.com/sketch -->
    <title>first-order</title>
    <desc>Created with Sketch.</desc>
    <defs></defs>
    <g id="first-order---f2b0" stroke="none" stroke-width="1" fill="none" fill-rule="evenodd" transform="translate(-6.000000, 0.000000)">
        <path d="M7.22948952,34.021875 C7.24430264,34.0070312 7.25911577,33.9773437 7.2739289,33.9625 C7.2739289,33.9773437 7.2739289,34.0070312 7.25911577,34.021875 L7.22948952,34.021875 Z M38.5,14.3390625 C37.448268,14.3390625 36.3372835,14.428125 35.3299909,14.5914063 L35.8780766,24.5960937 L32.6191887,15.0960937 C30.5009116,15.6453125 28.5159526,16.4914063 26.693938,17.5601562 L31.0489973,26.6742187 L24.3682771,19.11875 C22.6795807,20.4398437 21.1538286,21.9539062 19.8354603,23.7054687 L27.3309025,30.4445312 L18.280082,26.0359375 C17.22835,27.8617188 16.3691887,29.8507812 15.821103,31.9734375 L25.3459435,35.328125 L15.2730173,34.734375 C15.1396992,35.7882812 15.0656335,36.9015625 15.0656335,38 C15.0656335,39.0984375 15.1545123,40.1671875 15.2730173,41.2210937 L25.3015041,40.6273437 L15.821103,43.9820312 C16.3691887,46.1046875 17.2135369,48.09375 18.280082,49.9640625 L27.3309025,45.5554688 L19.791021,52.25 C21.1093892,53.9867187 22.6203282,55.5601563 24.3682771,56.8367187 L31.019371,49.28125 L26.6494986,58.3953125 C28.4715132,59.49375 30.4564722,60.3398437 32.5747493,60.9039062 L35.8780766,51.3148437 L35.2855515,61.4085937 C36.3372835,61.571875 37.448268,61.6609375 38.5,61.6609375 C39.5961714,61.6609375 40.6627165,61.571875 41.7144485,61.4085937 L41.1219234,51.2257812 L44.4696901,60.8890625 C46.5879672,60.2953125 48.5729262,59.49375 50.3949407,58.3804687 L46.0398815,49.28125 L52.6909754,56.8367187 C54.4241112,55.515625 55.9498633,54.0015625 57.2237922,52.25 L49.72835,45.5554687 L58.7791705,49.9195312 C59.8309025,48.09375 60.6900638,46.1046875 61.2381495,43.9375 L51.7577484,40.6273437 L61.7417958,41.2210937 C61.9047402,40.1671875 61.9491796,39.0984375 61.9491796,38 C61.9491796,36.9015625 61.9047402,35.7882812 61.7417958,34.734375 L51.713309,35.328125 L61.1937101,32.0179687 C60.6456244,29.8953125 59.8457156,27.8617187 58.7347311,26.0359375 L49.7135369,30.4445312 L57.208979,23.7054687 C55.8906108,21.96875 54.3796718,20.4398437 52.6761623,19.11875 L45.9954421,26.6742187 L50.3505014,17.6046875 C48.5284868,16.50625 46.5435278,15.6601562 44.4252507,15.0960937 L41.1219234,24.640625 L41.7144485,14.5914063 C40.6627165,14.4132813 39.5961714,14.3390625 38.5,14.3390625 Z M71,19 L71,57 L38.5,76 L6,57 L6,19 L38.5,0 L71,19 Z M68.4669553,20.5289063 L38.5,3.10234375 L8.53304467,20.5289063 L8.53304467,55.4265625 L38.5,72.8976563 L68.4669553,55.4265625 L68.4669553,20.5289063 Z M38.5,5.50703125 L66.3042388,21.7460937 L66.3042388,54.2390625 L38.5,70.4929687 L10.6957612,54.2390625 L10.6957612,21.7609375 L38.5,5.50703125 Z M38.5,13.0625 C24.827484,13.0625 13.7768915,24.2101562 13.7768915,38 C13.7768915,51.7453125 24.827484,62.8929687 38.5,62.8929687 C52.1280766,62.8929687 63.2231085,51.7453125 63.2231085,38 C63.2231085,24.2101562 52.1280766,13.0625 38.5,13.0625 Z" id="first-order" fill="#000000" fill-rule="nonzero"></path>
    </g>
</svg>