<?xml version="1.0" encoding="UTF-8"?>
<svg width="76px" height="76px" viewBox="0 0 76 76" version="1.1" xmlns="http://www.w3.org/2000/svg" xmlns:xlink="http://www.w3.org/1999/xlink">
    <!-- Generator: Sketch 48.1 (47250) - http://www.bohemiancoding.com/sketch -->
    <title>flickr</title>
    <desc>Created with Sketch.</desc>
    <defs></defs>
    <g id="flickr---f16e" stroke="none" stroke-width="1" fill="none" fill-rule="evenodd">
        <path d="M67.8571429,0 L8.14285714,0 C3.64732143,0 0,3.64732143 0,8.14285714 L0,67.8571429 C0,72.3526786 3.64732143,76 8.14285714,76 L67.8571429,76 C72.3526786,76 76,72.3526786 76,67.8571429 L76,8.14285714 C76,3.64732143 72.3526786,0 67.8571429,0 Z M24.5133929,48.6875 C18.5589286,48.6875 13.7410714,43.8696429 13.7410714,37.9151786 C13.7410714,31.9607143 18.5589286,27.1428571 24.5133929,27.1428571 C30.4678571,27.1428571 35.2857143,31.9607143 35.2857143,37.9151786 C35.2857143,43.8696429 30.4678571,48.6875 24.5133929,48.6875 Z M51.4866071,48.6875 C45.5321429,48.6875 40.7142857,43.8696429 40.7142857,37.9151786 C40.7142857,31.9607143 45.5321429,27.1428571 51.4866071,27.1428571 C57.4410714,27.1428571 62.2589286,31.9607143 62.2589286,37.9151786 C62.2589286,43.8696429 57.4410714,48.6875 51.4866071,48.6875 Z" id="flickr" fill="#000000" fill-rule="nonzero"></path>
    </g>
</svg>