<?xml version="1.0" encoding="UTF-8"?>
<svg width="76px" height="76px" viewBox="0 0 76 76" version="1.1" xmlns="http://www.w3.org/2000/svg" xmlns:xlink="http://www.w3.org/1999/xlink">
    <!-- Generator: Sketch 48.1 (47250) - http://www.bohemiancoding.com/sketch -->
    <title>forumbee</title>
    <desc>Created with Sketch.</desc>
    <defs></defs>
    <g id="forumbee---f211" stroke="none" stroke-width="1" fill="none" fill-rule="evenodd">
        <path d="M0.983928571,46.6008929 C0.339285714,43.7169643 0,40.7991071 0,37.88125 C0,16.9642857 16.9303571,0 37.8473214,0 C40.6633929,0 43.4964286,0.339285714 46.2107143,0.933035714 C25.2767857,8.90625 8.80446429,25.6160714 0.983928571,46.6008929 Z M67.6366071,14.5044643 C65.3125,11.5357143 62.5982143,8.95714286 59.5276786,6.81964286 C34.1491071,14.3348214 14.3517857,34.31875 6.98928571,59.7482143 C9.10982143,62.81875 11.7392857,65.7875 14.6571429,68.0607143 C21.96875,42.39375 42.0035714,21.96875 67.6366071,14.5044643 Z M70.3169643,57.3732143 C72.8955357,53.1151786 74.6258929,48.2633929 75.3214286,43.3267857 C61.8517857,50.6044643 50.7232143,62.0892857 43.4964286,75.6098214 C48.5857143,74.8633929 53.4883929,73.0142857 57.8482143,70.3 C63.7857143,72.5223214 69.8758929,74.4223214 76,76 C74.4223214,69.8080357 72.5392857,63.3616071 70.3169643,57.3732143 Z M75.3553571,32.6901786 C74.9142857,29.3821429 74.0151786,26.125 72.675,23.0544643 C49.28125,30.8241071 30.875,49.6205357 23.2580357,73.1160714 C26.3285714,74.4053571 29.5348214,75.2366071 32.8598214,75.6946429 C40.7142857,56.3383929 56.0669643,40.6125 75.3553571,32.6901786 Z" id="forumbee" fill="#000000" fill-rule="nonzero"></path>
    </g>
</svg>