<?xml version="1.0" encoding="UTF-8"?>
<svg width="54px" height="76px" viewBox="0 0 54 76" version="1.1" xmlns="http://www.w3.org/2000/svg" xmlns:xlink="http://www.w3.org/1999/xlink">
    <!-- Generator: Sketch 48.1 (47250) - http://www.bohemiancoding.com/sketch -->
    <title>foursquare</title>
    <desc>Created with Sketch.</desc>
    <defs></defs>
    <g id="foursquare---f180" stroke="none" stroke-width="1" fill="none" fill-rule="evenodd" transform="translate(-11.000000, 0.000000)">
        <path d="M58.4086681,0 L18.3218587,0 C12.8194599,0 11,4.20118686 11,6.84362948 L11,71.2420344 C11,74.2556066 12.7754407,75.3541502 13.6704976,75.7104346 C14.5802275,76.0815641 17.015956,76.393313 18.4979354,74.6564265 C37.4115143,52.4777228 37.7343217,52.1065932 37.7343217,52.1065932 C38.1891866,51.601857 38.2332058,51.6463925 38.73209,51.6463925 L50.9694249,51.6463925 C56.1196702,51.6463925 56.9266887,47.9054063 57.469592,45.7528548 L64.6007009,9.67905948 C65.8479113,3.38470178 64.2778935,0 58.4086681,0 Z M56.0169588,10.9557452 L54.3442295,19.8183196 C54.1681528,20.7832565 52.9502885,21.7778838 51.8644818,21.7778838 L36.2523422,21.7778838 C34.4915746,21.7778838 33.2296912,23.010034 33.2296912,24.791456 L33.2296912,26.7213298 C33.2296912,28.5027518 34.4915746,29.7794376 36.2523422,29.7794376 L49.5167916,29.7794376 C50.7346559,29.7794376 51.9525202,31.1451945 51.688405,32.4812609 C51.4242899,33.8024823 50.1477334,40.4679695 50.0156758,41.2102287 C49.8836182,41.9376427 49.0179075,43.2143284 47.5359281,43.2143284 L36.7512264,43.2143284 C34.7703628,43.2143284 34.2274595,43.4815417 32.8628646,45.0848215 C32.8628646,45.0848215 31.5569619,46.7771724 19.7304728,61.162155 C19.5984152,61.2957616 19.4663576,61.2512261 19.4663576,61.1176194 L19.4663576,10.8221386 C19.4663576,9.67905948 20.4641259,8.35783817 21.9020862,8.35783817 L54.0360952,8.35783817 C55.2392864,8.35783817 56.3250931,9.50091728 56.0169588,10.9557452 Z" id="foursquare" fill="#000000" fill-rule="nonzero"></path>
    </g>
</svg>