<?xml version="1.0" encoding="UTF-8"?>
<svg width="76px" height="68px" viewBox="0 0 76 68" version="1.1" xmlns="http://www.w3.org/2000/svg" xmlns:xlink="http://www.w3.org/1999/xlink">
    <!-- Generator: Sketch 48.1 (47250) - http://www.bohemiancoding.com/sketch -->
    <title>get-pocket</title>
    <desc>Created with Sketch.</desc>
    <defs></defs>
    <g id="get-pocket---f265" stroke="none" stroke-width="1" fill="none" fill-rule="evenodd" transform="translate(0.000000, -4.000000)">
        <path d="M69.1464286,4 L6.8875,4 C3.13839286,4 0,7.145 0,10.902 L0,33.886 C0,55.085 16.9133929,72 38.0339286,72 C59.0696429,72 76,55.085 76,33.886 L76,10.902 C76,7.094 72.9973214,4 69.1464286,4 Z M41.6642857,49.645 C39.5607143,51.651 36.3375,51.532 34.4714286,49.645 C15.1830357,31.132 14.9794643,31.778 14.9794643,28.701 C14.9794643,25.828 17.3205357,23.482 20.1875,23.482 C23.0714286,23.482 22.91875,24.128 38.0339286,38.663 C53.4035714,23.89 53.0642857,23.482 55.93125,23.482 C58.7982143,23.482 61.1392857,25.828 61.1392857,28.701 C61.1392857,31.727 60.6473214,31.37 41.6642857,49.645 Z" id="get-pocket" fill="#000000" fill-rule="nonzero"></path>
    </g>
</svg>