<?xml version="1.0" encoding="UTF-8"?>
<svg width="76px" height="76px" viewBox="0 0 76 76" version="1.1" xmlns="http://www.w3.org/2000/svg" xmlns:xlink="http://www.w3.org/1999/xlink">
    <!-- Generator: Sketch 48.1 (47250) - http://www.bohemiancoding.com/sketch -->
    <title>git-square</title>
    <desc>Created with Sketch.</desc>
    <defs></defs>
    <g id="git-square---f1d2" stroke="none" stroke-width="1" fill="none" fill-rule="evenodd">
        <path d="M23.7669643,53.6919643 C25.8196429,53.6919643 28.7714286,54.0482143 28.7714286,56.7285714 C28.7714286,59.3580357 26.4133929,59.9178571 24.1910714,59.9178571 C22.1044643,59.9178571 18.9491071,59.5785714 18.9491071,56.8642857 C18.9491071,54.15 21.6125,53.6919643 23.7669643,53.6919643 Z M19.5767857,33.9116071 C19.5767857,36.4223214 20.6964286,38 23.3598214,38 C25.9892857,38 26.95625,36.3035714 26.95625,33.84375 C26.9732143,28.0080357 19.5767857,27.9401786 19.5767857,33.9116071 Z M0,0 L76,0 L76,76 L0,76 L0,0 Z M35.1160714,24.0383929 C33.0294643,24.8526786 30.7901786,25.4633929 28.5169643,25.4633929 C21.9857143,21.7142857 13.1303571,25.6160714 13.1303571,33.8607143 C13.1303571,36.9142857 15.0982143,41.1383929 18.1517857,42.15625 L18.1517857,42.275 C15.8785714,43.2758929 15.2508929,48.3991071 18.2705357,50.2482143 L18.2705357,50.3669643 C14.9625,51.4526786 12.7910714,53.55625 12.7910714,57.1866071 C12.7910714,63.4294643 18.6946429,65.1598214 23.8857143,65.1598214 C30.1794643,65.1598214 34.8785714,62.8866071 34.8785714,55.9482143 C34.8785714,47.3982143 22.6473214,50.5535714 22.6473214,45.9223214 C22.6473214,44.29375 23.5294643,43.6491071 25.0392857,43.34375 C30.0607143,42.4107143 33.2160714,38.4919643 33.2160714,33.3857143 C33.2160714,32.5035714 33.0294643,31.6553571 32.7241071,30.8410714 C33.5383929,30.6544643 34.3357143,30.4508929 35.1160714,30.1794643 L35.1160714,24.0383929 Z M44.7517857,24.34375 L38.0339286,24.34375 C38.2544643,26.1419643 38.2205357,48.5348214 38.0339286,50.7232143 L44.7517857,50.7232143 C44.5651786,48.5517857 44.5482143,26.1080357 44.7517857,24.34375 Z M45.5151786,15.3017857 C45.5151786,13.0285714 43.81875,10.8571429 41.4267857,10.8571429 C39.0008929,10.8571429 37.2535714,12.9776786 37.2535714,15.3017857 C37.2535714,17.6089286 39.0348214,19.6955357 41.4267857,19.6955357 C43.7508929,19.6955357 45.5151786,17.575 45.5151786,15.3017857 Z M63.2089286,24.34375 L57.0339286,24.34375 C57.0339286,22.68125 56.9660714,21.01875 57.2205357,19.3392857 L50.35,19.3392857 C50.5705357,20.5776786 50.5366071,21.6464286 50.5366071,24.34375 L47.6357143,24.34375 L47.6357143,30.0946429 C49.6544643,29.7723214 49.6883929,29.9758929 50.5366071,29.9758929 L50.5366071,30.0946429 L50.46875,30.0946429 L50.46875,40.73125 C50.46875,46.0071429 51.2321429,51.1133929 57.7125,51.1133929 C59.5276786,51.1133929 61.6142857,50.8080357 63.2258929,49.9258929 L63.2258929,43.9883929 C62.2589286,44.65 60.8678571,44.9892857 59.6803571,44.9892857 C57.4410714,44.9892857 57.0508929,42.8008929 57.0508929,41.0196429 L57.0508929,29.9589286 C60.9017857,29.9589286 63.2258929,30.0776786 63.2258929,30.0776786 L63.2258929,24.34375 L63.2089286,24.34375 Z" id="git-square" fill="#000000" fill-rule="nonzero"></path>
    </g>
</svg>