<?xml version="1.0" encoding="UTF-8"?>
<svg width="71px" height="76px" viewBox="0 0 71 76" version="1.1" xmlns="http://www.w3.org/2000/svg" xmlns:xlink="http://www.w3.org/1999/xlink">
    <!-- Generator: Sketch 48.1 (47250) - http://www.bohemiancoding.com/sketch -->
    <title>git</title>
    <desc>Created with Sketch.</desc>
    <defs></defs>
    <g id="git---f1d3" stroke="none" stroke-width="1" fill="none" fill-rule="evenodd" transform="translate(-3.000000, 0.000000)">
        <path d="M3.47788462,32.18125 C3.47788462,36.4732143 6.24278846,42.3598214 10.5608173,43.8017857 L10.5608173,43.9714286 C7.35216346,45.3794643 6.46466346,52.5553571 10.7314904,55.1339286 L10.7314904,55.3035714 C6.07211538,56.8303571 3,59.7651786 3,64.8375 C3,73.5741071 11.3288462,76 18.6165865,76 C27.4915865,76 34.0966346,72.8276786 34.0966346,63.1071429 C34.0966346,51.1473214 16.8586538,55.5580357 16.8586538,49.0607143 C16.8586538,46.7705357 18.0875,45.8883929 20.2209135,45.4473214 C27.3038462,44.1410714 31.7413462,38.6616071 31.7413462,31.5026786 C31.7413462,30.2642857 31.4853365,29.09375 31.0586538,27.9401786 C32.2021635,27.6857143 33.3115385,27.3803571 34.4209135,27.0071429 L34.4209135,18.4401786 C31.4853365,19.59375 28.3278846,20.4419643 25.1192308,20.4419643 C15.9370192,15.1830357 3.47788462,20.6625 3.47788462,32.18125 Z M18.4459135,59.96875 C21.3473558,59.96875 25.4776442,60.4776786 25.4776442,64.2098214 C25.4776442,67.9080357 22.1495192,68.6714286 19.0432692,68.6714286 C16.090625,68.6714286 11.653125,68.2133929 11.653125,64.3964286 C11.6701923,60.6133929 15.425,59.96875 18.4459135,59.96875 Z M17.8997596,38 C14.1449519,38 12.5576923,35.7946429 12.5576923,32.2660714 C12.5576923,23.9026786 22.96875,23.9875 22.96875,32.18125 C22.96875,35.625 21.6033654,38 17.8997596,38 Z M74,46.3973214 L74,54.7098214 C71.7300481,55.9482143 68.7944712,56.3723214 66.234375,56.3723214 C57.1033654,56.3723214 56.028125,49.2133929 56.028125,41.8339286 L56.028125,26.95625 L56.1134615,26.95625 L56.1134615,26.7866071 C54.91875,26.7866071 54.8675481,26.5151786 52.0173077,26.95625 L52.0173077,18.8982143 L56.1134615,18.8982143 C56.1134615,15.1151786 56.1646635,13.6392857 55.8574519,11.9089286 L65.5346154,11.9089286 C65.1932692,14.25 65.2786058,16.5741071 65.2786058,18.8982143 L73.9829327,18.8982143 L73.9829327,26.95625 C73.9829327,26.95625 70.6889423,26.7866071 65.2786058,26.7866071 L65.2786058,42.2410714 C65.2786058,44.7517857 65.8418269,47.8053571 68.9992788,47.8053571 C70.671875,47.8053571 72.6346154,47.3303571 74,46.3973214 Z M49.0817308,6.22589286 C49.0817308,9.39821429 46.6069712,12.3669643 43.3129808,12.3669643 C39.9336538,12.3669643 37.4247596,9.44910714 37.4247596,6.22589286 C37.4247596,2.95178571 39.8995192,0 43.3129808,0 C46.6923077,0 49.0817308,3.05357143 49.0817308,6.22589286 Z M48.0235577,18.8642857 C47.7163462,21.3410714 47.7504808,52.7589286 48.0235577,55.8125 L38.5512019,55.8125 C38.8242788,52.7419643 38.8584135,21.375 38.5512019,18.8642857 L48.0235577,18.8642857 Z" id="git" fill="#000000" fill-rule="nonzero"></path>
    </g>
</svg>