<?xml version="1.0" encoding="UTF-8"?>
<svg width="76px" height="76px" viewBox="0 0 76 76" version="1.1" xmlns="http://www.w3.org/2000/svg" xmlns:xlink="http://www.w3.org/1999/xlink">
    <!-- Generator: Sketch 48.1 (47250) - http://www.bohemiancoding.com/sketch -->
    <title>github-square</title>
    <desc>Created with Sketch.</desc>
    <defs></defs>
    <g id="github-square---f092" stroke="none" stroke-width="1" fill="none" fill-rule="evenodd">
        <path d="M-3.55271368e-15,0 L76,0 L76,76 L-3.55271368e-15,76 L-3.55271368e-15,0 Z M47.0419643,65.0919643 C58.2383929,61.3598214 65.8383929,50.6892857 65.8214286,38.2375 C65.8214286,22.6642857 53.2,10.8401786 37.6267857,10.8401786 C22.0535714,10.8401786 10.1446429,22.6642857 10.1446429,38.2375 C10.1446429,50.6892857 17.9821429,61.3428571 29.1785714,65.0919643 C30.6205357,65.3464286 31.1294643,64.4642857 31.1294643,63.7348214 C31.1294643,63.0392857 31.0955357,59.2053571 31.0955357,56.8473214 C31.0955357,56.8473214 23.2241071,58.54375 21.5785714,53.5053571 C21.5785714,53.5053571 20.2892857,50.2482143 18.4571429,49.4 C18.4571429,49.4 15.8955357,47.6357143 18.64375,47.6696429 C18.64375,47.6696429 21.4258929,47.8901786 22.9696429,50.5705357 C25.4294643,54.9133929 29.5517857,53.6580357 31.1633929,52.9285714 C31.4178571,51.1303571 32.1473214,49.875 32.9616071,49.1455357 C26.6848214,48.45 20.3571429,47.5339286 20.3571429,36.7446429 C20.3571429,33.6571429 21.2053571,32.1133929 23.0035714,30.1285714 C22.6982143,29.3821429 21.7482143,26.3794643 23.2919643,22.4946429 C25.65,21.7651786 31.0446429,25.53125 31.0446429,25.53125 C33.2839286,24.9035714 35.7098214,24.58125 38.1017857,24.58125 C40.49375,24.58125 42.9196429,24.9035714 45.1589286,25.53125 C45.1589286,25.53125 50.5535714,21.7651786 52.9116071,22.4946429 C54.4553571,26.3964286 53.4883929,29.3991071 53.2,30.1285714 C54.9982143,32.1133929 56.1008929,33.6571429 56.1008929,36.7446429 C56.1008929,47.5848214 49.4848214,48.45 43.2080357,49.1455357 C44.2428571,50.0276786 45.125,51.7071429 45.125,54.3535714 C45.125,58.1366071 45.0910714,62.81875 45.0910714,63.7348214 C45.0910714,64.4642857 45.6169643,65.3464286 47.0419643,65.0919643 Z M30.4,54.7267857 C30.7392857,54.6589286 30.9598214,54.4383929 30.9089286,54.2178571 C30.875,53.9973214 30.5696429,53.8616071 30.2473214,53.8955357 C29.925,53.9633929 29.7044643,54.1839286 29.7383929,54.4383929 C29.7723214,54.6589286 30.0776786,54.7946429 30.4,54.7267857 Z M28.7883929,54.5741071 C28.7883929,54.3196429 28.4830357,54.1330357 28.1607143,54.1669643 C27.8214286,54.1669643 27.5669643,54.3535714 27.5669643,54.5741071 C27.5669643,54.8285714 27.8214286,55.0151786 28.1946429,54.98125 C28.5339286,54.98125 28.7883929,54.7946429 28.7883929,54.5741071 Z M26.4642857,54.3875 C26.5491071,54.1669643 26.3285714,53.9125 25.9892857,53.8107143 C25.7008929,53.7428571 25.3616071,53.8446429 25.29375,54.0651786 C25.2258929,54.2857143 25.4464286,54.5401786 25.76875,54.6080357 C26.0571429,54.7098214 26.3964286,54.6080357 26.4642857,54.3875 Z M24.3776786,53.4714286 C24.5303571,53.3357143 24.4455357,52.9964286 24.225,52.7758929 C23.9705357,52.5214286 23.6482143,52.4875 23.4955357,52.6741071 C23.3258929,52.8267857 23.39375,53.1491071 23.6482143,53.3696429 C23.9026786,53.6241071 24.225,53.6580357 24.3776786,53.4714286 Z M22.8339286,51.9276786 C23.0205357,51.7919643 23.0205357,51.4866071 22.8339286,51.2321429 C22.68125,50.9776786 22.3928571,50.8589286 22.20625,51.0116071 C22.0196429,51.1303571 22.0196429,51.41875 22.20625,51.6732143 C22.3928571,51.9276786 22.68125,52.0294643 22.8339286,51.9276786 Z M21.73125,50.2821429 C21.8839286,50.1633929 21.85,49.9089286 21.6633929,49.6883929 C21.4767857,49.51875 21.2223214,49.4339286 21.0696429,49.5866071 C20.9169643,49.7053571 20.9508929,49.9598214 21.1375,50.1803571 C21.3241071,50.35 21.5785714,50.4348214 21.73125,50.2821429 Z M20.5946429,49.0267857 C20.6625,48.8910714 20.5607143,48.7044643 20.3401786,48.5857143 C20.1196429,48.5008929 19.9330357,48.5517857 19.8651786,48.6535714 C19.7973214,48.80625 19.8991071,48.9928571 20.1196429,49.0946429 C20.30625,49.2133929 20.5267857,49.1794643 20.5946429,49.0267857 Z" id="github-square" fill="#000000" fill-rule="nonzero"></path>
    </g>
</svg>