<?xml version="1.0" encoding="UTF-8"?>
<svg width="76px" height="75px" viewBox="0 0 76 75" version="1.1" xmlns="http://www.w3.org/2000/svg" xmlns:xlink="http://www.w3.org/1999/xlink">
    <!-- Generator: Sketch 48.1 (47250) - http://www.bohemiancoding.com/sketch -->
    <title>github</title>
    <desc>Created with Sketch.</desc>
    <defs></defs>
    <g id="github---f09b" stroke="none" stroke-width="1" fill="none" fill-rule="evenodd" transform="translate(0.000000, -1.000000)">
        <path d="M25.4201613,61.3898903 C25.4201613,61.7000593 25.0677419,61.9481944 24.6233871,61.9481944 C24.1177419,61.9947197 23.7653226,61.7465846 23.7653226,61.3898903 C23.7653226,61.0797214 24.1177419,60.8315863 24.5620968,60.8315863 C25.0217742,60.7850609 25.4201613,61.0331961 25.4201613,61.3898903 Z M20.6548387,60.6920102 C20.5475806,61.0021792 20.8540323,61.3588734 21.3137097,61.4519241 C21.7120968,61.6070086 22.1717742,61.4519241 22.2637097,61.1417552 C22.3556452,60.8315863 22.0645161,60.474892 21.6048387,60.335316 C21.2064516,60.2267568 20.7620968,60.3818413 20.6548387,60.6920102 Z M27.4274194,60.4283666 C26.9830645,60.5369258 26.6766129,60.8315863 26.7225806,61.1882805 C26.7685484,61.4984494 27.1669355,61.7000593 27.6266129,61.5915001 C28.0709677,61.482941 28.3774194,61.1882805 28.3314516,60.8781116 C28.2854839,60.5834511 27.8717742,60.3818413 27.4274194,60.4283666 Z M37.5096774,1 C16.2572581,1 0,17.3303941 0,38.8406092 C0,56.0394763 10.6951613,70.756992 25.9717742,75.9368131 C27.9330645,76.2935073 28.6225806,75.0683401 28.6225806,74.060291 C28.6225806,73.0987674 28.5766129,67.7948787 28.5766129,64.5381049 C28.5766129,64.5381049 17.8508065,66.8643719 15.5983871,59.9165879 C15.5983871,59.9165879 13.8516129,55.40363 11.3387097,54.2404965 C11.3387097,54.2404965 7.82983871,51.8056704 11.583871,51.8521958 C11.583871,51.8521958 15.3991935,52.1623647 17.4983871,55.853375 C20.8540323,61.8396353 26.4774194,60.1181977 28.6685484,59.0946403 C29.0209677,56.6132888 30.0169355,54.8918513 31.1201613,53.8682938 C22.5548387,52.9067701 13.9129032,51.650586 13.9129032,36.7314605 C13.9129032,32.4666378 15.0774194,30.3264722 17.5290323,27.5969856 C17.1306452,26.5889366 15.8282258,22.4326729 17.9274194,17.0667505 C21.1298387,16.0587015 28.5,21.254031 28.5,21.254031 C31.5645161,20.385558 34.858871,19.9358131 38.1225806,19.9358131 C41.3862903,19.9358131 44.6806452,20.385558 47.7451613,21.254031 C47.7451613,21.254031 55.1153226,16.043193 58.3177419,17.0667505 C60.4169355,22.4481814 59.1145161,26.5889366 58.716129,27.5969856 C61.1677419,30.3419806 62.6693548,32.4821462 62.6693548,36.7314605 C62.6693548,51.6971113 53.6443548,52.8912617 45.0790323,53.8682938 C46.4887097,55.0934611 47.683871,57.419728 47.683871,61.0642129 C47.683871,66.2905594 47.6379032,72.7575815 47.6379032,74.0292741 C47.6379032,75.0373232 48.3427419,76.2624904 50.2887097,75.9057962 C65.6112903,70.756992 76,56.0394763 76,38.8406092 C76,17.3303941 58.7620968,1 37.5096774,1 Z M14.8935484,54.4886317 C14.6943548,54.6437161 14.7403226,55.0004104 15.0008065,55.2950709 C15.2459677,55.543206 15.5983871,55.6517652 15.7975806,55.4501553 C15.9967742,55.2950709 15.9508065,54.9383766 15.6903226,54.6437161 C15.4451613,54.395581 15.0927419,54.2870219 14.8935484,54.4886317 Z M13.2387097,53.2324475 C13.1314516,53.4340573 13.2846774,53.6821925 13.591129,53.8372769 C13.8362903,53.9923614 14.1427419,53.945836 14.25,53.7287178 C14.3572581,53.527108 14.2040323,53.2789728 13.8975806,53.1238884 C13.591129,53.0308377 13.3459677,53.077363 13.2387097,53.2324475 Z M18.2032258,58.7534544 C17.9580645,58.9550642 18.05,59.4203176 18.4024194,59.7149781 C18.7548387,60.0716724 19.1991935,60.1181977 19.3983871,59.8700626 C19.5975806,59.6684528 19.5056452,59.2031994 19.1991935,58.9085389 C18.8620968,58.5518446 18.4024194,58.5053193 18.2032258,58.7534544 Z M16.4564516,56.4737128 C16.2112903,56.6287973 16.2112903,57.0320169 16.4564516,57.3887111 C16.7016129,57.7454054 17.1153226,57.9004899 17.3145161,57.7454054 C17.5596774,57.5437956 17.5596774,57.140576 17.3145161,56.7838817 C17.1,56.4271875 16.7016129,56.272103 16.4564516,56.4737128 Z" id="github" fill="#000000" fill-rule="nonzero"></path>
    </g>
</svg>