<?xml version="1.0" encoding="UTF-8"?>
<svg width="76px" height="70px" viewBox="0 0 76 70" version="1.1" xmlns="http://www.w3.org/2000/svg" xmlns:xlink="http://www.w3.org/1999/xlink">
    <!-- Generator: Sketch 48.1 (47250) - http://www.bohemiancoding.com/sketch -->
    <title>gitlab</title>
    <desc>Created with Sketch.</desc>
    <defs></defs>
    <g id="gitlab---f296" stroke="none" stroke-width="1" fill="none" fill-rule="evenodd" transform="translate(0.000000, -3.000000)">
        <path d="M4.42082348,29.7153841 L38.0000412,73 L1.19854384,45.9064412 C0.180856842,45.1493558 -0.243080447,43.8457318 0.138552176,42.6682887 L4.42082348,29.7153841 Z M15.6137476,3.977718 C15.1473572,2.674094 13.2819441,2.674094 12.8155537,3.977718 L4.42082348,29.7153841 L24.0087747,29.7153841 L15.6137476,3.977718 Z M24.0087747,29.7153841 L38.0000412,73 L51.9913076,29.7153841 L24.0087747,29.7153841 Z M75.8615301,42.6682887 L71.5792588,29.7153841 L38.0000412,73 L74.8015385,45.9064412 C75.819077,45.1493558 76.2430143,43.8457318 75.8615301,42.6682887 Z M63.1843802,3.977718 C62.7179898,2.674094 60.8525767,2.674094 60.3861863,3.977718 L51.9913076,29.7153841 L71.5792588,29.7153841 L63.1843802,3.977718 Z" id="gitlab" fill="#000000" fill-rule="nonzero"></path>
    </g>
</svg>