<?xml version="1.0" encoding="UTF-8"?>
<svg width="76px" height="76px" viewBox="0 0 76 76" version="1.1" xmlns="http://www.w3.org/2000/svg" xmlns:xlink="http://www.w3.org/1999/xlink">
    <!-- Generator: Sketch 48.1 (47250) - http://www.bohemiancoding.com/sketch -->
    <title>glide</title>
    <desc>Created with Sketch.</desc>
    <defs></defs>
    <g id="glide---f2a5" stroke="none" stroke-width="1" fill="none" fill-rule="evenodd">
        <path d="M0,0 L76,0 L76,76 L0,76 L0,0 Z M42.8857143,19.7803571 C42.8857143,21.2732143 42.6142857,22.7830357 42.3089286,24.2589286 C41.325,28.975 40.3410714,33.725 39.3741071,38.4410714 C39.1366071,39.5098214 37.9660714,39.2723214 37.05,39.2723214 C33.0125,39.2723214 31.8758929,34.8616071 31.8758929,31.5535714 C31.8758929,26.5830357 33.7758929,20.0008929 38.4071429,17.45625 C39.1366071,17.0321429 39.9678571,16.74375 40.7991071,16.74375 C42.7330357,16.74375 42.8857143,18.1517857 42.8857143,19.7803571 Z M65.1428571,39.8660714 C65.1428571,39.0008929 61.6142857,33.4705357 60.8169643,33.1651786 C60.44375,33.0125 59.5955357,32.775 59.1883929,32.775 C55.2696429,32.775 52.6232143,34.55625 49.3151786,36.4223214 L49.2303571,36.3375 C49.9598214,31.35 51.7071429,26.6339286 51.7071429,21.5107143 C51.7071429,13.9446429 47.6696429,10.8741071 40.25625,10.8741071 C28.0928571,10.8741071 21.9348214,22.8848214 21.9348214,31.825 C21.9348214,41.1044643 27.3633929,46.2446429 36.575,46.2446429 C37.8473214,46.2446429 37.7455357,46.1428571 37.7455357,46.6348214 C35.9642857,60.2571429 28.1607143,60.6982143 28.1607143,56.6267857 C28.1607143,52.4875 32.9107143,50.4348214 32.9616071,50.1803571 C32.9276786,48.8910714 27.9910714,47.2625 26.7357143,47.2625 C23.15625,47.2625 21.1883929,52.8607143 21.1883929,55.8464286 C21.1883929,61.3258929 24.6491071,65.1258929 30.2303571,65.1258929 C38.4071429,65.1258929 44.3785714,56.6946429 46.2276786,49.5696429 C47.8223214,43.1741071 47.4151786,42.8857143 48.3142857,42.4276786 C51.7071429,40.7142857 54.3875,39.5776786 58.2214286,39.5776786 C60.1044643,39.5776786 61.4446429,39.9678571 64.4473214,40.4598214 C64.7526786,40.4767857 65.1428571,40.1714286 65.1428571,39.8660714 Z" id="glide" fill="#000000" fill-rule="nonzero"></path>
    </g>
</svg>