<?xml version="1.0" encoding="UTF-8"?>
<svg width="62px" height="76px" viewBox="0 0 62 76" version="1.1" xmlns="http://www.w3.org/2000/svg" xmlns:xlink="http://www.w3.org/1999/xlink">
    <!-- Generator: Sketch 48.1 (47250) - http://www.bohemiancoding.com/sketch -->
    <title>glide-g</title>
    <desc>Created with Sketch.</desc>
    <defs></defs>
    <g id="glide-g---f2a6" stroke="none" stroke-width="1" fill="none" fill-rule="evenodd" transform="translate(-7.000000, 0.000000)">
        <path d="M62.9043269,31.35 C62.3826923,31.1421875 61.1754808,30.7859375 60.6091346,30.7859375 C55.0798077,30.7859375 51.3389423,33.2796875 46.6740385,35.9070312 L46.5399038,35.7734375 C47.5831731,28.7523437 50.0423077,22.1320312 50.0423077,14.9328125 C50.0423077,4.31953125 44.3490385,0 33.8865385,0 C16.7322115,0 8.04326923,16.8773438 8.04326923,29.45 C8.04326923,42.4976562 15.6889423,49.7265625 28.7,49.7265625 C30.4884615,49.7265625 30.3394231,49.578125 30.3394231,50.290625 C27.8206731,69.4242188 16.8067308,70.0476563 16.8067308,64.3328125 C16.8067308,58.5140625 23.5134615,55.634375 23.5879808,55.278125 C23.5432692,53.4671875 16.5831731,51.18125 14.8096154,51.18125 C9.75721154,51.1960937 7,58.78125 7,62.9523437 C7,70.65625 11.8884615,76 19.7427885,76 C31.2783654,76 39.7139423,64.4515625 42.3072115,54.4171875 C44.5576923,45.4367188 43.9764423,45.0210937 45.2432692,44.3828125 C50.0423077,41.978125 53.8129808,40.375 59.2230769,40.375 C61.8759615,40.375 63.76875,40.9242188 68.0014423,41.621875 C68.4336538,41.621875 69,41.1914062 69,40.7609375 C69,39.5734375 64.0221154,31.7804687 62.9043269,31.35 Z M36.7778846,18.821875 C35.3918269,25.4570312 34.0057692,32.121875 32.6346154,38.7570312 C32.2918269,40.2710937 30.6524038,39.9148437 29.3557692,39.9148437 C23.6475962,39.9148437 22.0528846,33.7101562 22.0528846,29.0640625 C22.0528846,22.0875 24.7355769,12.8398438 31.2634615,9.2625 C32.3067308,8.65390625 33.4692308,8.26796875 34.6317308,8.26796875 C37.4038462,8.26796875 37.6125,10.2421875 37.6125,12.528125 C37.5975962,14.6507813 37.2100962,16.7585938 36.7778846,18.821875 Z" id="glide-g" fill="#000000" fill-rule="nonzero"></path>
    </g>
</svg>