<?xml version="1.0" encoding="UTF-8"?>
<svg width="76px" height="47px" viewBox="0 0 76 47" version="1.1" xmlns="http://www.w3.org/2000/svg" xmlns:xlink="http://www.w3.org/1999/xlink">
    <!-- Generator: Sketch 48.1 (47250) - http://www.bohemiancoding.com/sketch -->
    <title>google-plus-official</title>
    <desc>Created with Sketch.</desc>
    <defs></defs>
    <g id="google-plus-official---f2b3" stroke="none" stroke-width="1" fill="none" fill-rule="evenodd" transform="translate(0.000000, -15.000000)">
        <path d="M46.1716081,35.133625 C46.3984701,36.3198854 46.5603906,37.5061458 46.5603906,39.0449062 C46.5603906,52.4782161 37.4556055,62 23.75,62 C10.6276302,62 0,51.484362 0,38.5 C0,25.515638 10.6276302,15 23.75,15 C30.1654687,15 35.511569,17.308263 39.6589128,21.1555312 L33.2110352,27.2789948 C31.4613281,25.6118411 28.3833529,23.6562005 23.75,23.6562005 C15.6497656,23.6562005 9.03984375,30.292625 9.03984375,38.5 C9.03984375,46.707375 15.6497656,53.3437995 23.75,53.3437995 C33.1462174,53.3437995 36.6780404,46.6432396 37.2287435,43.2127292 L23.75,43.2127292 L23.75,35.1335026 L46.1716081,35.1335026 L46.1716081,35.133625 Z M69.105944,35.921487 L69.105944,29.1 L62.178737,29.1 L62.178737,35.921487 L55.284681,35.921487 L55.284681,42.775776 L62.178737,42.775776 L62.178737,49.597263 L69.105944,49.597263 L69.105944,42.775776 L76,42.775776 L76,35.921487 L69.105944,35.921487 Z" id="google-plus-official" fill="#000000" fill-rule="nonzero"></path>
    </g>
</svg>