<?xml version="1.0" encoding="UTF-8"?>
<svg width="76px" height="76px" viewBox="0 0 76 76" version="1.1" xmlns="http://www.w3.org/2000/svg" xmlns:xlink="http://www.w3.org/1999/xlink">
    <!-- Generator: Sketch 48.1 (47250) - http://www.bohemiancoding.com/sketch -->
    <title>google-plus-circle</title>
    <desc>Created with Sketch.</desc>
    <defs></defs>
    <g id="google-plus-circle---f2b3" stroke="none" stroke-width="1" fill="none" fill-rule="evenodd">
        <path d="M38,0 C17.0233871,0 0,17.0233871 0,38 C0,58.9766129 17.0233871,76 38,76 C58.9766129,76 76,58.9766129 76,38 C76,17.0233871 58.9766129,0 38,0 Z M27.1669355,57 C16.625,57 8.16693548,48.4959677 8.16693548,38 C8.16693548,27.5040323 16.625,19 27.1669355,19 C31.9629032,19 36.3758065,20.6854839 39.8846774,23.9491935 L34.7362903,28.9443548 C32.7137097,26.9677419 29.9403226,26.0177419 27.1669355,26.0177419 C20.5935484,26.0177419 15.3379032,31.4572581 15.3379032,37.9846774 C15.3379032,44.5120968 20.5782258,49.9516129 27.1669355,49.9516129 C32.1620968,49.9516129 37.1112903,47.025 37.9080645,41.7846774 L27.1669355,41.7846774 L27.1669355,35.2572581 L45.0790323,35.2572581 C45.2782258,36.2991935 45.3701613,37.341129 45.3701613,38.4290323 C45.3701613,49.2774194 38.0919355,57 27.1669355,57 Z M62.4395161,40.7274194 L62.4395161,46.1669355 L57,46.1669355 L57,40.7274194 L51.5604839,40.7274194 L51.5604839,35.2879032 L57,35.2879032 L57,29.8483871 L62.4395161,29.8483871 L62.4395161,35.2879032 L67.8330645,35.2879032 L67.8330645,40.7274194 L62.4395161,40.7274194 Z" id="google-plus-circle" fill="#000000" fill-rule="nonzero"></path>
    </g>
</svg>