<?xml version="1.0" encoding="UTF-8"?>
<svg width="76px" height="76px" viewBox="0 0 76 76" version="1.1" xmlns="http://www.w3.org/2000/svg" xmlns:xlink="http://www.w3.org/1999/xlink">
    <!-- Generator: Sketch 48.1 (47250) - http://www.bohemiancoding.com/sketch -->
    <title>google-plus-square</title>
    <desc>Created with Sketch.</desc>
    <defs></defs>
    <g id="google-plus-square---f0d4" stroke="none" stroke-width="1" fill="none" fill-rule="evenodd">
        <path d="M3.55271368e-15,-3.55271368e-15 L76,-3.55271368e-15 L76,76 L3.55271368e-15,76 L3.55271368e-15,-3.55271368e-15 Z M27.8214286,54.9642857 C37.6098214,54.9642857 44.1071429,48.09375 44.1071429,38.4071429 C44.1071429,37.3044643 44.0053571,36.4392857 43.8357143,35.5910714 L27.8214286,35.5910714 L27.8214286,41.4267857 L37.4741071,41.4267857 C37.0669643,43.9035714 34.55625,48.7383929 27.8383929,48.7383929 C22.0535714,48.7383929 17.3375,43.9375 17.3375,38.0169643 C17.3375,32.0794643 22.0535714,27.2955357 27.8383929,27.2955357 C31.1464286,27.2955357 33.3348214,28.7035714 34.5901786,29.9080357 L39.1875,25.4803571 C36.21875,22.6982143 32.4017857,21.0357143 27.8214286,21.0357143 C18.4401786,21.0357143 10.8571429,28.61875 10.8571429,38 C10.8571429,47.38125 18.4401786,54.9642857 27.8214286,54.9642857 Z M65.1428571,41.0875 L65.1428571,36.1339286 L60.2232143,36.1339286 L60.2232143,31.2142857 L55.2696429,31.2142857 L55.2696429,36.1339286 L50.35,36.1339286 L50.35,41.0875 L55.2696429,41.0875 L55.2696429,46.0071429 L60.2232143,46.0071429 L60.2232143,41.0875 L65.1428571,41.0875 Z" id="google-plus-square" fill="#000000" fill-rule="nonzero"></path>
    </g>
</svg>