<?xml version="1.0" encoding="UTF-8"?>
<svg width="75px" height="76px" viewBox="0 0 75 76" version="1.1" xmlns="http://www.w3.org/2000/svg" xmlns:xlink="http://www.w3.org/1999/xlink">
    <!-- Generator: Sketch 48.1 (47250) - http://www.bohemiancoding.com/sketch -->
    <title>google</title>
    <desc>Created with Sketch.</desc>
    <defs></defs>
    <g id="google---f1a0" stroke="none" stroke-width="1" fill="none" fill-rule="evenodd" transform="translate(-1.000000, 0.000000)">
        <path d="M76,38.8887097 C76,60.5701613 61.107582,76 39.1147541,76 C18.0286885,76 1,59.0225806 1,38 C1,16.9774194 18.0286885,0 39.1147541,0 C49.3811475,0 58.0184426,3.75403226 64.6731557,9.94435484 L54.2991803,19.8887097 C40.7284836,6.83387097 15.4928279,16.6403226 15.4928279,38 C15.4928279,51.2540323 26.1127049,61.9951613 39.1147541,61.9951613 C54.2069672,61.9951613 59.8627049,51.2080645 60.7540984,45.6153226 L39.1147541,45.6153226 L39.1147541,32.5451613 L75.4006148,32.5451613 C75.7540984,34.491129 76,36.3604839 76,38.8887097 Z" id="google" fill="#000000" fill-rule="nonzero"></path>
    </g>
</svg>