<?xml version="1.0" encoding="UTF-8"?>
<svg width="76px" height="76px" viewBox="0 0 76 76" version="1.1" xmlns="http://www.w3.org/2000/svg" xmlns:xlink="http://www.w3.org/1999/xlink">
    <!-- Generator: Sketch 48.1 (47250) - http://www.bohemiancoding.com/sketch -->
    <title>gratipay</title>
    <desc>Created with Sketch.</desc>
    <defs></defs>
    <g id="gratipay---f184" stroke="none" stroke-width="1" fill="none" fill-rule="evenodd">
        <path d="M38,0 C17.0233871,0 0,17.0233871 0,38 C0,58.9766129 17.0233871,76 38,76 C58.9766129,76 76,58.9766129 76,38 C76,17.0233871 58.9766129,0 38,0 Z M55.5596774,34.6903226 L38.2451613,58.0879032 L20.9766129,34.6903226 C19.6435484,32.8669355 18.05,26.9677419 23.0604839,23.6580645 C27.366129,20.8846774 31.4266129,23.0145161 33.5564516,25.4814516 C35.9927419,28.2241935 40.6967742,28.0709677 43.0104839,25.4814516 C45.1403226,23.0145161 49.2008065,20.8846774 53.4451613,23.6580645 C58.4862903,26.9677419 56.9080645,32.8516129 55.5596774,34.6903226 Z" id="gratipay" fill="#000000" fill-rule="nonzero"></path>
    </g>
</svg>