<?xml version="1.0" encoding="UTF-8"?>
<svg width="76px" height="76px" viewBox="0 0 76 76" version="1.1" xmlns="http://www.w3.org/2000/svg" xmlns:xlink="http://www.w3.org/1999/xlink">
    <!-- Generator: Sketch 48.1 (47250) - http://www.bohemiancoding.com/sketch -->
    <title>grav</title>
    <desc>Created with Sketch.</desc>
    <defs></defs>
    <g id="grav---f2d6" stroke="none" stroke-width="1" fill="none" fill-rule="evenodd">
        <path d="M44.9104839,31.2580645 C45.5846774,31.9322581 45.5846774,33.0814516 44.9104839,33.7556452 L43.4241935,35.2419355 C42.75,35.9620968 41.6008065,35.9620968 40.8806452,35.2419355 L39.2717742,33.6330645 C38.5975806,32.9129032 38.5975806,31.8096774 39.2717742,31.0895161 L40.7580645,29.6032258 C41.4322581,28.9290323 42.5814516,28.9290323 43.3016129,29.6032258 L44.9104839,31.2580645 Z M40.2830645,28.2395161 C40.7427419,27.7798387 40.7427419,27.0443548 40.2830645,26.6306452 C39.8540323,26.1709677 39.133871,26.1709677 38.6741935,26.6306452 C38.2451613,27.0596774 38.2451613,27.7798387 38.6741935,28.2395161 C39.1491935,28.6685484 39.8693548,28.6685484 40.2830645,28.2395161 Z M36.2991935,29.0516129 C35.8395161,29.4806452 35.8395161,30.2008065 36.2991935,30.6145161 C36.7282258,31.0741935 37.4483871,31.0741935 37.9080645,30.6145161 C38.3370968,30.1854839 38.3370968,29.4653226 37.9080645,29.0516129 C37.4483871,28.5919355 36.7282258,28.5919355 36.2991935,29.0516129 Z M47.4080645,27.0137097 C44.358871,24.8072581 42.2290323,20.3943548 45.5846774,16.5790323 C48.8943548,12.7637097 51.8209677,13.9435484 54.7475806,16.7016129 C56.5709677,18.4330645 59.2370968,20.5169355 57.3830645,24.0870968 C55.4677419,27.6879032 50.4725806,29.1741935 47.4080645,27.0137097 Z M54.7169355,20.1951613 C53.3532258,18.6629032 51.1467742,21.2524194 52.3419355,22.6620968 C53.4758065,24.041129 57.2604839,23.0298387 54.7169355,20.1951613 Z M76,38 C76,58.9919355 58.9919355,76 38,76 C17.0080645,76 0,58.9919355 0,38 C0,17.0080645 17.0080645,0 38,0 C58.9919355,0 76,17.0080645 76,38 Z M65.8564516,44.5274194 C66.2395161,42.0604839 62.7612903,41.983871 61.9951613,40.5895161 C59.9112903,36.8967742 57.7508065,34.9508065 53.6443548,35.9314516 C55.4217742,34.7056452 57.2451613,34.9967742 57.2451613,34.9967742 C57.291129,34.016129 57.2451613,33.0048387 55.8048387,31.1814516 C56.4024194,29.266129 55.8508065,27.7491935 55.8508065,27.7491935 C58.2258065,26.4314516 59.9572581,24.0104839 60.3096774,21.1298387 C60.8612903,16.3798387 57.4290323,12.058871 52.6790323,11.5072581 C49.2927419,11.1241935 45.9830645,12.6870968 44.358871,15.4451613 C40.8040323,21.5895161 44.5733871,26.308871 47.791129,27.9177419 C45.5846774,27.7032258 42.5354839,26.0943548 41.6467742,22.6620968 C40.6354839,18.7241935 42.0758065,15.0314516 43.0104839,13.2540323 C43.0104839,13.2540323 42.3362903,12.3653226 41.7846774,11.8903226 C41.7846774,11.8903226 39.6701613,11.8903226 38.0153226,12.7024194 C39.8387097,10.3733871 41.8766129,10.4959677 41.8766129,10.4959677 C41.8766129,9.51532258 41.7846774,8.21290323 41.325,7.18629032 C40.4975806,5.50080645 37.6782258,5.20967742 36.4677419,7.61532258 C36.4830645,7.58467742 36.5137097,7.55403226 36.5290323,7.53870968 C35.7629032,9.36209677 36.3604839,16.1040323 39.1185484,20.9 C38.7354839,21.1145161 37.7241935,21.8346774 37.1266129,22.4322581 C33.8169355,23.9185484 28.5153226,31.6717742 28.5153226,31.6717742 C24.1943548,33.3266129 16.6862903,39.4709677 17.6975806,43.883871 C17.7435484,44.3435484 17.9120968,44.7266129 18.1572581,45.0330645 C17.7282258,45.3701613 17.3145161,45.7991935 16.8854839,46.3048387 C15.0620968,48.4193548 16.0733871,51.6983871 19.5975806,50.0435484 C22.0185484,48.9403226 24.1330645,46.9483871 25.1596774,45.3854839 C25.1596774,45.3854839 24.3169355,44.6193548 22.6620968,44.7112903 C26.9064516,43.7 27.9177419,43.2709677 29.741129,43.3169355 C30.9669355,43.9145161 30.9669355,38.0612903 30.9669355,38.0612903 C30.9669355,35.808871 30.6298387,33.3112903 29.266129,31.7024194 C31.1814516,33.5717742 33.725,36.7129032 33.5564516,40.9879032 C33.433871,43.7919355 31.2274194,44.5120968 31.2274194,44.5120968 C29.8330645,47.0556452 24.6080645,54.6096774 26.5693548,60.7540323 C26.5693548,60.7540323 25.0830645,58.4709677 25.0064516,57.3677419 C22.3403226,60.3403226 17.8814516,65.3814516 21.2370968,67.2508065 C25.3129032,69.5032258 37.9080645,53.675 40.5741935,45.4467742 C45.8758065,42.2596774 49.0629032,38.1991935 50.3653226,35.4870968 C53.7362903,42.1524194 64.9677419,49.9669355 65.8564516,44.5274194 Z" id="grav" fill="#000000" fill-rule="nonzero"></path>
    </g>
</svg>