<?xml version="1.0" encoding="UTF-8"?>
<svg width="76px" height="76px" viewBox="0 0 76 76" version="1.1" xmlns="http://www.w3.org/2000/svg" xmlns:xlink="http://www.w3.org/1999/xlink">
    <!-- Generator: Sketch 48.1 (47250) - http://www.bohemiancoding.com/sketch -->
    <title>imdb</title>
    <desc>Created with Sketch.</desc>
    <defs></defs>
    <g id="imdb---f2d8" stroke="none" stroke-width="1" fill="none" fill-rule="evenodd">
        <path d="M59.4598214,43.5473214 C59.4598214,44.4633929 59.73125,45.9901786 58.4080357,45.9901786 C58.1366071,45.9901786 57.8991071,45.8544643 57.7633929,45.5830357 C57.3901786,44.7178571 57.5767857,38.1017857 57.5767857,38 C57.5767857,37.3553571 57.3901786,35.8455357 58.4080357,35.8455357 C59.6464286,35.8455357 59.4598214,37.0839286 59.4598214,38 L59.4598214,43.5473214 Z M44.9553571,33.5723214 C44.9553571,31.9267857 45.2267857,30.8580357 43.2080357,30.8580357 L43.2080357,45.0571429 C45.2776786,45.1080357 44.9553571,43.58125 44.9553571,41.9357143 L44.9553571,33.5723214 Z M76,8.14285714 L76,67.8571429 C76,72.3526786 72.3526786,76 67.8571429,76 L8.14285714,76 C3.64732143,76 0,72.3526786 0,67.8571429 L0,8.14285714 C0,3.64732143 3.64732143,0 8.14285714,0 L67.8571429,0 C72.3526786,0 76,3.64732143 76,8.14285714 Z M3.61339286,33.3857143 C3.59642857,33.4026786 3.57946429,33.4366071 3.5625,33.4535714 L3.61339286,33.4535714 L3.61339286,33.3857143 Z M16.4553571,27.1428571 L10.8571429,27.1428571 L10.8571429,48.8232143 L16.4553571,48.8232143 L16.4553571,27.1428571 Z M35.6758929,27.1428571 L28.3642857,27.1428571 L27.075,37.3044643 C26.6169643,33.9116071 26.1589286,30.5017857 25.5991071,27.1428571 L18.3383929,27.1428571 L18.3383929,48.8232143 L23.2580357,48.8232143 L23.2580357,34.4883929 L25.3276786,48.8232143 L28.8223214,48.8232143 L30.7901786,34.1660714 L30.7901786,48.8232143 L35.6589286,48.8232143 L35.6589286,27.1428571 L35.6758929,27.1428571 Z M50.3160714,34.8276786 C50.3160714,33.4535714 50.3669643,31.9776786 50.0785714,30.6883929 C49.3491071,26.8714286 44.7517857,27.1428571 41.7660714,27.1428571 L37.5928571,27.1428571 L37.5928571,48.8232143 C52.1991071,48.8401786 50.3160714,49.8410714 50.3160714,34.8276786 Z M64.8883929,37.7625 C64.8883929,34.8276786 64.7526786,32.65625 61.1223214,32.65625 C59.6125,32.65625 58.5946429,33.1142857 57.5767857,34.2169643 L57.5767857,27.1428571 L52.1991071,27.1428571 L52.1991071,48.8232143 L57.2544643,48.8232143 L57.5767857,47.4491071 C58.54375,48.6026786 59.5955357,49.1116071 61.1223214,49.1116071 C64.48125,49.1116071 64.8883929,46.5330357 64.8883929,43.8696429 L64.8883929,37.7625 Z" id="imdb" fill="#000000" fill-rule="nonzero"></path>
    </g>
</svg>