<?xml version="1.0" encoding="UTF-8"?>
<svg width="76px" height="76px" viewBox="0 0 76 76" version="1.1" xmlns="http://www.w3.org/2000/svg" xmlns:xlink="http://www.w3.org/1999/xlink">
    <!-- Generator: Sketch 48.1 (47250) - http://www.bohemiancoding.com/sketch -->
    <title>instagram</title>
    <desc>Created with Sketch.</desc>
    <defs></defs>
    <g id="instagram---f16d" stroke="none" stroke-width="1" fill="none" fill-rule="evenodd">
        <path d="M38.0084774,18.5145599 C27.2252091,18.5145599 18.5273843,27.2143256 18.5273843,38 C18.5273843,48.7856744 27.2252091,57.4854401 38.0084774,57.4854401 C48.7917457,57.4854401 57.4895706,48.7856744 57.4895706,38 C57.4895706,27.2143256 48.7917457,18.5145599 38.0084774,18.5145599 Z M38.0084774,50.6680799 C31.0400446,50.6680799 25.3432236,44.9869463 25.3432236,38 C25.3432236,31.0130537 31.0230898,25.3319201 38.0084774,25.3319201 C44.993865,25.3319201 50.6737312,31.0130537 50.6737312,38 C50.6737312,44.9869463 44.9769102,50.6680799 38.0084774,50.6680799 Z M62.8303402,17.7175053 C62.8303402,20.2443378 60.7957613,22.2624121 58.2864473,22.2624121 C55.7601785,22.2624121 53.7425544,20.2273792 53.7425544,17.7175053 C53.7425544,15.2076314 55.7771333,13.1725985 58.2864473,13.1725985 C60.7957613,13.1725985 62.8303402,15.2076314 62.8303402,17.7175053 Z M75.7329615,22.3302466 C75.4447295,16.2421064 74.0544339,10.8492692 69.5953151,6.40611402 C65.1531511,1.96295883 59.761517,0.572353007 53.6747351,0.26709807 C47.4014501,-0.0890326899 28.5985499,-0.0890326899 22.3252649,0.26709807 C16.2554378,0.555394399 10.8638037,1.94600022 6.40468489,6.38915542 C1.94556609,10.8323106 0.572225321,16.2251478 0.267038483,22.313288 C-0.0890128277,28.5879728 -0.0890128277,47.3950686 0.267038483,53.6697534 C0.555270496,59.7578936 1.94556609,65.1507308 6.40468489,69.593886 C10.8638037,74.0370412 16.238483,75.427647 22.3252649,75.7329019 C28.5985499,76.0890327 47.4014501,76.0890327 53.6747351,75.7329019 C59.761517,75.4446056 65.1531511,74.0539998 69.5953151,69.593886 C74.0374791,65.1507308 75.4277747,59.7578936 75.7329615,53.6697534 C76.0890128,47.3950686 76.0890128,28.6049314 75.7329615,22.3302466 Z M67.6285555,60.4023207 C66.3060792,63.7262077 63.7459007,66.2869575 60.4058003,67.6266875 C55.4041272,69.6108446 43.5357501,69.1529622 38.0084774,69.1529622 C32.4812047,69.1529622 20.5958728,69.593886 15.6111545,67.6266875 C12.2880089,66.3039161 9.72783045,63.7431664 8.38839933,60.4023207 C6.40468489,55.3995314 6.86246514,43.5285061 6.86246514,38 C6.86246514,32.4714939 6.42163971,20.58351 8.38839933,15.5976793 C9.71087563,12.2737923 12.2710541,9.71304251 15.6111545,8.37331251 C20.6128277,6.38915542 32.4812047,6.84703782 38.0084774,6.84703782 C43.5357501,6.84703782 55.421082,6.40611402 60.4058003,8.37331251 C63.7289459,9.6960839 66.2891244,12.2568336 67.6285555,15.5976793 C69.6122699,20.6004686 69.1544897,32.4714939 69.1544897,38 C69.1544897,43.5285061 69.6122699,55.41649 67.6285555,60.4023207 Z" id="instagram" fill="#000000" fill-rule="nonzero"></path>
    </g>
</svg>