<?xml version="1.0" encoding="UTF-8"?>
<svg width="76px" height="76px" viewBox="0 0 76 76" version="1.1" xmlns="http://www.w3.org/2000/svg" xmlns:xlink="http://www.w3.org/1999/xlink">
    <!-- Generator: Sketch 48.1 (47250) - http://www.bohemiancoding.com/sketch -->
    <title>internet-explorer</title>
    <desc>Created with Sketch.</desc>
    <defs></defs>
    <g id="internet-explorer---f26b" stroke="none" stroke-width="1" fill="none" fill-rule="evenodd">
        <path d="M71.7026233,23.7064147 C73.3139132,20.058563 74.88275,14.7351488 74.88275,10.6630627 C74.88275,-0.131609444 63.0610329,-3.93888299 43.7593978,4.93678914 C27.7827645,3.87085942 12.4062643,15.8721801 8.56514509,32.6140008 C13.1447412,27.4391726 20.1835027,20.3978911 26.6711155,17.5983598 C18.614666,24.7668522 11.7455686,33.8441024 6.5300659,43.3029855 C3.45057992,48.9326263 0,58.0302125 0,64.8296892 C0,79.4619162 13.7830228,77.6695334 26.7560218,71.064955 C31.4203758,73.3553457 36.6358785,73.3765723 41.8513812,73.3765723 C56.2682324,73.3765723 69.2008564,65.3173064 74.0347261,51.7014311 L56.0985683,51.7014311 C48.3042595,64.8519549 26.8832328,59.568025 26.8832328,44.6601496 L75.6883207,44.6601496 C76.6393603,38.1910948 75.4426565,30.4524539 71.7026233,23.7064147 Z M9.58298156,51.4896107 C12.2119595,59.0821891 17.5545248,65.7204627 24.4662237,69.7925488 C11.2937246,77.0570802 -1.25311003,74.1114864 9.58298156,51.4896107 Z M26.7983265,35.3287744 C27.0952016,27.1422976 34.2611741,21.2463599 42.2328658,21.2463599 C50.1621043,21.2463599 57.3706783,27.1422976 57.6675535,35.3287744 L26.7983265,35.3287744 Z M54.1904032,7.48189858 C57.3706783,5.95492198 61.3989773,4.21582818 64.960737,4.21582818 C69.6249425,4.21582818 73.0170381,7.43944546 73.0170381,12.1901878 C73.0170381,15.1593832 71.9145922,19.4646645 70.854451,22.2641959 C66.9535115,15.9864769 61.059649,10.1540705 54.1904032,7.48189858 Z" id="internet-explorer" fill="#000000" fill-rule="nonzero"></path>
    </g>
</svg>