<?xml version="1.0" encoding="UTF-8"?>
<svg width="76px" height="59px" viewBox="0 0 76 59" version="1.1" xmlns="http://www.w3.org/2000/svg" xmlns:xlink="http://www.w3.org/1999/xlink">
    <!-- Generator: Sketch 48.1 (47250) - http://www.bohemiancoding.com/sketch -->
    <title>ioxhost</title>
    <desc>Created with Sketch.</desc>
    <defs></defs>
    <g id="ioxhost---f208" stroke="none" stroke-width="1" fill="none" fill-rule="evenodd" transform="translate(0.000000, -9.000000)">
        <path d="M73.15,27.0806452 L65.158125,27.0806452 C60.705,16.4582661 50.219375,9 38,9 C21.73125,9 8.55,22.203629 8.55,38.5 C8.55,40.4508065 8.74,42.3659274 9.108125,44.2096774 L2.85,44.2096774 C1.270625,44.2096774 0,45.4943548 0,47.0645161 C0,48.6465726 1.270625,49.9193548 2.85,49.9193548 L10.841875,49.9193548 C15.295,60.5417339 25.780625,68 38,68 C54.26875,68 67.45,54.796371 67.45,38.5 C67.45,36.5491935 67.26,34.6340726 66.891875,32.7903226 L73.15,32.7903226 C74.729375,32.7903226 76,31.5056452 76,29.9354839 C76,28.3534274 74.729375,27.0806452 73.15,27.0806452 Z M61.75,38.5 C61.75,51.6441532 51.121875,62.2903226 38,62.2903226 C29.010625,62.2903226 21.185,57.2943548 17.159375,49.9193548 L50.35,49.9193548 C51.929375,49.9193548 53.2,48.6346774 53.2,47.0645161 C53.2,45.4824597 51.929375,44.2096774 50.35,44.2096774 L14.93875,44.2096774 C14.4875,42.3778226 14.25,40.4745968 14.25,38.5 C14.25,25.3558468 24.878125,14.7096774 38,14.7096774 C46.989375,14.7096774 54.815,19.7056452 58.840625,27.0806452 L25.65,27.0806452 C24.070625,27.0806452 22.8,28.3653226 22.8,29.9354839 C22.8,31.5175403 24.070625,32.7903226 25.65,32.7903226 L61.06125,32.7903226 C61.5125,34.6221774 61.75,36.5254032 61.75,38.5 Z M25.65,35.6451613 L50.35,35.6451613 C51.929375,35.6451613 53.2,36.9179435 53.2,38.5 C53.2,40.0701613 51.929375,41.3548387 50.35,41.3548387 L25.65,41.3548387 C24.070625,41.3548387 22.8,40.0820565 22.8,38.5 C22.8,36.9298387 24.070625,35.6451613 25.65,35.6451613 Z" id="ioxhost" fill="#000000" fill-rule="nonzero"></path>
    </g>
</svg>