<?xml version="1.0" encoding="UTF-8"?>
<svg width="76px" height="76px" viewBox="0 0 76 76" version="1.1" xmlns="http://www.w3.org/2000/svg" xmlns:xlink="http://www.w3.org/1999/xlink">
    <!-- Generator: Sketch 48.1 (47250) - http://www.bohemiancoding.com/sketch -->
    <title>joomla</title>
    <desc>Created with Sketch.</desc>
    <defs></defs>
    <g id="joomla---f1aa" stroke="none" stroke-width="1" fill="none" fill-rule="evenodd">
        <path d="M0.101785714,10.2102209 C0.101785714,4.56237447 4.64821429,0.0169604999 10.2464286,0.0169604999 C15.3357143,0.0169604999 19.4919643,3.73130998 20.2892857,8.53113144 C25.8196429,7.24213345 31.6723214,8.63289444 36.6598214,13.6192814 L29.1446429,21.1327829 C25.6669643,17.6558804 21.9178571,18.3682214 19.7464286,20.5391654 C17.3205357,22.9645168 17.3205357,26.9671948 19.7464286,29.3925463 L36.6258929,46.2682437 L29.1616071,53.7817451 C14.2839286,38.9921892 20.7303571,45.3523767 12.23125,36.8721268 C7.68482143,32.3775943 6.29375,25.8817228 8.02410714,20.0981924 C3.46071429,19.1144834 0.101785714,15.0609239 0.101785714,10.2102209 Z M22.0705357,29.9522428 L29.5857143,37.4657443 C31.2821429,35.7696943 44.8026786,22.2521759 46.4991071,20.5391654 C48.925,18.1138139 52.8776786,18.1138139 55.3035714,20.5391654 C57.475,22.7101094 58.1875,26.4753403 54.7098214,29.9352823 L62.1741071,37.4487838 C67.4669643,32.1571078 68.7053571,25.9834858 67.0767857,20.2847579 C72.0303571,19.5893774 75.88125,15.3322919 75.88125,10.1932604 C75.88125,4.56237447 71.3348214,0 65.7366071,0 C60.5964286,0 56.3383929,3.81611247 55.6428571,8.75161794 C49.9089286,7.07252845 43.4794643,8.49721044 38.9669643,13.0087034 C35.8625,16.2481589 26.9053571,25.1354608 22.0705357,29.9522428 Z M67.2464286,55.7661236 C68.6375,50.2200402 67.09375,44.1481812 62.7848214,39.8402142 C60.7830357,37.7710333 63.6330357,40.6373577 45.9053571,22.9305958 L38.3901786,30.4440973 L55.3035714,47.3537157 C57.7294643,49.7790672 57.7294643,53.7308636 55.3035714,56.1562151 C53.1321429,58.3271591 49.3660714,59.0395001 45.9053571,55.5625976 L38.4410714,63.0760991 C43.1232143,68.1981701 49.9767857,69.656773 55.8633929,67.8250391 C56.7964286,72.472216 60.9017857,75.9830395 65.8553571,75.9830395 C71.4535714,75.9830395 76,71.4376255 76,65.7897791 C76,60.6677081 72.1830357,56.4615041 67.2464286,55.7661236 Z M52.9455357,46.7600982 L45.48125,39.2465967 C30.7223214,53.9004686 36.93125,47.7946887 28.5678571,56.1731756 C26.1419643,58.5985271 22.1892857,58.5985271 19.7633929,56.1731756 C17.5410714,53.9004686 16.8964286,50.1861192 20.30625,46.7770587 L12.8419643,39.2635572 C7.71875,44.3856282 6.39553571,50.3218032 7.8375,55.9357286 C3.30803571,56.9533586 0,61.0069181 0,65.8067396 C4.82153999e-15,71.454586 4.54642857,76 10.1446429,76 C14.9964286,76 19.0508929,72.641821 20.0857143,68.0794466 C25.6330357,69.4702075 31.70625,67.9776836 36.0660714,63.6697166 C41.5116071,58.2423566 38.1357143,61.5666146 52.9455357,46.7600982 Z" id="joomla" fill="#000000" fill-rule="nonzero"></path>
    </g>
</svg>