<?xml version="1.0" encoding="UTF-8"?>
<svg width="76px" height="52px" viewBox="0 0 76 52" version="1.1" xmlns="http://www.w3.org/2000/svg" xmlns:xlink="http://www.w3.org/1999/xlink">
    <!-- Generator: Sketch 48.1 (47250) - http://www.bohemiancoding.com/sketch -->
    <title>jsfiddle</title>
    <desc>Created with Sketch.</desc>
    <defs></defs>
    <g id="jsfiddle---f1cc" stroke="none" stroke-width="1" fill="none" fill-rule="evenodd" transform="translate(0.000000, -12.000000)">
        <path d="M67.9535594,35.4896357 C67.3175831,35.1347097 67.191518,34.7112631 67.0950519,34.0303903 C66.778611,31.7976472 66.6189106,29.4778315 65.8711305,27.3821297 C61.0417737,13.846328 45.1531291,7.96533581 32.6597665,14.9717724 C28.9773735,17.0368701 26.0711487,19.8967258 23.8482588,23.6252767 C23.4198796,23.421069 23.1139329,23.2582987 22.7956083,23.1261325 C18.7456487,21.4441273 14.8510842,21.7555846 11.3150721,24.3674932 C7.88010033,26.9047874 6.41481198,30.4000161 6.91880336,34.7143777 C6.96656549,35.1240119 6.65416079,35.7463849 6.31148432,36.0069258 C0.968583651,40.0683298 -1.22699441,46.578195 0.673938393,52.8818213 C2.53477792,59.0526042 8.41194175,63.687496 14.8825669,63.9091724 C18.9579548,64.0487866 23.0407424,63.9831097 27.1203011,63.9821618 C38.4272792,63.979318 49.7353337,64.0540678 61.0408319,63.917162 C68.1263103,63.8313081 73.9713188,58.9239587 75.5998057,52.0962716 C77.1524113,45.586271 74.1004784,38.9202709 67.9535594,35.4896357 Z M70.7933208,56.7337364 C68.3406345,59.7713936 65.0964422,61.5075653 61.2032231,61.5613256 C53.5513261,61.6670856 45.8968729,61.5924713 38.2434959,61.5924713 C38.2434959,61.6872627 16.309511,61.6140025 16.2153321,61.6133254 C10.31422,61.5683672 5.89077395,58.9366879 3.41037214,53.4890277 C0.867274117,47.9037847 2.87166912,41.1867326 8.00979806,37.7663891 C9.24515548,36.9440062 9.69223594,36.2001648 9.36812615,34.6333988 C8.62949489,31.0636911 9.96723818,28.1393773 12.922705,26.1047482 C16.0154039,23.9755986 19.3029184,23.9183175 22.6142468,25.6872599 C23.9958505,26.4252785 24.5794903,27.2532134 25.6007927,25.3450631 C27.5142378,21.7702096 30.2501334,19.0174681 33.7635426,17.0448597 C46.8759293,9.68282006 64.4887196,18.0696898 64.7403116,35.0141893 C64.7567257,36.1178317 65.064825,36.6971424 66.0652735,37.1664951 C73.8094657,40.7995776 76.0826741,50.1829755 70.7933208,56.7337364 Z M58.9820822,45.832864 C58.1952852,50.052028 54.3239963,53.2937575 50.0127577,53.2936221 C47.7318805,53.2934867 45.6996355,52.4073227 44.0823155,50.8960774 C40.3559275,47.4141195 34.5109191,40.7425673 31.1748351,38.2499605 C28.4764765,36.2338834 25.5254496,36.5798719 23.0657671,38.7621047 C16.3392446,44.7300341 25.1994562,55.2524181 32.0885045,49.2146139 C32.7003979,48.6783656 33.1433076,47.9223367 33.8030977,47.4753276 C34.904183,46.7293195 36.5969806,47.3556197 35.5747364,48.913719 C33.23937,52.4729996 28.9378184,54.0862134 24.9644127,52.8815504 C21.0765753,51.7028874 18.3934198,48.0108989 18.4222117,43.3781737 C18.5870246,40.3333394 20.0856792,37.5471502 23.1868542,35.7996035 C26.2241221,34.088213 29.4253957,34.0194215 32.1999046,36.1346233 C39.0333874,41.3447634 42.3682605,47.2042243 46.6356387,49.8448411 C49.9397018,51.889491 53.9350377,50.8419109 55.8951686,47.4742443 C59.7739918,40.8105463 51.241119,33.2533718 45.2841722,38.8807293 C44.7474873,39.3877278 44.3535506,40.0902673 43.7490569,40.4678078 C42.2724671,41.3901278 41.4170541,39.9108407 42.0257185,39.0658434 C44.8111253,35.1991679 48.8152063,33.5896104 53.2290999,35.2452094 C57.4575957,36.8314753 59.8361498,41.2530866 58.9820822,45.832864 Z" id="jsfiddle" fill="#000000" fill-rule="nonzero"></path>
    </g>
</svg>