<?xml version="1.0" encoding="UTF-8"?>
<svg width="76px" height="76px" viewBox="0 0 76 76" version="1.1" xmlns="http://www.w3.org/2000/svg" xmlns:xlink="http://www.w3.org/1999/xlink">
    <!-- Generator: Sketch 48.1 (47250) - http://www.bohemiancoding.com/sketch -->
    <title>lastfm-square</title>
    <desc>Created with Sketch.</desc>
    <defs></defs>
    <g id="lastfm-square---f203" stroke="none" stroke-width="1" fill="none" fill-rule="evenodd">
        <path d="M0,0 L76,0 L76,76 L0,76 L0,0 Z M52.2160714,53.08125 C59.9178571,53.08125 65.1428571,50.7232143 65.1258929,44.4973214 C65.1258929,36.7785714 58.4928571,35.9473214 52.9455357,34.7428571 C50.2142857,34.1151786 49.4,32.9955357 49.4,31.1294643 C49.4,29.0089286 51.0794643,27.7705357 53.8107143,27.7705357 C56.7964286,27.7705357 58.4080357,28.8901786 58.6625,31.5705357 L64.8883929,30.8241071 C64.3964286,25.2258929 60.5455357,22.91875 54.2008929,22.91875 C48.6196429,22.91875 43.1401786,25.0223214 43.1401786,31.8080357 C43.1401786,36.0321429 45.1928571,38.7125 50.35,39.9508929 C55.1169643,41.0705357 58.8151786,41.4267857 58.8151786,44.8026786 C58.8151786,47.1098214 56.5758929,48.0428571 52.3517857,48.0428571 C46.075,48.0428571 43.4625,44.7517857 41.9696429,40.2053571 C38.5767857,29.9419643 37.3383929,22.91875 24.8696429,22.91875 C15.7258929,22.91875 10.8741071,28.7035714 10.8741071,38.5258929 C10.8741071,47.975 15.7258929,53.08125 24.4285714,53.08125 C31.4517857,53.08125 34.8107143,49.7901786 34.8107143,49.7901786 L32.8258929,44.3785714 C32.8258929,44.3785714 29.6026786,47.9919643 24.7508929,47.9919643 C20.4589286,47.9919643 17.4053571,44.2598214 17.4053571,38.2883929 C17.4053571,30.6375 21.25625,27.90625 25.05625,27.90625 C32.0964286,27.90625 32.9785714,33.5553571 35.74375,42.2071429 C37.7285714,48.2294643 41.4607143,53.08125 52.2160714,53.08125 Z" id="lastfm-square" fill="#000000" fill-rule="nonzero"></path>
    </g>
</svg>