<?xml version="1.0" encoding="UTF-8"?>
<svg width="76px" height="42px" viewBox="0 0 76 42" version="1.1" xmlns="http://www.w3.org/2000/svg" xmlns:xlink="http://www.w3.org/1999/xlink">
    <!-- Generator: Sketch 48.1 (47250) - http://www.bohemiancoding.com/sketch -->
    <title>lastfm</title>
    <desc>Created with Sketch.</desc>
    <defs></defs>
    <g id="lastfm---f202" stroke="none" stroke-width="1" fill="none" fill-rule="evenodd" transform="translate(0.000000, -17.000000)">
        <path d="M33.5171875,54.407173 L30.7265625,46.8755274 C30.7265625,46.8755274 26.1992188,51.8966245 19.415625,51.8966245 C13.4039063,51.8966245 9.14375,46.6983122 9.14375,38.3839662 C9.14375,27.7362869 14.546875,23.9261603 19.8460937,23.9261603 C29.7171875,23.9261603 30.9492188,31.7974684 34.8234375,43.8481013 C37.6140625,52.2510549 42.8390625,59 57.890625,59 C68.6820312,59 76,55.7067511 76,47.0527426 C76,36.2869198 66.6929688,35.149789 58.9296875,33.4514768 C55.1,32.5801688 53.971875,31.0295359 53.971875,28.4303797 C53.971875,25.4915612 56.3171875,23.7489451 60.146875,23.7489451 C64.3328125,23.7489451 66.5890625,25.314346 66.9304688,29.035865 L75.6289063,28.0021097 C74.93125,20.2046414 69.528125,17 60.6515625,17 C52.8140625,17 45.1546875,19.9388186 45.1546875,29.3902954 C45.1546875,35.2827004 48.034375,39.0042194 55.2484375,40.7320675 C61.9132813,42.2974684 67.09375,42.7700422 67.09375,47.4810127 C67.09375,50.685654 63.9617188,51.9852321 58.0390625,51.9852321 C49.2515625,51.9852321 45.5851563,47.3924051 43.5070313,41.07173 C38.7570313,26.7763713 37.0351563,17 19.5640625,17 C6.78359375,17 0,25.0485232 0,38.7383966 C0,51.8966245 6.78359375,59 18.9851562,59 C28.8117188,59 33.5171875,54.407173 33.5171875,54.407173 Z" id="lastfm" fill="#000000" fill-rule="nonzero"></path>
    </g>
</svg>