<?xml version="1.0" encoding="UTF-8"?>
<svg width="76px" height="52px" viewBox="0 0 76 52" version="1.1" xmlns="http://www.w3.org/2000/svg" xmlns:xlink="http://www.w3.org/1999/xlink">
    <!-- Generator: Sketch 48.1 (47250) - http://www.bohemiancoding.com/sketch -->
    <title>leanpub</title>
    <desc>Created with Sketch.</desc>
    <defs></defs>
    <g id="leanpub---f212" stroke="none" stroke-width="1" fill="none" fill-rule="evenodd" transform="translate(0.000000, -12.000000)">
        <path d="M51.32224,18.4302604 L53.3631835,52.1429167 L51.8788487,52.1056771 C46.9803679,51.9940937 42.1932899,53.2950417 37.9998648,55.8969375 C33.8065749,53.2950417 29.0194969,52.1056771 24.1208809,52.1056771 C17.9607358,52.1056771 13.0252108,53.5553125 7.42180951,55.8598333 L11.6522788,20.8833333 C15.5116306,19.2850104 19.9647703,18.4302604 24.1210161,18.4302604 C29.6875084,18.4302604 34.1034689,20.214375 38,24.1914271 C41.7480841,20.3630625 45.9784182,18.5417083 51.32224,18.4302604 Z M76,64 C72.5489451,64 69.5801402,63.2938021 66.4628882,61.8814063 C61.8242573,59.7628125 57,58.4989688 51.8789839,58.4989688 C46.6093856,58.4989688 41.7480841,60.2459792 38,64 C34.2519159,60.2458437 29.3906144,58.4989688 24.1210161,58.4989688 C19,58.4989688 14.1757427,59.7628125 9.53711175,61.8814063 C6.53126267,63.2194583 3.48823425,64 0.185626356,64 L0,64 L5.75198349,16.7204896 C11.058626,13.7097708 17.5156651,12 23.6386309,12 C28.6483794,12 33.8067101,13.0406771 38,15.9399479 C42.1932899,13.0406771 47.3516206,12 52.3613691,12 C58.4843349,12 64.941374,13.7097708 70.2480165,16.7204896 L76,64 Z M70.1367489,57.9413229 L65.5351621,19.9913438 C61.3789163,18.0956458 56.4433913,17.0920729 51.8789839,17.0920729 C46.6836091,17.0920729 41.8223076,18.7275 38,22.3329688 C34.1776924,18.7275 29.3165261,17.0920729 24.1210161,17.0920729 C19.5566087,17.0920729 14.6210837,18.0956458 10.4648379,19.9913438 L5.86325115,57.9413229 C12.2460668,55.3024583 17.0703241,53.4067604 24.1210161,53.4067604 C29.2049881,53.4067604 33.6953072,54.7075729 38,57.4210521 C42.3046928,54.7075729 46.7948767,53.4067604 51.8789839,53.4067604 C58.9296759,53.4067604 63.7539332,55.3024583 70.1367489,57.9413229 Z" id="leanpub" fill="#000000" fill-rule="nonzero"></path>
    </g>
</svg>