<?xml version="1.0" encoding="UTF-8"?>
<svg width="76px" height="76px" viewBox="0 0 76 76" version="1.1" xmlns="http://www.w3.org/2000/svg" xmlns:xlink="http://www.w3.org/1999/xlink">
    <!-- Generator: Sketch 48.1 (47250) - http://www.bohemiancoding.com/sketch -->
    <title>linkedin</title>
    <desc>Created with Sketch.</desc>
    <defs></defs>
    <g id="linkedin---f0e1" stroke="none" stroke-width="1" fill="none" fill-rule="evenodd">
        <path d="M17.0113814,76 L1.25507699,76 L1.25507699,25.2598214 L17.0113814,25.2598214 L17.0113814,76 Z M9.12474894,18.3383929 C4.08748047,18.3383929 0,14.1651786 0,9.12678571 C0,4.08839286 4.08748047,0 9.12474894,0 C14.1620174,0 18.2494979,4.08839286 18.2494979,9.12678571 C18.2494979,14.1651786 14.1620174,18.3383929 9.12474894,18.3383929 Z M75.9830395,76 L60.2606561,76 L60.2606561,51.3 C60.2606561,45.4133929 60.1419326,37.8642857 52.0687347,37.8642857 C43.8768132,37.8642857 42.6217362,44.2598214 42.6217362,50.8758929 L42.6217362,76 L26.8823923,76 L26.8823923,25.2598214 L41.9941977,25.2598214 L41.9941977,32.18125 L42.2146842,32.18125 C44.3177862,28.1946429 49.4568177,23.9875 57.1229636,23.9875 C73.0658335,23.9875 76,34.4883929 76,48.1276786 L76,76 L75.9830395,76 Z" id="linkedin" fill="#000000" fill-rule="nonzero"></path>
    </g>
</svg>