<?xml version="1.0" encoding="UTF-8"?>
<svg width="76px" height="76px" viewBox="0 0 76 76" version="1.1" xmlns="http://www.w3.org/2000/svg" xmlns:xlink="http://www.w3.org/1999/xlink">
    <!-- Generator: Sketch 48.1 (47250) - http://www.bohemiancoding.com/sketch -->
    <title>linkedin-square</title>
    <desc>Created with Sketch.</desc>
    <defs></defs>
    <g id="linkedin-square---f08c" stroke="none" stroke-width="1" fill="none" fill-rule="evenodd">
        <path d="M0,-3.55271368e-15 L76,-3.55271368e-15 L76,76 L0,76 L0,-3.55271368e-15 Z M22.9696429,65.1428571 L22.9866071,65.1428571 L22.9866071,28.8732143 L11.7053571,28.8732143 L11.7053571,65.1428571 L22.9696429,65.1428571 Z M17.3375,23.9196429 C20.9508929,23.9196429 23.86875,21.0017857 23.86875,17.3883929 C23.86875,13.7919643 20.9339286,10.8571429 17.3375,10.8571429 C13.7241071,10.8571429 10.80625,13.7919643 10.80625,17.3883929 C10.80625,20.9848214 13.7241071,23.9196429 17.3375,23.9196429 Z M65.19375,65.1428571 L65.19375,45.2607143 C65.19375,35.4892857 63.0732143,27.9741071 51.6732143,27.9741071 C46.19375,27.9741071 42.5125,30.9767857 41.0026786,33.8267857 L40.85,33.8267857 L40.85,28.8732143 L30.04375,28.8732143 L30.04375,65.1428571 L41.3080357,65.1428571 L41.3080357,47.1946429 C41.3080357,42.4616071 42.2071429,37.88125 48.0767857,37.88125 C53.8446429,37.88125 53.9294643,43.2928571 53.9294643,47.5 L53.9294643,65.1428571 L65.19375,65.1428571 Z" id="linkedin-square" fill="#000000" fill-rule="nonzero"></path>
    </g>
</svg>