<?xml version="1.0" encoding="UTF-8"?>
<svg width="63px" height="76px" viewBox="0 0 63 76" version="1.1" xmlns="http://www.w3.org/2000/svg" xmlns:xlink="http://www.w3.org/1999/xlink">
    <!-- Generator: Sketch 48.1 (47250) - http://www.bohemiancoding.com/sketch -->
    <title>linode</title>
    <desc>Created with Sketch.</desc>
    <defs></defs>
    <g id="linode---f2b8" stroke="none" stroke-width="1" fill="none" fill-rule="evenodd" transform="translate(-7.000000, 0.000000)">
        <path d="M69.9959384,33.5914062 C69.9516642,33.4578125 69.8631158,33.3835937 69.7893254,33.2945312 L59.4586796,27.5648437 C59.325857,27.4757813 59.1635183,27.4757813 59.0011796,27.5648437 L50.3086791,32.9085937 C50.1758565,32.9976562 50.1020662,33.1609375 50.1020662,33.2945312 L49.9692436,37.9554687 L46.4273079,35.5804687 C46.2944853,35.4914062 46.0878724,35.4914062 45.9698078,35.5804687 L40.8635172,38.7273437 L40.6569043,33.5171875 C40.6569043,33.3835937 40.5683559,33.2203125 40.4502914,33.1757812 L35.1373878,29.56875 L40.1108559,26.9859375 C40.2731946,26.896875 40.361743,26.7335937 40.361743,26.5554687 L39.5205332,6.9171875 C39.5205332,6.78359375 39.3877107,6.6203125 39.2696461,6.53125 L25.8988388,0.04453125 C25.7660163,0 25.6479517,0 25.5594033,0 L7.30367641,5.7296875 C7.09706349,5.81875 6.9642409,6.0265625 7.0085151,6.27890625 L11.052225,26.0359375 C11.1850476,26.540625 16.0699673,30.103125 16.7488383,30.6226562 L12.7789187,32.5375 C12.5723058,32.6710937 12.4837574,32.8789062 12.5280316,33.0421875 L15.568193,47.9304687 C15.6567414,48.3609375 19.0658546,51.359375 19.5676288,51.834375 L16.9997254,53.4078125 C16.8669028,53.496875 16.7488383,53.7046875 16.7931125,53.8679688 C16.9997254,54.921875 19.0658546,65.4015625 19.2872255,65.609375 L28.8947261,75.8664062 C28.9832745,75.9554688 29.101339,75.9554688 29.2341616,76 C29.32271,76 29.3965004,75.9554687 29.4850487,75.9109375 L41.8375495,65.9804688 C41.9703721,65.8914063 41.9998882,65.7726562 41.9998882,65.6390625 L41.7047269,58.8109375 L45.8369852,62.3289062 C45.999324,62.4625 46.2649691,62.4625 46.4273079,62.3289062 L56.3004536,54.4023438 C56.4332762,54.3132813 56.4627924,54.1945313 56.4627924,54.0609375 L56.8022279,49.103125 L59.7981151,51.18125 C59.9604539,51.3148438 60.1818248,51.3148438 60.3441636,51.18125 L68.4020673,44.6945313 C68.4906157,44.65 68.564406,44.53125 68.564406,44.3976563 C68.6972286,43.4328125 70.0844867,33.8882813 69.9959384,33.5914063 Z M39.7714204,34.3039062 L40.361743,48.0492187 L26.9909357,57.1335937 L24.9248065,42.7945313 L39.7714204,34.3039063 Z M38.6350493,7.58515625 L39.4319848,26.2882812 L23.6998871,34.5117187 L20.7925482,14.5023437 L38.6350493,7.58515625 Z M11.937709,25.6945312 L8.10061194,7.125 L19.8627901,14.4578125 L22.7258548,34.1851562 L11.937709,25.6945312 Z M16.453677,47.6335937 L13.6644026,34.140625 L23.9950484,42.7945312 L26.0169034,56.6585937 L16.453677,47.6335937 Z M20.0398869,65.1046875 L18.0180319,55.1445312 L27.1237583,64.184375 L28.5552906,74.1890625 L20.0398869,65.1046875 Z M29.5588391,74.6789062 L27.9944841,64.1546875 L40.6421462,55.040625 L41.0996462,65.43125 L29.5588391,74.6789062 Z M41.6604527,57.59375 C41.6604527,57.0890625 41.7932753,54.1945312 41.3652914,53.8679687 L37.7790815,50.8992187 L41.0701301,48.6875 C41.4095656,48.4351562 41.2324688,47.8414062 41.2324688,47.5 L45.5713401,50.8546875 L45.6598885,60.9929687 L41.6604527,57.59375 Z M55.5773084,53.8234375 L46.5896466,61.0375 L46.5010982,50.8546875 L56.1971472,43.8929688 L55.5773084,53.8234375 Z M59.6652926,50.0085937 L56.8465021,48.0195312 L57.1416634,42.9726562 C57.1859376,42.8390625 57.0973892,42.6757812 56.9793246,42.5867187 L50.8990017,38.5492187 L50.9875501,34.0960937 L60.5212603,40.1226562 L59.6652926,50.0085937 Z M67.7231963,44.1007812 L60.5950507,49.7859375 L61.4362604,40.1226562 L68.9776318,34.6898438 L67.7231963,44.1007812 Z" id="linode" fill="#000000" fill-rule="nonzero"></path>
    </g>
</svg>