<?xml version="1.0" encoding="UTF-8"?>
<svg width="63px" height="76px" viewBox="0 0 63 76" version="1.1" xmlns="http://www.w3.org/2000/svg" xmlns:xlink="http://www.w3.org/1999/xlink">
    <!-- Generator: Sketch 48.1 (47250) - http://www.bohemiancoding.com/sketch -->
    <title>linux</title>
    <desc>Created with Sketch.</desc>
    <defs></defs>
    <g id="linux---f17c" stroke="none" stroke-width="1" fill="none" fill-rule="evenodd" transform="translate(-7.000000, 0.000000)">
        <path d="M34.3285326,18.3453906 C34.2987347,18.1375954 34.6116123,18.0040127 34.8052984,17.9149576 C35.0585802,17.81106 35.3863566,17.7665325 35.6247395,17.9001151 C35.6843352,17.9298002 35.743931,18.0040127 35.7141331,18.0633828 C35.6545374,18.241493 35.3565588,18.2118079 35.1926705,18.300863 C35.0436812,18.3750756 34.9244898,18.5531858 34.7457026,18.5531858 C34.5967133,18.5680283 34.3434315,18.4938157 34.3285326,18.3453906 Z M38.0085683,18.300863 C38.1575576,18.3750756 38.2767491,18.5531858 38.4555362,18.5531858 C38.6194245,18.5531858 38.8727063,18.4938157 38.8876052,18.330548 C38.9174031,18.1227528 38.6045255,17.9891702 38.4108394,17.9001151 C38.1575576,17.7962175 37.8297812,17.75169 37.5913983,17.8852726 C37.5318026,17.9149576 37.4722068,17.9891702 37.5020047,18.0485403 C37.5467015,18.241493 37.8446801,18.2118079 38.0085683,18.300863 Z M69.9965711,64.3423423 C69.9220764,65.5594285 69.0281406,66.3906093 67.9256198,67.0585224 C65.7056792,68.3943487 62.3683189,69.4036397 60.3420644,71.837812 L59.9546922,71.5112767 L60.3420644,71.837812 C58.2264163,74.3461969 55.6191036,75.7859208 53.1458812,75.9788735 C50.6875578,76.1718262 48.3782236,75.0437951 47.1416124,72.5650952 L47.1416124,72.5502527 C46.9777242,72.2385599 46.8585327,71.8971821 46.7691392,71.5558042 C43.5658692,71.7339144 40.7797693,70.769151 38.5598287,70.9472611 C35.2820641,71.1253713 33.2260118,71.9120246 31.3636455,71.9268671 C30.6484969,73.5001736 29.2330985,74.5391496 27.5048227,74.925055 C25.1209939,75.474228 22.1263089,74.925055 19.1763208,73.3814335 L19.4147037,72.936158 L19.1763208,73.3814335 C16.4200187,71.9268671 12.9187702,72.0604497 10.3412553,71.5261192 C9.04504838,71.2589539 7.9127297,70.7839935 7.34657036,69.7004899 C6.79530995,68.6169864 6.89960246,67.132735 7.67434682,64.9954129 C7.92762863,64.2384447 7.73394254,63.1104136 7.55515538,61.9081699 C7.4657618,61.3293119 7.37636822,60.7356113 7.37636822,60.1567533 C7.37636822,59.5185251 7.48066073,58.8951395 7.79353826,58.3162815 C8.46399011,57.0546678 9.551612,56.5203373 10.5498403,56.1641169 C11.5480686,55.8078966 12.4569034,55.5704164 13.0826584,54.9321882 C13.8574028,54.11585 14.5874503,52.7948662 15.5558808,51.9340004 C15.1685086,49.3810879 15.5856787,46.6797503 16.4796145,44.0229402 C18.3568796,38.3976273 22.319995,33.0097947 25.1358928,29.6702289 C27.5346205,26.2712932 28.2348702,23.5402706 28.488152,20.0671222 C28.6520403,15.3472027 24.8379142,-0.0296421078 40.0944185,4.29207731e-05 C52.1476529,0.014885435 51.4623021,12.6755501 51.3878075,19.4882642 C51.3431107,23.955861 53.8163331,26.9837339 56.3640501,30.1748744 C58.6286875,32.846527 61.5935745,36.7501083 63.2920525,41.2177051 C64.677653,44.8689636 65.2140145,48.9061274 63.843313,52.9581338 C64.051898,53.0323464 64.260483,53.136244 64.4541691,53.2549841 C64.6627541,53.3737242 64.8564402,53.5221494 65.0501263,53.685417 C66.0334557,54.5165978 66.3463332,55.8078966 66.6145139,57.0101402 C66.8975936,58.2123839 67.1508754,59.340415 67.6872369,59.9341155 C69.3410181,61.7745873 70.0561668,63.1252561 69.9965711,64.3423423 Z M38.0085683,16.193226 C38.5449298,16.3268086 39.3345731,16.5494463 39.9454292,16.8462966 C39.6325517,15.0355099 40.6158811,13.3583058 41.703503,13.4325183 C43.0295077,13.4770459 43.7744542,15.733108 43.0593056,17.4845247 C42.9401142,17.7665325 42.6421356,17.9891702 42.4782473,18.1672804 C43.4764756,18.5086582 44.1171296,18.7758235 44.3555125,18.8945636 C45.532528,17.4845247 45.9645969,15.0058248 44.9961665,12.8981878 C43.5360714,9.72188977 39.9007324,9.66251971 38.4406373,12.9575579 C37.9638715,14.0262189 37.859579,15.1690925 38.0085683,16.193226 Z M31.1252627,18.9836187 C32.2873792,18.1375954 32.1532888,18.2860205 32.0042995,18.1672804 C30.8123851,17.1431469 31.0209701,14.1004315 32.2724803,13.9965339 C33.2111129,13.9223213 33.8815647,15.5846829 33.7027775,16.9056667 C34.1646444,16.5939739 34.7010059,16.3713362 35.2224684,16.222911 C35.4757502,13.3583058 33.8815647,11.2506687 32.3767728,11.2506687 C29.560875,11.2506687 28.8010296,16.8166116 31.1252627,18.9836187 Z M29.7247632,22.0857042 C29.9482472,22.8129874 30.633598,23.6441682 31.9149059,24.3566088 C33.0770225,25.0393645 33.7027775,26.063498 34.8946919,26.582986 C35.2820641,26.7462536 35.743931,26.8649938 36.3249892,26.8946788 C39.0663924,27.0579464 40.3625993,25.2174747 42.0163805,24.6831442 C43.7595553,24.1339711 45.0110654,23.0504676 45.3984376,21.9966491 C45.8752034,20.7350354 45.0855601,19.8147995 43.83405,19.2953115 C42.1504709,18.5680283 41.4055244,18.5235007 40.4668918,17.9149576 C38.932302,16.9353517 37.6658929,16.5939739 36.6080689,16.5939739 C34.462623,16.5939739 33.1515171,18.0485403 32.4512674,18.7016109 C32.3767728,18.7758235 31.274252,19.5773192 30.3505183,20.2600749 C29.7247632,20.7498779 29.5161782,21.358421 29.7247632,22.0857042 Z M24.7336217,59.6075802 L21.8134314,54.3236452 C20.8003042,52.9581338 19.7573791,52.126953 18.5505657,51.9488429 C17.4033481,51.7707327 16.6733005,52.1566381 15.9134551,52.9729764 C15.1983065,53.7299446 14.6023493,54.7986056 13.7829081,55.6446289 C12.6207916,56.6093924 12.3973076,56.5648648 10.8627178,57.1140378 C9.92408525,57.4405732 9.17913875,57.7967935 8.6576762,58.7912419 C8.25540509,59.5333677 8.34479867,60.6020287 8.52358583,61.7597448 C8.70237299,62.9323034 8.97055373,64.1790746 8.61297941,65.3071057 L8.61297941,65.3367907 C7.86803291,67.3702152 7.86803291,68.5576163 8.22560723,69.2552145 C9.4026227,71.5409617 15.1685086,70.1606079 19.6232887,72.5057251 C24.3015527,74.9398975 30.4399119,75.0437951 30.842183,69.8340726 C31.1550605,66.7913571 26.14902,62.5612406 24.7336217,59.6075802 Z M47.663075,64.9212003 C48.1398407,63.2885238 48.6017076,61.7597448 48.6762022,60.6168712 C48.7953936,58.360809 48.9145851,56.3570696 49.3317551,54.694708 C49.793622,52.8245512 50.7173556,51.2660872 52.5201262,50.6427016 C52.8628015,47.5109311 55.3062261,47.5109311 58.2264163,48.7873873 C61.0423141,50.049001 62.1001381,51.1621896 61.6233724,52.6612836 C61.7723617,52.6612836 61.921351,52.646441 62.2491274,52.6612836 C63.0238718,50.1528986 60.1185805,48.5053796 57.6751559,47.4960886 C58.1072249,45.7149869 58.0327303,43.9190426 57.6155602,42.197311 C56.7216244,38.4421549 54.248402,35.1025892 52.3711369,33.4402276 C52.0284615,33.4253851 52.0582593,33.7222353 52.758509,34.404991 C54.4867849,35.99314 58.2860121,41.707508 56.2299597,47.0062856 C55.6489015,46.8578605 55.097641,46.7836479 54.6059764,46.7984904 C53.8163331,42.4793188 51.9986636,38.9022728 51.0898289,37.2102262 C49.3764519,34.0339281 46.6946445,27.5180644 45.5474269,23.00594 C44.8769751,23.955861 43.6999596,24.7721992 42.2249655,25.2323172 C41.5247158,25.4549549 40.7797693,26.0486555 39.8560356,26.5681435 C37.7850844,27.7555446 35.3863566,27.8742847 33.5388893,26.3900333 C32.8684375,25.8557028 32.3469749,25.2620022 31.6616241,24.8612543 C31.4232413,24.7276717 30.9017787,24.3714514 30.7378905,24.2527112 C30.4399119,29.8631816 26.6704826,36.9133759 24.882611,40.9802248 C23.6459998,43.9042001 22.9159522,47.0359706 22.8265586,50.1083711 C19.5785919,45.7891994 21.9475218,40.2677841 23.2139308,37.8781393 C24.6293292,35.2658568 24.8528131,34.5385736 24.5101377,34.7908964 C23.2288298,36.8688484 21.2323731,40.1787291 20.4576288,43.5776648 C20.0553577,45.343924 19.980863,47.1398682 20.5023256,48.8022298 C21.0237881,50.4645914 22.1561068,51.9933704 24.1674623,53.2401416 C24.1674623,53.2401416 27.862397,55.3626212 29.8737525,58.0639587 C30.9762734,59.5482102 31.3189487,60.8395089 30.9762734,61.7597448 C30.6038001,62.7541933 29.5459761,63.0807286 28.488152,63.0807286 C29.2033007,63.9712794 30.0227418,65.0102554 30.633598,65.9898614 C36.2355957,69.8043875 42.8805184,68.3201361 47.663075,64.9212003 Z M66.9422904,60.6317137 C65.4523974,58.9545096 65.8695674,55.7188415 64.3945734,54.4572278 C63.3665472,53.5666769 62.3683189,53.655732 61.0274152,53.7002596 C59.8801976,55.0064008 57.1834912,56.6093924 55.3062261,56.1195894 C53.5928491,55.6891565 52.6244187,53.7002596 52.5052272,51.7410477 C52.4605304,51.7707327 52.4009347,51.7855752 52.3562379,51.8152602 C51.2984139,52.3941183 50.7024567,53.4182518 50.3150845,54.9470308 C49.9426113,56.4609672 49.8085209,58.4350216 49.6893294,60.6910838 C49.5850369,62.4425005 48.7655958,64.6095075 48.2143354,66.7171446 C47.6928728,68.6763565 47.3501974,70.4574582 48.0504471,72.1049772 C49.1231701,74.2571418 50.9557385,75.1328502 53.0713866,74.9695825 C55.1870346,74.8063148 57.6006613,73.5150161 59.56732,71.1847414 C62.8450846,67.2366326 68.8493534,66.7765146 68.9834438,64.2829722 C69.0281406,63.526004 68.521577,62.3534454 66.9422904,60.6317137 Z M30.9315766,22.0708616 C31.2295552,22.3528694 31.6318263,22.7387748 32.123491,23.1246802 C33.1068203,23.8964909 34.4775219,24.6979867 36.1908989,24.6979867 C37.9191747,24.6979867 39.5431581,23.8222783 40.9287586,23.0949951 C41.6588062,22.7090898 42.552742,22.0560191 43.1338002,21.5513736 C43.7148585,21.0467282 44.0128371,20.6162952 43.5956671,20.5717677 C43.178497,20.5272402 43.2082949,20.9576731 42.7017313,21.3287359 C42.0461784,21.8036964 41.2565351,22.427082 40.63078,22.7833023 C39.5282592,23.4066879 37.7254887,24.2972388 36.1759999,24.2972388 C34.6265112,24.2972388 33.3899,23.5847981 32.4661664,22.8575149 C32.0042995,22.486452 31.6169273,22.1153892 31.3189487,21.8333814 C31.0954648,21.6255862 31.0358691,21.1506258 30.6782948,21.1060982 C30.4697097,21.0912557 30.410114,21.6552712 30.9315766,22.0708616 Z" id="linux" fill="#000000" fill-rule="nonzero"></path>
    </g>
</svg>