<?xml version="1.0" encoding="UTF-8"?>
<svg width="76px" height="35px" viewBox="0 0 76 35" version="1.1" xmlns="http://www.w3.org/2000/svg" xmlns:xlink="http://www.w3.org/1999/xlink">
    <!-- Generator: Sketch 48.1 (47250) - http://www.bohemiancoding.com/sketch -->
    <title>meanpath</title>
    <desc>Created with Sketch.</desc>
    <defs></defs>
    <g id="meanpath---f20c" stroke="none" stroke-width="1" fill="none" fill-rule="evenodd" transform="translate(0.000000, -21.000000)">
        <path d="M7.6,21 C9.5,21 13.3,21 15.2,21 C17.1,21 18.7888889,21.625 20.2666667,22.875 C21.7444444,21.625 23.4333333,21 25.3333333,21 C27.8666667,21 31.0333333,21 32.9333333,21 C35.0444444,21 36.8388889,21.7291667 38.3166667,23.1875 C39.7944444,24.6458333 40.5333333,26.4166667 40.5333333,28.5 C40.5333333,34.3333333 40.5333333,41.625 40.5333333,46 C39.2666667,46 36.7333333,46 35.4666667,46 C35.4666667,41.625 35.4666667,32.875 35.4666667,28.5 C35.4666667,26.8333333 34.6222222,26 32.9333333,26 C30.4,26 27.2333333,26 25.3333333,26 C23.6444444,26 22.8,26.8333333 22.8,28.5 C22.8,34.3333333 22.8,41.625 22.8,46 C21.5333333,46 19,46 17.7333333,46 C17.7333333,41.625 17.7333333,32.875 17.7333333,28.5 C17.7333333,26.8333333 16.8888889,26 15.2,26 C12.6666667,26 9.5,26 7.6,26 C5.91111111,26 5.06666667,26.8333333 5.06666667,28.5 C5.06666667,34.3333333 5.06666667,41.625 5.06666667,46 C3.8,46 1.26666667,46 0,46 C0,41.625 0,32.875 0,28.5 C0,26.4166667 0.738888889,24.6458333 2.21666667,23.1875 C3.69444444,21.7291667 5.48888889,21 7.6,21 Z M53.2,21 C57,21 64.6,21 68.4,21 C70.5111111,21 72.3055556,21.7291667 73.7833333,23.1875 C75.2611111,24.6458333 76,26.4166667 76,28.5 C76,31.8333333 76,36 76,38.5 C76,40.5833333 75.2611111,42.3541667 73.7833333,43.8125 C72.3055556,45.2708333 70.5111111,46 68.4,46 C63.3333333,46 57,46 53.2,46 C52.3555556,46 51.5111111,45.8437499 50.6666667,45.5312496 C50.6666667,49.0208331 50.6666667,53.3828124 50.6666667,56 C49.4,56 46.8666667,56 45.6,56 C45.6,51.625 45.6,42.875 45.6,38.5 C45.6,36.625 45.6,32.875 45.6,31 C45.6,30.375 45.6,29.125 45.6,28.5 C45.6,26.4166667 46.3388889,24.6458333 47.8166667,23.1875 C49.2944444,21.7291667 51.0888889,21 53.2,21 Z M53.2,26 C51.5111111,26 50.6666667,26.8333333 50.6666667,28.5 C50.6666667,29.3333333 50.6666667,30.375 50.6666667,31 C50.6666667,32.875 50.6666667,36.625 50.6666667,38.5 C50.6666667,40.1666667 51.5111111,41 53.2,41 C58.2666667,41 64.6,41 68.4,41 C70.0888889,41 70.9333333,40.1666667 70.9333333,38.5 C70.9333333,35.1666667 70.9333333,31 70.9333333,28.5 C70.9333333,26.8333333 70.0888889,26 68.4,26 C63.3333333,26 57,26 53.2,26 Z" id="meanpath" fill="#000000" fill-rule="nonzero"></path>
    </g>
</svg>