<?xml version="1.0" encoding="UTF-8"?>
<svg width="76px" height="76px" viewBox="0 0 76 76" version="1.1" xmlns="http://www.w3.org/2000/svg" xmlns:xlink="http://www.w3.org/1999/xlink">
    <!-- Generator: Sketch 48.1 (47250) - http://www.bohemiancoding.com/sketch -->
    <title>medium</title>
    <desc>Created with Sketch.</desc>
    <defs></defs>
    <g id="medium---f23a" stroke="none" stroke-width="1" fill="none" fill-rule="evenodd">
        <path d="M0,0 L0,76 L76,76 L76,0 L0,0 Z M63.1410714,17.9991071 L59.0696429,21.9008929 C58.7133929,22.1723214 58.54375,22.6133929 58.6116071,23.0375 L58.6116071,51.7580357 C58.54375,52.1991071 58.7133929,52.6401786 59.0696429,52.8946429 L63.05625,56.7964286 L63.05625,57.6616071 L43.0383929,57.6616071 L43.0383929,56.8303571 L47.1607143,52.8267857 C47.5678571,52.4196429 47.5678571,52.3008929 47.5678571,51.6901786 L47.5678571,28.4660714 L36.1,57.5767857 L34.55625,57.5767857 L21.2053571,28.4660714 L21.2053571,47.975 C21.0866071,48.7892857 21.375,49.6205357 21.9517857,50.2142857 L27.3125,56.7116071 L27.3125,57.5767857 L12.0785714,57.5767857 L12.0785714,56.7116071 L17.4392857,50.2142857 C18.0160714,49.6205357 18.2705357,48.7892857 18.1348214,47.975 L18.1348214,25.4125 C18.2026786,24.7848214 17.9651786,24.1741071 17.4901786,23.75 L12.7232143,17.9991071 L12.7232143,17.1339286 L27.5330357,17.1339286 L38.9669643,42.2410714 L49.0267857,17.1508929 L63.1410714,17.1508929 L63.1410714,17.9991071 Z" id="medium" fill="#000000" fill-rule="nonzero"></path>
    </g>
</svg>