<?xml version="1.0" encoding="UTF-8"?>
<svg width="76px" height="74px" viewBox="0 0 76 74" version="1.1" xmlns="http://www.w3.org/2000/svg" xmlns:xlink="http://www.w3.org/1999/xlink">
    <!-- Generator: Sketch 48.1 (47250) - http://www.bohemiancoding.com/sketch -->
    <title>meetup</title>
    <desc>Created with Sketch.</desc>
    <defs></defs>
    <g id="meetup---f2e0" stroke="none" stroke-width="1" fill="none" fill-rule="evenodd" transform="translate(0.000000, -1.000000)">
        <path d="M14.2685714,60.8806717 C14.4270057,61.7044897 13.9372997,62.4849489 13.116322,62.6583843 C12.3385537,62.8173667 11.5463822,62.3259665 11.3879479,61.5021485 C11.2295137,60.7216893 11.7192196,59.8978713 12.496988,59.7244359 C13.2747563,59.5510006 14.095734,60.0568537 14.2685714,60.8806717 Z M34.8794324,71.2000763 C33.972036,71.8649119 33.727183,73.1367713 34.346517,74.0906658 C35.0090604,75.0445603 36.2765347,75.2902604 37.2271405,74.6254249 C38.1345369,73.9605893 38.3793899,72.6887299 37.7168465,71.7348353 C37.1119156,70.7953938 35.8300381,70.5352407 34.8794324,71.2000763 Z M22.4927514,4.38409977 C23.4001478,4.1817585 23.9762725,3.2712228 23.7746289,2.36068711 C23.6161946,1.40679257 22.7087982,0.828674668 21.8014018,1.04546888 C20.8940054,1.24781015 20.3178807,2.15834584 20.4907181,3.06888154 C20.6923618,4.02277608 21.585355,4.60089398 22.4927514,4.38409977 Z M4.9641576,33.7091303 C3.52384587,32.711877 1.55061879,33.0876536 0.556803691,34.5763072 C-0.437011406,36.021602 -0.0625303551,38.0450146 1.37778138,39.042268 C2.81809312,40.0684273 4.7913202,39.7071036 5.78513529,38.21845 C6.77895039,36.7153434 6.40446934,34.7352896 4.9641576,33.7091303 Z M44.1406368,9.00904298 C45.6673673,8.09850729 46.1138639,6.11845347 45.2496769,4.62979987 C44.3422805,3.09778743 42.4122627,2.60638722 40.9287417,3.51692291 C39.4452206,4.42745861 38.9555146,6.40751242 39.862911,7.93952486 C40.727098,9.42817846 42.6571157,9.91957868 44.1406368,9.00904298 Z M16.6162795,17.3917526 C17.7253196,16.6112934 17.9701726,15.079281 17.2356136,13.966404 C16.5010546,12.853527 14.9743242,12.6078269 13.9084935,13.3449272 C12.7994534,14.1253864 12.5546005,15.6573989 13.2891594,16.7702758 C14.0237184,17.8976057 15.5360457,18.1433058 16.6162795,17.3917526 Z M70.2390855,39.9383507 C69.1732548,40.1840508 68.467502,41.253569 68.712355,42.3808989 C68.9139987,43.450417 69.9942325,44.1586114 71.0600632,43.9129113 C72.1258939,43.71057 72.8316466,42.626599 72.5867936,41.513722 C72.3707468,40.4442039 71.3049162,39.7360095 70.2390855,39.9383507 Z M75.9571231,31.7290765 C75.7986888,30.9052585 75.0065173,30.4138583 74.228749,30.5728407 C73.4077713,30.7318231 72.9180653,31.5700941 73.0764996,32.3939121 C73.2349339,33.1743713 74.0271053,33.7091303 74.848083,33.5501479 C75.6258514,33.3333537 76.1587667,32.5528945 75.9571231,31.7290765 Z M64.3914198,21.0772542 C63.1527517,21.944431 62.8646894,23.6354259 63.6856671,24.8783794 C64.5066448,26.1213329 66.1918095,26.4103918 67.4304776,25.5865738 C68.6259363,24.719397 68.9139987,23.0284021 68.093021,21.7854486 C67.2720433,20.5280422 65.5868786,20.2100773 64.3914198,21.0772542 Z M63.4840234,41.2246631 C67.2720433,47.4538835 65.6588942,55.6776106 59.6960036,59.8834184 C57.1898611,61.6611309 54.352447,62.4415901 51.5006298,62.3548724 C49.7722557,69.1622107 41.5048663,71.6914765 36.3629534,67.0665333 C36.2045192,67.1966098 35.9884724,67.3122334 35.8300381,67.4856688 C30.1984192,71.4024176 22.5359608,70.0004816 18.632716,64.2626615 C17.2356136,62.19589 16.5298608,59.8400595 16.4578453,57.4842291 C7.0382065,55.9088578 3.49503963,43.8984584 10.538164,37.2934613 C6.46208181,30.5150289 10.6245827,21.7709957 18.2294287,20.6870246 C21.8446111,11.1191733 33.727183,6.58094779 41.7929287,12.853527 C51.5006298,9.63051973 61.4243777,17.1026936 60.6466093,27.465457 C66.5662906,29.2865284 68.2514553,37.1344789 63.4840234,41.2246631 Z M53.4018413,51.9632031 C52.9553446,48.9858959 47.5109663,51.2983675 47.1940977,48.0464543 C46.7476011,43.4215111 53.48826,33.4345243 52.9553446,29.5466814 C52.4656387,26.077974 50.1611399,25.3408737 48.1447034,25.2975149 C46.2146857,25.254156 45.7105766,25.5865738 45.0624363,25.9623505 C44.6447459,26.2080506 44.1118306,26.6705449 43.3772716,25.9189916 C42.4698752,25.0518148 41.7785256,24.2279968 40.5830668,24.0545614 C38.8114834,23.7655024 38.0337151,24.3436203 36.7518376,25.4564973 C36.2621316,25.8756328 35.0234635,27.3209275 33.8712141,26.7717155 C33.3815082,26.5260154 31.6531341,25.6588386 30.414466,25.1240795 C28.0667578,24.0979202 24.653219,25.7889151 23.4145509,28.014669 C21.5565488,31.324394 17.9413663,44.3609527 17.408451,46.0953064 C16.1697829,49.9397904 18.9783908,53.1194389 22.7232013,52.9026447 C24.3219473,52.815927 25.3589718,52.2378091 26.3815931,50.3878318 C26.9577178,49.3183137 32.3876931,34.8220073 32.8053835,34.1138129 C33.0934458,33.6224127 34.0872609,32.9575771 34.9082386,33.3767125 C35.7292163,33.8247539 35.9020537,34.7352896 35.7724256,35.5591076 C35.6139913,36.9610435 31.7395528,45.8062474 31.6099247,46.7890479 C31.1202187,50.0987729 35.4843633,50.6335319 37.169528,47.3671658 C37.7024434,46.3410065 43.7517527,33.9837363 44.284668,33.1599183 C44.904002,32.2493826 45.3504987,31.9603237 45.9698327,32.0036825 C46.4163294,32.0036825 47.1652915,32.1337591 46.9924541,33.5790538 C46.7908104,34.9376309 41.9369599,44.0285349 41.3896414,46.2542888 C40.727098,49.231596 42.3402472,52.2378091 44.9760176,53.5674803 C46.617973,54.3912983 53.977966,55.836593 53.4018413,51.9632031 Z M54.222819,65.3032737 C52.7392979,66.3727918 52.3648168,68.4829221 53.4018413,70.0149346 C54.4244626,71.546947 56.4841084,71.9082707 58.0108388,70.8821114 C59.5375693,69.8125933 59.8976472,67.702463 58.8750259,66.1704505 C57.8091952,64.6384381 55.7495494,64.2193026 54.222819,65.3032737 Z" id="meetup" fill="#000000" fill-rule="nonzero"></path>
    </g>
</svg>