<?xml version="1.0" encoding="UTF-8"?>
<svg width="76px" height="45px" viewBox="0 0 76 45" version="1.1" xmlns="http://www.w3.org/2000/svg" xmlns:xlink="http://www.w3.org/1999/xlink">
    <!-- Generator: Sketch 48.1 (47250) - http://www.bohemiancoding.com/sketch -->
    <title>mixcloud</title>
    <desc>Created with Sketch.</desc>
    <defs></defs>
    <g id="mixcloud---f289" stroke="none" stroke-width="1" fill="none" fill-rule="evenodd" transform="translate(0.000000, -16.000000)">
        <path d="M50.435781,34.1590559 C49.4462367,23.9859441 40.8697498,16 30.4791778,16 C21.8696902,16 14.2499851,21.5670745 11.512119,29.6524734 C5.01384173,30.613391 0,36.213617 0,43.0067021 C0,50.4625798 6.03638667,56.5265691 13.4913266,56.5265691 L47.9948019,56.5265691 C54.2290736,56.5265691 59.3090358,51.4566489 59.3090358,45.1936303 C59.3090358,39.7923138 55.4826234,35.2525798 50.435781,34.1590559 Z M47.9948019,51.4565293 L13.4913266,51.4565293 C8.8402542,51.4565293 5.04684242,47.6789229 5.04684242,43.0065824 C5.04684242,38.334242 8.8402542,34.5566356 13.4913266,34.5566356 C15.7343015,34.5566356 17.8455119,35.45125 19.4288303,37.0419282 C21.8071438,39.431117 25.4014792,35.8179521 23.0243571,33.4299601 C21.2760352,31.7067952 19.1319432,30.5139362 16.8229669,29.9174468 C19.1979446,24.6155851 24.5417932,21.0699202 30.479297,21.0699202 C38.7587777,21.0699202 45.4879406,27.8298537 45.4879406,36.1140426 C45.4879406,37.7378723 45.2240542,39.3283112 44.7291629,40.8526862 C43.663729,44.1459441 48.5573625,45.5129388 49.512119,42.4432447 C49.8420068,41.4491755 50.1058932,40.4219548 50.2708966,39.394734 C52.5798729,40.2894681 54.2621934,42.5426995 54.2621934,45.1936303 C54.2621934,48.6398404 51.4583259,51.4565293 47.9948019,51.4565293 Z M76,45.1936303 C76,50.4624601 74.4825638,55.5323803 71.5798133,59.8733245 C71.0850412,60.6024202 70.293382,61 69.4687221,61 C67.5247787,61 66.2369178,58.7468883 67.3906315,57.0566356 C69.6996078,53.5441223 70.9531576,49.4351197 70.9531576,45.1936303 C70.9531576,40.952141 69.6997269,36.8431383 67.3906315,33.3637766 C65.5255563,30.6313431 69.6972251,27.7100532 71.5798133,30.5472074 C74.4826829,34.8548803 76,39.9249202 76,45.1936303 Z M67.555635,45.1936303 C67.555635,48.9713564 66.4670887,52.6163564 64.3559974,55.7644415 C63.8612253,56.4934176 63.0695661,56.8578457 62.2449061,56.8578457 C60.1956465,56.8578457 59.0256111,54.5864229 60.1668156,52.9146011 C61.7171333,50.6282181 62.5087926,47.9771676 62.5087926,45.1936303 C62.5087926,42.4432447 61.7171333,39.7591622 60.1668156,37.4727793 C58.2891119,34.7217952 62.4313541,31.8364096 64.3559974,34.6560904 C66.4669695,37.7709043 67.555635,41.4160239 67.555635,45.1936303 Z" id="mixcloud" fill="#000000" fill-rule="nonzero"></path>
    </g>
</svg>