<?xml version="1.0" encoding="UTF-8"?>
<svg width="76px" height="76px" viewBox="0 0 76 76" version="1.1" xmlns="http://www.w3.org/2000/svg" xmlns:xlink="http://www.w3.org/1999/xlink">
    <!-- Generator: Sketch 48.1 (47250) - http://www.bohemiancoding.com/sketch -->
    <title>odnoklassniki-square</title>
    <desc>Created with Sketch.</desc>
    <defs></defs>
    <g id="odnoklassniki-square---f264" stroke="none" stroke-width="1" fill="none" fill-rule="evenodd">
        <path d="M31.2482143,24.6151786 C31.2482143,20.8660714 34.2848214,17.8294643 38,17.8294643 C41.7151786,17.8294643 44.7517857,20.8660714 44.7517857,24.6151786 C44.7517857,28.3473214 41.7151786,31.3669643 38,31.3669643 C34.2848214,31.3669643 31.2482143,28.3303571 31.2482143,24.6151786 Z M0,0 L76,0 L76,76 L0,76 L0,0 Z M24.2419643,24.6151786 C24.2419643,32.18125 30.4169643,38.3392857 38,38.3392857 C45.5830357,38.3392857 51.7580357,32.1982143 51.7580357,24.6151786 C51.7580357,17.0151786 45.5830357,10.8571429 38,10.8571429 C30.4169643,10.8571429 24.2419643,16.9982143 24.2419643,24.6151786 Z M53.8446429,40.0017857 C53.0642857,38.4580357 50.9098214,37.1517857 48.0598214,39.3910714 C48.0598214,39.3910714 44.2089286,42.4446429 38,42.4446429 C31.7910714,42.4446429 27.9401786,39.3910714 27.9401786,39.3910714 C25.0901786,37.1517857 22.9357143,38.4580357 22.1553571,40.0017857 C20.8151786,42.7330357 22.3419643,44.0223214 25.7857143,46.2785714 C28.7205357,48.1616071 32.775,48.8571429 35.3875,49.1285714 L33.1991071,51.3169643 C30.1116071,54.3705357 27.1767857,57.3392857 25.1071429,59.4089286 C22.1214286,62.3946429 26.9223214,67.1785714 29.925,64.2607143 L38.0169643,56.1348214 C41.1044643,59.2223214 44.0732143,62.1910714 46.1089286,64.2607143 C49.0946429,67.1785714 53.9125,62.4455357 50.9607143,59.4089286 L42.86875,51.3169643 L40.6633929,49.1285714 C43.2928571,48.8571429 47.2964286,48.1276786 50.1973214,46.2785714 C53.6580357,44.0223214 55.1678571,42.7160714 53.8446429,40.0017857 Z" id="odnoklassniki-square" fill="#000000" fill-rule="nonzero"></path>
    </g>
</svg>