<?xml version="1.0" encoding="UTF-8"?>
<svg width="46px" height="76px" viewBox="0 0 46 76" version="1.1" xmlns="http://www.w3.org/2000/svg" xmlns:xlink="http://www.w3.org/1999/xlink">
    <!-- Generator: Sketch 48.1 (47250) - http://www.bohemiancoding.com/sketch -->
    <title>odnoklassniki</title>
    <desc>Created with Sketch.</desc>
    <defs></defs>
    <g id="odnoklassniki---f263" stroke="none" stroke-width="1" fill="none" fill-rule="evenodd" transform="translate(-15.000000, 0.000000)">
        <path d="M55.185215,49.5626961 C51.0926629,52.1447048 45.4616696,53.1686048 41.7425255,53.5544222 L44.8642167,56.6112831 L56.2606302,67.9335397 C60.427864,72.1775311 53.6467739,78.8106224 49.4347312,74.7150224 C46.5818937,71.8362311 42.3997236,67.6812745 38.0383177,63.3482484 L26.6419042,74.7001833 C22.4298615,78.7809442 15.6487714,72.0884963 19.8608141,67.9187006 C22.7584605,65.0399093 26.8958217,60.8849527 31.2572276,56.596444 L34.3341099,53.5395831 C30.6597747,53.1537657 24.9391635,52.1892222 20.8018024,49.547857 C15.9325615,46.4316395 13.7966675,44.6064265 15.678644,40.7927699 C16.7839319,38.6262569 19.8160052,36.8010438 23.8338757,39.9469395 C23.8338757,39.9469395 29.2557605,44.2354482 38.008445,44.2354482 C46.7611296,44.2354482 52.1830144,39.9469395 52.1830144,39.9469395 C56.2008849,36.8158829 59.2180219,38.6262569 60.338246,40.7927699 C62.1903499,44.6064265 60.0544559,46.4316395 55.185215,49.5626961 Z M18.6210994,19.2463523 C18.6210994,8.60669573 27.328975,0 37.9935087,0 C48.6580424,0 57.365918,8.60669573 57.365918,19.2463523 C57.365918,29.8414916 48.6580424,38.4481873 37.9935087,38.4481873 C27.328975,38.4481873 18.6210994,29.8414916 18.6210994,19.2463523 Z M28.4790718,19.2463523 C28.4790718,24.4548872 32.7508598,28.6988785 37.9935087,28.6988785 C43.2361577,28.6988785 47.5079457,24.4548872 47.5079457,19.2463523 C47.5079457,13.9933001 43.2361577,9.74930878 37.9935087,9.74930878 C32.7508598,9.74930878 28.4790718,13.9933001 28.4790718,19.2463523 Z" id="odnoklassniki" fill="#000000" fill-rule="nonzero"></path>
    </g>
</svg>