<?xml version="1.0" encoding="UTF-8"?>
<svg width="76px" height="71px" viewBox="0 0 76 71" version="1.1" xmlns="http://www.w3.org/2000/svg" xmlns:xlink="http://www.w3.org/1999/xlink">
    <!-- Generator: Sketch 48.1 (47250) - http://www.bohemiancoding.com/sketch -->
    <title>openid</title>
    <desc>Created with Sketch.</desc>
    <defs></defs>
    <g id="openid---f19b" stroke="none" stroke-width="1" fill="none" fill-rule="evenodd" transform="translate(0.000000, -3.000000)">
        <path d="M46.0580357,68.5384615 L34.5223214,74 C15.0133929,72.2420673 0,61.796875 0,49.1158654 C0,36.9127404 13.9955357,26.7576923 32.5205357,24.4877404 L32.5205357,31.8266827 C20.3910714,33.9600962 11.4848214,40.8723558 11.4848214,49.1158654 C11.4848214,57.8201923 21.4089286,65.0396635 34.5053571,66.6951923 L34.5053571,8.66634615 L46.0410714,3 L46.0410714,68.5384615 L46.0580357,68.5384615 Z M76,44.4735577 L53.7258929,39.609375 L59.96875,36.0764423 C56.6607143,34.1137019 52.5892857,32.6629808 48.09375,31.84375 L48.09375,24.5048077 C55.93125,25.4435096 62.9714286,27.8329327 68.5017857,31.2122596 L74.4392857,27.8329327 L76,44.4735577 Z" id="openid" fill="#000000" fill-rule="nonzero"></path>
    </g>
</svg>