<?xml version="1.0" encoding="UTF-8"?>
<svg width="76px" height="54px" viewBox="0 0 76 54" version="1.1" xmlns="http://www.w3.org/2000/svg" xmlns:xlink="http://www.w3.org/1999/xlink">
    <!-- Generator: Sketch 48.1 (47250) - http://www.bohemiancoding.com/sketch -->
    <title>opencart</title>
    <desc>Created with Sketch.</desc>
    <defs></defs>
    <g id="opencart---f23d" stroke="none" stroke-width="1" fill="none" fill-rule="evenodd" transform="translate(0.000000, -11.000000)">
        <path d="M50.267779,59.6539297 C50.267779,62.6200608 47.8571106,65 44.8526816,65 C41.8482525,65 39.4138338,62.6200608 39.4138338,59.6539297 C39.4138338,56.6877985 41.8601278,54.2844116 44.8526816,54.2844116 C47.8689858,54.2844116 50.267779,56.6877985 50.267779,59.6539297 Z M20.1166118,54.2844116 C17.1121827,54.2844116 14.7015144,56.6995224 14.7015144,59.6539297 C14.7015144,62.608337 17.1121827,65 20.1166118,65 C23.1210408,65 25.5554596,62.6200608 25.5554596,59.6539297 C25.5554596,56.6877985 23.1210408,54.2844116 20.1166118,54.2844116 Z M54.7566097,22.6300478 C18.8697143,22.6300478 9.7257999,21.1293964 0,11 C4.08507346,17.0612245 6.32948882,28.4567955 44.3064218,27.9057751 C83.8865085,27.3195832 59.7441994,38 52.7140729,50.0521059 C74.8850966,30.5084672 90.643505,22.6300478 54.7566097,22.6300478 Z" id="opencart" fill="#000000" fill-rule="nonzero"></path>
    </g>
</svg>