<?xml version="1.0" encoding="UTF-8"?>
<svg width="76px" height="76px" viewBox="0 0 76 76" version="1.1" xmlns="http://www.w3.org/2000/svg" xmlns:xlink="http://www.w3.org/1999/xlink">
    <!-- Generator: Sketch 48.1 (47250) - http://www.bohemiancoding.com/sketch -->
    <title>opera</title>
    <desc>Created with Sketch.</desc>
    <defs></defs>
    <g id="opera---f26a" stroke="none" stroke-width="1" fill="none" fill-rule="evenodd">
        <path d="M48.095047,5.01048387 C22.0173885,5.01048387 9.39224716,39.3024194 25.4954311,59.4209677 C31.0878784,66.3774194 39.0705224,71.0048387 48.095047,71.0048387 C53.6568508,71.0048387 58.8662538,69.3040323 63.3248899,66.3467742 C56.6139531,72.3532258 47.7120027,76 37.9979983,76 C37.4004491,76 36.7722564,76 36.1747072,75.9540323 C16.0265751,75.0193548 0,58.3943548 0,38 C0,17.0080645 17.0071686,0 37.9979983,0 L38.1205725,0 C47.7886116,0.0459677419 56.6139531,3.69274194 63.3095681,9.66854839 C58.8662538,6.69596774 53.641529,5.01048387 48.095047,5.01048387 Z M63.6926125,65.9483871 C57.4260071,69.7330645 49.7957639,69.5645161 43.4678714,65.0596774 C52.0787081,61.9185484 58.4372442,51.0241935 58.4372442,38 C58.4372442,25.0217742 52.1246735,14.1274194 43.5138368,10.9403226 C49.9183381,6.46612903 57.4872942,6.29758065 63.8764737,10.1741935 C80.1022319,25.2975806 80.0409448,50.8862903 63.6926125,65.9483871 Z" id="opera" fill="#000000" fill-rule="nonzero"></path>
    </g>
</svg>