<?xml version="1.0" encoding="UTF-8"?>
<svg width="76px" height="64px" viewBox="0 0 76 64" version="1.1" xmlns="http://www.w3.org/2000/svg" xmlns:xlink="http://www.w3.org/1999/xlink">
    <!-- Generator: Sketch 48.1 (47250) - http://www.bohemiancoding.com/sketch -->
    <title>optin-monster</title>
    <desc>Created with Sketch.</desc>
    <defs></defs>
    <g id="optin-monster---f23c" stroke="none" stroke-width="1" fill="none" fill-rule="evenodd" transform="translate(0.000000, -6.000000)">
        <path d="M72.6580172,63.7598692 C72.6580172,65.3003969 70.590047,66.3393914 68.4149377,65.7303394 C66.8104894,65.3003969 64.2789973,63.4016502 63.6370861,62.1118228 C62.8884315,60.5712951 64.1719901,57.7768681 66.1329531,58.027701 C68.2010552,58.2426059 72.6580172,61.3952521 72.6580172,63.7598692 Z M49.196788,14.0334388 C48.6976409,4.46798161 35.8972842,3.46478256 32.5812486,10.9165881 C38.4644014,7.69221854 44.4901865,8.83873174 49.196788,14.0334388 Z M9.86867391,58.027701 C7.80070373,58.2426059 3.34374178,61.3952521 3.34374178,63.7598692 C3.34374178,65.3003969 5.41171196,66.3393914 7.58668934,65.7303394 C9.19113758,65.3003969 11.6870046,63.4016502 12.3287839,62.1118228 C13.1133274,60.5712951 11.8297688,57.7768681 9.86867391,58.027701 Z M75.546156,59.9264477 C75.6887882,60.3921856 75.7957954,60.8579234 75.7957954,61.3594567 C75.9026707,65.5509647 69.9483996,69.8502566 66.09746,69.9934382 C63.8154754,70.1008244 61.5334908,68.8828529 60.4639466,66.8765874 C45.4886125,67.4139161 30.5132784,67.5214348 15.5737013,66.8765874 C14.4684001,68.8828529 12.1864155,70.065029 9.90443094,69.9934382 C6.08924829,69.850124 0.134845287,65.5509647 0.206095455,61.3594567 C0.24172054,60.8579234 0.313102653,60.3921856 0.455734936,59.9264477 C-0.278669582,58.6718855 -0.183537412,57.9004285 1.16889635,58.3859201 C1.5967932,57.7052773 2.09594021,57.1320207 2.63084426,56.5587641 C2.29174623,55.111437 2.7984141,54.6902445 4.09266022,55.3406601 C4.69881444,54.9107177 5.4118439,54.4809078 6.19638743,54.1225561 C6.19638743,52.0335635 7.75848141,52.6468579 8.47837201,53.37019 C10.1233273,53.1342055 11.134288,53.464186 12.0082901,54.1225561 L12.0082901,51.5073712 C10.2947235,51.5073712 6.64592322,49.9993245 5.94674795,46.706546 C5.29045473,43.9589181 6.29072793,41.6587327 9.26278359,40.4012537 C9.36965884,39.6130922 10.3324597,38.5383024 11.2237466,38.2874695 C12.2221725,38.0366366 12.8639518,38.8965214 13.0778343,39.6488876 C14.0575241,39.6488876 15.4207773,39.8431107 15.8589659,40.7236774 C16.5721273,40.6519541 17.3207819,40.5444353 18.0339433,40.4728445 C17.7130536,40.2220116 17.3565389,40.0071067 16.9642671,39.8637925 C16.2868627,38.6816165 15.1458045,38.3949882 13.7196136,38.3232649 C13.7196136,38.2158787 13.7196136,38.1083599 13.7552387,37.9650458 C11.1523645,37.8933224 7.94333601,37.2126796 6.51714513,35.6005612 C3.70395097,32.4667407 4.41460543,24.5202959 8.12159338,21.8792588 C9.22689461,21.1268926 10.9739751,21.77174 11.1166074,23.1689535 C11.4365735,25.8997443 11.1692534,26.7263528 14.5751434,26.608228 C15.6448195,25.5693661 16.7858778,24.6736858 18.0694364,23.9571151 C16.1084734,23.777873 14.2543857,24.17202 12.2931588,24.4586483 C13.9757184,22.8041057 15.4536316,21.0856616 19.7807599,18.8338662 C22.8829131,17.2575432 26.3770741,16.0752346 29.8356101,15.7529434 C27.3753682,14.713949 24.5587434,14.1764878 21.9557373,13.5675684 C32.0462126,11.4179887 44.9892016,10.6298272 54.1883901,18.5473705 C56.5772499,20.5894314 58.4669627,23.3480631 59.8219034,26.5008418 C65.0731728,27.1442309 64.6339287,25.7609378 64.9206447,23.1689535 C65.0632769,21.8075354 66.8103575,21.1268926 67.9156587,21.9150542 C69.8766217,23.3122677 70.8394226,25.999176 71.1601803,28.2920698 C71.4454448,30.6565544 71.1958054,33.7734052 69.520107,35.6005612 C68.0939161,37.2126796 64.9917629,37.9292504 62.4246457,38.0008412 L62.4246457,38.3591928 C60.9626978,38.3949882 59.7503894,38.6816165 59.0372279,39.8997205 C58.6450881,40.0430346 58.2885734,40.2580722 57.9319267,40.5087725 C58.6807132,40.5803633 59.4294997,40.687882 60.1426611,40.7594728 C60.3892659,40.0145309 61.7965886,39.6488876 62.9236608,39.6488876 C63.1375432,38.9323168 63.8150795,38.0725645 64.7777485,38.2874695 C65.7404174,38.5023744 66.6318362,39.6129596 66.7388434,40.4012537 C68.1650343,40.9745103 69.6626073,42.0133722 70.0547471,43.8047328 C70.3043866,44.8795226 70.2686296,45.8109983 70.0903722,46.706546 C69.3348565,50.0556691 65.6885631,51.5073712 64.028962,51.5073712 C64.028962,52.4030515 64.028962,53.2628038 63.9933369,54.1225561 C65.0502144,53.3263075 66.1528767,53.1735805 67.5231231,53.37019 C68.3041041,52.5854754 69.8407327,52.1226542 69.8407327,54.1225561 C70.5895192,54.4809078 71.3381738,54.9107177 71.9444599,55.3406601 C73.277102,54.6710211 73.7480128,55.2692019 73.3706508,56.5587641 C73.9054229,57.1318881 74.4403269,57.7409401 74.8324668,58.3859201 C76.1698588,57.9059966 76.2866299,58.661412 75.546156,59.9264477 Z M65.8121954,26.2501415 C68.09418,27.1458218 69.2707314,29.1878827 69.8055035,30.9791107 C69.9481357,29.5818972 69.4489887,25.7486082 67.9870408,24.2080806 C67.0243719,23.2408095 66.1329531,23.5274378 66.1329531,24.3154667 C66.133085,25.1395562 65.9548277,25.8559944 65.8121954,26.2501415 Z M63.3519534,27.8980553 C65.0634089,29.9759116 65.598181,33.4151861 65.0276519,36.2454085 C66.4538427,35.9587802 67.7374013,35.4214516 68.4861878,34.6332901 C68.7358273,34.3466618 68.9853349,33.9884427 69.1279671,33.6302236 C68.9853349,30.8000012 67.7730264,27.9696461 65.2059092,27.1456892 C64.7781443,27.5756316 63.9937327,27.7905366 63.3519534,27.8980553 Z M60.4638147,28.0055741 C61.4622406,30.7282778 62.1040199,33.666019 62.3535275,36.5679648 C62.8170494,36.5679648 63.3519534,36.5321694 63.8867255,36.4604461 C64.6711371,33.2360765 63.8511005,29.6176926 62.0326378,28.0413695 C61.5334908,28.0413695 60.9629617,28.0413695 60.4638147,28.0055741 Z M10.2609457,26.2501415 C10.1183134,25.8559944 9.94005602,25.1395562 9.94005602,24.3154667 C9.94005602,23.5273052 9.01301216,23.2406769 8.0859683,24.2080806 C6.5883953,25.7486082 6.12487337,29.5818972 6.26750565,30.9791107 C6.80227776,29.1877501 7.9789611,27.1456892 10.2609457,26.2501415 Z M11.0097322,36.2455411 C10.439203,33.4153187 10.9741071,29.9759116 12.6855625,27.8981879 C12.0436513,27.7906692 11.2593717,27.5757642 10.8314748,27.1458218 C8.26422566,27.9697787 7.08754232,30.8000012 6.90928495,33.6303562 C7.08754232,33.9885753 7.30142477,34.3467944 7.55106425,34.6334227 C8.29985075,35.4573796 9.58340935,35.9589128 11.0097322,36.2455411 Z M16.4649882,28.1487557 C15.7875838,28.2920698 15.1458045,28.5429027 14.5040252,28.7937356 L12.8995769,29.4743784 L12.8995769,29.438583 C11.936908,31.3015344 11.5802613,33.9884427 12.1864155,36.4604461 C12.7925697,36.5321694 13.3273418,36.5679648 13.8621139,36.5679648 C14.1830036,33.6302236 15.0744224,30.7640732 16.4649882,28.1487557 Z M28.0886615,25.0678329 C28.0886615,30.6565544 32.6168737,35.1707513 38.1435118,35.1707513 C43.6701499,35.1707513 48.198362,30.6565544 48.198362,25.0678329 C48.198362,19.5147742 43.6701499,15.0007099 38.1435118,15.0007099 C32.6168737,15.0007099 28.0886615,19.5147742 28.0886615,25.0678329 Z M48.198362,37.9651783 C49.5137193,44.6745608 48.6336477,46.5417546 50.3733394,45.6676842 C52.4770666,44.5928943 53.3683534,40.4729771 53.4041104,38.1083599 C51.692655,38.0009737 49.9454425,38.0009737 48.198362,37.9651783 Z M38.749666,37.893455 L38.749666,37.8576596 C38.7140409,38.5383024 38.7852911,42.9091851 39.3201951,43.3031995 C40.7820111,44.0197703 44.5258116,43.9122515 46.0590097,43.4465137 C46.7721711,43.2316088 46.3798993,38.5383024 46.2728921,37.893455 C43.7770251,37.8576596 41.245533,37.8576596 38.749666,37.893455 Z M36.8954463,37.893455 L36.8954463,37.8576596 C34.3283291,37.893455 31.796837,37.893455 29.2652129,37.9651783 C29.0155735,39.1831497 28.6590587,44.4495802 29.5148524,44.8079318 C31.2263079,45.560298 35.0058654,45.4885746 36.7171889,45.0228368 C37.3234751,44.7004131 37.0382105,39.0040402 36.8954463,37.893455 Z M25.5927945,45.5245026 C26.3059559,45.8469263 26.7337208,45.8469263 26.8763531,44.951246 C27.1259926,43.8048654 27.1972428,40.07883 27.5182644,38.0367691 C25.9138161,38.0725645 24.2736108,38.1442879 22.6690306,38.2516741 C21.9558692,40.8669916 22.7046557,44.2346752 25.5927945,45.5245026 Z M16.9285101,44.0555657 C22.7047877,50.2892672 29.1583377,55.4123835 37.5017325,58.1708826 C46.4156564,55.6272884 52.7623311,50.2175438 59.0376238,43.9838423 C57.5736967,43.4117789 58.01967,42.6099621 58.0749548,42.4433147 C56.8982715,42.3359285 55.7217201,42.1924817 54.5806618,42.0850956 C53.3327283,46.4558457 49.8385673,49.1069586 48.4122444,46.2766036 C48.0557297,45.5959608 47.9487225,44.7360759 47.8060902,44.0554331 C47.3069432,45.1660183 46.0588777,45.130223 44.5614367,45.2377417 C42.8143562,45.3810559 40.3897393,45.4168513 38.749534,44.8437272 C38.3573942,46.5633645 37.2877181,46.5633645 35.2197479,46.742474 C33.3656602,46.9217161 28.801691,47.2799352 27.9816543,45.3094651 C27.8390221,49.1069586 23.346435,46.6349552 22.0271194,44.3779894 C21.5992225,43.6256232 21.313958,42.8732571 21.1000755,42.0493002 C20.0660245,42.1566864 19.0321054,42.2642051 17.9979223,42.4075193 C18.3202634,42.8931434 18.2023048,43.607593 16.9285101,44.0555657 Z M15.2526797,64.1896791 C14.5040252,61.1087563 12.7924378,57.5977585 10.8314748,57.0245019 C7.87208585,56.1288216 1.73929353,60.1413527 2.09580827,64.2612699 C3.77163863,66.840792 7.37280688,68.9902391 9.90443094,69.0977579 C12.2576657,69.2051441 14.6465255,67.628821 15.1458045,65.264469 C15.2169227,64.9420453 15.2526797,64.5838262 15.2526797,64.1896791 Z M16.2153487,63.4016502 C20.6366855,60.822128 25.343155,58.6725484 30.1923887,57.1679487 C25.0936475,54.445245 21.2072147,50.8267284 17.3564069,46.9575115 C17.0711424,47.1367536 16.6790026,47.2799352 16.3224878,47.4232493 C16.1064943,48.0741952 17.4727822,48.1298769 17.0356492,49.0712958 C16.7503847,49.608757 15.894591,50.0744948 15.0389292,50.2893998 C14.7537966,50.6476189 14.3615248,50.9342472 14.0050101,51.1491521 L13.969385,51.1491521 C13.9337599,52.9403801 13.9337599,54.7318733 14.0050101,56.5231013 C15.1844643,58.6395371 16.0403899,60.9397225 16.2153487,63.4016502 Z M58.5384768,65.0853594 C53.689243,62.255137 48.7687592,59.6040241 43.2778781,58.0634964 C41.4594154,58.8874533 39.6054597,59.5680961 37.7157469,60.1055573 C37.4304823,60.213076 37.4304823,60.213076 37.1452177,60.1055573 C35.5763946,59.6040241 34.0789535,59.0307675 32.5457554,58.3501247 C27.2329998,59.8906524 22.3482729,62.2193416 17.7130536,65.0853594 L17.6774285,65.0853594 L17.6774285,65.1211548 C17.7130536,65.1211548 17.7130536,65.1211548 17.7130536,65.0853594 C31.3333151,65.6228206 44.9537085,65.5510973 58.5384768,65.0853594 Z M62.1040199,56.5945595 L62.0683948,56.6303549 C62.139777,54.8031989 62.175402,52.9761755 62.175402,51.1490195 C61.7831303,50.9341146 61.4266155,50.6115583 61.1057259,50.2533392 C60.2500641,50.0742297 59.3942705,49.5726964 59.1090059,49.0710306 C58.8593664,48.533702 59.2872633,48.0679642 59.8934175,47.7096125 C59.8577924,47.6378891 59.8220354,47.4947076 59.8220354,47.3871888 C59.4298955,47.27967 59.1088739,47.1363559 58.8236094,46.9572464 C54.6520439,50.8622586 50.19495,54.4807752 45.1675909,57.1318881 C50.3020892,58.6724158 55.186816,60.8577909 59.9289106,63.437313 C60.0674526,61.4895133 60.8830031,58.6978703 62.1040199,56.5945595 Z M65.1704161,57.0246345 C63.2449462,57.5977585 61.4978657,61.1087563 60.7490792,64.1898117 C60.7490792,67.3485563 63.5565998,69.2140266 66.097328,69.098023 C68.6288201,68.9905043 72.2301203,66.8410572 73.9059507,64.2615351 C74.2982224,60.1414853 68.1654301,56.1288216 65.1704161,57.0246345 Z M38.3573942,21.8434634 C38.3633317,21.8434634 38.3691373,21.8438611 38.3750748,21.8438611 C38.3811443,21.8438611 38.3869498,21.8434634 38.3930193,21.8434634 L38.3573942,21.8434634 Z M38.3573942,34.669218 C42.1369518,34.669218 45.203216,31.8032002 45.203216,28.256407 C45.203216,23.4714909 39.8585297,20.5565527 35.6832698,22.3809246 C36.9312033,22.7749391 37.8582472,23.9214523 37.8582472,25.2469424 C37.8582472,28.3302516 33.4656743,29.4833935 31.7254549,26.7516747 C30.762654,31.2681254 34.2809609,34.669218 38.3573942,34.669218 Z M8.97725513,66.9125154 C9.0485053,67.7724003 10.5817034,68.5963572 11.8296369,68.1664148 C12.7210557,67.8080631 13.7551067,66.7692012 14.1116215,66.0168351 C14.5038932,65.0853594 13.9689892,63.3657222 12.8280629,63.5807597 C11.6515115,63.7956646 8.90600496,65.8019302 8.97725513,66.9125154 Z M63.1735641,63.5807597 C62.0682629,63.3658548 61.5333589,65.0853594 61.9256306,66.0168351 C62.2465203,66.7692012 63.2805713,67.8080631 64.2076152,68.1664148 C65.4197917,68.5963572 66.9887468,67.7724003 67.0243719,66.9125154 C67.1313791,65.8019302 64.3502475,63.7956646 63.1735641,63.5807597 Z" id="optin-monster" fill="#000000" fill-rule="nonzero"></path>
    </g>
</svg>