<?xml version="1.0" encoding="UTF-8"?>
<svg width="59px" height="76px" viewBox="0 0 59 76" version="1.1" xmlns="http://www.w3.org/2000/svg" xmlns:xlink="http://www.w3.org/1999/xlink">
    <!-- Generator: Sketch 48.1 (47250) - http://www.bohemiancoding.com/sketch -->
    <title>pagelines</title>
    <desc>Created with Sketch.</desc>
    <defs></defs>
    <g id="pagelines---f18c" stroke="none" stroke-width="1" fill="none" fill-rule="evenodd" transform="translate(-9.000000, 0.000000)">
        <path d="M68,46.7859034 C59.5333036,67.9494805 39.2501106,55.1460583 39.2501106,55.1460583 C33.0268583,67.8101446 22.7469673,75.9535547 10.8843726,76 C8.41043775,76 8.33360748,72.2224486 10.8843726,72.2224486 C20.7801122,72.1760033 29.4004692,65.6117336 35.0398115,55.1770218 C28.7243628,57.6386229 16.81567,59.4964351 10.2082662,42.4510084 C26.9572664,35.4996944 34.6556601,44.1849664 37.6059427,49.4952129 C39.1271822,45.7176614 40.2181721,41.6149929 40.9250107,37.1562436 C40.9250107,37.1562436 19.4586315,40.5467509 17.9527581,21.968629 C36.2537299,14.5528621 41.4013584,33.8431452 41.4013584,33.8431452 C41.6472153,31.25769 41.9084382,25.6997352 41.9084382,25.575881 C41.9084382,25.575881 25.5743215,14.1658179 36.0539711,0 C55.200076,6.65716032 45.4887291,25.1423915 45.4887291,25.1423915 C45.5655593,25.3900998 45.5655593,28.8270524 45.4887291,30.3133021 C45.4887291,30.3133021 52.434186,16.5345284 66.4480284,21.4112854 C65.8026541,42.1568548 44.643596,37.8838867 44.643596,37.8838867 C43.9674896,42.1258912 42.9225978,46.1511509 41.570385,49.8822571 C41.570385,49.8822571 54.3242108,35.6699939 68,46.7859034 Z" id="pagelines" fill="#000000" fill-rule="nonzero"></path>
    </g>
</svg>