<?xml version="1.0" encoding="UTF-8"?>
<svg width="76px" height="76px" viewBox="0 0 76 76" version="1.1" xmlns="http://www.w3.org/2000/svg" xmlns:xlink="http://www.w3.org/1999/xlink">
    <!-- Generator: Sketch 48.1 (47250) - http://www.bohemiancoding.com/sketch -->
    <title>pied-piper-pp</title>
    <desc>Created with Sketch.</desc>
    <defs></defs>
    <g id="pied-piper-pp---f1a7" stroke="none" stroke-width="1" fill="none" fill-rule="evenodd">
        <path d="M34.8276786,24.1910714 C34.8276786,27.7705357 32.41875,30.6544643 29.45,30.6544643 C28.2455357,30.6544643 27.2785714,30.4508929 26.5321429,30.0267857 L26.5321429,18.4910714 C27.2785714,18.0330357 28.2455357,17.7785714 29.45,17.7785714 C32.41875,17.7785714 34.8276786,20.6455357 34.8276786,24.1910714 Z M43.7508929,35.5571429 C42.5464286,35.5571429 41.5794643,35.8116071 40.8330357,36.2696429 L40.8330357,47.8053571 C41.5794643,48.2294643 42.5464286,48.4330357 43.7508929,48.4330357 C46.7026786,48.4330357 49.1285714,45.5660714 49.1285714,42.0205357 C49.1285714,38.4410714 46.7026786,35.5571429 43.7508929,35.5571429 Z M0,0 L76,0 L76,76 L0,76 L0,0 Z M31.3839286,37.8473214 C38.3392857,37.8473214 43.9714286,31.8080357 43.9714286,24.34375 C43.9714286,16.8794643 38.3392857,10.8401786 31.3839286,10.8401786 C29.3482143,10.8401786 27.2955357,11.3830357 25.5142857,12.3330357 L17.7616071,12.3330357 L17.7616071,47.3303571 L26.5491071,45.6169643 L26.5491071,37.0330357 C28.0080357,37.5589286 29.6196429,37.8473214 31.3839286,37.8473214 Z M58.2553571,42.1392857 C58.2553571,34.675 52.6232143,28.6357143 45.71875,28.6357143 C45.1758929,28.6357143 44.6330357,28.6696429 44.0901786,28.7544643 C43.4625,30.875 42.3767857,32.7919643 40.8330357,34.4205357 C38.4919643,36.9651786 35.3705357,38.4580357 32.0455357,38.6276786 L32.0455357,65.1428571 L40.8330357,63.4294643 L40.8330357,54.8455357 C42.2919643,55.3883929 43.9205357,55.6428571 45.7017857,55.6428571 C52.6232143,55.6428571 58.2553571,49.6035714 58.2553571,42.1392857 Z" id="pied-piper-pp" fill="#000000" fill-rule="nonzero"></path>
    </g>
</svg>