<?xml version="1.0" encoding="UTF-8"?>
<svg width="76px" height="70px" viewBox="0 0 76 70" version="1.1" xmlns="http://www.w3.org/2000/svg" xmlns:xlink="http://www.w3.org/1999/xlink">
    <!-- Generator: Sketch 48.1 (47250) - http://www.bohemiancoding.com/sketch -->
    <title>pied-piper-alt</title>
    <desc>Created with Sketch.</desc>
    <defs></defs>
    <g id="pied-piper-alt---f1a8" stroke="none" stroke-width="1" fill="none" fill-rule="evenodd" transform="translate(0.000000, -3.000000)">
        <path d="M31.7793594,28.5689464 C32.6313167,26.9555048 33.5644128,26.2444967 35.2818505,25.5881815 C38.9736655,24.1798385 40.7181495,21.4178453 43.2469751,18.6011592 C44.8562278,19.7497108 44.8697509,21.9647746 47.5202847,21.7460029 L47.5202847,24.7267678 L48.372242,24.7677875 C53.4298932,22.7988419 58.4740214,20.638471 62.7879004,17.3022021 C69.319573,12.2704522 69.941637,10.4655854 73.7822064,3.62896873 L74.052669,3.27346467 C73.9715302,5.20139057 73.2007117,7.00625737 72.3758007,8.72908477 C68.2512456,17.4526076 61.7330961,22.4433378 52.5238434,24.6857481 C50.8469751,25.0822719 48.9537367,25.1232916 47.4391459,25.9026659 C47.6284698,27.2426427 49.2241993,28.3775211 49.2241993,29.0475095 C49.2241993,29.5123995 48.480427,30.0319823 48.2099644,30.2234076 C46.6953737,28.4595605 46.0327402,27.5844736 45.1402135,27.201623 C44.1124555,26.7230599 36.4989324,26.3265361 31.7793594,28.5689464 Z M50.427758,63.6954828 C47.858363,63.6954828 41.7594306,64.99444 39.6227758,66.402783 L40.5558719,72.5694113 C45.3836299,73.4034785 50.0355872,73.0616477 54.8903915,71.2294344 C54.2412811,69.8621111 51.7124555,63.6954828 50.427758,63.6954828 Z M32.0498221,36.636154 C31.6170819,36.3626894 31.1978648,36.2396303 30.6839858,36.2396303 C29.7914591,36.2396303 28.9800712,36.6771737 28.0740214,36.7455399 L28.3039146,37.4155283 L32.0498221,36.636154 Z M30.3459075,40.9842422 L33.6049822,49.352261 L36.4448399,47.4653548 L32.2120996,40.5056791 L30.3459075,40.9842422 Z M74.1743772,3 L74.0932384,3.15040557 L74.052669,3.27346467 L74.1338078,3.19142527 L74.1743772,3 Z M66.1686833,55.2454246 C61.5843416,47.4653548 55.9857651,39.0563163 45.8839858,39.4528401 L45.8434164,38.6324461 C45.6946619,36.7865596 50.2790036,39.0699896 50.5900356,34.3937438 L48.6427046,35.3782166 C45.9651246,29.1295489 47.4797153,27.9536509 39.7850534,27.9536509 C37.797153,27.9536509 36.1743772,28.1860958 34.1864769,28.5826196 C34.5786477,31.125841 34.4839858,33.6006962 32.7124555,35.460256 L35.3494662,36.2122838 C35.119573,36.6498273 34.9572954,37.0736975 34.9572954,37.5522607 C34.9572954,40.4236397 40.7451957,37.9487844 40.7451957,42.1464671 C40.7451957,44.662342 35.7686833,50.3640803 33.3209964,50.3640803 C32.2391459,50.3640803 26.0590747,43.5274636 26.0996441,42.1464671 L26.1402135,41.5174983 L33.2128114,39.9450765 C34.9708185,39.5895724 34.8761566,36.8412525 32.8206406,36.8412525 C32.3202847,36.8412525 26.9921708,38.09919 26.1402135,38.2906153 C25.8697509,37.5796071 25.1259786,36.3626894 24.2740214,36.3626894 C23.8412811,36.3626894 23.4220641,36.8002328 22.9893238,36.9096187 C21.7451957,37.2651228 18.797153,37.3061425 20.0818505,39.6579386 L1.20355872,43.8146015 C0.459786477,43.9650071 0,44.6760152 0,45.4280431 C0,46.2484371 0.743772242,46.9184255 1.55516014,46.9184255 C2.63701068,46.9184255 19.311032,43.0352272 21.4882562,42.5156444 C21.8398577,42.9531878 22.1103203,43.3770581 22.5430605,43.6915424 C25.26121,45.660488 30.6298932,55.4368499 32.8747331,55.4368499 C36.1338078,55.4368499 40.7181495,52.3740456 42.516726,49.7077651 C42.9494662,49.1198161 43.4498221,48.6822726 44.1935943,48.764312 C44.2747331,50.6512182 39.9202847,53.4405578 39.7309609,54.739515 C39.541637,56.1341848 39.5957295,59.5524931 39.6903915,60.3592139 C43.3010676,61.4667458 46.7224199,59.8669775 50.224911,59.9626901 C50.8064057,57.0913111 51.658363,54.2336053 51.5501779,51.2801869 L51.5096085,49.9812298 C51.3202847,45.304984 50.0355872,44.7170349 46.8035587,41.968715 C46.6548043,41.8183095 46.4519573,41.613211 46.3032028,41.4217857 C46.6007117,41.2303604 46.4519573,41.2850534 46.9252669,41.1893407 C58.8932384,41.1893407 54.53879,66.2933972 62.0035587,72.6241042 C66.4797153,70.5731192 71.8078292,68.8092721 76,66.1703381 C72.0782918,62.6699903 68.8868327,59.9216704 66.1686833,55.2454246 Z M39.6362989,61.5351119 L39.6362989,65.2679047 L41.2320285,64.8030147 L40.8398577,61.5487852 L39.6362989,61.5487852 L39.6362989,61.5351119 Z M49.9274021,61.9316357 C49.9274021,61.7402104 49.8462633,61.4940922 49.805694,61.302667 C46.1814947,61.302667 44.8156584,61.8222498 41.7594306,62.1640807 L42.0298932,63.8595616 C43.2469751,63.6544631 49.9274021,62.9571282 49.9274021,61.9316357 Z" id="pied-piper-alt" fill="#000000" fill-rule="nonzero"></path>
    </g>
</svg>