<?xml version="1.0" encoding="UTF-8"?>
<svg width="76px" height="76px" viewBox="0 0 76 76" version="1.1" xmlns="http://www.w3.org/2000/svg" xmlns:xlink="http://www.w3.org/1999/xlink">
    <!-- Generator: Sketch 48.1 (47250) - http://www.bohemiancoding.com/sketch -->
    <title>pied-piper</title>
    <desc>Created with Sketch.</desc>
    <defs></defs>
    <g id="pied-piper---f2ae" stroke="none" stroke-width="1" fill="none" fill-rule="evenodd">
        <path d="M5.42735996,65.6517857 L0,75.8642857 L0.135683999,20.2214286 C0.135683999,9.04196429 9.15866994,0 20.3525999,0 L75.8473555,0 C60.0740906,4.90267857 43.6393662,15.9803571 32.7846463,28.6017857 C20.8105334,42.4107143 14.0093729,51.9107143 5.42735996,65.6517857 Z M75.9830395,0 C75.9830395,0 51.7634457,11.3321429 44.3686677,28.3473214 C40.4338317,37.4401786 39.4670832,48.3821429 32.3267128,55.2526786 C27.4251283,59.96875 20.4882839,61.7330357 14.4673064,64.8035714 C10.5324704,66.8392857 3.20553448,71.6741071 0.0678419996,76 L55.7661236,76 C66.9600536,76 76,66.9580357 76,55.7785714 C75.9830395,55.7785714 75.9830395,0 75.9830395,0 Z" id="pied-piper" fill="#000000" fill-rule="nonzero"></path>
    </g>
</svg>