<?xml version="1.0" encoding="UTF-8"?>
<svg width="76px" height="76px" viewBox="0 0 76 76" version="1.1" xmlns="http://www.w3.org/2000/svg" xmlns:xlink="http://www.w3.org/1999/xlink">
    <!-- Generator: Sketch 48.1 (47250) - http://www.bohemiancoding.com/sketch -->
    <title>pinterest-square</title>
    <desc>Created with Sketch.</desc>
    <defs></defs>
    <g id="pinterest-square---f0d3" stroke="none" stroke-width="1" fill="none" fill-rule="evenodd">
        <path d="M26.1928571,76 C27.8553571,73.2178571 29.9928571,69.2142857 30.8410714,65.9401786 C31.35,63.9892857 33.4366071,56.0330357 33.4366071,56.0330357 C34.79375,58.6285714 38.7633929,60.8169643 42.9875,60.8169643 C55.5580357,60.8169643 64.6,49.2642857 64.6,34.9125 C64.6,21.1544643 53.3696429,10.8571429 38.9160714,10.8571429 C20.9339286,10.8571429 11.4,22.91875 11.4,36.0660714 C11.4,42.1732143 14.6571429,49.7732143 19.8482143,52.1991071 C20.6455357,52.5723214 21.0526786,52.4026786 21.2392857,51.6392857 C21.375,51.0625 22.0875,48.2294643 22.3928571,46.9232143 C22.4946429,46.4991071 22.44375,46.1428571 22.1044643,45.7357143 C20.3910714,43.6491071 19,39.8151786 19,36.2357143 C19,27.0410714 25.9553571,18.1517857 37.8133929,18.1517857 C48.0428571,18.1517857 55.21875,25.1241071 55.21875,35.0991071 C55.21875,46.3633929 49.5357143,54.1669643 42.1223214,54.1669643 C38.0339286,54.1669643 34.9803571,50.7910714 35.9473214,46.6348214 C37.1178571,41.68125 39.3910714,36.3375 39.3910714,32.7580357 C39.3910714,23.7669643 26.5830357,25.0053571 26.5830357,36.9991071 C26.5830357,40.6803571 27.8214286,43.1910714 27.8214286,43.1910714 C22.4946429,65.7196429 21.6973214,66.0080357 22.8,75.8642857 L23.1732143,76 L0,76 L0,0 L76,0 L76,76 L26.1928571,76 Z" id="pinterest-square" fill="#000000"></path>
    </g>
</svg>