<?xml version="1.0" encoding="UTF-8"?>
<svg width="76px" height="76px" viewBox="0 0 76 76" version="1.1" xmlns="http://www.w3.org/2000/svg" xmlns:xlink="http://www.w3.org/1999/xlink">
    <!-- Generator: Sketch 48.1 (47250) - http://www.bohemiancoding.com/sketch -->
    <title>pinterest</title>
    <desc>Created with Sketch.</desc>
    <defs></defs>
    <g id="pinterest---f0d2" stroke="none" stroke-width="1" fill="none" fill-rule="evenodd">
        <path d="M76,38 C76,58.9919355 58.9919355,76 38,76 C34.0774194,76 30.3080645,75.4024194 26.7532258,74.2991935 C28.3008065,71.7709677 30.6145161,67.633871 31.4725806,64.3395161 C31.9322581,62.5620968 33.8322581,55.2991935 33.8322581,55.2991935 C35.0733871,57.658871 38.6895161,59.666129 42.5354839,59.666129 C53.9967742,59.666129 62.2556452,49.1241935 62.2556452,36.0233871 C62.2556452,23.4741935 52.0048387,14.0814516 38.8274194,14.0814516 C22.4322581,14.0814516 13.7137097,25.0830645 13.7137097,37.0806452 C13.7137097,42.6580645 16.6862903,49.5991935 21.4209677,51.8056452 C22.141129,52.1427419 22.5241935,51.9895161 22.6927419,51.3 C22.8153226,50.7790323 23.458871,48.1895161 23.75,46.9943548 C23.8419355,46.6112903 23.7959677,46.2741935 23.4895161,45.9064516 C21.9419355,43.991129 20.6854839,40.4975806 20.6854839,37.233871 C20.6854839,28.8524194 27.0290323,20.7467742 37.8467742,20.7467742 C47.1782258,20.7467742 53.7209677,27.1056452 53.7209677,36.2072581 C53.7209677,46.4887097 48.5266129,53.6137097 41.7693548,53.6137097 C38.0459677,53.6137097 35.2419355,50.533871 36.1459677,46.7491935 C37.2185484,42.2290323 39.2870968,37.3564516 39.2870968,34.0927419 C39.2870968,31.1814516 37.7241935,28.7451613 34.4758065,28.7451613 C30.6604839,28.7451613 27.5959677,32.6830645 27.5959677,37.9693548 C27.5959677,41.3403226 28.7298387,43.6080645 28.7298387,43.6080645 C28.7298387,43.6080645 24.9758065,59.5129032 24.2862903,62.4854839 C23.5201613,65.7645161 23.8266129,70.3919355 24.1483871,73.3951613 C10.0209677,67.8637097 0,54.1040323 0,38 C0,17.0080645 17.0080645,0 38,0 C58.9919355,0 76,17.0080645 76,38 Z" id="pinterest" fill="#000000" fill-rule="nonzero"></path>
    </g>
</svg>