<?xml version="1.0" encoding="UTF-8"?>
<svg width="59px" height="76px" viewBox="0 0 59 76" version="1.1" xmlns="http://www.w3.org/2000/svg" xmlns:xlink="http://www.w3.org/1999/xlink">
    <!-- Generator: Sketch 48.1 (47250) - http://www.bohemiancoding.com/sketch -->
    <title>pinterest-p</title>
    <desc>Created with Sketch.</desc>
    <defs></defs>
    <g id="pinterest-p---f231" stroke="none" stroke-width="1" fill="none" fill-rule="evenodd" transform="translate(-9.000000, 0.000000)">
        <path d="M40.34375,0 C24.5796875,0 9,10.415387 9,27.2718685 C9,37.991799 15.084375,44.0826686 18.771875,44.0826686 C20.2929688,44.0826686 21.16875,39.8799686 21.16875,38.692249 C21.16875,37.2761218 17.5273438,34.2611414 17.5273438,28.3682251 C17.5273438,16.1255772 26.9304687,7.44608806 39.0992187,7.44608806 C49.5625,7.44608806 57.30625,13.3390044 57.30625,24.1655251 C57.30625,32.2511544 54.0335937,47.4174197 43.4320312,47.4174197 C39.60625,47.4174197 36.3335937,44.6765284 36.3335937,40.7479175 C36.3335937,34.9920457 40.3898437,29.4189001 40.3898437,23.4803022 C40.3898437,13.3999131 25.9625,15.2271739 25.9625,27.4089131 C25.9625,29.9670783 26.2851562,32.7993327 27.4375,35.1290903 C25.3171875,44.1740316 20.984375,57.6500806 20.984375,66.969111 C20.984375,69.8470469 21.3992187,72.6793012 21.6757812,75.5572371 C22.1981771,76.1358697 21.9369792,76.074961 22.7359375,75.7856447 C30.4796875,65.2788947 30.203125,63.2232262 33.70625,49.4730881 C35.5960937,53.0362469 40.4820312,54.9548708 44.3539062,54.9548708 C60.6710937,54.9548708 68,39.1947457 68,24.9877924 C68,9.86720872 54.8171875,0 40.34375,0 Z" id="pinterest-p" fill="#000000" fill-rule="nonzero"></path>
    </g>
</svg>