<?xml version="1.0" encoding="UTF-8"?>
<svg width="76px" height="76px" viewBox="0 0 76 76" version="1.1" xmlns="http://www.w3.org/2000/svg" xmlns:xlink="http://www.w3.org/1999/xlink">
    <!-- Generator: Sketch 48.1 (47250) - http://www.bohemiancoding.com/sketch -->
    <title>product-hunt</title>
    <desc>Created with Sketch.</desc>
    <defs></defs>
    <g id="product-hunt---f288" stroke="none" stroke-width="1" fill="none" fill-rule="evenodd">
        <path d="M48.7717742,32.3 C48.7717742,35.441129 46.2129032,38 43.0717742,38 L32.3,38 L32.3,26.6 L43.0717742,26.6 C46.2129032,26.6 48.7717742,29.158871 48.7717742,32.3 Z M76,38 C76,58.9919355 58.9919355,76 38,76 C17.0080645,76 0,58.9919355 0,38 C0,17.0080645 17.0080645,0 38,0 C58.9919355,0 76,17.0080645 76,38 Z M56.3717742,32.3 C56.3717742,24.9604839 50.4112903,19 43.0717742,19 L24.7,19 L24.7,57 L32.3,57 L32.3,45.6 L43.0717742,45.6 C50.4112903,45.6 56.3717742,39.6395161 56.3717742,32.3 Z" id="product-hunt" fill="#000000" fill-rule="nonzero"></path>
    </g>
</svg>