<?xml version="1.0" encoding="UTF-8"?>
<svg width="64px" height="76px" viewBox="0 0 64 76" version="1.1" xmlns="http://www.w3.org/2000/svg" xmlns:xlink="http://www.w3.org/1999/xlink">
    <!-- Generator: Sketch 48.1 (47250) - http://www.bohemiancoding.com/sketch -->
    <title>qq</title>
    <desc>Created with Sketch.</desc>
    <defs></defs>
    <g id="qq---f1d6" stroke="none" stroke-width="1" fill="none" fill-rule="evenodd" transform="translate(-6.000000, 0.000000)">
        <path d="M69.1791409,62.4097235 C67.4658428,62.6164966 62.5108648,54.5809915 62.5108648,54.5809915 C62.5108648,59.2337589 60.1123071,65.3051416 54.9223191,69.6898312 C57.4258213,70.4605177 63.0745319,72.5349291 61.7307687,74.7991917 C60.6432719,76.6313534 43.0741632,75.9690261 38.0020518,75.3984331 C32.9299405,75.9690261 15.3608318,76.6313534 14.2733349,74.7991917 C12.9288286,72.5355228 18.5718906,70.4627442 21.0788116,69.6907218 C15.8880804,65.3060322 13.4890767,59.2340557 13.4890767,54.5809915 C13.4890767,54.5809915 8.53409871,62.6164966 6.82094933,62.4097235 C6.02271834,62.3132392 4.97416686,58.009448 8.21034692,47.6099302 C9.73560729,42.7079366 11.4798238,38.6327388 14.1776067,31.9083804 C13.723492,14.5562076 20.9029629,0.000890623841 37.9999708,0 C54.9065626,0.000890623841 62.2525174,14.2697236 61.8226322,31.9085288 C64.515807,38.6213091 66.2689423,42.7221866 67.7898919,47.6099302 C71.025626,58.009448 69.9773719,62.3130908 69.1791409,62.4097235 Z" id="qq" fill="#000000" fill-rule="nonzero"></path>
    </g>
</svg>