<?xml version="1.0" encoding="UTF-8"?>
<svg width="74px" height="76px" viewBox="0 0 74 76" version="1.1" xmlns="http://www.w3.org/2000/svg" xmlns:xlink="http://www.w3.org/1999/xlink">
    <!-- Generator: Sketch 48.1 (47250) - http://www.bohemiancoding.com/sketch -->
    <title>quora</title>
    <desc>Created with Sketch.</desc>
    <defs></defs>
    <g id="quora---f2c4" stroke="none" stroke-width="1" fill="none" fill-rule="evenodd" transform="translate(-1.000000, 0.000000)">
        <path d="M74.9661951,60.1723214 L69.963403,60.1723214 C69.7072874,62.4625 68.1705936,65.3973214 64.3288591,65.3973214 C60.8286121,65.3973214 58.3016045,62.9883929 55.8770432,59.3241071 C63.4239172,53.5223214 68.6316017,44.4803571 68.6316017,33.36875 C68.6486761,13.4357143 52.1377549,0 34.7560405,0 C17.7328881,0 1,13.5205357 1,33.36875 C1,56.1178571 23.4186552,70.9616071 43.5151952,65.43125 C46.8788472,71.13125 51.3181849,76 59.7700008,76 C73.73684,76 75.2735338,63.2258929 74.9661951,60.1723214 Z M50.4644661,50.4178571 C47.1349628,45.4642857 43.002964,41.5625 34.8414124,41.5625 C29.6337279,41.5625 25.5700265,43.2589286 23.0600933,45.4303571 L25.1431671,49.5526786 C26.2017784,49.04375 27.3628359,48.8741071 28.5238935,48.8741071 C34.5852968,48.8741071 37.6928331,54.0991071 40.3393614,59.2732143 C38.6319238,59.7821429 36.8049656,59.9857143 34.7560405,59.9857143 C21.9502589,59.9857143 16.4010868,50.9946429 16.4010868,33.4026786 C16.4010868,15.6919643 21.9502589,6.61607143 34.7560405,6.61607143 C47.7667147,6.61607143 53.3158868,15.6919643 53.3158868,33.36875 C53.3329612,40.4598214 52.3938705,46.19375 50.4644661,50.4178571 Z" id="quora" fill="#000000" fill-rule="nonzero"></path>
    </g>
</svg>