<?xml version="1.0" encoding="UTF-8"?>
<svg width="76px" height="65px" viewBox="0 0 76 65" version="1.1" xmlns="http://www.w3.org/2000/svg" xmlns:xlink="http://www.w3.org/1999/xlink">
    <!-- Generator: Sketch 48.1 (47250) - http://www.bohemiancoding.com/sketch -->
    <title>ravelry</title>
    <desc>Created with Sketch.</desc>
    <defs></defs>
    <g id="ravelry---f2d9" stroke="none" stroke-width="1" fill="none" fill-rule="evenodd" transform="translate(0.000000, -6.000000)">
        <path d="M60.4859891,9.81648729 C49.2320912,4.00493859 38.27513,5.31769959 27.1548537,10.4802428 C25.4771618,11.2472493 24.8535949,12.043756 24.2003344,13.2827663 C22.6711108,16.1147901 21.7951477,18.7993126 21.245815,21.0560815 C18.0982869,24.8321131 15.8415686,29.3309008 14.8171372,34.3164426 C13.2433732,36.9714648 11.7141496,40.4229938 11.3875193,44.8480308 C11.3875193,44.8480308 11.2835915,45.9690402 11.3132851,46.0132906 C6.07235383,45.3347849 0,42.0307572 0,42.0307572 C1.35106161,44.1695252 9.10110734,46.7950472 11.328132,47.6210541 C11.328132,47.6210541 11.5805281,62.0761752 20.9043379,66.9732163 C19.226646,64.436195 18.9297094,63.9936913 18.9297094,63.9936913 C18.9297094,63.9936913 14.0747957,55.1731174 14.9062182,48.6388126 C15.010146,48.6388126 15.1289207,48.6683129 15.2328485,48.6683129 C18.7812411,61.5599209 30.554778,71 44.4662585,71 C45.386762,71 46.2627251,70.9704998 47.1386881,70.8967491 C49.2172444,71.118001 51.2364134,70.9704998 53.0922673,70.3214943 C54.1166986,69.9969916 55.1411299,69.3774864 56.0913271,68.728481 C66.5138024,62.9611826 71.0717795,56.6333796 74.3677759,46.9425484 C75.1695048,44.5825286 75.5703692,41.7062545 75.8227654,39.2429839 C77.1144397,27.1036322 71.2796351,15.4067841 60.4859891,9.81648729 Z M20.6074013,24.817363 C20.6074013,24.817363 20.4292393,26.6316282 20.5034735,27.7231373 C19.9986812,28.0918904 19.0039435,28.9178974 17.8013502,30.186408 C18.5733854,28.2983922 19.4790421,26.484127 20.6074013,24.817363 Z M15.97519,42.7977637 C16.6284506,40.2607424 17.9498185,37.0304653 20.3995456,34.6704456 C20.3995456,34.6704456 20.6519418,41.7505049 22.7453449,47.9603069 L16.5987569,46.9425484 C16.2721267,45.585537 16.0791179,44.2137755 15.97519,42.7977637 Z M17.1480897,49.1108166 C19.3454207,49.5828205 22.1960122,50.231826 23.5470738,50.4530778 C27.6002586,61.7811727 39.6261917,68.7874815 39.6261917,68.7874815 C39.77466,68.8612321 39.8785878,68.8907323 40.0270561,68.9349827 C29.1740227,67.2239684 20.3253115,59.3916527 17.1480897,49.1108166 Z M57.3087672,66.2504602 C55.1559768,66.943716 51.9342145,67.4894706 47.7028677,66.7962148 C47.7028677,66.7962148 34.1774047,63.3889362 28.7731583,50.8955815 C34.4446477,50.9988324 36.5528977,50.8660813 40.3536864,50.3203267 C46.2033377,49.4795697 52.0826828,47.9308067 57.4275419,45.4527859 C59.1794679,44.6562792 59.0755401,42.5912619 58.8528377,41.0572491 C58.555901,39.1692333 57.2048394,39.2724841 55.6756158,40.3639933 C55.6756158,40.3639933 43.5012145,49.0075657 27.4963308,48.2848096 C24.7199734,43.5647701 23.5173801,31.9416727 23.5173801,31.9416727 C29.6639681,26.7496292 35.8699434,23.150599 48.5194434,24.2126079 C48.549137,23.2686 48.9648483,20.2153244 45.4906899,20.0678232 C45.4906899,20.0678232 31.608903,18.4305595 23.8143168,25.0091146 C24.1854875,22.5753442 24.6902798,20.6873284 25.462315,19.1975659 C30.5399311,14.6545278 37.1913114,11.8962547 44.510799,11.8962547 C60.3078271,11.8962547 73.1651826,24.7436124 73.1651826,40.5852451 C73.135489,51.7953391 66.6622707,61.5304206 57.3087672,66.2504602 Z" id="ravelry" fill="#000000" fill-rule="nonzero"></path>
    </g>
</svg>