<?xml version="1.0" encoding="UTF-8"?>
<svg width="74px" height="76px" viewBox="0 0 74 76" version="1.1" xmlns="http://www.w3.org/2000/svg" xmlns:xlink="http://www.w3.org/1999/xlink">
    <!-- Generator: Sketch 48.1 (47250) - http://www.bohemiancoding.com/sketch -->
    <title>rebel</title>
    <desc>Created with Sketch.</desc>
    <defs></defs>
    <g id="rebel---f1d0" stroke="none" stroke-width="1" fill="none" fill-rule="evenodd" transform="translate(-1.000000, 0.000000)">
        <path d="M38.0753415,76 C16.8583815,76 0.378301991,58.1951613 1.01800933,37.0653226 C1.44448089,24.9298387 7.59785623,13.7443548 18.7622724,6.35887097 C18.8079658,6.35887097 19.0516638,6.26693548 18.9298148,6.48145161 C18.0464094,7.32419355 1.97757033,26.3701613 16.7822259,41.1717742 C24.3673271,48.7564516 30.4902402,41.5548387 30.4902402,41.5548387 C36.3542241,33.8782258 30.3988535,22.2637097 30.3988535,22.2637097 C28.8757408,18.4483871 23.4382284,16.1193548 23.4382284,16.1193548 L27.824793,11.2467742 C31.541188,12.8556452 34.4046399,17.1766129 34.4046399,17.1766129 C34.5264889,12.641129 31.0690231,7.76854839 31.0690231,7.76854839 L37.8621057,0 L44.609495,7.6766129 C41.487114,12.0895161 41.2738782,17.2685484 41.2738782,17.2685484 C43.3757737,13.7443548 47.8994185,11.2467742 47.8994185,11.2467742 L52.2402897,16.1193548 C48.0669609,17.4830645 45.325358,22.2330645 45.325358,22.2330645 C42.9188399,26.6 41.1977226,35.9314516 45.4167448,41.7387097 C50.3516299,48.5725806 58.7744432,41.3096774 58.7744432,41.3096774 C74.4168107,27.2282258 57.1751749,6.83387097 57.1751749,6.83387097 C56.2460761,5.99112903 57.2970239,6.40483871 57.2970239,6.40483871 C64.9278185,11.9975806 74.7518955,19.3370968 74.9955935,37.7854839 C75.3002161,60.0951613 59.7796976,76 38.0753415,76 Z" id="rebel" fill="#000000" fill-rule="nonzero"></path>
    </g>
</svg>