<?xml version="1.0" encoding="UTF-8"?>
<svg width="76px" height="76px" viewBox="0 0 76 76" version="1.1" xmlns="http://www.w3.org/2000/svg" xmlns:xlink="http://www.w3.org/1999/xlink">
    <!-- Generator: Sketch 48.1 (47250) - http://www.bohemiancoding.com/sketch -->
    <title>reddit</title>
    <desc>Created with Sketch.</desc>
    <defs></defs>
    <g id="reddit---f1a1" stroke="none" stroke-width="1" fill="none" fill-rule="evenodd">
        <path d="M29.6491935,45.5846774 C27.5346774,45.5846774 25.833871,43.883871 25.833871,41.8153226 C25.833871,39.7008065 27.5346774,38 29.6491935,38 C31.7330645,38 33.4185484,39.7008065 33.4185484,41.8153226 C33.4185484,43.8991935 31.7177419,45.5846774 29.6491935,45.5846774 Z M76,38 C76,58.9919355 58.9919355,76 38,76 C17.0080645,76 0,58.9919355 0,38 C0,17.0080645 17.0080645,0 38,0 C58.9919355,0 76,17.0080645 76,38 Z M55.7282258,31.6870968 C54.2879032,31.6870968 53.016129,32.2846774 52.0814516,33.2193548 C48.6491935,30.8443548 44.0217742,29.3120968 38.8887097,29.1435484 L41.5548387,17.1459677 L50.0435484,19.0612903 C50.0435484,21.1451613 51.7443548,22.8306452 53.8129032,22.8306452 C55.9274194,22.8306452 57.6282258,21.0991935 57.6282258,19.0153226 C57.6282258,16.9314516 55.9274194,15.2 53.8129032,15.2 C52.3266129,15.2 51.0548387,16.0887097 50.4266129,17.3145161 L41.0491935,15.2306452 C40.5895161,15.1080645 40.1145161,15.4451613 39.9919355,15.9048387 L37.0653226,29.1435484 C31.9782258,29.3580645 27.3967742,30.875 23.9645161,33.25 C23.0298387,32.2693548 21.7120968,31.6870968 20.2717742,31.6870968 C14.9241935,31.6870968 13.1774194,38.8733871 18.0653226,41.3096774 C17.8967742,42.0758065 17.8048387,42.8725806 17.8048387,43.6846774 C17.8048387,51.7443548 26.8758065,58.2717742 38.0306452,58.2717742 C49.2314516,58.2717742 58.3024194,51.7443548 58.3024194,43.6846774 C58.3024194,42.8725806 58.2104839,42.0298387 58.0112903,41.2637097 C62.8072581,38.8120968 61.0451613,31.6870968 55.7282258,31.6870968 Z M45.1709677,49.4919355 C42.3822581,52.2806452 33.5104839,52.2346774 30.8290323,49.4919355 C30.4919355,49.1548387 29.8943548,49.1548387 29.5572581,49.4919355 C29.1741935,49.875 29.1741935,50.4725806 29.5572581,50.8096774 C33.0508065,54.3032258 42.933871,54.3032258 46.4427419,50.8096774 C46.8258065,50.4725806 46.8258065,49.875 46.4427419,49.4919355 C46.1056452,49.1548387 45.5080645,49.1548387 45.1709677,49.4919355 Z M46.3508065,38 C44.2669355,38 42.5814516,39.7008065 42.5814516,41.8153226 C42.5814516,43.8991935 44.2822581,45.5846774 46.3508065,45.5846774 C48.4653226,45.5846774 50.166129,43.883871 50.166129,41.8153226 C50.166129,39.7008065 48.4806452,38 46.3508065,38 Z" id="reddit" fill="#000000" fill-rule="nonzero"></path>
    </g>
</svg>