<?xml version="1.0" encoding="UTF-8"?>
<svg width="76px" height="76px" viewBox="0 0 76 76" version="1.1" xmlns="http://www.w3.org/2000/svg" xmlns:xlink="http://www.w3.org/1999/xlink">
    <!-- Generator: Sketch 48.1 (47250) - http://www.bohemiancoding.com/sketch -->
    <title>reddit-square</title>
    <desc>Created with Sketch.</desc>
    <defs></defs>
    <g id="reddit-square---f1a2" stroke="none" stroke-width="1" fill="none" fill-rule="evenodd">
        <path d="M48.0428571,53.1830357 C48.5008929,53.6410714 48.5008929,54.3366071 48.0428571,54.74375 C43.8866071,58.9 32.1303571,58.9169643 27.9571429,54.74375 C27.4991071,54.3366071 27.4991071,53.6410714 27.9571429,53.1830357 C28.3642857,52.7758929 29.0598214,52.7758929 29.4669643,53.1830357 C32.6392857,56.4401786 43.2080357,56.5080357 46.5160714,53.1830357 C46.9232143,52.7928571 47.6357143,52.7928571 48.0428571,53.1830357 Z M32.5544643,44.05625 C32.5544643,41.5285714 30.5357143,39.5098214 28.0589286,39.5098214 C25.53125,39.5098214 23.5125,41.5285714 23.5125,44.05625 C23.5125,46.5330357 25.53125,48.5517857 28.0589286,48.5517857 C30.5357143,48.5517857 32.5544643,46.5330357 32.5544643,44.05625 Z M47.9410714,39.5098214 C45.4642857,39.5098214 43.4455357,41.5285714 43.4455357,44.05625 C43.4455357,46.5330357 45.4642857,48.5517857 47.9410714,48.5517857 C50.46875,48.5517857 52.4875,46.5330357 52.4875,44.05625 C52.4875,41.5285714 50.46875,39.5098214 47.9410714,39.5098214 Z M0,0 L76,0 L76,76 L0,76 L0,0 Z M59.0866071,31.9946429 C57.3732143,31.9946429 55.8633929,32.7071429 54.74375,33.8098214 C50.6553571,30.9767857 45.1589286,29.1616071 39.0517857,28.9580357 L42.2241071,14.6741071 L52.3178571,16.9473214 C52.3178571,19.4241071 54.3366071,21.4428571 56.8133929,21.4428571 C59.3410714,21.4428571 61.3598214,19.3732143 61.3598214,16.8964286 C61.3598214,14.4196429 59.3410714,12.35 56.8133929,12.35 C55.0491071,12.35 53.5392857,13.4017857 52.7758929,14.8776786 L41.6303571,12.4008929 C41.0705357,12.2482143 40.5276786,12.6553571 40.375,13.2151786 L36.8973214,28.9580357 C30.8410714,29.2125 25.3955357,31.0276786 21.3071429,33.8607143 C20.2044643,32.7071429 18.6267857,31.9946429 16.9133929,31.9946429 C10.5517857,31.9946429 8.46517857,40.5446429 14.2839286,43.4455357 C14.0803571,44.3616071 13.9785714,45.3116071 13.9785714,46.2785714 C13.9785714,55.8633929 24.7848214,63.6330357 38.0508929,63.6330357 C51.3678571,63.6330357 62.1741071,55.8633929 62.1741071,46.2785714 C62.1741071,45.3116071 62.0723214,44.3107143 61.8178571,43.3946429 C67.5178571,40.4767857 65.4142857,31.9946429 59.0866071,31.9946429 Z" id="reddit-square" fill="#000000" fill-rule="nonzero"></path>
    </g>
</svg>