<?xml version="1.0" encoding="UTF-8"?>
<svg width="76px" height="72px" viewBox="0 0 76 72" version="1.1" xmlns="http://www.w3.org/2000/svg" xmlns:xlink="http://www.w3.org/1999/xlink">
    <!-- Generator: Sketch 48.1 (47250) - http://www.bohemiancoding.com/sketch -->
    <title>reddit-alien</title>
    <desc>Created with Sketch.</desc>
    <defs></defs>
    <g id="reddit-alien---f281" stroke="none" stroke-width="1" fill="none" fill-rule="evenodd" transform="translate(0.000000, -2.000000)">
        <path d="M67.5251862,29.5724169 C65.1224236,29.5724169 63.0079924,30.5686231 61.4542059,32.1272037 C55.7356309,28.1584468 48.0307721,25.6036599 39.4929555,25.3305066 L43.9300572,5.27783977 L58.0583014,8.45927248 C58.0583014,11.9299264 60.8775429,14.7578665 64.3375211,14.7578665 C67.8615729,14.7578665 70.6968328,11.8495871 70.6968328,8.37893327 C70.6968328,4.9082794 67.8775914,2 64.3375211,2 C61.8706848,2 59.7402353,3.49430931 58.6830197,5.53492524 L43.0810811,2.06427137 C42.2961786,1.85538942 41.5272946,2.41776389 41.3190551,3.20508815 L36.4494562,25.3144387 C27.9757133,25.6679313 20.3509466,28.2227181 14.6163531,32.1914751 C13.0625666,30.5686231 10.8680434,29.5724169 8.46528081,29.5724169 C-0.440959331,29.5724169 -3.35631132,41.559027 4.7970632,45.6563267 C4.50873168,46.9256862 4.38058434,48.275385 4.38058434,49.6250837 C4.38058434,63.0899353 19.5019705,74 38.0673164,74 C56.7127544,74 71.8341405,63.0899353 71.8341405,49.6250837 C71.8341405,48.275385 71.6899747,46.8614149 71.3375695,45.5920553 C79.3307599,41.4786878 76.3833711,29.5724169 67.5251862,29.5724169 Z M17.7239261,46.5079223 C17.7239261,42.9729971 20.5431676,40.1289891 24.0832379,40.1289891 C27.5432161,40.1289891 30.3624575,42.9569293 30.3624575,46.5079223 C30.3624575,49.9785762 27.5432161,52.8065164 24.0832379,52.8065164 C20.559186,52.8225842 17.7239261,49.9785762 17.7239261,46.5079223 Z M52.0513949,61.5313546 C46.2206909,67.3800491 29.7697761,67.3800491 23.9390721,61.5313546 C23.2983354,60.9689801 23.2983354,59.9727739 23.9390721,59.3300603 C24.4997167,58.7676858 25.4928586,58.7676858 26.0535032,59.3300603 C30.5066233,63.9093952 45.2756043,63.9897344 49.9209453,59.3300603 C50.4815899,58.7676858 51.4747318,58.7676858 52.0353764,59.3300603 C52.6921316,59.9727739 52.6921316,60.9689801 52.0513949,61.5313546 Z M51.9232475,52.8225842 C48.4632693,52.8225842 45.6440279,49.9946441 45.6440279,46.5239902 C45.6440279,42.9890649 48.4632693,40.1450569 51.9232475,40.1450569 C55.4472994,40.1450569 58.2825593,42.9729971 58.2825593,46.5239902 C58.2665409,49.9785762 55.4472994,52.8225842 51.9232475,52.8225842 Z" id="reddit-alien" fill="#000000" fill-rule="nonzero"></path>
    </g>
</svg>