<?xml version="1.0" encoding="UTF-8"?>
<svg width="76px" height="75px" viewBox="0 0 76 75" version="1.1" xmlns="http://www.w3.org/2000/svg" xmlns:xlink="http://www.w3.org/1999/xlink">
    <!-- Generator: Sketch 48.1 (47250) - http://www.bohemiancoding.com/sketch -->
    <title>renren</title>
    <desc>Created with Sketch.</desc>
    <defs></defs>
    <g id="renren---f18b" stroke="none" stroke-width="1" fill="none" fill-rule="evenodd" transform="translate(0.000000, -1.000000)">
        <path d="M31.5645161,24.896236 C31.5645161,41.7426246 22.2177419,56.2390641 8.9483871,62.6480163 C3.37096774,56.0406918 0,47.5717192 0,38.2482197 C0,19.5249237 13.6524194,4.00610376 31.5645161,1 L31.5645161,24.896236 Z M37.8467742,76 C31.2733871,76 25.0830645,74.3214649 19.6895161,71.3611394 C28.4540323,65.8524924 35.5330645,57.5208545 37.8467742,47.7700916 C40.2217742,57.5208545 47.3008065,65.8524924 56.05,71.3763988 C50.6717742,74.3214649 44.4814516,76 37.8467742,76 Z M67.0516129,62.6480163 C53.7822581,56.2390641 44.4354839,41.757884 44.4354839,24.896236 L44.4354839,1 C62.3475806,4.00610376 76,19.5249237 76,38.2482197 C76,47.5717192 72.6290323,56.0406918 67.0516129,62.6480163 Z" id="renren" fill="#000000" fill-rule="nonzero"></path>
    </g>
</svg>