<?xml version="1.0" encoding="UTF-8"?>
<svg width="76px" height="76px" viewBox="0 0 76 76" version="1.1" xmlns="http://www.w3.org/2000/svg" xmlns:xlink="http://www.w3.org/1999/xlink">
    <!-- Generator: Sketch 48.1 (47250) - http://www.bohemiancoding.com/sketch -->
    <title>safari</title>
    <desc>Created with Sketch.</desc>
    <defs></defs>
    <g id="safari---f267" stroke="none" stroke-width="1" fill="none" fill-rule="evenodd">
        <path d="M35.0733871,38.1225806 C35.0733871,36.7282258 36.0846774,35.4104839 37.5709677,35.4104839 C38.9346774,35.4104839 40.2370968,36.391129 40.2370968,37.8774194 C40.2370968,39.2717742 39.2564516,40.5895161 37.7701613,40.5895161 C36.391129,40.5895161 35.0733871,39.5629032 35.0733871,38.1225806 Z M76,38 C76,58.9919355 58.9919355,76 38,76 C17.0080645,76 0,58.9919355 0,38 C0,17.0080645 17.0080645,0 38,0 C58.9919355,0 76,17.0080645 76,38 Z M71.9241935,38 C71.9241935,19.2604839 56.7395161,4.07580645 38,4.07580645 C19.2604839,4.07580645 4.07580645,19.2604839 4.07580645,38 C4.07580645,56.7395161 19.2604839,71.9241935 38,71.9241935 C56.7395161,71.9241935 71.9241935,56.7395161 71.9241935,38 Z M60.8153226,52.8016129 C60.8153226,53.3532258 62.8072581,54.3645161 63.3129032,54.6709677 C59.1145161,61.0298387 52.6177419,65.6112903 45.2475806,67.4346774 L44.5733871,64.6 C44.5274194,64.2169355 44.2822581,64.1709677 43.9298387,64.1709677 C43.6387097,64.1709677 43.4701613,64.6 43.5008065,64.8145161 L44.175,67.6951613 C42.1370968,68.1241935 40.0685484,68.3387097 37.9846774,68.3387097 C32.4225806,68.3387097 26.9524194,66.7758065 22.2024194,63.8798387 C22.4629032,63.4508065 24.0717742,61.1217742 24.0717742,60.7846774 C24.0717742,60.4935484 23.8112903,60.2330645 23.5201613,60.2330645 C22.9225806,60.2330645 21.6508065,62.7766129 21.2677419,63.2822581 C14.8629032,59.0379032 10.2354839,52.4645161 8.45806452,44.9564516 L11.3846774,44.3129032 C11.7217742,44.2209677 11.8137097,43.9758065 11.8137097,43.6693548 C11.8137097,43.3782258 11.3846774,43.2096774 11.1395161,43.2403226 L8.27419355,43.8991935 C7.89112903,41.9532258 7.6766129,39.9919355 7.6766129,38 C7.6766129,32.3153226 9.28548387,26.7225806 12.3040323,21.9266129 C12.7330645,22.1870968 14.7709677,23.5814516 15.1080645,23.5814516 C15.3991935,23.5814516 15.6596774,23.3669355 15.6596774,23.0758065 C15.6596774,22.4782258 13.4072581,21.3443548 12.9016129,20.9919355 C17.2225806,14.6790323 23.7959677,10.1282258 31.2580645,8.44274194 L31.9016129,11.2774194 C31.9935484,11.6145161 32.2387097,11.7064516 32.5451613,11.7064516 C32.8516129,11.7064516 33.0048387,11.2774194 32.9741935,11.0322581 L32.3306452,8.22822581 C34.2,7.89112903 36.1,7.6766129 38.0153226,7.6766129 C43.7,7.6766129 49.2467742,9.28548387 54.0887097,12.3040323 C53.7975806,12.7330645 52.433871,14.725 52.433871,15.0620968 C52.433871,15.3532258 52.6483871,15.6137097 52.9395161,15.6137097 C53.5370968,15.6137097 54.6709677,13.4072581 54.9774194,12.9016129 C61.2596774,17.1459677 65.7491935,23.6274194 67.4959677,31.0129032 L65.1209677,31.5185484 C64.7379032,31.6104839 64.6919355,31.8556452 64.6919355,32.1927419 C64.6919355,32.483871 65.1209677,32.6524194 65.3354839,32.6217742 L67.7564516,32.0701613 C68.1395161,34.016129 68.3540323,36.0080645 68.3540323,38 C68.3540323,43.5620968 66.8217742,49.0322581 63.941129,53.7362903 C63.5120968,53.5217742 61.7346774,52.25 61.3975806,52.25 C61.0758065,52.25 60.8153226,52.5104839 60.8153226,52.8016129 Z M55.7282258,15.6903226 C53.7362903,17.5596774 35.1653226,34.6443548 34.6443548,35.5330645 L19.8427419,60.1258065 C21.7887097,58.3024194 40.4056452,41.1258065 40.8806452,40.3137097 L55.7282258,15.6903226 Z" id="safari" fill="#000000" fill-rule="nonzero"></path>
    </g>
</svg>