<?xml version="1.0" encoding="UTF-8"?>
<svg width="62px" height="76px" viewBox="0 0 62 76" version="1.1" xmlns="http://www.w3.org/2000/svg" xmlns:xlink="http://www.w3.org/1999/xlink">
    <!-- Generator: Sketch 48.1 (47250) - http://www.bohemiancoding.com/sketch -->
    <title>scribd</title>
    <desc>Created with Sketch.</desc>
    <defs></defs>
    <g id="scribd---f28a" stroke="none" stroke-width="1" fill="none" fill-rule="evenodd" transform="translate(-7.000000, 0.000000)">
        <path d="M13.8245309,37.4721356 C11.2270144,34.4169541 9.83952111,30.0914602 9.82338747,24.6242933 C9.82338747,8.48007102 21.9558868,0.00596230793 36.7988381,0.00596230793 C52.7066098,-0.251316135 62.0963898,7.88511462 66.5331416,11.3583736 L58.385652,22.9519834 L52.3678033,18.9963274 L56.7077532,12.7894849 C50.8189736,8.9303083 43.8976409,6.92032046 36.8633726,7.03287978 C28.6836158,6.90424056 18.8420937,11.4066133 18.8420937,19.2857656 C18.8420937,22.2927074 20.6490617,22.6143055 23.4563156,21.7942304 C27.2154543,20.9419956 30.2163118,21.8907099 32.4588882,24.0454168 C36.7181699,27.9528332 36.2018933,34.915431 32.3459527,38.8228474 C27.634929,43.5664187 18.6000891,43.2126608 13.8245309,37.4721356 Z M65.0811137,38.4208498 C62.5803991,35.3978281 58.8051267,33.6933584 54.8846515,33.8219977 C48.7377337,33.5003996 43.4136316,38.3243704 43.5104334,44.6276923 C43.3974979,47.3291159 44.478452,49.9340601 46.4790237,51.7510891 C48.7538673,53.9861956 51.8031258,54.91883 55.5622645,54.0665951 C58.3695184,53.2465201 60.1764863,53.5681181 60.1764863,56.5750599 C60.1764863,57.2664958 60.0958181,57.9418517 59.9506153,58.6172076 C57.256297,65.1938878 50.3510979,68.9726649 40.3643731,68.9726649 C31.9910125,69.0048247 23.843523,66.3355609 17.115794,61.3668709 L22.5528316,55.0313893 L16.8092548,50.625496 L7,62.1708661 L9.48458098,64.3898927 C17.9547434,71.9152871 28.9094868,76.0478221 40.2514376,75.9995824 C48.5441299,75.9995824 55.4815963,74.3111926 61.8059842,68.9083453 C71.0182942,60.6432753 70.5504186,44.9171305 65.0811137,38.4208498 Z" id="scribd" fill="#000000" fill-rule="nonzero"></path>
    </g>
</svg>