<?xml version="1.0" encoding="UTF-8"?>
<svg width="76px" height="54px" viewBox="0 0 76 54" version="1.1" xmlns="http://www.w3.org/2000/svg" xmlns:xlink="http://www.w3.org/1999/xlink">
    <!-- Generator: Sketch 48.1 (47250) - http://www.bohemiancoding.com/sketch -->
    <title>sellsy</title>
    <desc>Created with Sketch.</desc>
    <defs></defs>
    <g id="sellsy---f213" stroke="none" stroke-width="1" fill="none" fill-rule="evenodd" transform="translate(0.000000, -11.000000)">
        <path d="M64.6074963,35.7469464 C64.9785552,34.2695402 65.1270273,32.7551295 65.1270273,31.2408393 C65.1270273,20.0862232 55.998056,11 44.7909606,11 C35.4394024,11 27.2753782,17.3898393 25.0487821,26.4021741 C23.193245,24.8139955 20.8181769,23.9275759 18.369115,23.9275759 C12.7655673,23.9275759 8.20108164,28.470567 8.20108164,34.047875 C8.20108164,34.9342946 8.31249622,35.8577187 8.57226172,36.7441384 C3.37695159,39.1819732 0,44.4268437 0,50.151808 C-0.0001211028,58.3516116 6.71672462,65 14.9179274,65 L61.0820726,65 C69.2831543,65 76,58.3516116 76,50.1519286 C76.0001211,43.3556429 71.2871634,37.3721295 64.6074963,35.7469464 Z M23.4531316,55.5444554 C23.4531316,56.5417679 22.5995991,57.391183 21.5977156,57.391183 L17.8497051,57.391183 C16.8477005,57.391183 15.994289,56.5416473 15.994289,55.5444554 L15.994289,42.1736696 C15.994289,41.1764777 16.8478216,40.326942 17.8497051,40.326942 L21.5977156,40.326942 C22.5997202,40.326942 23.4531316,41.1764777 23.4531316,42.1736696 L23.4531316,55.5444554 Z M34.2890469,55.5444554 C34.2890469,56.5417679 33.4355144,57.391183 32.4335098,57.391183 L28.6854992,57.391183 C27.6834946,57.391183 26.8300832,56.5416473 26.8300832,55.5444554 L26.8300832,39.6990714 C26.8300832,38.7017589 27.6836157,37.8523437 28.6854992,37.8523437 L32.4335098,37.8523437 C33.4355144,37.8523437 34.2890469,38.7018795 34.2890469,39.6990714 L34.2890469,55.5444554 Z M45.1249622,55.5444554 C45.1249622,56.5417679 44.2715507,57.391183 43.2695462,57.391183 L39.5215356,57.391183 C38.519531,57.391183 37.6659985,56.5416473 37.6659985,55.5444554 L37.6659985,35.9316071 C37.6659985,34.9342946 38.519531,34.0848795 39.5215356,34.0848795 L43.2695462,34.0848795 C44.2715507,34.0848795 45.1249622,34.9344152 45.1249622,35.9316071 L45.1249622,55.5444554 Z M55.6641756,55.5444554 C55.6641756,56.5417679 54.810643,57.391183 53.8086385,57.391183 L50.357572,57.391183 C49.3555674,57.391183 48.5021559,56.5416473 48.5021559,55.5444554 L48.5021559,28.470567 C48.5021559,27.4364911 49.3555674,26.5868348 50.357572,26.5868348 L53.8086385,26.5868348 C54.810643,26.5868348 55.6641756,27.4363705 55.6641756,28.470567 L55.6641756,55.5444554 Z" id="sellsy" fill="#000000" fill-rule="nonzero"></path>
    </g>
</svg>