<?xml version="1.0" encoding="UTF-8"?>
<svg width="67px" height="76px" viewBox="0 0 67 76" version="1.1" xmlns="http://www.w3.org/2000/svg" xmlns:xlink="http://www.w3.org/1999/xlink">
    <!-- Generator: Sketch 48.1 (47250) - http://www.bohemiancoding.com/sketch -->
    <title>shirtsinbulk</title>
    <desc>Created with Sketch.</desc>
    <defs></defs>
    <g id="shirtsinbulk---f214" stroke="none" stroke-width="1" fill="none" fill-rule="evenodd" transform="translate(-5.000000, 0.000000)">
        <path d="M64.1047679,32.8161416 L65.71875,32.8161416 L65.71875,37.8682083 L64.1047679,37.8682083 L64.1047679,32.8161416 Z M64.1047679,31.3664325 L65.71875,31.3664325 L65.71875,26.3143659 L64.1047679,26.3143659 L64.1047679,31.3664325 Z M64.1047679,44.3698334 L65.71875,44.3698334 L65.71875,39.3179173 L64.1047679,39.3179173 L64.1047679,44.3698334 Z M58.6523438,19.8127408 L53.6360179,19.8127408 L53.6360179,21.3942416 L58.6523438,21.3942416 L58.6523438,19.8127408 Z M64.1047679,50.8716091 L65.71875,50.8716091 L65.71875,45.8195424 L64.1047679,45.8195424 L64.1047679,50.8716091 Z M51.5859375,19.8127408 L46.5696116,19.8127408 L46.5696116,21.3942416 L51.5859375,21.3942416 L51.5859375,19.8127408 Z M44.5195313,19.8127408 L39.546875,19.8127408 L39.546875,21.3942416 L44.5195313,21.3942416 L44.5195313,19.8127408 Z M37.453125,19.8127408 L32.4804688,19.8127408 L32.4804688,21.3942416 L37.453125,21.3942416 L37.453125,19.8127408 Z M64.1047679,24.8648074 L65.71875,24.8648074 L65.71875,19.8127408 L60.7024241,19.8127408 L60.7024241,21.3942416 L64.1047679,21.3942416 L64.1047679,24.8648074 Z M25.8501607,63.8751605 L30.4302388,65.8960173 L31.0845357,64.4023275 L26.5044576,62.3814707 L25.8501607,63.8751605 Z M31.7825022,66.4670144 L36.3190603,68.5317014 L36.9732076,67.0381621 L32.4367991,65.0173053 L31.7825022,66.4670144 Z M64.1047679,57.3733848 L65.71875,57.3733848 L65.71875,52.3213182 L64.1047679,52.3213182 L64.1047679,57.3733848 Z M14.0292969,58.6034912 L18.609375,60.6241974 L19.2636719,59.1746389 L14.6835938,57.1098013 L14.0292969,58.6034912 Z M19.9614888,61.2391752 L24.541567,63.260032 L25.1958638,61.7663422 L20.6157857,59.745636 L19.9614888,61.2391752 Z M39.7649241,67.0381621 L40.419221,68.5317014 L44.9994487,66.4670144 L44.3451518,65.0173053 L39.7649241,67.0381621 Z M57.4746094,59.1746389 L58.1289062,60.6241974 L62.7088348,58.6034912 L62.0546875,57.1098013 L57.4746094,59.1746389 Z M51.5859375,61.7663422 L52.2402344,63.260032 L56.8203125,61.2391752 L56.1661652,59.745636 L51.5859375,61.7663422 Z M45.653596,64.4023275 L46.3078929,65.8960173 L50.887971,63.8751605 L50.2336741,62.3814707 L45.653596,64.4023275 Z M51.5859375,6.45779494 L46.5696116,6.45779494 L46.5696116,8.03929574 L51.5859375,8.03929574 L51.5859375,6.45779494 Z M65.6752299,6.45779494 L60.7024241,6.45779494 L60.7024241,8.03929574 L65.6752299,8.03929574 L65.6752299,6.45779494 Z M37.453125,6.45779494 L32.4804688,6.45779494 L32.4804688,8.03929574 L37.453125,8.03929574 L37.453125,6.45779494 Z M58.6523438,6.45779494 L53.6360179,6.45779494 L53.6360179,8.03929574 L58.6523438,8.03929574 L58.6523438,6.45779494 Z M44.5195313,6.45779494 L39.546875,6.45779494 L39.546875,8.03929574 L44.5195313,8.03929574 L44.5195313,6.45779494 Z M72,0 L72,61.1513643 L38.150942,76 L5,61.1513643 L5,0 L72,0 Z M67.6381205,17.6161115 L9.36187946,17.6161115 L9.36187946,58.2959269 L38.1946116,71.2115168 L67.637971,58.2959269 L67.6381205,17.6161115 Z M67.6381205,4.39310799 L9.36187946,4.39310799 L9.36187946,13.2231541 L67.6381205,13.2231541 L67.6381205,4.39310799 Z M16.2975759,6.45779494 L11.3247701,6.45779494 L11.3247701,8.03929574 L16.2975759,8.03929574 L16.2975759,6.45779494 Z M30.4303884,6.45779494 L25.4140625,6.45779494 L25.4140625,8.03929574 L30.4303884,8.03929574 L30.4303884,6.45779494 Z M23.3638326,6.45779494 L18.3476562,6.45779494 L18.3476562,8.03929574 L23.3639821,8.03929574 L23.3639821,6.45779494 L23.3638326,6.45779494 Z M24.4980469,42.0855437 C24.4980469,34.5294341 30.6484375,28.3352227 38.1510915,28.3352227 C45.6972656,28.3352227 51.8041362,34.5294341 51.8041362,42.0855437 C51.8041362,49.6854835 45.6974152,55.8358648 38.1510915,55.8358648 C30.6484375,55.8357142 24.4980469,49.6854835 24.4980469,42.0855437 Z M42.5566406,44.80934 C42.5566406,46.786216 38.9797679,46.9618379 37.6713237,46.9618379 C35.8392924,46.9618379 33.2221049,46.5664627 32.3060893,44.7213784 L32.1752299,44.7213784 L30.822817,47.4890048 C33.0475759,48.8947331 35.184846,49.3340891 37.8892232,49.3340891 C40.8117991,49.3340891 45.5227366,48.4555277 45.5227366,44.6334168 C45.5227366,37.3848715 33.7890625,42.1733547 33.7890625,38.9225421 C33.7890625,36.9456661 36.8860179,36.6820827 38.2382813,36.6820827 C39.8521138,36.6820827 42.6001607,37.1652688 43.559846,38.658808 L43.6907054,38.658808 L44.9994487,36.1109349 C42.7311696,35.1883928 40.8991384,34.3096808 38.3691406,34.3096808 C35.359375,34.3096808 30.9538259,35.2762038 30.9538259,39.098164 C30.9538259,45.7757123 42.5566406,40.8994181 42.5566406,44.80934 Z M23.3638326,19.8127408 L18.3476562,19.8127408 L18.3476562,21.3942416 L23.3639821,21.3942416 L23.3639821,19.8127408 L23.3638326,19.8127408 Z M12.8952321,21.3942416 L16.2975759,21.3942416 L16.2975759,19.8127408 L11.28125,19.8127408 L11.28125,24.8648074 L12.8952321,24.8648074 L12.8952321,21.3942416 Z M12.8952321,26.3143659 L11.28125,26.3143659 L11.28125,31.3664325 L12.8952321,31.3664325 L12.8952321,26.3143659 Z M30.4303884,19.8127408 L25.4140625,19.8127408 L25.4140625,21.3942416 L30.4303884,21.3942416 L30.4303884,19.8127408 Z M12.8952321,32.8161416 L11.28125,32.8161416 L11.28125,37.8682083 L12.8952321,37.8682083 L12.8952321,32.8161416 Z M12.8952321,45.8196931 L11.28125,45.8196931 L11.28125,50.8717597 L12.8952321,50.8717597 L12.8952321,45.8196931 Z M12.8952321,39.3179173 L11.28125,39.3179173 L11.28125,44.369984 L12.8952321,44.369984 L12.8952321,39.3179173 Z M12.8952321,52.3213182 L11.28125,52.3213182 L11.28125,57.3733848 L12.8952321,57.3733848 L12.8952321,52.3213182 Z" id="shirtsinbulk" fill="#000000" fill-rule="nonzero"></path>
    </g>
</svg>