<?xml version="1.0" encoding="UTF-8"?>
<svg width="76px" height="58px" viewBox="0 0 76 58" version="1.1" xmlns="http://www.w3.org/2000/svg" xmlns:xlink="http://www.w3.org/1999/xlink">
    <!-- Generator: Sketch 48.1 (47250) - http://www.bohemiancoding.com/sketch -->
    <title>simplybuilt</title>
    <desc>Created with Sketch.</desc>
    <defs></defs>
    <g id="simplybuilt---f215" stroke="none" stroke-width="1" fill="none" fill-rule="evenodd" transform="translate(0.000000, -9.000000)">
        <path d="M71.9706116,9 L55.9737887,9 C53.7855441,9 51.9594917,10.7822917 51.9594917,12.9723958 L51.9594917,18.9536458 L23.9952343,18.9536458 L23.9952343,12.9723958 C23.9952343,10.7822917 22.1842732,9 19.9809373,9 L3.98411438,9 C1.7807784,9 0,10.7822917 0,12.9723958 L0,63.0276042 C0,65.2177083 1.7807784,67 4.01429706,67 L71.9857029,67 C74.2192216,67 76,65.2177083 76,63.0276042 L76,12.9723958 C75.9698173,10.7822917 74.1890389,9 71.9706116,9 Z M21.9579031,53.0739583 C16.4344718,53.0739583 11.9372518,48.5880208 11.9372518,43.0447917 C11.9372518,37.4713542 16.4193805,32.9854167 21.9579031,32.9854167 C27.5266084,32.9854167 32.0087371,37.4713542 32.0087371,43.0447917 C32.0087371,48.5880208 27.5266084,53.0739583 21.9579031,53.0739583 Z M54.0119142,53.0739583 C48.4432089,53.0739583 43.9610802,48.5880208 43.9610802,43.0145833 C43.9610802,37.4864583 48.4432089,32.9854167 54.0119142,32.9854167 C59.5353455,32.9854167 64.0325655,37.4713542 64.0325655,43.0145833 C64.0325655,48.5880208 59.5353455,53.0739583 54.0119142,53.0739583 Z" id="simplybuilt" fill="#000000" fill-rule="nonzero"></path>
    </g>
</svg>