<?xml version="1.0" encoding="UTF-8"?>
<svg width="76px" height="45px" viewBox="0 0 76 45" version="1.1" xmlns="http://www.w3.org/2000/svg" xmlns:xlink="http://www.w3.org/1999/xlink">
    <!-- Generator: Sketch 48.1 (47250) - http://www.bohemiancoding.com/sketch -->
    <title>skyatlas</title>
    <desc>Created with Sketch.</desc>
    <defs></defs>
    <g id="skyatlas---f216" stroke="none" stroke-width="1" fill="none" fill-rule="evenodd" transform="translate(0.000000, -16.000000)">
        <path d="M76,47.2829736 C76,55.1846523 69.765625,61 62.046875,61 C42.34625,61 38.700625,31.059952 19.3325,31.059952 C1.888125,31.059952 1.864375,56.5035971 19.9975,56.5035971 C25.044375,56.5035971 30.791875,54.3693046 34.876875,51.4076739 C35.541875,50.9160671 36.88375,49.4532374 37.584375,49.4532374 C38.285,49.4532374 38.87875,50.0527578 38.87875,50.7601918 C38.87875,51.6954436 37.323125,53.0503597 36.658125,53.6498801 C31.80125,57.9184652 24.7475,60.9880096 18.2875,60.9880096 C8.38375,61 0,53.9136691 0,43.6139089 C0,33.3141487 8.015625,25.736211 18.145,25.736211 C40.149375,25.736211 44.566875,55.2206235 61.120625,55.2206235 C72.98375,55.2206235 72.378125,38.470024 61.524375,38.470024 C59.44625,38.470024 57.368125,39.8609113 55.955,39.8609113 C54.9575,39.8609113 54.066875,38.9976019 54.066875,37.9904077 C54.066875,36.5995204 54.69625,35.1486811 54.69625,33.6378897 C54.69625,25.6522782 48.651875,19.8848921 40.814375,19.8848921 C34.50875,19.8848921 31.314375,24.3093525 30.269375,24.3093525 C29.533125,24.3093525 28.939375,23.7098321 28.939375,22.9664269 C28.939375,22.294964 29.42625,21.7314149 29.865625,21.2398082 C32.87,17.7865707 37.54875,16 42.073125,16 C51.501875,16 58.59125,23.0023981 58.59125,32.5227818 C58.59125,33.3501199 58.555625,34.1654676 58.44875,34.9928058 C59.861875,34.6211031 61.310625,34.4292566 62.711875,34.4292566 C69.92,34.4292566 76,39.8609113 76,47.2829736 Z" id="skyatlas" fill="#000000" fill-rule="nonzero"></path>
    </g>
</svg>