<?xml version="1.0" encoding="UTF-8"?>
<svg width="76px" height="76px" viewBox="0 0 76 76" version="1.1" xmlns="http://www.w3.org/2000/svg" xmlns:xlink="http://www.w3.org/1999/xlink">
    <!-- Generator: Sketch 48.1 (47250) - http://www.bohemiancoding.com/sketch -->
    <title>skype</title>
    <desc>Created with Sketch.</desc>
    <defs></defs>
    <g id="skype---f17e" stroke="none" stroke-width="1" fill="none" fill-rule="evenodd">
        <path d="M72.0632698,45.4405001 C72.555343,43.0649699 72.8607677,40.5367269 72.8607677,38.008484 C72.8607677,18.7497209 57.2671381,3.17302969 38.0253797,3.17302969 C35.4971416,3.17302969 32.9858716,3.46148694 30.5933778,3.97052914 C27.36945,1.47622237 23.3649924,0 19.0042058,0 C8.51795654,0 0,8.51797276 0,19.004242 C0,23.3650368 1.47621956,27.3695021 3.95355354,30.576468 C3.46148035,32.9519982 3.15605561,35.4802411 3.15605561,38.008484 C3.15605561,57.2672472 18.7496852,72.8439384 37.9914436,72.8439384 C40.5196817,72.8439384 43.0309518,72.5554811 45.4234456,72.0464389 C48.6473733,74.5237776 52.651831,76 56.9956495,76 C67.4818988,76 75.9998553,67.4820272 75.9998553,56.995758 C76.0168233,52.6519312 74.5406038,48.647466 72.0632698,45.4405001 Z M39.0434622,60.9662871 C27.9124273,60.9662871 18.5969729,56.0116097 18.5969729,49.9370395 C18.5969729,47.2221478 20.1240965,44.7448091 23.6025449,44.7448091 C28.8965737,44.7448091 29.3886469,52.363474 38.551389,52.363474 C42.9121755,52.363474 45.7288703,50.4291136 45.7288703,47.9008707 C45.7288703,44.727841 43.0139837,44.2357669 38.6022931,43.1498102 C27.9972675,40.5367269 18.6139409,39.4168341 18.6139409,28.3536504 C18.6139409,18.308551 28.5572129,14.592543 37.1260735,14.592543 C46.4754641,14.592543 55.9266629,18.308551 55.9266629,23.9928555 C55.9266629,26.8604599 53.9923062,29.3887028 50.7853465,29.3887028 C45.9833909,29.3887028 45.8306785,23.7043983 38.0593158,23.7043983 C33.6985293,23.7043983 30.9327386,24.8921634 30.9327386,27.5222148 C30.9327386,30.8818933 34.4620911,31.2212547 42.6576549,33.1216789 C49.6824238,34.6997098 58.047668,37.6691226 58.047668,46.2889038 C58.047668,56.3170351 48.3589166,60.9662871 39.0434622,60.9662871 Z" id="skype" fill="#000000" fill-rule="nonzero"></path>
    </g>
</svg>