<?xml version="1.0" encoding="UTF-8"?>
<svg width="76px" height="76px" viewBox="0 0 76 76" version="1.1" xmlns="http://www.w3.org/2000/svg" xmlns:xlink="http://www.w3.org/1999/xlink">
    <!-- Generator: Sketch 48.1 (47250) - http://www.bohemiancoding.com/sketch -->
    <title>slack</title>
    <desc>Created with Sketch.</desc>
    <defs></defs>
    <g id="slack---f198" stroke="none" stroke-width="1" fill="none" fill-rule="evenodd">
        <path d="M41.4270871,31.4681756 L44.7014822,41.2574293 L34.5559471,44.6505848 L31.2815521,34.8613311 L41.4270871,31.4681756 Z M48.450919,72.8137757 C22.3236215,80.651965 11.0244136,74.5782166 3.18622429,48.450919 C-4.65196498,22.3236215 1.42178342,11.0244136 27.549081,3.18622429 C53.6763785,-4.65196498 64.9755864,1.42178342 72.8137757,27.549081 C80.651965,53.6763785 74.5782166,64.9755864 48.450919,72.8137757 Z M62.1253358,39.52692 C61.4636705,37.4570951 59.207222,36.3712853 57.1373972,37.0329507 L52.2173217,38.6786311 L48.9429266,28.8893774 L53.8630021,27.243697 C55.932827,26.5820317 57.0186367,24.3255832 56.3569714,22.2557584 C55.6953061,20.1859335 53.4388576,19.1001237 51.3690328,19.761789 L46.4489573,21.4074695 L44.7523795,16.3007704 C44.0907142,14.2309455 41.8342657,13.1451358 39.7644409,13.8068011 C37.694616,14.4684664 36.6088062,16.7249148 37.2704716,18.7947397 L38.9670493,23.9014388 L28.8215143,27.3115601 L27.1249365,22.204861 C26.4632712,20.1350361 24.2068228,19.0492264 22.1369979,19.7108917 C20.067173,20.372557 18.9813633,22.6290055 19.6430286,24.6988303 L21.3396064,29.8055294 L16.4195308,31.4512098 C14.349706,32.1128752 13.2638962,34.3693236 13.9255615,36.4391485 C14.4684664,38.0169658 15.9953864,39.0518782 17.5732037,39.1197413 C18.3027322,39.221536 18.8795686,38.9500835 23.8335757,37.3044031 L27.1079708,47.0936568 L22.1878952,48.7393372 C20.1180704,49.4010026 19.0322606,51.657451 19.6939259,53.7272759 C20.2368308,55.3050932 21.7637508,56.3400056 23.3415681,56.4078687 C24.0710966,56.5096634 24.647933,56.238211 29.6019401,54.5925305 L31.2985178,59.6992296 C31.9262516,61.5315336 33.9791107,62.8548642 36.2864565,62.1931989 C38.3562813,61.5315336 39.4420911,59.2750852 38.7804258,57.2052603 L37.083848,52.0985612 L47.229383,48.6884399 L48.9259608,53.795139 C49.5536946,55.627443 51.6065537,56.9507736 53.9138994,56.2891083 C55.9837243,55.627443 57.0695341,53.3709945 56.4078687,51.3011697 L54.711291,46.1944706 L59.6313665,44.5487902 C61.7011914,43.8362275 62.7870011,41.5797791 62.1253358,39.52692 Z" id="slack" fill="#000000" fill-rule="nonzero"></path>
    </g>
</svg>