<?xml version="1.0" encoding="UTF-8"?>
<svg width="75px" height="76px" viewBox="0 0 75 76" version="1.1" xmlns="http://www.w3.org/2000/svg" xmlns:xlink="http://www.w3.org/1999/xlink">
    <!-- Generator: Sketch 48.1 (47250) - http://www.bohemiancoding.com/sketch -->
    <title>slideshare</title>
    <desc>Created with Sketch.</desc>
    <defs></defs>
    <g id="slideshare---f1e7" stroke="none" stroke-width="1" fill="none" fill-rule="evenodd" transform="translate(-1.000000, 0.000000)">
        <path d="M37.5191534,31.3850405 C37.5191534,36.0928857 33.3820923,39.9524102 28.3065609,39.9524102 C23.2311788,39.9524102 19.0941177,36.0928857 19.0941177,31.3850405 C19.0941177,26.6348907 23.2311788,22.8178192 28.3065609,22.8178192 C33.3819431,22.8178192 37.5191534,26.6348907 37.5191534,31.3850405 Z M75.478014,38.8072146 C72.7484343,42.1578953 67.5451265,46.2718418 59.6120898,49.4951631 C68.014287,77.9539058 39.097103,82.4919384 39.5662635,67.9021607 C39.5662635,68.1565826 39.5235719,60.0559006 39.5235719,54.0333441 C38.8839433,53.9059847 38.2441654,53.736469 37.4764618,53.5668049 C37.4764618,59.6316661 37.4337701,68.1565826 37.4337701,67.9021607 C37.9029306,82.4919384 8.98574665,77.9539058 17.3879439,49.4951631 C9.45490714,46.2718418 4.25159931,42.1578953 1.52187041,38.8072146 C0.157080591,36.7715421 1.6499454,34.6083618 3.91036454,36.1776435 C4.20890765,36.3896123 4.54999315,36.6017296 4.84853626,36.8136984 L4.84853626,7.37972093 C4.84868553,3.30822754 7.91949994,0 11.7154756,0 L65.327399,0 C69.1232254,0 72.194189,3.30822754 72.194189,7.37972093 L72.194189,36.8138468 L73.0898184,36.1777919 C75.3502375,34.6083618 76.8429531,36.7715421 75.478014,38.8072146 Z M68.5261392,10.7302532 C68.5261392,5.85289235 66.9480403,3.94428241 62.4270527,3.94428241 L14.999599,3.94428241 C10.2653024,3.94428241 8.94320425,5.55601727 8.94320425,10.7302532 L8.94320425,39.2737538 C19.0514261,44.532896 27.709624,43.5998176 32.4437713,43.4301535 C34.448339,43.3877003 35.7278948,43.7694817 36.4955984,44.5753491 C36.7477181,44.8257632 37.9917472,45.9774901 39.5238704,47.1200139 C39.6944878,44.7873179 41.0167352,43.3029425 44.5567101,43.4301535 C49.3762408,43.6421223 58.2475985,44.5753491 68.5262884,39.0191834 L68.5262884,10.7302532 L68.5261392,10.7302532 Z M49.717177,22.8178192 C44.6416456,22.8178192 40.5047338,26.6348907 40.5047338,31.3850405 C40.5047338,36.0928857 44.6417949,39.9524102 49.717177,39.9524102 C54.8352508,39.9524102 58.9296202,36.0928857 58.9296202,31.3850405 C58.9296202,26.6348907 54.8352508,22.8178192 49.717177,22.8178192 Z" id="slideshare" fill="#000000" fill-rule="nonzero"></path>
    </g>
</svg>