<?xml version="1.0" encoding="UTF-8"?>
<svg width="76px" height="71px" viewBox="0 0 76 71" version="1.1" xmlns="http://www.w3.org/2000/svg" xmlns:xlink="http://www.w3.org/1999/xlink">
    <!-- Generator: Sketch 48.1 (47250) - http://www.bohemiancoding.com/sketch -->
    <title>snapchat-ghost</title>
    <desc>Created with Sketch.</desc>
    <defs></defs>
    <g id="snapchat-ghost---f2ac" stroke="none" stroke-width="1" fill="none" fill-rule="evenodd" transform="translate(0.000000, -3.000000)">
        <path d="M75.8287137,58.6599658 C75.0552092,60.4531884 71.7854422,61.7707062 65.8300072,62.6895171 C65.5236336,63.100467 65.2696581,64.8557807 64.8641286,66.2231554 C64.6229187,67.0441702 64.0294682,67.5313804 63.0638865,67.5313804 L63.0198007,67.5306429 C61.6252365,67.5306429 60.1693678,66.8929772 57.2527321,66.8929772 C53.3160383,66.8929772 51.959177,67.7843521 48.9025653,69.9298175 C45.6618919,72.2070051 42.5537726,74.1726615 37.9142303,73.9713167 C33.2167977,74.3155942 29.3011819,71.4772962 27.0974884,69.9290799 C24.0227674,67.769159 22.6699139,66.8931247 18.7492513,66.8931247 C15.9491385,66.8931247 14.1868962,67.58935 12.9821827,67.58935 C11.783852,67.58935 11.3177602,66.8633286 11.1383001,66.2559016 C10.7370753,64.9004749 10.4845842,63.1194952 10.1700465,62.6965974 C7.10052079,62.2232527 0.178761869,61.0232966 0.00241888685,57.9543002 C-0.0418424906,57.1557039 0.526021045,56.4520612 1.32009284,56.3215634 C11.6487744,54.6318896 16.3009338,44.0932219 16.4943471,43.6458382 C16.5053314,43.6198773 16.5173548,43.5950964 16.5295266,43.5698729 C17.0806726,42.4581251 17.2040237,41.5270713 16.8951266,40.803705 C16.1455205,39.0489813 12.9063314,38.4194284 11.5435327,37.883689 C8.02335271,36.5021538 7.53351109,34.9147012 7.741768,33.8267017 C8.10350861,31.933323 10.9665586,30.7681782 12.640481,31.5473014 C13.9643893,32.1640213 15.140603,32.4761427 16.1357236,32.4761427 C16.8811735,32.4761427 17.3546871,32.2985462 17.6141547,32.1559085 C17.3108982,26.8551561 16.5601046,19.2801661 18.4583151,15.04986 C23.4714729,3.88104949 34.0970282,3.01312798 37.232163,3.01312798 C37.3722874,3.01312798 38.5890243,3 38.7328596,3 C46.4735446,3 53.9111216,6.95019342 57.543223,15.0427797 C59.4398007,19.2688082 58.6934602,26.812527 58.3885709,32.1547285 C58.623398,32.2833532 59.0353102,32.4411839 59.6649794,32.4702425 C60.6145299,32.4280559 61.7156345,32.1178522 62.9408323,31.5473014 C63.8440706,31.1275012 65.0792136,31.1842908 65.9808191,31.5558568 L65.9851237,31.5573318 C67.3917114,32.0566374 68.2768403,33.064099 68.2991058,34.1932525 C68.3264182,35.6309872 67.034127,36.8726873 64.4578569,37.8835415 C64.1434677,38.0067085 63.7610944,38.1276629 63.3543774,38.2559925 C61.9001415,38.7141441 59.7028308,39.4072718 59.1067084,40.8035575 C58.7981082,41.5269238 58.9202717,42.45724 59.471863,43.5689879 C59.484777,43.5937688 59.4965035,43.6194347 59.5073394,43.6449532 C59.7004558,44.0918944 64.3486074,54.6282019 74.682039,56.3206784 C75.6360426,56.476739 76.3390396,57.4825781 75.8287137,58.6599658 Z" id="snapchat-ghost" fill="#000000" fill-rule="nonzero"></path>
    </g>
</svg>