<?xml version="1.0" encoding="UTF-8"?>
<svg width="76px" height="76px" viewBox="0 0 76 76" version="1.1" xmlns="http://www.w3.org/2000/svg" xmlns:xlink="http://www.w3.org/1999/xlink">
    <!-- Generator: Sketch 48.1 (47250) - http://www.bohemiancoding.com/sketch -->
    <title>snapchat-square</title>
    <desc>Created with Sketch.</desc>
    <defs></defs>
    <g id="snapchat-square---f2ad" stroke="none" stroke-width="1" fill="none" fill-rule="evenodd">
        <path d="M3.55271368e-15,-3.55271368e-15 L76,-3.55271368e-15 L76,76 L3.55271368e-15,76 L3.55271368e-15,-3.55271368e-15 Z M66.7544643,53.4205357 C67.1276786,52.5214286 66.6017857,51.7580357 65.9232143,51.5883929 C58.06875,50.2991071 54.5401786,42.2410714 54.3875,41.9017857 C54.3705357,41.8848214 54.3705357,41.8678571 54.3535714,41.8508929 C53.9464286,41.0026786 53.8446429,40.2901786 54.0821429,39.7303571 C54.5232143,38.6616071 56.2026786,38.1357143 57.3053571,37.7794643 C57.6107143,37.6776786 57.8991071,37.5928571 58.1366071,37.4910714 C60.0875,36.7276786 61.0714286,35.7776786 61.0544643,34.675 C61.0375,33.8098214 60.3589286,33.0464286 59.2901786,32.65625 C58.6116071,32.3848214 57.6616071,32.3339286 56.9830357,32.65625 C56.05,33.0973214 55.21875,33.3348214 54.4892857,33.36875 C54.0142857,33.3517857 53.7089286,33.2330357 53.5223214,33.13125 C53.7598214,29.0598214 54.3196429,23.2919643 52.8776786,20.0517857 C50.1125,13.8598214 44.4633929,10.8401786 38.5767857,10.8401786 C38.475,10.8401786 37.5419643,10.8571429 37.4401786,10.8571429 C35.0651786,10.8571429 26.9901786,11.5357143 23.1732143,20.06875 C21.73125,23.3089286 22.2910714,29.09375 22.5285714,33.1482143 C22.3419643,33.25 21.96875,33.3857143 21.4089286,33.3857143 C20.6455357,33.3857143 19.7464286,33.1482143 18.7455357,32.6732143 C17.4732143,32.0794643 15.3017857,32.9785714 15.0303571,34.4205357 C14.8607143,35.2517857 15.2339286,36.4732143 17.9142857,37.525 C18.9491071,37.9491071 21.4089286,38.4241071 21.9857143,39.7642857 C22.2232143,40.3241071 22.1383929,41.0366071 21.7142857,41.8848214 C21.6973214,41.9017857 21.6803571,41.91875 21.6803571,41.9357143 C21.5276786,42.275 17.9991071,50.3330357 10.1446429,51.6223214 C9.53392857,51.7241071 9.10982143,52.2669643 9.14375,52.8776786 C9.2625,55.2357143 14.5214286,56.1517857 16.8625,56.5080357 C17.1,56.8303571 17.2866071,58.1875 17.5919643,59.2223214 C17.7276786,59.6803571 18.0839286,60.2401786 19,60.2401786 C19.9160714,60.2401786 21.25625,59.7142857 23.3767857,59.7142857 C26.3625,59.7142857 27.3803571,60.3928571 29.7214286,62.0383929 C31.4008929,63.2258929 34.3866071,65.3973214 37.9491071,65.1258929 C41.4776786,65.2785714 43.8357143,63.7857143 46.2955357,62.0383929 C48.6196429,60.3928571 49.6544643,59.7142857 52.6401786,59.7142857 C54.8455357,59.7142857 55.9651786,60.20625 57.0169643,60.20625 L57.0508929,60.20625 C57.7973214,60.20625 58.2383929,59.8330357 58.425,59.2053571 C58.7303571,58.1705357 58.9169643,56.8303571 59.1544643,56.5080357 C63.6839286,55.7955357 66.1607143,54.7946429 66.7544643,53.4205357 Z" id="snapchat-square" fill="#000000" fill-rule="nonzero"></path>
    </g>
</svg>