<?xml version="1.0" encoding="UTF-8"?>
<svg width="76px" height="76px" viewBox="0 0 76 76" version="1.1" xmlns="http://www.w3.org/2000/svg" xmlns:xlink="http://www.w3.org/1999/xlink">
    <!-- Generator: Sketch 48.1 (47250) - http://www.bohemiancoding.com/sketch -->
    <title>snapchat</title>
    <desc>Created with Sketch.</desc>
    <defs></defs>
    <g id="snapchat---f2ab" stroke="none" stroke-width="1" fill="none" fill-rule="evenodd">
        <path d="M38,0 C17.0080645,0 0,17.0080645 0,38 C0,58.9919355 17.0080645,76 38,76 C58.9919355,76 76,58.9919355 76,38 C76,17.0080645 58.9919355,0 38,0 Z M63.9717742,51.9282258 C63.4354839,53.1693548 61.1983871,54.0733871 57.1072581,54.7169355 C56.8927419,55.0080645 56.7241935,56.2185484 56.4483871,57.1532258 C56.2798387,57.7201613 55.8814516,58.0572581 55.2072581,58.0572581 L55.1766129,58.0572581 C54.2266129,58.0572581 53.2153226,57.6129032 51.2233871,57.6129032 C48.5266129,57.6129032 47.5919355,58.2258065 45.4927419,59.7120968 C43.2709677,61.2903226 41.141129,62.6387097 37.9540323,62.5008065 C34.7362903,62.7459677 32.0395161,60.7846774 30.5225806,59.7120968 C28.4080645,58.2258065 27.4887097,57.6129032 24.7919355,57.6129032 C22.8766129,57.6129032 21.666129,58.0879032 20.8387097,58.0879032 C20.0112903,58.0879032 19.6895161,57.5822581 19.5669355,57.1685484 C19.291129,56.233871 19.1225806,55.0080645 18.9080645,54.7169355 C16.7935484,54.3951613 12.0435484,53.5677419 11.9362903,51.4379032 C11.9056452,50.8862903 12.2887097,50.3959677 12.8403226,50.3040323 C19.9346774,49.1395161 23.1217742,41.8612903 23.2596774,41.5548387 C23.2596774,41.5395161 23.275,41.5241935 23.2903226,41.508871 C23.6733871,40.7427419 23.75,40.0991935 23.5354839,39.5935484 C23.0145161,38.3830645 20.7927419,37.9540323 19.8580645,37.5709677 C17.4370968,36.6209677 17.1,35.5177419 17.2532258,34.7669355 C17.4983871,33.4645161 19.4596774,32.6524194 20.608871,33.1887097 C21.5129032,33.6177419 22.325,33.8322581 23.0145161,33.8322581 C23.5201613,33.8322581 23.8572581,33.7096774 24.0258065,33.6177419 C23.8112903,29.9556452 23.3056452,24.7306452 24.6080645,21.8040323 C28.0556452,14.0967742 35.3491935,13.483871 37.4943548,13.483871 C37.5862903,13.483871 38.4290323,13.4685484 38.5209677,13.4685484 C43.8379032,13.4685484 48.9403226,16.1959677 51.4379032,21.7887097 C52.7403226,24.7153226 52.2346774,29.925 52.0201613,33.6024194 C52.1887097,33.6943548 52.4645161,33.8016129 52.8935484,33.8169355 C53.5524194,33.7862903 54.3032258,33.5717742 55.1459677,33.1733871 C55.758871,32.8822581 56.6169355,32.9282258 57.2298387,33.1733871 C58.1951613,33.5258065 58.8080645,34.2153226 58.8233871,34.9967742 C58.8387097,35.9927419 57.95,36.8508065 56.1879032,37.5403226 C55.9733871,37.6322581 55.7129032,37.708871 55.4370968,37.8008065 C54.441129,38.1225806 52.9241935,38.5975806 52.5258065,39.5629032 C52.3112903,40.0685484 52.4032258,40.7120968 52.7709677,41.4782258 C52.7862903,41.4935484 52.7862903,41.508871 52.8016129,41.5241935 C52.9395161,41.8306452 56.1266129,49.108871 63.2209677,50.2733871 C63.833871,50.4266129 64.308871,51.116129 63.9717742,51.9282258 Z" id="snapchat" fill="#000000" fill-rule="nonzero"></path>
    </g>
</svg>