<?xml version="1.0" encoding="UTF-8"?>
<svg width="76px" height="33px" viewBox="0 0 76 33" version="1.1" xmlns="http://www.w3.org/2000/svg" xmlns:xlink="http://www.w3.org/1999/xlink">
    <!-- Generator: Sketch 48.1 (47250) - http://www.bohemiancoding.com/sketch -->
    <title>soundcloud</title>
    <desc>Created with Sketch.</desc>
    <defs></defs>
    <g id="soundcloud---f1be" stroke="none" stroke-width="1" fill="none" fill-rule="evenodd" transform="translate(0.000000, -22.000000)">
        <path d="M13.2308129,38.5296869 L13.9196703,46.2482908 L13.2308129,54.3587621 C13.1951824,54.6556315 12.9695222,54.8812522 12.7082315,54.8812522 C12.4469407,54.8812522 12.2094037,54.6556315 12.2094037,54.3587621 L11.5443,46.2482908 L12.2094037,38.5296869 C12.2094037,38.2684419 12.4350639,38.0309464 12.7082315,38.0309464 C12.9695222,38.0309464 13.1951824,38.2684419 13.2308129,38.5296869 Z M15.7724592,33.1147895 C15.4399074,33.1147895 15.2142472,33.3760345 15.1786166,33.7085282 L14.584774,46.2482908 L15.1786166,54.3587621 C15.2142472,54.6912558 15.4399074,54.9525009 15.7724592,54.9525009 C16.0693805,54.9525009 16.3306713,54.6912558 16.3306713,54.3587621 L17.0195287,46.2482908 L16.3306713,33.7085282 C16.3306713,33.3760345 16.0693805,33.1147895 15.7724592,33.1147895 Z M18.8010564,30.2529687 C18.432874,30.2529687 18.1715833,30.5142137 18.1359527,30.8823318 L17.6133713,46.3195394 L18.1359527,54.3706369 C18.1715833,54.7387549 18.432874,55 18.8010564,55 C19.1336083,55 19.4305296,54.7387549 19.4305296,54.3706369 L20.0600027,46.3195394 L19.4305296,30.8823318 C19.4305296,30.5142137 19.1336083,30.2529687 18.8010564,30.2529687 Z M0.855133331,41.7240014 C0.688857406,41.7240014 0.593842591,41.854624 0.558212036,42.0208708 L0,46.2482908 L0.558212036,50.404462 C0.593842591,50.5707089 0.688857406,50.7013314 0.855133331,50.7013314 C1.02140926,50.7013314 1.11642407,50.5707089 1.15205463,50.404462 L1.81715833,46.2482908 L1.15205463,42.0208708 C1.11642407,41.854624 1.02140926,41.7240014 0.855133331,41.7240014 Z M3.65807036,39.1234257 C3.49179444,39.1234257 3.36114907,39.2540482 3.36114907,39.4202951 L2.60103055,46.2482908 L3.36114907,52.9100396 C3.36114907,53.1119108 3.49179444,53.2425333 3.65807036,53.2425333 C3.82434629,53.2425333 3.95499166,53.1119108 3.99062221,52.9456639 L4.84575554,46.2482908 L3.99062221,39.4202951 C3.95499166,39.2540482 3.82434629,39.1234257 3.65807036,39.1234257 Z M6.66291387,37.7697013 C6.46100739,37.7697013 6.29473147,37.9359482 6.27097776,38.1615689 L5.58212036,46.2482908 L6.27097776,54.0618928 C6.30660832,54.2637639 6.47288424,54.4300108 6.66291387,54.4300108 C6.86482035,54.4300108 7.03109628,54.2637639 7.03109628,54.0618928 L7.85059906,46.2482908 L7.03109628,38.1615689 C7.03109628,37.9359482 6.86482035,37.7697013 6.66291387,37.7697013 Z M9.66775739,37.5084563 C9.4420972,37.5084563 9.24019072,37.6747031 9.24019072,37.9359482 L8.55133331,46.2482908 L9.24019072,54.2993883 C9.24019072,54.5606333 9.4420972,54.7268802 9.66775739,54.7268802 C9.89341757,54.7268802 10.0953241,54.5606333 10.1309546,54.2993883 L10.8910731,46.2482908 L10.1309546,37.9359482 C10.0953241,37.6747031 9.89341757,37.5084563 9.66775739,37.5084563 Z M38.3384777,24.3393307 C38.2078323,24.2443325 38.0059258,24.1730838 37.8396499,24.1730838 C37.5783592,24.1730838 37.3408221,24.268082 37.1745462,24.3987046 C36.948886,24.6005757 36.8063638,24.8974451 36.7826101,25.1943145 L36.7826101,25.2893127 L36.390674,46.2720403 L36.5925805,50.1313422 L36.794487,53.8956459 C36.8301175,54.4537603 37.2933147,54.9168766 37.8515268,54.9168766 C38.4097388,54.9168766 38.872936,54.4537603 38.872936,53.8956459 L39.3361332,46.2720403 L38.872936,25.1943145 C38.8254286,24.8380712 38.635399,24.5055775 38.3384777,24.3393307 Z M35.1673583,26.1561713 C35.0010823,26.0611731 34.8348064,25.9899244 34.6447768,25.9899244 C34.4547471,25.9899244 34.2765944,26.0611731 34.1221953,26.1561713 C33.8609046,26.3224181 33.6946286,26.6192875 33.6946286,26.9517812 L33.6589981,27.1536524 L33.3264462,46.2482908 C33.3264462,46.2482908 33.3264462,46.2839151 33.6946286,54.0381432 L33.6946286,54.0737675 C33.6946286,54.2756387 33.7658897,54.4656351 33.8965351,54.631882 C34.0984416,54.8575027 34.3597323,55 34.6566536,55 C34.9179444,55 35.1554814,54.8693775 35.3217573,54.7031306 C35.5236638,54.5368838 35.6186786,54.311263 35.6186786,54.0381432 L35.6543092,53.2425333 L36.0224916,46.2839151 L35.6305555,26.9517812 C35.5949249,26.6192875 35.428649,26.3224181 35.1673583,26.1561713 Z M21.9365453,28.8279957 C21.5683629,28.8279957 21.2476879,29.1604894 21.2476879,29.552357 L20.7251064,46.2482908 L21.2476879,54.2281396 C21.2833185,54.6200072 21.5802398,54.9168766 21.9365453,54.9168766 C22.3284814,54.9168766 22.6254027,54.6200072 22.6610333,54.2281396 L23.2548759,46.2482908 L22.6610333,29.552357 C22.6372796,29.1604894 22.3403583,28.8279957 21.9365453,28.8279957 Z M66.6766461,36.2853544 C65.3939461,36.2853544 64.1706304,36.5465995 63.0423295,37.0097157 C62.282211,28.602375 55.227361,22 46.6166434,22 C44.5025638,22 42.4597453,22.3918676 40.6425869,23.1162289 C39.918099,23.3774739 39.7161925,23.638719 39.7161925,24.2087082 L39.7161925,53.8600216 C39.7161925,54.4537603 40.1793897,54.8812522 40.7376018,54.9525009 L66.6647693,54.9525009 C71.8074461,54.9525009 75.9999748,50.7963296 75.9999748,45.654552 C76.0118517,40.4771501 71.819323,36.2853544 66.6766461,36.2853544 Z M31.4380268,29.1248651 C30.939199,29.1248651 30.5472629,29.5167326 30.5116323,30.0510975 L30.1196962,46.2839151 L30.5116323,54.0737675 C30.5472629,54.5725081 30.939199,54.9643757 31.4380268,54.9643757 C31.9368546,54.9643757 32.3287907,54.5725081 32.3287907,54.0737675 L32.7919879,46.2839151 L32.3287907,30.0510975 C32.2931601,29.5167326 31.9368546,29.1248651 31.4380268,29.1248651 Z M25.0720342,28.1986326 C24.6800981,28.1986326 24.3119157,28.5667506 24.3119157,28.9942425 L23.8487185,46.2482908 L24.3119157,54.1925153 C24.3475462,54.6200072 24.6800981,54.9525009 25.0720342,54.9525009 C25.4996009,54.9525009 25.8321527,54.6200072 25.8677833,54.1925153 L26.3903648,46.2482908 L25.8677833,28.9942425 C25.8321527,28.5667506 25.4996009,28.1986326 25.0720342,28.1986326 Z M28.2431536,28.602375 C27.7799564,28.602375 27.4236509,28.970493 27.4236509,29.4217344 L26.9604536,46.2482908 L27.4236509,54.1331414 C27.4592814,54.5962576 27.7918333,54.9525009 28.2431536,54.9525009 C28.694474,54.9525009 29.0626564,54.5843829 29.0626564,54.1331414 L29.5614842,46.2482908 L29.0626564,29.4217344 C29.0626564,28.9586182 28.7063509,28.602375 28.2431536,28.602375 Z" id="soundcloud" fill="#000000" fill-rule="nonzero"></path>
    </g>
</svg>