<?xml version="1.0" encoding="UTF-8"?>
<svg width="76px" height="76px" viewBox="0 0 76 76" version="1.1" xmlns="http://www.w3.org/2000/svg" xmlns:xlink="http://www.w3.org/1999/xlink">
    <!-- Generator: Sketch 48.1 (47250) - http://www.bohemiancoding.com/sketch -->
    <title>spotify</title>
    <desc>Created with Sketch.</desc>
    <defs></defs>
    <g id="spotify---f1bc" stroke="none" stroke-width="1" fill="none" fill-rule="evenodd">
        <path d="M38,0 C17.0233871,0 0,17.0233871 0,38 C0,58.9766129 17.0233871,76 38,76 C58.9766129,76 76,58.9766129 76,38 C76,17.0233871 58.9766129,0 38,0 Z M53.4298387,55.9120968 C52.7862903,55.9120968 52.3879032,55.7129032 51.7903226,55.3604839 C42.2290323,49.5991935 31.1048387,49.3540323 20.1185484,51.6064516 C19.5209677,51.7596774 18.7395161,52.0048387 18.2951613,52.0048387 C16.808871,52.0048387 15.8741935,50.825 15.8741935,49.583871 C15.8741935,48.0056452 16.808871,47.2548387 17.9580645,47.0096774 C30.5072581,44.2362903 43.3322581,44.4814516 54.2725806,51.0241935 C55.2072581,51.6217742 55.758871,52.1580645 55.758871,53.5524194 C55.758871,54.9467742 54.6709677,55.9120968 53.4298387,55.9120968 Z M57.5516129,45.8604839 C56.7548387,45.8604839 56.2185484,45.5080645 55.6669355,45.2169355 C46.0903226,39.5475806 31.8096774,37.2645161 19.1072581,40.7120968 C18.3717742,40.9112903 17.9733871,41.1104839 17.283871,41.1104839 C15.6443548,41.1104839 14.3112903,39.7774194 14.3112903,38.1379032 C14.3112903,36.4983871 15.1080645,35.4104839 16.6862903,34.966129 C20.9459677,33.7709677 25.2975806,32.8822581 31.6717742,32.8822581 C41.616129,32.8822581 51.2233871,35.3491935 58.7927419,39.8540323 C60.033871,40.5895161 60.5241935,41.5395161 60.5241935,42.8725806 C60.508871,44.5274194 59.2217742,45.8604839 57.5516129,45.8604839 Z M62.3016129,34.1846774 C61.5048387,34.1846774 61.0145161,33.9854839 60.325,33.5870968 C49.4153226,27.075 29.9096774,25.5120968 17.283871,29.0362903 C16.7322581,29.1895161 16.0427419,29.4346774 15.3072581,29.4346774 C13.2846774,29.4346774 11.7370968,27.8564516 11.7370968,25.8185484 C11.7370968,23.7346774 13.0241935,22.5548387 14.4032258,22.1564516 C19.7967742,20.5782258 25.833871,19.8274194 32.4072581,19.8274194 C43.5927419,19.8274194 55.3145161,22.1564516 63.8798387,27.1516129 C65.075,27.841129 65.8564516,28.791129 65.8564516,30.6145161 C65.8564516,32.6983871 64.1709677,34.1846774 62.3016129,34.1846774 Z" id="spotify" fill="#000000" fill-rule="nonzero"></path>
    </g>
</svg>