<?xml version="1.0" encoding="UTF-8"?>
<svg width="64px" height="76px" viewBox="0 0 64 76" version="1.1" xmlns="http://www.w3.org/2000/svg" xmlns:xlink="http://www.w3.org/1999/xlink">
    <!-- Generator: Sketch 48.1 (47250) - http://www.bohemiancoding.com/sketch -->
    <title>stack-overflow</title>
    <desc>Created with Sketch.</desc>
    <defs></defs>
    <g id="stack-overflow---f16c" stroke="none" stroke-width="1" fill="none" fill-rule="evenodd" transform="translate(-6.000000, 0.000000)">
        <path d="M55.1917591,45.4642857 L24.5610143,31.1294643 L27.3840465,24.9375 L58.0316957,39.30625 L55.1917591,45.4642857 Z M63.3058637,32.5714286 L37.3576334,10.80625 L33.0470153,16.03125 L58.9952456,37.7964286 L63.3058637,32.5714286 Z M70,27.19375 L49.8330692,0 L44.4236661,4.07142857 L64.5905969,31.2651786 L70,27.19375 Z M54.6846276,47.3303571 L21.602747,40.3241071 L20.2165874,46.9910714 L53.298468,53.9464286 L54.6846276,47.3303571 Z M60.0264131,69.2142857 L12.7617538,69.2142857 L12.7617538,48.8571429 L6,48.8571429 L6,76 L66.7712625,76 L66.7712625,48.8571429 L60.0095087,48.8571429 L60.0095087,69.2142857 L60.0264131,69.2142857 Z M53.298468,55.6428571 L19.4896989,55.6428571 L19.4896989,62.3776786 L53.298468,62.3776786 L53.298468,55.6428571 Z" id="stack-overflow" fill="#000000" fill-rule="nonzero"></path>
    </g>
</svg>