<?xml version="1.0" encoding="UTF-8"?>
<svg width="61px" height="76px" viewBox="0 0 61 76" version="1.1" xmlns="http://www.w3.org/2000/svg" xmlns:xlink="http://www.w3.org/1999/xlink">
    <!-- Generator: Sketch 48.1 (47250) - http://www.bohemiancoding.com/sketch -->
    <title>stack-exchange</title>
    <desc>Created with Sketch.</desc>
    <defs></defs>
    <g id="stack-exchange---f18d" stroke="none" stroke-width="1" fill="none" fill-rule="evenodd" transform="translate(-8.000000, 0.000000)">
        <path d="M8,49.3257813 L69,49.3257813 L69,52.5914063 C69,58.1875 64.6692513,62.6851563 59.3481948,62.6851563 L56.5398595,62.6851563 L43.7102011,76 L43.7102011,62.6851563 L17.6518052,62.6851563 C12.3307487,62.6851563 8,58.1875 8,52.5914063 L8,49.3257813 Z M8,45.8226562 L69,45.8226562 L69,33.2054688 L8,33.2054688 L8,45.8226562 Z M8,29.5835937 L69,29.5835937 L69,16.9664062 L8,16.9664062 L8,29.5835937 Z M59.3334141,0 L17.6518052,0 C12.3307487,0 8,4.49765625 8,10.0492187 L8,13.359375 L69,13.359375 L69,10.0492187 C68.9852193,4.49765625 64.6544706,0 59.3334141,0 Z" id="stack-exchange" fill="#000000" fill-rule="nonzero"></path>
    </g>
</svg>