<?xml version="1.0" encoding="UTF-8"?>
<svg width="76px" height="76px" viewBox="0 0 76 76" version="1.1" xmlns="http://www.w3.org/2000/svg" xmlns:xlink="http://www.w3.org/1999/xlink">
    <!-- Generator: Sketch 48.1 (47250) - http://www.bohemiancoding.com/sketch -->
    <title>steam</title>
    <desc>Created with Sketch.</desc>
    <defs></defs>
    <g id="steam---f1b6" stroke="none" stroke-width="1" fill="none" fill-rule="evenodd">
        <path d="M76,38 C76,58.9919355 58.9612903,76 37.9387097,76 C20.5016129,76 5.82258065,64.308871 1.31774194,48.3580645 L15.9048387,54.3798387 C16.8854839,59.2983871 21.2524194,63.0217742 26.4620968,63.0217742 C32.4685484,63.0217742 37.4790323,58.0572581 37.2185484,51.7596774 L50.166129,42.5354839 C58.1491935,42.7346774 64.8451613,36.2685484 64.8451613,28.208871 C64.8451613,20.3024194 58.4096774,13.8822581 50.4879032,13.8822581 C42.566129,13.8822581 36.1306452,20.3177419 36.1306452,28.208871 L36.1306452,28.3927419 L27.0596774,41.5241935 C24.6846774,41.3862903 22.3556452,42.0451613 20.3943548,43.3782258 L0,34.9508065 C1.56290323,15.383871 17.9427419,0 37.9387097,0 C58.9612903,0 76,17.0080645 76,38 Z M23.8572581,57.658871 L19.183871,55.7282258 C20.0426604,57.5114994 21.5254878,58.9180048 23.3516129,59.6814516 C27.4733871,61.3975806 32.2080645,59.4362903 33.9241935,55.3298387 C34.7516129,53.3379032 34.7669355,51.1467742 33.9395161,49.1548387 C33.1120968,47.1629032 31.5645161,45.6 29.5725806,44.7725806 C27.5959677,43.9451613 25.4814516,43.9758065 23.6120968,44.6806452 L28.4387097,46.6725806 C31.4725806,47.9290323 32.9129032,51.4072581 31.641129,54.441129 C30.3693548,57.4903226 26.891129,58.9153226 23.8572581,57.658871 Z M50.4879032,37.7548387 C45.2169355,37.7548387 40.9266129,33.4645161 40.9266129,28.208871 C40.9266129,22.9532258 45.2169355,18.6629032 50.4879032,18.6629032 C55.758871,18.6629032 60.0491935,22.9532258 60.0491935,28.208871 C60.0491935,33.4645161 55.7741935,37.7548387 50.4879032,37.7548387 Z M50.5032258,35.3645161 C54.4717742,35.3645161 57.6895161,32.1467742 57.6895161,28.1935484 C57.6895161,24.225 54.4717742,21.0225806 50.5032258,21.0225806 C46.5346774,21.0225806 43.3169355,24.2403226 43.3169355,28.1935484 C43.3322581,32.1467742 46.55,35.3645161 50.5032258,35.3645161 Z" id="steam" fill="#000000" fill-rule="nonzero"></path>
    </g>
</svg>