<?xml version="1.0" encoding="UTF-8"?>
<svg width="76px" height="76px" viewBox="0 0 76 76" version="1.1" xmlns="http://www.w3.org/2000/svg" xmlns:xlink="http://www.w3.org/1999/xlink">
    <!-- Generator: Sketch 48.1 (47250) - http://www.bohemiancoding.com/sketch -->
    <title>steam-square</title>
    <desc>Created with Sketch.</desc>
    <defs></defs>
    <g id="steam-square---f1b7" stroke="none" stroke-width="1" fill="none" fill-rule="evenodd">
        <path d="M31.4178571,55.0491071 C32.7241071,51.9107143 31.2482143,48.3142857 28.0928571,47.0080357 L23.0883929,44.9383929 C25.0223214,44.2089286 27.2107143,44.175 29.2633929,45.0232143 C31.3330357,45.8883929 32.9276786,47.5 33.7928571,49.5526786 C34.6410714,51.6223214 34.6410714,53.8955357 33.7758929,55.9482143 C31.9946429,60.20625 27.0919643,62.225 22.8169643,60.44375 C20.8491071,59.6294643 19.35625,58.1366071 18.5080357,56.3383929 L23.3428571,58.3401786 C26.4982143,59.6633929 30.1116071,58.1875 31.4178571,55.0491071 Z M0,48.7214286 L15.1151786,54.98125 C16.1330357,60.0705357 20.6625,63.9214286 26.0571429,63.9214286 C32.2660714,63.9214286 37.4741071,58.78125 37.2026786,52.25 L50.6044643,42.6991071 C58.8660714,42.9026786 65.8044643,36.2017857 65.8044643,27.8553571 C65.8044643,19.6785714 59.1375,13.0116071 50.94375,13.0116071 C42.75,13.0116071 36.0830357,19.6785714 36.0830357,27.8553571 L36.0830357,28.0419643 L26.6848214,41.6473214 C24.225,41.5116071 21.8160714,42.1732143 19.7803571,43.5642857 L0,35.4044643 L0,0 L76,0 L76,76 L0,76 L0,48.7214286 Z M50.94375,37.7455357 C45.48125,37.7455357 41.0366071,33.3178571 41.0366071,27.8553571 C41.0366071,22.3928571 45.48125,17.9651786 50.94375,17.9651786 C56.40625,17.9651786 60.8508929,22.4098214 60.8508929,27.8553571 C60.8508929,33.3008929 56.40625,37.7455357 50.94375,37.7455357 Z M50.9607143,35.26875 C55.0660714,35.26875 58.4080357,31.94375 58.4080357,27.8383929 C58.4080357,23.7330357 55.0830357,20.4080357 50.9607143,20.4080357 C46.8553571,20.4080357 43.5133929,23.7330357 43.5133929,27.8383929 C43.5133929,31.94375 46.8553571,35.26875 50.9607143,35.26875 Z" id="steam-square" fill="#000000" fill-rule="nonzero"></path>
    </g>
</svg>