<?xml version="1.0" encoding="UTF-8"?>
<svg width="76px" height="58px" viewBox="0 0 76 58" version="1.1" xmlns="http://www.w3.org/2000/svg" xmlns:xlink="http://www.w3.org/1999/xlink">
    <!-- Generator: Sketch 48.1 (47250) - http://www.bohemiancoding.com/sketch -->
    <title>stumbleupon</title>
    <desc>Created with Sketch.</desc>
    <defs></defs>
    <g id="stumbleupon---f1a4" stroke="none" stroke-width="1" fill="none" fill-rule="evenodd" transform="translate(0.000000, -9.000000)">
        <path d="M76,39.5024733 L76,50.0273366 C76,59.4045821 68.3984888,67 59.0137204,67 C49.6742891,67 42.0274408,59.4800833 42.0274408,50.1934392 L42.0274408,39.5930747 L47.2109763,42.0091122 L54.9333864,39.7138766 L54.9333864,50.374642 C54.9333864,52.5943765 56.7468682,54.3762041 58.9683834,54.3762041 C61.1898986,54.3762041 63.0184927,52.5943765 63.0184927,50.374642 L63.0184927,39.5024733 L76,39.5024733 Z M42.0425532,30.7141369 L47.2260887,33.1301744 L54.9484987,30.8349388 L54.9484987,25.4592554 C54.9484987,16.3236136 47.2260887,9 38.0075562,9 C28.8192484,9 21.0666136,16.2783129 21.0666136,25.3384535 L21.0666136,49.8612341 C21.0666136,52.111169 19.2531318,53.8929966 17.0316166,53.8929966 C14.8101014,53.8929966 12.9966196,52.111169 12.9966196,49.8612341 L12.9966196,39.5024733 L0,39.5024733 L0,50.0273366 C0,59.3894819 7.60151123,66.9848998 16.9862796,66.9848998 C26.2954862,66.9848998 33.9725592,59.5102838 33.9725592,50.2538401 L33.9725592,26.0481645 C33.9725592,23.8284301 35.786041,22.016402 38.0075562,22.016402 C40.2290714,22.016402 42.0425532,23.8284301 42.0425532,26.0481645 L42.0425532,30.7141369 Z" id="stumbleupon" fill="#000000" fill-rule="nonzero"></path>
    </g>
</svg>