<?xml version="1.0" encoding="UTF-8"?>
<svg width="76px" height="76px" viewBox="0 0 76 76" version="1.1" xmlns="http://www.w3.org/2000/svg" xmlns:xlink="http://www.w3.org/1999/xlink">
    <!-- Generator: Sketch 48.1 (47250) - http://www.bohemiancoding.com/sketch -->
    <title>stumbleupon-circle</title>
    <desc>Created with Sketch.</desc>
    <defs></defs>
    <g id="stumbleupon-circle---f1a3" stroke="none" stroke-width="1" fill="none" fill-rule="evenodd">
        <path d="M38,0 C17.0080645,0 0,17.0080645 0,38 C0,58.9919355 17.0080645,76 38,76 C58.9919355,76 76,58.9919355 76,38 C76,17.0080645 58.9919355,0 38,0 Z M38,27.1975806 C36.4983871,27.1975806 35.2725806,28.4233871 35.2725806,29.925 L35.2725806,46.3048387 C35.2725806,52.5717742 30.0782258,57.6282258 23.7959677,57.6282258 C17.4524194,57.6282258 12.3193548,52.4951613 12.3193548,46.1516129 L12.3193548,39.0266129 L21.0991935,39.0266129 L21.0991935,46.0443548 C21.0991935,47.5766129 22.325,48.7717742 23.8266129,48.7717742 C25.3282258,48.7717742 26.5540323,47.5612903 26.5540323,46.0443548 L26.5540323,29.4346774 C26.5540323,23.3056452 31.7943548,18.3870968 38,18.3870968 C44.2362903,18.3870968 49.4459677,23.3362903 49.4459677,29.5112903 L49.4459677,33.1427419 L44.2209677,34.6903226 L40.7120968,33.0508065 L40.7120968,29.8943548 C40.7274194,28.4233871 39.5016129,27.1975806 38,27.1975806 Z M63.6806452,46.1362903 C63.6806452,52.4798387 58.5475806,57.6129032 52.2040323,57.6129032 C45.891129,57.6129032 40.7274194,52.5258065 40.7274194,46.2435484 L40.7274194,39.0725806 L44.2362903,40.7120968 L49.4612903,39.1645161 L49.4612903,46.3814516 C49.4612903,47.8830645 50.6870968,49.0782258 52.1887097,49.0782258 C53.6903226,49.0782258 54.916129,47.8677419 54.916129,46.3814516 L54.916129,39.0266129 L63.6959677,39.0266129 C63.6806452,46.0596774 63.6806452,46.1362903 63.6806452,46.1362903 Z" id="stumbleupon-circle" fill="#000000" fill-rule="nonzero"></path>
    </g>
</svg>