<?xml version="1.0" encoding="UTF-8"?>
<svg width="76px" height="76px" viewBox="0 0 76 76" version="1.1" xmlns="http://www.w3.org/2000/svg" xmlns:xlink="http://www.w3.org/1999/xlink">
    <!-- Generator: Sketch 48.1 (47250) - http://www.bohemiancoding.com/sketch -->
    <title>superpowers</title>
    <desc>Created with Sketch.</desc>
    <defs></defs>
    <g id="superpowers---f2dd" stroke="none" stroke-width="1" fill="none" fill-rule="evenodd">
        <path d="M76,0 C61.86875,1.86607143 47.7035714,3.73214286 33.5892857,5.59821429 C17.9821429,7.71875 5.88660714,20.30625 4.91964286,36.1339286 C4.35982143,45.5491071 7.97321429,54.7098214 14.725,61.275 L0,76 C14.13125,74.1339286 28.2455357,72.2678571 42.3767857,70.4017857 C57.95,68.28125 70.0794643,55.6767857 70.9955357,39.9 C71.5892857,30.4848214 67.9419643,21.3241071 61.2071429,14.7589286 L76,0 Z M62.4794643,39.4080357 C61.7669643,52.8946429 49.9258929,63.0223214 36.5580357,62.225 C23.0714286,61.4276786 12.6892857,50.1803571 13.4357143,36.6089286 C14.1991071,23.1732143 26.0401786,12.9776786 39.3910714,13.7919643 C52.84375,14.5892857 63.2258929,25.8366071 62.4794643,39.4080357 Z" id="superpowers" fill="#000000" fill-rule="nonzero"></path>
    </g>
</svg>