<?xml version="1.0" encoding="UTF-8"?>
<svg width="76px" height="76px" viewBox="0 0 76 76" version="1.1" xmlns="http://www.w3.org/2000/svg" xmlns:xlink="http://www.w3.org/1999/xlink">
    <!-- Generator: Sketch 48.1 (47250) - http://www.bohemiancoding.com/sketch -->
    <title>telegram</title>
    <desc>Created with Sketch.</desc>
    <defs></defs>
    <g id="telegram---f2c6" stroke="none" stroke-width="1" fill="none" fill-rule="evenodd">
        <path d="M38,0 C17.0080645,0 0,17.0080645 0,38 C0,58.9919355 17.0080645,76 38,76 C58.9919355,76 76,58.9919355 76,38 C76,17.0080645 58.9919355,0 38,0 Z M56.6629032,26.0330645 L50.4266129,55.4217742 C49.9669355,57.5056452 48.7258065,58.0112903 46.9943548,57.0306452 L37.4943548,50.0282258 L32.9129032,54.441129 C32.4072581,54.9467742 31.9782258,55.3758065 30.9975806,55.3758065 L31.6717742,45.7072581 L49.2774194,29.8024194 C50.0435484,29.1282258 49.108871,28.7451613 48.0975806,29.4193548 L26.3395161,43.1177419 L16.9620968,40.191129 C14.9241935,39.5475806 14.8782258,38.1532258 17.391129,37.1725806 L54.0274194,23.0451613 C55.7282258,22.4322581 57.2145161,23.458871 56.6629032,26.0330645 Z" id="telegram" fill="#000000" fill-rule="nonzero"></path>
    </g>
</svg>