<?xml version="1.0" encoding="UTF-8"?>
<svg width="49px" height="76px" viewBox="0 0 49 76" version="1.1" xmlns="http://www.w3.org/2000/svg" xmlns:xlink="http://www.w3.org/1999/xlink">
    <!-- Generator: Sketch 48.1 (47250) - http://www.bohemiancoding.com/sketch -->
    <title>tencent-weibo</title>
    <desc>Created with Sketch.</desc>
    <defs></defs>
    <g id="tencent-weibo---f1d5" stroke="none" stroke-width="1" fill="none" fill-rule="evenodd" transform="translate(-14.000000, 0.000000)">
        <path d="M20.9068984,73.5927548 C21.1127326,76.5471543 16.8490234,76.8886176 16.5402721,74.0232955 C14.8347884,54.7380446 21.1127326,38.4665781 31.4485518,27.5249077 C29.1549703,22.47719 32.8011768,16.0784655 38.8879893,16.0784655 C43.3428303,16.0784655 46.9890368,19.7306377 46.9890368,24.2587374 C46.9890368,30.791078 39.7113262,34.7698672 34.2126116,30.9543865 C24.5531049,41.5397474 19.3043318,56.1632825 20.9068984,73.5927548 Z M38.5057257,0 C19.9953468,0 8.46862944,19.9236387 16.701999,35.9724117 C17.9811117,38.5556555 21.8919622,36.640492 20.5687421,33.9830171 C13.7615098,20.2354095 23.6562557,4.40932987 38.5057257,4.40932987 C49.5913697,4.40932987 58.6333737,13.5249142 58.6333737,24.7338167 C58.6333737,38.2141922 45.8569485,47.5821624 33.9773725,44.4941469 C31.1692054,43.8854515 30.2135464,48.1166267 33.0070111,48.8143994 C49.2826183,52.2587244 63,39.9066623 63,24.7189705 C63,11.0752865 52.0319756,0 38.5057257,0 Z" id="tencent-weibo" fill="#000000" fill-rule="nonzero"></path>
    </g>
</svg>