<?xml version="1.0" encoding="UTF-8"?>
<svg width="76px" height="76px" viewBox="0 0 76 76" version="1.1" xmlns="http://www.w3.org/2000/svg" xmlns:xlink="http://www.w3.org/1999/xlink">
    <!-- Generator: Sketch 48.1 (47250) - http://www.bohemiancoding.com/sketch -->
    <title>themeisle</title>
    <desc>Created with Sketch.</desc>
    <defs></defs>
    <g id="themeisle---f2b2" stroke="none" stroke-width="1" fill="none" fill-rule="evenodd">
        <path d="M30.875,13.1049531 C30.875,11.6205781 31.8080781,9.88178125 33.5045703,9.88178125 C35.1584609,9.88178125 36.1339922,11.6205781 36.1339922,13.1049531 C36.1339922,14.6316328 35.1584609,16.328125 33.5045703,16.328125 C31.8080781,16.328125 30.875,14.6316328 30.875,13.1049531 Z M76,36.8549531 C76,42.1988516 74.3035078,52.0380313 70.6137969,56.109375 C67.2208125,59.7992344 57.6362031,65.1852891 52.6740859,66.5849063 L52.5044219,66.6273594 L52.5044219,71.4621172 C52.5044219,73.8795703 50.6382656,76 48.1785078,76 C46.6941328,76 45.2945156,75.1518281 44.5311016,73.8794219 C43.7255313,75.1518281 42.3259141,76 40.8415391,76 C39.3571641,76 37.9575469,75.1518281 37.1516797,73.8794219 C36.3884141,75.1518281 34.9887969,76 33.5045703,76 C31.9777422,76 30.6205781,75.1518281 29.8147109,73.8794219 C29.0512969,75.1518281 27.6518281,76 26.1674531,76 C23.3683672,76 21.7990859,73.6674531 21.7990859,71.1227891 C19.3816328,72.9463438 16.4976406,74.0066328 13.4018281,74.0066328 C10.1362031,74.0066328 6.95533594,72.7768281 4.453125,70.6137969 C5.97980469,70.5713438 7.50663281,70.2744688 8.94855469,69.765625 C5.85259375,68.9174531 3.09596094,66.9665391 1.22980469,64.3794219 C4.40191406,65.0689141 8.08895313,64.6277578 11.1963438,62.7253828 C7.93071875,59.4597578 2.79908594,53.9887969 1.0176875,49.7477891 C0.169664062,47.7544219 0,45.0825469 0,42.9621172 C0,35.5826953 3.01120313,19.2121172 12.8080781,19.2121172 C14.3772109,19.2121172 15.6071641,19.9332266 16.2433672,21.4174531 C16.7895287,20.6182363 17.3844053,19.8534233 18.0246172,19.1273594 C18.3214922,18.7455781 18.8727891,18.3214922 19.0849062,17.8974062 C20.2722578,16.0313984 20.8237031,14.7591406 22.3080781,12.8505312 C27.1003828,6.74321875 34.4375,2.54466406 42.3259141,2.54466406 C43.2165391,2.54466406 44.1071641,2.58696875 44.9553359,2.71432813 C46.5669219,0.975382812 48.8147109,0 51.1474063,0 C53.3102891,0 55.5580781,0.890625 57.0849063,2.41745313 C57.2121172,2.5448125 57.296875,2.75678125 57.296875,2.92629688 C57.296875,3.47759375 55.7701953,4.91966406 55.3884141,5.34375 C56.0246172,5.55586719 57.7209609,6.36173437 57.7209609,7.125 C57.7209609,7.54908594 57.296875,7.88841406 57.0424531,8.18528906 C61.7076953,12.2990859 64.3795703,18.1518281 65.3974063,24.2165391 C66.0336094,23.453125 66.9240859,22.9441328 67.9420703,22.9441328 C69.5112031,22.9441328 71.0380313,24.0045703 72.1830781,25.0224062 C75.2790391,27.7790391 76,32.9106719 76,36.8549531 Z M27.90625,13.2744687 C27.90625,15.9887969 29.7722578,18.7878828 32.6987031,18.7878828 C35.625,18.7878828 37.4910078,15.9887969 37.4910078,13.2744687 C37.4910078,10.6025937 35.625,7.80350781 32.6987031,7.80350781 C29.7722578,7.80350781 27.90625,10.6027422 27.90625,13.2744687 Z M35.2856719,28.796875 C35.2856719,25.8705781 35.8369688,22.9865859 36.5579297,20.1450469 C28.8333906,31.950875 34.5494219,47.5423047 46.7790391,47.5423047 C49.9597578,47.5423047 53.0981719,46.3972578 55.6852891,44.5735547 C55.9821641,43.4708125 56.2365859,42.3682188 56.2365859,41.2230234 C56.2365859,39.1024453 55.3035078,38.0423047 53.1829297,38.0423047 C52.5044219,38.0423047 51.8257656,38.1695156 51.1895625,38.2967266 C41.7870859,40.1771328 35.2856719,38.8413437 35.2856719,28.796875 Z M29.1786563,66.6273594 C29.1786563,64.9733203 27.8637969,63.5313984 26.1674531,63.5313984 C24.4709609,63.5313984 23.1987031,64.9734687 23.1987031,66.6273594 L23.1987031,71.4621172 C23.1987031,73.1161562 24.4709609,74.6003828 26.1674531,74.6003828 C27.8637969,74.6003828 29.1786563,73.1583125 29.1786563,71.4621172 L29.1786563,66.6273594 Z M36.4733203,66.6273594 C36.4733203,64.9733203 35.2009141,63.5313984 33.5045703,63.5313984 C31.8080781,63.5313984 30.4933672,64.9734687 30.4933672,66.6273594 L30.4933672,71.4621172 C30.4933672,73.1161562 31.8080781,74.6003828 33.5045703,74.6003828 C35.2009141,74.6003828 36.4733203,73.1160078 36.4733203,71.4621172 L36.4733203,66.6273594 Z M43.8525938,66.6273594 C43.8525938,64.9733203 42.5378828,63.5313984 40.8415391,63.5313984 C39.1450469,63.5313984 37.8303359,64.9734687 37.8303359,66.6273594 L37.8303359,71.4621172 C37.8303359,73.1161562 39.1450469,74.6003828 40.8415391,74.6003828 C42.5378828,74.6003828 43.8525938,73.1583125 43.8525938,71.4621172 L43.8525938,66.6273594 Z M51.2321641,66.6273594 C51.2321641,64.9733203 49.9174531,63.5313984 48.2209609,63.5313984 C46.5246172,63.5313984 45.2097578,64.9734687 45.2097578,66.6273594 L45.2097578,71.4621172 C45.2097578,73.1161562 46.5246172,74.6003828 48.2209609,74.6003828 C49.9174531,74.6003828 51.2321641,73.1160078 51.2321641,71.4621172 L51.2321641,66.6273594 Z M62.5981719,42.453125 C58.0178359,51.2320156 49.1964922,57.6786563 39.0602891,57.6786563 C24.7255313,57.6786563 15.2255313,45.125 15.2255313,31.46875 C15.2255313,28.9665391 15.5224063,26.5066328 16.1161563,24.0893281 C13.1474063,29.0938984 11.7054844,34.8617344 11.7054844,40.6295703 C11.7054844,49.5782734 15.3951953,58.6966406 22.3082266,64.5067813 C23.0716406,63.0648594 24.5135625,62.0893281 26.1676016,62.0893281 C27.6519766,62.0893281 29.0514453,62.9375 29.8148594,64.2099063 C30.6207266,62.9376484 31.9777422,62.0893281 33.5047188,62.0893281 C34.9890938,62.0893281 36.3885625,62.9375 37.1519766,64.2099063 C37.9578438,62.9376484 39.3573125,62.0893281 40.8418359,62.0893281 C42.3262109,62.0893281 43.7256797,62.9375 44.5315469,64.2099063 C45.2949609,62.9376484 46.6944297,62.0893281 48.1789531,62.0893281 C49.7905391,62.0893281 51.2749141,63.0648594 51.995875,64.4643281 C58.4420703,59.078125 62.1740859,50.8080781 62.5981719,42.453125 Z M64.1674531,27.6518281 C64.1674531,19.6786563 59.0358203,11.9599062 50.4262969,11.9599062 C45.9308672,11.9599062 41.7321641,14.2076953 38.7209609,17.4308672 C35.7529531,27.2845938 34.6467969,37.703125 44.8705781,37.703125 C49.1463203,37.703125 59.3220078,33.4670156 57.3817813,43.1740859 C61.6652422,39.3147109 64.1674531,33.4196641 64.1674531,27.6518281 Z" id="themeisle" fill="#000000" fill-rule="nonzero"></path>
    </g>
</svg>