<?xml version="1.0" encoding="UTF-8"?>
<svg width="76px" height="76px" viewBox="0 0 76 76" version="1.1" xmlns="http://www.w3.org/2000/svg" xmlns:xlink="http://www.w3.org/1999/xlink">
    <!-- Generator: Sketch 48.1 (47250) - http://www.bohemiancoding.com/sketch -->
    <title>trello</title>
    <desc>Created with Sketch.</desc>
    <defs></defs>
    <g id="trello---f181" stroke="none" stroke-width="1" fill="none" fill-rule="evenodd">
        <path d="M66.5,0 L9.5,0 C4.25803571,0 0,4.25803571 0,9.5 L0,66.5 C0,71.7419643 4.25803571,76 9.5,76 L66.5,76 C71.7419643,76 76,71.7419643 76,66.5 L76,9.5 C76,4.25803571 71.7419643,0 66.5,0 Z M33.0633929,57.5767857 C33.0633929,60.0875 31.0276786,62.1401786 28.5,62.1401786 L14.4366071,62.1401786 C11.9258929,62.1401786 9.87321429,60.1044643 9.87321429,57.5767857 L9.87321429,14.4366071 C9.87321429,11.9258929 11.9089286,9.87321429 14.4366071,9.87321429 L28.5,9.87321429 C31.0107143,9.87321429 33.0633929,11.9089286 33.0633929,14.4366071 L33.0633929,57.5767857 Z M66.1267857,38.5767857 C66.1267857,41.0875 64.0910714,43.1401786 61.5633929,43.1401786 L47.5,43.1401786 C44.9892857,43.1401786 42.9366071,41.1044643 42.9366071,38.5767857 L42.9366071,14.4366071 C42.9366071,11.9258929 44.9723214,9.87321429 47.5,9.87321429 L61.5633929,9.87321429 C64.0741071,9.87321429 66.1267857,11.9089286 66.1267857,14.4366071 L66.1267857,38.5767857 Z" id="trello" fill="#000000" fill-rule="nonzero"></path>
    </g>
</svg>