<?xml version="1.0" encoding="UTF-8"?>
<svg width="76px" height="46px" viewBox="0 0 76 46" version="1.1" xmlns="http://www.w3.org/2000/svg" xmlns:xlink="http://www.w3.org/1999/xlink">
    <!-- Generator: Sketch 48.1 (47250) - http://www.bohemiancoding.com/sketch -->
    <title>tripadvisor</title>
    <desc>Created with Sketch.</desc>
    <defs></defs>
    <g id="tripadvisor---f262" stroke="none" stroke-width="1" fill="none" fill-rule="evenodd" transform="translate(0.000000, -15.000000)">
        <path d="M21.9555516,41.3030601 C21.9555516,43.0859876 20.539788,44.5313497 18.7933716,44.5313497 C17.0469553,44.5313497 15.6311917,43.0859876 15.6311917,41.3030601 C15.6311917,39.5201326 17.0469553,38.0747705 18.7933716,38.0747705 C20.539788,38.0747705 21.9555516,39.5199979 21.9555516,41.3030601 Z M56.9158093,38.0761176 C55.1701846,38.0761176 53.7549488,39.5208061 53.7549488,41.3030601 C53.7549488,43.0851794 55.1700527,44.5300027 56.9158093,44.5300027 C58.661434,44.5300027 60.0766698,43.0853141 60.0766698,41.3030601 C60.0765379,39.5208061 58.661434,38.0761176 56.9158093,38.0761176 Z M68.7100572,56.8658244 C60.4414962,63.4802754 48.4861441,61.999217 42.0072772,53.557656 L37.919771,59.7977676 L33.8713204,53.6096513 C27.5014395,61.7443592 15.9767541,63.2935772 7.76149862,57.1193353 C-0.690597099,50.7670161 -2.49836761,38.6224725 3.72386739,29.9936744 C2.92379169,27.2288408 1.6641637,24.6249758 0,22.2958081 L11.912734,22.2890729 C19.7047984,17.3391983 28.7390847,14.8104522 37.9143613,15.0110755 C46.8701999,14.8480759 55.6795619,17.3446599 63.2715721,22.1973403 L75.9670003,22.2073083 C74.2876259,24.5542873 73.0217262,27.1820931 72.2261121,29.9727955 C78.4001874,38.4249981 76.8394169,50.3627727 68.7100572,56.8658244 Z M34.2218967,41.4700917 C34.2209731,32.9087798 27.4221409,25.969156 19.0361494,25.970099 C10.6501578,25.9710419 3.85277709,32.9120127 3.85356876,41.4733246 C3.85449237,50.0346365 10.6533245,56.9742602 19.0393161,56.9733173 C27.4195021,56.9632146 34.2108133,50.0308648 34.2218967,41.4754798 L34.2218967,41.4700917 Z M37.9943196,40.0617729 C38.7111737,30.1691923 46.6379986,22.4313192 56.3504275,22.1433244 C50.5341649,19.5759994 44.2501334,18.2990428 37.9142294,18.3969675 C31.5701286,18.3341609 25.2792098,19.5829175 19.4203715,22.0680255 C29.2296476,22.2811255 37.2723197,30.0726103 37.9943196,40.0617729 Z M71.205522,36.1867748 C68.3038003,28.1539023 59.573038,24.0435782 51.7047963,27.0058295 C43.8364227,29.9682156 39.8102707,38.8815062 42.7118604,46.9142439 L42.7118604,46.9185544 C45.6196516,54.9477899 54.3490945,59.0540729 62.2168084,56.0935727 C70.082675,53.1295702 74.106716,44.2178961 71.205522,36.1867748 Z M28.186495,41.3021172 L28.186495,41.317608 C28.1789741,46.6152035 23.9661207,50.9034702 18.7770105,50.8957921 C13.5879004,50.888114 9.38744972,46.5871853 9.39497055,41.2895898 C9.40249138,35.9919944 13.6153448,31.7037277 18.804455,31.7114058 C23.984461,31.7270313 28.1780505,36.0138162 28.186495,41.3021172 Z M24.9522733,41.3021172 L24.9522733,41.2908022 C24.9455442,37.8176227 22.1822322,35.0075856 18.7801772,35.0144555 C15.3781223,35.0213253 12.6256297,37.842408 12.6323589,41.3154528 C12.639088,44.7886322 15.4024,47.5986693 18.804323,47.5917995 C22.1987252,47.5765781 24.9446206,44.7673492 24.9522733,41.3021172 Z M66.3066896,41.3021172 L66.3066896,41.3085829 C66.3040507,46.6061784 62.0952875,50.8986209 56.9060454,50.8957921 C51.7168033,50.8929633 47.5123943,46.5963451 47.5151651,41.2986149 C47.517804,36.0010195 51.7265672,31.708577 56.9158093,31.7114058 C62.0999056,31.7202962 66.2998285,36.0096404 66.3066896,41.3021172 Z M63.0735235,41.3010396 C63.072336,37.8278601 60.3135101,35.0132431 56.9114551,35.0144555 C53.5094002,35.0156678 50.7524215,37.8321706 50.753609,41.3053501 C50.7547965,44.7785295 53.5136224,47.5930118 56.9156774,47.5919342 C60.3152254,47.5857379 63.0690374,44.772872 63.0735235,41.3022519 L63.0735235,41.3010396 Z" id="tripadvisor" fill="#000000" fill-rule="nonzero"></path>
    </g>
</svg>