<?xml version="1.0" encoding="UTF-8"?>
<svg width="76px" height="76px" viewBox="0 0 76 76" version="1.1" xmlns="http://www.w3.org/2000/svg" xmlns:xlink="http://www.w3.org/1999/xlink">
    <!-- Generator: Sketch 48.1 (47250) - http://www.bohemiancoding.com/sketch -->
    <title>tumblr-square</title>
    <desc>Created with Sketch.</desc>
    <defs></defs>
    <g id="tumblr-square---f174" stroke="none" stroke-width="1" fill="none" fill-rule="evenodd">
        <path d="M0,0 L76,0 L76,76 L0,76 L0,0 Z M53.8955357,61.7839286 C54.2857143,61.3767857 54.1160714,60.7830357 53.9464286,60.2401786 L51.6053571,53.4205357 C51.4357143,52.9455357 51.1982143,52.6741071 50.825,52.5892857 C50.4178571,52.4875 49.9767857,52.6232143 49.4678571,52.8267857 C44.76875,54.7098214 42.2580357,52.6571429 42.2580357,49.0267857 L42.2580357,34.8955357 L51.0964286,34.8955357 C51.6732143,34.8955357 52.1482143,34.4205357 52.1482143,33.84375 L52.1482143,25.175 C52.1482143,24.5982143 51.6732143,24.1232143 51.0964286,24.1232143 L42.2919643,24.1232143 L42.2919643,11.9089286 C42.2919643,11.3321429 41.8169643,10.8571429 41.2401786,10.8571429 L33.725,10.8571429 C32.7241071,10.8571429 32.1133929,11.4169643 32.0285714,12.5875 C31.7232143,16.9473214 29.6705357,22.68125 23.0883929,25.0053571 C22.3589286,25.2598214 21.8839286,25.9383929 21.8839286,26.7017857 L21.8839286,33.9116071 C21.8839286,34.4883929 22.3589286,34.9633929 22.9357143,34.9633929 L27.9741071,34.9633929 L27.9741071,50.23125 C27.9741071,55.7276786 30.75625,65.1428571 43.5642857,65.1428571 C48.6026786,65.1428571 52.4535714,63.3276786 53.8955357,61.7839286 Z" id="tumblr-square" fill="#000000"></path>
    </g>
</svg>