<?xml version="1.0" encoding="UTF-8"?>
<svg width="45px" height="76px" viewBox="0 0 45 76" version="1.1" xmlns="http://www.w3.org/2000/svg" xmlns:xlink="http://www.w3.org/1999/xlink">
    <!-- Generator: Sketch 48.1 (47250) - http://www.bohemiancoding.com/sketch -->
    <title>tumblr</title>
    <desc>Created with Sketch.</desc>
    <defs></defs>
    <g id="tumblr---f173" stroke="none" stroke-width="1" fill="none" fill-rule="evenodd" transform="translate(-16.000000, 0.000000)">
        <path d="M60.6623253,71.2945313 C58.6503756,73.446875 53.2654513,76 46.2532147,76 C28.3823671,76 24.5064051,62.81875 24.5064051,55.1296875 L24.5064051,33.7546875 L17.4793748,33.7546875 C16.6657187,33.7546875 16,33.0867188 16,32.2703125 L16,22.1765625 C16,21.1078125 16.6657187,20.1578125 17.6716935,19.8015625 C26.8438173,16.565625 29.7285982,8.5203125 30.1428231,2.41953125 C30.2611731,0.78671875 31.1044167,0 32.5246165,0 L43.0133839,0 C43.82704,0 44.4927587,0.66796875 44.4927587,1.484375 L44.4927587,18.584375 L56.7715696,18.584375 C57.5852257,18.584375 58.2509444,19.2375 58.2509444,20.0539063 L58.2509444,32.18125 C58.2509444,32.9976563 57.5852257,33.665625 56.7715696,33.665625 L44.4335837,33.665625 L44.4335837,53.4375 C44.4335837,58.5140625 47.939702,61.39375 54.4933324,58.7515625 C55.2034323,58.4695313 55.8247697,58.2765625 56.3721384,58.425 C56.8899195,58.5585938 57.2301757,58.9296875 57.4668757,59.5976562 L60.7215003,69.1421875 C60.9877877,69.884375 61.209694,70.715625 60.6623253,71.2945313 Z" id="tumblr" fill="#000000" fill-rule="nonzero"></path>
    </g>
</svg>