<?xml version="1.0" encoding="UTF-8"?>
<svg width="76px" height="62px" viewBox="0 0 76 62" version="1.1" xmlns="http://www.w3.org/2000/svg" xmlns:xlink="http://www.w3.org/1999/xlink">
    <!-- Generator: Sketch 48.1 (47250) - http://www.bohemiancoding.com/sketch -->
    <title>twitter</title>
    <desc>Created with Sketch.</desc>
    <defs></defs>
    <g id="twitter---f099" stroke="none" stroke-width="1" fill="none" fill-rule="evenodd" transform="translate(0.000000, -7.000000)">
        <path d="M68.1880007,22.4515062 C68.2362431,23.1295989 68.2362431,23.8078406 68.2362431,24.4859332 C68.2362431,45.1686526 52.5637053,69 23.9188669,69 C15.0939261,69 6.89598787,66.4327008 0,61.9766423 C1.25385646,62.1218627 2.45932211,62.1703191 3.76142094,62.1703191 C11.0430509,62.1703191 17.7462178,59.700082 23.0990434,55.4860077 C16.2512979,55.3406383 10.5126817,50.8359742 8.53548647,44.6359295 C9.50003711,44.7811498 10.4644393,44.8780628 11.4772323,44.8780628 C12.8756675,44.8780628 14.2742511,44.6842369 15.5762015,44.3453396 C8.43915015,42.8920923 3.08617612,36.5952837 3.08617612,28.9905973 L3.08617612,28.7969204 C5.15970766,29.9594288 7.57108426,30.6859779 10.1267427,30.7827418 C5.93128879,27.9733093 3.18266087,23.1780553 3.18266087,17.7530162 C3.18266087,14.8468198 3.95409357,12.1827567 5.30443478,9.85773993 C12.9720038,19.3514839 24.4974785,25.5513795 37.4212399,26.2296212 C37.1801765,25.0671128 37.0354494,23.8562971 37.0354494,22.6453322 C37.0354494,14.0233577 43.9796796,7 52.6116508,7 C57.0964105,7 61.1471373,8.88905749 63.9923984,11.9406234 C67.5126075,11.2625308 70.8882378,9.9546529 73.8782261,8.16250839 C72.7207059,11.795403 70.2613838,14.8469689 67.0304806,16.7843338 C70.1650475,16.4454366 73.2031297,15.5733689 76,14.3625531 C73.878523,17.4624264 71.2260829,20.2232533 68.1880007,22.4515062 Z" id="twitter" fill="#000000" fill-rule="nonzero"></path>
    </g>
</svg>