<?xml version="1.0" encoding="UTF-8"?>
<svg width="76px" height="76px" viewBox="0 0 76 76" version="1.1" xmlns="http://www.w3.org/2000/svg" xmlns:xlink="http://www.w3.org/1999/xlink">
    <!-- Generator: Sketch 48.1 (47250) - http://www.bohemiancoding.com/sketch -->
    <title>twitter-square</title>
    <desc>Created with Sketch.</desc>
    <defs></defs>
    <g id="twitter-square---f081" stroke="none" stroke-width="1" fill="none" fill-rule="evenodd">
        <path d="M3.55271368e-15,-3.55271368e-15 L76,-3.55271368e-15 L76,76 L3.55271368e-15,76 L3.55271368e-15,-3.55271368e-15 Z M59.5616071,26.9392857 C61.7330357,25.3616071 63.6330357,23.39375 65.1428571,21.1714286 C63.1410714,22.0366071 60.9696429,22.6642857 58.7303571,22.9017857 C61.0375,21.5276786 62.7848214,19.35625 63.6160714,16.7776786 C61.4785714,18.05 59.0696429,18.9830357 56.5589286,19.4580357 C54.5232143,17.2866071 51.6392857,15.9464286 48.4330357,15.9464286 C41.6473214,15.9464286 35.9982143,22.0705357 37.5758929,29.6196429 C28.3473214,29.1446429 20.1196429,24.7339286 14.6401786,17.9821429 C13.6732143,19.6276786 13.1303571,21.5276786 13.1303571,23.5973214 C13.1242625,27.3200367 14.984296,30.7980445 18.0839286,32.8598214 C16.26875,32.7919643 14.5383929,32.2830357 13.0625,31.4517857 L13.0625,31.5875 C13.0625,36.9991071 16.8794643,41.4776786 21.96875,42.5125 C20.2044643,42.9705357 18.6607143,42.9705357 16.9473214,42.7160714 C18.3553571,47.1267857 22.4607143,50.3330357 27.3464286,50.4348214 C23.5294643,53.4205357 18.7455357,55.1848214 13.5375,55.1848214 C12.6214286,55.1848214 11.75625,55.1508929 10.8571429,55.0491071 C15.7767857,58.2044643 21.6294643,60.0366071 27.9401786,60.0366071 C48.3991071,60.0366071 59.5955357,43.0892857 59.5955357,28.38125 C59.5955357,27.90625 59.5955357,27.4142857 59.5616071,26.9392857 Z" id="twitter-square" fill="#000000" fill-rule="nonzero"></path>
    </g>
</svg>