<?xml version="1.0" encoding="UTF-8"?>
<svg width="74px" height="76px" viewBox="0 0 74 76" version="1.1" xmlns="http://www.w3.org/2000/svg" xmlns:xlink="http://www.w3.org/1999/xlink">
    <!-- Generator: Sketch 48.1 (47250) - http://www.bohemiancoding.com/sketch -->
    <title>twitch</title>
    <desc>Created with Sketch.</desc>
    <defs></defs>
    <g id="twitch---f1e8" stroke="none" stroke-width="1" fill="none" fill-rule="evenodd" transform="translate(-1.000000, 0.000000)">
        <path d="M6.20420561,0 L1,13.0455357 L1,66.3642857 L19.5,66.3642857 L19.5,76 L29.9084112,76 L39.728972,66.3642857 L54.771028,66.3642857 L75,46.5160714 L75,0 L6.20420561,0 Z M68.0668224,43.10625 L56.5,54.4553571 L38,54.4553571 L28.1794393,64.0910714 L28.1794393,54.4553571 L12.5668224,54.4553571 L12.5668224,6.80267857 L68.0668224,6.80267857 L68.0668224,43.10625 Z M56.5,19.8482143 L56.5,39.6794643 L49.5668224,39.6794643 L49.5668224,19.8482143 L56.5,19.8482143 Z M38,19.8482143 L38,39.6794643 L31.0668224,39.6794643 L31.0668224,19.8482143 L38,19.8482143 Z" id="twitch" fill="#000000" fill-rule="nonzero"></path>
    </g>
</svg>