<?xml version="1.0" encoding="UTF-8"?>
<svg width="76px" height="46px" viewBox="0 0 76 46" version="1.1" xmlns="http://www.w3.org/2000/svg" xmlns:xlink="http://www.w3.org/1999/xlink">
    <!-- Generator: Sketch 48.1 (47250) - http://www.bohemiancoding.com/sketch -->
    <title>usb</title>
    <desc>Created with Sketch.</desc>
    <defs></defs>
    <g id="usb---f287" stroke="none" stroke-width="1" fill="none" fill-rule="evenodd" transform="translate(0.000000, -15.000000)">
        <path d="M76,37.9941312 C76,38.3579995 75.798597,38.7101301 75.4668745,38.8744578 L64.9109899,45.1541209 C64.7451286,45.2480225 64.5792673,45.3184486 64.3778644,45.3184486 C64.2120031,45.3184486 64.0106002,45.2832355 63.8447389,45.189334 C63.5130164,44.9897933 63.3116134,44.661138 63.3116134,44.2737943 L63.3116134,40.0951773 L35.0322681,40.0951773 C38.0296181,44.7433019 39.8303975,52.642766 43.2779423,52.642766 L46.4411535,52.642766 L46.4411535,49.4970656 C46.4411535,48.9101812 46.9031956,48.4524113 47.4955573,48.4524113 L58.0514419,48.4524113 C58.6438036,48.4524113 59.1058457,48.9101812 59.1058457,49.4970656 L59.1058457,59.9553458 C59.1058457,60.5422302 58.6438036,61 58.0514419,61 L47.4955573,61 C46.9031956,61 46.4411535,60.5422302 46.4411535,59.9553458 L46.4411535,56.821383 L43.2779423,56.821383 C34.3451286,56.821383 33.6698363,40.0951773 28.5044427,40.0951773 L16.621668,40.0951773 C15.6620421,43.6869099 12.3685113,46.3748405 8.44707716,46.3748405 C3.79111458,46.3631028 0,42.6070426 0,37.9941312 C0,33.3812197 3.79111458,29.6251595 8.44707716,29.6251595 C12.3685113,29.6251595 15.6738893,32.3013524 16.621668,35.9048227 C21.2539361,35.9048227 21.8226033,37.019903 25.4597038,28.815259 C30.2104443,18.3569788 32.3429462,19.178617 38.3613406,19.178617 C39.2498831,16.7254402 41.5600935,15 44.3323461,15 C47.8272798,15 50.6706157,17.8053075 50.6706157,21.2796632 C50.6706157,24.7540189 47.839127,27.5593264 44.3323461,27.5593264 C41.5600935,27.5593264 39.2498831,25.8221485 38.3613406,23.3807094 L34.8308652,23.3807094 C31.3833203,23.3807094 29.5825409,31.2919112 26.585191,35.928298 L63.3234606,35.928298 L63.3234606,31.749681 C63.3234606,31.3623373 63.5248636,31.0336821 63.8565861,30.8341414 C64.1883087,30.6346007 64.614809,30.6698137 64.9109899,30.8693544 L75.4668745,37.1490176 C75.798597,37.2781322 76,37.6302628 76,37.9941312 Z" id="usb" fill="#000000" fill-rule="nonzero"></path>
    </g>
</svg>