<?xml version="1.0" encoding="UTF-8"?>
<svg width="66px" height="76px" viewBox="0 0 66 76" version="1.1" xmlns="http://www.w3.org/2000/svg" xmlns:xlink="http://www.w3.org/1999/xlink">
    <!-- Generator: Sketch 48.1 (47250) - http://www.bohemiancoding.com/sketch -->
    <title>viacoin</title>
    <desc>Created with Sketch.</desc>
    <defs></defs>
    <g id="viacoin---f237" stroke="none" stroke-width="1" fill="none" fill-rule="evenodd" transform="translate(-5.000000, 0.000000)">
        <path d="M71,0 L60,0 L46.1296875,32.5714286 L29.8875,32.5714286 L16,0 L5,0 L13.25,19 L5,19 L5,27.1428571 L16.7734375,27.1428571 L19.1453125,32.5714286 L5,32.5714286 L5,40.7142857 L22.66875,40.7142857 L38,76 L53.33125,40.7142857 L71,40.7142857 L71,32.5714286 L56.8546875,32.5714286 L59.2265625,27.1428571 L71,27.1428571 L71,19 L62.75,19 L71,0 Z M38,51.5714286 L33.359375,40.7142857 L42.640625,40.7142857 L38,51.5714286 Z" id="viacoin" fill="#000000" fill-rule="nonzero"></path>
    </g>
</svg>