<?xml version="1.0" encoding="UTF-8"?>
<svg width="65px" height="76px" viewBox="0 0 65 76" version="1.1" xmlns="http://www.w3.org/2000/svg" xmlns:xlink="http://www.w3.org/1999/xlink">
    <!-- Generator: Sketch 48.1 (47250) - http://www.bohemiancoding.com/sketch -->
    <title>viadeo</title>
    <desc>Created with Sketch.</desc>
    <defs></defs>
    <g id="viadeo---f2a9" stroke="none" stroke-width="1" fill="none" fill-rule="evenodd" transform="translate(-6.000000, 0.000000)">
        <path d="M46.2236404,22.34474 L46.2236404,22.448669 C43.5760001,14.6391453 39.9225522,7.09686758 35.7514094,0 C42.1560365,4.33532497 45.6615715,14.8470033 46.2236404,22.34474 Z M51.0603912,40.413543 C52.184529,43.1156976 52.6874328,45.9811693 52.6874328,48.8763349 C52.6874328,60.4124565 44.138069,69.8106096 32.3050395,69.5730575 L32.8671084,69.5285165 C43.8422432,62.594966 49.0339849,51.9199706 49.0339849,39.0773127 C49.0339849,33.4206045 48.0725513,27.8084372 46.2384317,22.448669 C46.3863446,24.1857684 46.3863446,25.9674088 46.3863446,27.7045082 C46.3863446,41.3340572 43.7091217,63.5748682 29.1397041,69.2761174 C19.4218287,67.5835591 12.6770019,59.0910732 12.6770019,48.8763349 C12.6770019,37.6520004 21.1672005,27.7490492 32.7044043,27.7490492 C35.1893405,27.7490492 37.6890679,28.2093063 39.9669261,29.1743615 C40.218378,26.932464 40.9283597,24.7351075 41.9489585,22.7456091 C39.0054925,21.6766248 35.8549484,21.1569797 32.7044043,21.1569797 C8.81647604,21.1569797 -2.60239739,50.2422592 13.4905227,67.7320291 C23.5338064,78.8078936 41.8897934,78.7039646 51.9182859,67.7320291 C60.2901542,58.6308161 60.9261795,46.5898964 57.3023143,37.8895524 C55.4238208,39.0773127 53.2938755,39.9532859 51.0603912,40.413543 Z M67.2124764,1.73709939 C62.6271775,11.6103566 55.1871602,8.74488495 50.0841663,13.629549 C48.2500467,15.4111894 47.0371612,18.6775302 47.0371612,21.1272857 C47.0371612,23.2207132 47.7027691,25.1508236 48.8121156,26.887923 C55.8231856,25.2547526 63.3519506,20.0583015 66.2954167,13.421691 C66.1918776,14.2382762 65.5854349,15.5596595 65.230444,16.2723156 C62.2278128,21.5726958 55.6752727,26.0119498 50.483531,28.8774214 C52.6726415,31.0153899 55.4681947,32.7079483 58.6187388,32.7079483 C70.3038554,32.7079483 74.9039456,12.7238818 67.2124764,1.73709939 Z" id="viadeo" fill="#000000" fill-rule="nonzero"></path>
    </g>
</svg>