<?xml version="1.0" encoding="UTF-8"?>
<svg width="76px" height="76px" viewBox="0 0 76 76" version="1.1" xmlns="http://www.w3.org/2000/svg" xmlns:xlink="http://www.w3.org/1999/xlink">
    <!-- Generator: Sketch 48.1 (47250) - http://www.bohemiancoding.com/sketch -->
    <title>viadeo-square</title>
    <desc>Created with Sketch.</desc>
    <defs></defs>
    <g id="viadeo-square---f2aa" stroke="none" stroke-width="1" fill="none" fill-rule="evenodd">
        <path d="M3.55271368e-15,3.55271368e-15 L76,3.55271368e-15 L76,76 L3.55271368e-15,76 L3.55271368e-15,3.55271368e-15 Z M47.61875,59.2392857 C53.6241071,52.7419643 54.0821429,44.1410714 51.4866071,37.9321429 C50.1464286,38.7633929 48.6196429,39.3910714 47.0080357,39.7133929 C47.8223214,41.6473214 48.1785714,43.7 48.1785714,45.7696429 C48.1785714,54.0142857 42.0375,60.7321429 33.5553571,60.5625 L33.9625,60.5285714 C41.8339286,55.575 45.5491071,47.9580357 45.5491071,38.7803571 C45.5491071,34.7428571 44.8535714,30.7223214 43.5473214,26.9053571 L43.5473214,26.8375 C43.1571429,21.4767857 40.6464286,13.9785714 36.0491071,10.8741071 C39.0348214,15.9464286 41.6473214,21.3241071 43.5473214,26.9053571 C43.6491071,28.14375 43.6491071,29.4160714 43.6491071,30.6544643 C43.6491071,40.3919643 41.7151786,56.2705357 31.2821429,60.3419643 C24.3267857,59.1205357 19.4919643,53.0642857 19.4919643,45.7696429 C19.4919643,37.7625 25.5651786,30.6883929 33.84375,30.6883929 C35.625,30.6883929 37.40625,31.0107143 39.0517857,31.70625 C39.2383929,30.0946429 39.7473214,28.5339286 40.4767857,27.1089286 C38.35625,26.3285714 36.1,25.9723214 33.84375,25.9723214 C16.7098214,25.9723214 8.53303571,46.7535714 20.06875,59.2392857 C27.2616071,67.1446429 40.4258929,67.0767857 47.61875,59.2392857 Z M52.4196429,34.2169643 C60.8,34.2169643 64.0910714,19.95 58.5776786,12.1125 C55.2866071,19.1526786 49.9598214,17.1169643 46.2955357,20.5946429 C44.9892857,21.8669643 44.1071429,24.2080357 44.1071429,25.9553571 C44.1071429,27.4482143 44.5821429,28.8392857 45.3794643,30.0776786 C50.4178571,28.9071429 55.7955357,25.1919643 57.9160714,20.4589286 C57.8482143,21.0357143 57.4071429,21.9857143 57.1526786,22.4946429 C54.9982143,26.2776786 50.2991071,29.45 46.5839286,31.4857143 C48.1616071,33.0125 50.1633929,34.2169643 52.4196429,34.2169643 Z" id="viadeo-square" fill="#000000" fill-rule="nonzero"></path>
    </g>
</svg>