<?xml version="1.0" encoding="UTF-8"?>
<svg width="76px" height="66px" viewBox="0 0 76 66" version="1.1" xmlns="http://www.w3.org/2000/svg" xmlns:xlink="http://www.w3.org/1999/xlink">
    <!-- Generator: Sketch 48.1 (47250) - http://www.bohemiancoding.com/sketch -->
    <title>vimeo</title>
    <desc>Created with Sketch.</desc>
    <defs></defs>
    <g id="vimeo---f27d" stroke="none" stroke-width="1" fill="none" fill-rule="evenodd" transform="translate(0.000000, -5.000000)">
        <path d="M75.9630391,20.2758378 C75.6304929,27.6924877 70.4522745,37.8754766 60.4521371,50.7771088 C50.1194535,64.251087 41.3782408,71 34.2284988,71 C29.7866326,71 26.0573652,66.8981872 22.9931901,58.6945615 C17.0073596,36.6830891 14.465757,23.7814569 9.5250715,23.7814569 C8.95499241,23.7814569 6.95971559,24.9738444 3.56299433,27.382467 L0,22.7560037 C8.76496604,15.029333 17.1261261,6.44414336 22.3518511,5.96718838 C28.2664217,5.3948424 31.9006759,9.44895974 33.278367,18.1533881 C38.1477926,49.0600709 40.3093425,53.7342297 49.1455684,39.735601 C52.32851,34.6798782 54.0387473,30.8642384 54.252527,28.2171382 C55.060139,20.3950765 48.1716833,20.919727 43.5160374,22.9229379 C47.2453048,10.6413472 54.3950467,4.67940993 64.9177566,5.01327842 C72.7325909,5.25175591 76.4143517,10.3551742 75.9630391,20.2758378 Z" id="vimeo" fill="#000000" fill-rule="nonzero"></path>
    </g>
</svg>