<?xml version="1.0" encoding="UTF-8"?>
<svg width="76px" height="76px" viewBox="0 0 76 76" version="1.1" xmlns="http://www.w3.org/2000/svg" xmlns:xlink="http://www.w3.org/1999/xlink">
    <!-- Generator: Sketch 48.1 (47250) - http://www.bohemiancoding.com/sketch -->
    <title>vimeo-square</title>
    <desc>Created with Sketch.</desc>
    <defs></defs>
    <g id="vimeo-square---f194" stroke="none" stroke-width="1" fill="none" fill-rule="evenodd">
        <path d="M-3.55271368e-15,1.77635684e-15 L76,1.77635684e-15 L76,76 L-3.55271368e-15,76 L-3.55271368e-15,1.77635684e-15 Z M63.9553571,25.2428571 C64.2776786,18.0839286 61.6142857,14.4196429 55.9651786,14.2669643 C48.3482143,14.0294643 43.1910714,18.3214286 40.49375,27.1598214 C43.8696429,25.7178571 48.8571429,25.3276786 48.2633929,30.9598214 C48.09375,32.8598214 46.8553571,35.625 44.5651786,39.2553571 C38.1696429,49.3321429 36.6089286,45.9732143 33.0973214,23.7160714 C32.1133929,17.45625 29.4839286,14.5383929 25.2089286,14.9455357 C21.4258929,15.2848214 15.3866071,21.4598214 9.05892857,27.0241071 L11.6375,30.3491071 C14.0973214,28.6357143 15.5392857,27.7705357 15.9464286,27.7705357 C19.5089286,27.7705357 21.3580357,37.05 25.6839286,52.8776786 C27.90625,58.7982143 30.6035714,61.75 33.8098214,61.75 C38.9669643,61.75 45.2946429,56.8982143 52.7589286,47.1946429 C59.9857143,37.9151786 63.7178571,30.5866071 63.9553571,25.2428571 Z" id="vimeo-square" fill="#000000" fill-rule="nonzero"></path>
    </g>
</svg>