<?xml version="1.0" encoding="UTF-8"?>
<svg width="67px" height="76px" viewBox="0 0 67 76" version="1.1" xmlns="http://www.w3.org/2000/svg" xmlns:xlink="http://www.w3.org/1999/xlink">
    <!-- Generator: Sketch 48.1 (47250) - http://www.bohemiancoding.com/sketch -->
    <title>vine</title>
    <desc>Created with Sketch.</desc>
    <defs></defs>
    <g id="vine---f1ca" stroke="none" stroke-width="1" fill="none" fill-rule="evenodd" transform="translate(-5.000000, 0.000000)">
        <path d="M72,37.7734121 L72,46.8092008 C68.7895833,47.5376137 65.5617188,47.8671338 62.9096354,47.8671338 C56.4713542,61.2907431 44.9382812,72.8066042 41.0822917,74.9571566 C38.6395833,76.3272666 36.3539062,76.4139824 33.6320312,74.8184113 C28.9036458,71.9914755 10.9671875,57.3711879 5,11.4118022 L17.9986979,11.4118022 C21.2614583,39.0047768 29.2526042,53.156799 38.0289062,63.7534724 C42.896875,58.9147295 47.5903646,52.4630724 51.2195312,45.2136296 C42.5304687,40.825809 37.24375,31.1830096 37.24375,19.9619822 C37.24375,8.58486639 43.8216146,0 55.0755208,0 C75.1231771,0 73.6052083,22.1819073 69.3130208,31.4778434 C69.3130208,31.4778434 61.2171875,33.0734146 58.2335938,27.9224947 C58.8268229,25.9627171 59.6643229,22.5808001 59.6643229,19.51106 C59.6643229,14.0826495 57.6927083,11.4291454 54.7091146,11.4291454 C51.5335938,11.4291454 49.3351563,14.3948265 49.3351563,20.1007276 C49.3526042,33.8365138 59.6992188,40.6870637 72,37.7734121 Z" id="vine" fill="#000000" fill-rule="nonzero"></path>
    </g>
</svg>