<?xml version="1.0" encoding="UTF-8"?>
<svg width="76px" height="45px" viewBox="0 0 76 45" version="1.1" xmlns="http://www.w3.org/2000/svg" xmlns:xlink="http://www.w3.org/1999/xlink">
    <!-- Generator: Sketch 48.1 (47250) - http://www.bohemiancoding.com/sketch -->
    <title>vk</title>
    <desc>Created with Sketch.</desc>
    <defs></defs>
    <g id="vk---f189" stroke="none" stroke-width="1" fill="none" fill-rule="evenodd" transform="translate(0.000000, -16.000000)">
        <path d="M74.2679147,19.0515625 C74.7899346,17.29375 74.2679147,16 71.7565756,16 L63.4465829,16 C61.3302859,16 60.3567893,17.1109375 59.8347694,18.3484375 C59.8347694,18.3484375 55.6021755,28.628125 49.6201094,35.29375 C47.6872249,37.2203125 46.7983801,37.8390625 45.7402317,37.8390625 C45.2182117,37.8390625 44.4140189,37.2203125 44.4140189,35.4625 L44.4140189,19.0515625 C44.4140189,16.9421875 43.8214557,16 42.0719836,16 L29.007377,16 C27.6811642,16 26.8910801,16.984375 26.8910801,17.8984375 C26.8910801,19.8953125 29.8821131,20.359375 30.1925033,25.984375 L30.1925033,38.190625 C30.1925033,40.8625 29.7128093,41.3546875 28.6546609,41.3546875 C25.8329316,41.3546875 18.9761294,31.0328125 14.9128393,19.2203125 C14.0945378,16.928125 13.2903449,16 11.1599393,16 L2.84994657,16 C0.479693978,16 0,17.1109375 0,18.3484375 C0,20.5421875 2.82172928,31.440625 13.1351498,45.840625 C20.0060606,55.6703125 29.684592,61 38.4883874,61 C43.7791298,61 44.4281275,59.81875 44.4281275,57.7796875 C44.4281275,48.3859375 43.9484336,47.5 46.6008591,47.5 C47.8283113,47.5 49.9446083,48.11875 54.8826345,52.8578125 C60.5260931,58.4828125 61.4572637,61 64.6176005,61 L72.9275933,61 C75.2978459,61 76.4970808,59.81875 75.8057571,57.484375 C74.2255887,52.5765625 63.5453434,42.4796875 63.0656494,41.8046875 C61.8381972,40.2296875 62.1909134,39.5265625 63.0656494,38.1203125 C63.0797581,38.10625 73.2238749,23.875 74.2679147,19.0515625 Z" id="vk" fill="#000000" fill-rule="nonzero"></path>
    </g>
</svg>