<?xml version="1.0" encoding="UTF-8"?>
<svg width="76px" height="61px" viewBox="0 0 76 61" version="1.1" xmlns="http://www.w3.org/2000/svg" xmlns:xlink="http://www.w3.org/1999/xlink">
    <!-- Generator: Sketch 48.1 (47250) - http://www.bohemiancoding.com/sketch -->
    <title>wechat</title>
    <desc>Created with Sketch.</desc>
    <defs></defs>
    <g id="wechat---f1d7" stroke="none" stroke-width="1" fill="none" fill-rule="evenodd" transform="translate(0.000000, -8.000000)">
        <path d="M51.4312727,26.4592725 C52.3156364,26.4592725 53.1723636,26.5001116 54.0290909,26.6090158 C51.7352727,15.9363981 40.1141818,8 26.904,8 C12.0909091,8 0,17.9102879 0,30.5159563 C0,37.7853158 4.04872727,43.7886632 10.7643636,48.4307074 L8.09745455,56.4079447 L17.4938182,51.7659005 C20.8654545,52.419326 23.5461818,53.0863647 26.9178182,53.0863647 C27.7745455,53.0863647 28.5898182,53.0455256 29.4465455,52.9774604 C28.8938182,51.2213792 28.5898182,49.3563937 28.5898182,47.423343 C28.576,35.8658782 38.6632727,26.4592725 51.4312727,26.4592725 Z M36.9912727,19.2579781 C38.9949091,19.2579781 40.3352727,20.5784423 40.3352727,22.5795581 C40.3352727,24.5534479 38.9949091,25.8739121 36.9912727,25.8739121 C34.9461818,25.8739121 32.9425455,24.5534479 32.9425455,22.5795581 C32.9563636,20.5784423 34.96,19.2579781 36.9912727,19.2579781 Z M18.1432727,25.8739121 C16.1396364,25.8739121 14.0945455,24.5534479 14.0945455,22.5795581 C14.0945455,20.5648293 16.1396364,19.2579781 18.1432727,19.2579781 C20.1883636,19.2579781 21.5149091,20.5784423 21.5149091,22.5795581 C21.5149091,24.5670609 20.1883636,25.8739121 18.1432727,25.8739121 Z M76,47.1238563 C76,36.5193037 65.2356364,27.8886409 53.1447273,27.8886409 C40.3352727,27.8886409 30.2894545,36.5193037 30.2894545,47.1238563 C30.2894545,57.7284088 40.3490909,66.3590716 53.1447273,66.3590716 C55.8116364,66.3590716 58.52,65.664807 61.2421818,65.0113814 L68.6210909,69 L66.576,62.3840661 C71.9927273,58.3818344 76,53.0863647 76,47.1238563 Z M45.7243636,43.7886632 C44.384,43.7886632 43.0574545,42.4681991 43.0574545,41.1205088 C43.0574545,39.8000446 44.3978182,38.4931935 45.7243636,38.4931935 C47.7694545,38.4931935 49.096,39.8136577 49.096,41.1205088 C49.096,42.4818121 47.7556364,43.7886632 45.7243636,43.7886632 Z M60.5236364,43.7886632 C59.1832727,43.7886632 57.8567273,42.4681991 57.8567273,41.1205088 C57.8567273,39.8000446 59.1970909,38.4931935 60.5236364,38.4931935 C62.5272727,38.4931935 63.8952727,39.8136577 63.8952727,41.1205088 C63.9090909,42.4818121 62.5272727,43.7886632 60.5236364,43.7886632 Z" id="wechat" fill="#000000" fill-rule="nonzero"></path>
    </g>
</svg>