<?xml version="1.0" encoding="UTF-8"?>
<svg width="76px" height="62px" viewBox="0 0 76 62" version="1.1" xmlns="http://www.w3.org/2000/svg" xmlns:xlink="http://www.w3.org/1999/xlink">
    <!-- Generator: Sketch 48.1 (47250) - http://www.bohemiancoding.com/sketch -->
    <title>weibo</title>
    <desc>Created with Sketch.</desc>
    <defs></defs>
    <g id="weibo---f18a" stroke="none" stroke-width="1" fill="none" fill-rule="evenodd" transform="translate(0.000000, -7.000000)">
        <path d="M60.4147834,28.7648728 C61.5429218,25.1764556 58.4256971,21.7674593 54.8631546,22.529998 C51.5974907,23.2476814 50.5881036,18.3285596 53.8092358,17.6258279 C61.2460433,15.9960884 67.5101805,23.1729227 65.1648401,30.3049018 C64.155453,33.4746703 59.4053963,31.9196895 60.4147834,28.7648728 Z M31.8847555,69 C16.1056609,69 0,61.3148066 0,48.620781 C0,41.997161 4.15629959,34.3568228 11.3259164,27.1351333 C26.1253117,12.2282504 41.4887763,12.0488296 37.0949739,26.2828842 C36.5012168,28.2415619 38.9207769,27.1351333 38.9207769,27.1799885 C50.721699,22.1562045 59.7764945,24.6680965 55.8428538,34.8651819 C55.2936285,36.2706453 56.006137,36.4949214 57.0748998,36.8238596 C77.2181089,43.1484448 62.2405864,69 31.8847555,69 Z M53.2154787,47.1256072 C52.4139067,38.797489 41.5629959,33.0709733 28.9605018,34.3119676 C16.3728516,35.5978171 6.87273826,43.3278657 7.67431032,51.6559838 C8.47588238,59.9841019 19.3267931,65.7106176 31.9292872,64.4696234 C44.5169374,63.1837739 54.0170508,55.4537253 53.2154787,47.1256072 Z M51.6420224,7.45864598 C47.7974453,8.29594332 49.1482427,13.9925555 52.8740684,13.1851617 C63.6062277,10.9124975 72.8836822,21.0796794 69.454735,31.7253169 C68.3562844,35.3436375 73.7743178,37.25746 75.0063637,33.5195255 C79.7415765,18.5976909 66.8273599,4.22907055 51.6420224,7.45864598 Z M39.9895397,53.9585515 C37.4512281,59.7598259 30.0737963,62.9295943 23.7948152,60.8812062 C17.7384929,58.9225285 15.1853374,52.8969781 17.8127125,47.4694971 C20.4400876,42.1765818 27.1792306,39.1862342 33.1613332,40.7262633 C39.3957826,42.341051 42.5278512,48.2320358 39.9895397,53.9585515 Z M27.1792306,49.47303 C25.264364,48.6656362 22.7260524,49.5178853 21.5385382,51.4018043 C20.3064923,53.3305785 20.9002494,55.5882909 22.815116,56.4853952 C24.7596704,57.3824995 27.3870455,56.5302504 28.6190915,54.556621 C29.8066057,52.5979433 29.1683168,50.3252791 27.1792306,49.47303 Z M32.0183508,47.4694971 C31.2613105,47.2153176 30.3261431,47.5592076 29.8956692,48.276891 C29.4651953,49.0394296 29.6878542,49.8617752 30.4448945,50.2056652 C31.2019348,50.5047 32.181634,50.16081 32.6121079,49.3982714 C33.0277378,48.620781 32.7753911,47.7685319 32.0183508,47.4694971 Z" id="weibo" fill="#000000" fill-rule="nonzero"></path>
    </g>
</svg>