<?xml version="1.0" encoding="UTF-8"?>
<svg width="76px" height="76px" viewBox="0 0 76 76" version="1.1" xmlns="http://www.w3.org/2000/svg" xmlns:xlink="http://www.w3.org/1999/xlink">
    <!-- Generator: Sketch 48.1 (47250) - http://www.bohemiancoding.com/sketch -->
    <title>whatsapp</title>
    <desc>Created with Sketch.</desc>
    <defs></defs>
    <g id="whatsapp---f232" stroke="none" stroke-width="1" fill="none" fill-rule="evenodd">
        <path d="M64.6169643,11.04375 C57.5089286,3.91875 48.0428571,0 37.9830357,0 C17.21875,0 0.322321429,16.8964286 0.322321429,37.6607143 C0.322321429,44.29375 2.05267857,50.7741071 5.34375,56.4910714 L0,76 L19.9669643,70.7580357 C25.4633929,73.7607143 31.6553571,75.3383929 37.9660714,75.3383929 L37.9830357,75.3383929 C58.7303571,75.3383929 76,58.4419643 76,37.6776786 C76,27.6178571 71.725,18.16875 64.6169643,11.04375 Z M37.9830357,68.99375 C32.3508929,68.99375 26.8375,67.4839286 22.0366071,64.6339286 L20.9,63.9553571 L9.05892857,67.0598214 L12.2142857,55.5071429 L11.4678571,54.3196429 C8.32946429,49.3321429 6.68392857,43.58125 6.68392857,37.6607143 C6.68392857,20.4080357 20.7303571,6.36160714 38,6.36160714 C46.3633929,6.36160714 54.2178571,9.61875 60.1214286,15.5392857 C66.025,21.4598214 69.6553571,29.3142857 69.6383929,37.6776786 C69.6383929,54.9473214 55.2357143,68.99375 37.9830357,68.99375 Z M55.1508929,45.5491071 C54.2178571,45.0741071 49.5866071,42.8008929 48.7214286,42.4955357 C47.85625,42.1732143 47.2285714,42.0205357 46.6008929,42.9705357 C45.9732143,43.9205357 44.175,46.0241071 43.6151786,46.66875 C43.0723214,47.2964286 42.5125,47.38125 41.5794643,46.90625 C36.0491071,44.1410714 32.41875,41.9696429 28.7714286,35.7098214 C27.8044643,34.0473214 29.7383929,34.1660714 31.5366071,30.5696429 C31.8419643,29.9419643 31.6892857,29.3991071 31.4517857,28.9241071 C31.2142857,28.4491071 29.33125,23.8178571 28.5508929,21.9348214 C27.7875,20.1026786 27.0071429,20.3571429 26.4303571,20.3232143 C25.8875,20.2892857 25.2598214,20.2892857 24.6321429,20.2892857 C24.0044643,20.2892857 22.9866071,20.5267857 22.1214286,21.4598214 C21.25625,22.4098214 18.8303571,24.6830357 18.8303571,29.3142857 C18.8303571,33.9455357 22.20625,38.4241071 22.6642857,39.0517857 C23.1392857,39.6794643 29.2973214,49.1794643 38.7464286,53.2678571 C44.7178571,55.8464286 47.0589286,56.0669643 50.0446429,55.6258929 C51.8598214,55.3544643 55.6089286,53.3526786 56.3892857,51.1473214 C57.1696429,48.9419643 57.1696429,47.0589286 56.9321429,46.66875 C56.7116071,46.2446429 56.0839286,46.0071429 55.1508929,45.5491071 Z" id="whatsapp" fill="#000000" fill-rule="nonzero"></path>
    </g>
</svg>