<?xml version="1.0" encoding="UTF-8"?>
<svg width="76px" height="49px" viewBox="0 0 76 49" version="1.1" xmlns="http://www.w3.org/2000/svg" xmlns:xlink="http://www.w3.org/1999/xlink">
    <!-- Generator: Sketch 48.1 (47250) - http://www.bohemiancoding.com/sketch -->
    <title>wikipedia-w</title>
    <desc>Created with Sketch.</desc>
    <defs></defs>
    <g id="wikipedia-w---f266" stroke="none" stroke-width="1" fill="none" fill-rule="evenodd" transform="translate(0.000000, -14.000000)">
        <path d="M76,14.2017319 L75.9643806,15.649455 C72.6280269,15.7443877 70.6214654,17.5243751 69.3391658,20.4316879 C66.3708796,27.2905728 57.0742072,48.9114868 50.9001718,62.9852541 L49.2854242,62.9852541 L39.5613185,40.0708826 C35.7025465,47.6180293 31.4519606,55.4974403 27.7831589,62.9852541 C27.7475394,63.0208538 26.0021872,62.9852541 26.0021872,62.9496544 C20.4336822,49.9320129 14.592095,37.0093042 9.01171692,23.956063 C7.65817841,20.7876854 3.14638338,15.649455 0.0356194345,15.6850548 C0.0356194345,15.3171907 0,14.4983965 0,14 L19.2226215,14 L19.2226215,15.649455 C16.9429777,15.7799874 12.953601,17.2277105 14.0815498,19.7078264 C16.6817685,25.6055181 26.3821278,48.223225 28.9942197,53.9547845 C30.7751914,50.4304094 35.8568974,40.996476 37.9346977,37.0093042 C36.2843306,33.6510612 30.9770348,21.1199497 29.2910483,18.0227716 C28.1393532,15.9105198 25.004843,15.7206545 22.6658335,15.6850548 L22.6658335,14.0355997 L39.5850648,14.0711995 L39.5850648,15.6257219 C37.2816747,15.6969214 35.0613967,16.5513153 36.0943603,18.7229 C38.3383846,23.4695331 39.7275426,26.8040429 41.8053429,31.1472123 C42.470239,29.8656213 45.9253242,22.9118037 47.5163256,19.1856967 C48.5730355,16.7411806 47.0532729,15.791854 42.9332917,15.6969214 C42.9689111,15.2697244 42.9332917,14.4746633 42.9689111,14.0830661 C48.2405874,14.0474663 56.159975,14.0474663 57.5847524,14.0118666 L57.5847524,15.6257219 C54.9132948,15.7206545 52.1468521,17.1446445 50.6864552,19.3874286 L43.6575535,33.9595924 C44.4174348,35.8701122 51.1732542,50.9050727 51.8737697,52.5545278 L66.406499,19.0195646 C65.3854085,16.2783839 62.0846743,15.6850548 60.8023746,15.6613216 L60.8023746,14.0118666 L75.9762537,14.142399 L76,14.2017319 Z" id="wikipedia-w" fill="#000000" fill-rule="nonzero"></path>
    </g>
</svg>