<?xml version="1.0" encoding="UTF-8"?>
<svg width="76px" height="76px" viewBox="0 0 76 76" version="1.1" xmlns="http://www.w3.org/2000/svg" xmlns:xlink="http://www.w3.org/1999/xlink">
    <!-- Generator: Sketch 48.1 (47250) - http://www.bohemiancoding.com/sketch -->
    <title>wordpress</title>
    <desc>Created with Sketch.</desc>
    <defs></defs>
    <g id="wordpress---f19a" stroke="none" stroke-width="1" fill="none" fill-rule="evenodd">
        <path d="M8.22822581,24.7306452 L23.7806452,67.3274194 C12.9016129,62.0564516 5.40887097,50.9016129 5.40887097,38 C5.40887097,33.2653226 6.42016129,28.791129 8.22822581,24.7306452 Z M60.0032258,36.3604839 C60.0032258,32.3306452 58.5629032,29.5419355 57.3217742,27.366129 C55.6669355,24.6846774 54.1193548,22.4016129 54.1193548,19.7201613 C54.1193548,16.7169355 56.3870968,13.9282258 59.5895161,13.9282258 C59.7274194,13.9282258 59.8653226,13.9435484 60.0185484,13.958871 C54.2112903,8.64193548 46.4887097,5.39354839 38,5.39354839 C26.6153226,5.39354839 16.5943548,11.2314516 10.7564516,20.0879032 C11.5225806,20.1185484 12.2427419,20.133871 12.8556452,20.133871 C16.2572581,20.133871 21.5435484,19.7201613 21.5435484,19.7201613 C23.3056452,19.6129032 23.5048387,22.2024194 21.7580645,22.4016129 C21.7580645,22.4016129 19.9959677,22.6008065 18.0346774,22.7080645 L29.9096774,58.0112903 L37.05,36.6209677 L31.9782258,22.7080645 C30.216129,22.6008065 28.5612903,22.4016129 28.5612903,22.4016129 C26.7991935,22.2943548 27.0137097,19.6129032 28.7604839,19.7201613 C28.7604839,19.7201613 34.1387097,20.133871 37.341129,20.133871 C40.7427419,20.133871 46.0290323,19.7201613 46.0290323,19.7201613 C47.791129,19.6129032 47.9903226,22.2024194 46.2435484,22.4016129 C46.2435484,22.4016129 44.4814516,22.6008065 42.5201613,22.7080645 L54.3032258,57.7508065 L57.5516129,46.8870968 C58.9306452,42.3822581 60.0032258,39.1491935 60.0032258,36.3604839 Z M38.5669355,40.85 L28.791129,69.2733871 C31.7177419,70.1314516 34.7975806,70.6064516 38,70.6064516 C41.8,70.6064516 45.4314516,69.9475806 48.8177419,68.7524194 C48.7258065,68.6145161 48.6491935,68.4612903 48.5879032,68.3080645 L38.5669355,40.85 Z M66.6072581,22.3556452 C66.7451613,23.3975806 66.8217742,24.5008065 66.8217742,25.7112903 C66.8217742,29.0209677 66.208871,32.7290323 64.3395161,37.3870968 L54.3798387,66.1782258 C64.0790323,60.5241935 70.591129,50.0282258 70.591129,38 C70.591129,32.3306452 69.1508065,26.9983871 66.6072581,22.3556452 Z M76,38 C76,58.9612903 58.9459677,76 38,76 C17.0387097,76 0,58.9459677 0,38 C0,17.0387097 17.0387097,0 38,0 C58.9459677,0 76,17.0387097 76,38 Z M74.2532258,38 C74.2532258,18.0040323 57.9806452,1.74677419 38,1.74677419 C18.0040323,1.74677419 1.74677419,18.0040323 1.74677419,38 C1.74677419,57.9959677 18.0193548,74.2532258 38,74.2532258 C57.9959677,74.2532258 74.2532258,57.9959677 74.2532258,38 Z" id="wordpress" fill="#000000" fill-rule="nonzero"></path>
    </g>
</svg>