<?xml version="1.0" encoding="UTF-8"?>
<svg width="76px" height="73px" viewBox="0 0 76 73" version="1.1" xmlns="http://www.w3.org/2000/svg" xmlns:xlink="http://www.w3.org/1999/xlink">
    <!-- Generator: Sketch 48.1 (47250) - http://www.bohemiancoding.com/sketch -->
    <title>wpbeginner</title>
    <desc>Created with Sketch.</desc>
    <defs></defs>
    <g id="wpbeginner--f297" stroke="none" stroke-width="1" fill="none" fill-rule="evenodd" transform="translate(0.000000, -2.000000)">
        <path d="M71.7507152,49.3154063 C80.924657,59.7941652 72.4299763,75 56.7594783,75 C50.2962159,75 43.8949716,72.1179665 40.4157577,66.8461607 C39.2917618,66.9041696 36.7106675,66.9041696 35.5865084,66.8461607 C32.099787,72.1290469 25.6923409,75 19.2426246,75 C3.65813583,75 -4.96857805,59.8466339 4.25138765,49.3154063 C-8.66452875,27.8307567 9.35400616,2 38.0009698,2 C66.6650701,2 84.6565129,27.8475402 71.7507152,49.3154063 Z M16.3184725,35.7954152 L23.0962318,35.7954152 L23.0962318,26.3323013 L16.3184725,26.3323013 L16.3184725,35.7954152 Z M51.7634329,49.8205402 L51.7634329,45.9360603 C41.8885237,49.3440848 30.1623751,47.4348415 21.1478851,40.4006071 L21.1880336,44.4574844 C29.5279955,52.0128214 42.6896993,53.8880089 51.7634329,49.8205402 Z M27.1597212,35.7954152 L54.2612924,35.7954152 L54.2612924,26.3323013 L27.1597212,26.3323013 L27.1597212,35.7954152 Z" id="wpbeginner" fill="#000000" fill-rule="nonzero"></path>
    </g>
</svg>