<?xml version="1.0" encoding="UTF-8"?>
<svg width="76px" height="76px" viewBox="0 0 76 76" version="1.1" xmlns="http://www.w3.org/2000/svg" xmlns:xlink="http://www.w3.org/1999/xlink">
    <!-- Generator: Sketch 48.1 (47250) - http://www.bohemiancoding.com/sketch -->
    <title>wpexplorer</title>
    <desc>Created with Sketch.</desc>
    <defs></defs>
    <g id="wpexplorer---f2de" stroke="none" stroke-width="1" fill="none" fill-rule="evenodd">
        <path d="M76,38 C76,58.959375 58.9742187,76 38,76 C17.040625,76 0,58.9742187 0,38 C0,17.0257812 17.0257813,0 38,0 C58.9742187,0 76,17.0257813 76,38 Z M71.25,38 C71.25,19.7125 56.3617187,4.75 38,4.75 C19.6679688,4.75 4.75,19.6679688 4.75,38 C4.75,56.3320312 19.6679688,71.25 38,71.25 C56.3320312,71.25 71.25,56.3320312 71.25,38 Z M23.8835937,18.4953125 L36.7828125,24.0023438 L31.2757812,36.9015625 L18.3765625,31.3945312 L23.8835937,18.4953125 Z M40.2117187,43.5960938 L47.1289062,57.5492188 L44.9617187,57.5492188 L37.5398437,42.7054688 L30.28125,57.5492188 L28.203125,57.5492188 L35.7882812,41.68125 L32.478125,40.2859375 L33.36875,38.2078125 L43.5515625,42.5273438 L42.6609375,44.65 L40.2117187,43.5960938 Z M38.4601562,26.3328125 L48.6429687,30.696875 L44.2789062,40.8351562 L34.140625,36.515625 L38.4601563,26.3328125 Z M50.3796875,32.7007812 L58.484375,36.1296875 L55.0109375,44.1898438 L46.9507812,40.7609375 L50.3796875,32.7007812 Z" id="wpexplorer" fill="#000000" fill-rule="nonzero"></path>
    </g>
</svg>