<?xml version="1.0" encoding="UTF-8"?>
<svg width="76px" height="76px" viewBox="0 0 76 76" version="1.1" xmlns="http://www.w3.org/2000/svg" xmlns:xlink="http://www.w3.org/1999/xlink">
    <!-- Generator: Sketch 48.1 (47250) - http://www.bohemiancoding.com/sketch -->
    <title>wpforms</title>
    <desc>Created with Sketch.</desc>
    <defs></defs>
    <g id="wpforms---f298" stroke="none" stroke-width="1" fill="none" fill-rule="evenodd">
        <path d="M76,7.32693595 L76,68.673064 C76,72.7944655 72.7767857,76 68.6714286,76 L7.32857143,76 C3.27410714,75.9830395 0,72.8283865 0,68.6561035 L0,7.32693595 C0,3.23945548 3.18928571,0 7.32857143,0 L68.6883929,0 C72.7598214,0 76,3.18857398 76,7.32693595 Z M69.6723214,68.6561035 L69.6723214,7.32693595 C69.6723214,6.81812096 69.23125,6.34322696 68.6883929,6.34322696 L67.1107143,6.34322696 L48.3991071,18.9957599 L38,10.5324704 L27.6178571,18.9957599 L8.90625,6.32626646 L7.32857143,6.32626646 C6.78571429,6.32626646 6.34464286,6.80116046 6.34464286,7.30997545 L6.34464286,68.6561035 C6.34464286,69.1649185 6.78571429,69.6398125 7.32857143,69.6398125 L68.6883929,69.6398125 C69.23125,69.656773 69.6723214,69.181879 69.6723214,68.6561035 Z M25.4803571,26.1191698 L25.4803571,32.3945548 L13.0116071,32.3945548 L13.0116071,26.1191698 L25.4803571,26.1191698 Z M25.4803571,38.7377817 L25.4803571,45.0640482 L13.0116071,45.0640482 L13.0116071,38.7377817 L25.4803571,38.7377817 Z M27.3633929,13.7549654 L36.5241071,6.34322696 L16.4214286,6.34322696 L27.3633929,13.7549654 Z M62.9883929,26.1191698 L62.9883929,32.3945548 L29.7383929,32.3945548 L29.7383929,26.1191698 L62.9883929,26.1191698 Z M62.9883929,38.7377817 L62.9883929,45.0640482 L29.7383929,45.0640482 L29.7383929,38.7377817 L62.9883929,38.7377817 Z M48.6366071,13.7549654 L59.5785714,6.34322696 L39.4928571,6.34322696 L48.6366071,13.7549654 Z M62.9883929,51.3903147 L62.9883929,57.7165811 L46.1258929,57.7165811 L46.1258929,51.3903147 L62.9883929,51.3903147 Z" id="wpforms" fill="#000000" fill-rule="nonzero"></path>
    </g>
</svg>