<?xml version="1.0" encoding="UTF-8"?>
<svg width="76px" height="76px" viewBox="0 0 76 76" version="1.1" xmlns="http://www.w3.org/2000/svg" xmlns:xlink="http://www.w3.org/1999/xlink">
    <!-- Generator: Sketch 48.1 (47250) - http://www.bohemiancoding.com/sketch -->
    <title>xing-square</title>
    <desc>Created with Sketch.</desc>
    <defs></defs>
    <g id="xing-square---f169" stroke="none" stroke-width="1" fill="none" fill-rule="evenodd">
        <path d="M3.55271368e-15,-3.55271368e-15 L76,-3.55271368e-15 L76,76 L3.55271368e-15,76 L3.55271368e-15,-3.55271368e-15 Z M23.8178571,48.8910714 C24.6491071,48.8910714 25.3616071,48.3991071 25.9553571,47.3473214 C31.4008929,37.7625 34.2339286,32.775 34.4544643,32.3848214 L29.0428571,23.0035714 C28.4660714,22.0196429 27.7366071,21.5276786 26.8544643,21.5276786 L18.9491071,21.5276786 C17.9651786,21.5276786 17.4223214,22.2910714 17.93125,23.2410714 L23.2580357,32.4017857 C23.275,32.41875 23.275,32.4357143 23.2580357,32.4357143 L14.8946429,47.14375 C14.4366071,47.9919643 14.9794643,48.8910714 15.9125,48.8910714 L23.8178571,48.8910714 Z M61.0883929,12.5705357 C61.5633929,11.6714286 61.0375,10.8571429 60.0705357,10.8741071 L52.1142857,10.8741071 C51.2491071,10.8741071 50.5535714,11.3660714 49.99375,12.35 C38.6955357,32.2660714 32.8428571,42.5803571 32.4526786,43.2758929 L43.6491071,63.6839286 C44.1919643,64.6678571 44.9044643,65.1598214 45.8375,65.1598214 L53.7428571,65.1598214 C54.7776786,65.1598214 55.2357143,64.3116071 54.7607143,63.4464286 L43.6491071,43.2589286 L43.6491071,43.225 L61.0883929,12.5705357 Z" id="xing-square" fill="#000000" fill-rule="nonzero"></path>
    </g>
</svg>