<?xml version="1.0" encoding="UTF-8"?>
<svg width="66px" height="76px" viewBox="0 0 66 76" version="1.1" xmlns="http://www.w3.org/2000/svg" xmlns:xlink="http://www.w3.org/1999/xlink">
    <!-- Generator: Sketch 48.1 (47250) - http://www.bohemiancoding.com/sketch -->
    <title>xing</title>
    <desc>Created with Sketch.</desc>
    <defs></defs>
    <g id="xing---f168" stroke="none" stroke-width="1" fill="none" fill-rule="evenodd" transform="translate(-5.000000, 0.000000)">
        <path d="M32.9615491,30.1896898 C32.6521537,30.7493863 28.6300141,37.7201518 20.912319,51.1359072 C20.0700761,52.5436287 19.0559469,53.2559696 17.8699314,53.2559696 L6.68013292,53.2559696 C5.35660837,53.2559696 4.60030862,51.9839322 5.21909932,50.8136577 L17.0792544,30.2405713 C17.1136317,30.2405713 17.1136317,30.2236108 17.0792544,30.1896898 L9.53344559,17.3675519 C8.79433448,16.0446329 9.58501149,14.9761214 10.9944792,14.9761214 L22.1842777,14.9761214 C23.4390477,14.9761214 24.4703656,15.6715019 25.2782312,17.0453024 L32.9615491,30.1896898 Z M70.7593477,2.39143048 L46.0077196,45.3014952 L46.0077196,45.3523767 L61.7525052,73.6085695 C62.4228618,74.812765 61.7868825,76 60.2914716,76 L49.0844845,76 C47.7781486,76 46.7468308,75.32158 45.990531,73.930819 L30.1082364,45.3523767 C30.6754612,44.3686677 38.9603811,29.9522428 54.9973734,2.06918099 C55.7880504,0.695380495 56.784991,0 58.0053838,0 L69.2983141,0 C70.6734045,0 71.4125156,1.13635349 70.7593477,2.39143048 Z" id="xing" fill="#000000" fill-rule="nonzero"></path>
    </g>
</svg>