<?xml version="1.0" encoding="UTF-8"?>
<svg width="60px" height="76px" viewBox="0 0 60 76" version="1.1" xmlns="http://www.w3.org/2000/svg" xmlns:xlink="http://www.w3.org/1999/xlink">
    <!-- Generator: Sketch 48.1 (47250) - http://www.bohemiancoding.com/sketch -->
    <title>yahoo</title>
    <desc>Created with Sketch.</desc>
    <defs></defs>
    <g id="yahoo---f19e" stroke="none" stroke-width="1" fill="none" fill-rule="evenodd" transform="translate(-8.000000, 0.000000)">
        <path d="M42.1545297,43.34375 L42.7469761,76 C40.865959,75.6734375 39.266354,75.4210937 37.9629721,75.4210937 C36.7188349,75.4210937 35.1192298,75.6734375 33.1789682,76 L33.7714145,43.34375 C25.6252777,29.271875 17.4198963,14.13125 8,0 C9.76252777,0.46015625 11.4065663,0.57890625 12.9173044,0.57890625 C14.2503086,0.57890625 15.9387805,0.46015625 17.9679092,0 C24.0256727,10.7171875 30.1278697,20.5882812 37.9629721,33.4726562 C43.4875339,24.3289062 51.4559368,12.0828125 57.9432239,0 C59.5872624,0.43046875 61.2016786,0.57890625 62.8160948,0.57890625 C64.5193779,0.57890625 66.2522834,0.43046875 68,0 C62.9049617,7.11015625 48.5085164,32.1960938 42.1545297,43.34375 Z" id="yahoo" fill="#000000" fill-rule="nonzero"></path>
    </g>
</svg>