<?xml version="1.0" encoding="UTF-8"?>
<svg width="58px" height="76px" viewBox="0 0 58 76" version="1.1" xmlns="http://www.w3.org/2000/svg" xmlns:xlink="http://www.w3.org/1999/xlink">
    <!-- Generator: Sketch 48.1 (47250) - http://www.bohemiancoding.com/sketch -->
    <title>yelp</title>
    <desc>Created with Sketch.</desc>
    <defs></defs>
    <g id="yelp---f1e9" stroke="none" stroke-width="1" fill="none" fill-rule="evenodd" transform="translate(-9.000000, 0.000000)">
        <path d="M29.663896,48.2518467 C29.5127941,48.2970859 13.1635662,53.6353173 12.1662935,53.6353173 C9.86954434,53.4995996 9.370908,51.1923979 9.15936531,48.9304354 C8.93271243,46.789111 8.94782262,44.43667 9.20469588,41.8731125 C9.49178953,39.0381196 10.0357565,35.0721454 12.8613624,35.2380227 C13.5866516,35.2380227 23.0003013,39.1436778 29.8905489,41.9334315 C32.4743917,42.9588545 32.7010446,47.3319819 29.663896,48.2518467 Z M38.4126972,31.0760117 C38.6846807,36.8364761 34.5595983,38.3896904 31.2806866,33.232416 L15.2185523,7.89843642 C14.9918995,6.90317294 15.2638829,6.02854745 16.0193925,5.27455997 C18.3765825,2.78640126 31.0389235,-0.727180422 34.378276,0.132365313 C35.5115404,0.418880557 36.2066092,1.05223005 36.4634825,2.03241378 C36.659915,3.284033 38.2011546,27.2759148 38.4126972,31.0760117 Z M38.2011546,55.9274393 C38.2011546,56.6211078 38.2313749,73.480268 37.9442813,74.2493352 C37.5967469,75.1541202 36.8865678,75.7120709 35.7835238,75.9382672 C34.2573944,76.1946229 31.6886618,75.6517519 28.0773258,74.3247339 C24.7530836,73.1032742 19.5098469,71.0825878 20.6280011,67.9158403 C21.0510865,66.8753376 28.3946399,58.4457575 32.3081796,53.8011946 C34.1214027,51.5090726 38.3220361,52.9718083 38.2011546,55.9274393 Z M65.4297208,38.1634941 C64.58355,38.7214449 48.6876279,42.4159835 47.5845839,42.7778975 L47.6299144,42.687419 C44.8949697,43.3961673 42.2809064,39.8976653 44.1092397,37.4698256 C44.6683168,36.9118749 54.0668563,23.5361369 55.1094595,22.8424684 C55.8951895,22.2995974 56.8169112,22.2694379 57.8746247,22.7519899 C60.6549,24.0790079 66.2003406,32.267312 66.547875,35.5094582 C66.5327648,35.9467709 66.7291973,37.2737889 65.4297208,38.1634941 Z M66.9558502,57.872727 C66.547875,60.9791554 60.2318147,68.9412633 57.3155476,70.0873243 C56.2729443,70.4793978 55.3663328,70.3889193 54.6410436,69.7857293 C53.885534,69.257938 45.3029449,55.1432923 44.8345289,54.3591453 C43.187518,51.9162259 45.862022,48.3574049 48.7027381,49.3526684 C48.7027381,49.3526684 65.3995004,54.7361391 66.0341284,55.2940898 C66.8198584,55.9123595 67.1220623,56.7719053 66.9558502,57.872727 Z" id="yelp" fill="#000000" fill-rule="nonzero"></path>
    </g>
</svg>