<?xml version="1.0" encoding="UTF-8"?>
<svg width="72px" height="76px" viewBox="0 0 72 76" version="1.1" xmlns="http://www.w3.org/2000/svg" xmlns:xlink="http://www.w3.org/1999/xlink">
    <!-- Generator: Sketch 48.1 (47250) - http://www.bohemiancoding.com/sketch -->
    <title>yoast</title>
    <desc>Created with Sketch.</desc>
    <defs></defs>
    <g id="yoast---f2b1" stroke="none" stroke-width="1" fill="none" fill-rule="evenodd" transform="translate(-2.000000, 0.000000)">
        <path d="M16.6732143,9.01694915 L46.5660714,9.01694915 L45.4410714,12.0601695 L16.6732143,12.0601695 C10.2928571,12.0601695 5.11785714,17.1483051 5.11785714,23.379661 L5.11785714,56.4525424 C5.11785714,62.1525424 9.11964286,67.7720339 18.6178571,67.7720339 L18.6178571,70.8474576 L16.6732143,70.8474576 C8.62142857,70.8474576 2,64.3745763 2,56.4364407 L2,23.379661 C2,15.4415254 8.54107143,9.01694915 16.6732143,9.01694915 Z M53.4928571,0 L64.1803571,0 C41.0696429,60.8805085 40.7642857,64.229661 34.4964286,70.7347458 C31.1535714,74.2127119 26.5732143,75.8389831 21.9125,76 L21.9125,67.7720339 C29.8196429,66.5322034 32.2946429,59.7372881 32.2946429,55.6474576 C32.2946429,52.4110169 32.3910714,53.6186441 19.1,19.7084746 L28.9678571,19.7084746 L37.0678571,44.9237288 L53.4928571,0 Z M74,22.7838983 L74,70.8474576 L39.6071429,70.8474576 C40.6678571,69.3016949 41.3267857,68.2228814 41.5517857,67.7237288 L70.8821429,67.7237288 L70.8821429,22.7838983 C70.8821429,17.5508475 68.1339286,14.4271186 63.1357143,12.6559322 L64.2125,9.8220339 C70.9142857,12.0118644 74,16.7618644 74,22.7838983 Z" id="yoast" fill="#000000" fill-rule="nonzero"></path>
    </g>
</svg>