<?xml version="1.0" encoding="UTF-8"?>
<svg width="76px" height="76px" viewBox="0 0 76 76" version="1.1" xmlns="http://www.w3.org/2000/svg" xmlns:xlink="http://www.w3.org/1999/xlink">
    <!-- Generator: Sketch 48.1 (47250) - http://www.bohemiancoding.com/sketch -->
    <title>youtube-square</title>
    <desc>Created with Sketch.</desc>
    <defs></defs>
    <g id="youtube-square---f166" stroke="none" stroke-width="1" fill="none" fill-rule="evenodd">
        <path d="M31.6892857,28.85625 L47.8392857,38.0339286 L31.6892857,47.2116071 L31.6892857,28.85625 Z M0,0 L76,0 L76,76 L0,76 L0,0 Z M68.875,38.0508929 C68.875,38.0508929 68.875,27.9401786 67.5857143,23.0883929 C66.8732143,20.4080357 64.7866071,18.3044643 62.1232143,17.5919643 C57.3223214,16.2857143 38,16.2857143 38,16.2857143 C38,16.2857143 18.6776786,16.2857143 13.8767857,17.5919643 C11.2133929,18.3044643 9.12678571,20.4080357 8.41428571,23.0883929 C7.125,27.9232143 7.125,38.0508929 7.125,38.0508929 C7.125,38.0508929 7.125,48.1616071 8.41428571,53.0133929 C9.12678571,55.69375 11.2133929,57.7125 13.8767857,58.425 C18.6776786,59.7142857 38,59.7142857 38,59.7142857 C38,59.7142857 57.3223214,59.7142857 62.1232143,58.4080357 C64.7866071,57.6955357 66.8732143,55.6767857 67.5857143,52.9964286 C68.875,48.1616071 68.875,38.0508929 68.875,38.0508929 Z" id="youtube-square" fill="#000000" fill-rule="nonzero"></path>
    </g>
</svg>