<?xml version="1.0" encoding="UTF-8"?>
<svg width="76px" height="53px" viewBox="0 0 76 53" version="1.1" xmlns="http://www.w3.org/2000/svg" xmlns:xlink="http://www.w3.org/1999/xlink">
    <!-- Generator: Sketch 48.1 (47250) - http://www.bohemiancoding.com/sketch -->
    <title>youtube</title>
    <desc>Created with Sketch.</desc>
    <defs></defs>
    <g id="youtube---f167" stroke="none" stroke-width="1" fill="none" fill-rule="evenodd" transform="translate(0.000000, -12.000000)">
        <path d="M74.4119062,20.2927057 C73.5378424,17.028513 70.9625477,14.457737 67.6927055,13.5853073 C61.7658816,12 38,12 38,12 C38,12 14.2342575,12 8.30729455,13.5853073 C5.03745235,14.457875 2.46215764,17.028513 1.58809376,20.2927057 C0,26.2092448 0,38.5535521 0,38.5535521 C0,38.5535521 0,50.8978594 1.58809376,56.8143984 C2.46215764,60.0785911 5.03745235,62.542263 8.30729455,63.4146927 C14.2342575,65 38,65 38,65 C38,65 61.7657425,65 67.6927055,63.4146927 C70.9625477,62.542263 73.5378424,60.0785911 74.4119062,56.8143984 C76,50.8978594 76,38.5535521 76,38.5535521 C76,38.5535521 76,26.2092448 74.4119062,20.2927057 Z M30.227219,49.7612578 L30.227219,27.3458464 L50.0907763,38.5538281 L30.227219,49.7612578 Z" id="youtube" fill="#000000" fill-rule="nonzero"></path>
    </g>
</svg>