<?xml version="1.0" encoding="UTF-8"?>
<svg width="76px" height="47px" viewBox="0 0 76 47" version="1.1" xmlns="http://www.w3.org/2000/svg" xmlns:xlink="http://www.w3.org/1999/xlink">
    <!-- Generator: Sketch 48.1 (47250) - http://www.bohemiancoding.com/sketch -->
    <title>address-card</title>
    <desc>Created with Sketch.</desc>
    <defs></defs>
    <g id="address-card" stroke="none" stroke-width="1" fill="none" fill-rule="evenodd" transform="translate(0.000000, -15.000000)">
        <path d="M11.25,25 L30.75,25 C32.5449254,25 34,26.4221543 34,28.1764706 L34,48.8235294 C34,50.5778457 32.5449254,52 30.75,52 L11.25,52 C9.45507456,52 8,50.5778457 8,48.8235294 L8,28.1764706 C8,26.4221543 9.45507456,25 11.25,25 Z M31.0443084,50.795373 C31.0628344,50.7857536 31.0803122,50.7762768 31.096727,50.7669508 C31.0521236,45.6839039 29.7193522,44.4338708 25.8492376,43.3211135 C25.8262346,43.3145242 25.8040732,43.3115042 25.7793871,43.3115042 C25.5496376,43.3115042 25.145963,43.5495403 24.7190048,43.8013041 C23.8622833,44.3062043 22.6888498,44.9980742 20.9992513,44.9980742 C19.2838446,44.9980742 18.1297673,44.2858875 17.287072,43.7661615 C16.9033146,43.5294981 16.5069336,43.2851472 16.3024314,43.2851472 C16.2844778,43.2851472 16.2687684,43.2873436 16.2513759,43.2917365 C11.7643882,44.5428677 10.9323528,46.2752879 10.9012146,50.7633816 C10.9197436,50.7738628 10.9395982,50.7845305 10.9607579,50.795373 L31.0443084,50.795373 Z M32.375,46.9102996 L32.375,28.1764706 C32.375,27.2993125 31.6474627,26.5882353 30.75,26.5882353 L11.25,26.5882353 C10.3525373,26.5882353 9.625,27.2993125 9.625,28.1764706 L9.625,46.9023092 C10.2968332,44.3715365 11.9648816,42.7740057 15.7904743,41.7078487 C15.9568253,41.661175 16.1290673,41.6378381 16.3024314,41.6378381 C16.9930824,41.6378381 17.5718042,41.9947551 18.1844695,42.372538 C18.9275787,42.831039 19.7699934,43.350765 20.9992513,43.350765 C22.2209351,43.350765 23.0866334,42.8406483 23.8505013,42.3901093 C24.4836449,42.0169937 25.0817229,41.664195 25.7793871,41.664195 C25.9642526,41.664195 26.1474351,41.6897283 26.3238849,41.7407949 C30.0712301,42.818353 31.7112817,44.4073936 32.375,46.9102996 Z M76,20 L76,57 C76,59.7614237 73.7614237,62 71,62 L5,62 C2.23857625,62 3.38176876e-16,59.7614237 0,57 L0,20 C-3.38176876e-16,17.2385763 2.23857625,15 5,15 L71,15 C73.7614237,15 76,17.2385763 76,20 Z M5,59 L71,59 C72.1045695,59 73,58.1045695 73,57 L73,20 C73,18.8954305 72.1045695,18 71,18 L5,18 C3.8954305,18 3,18.8954305 3,20 L3,57 C3,58.1045695 3.8954305,59 5,59 Z M40,27 C46.8738802,27 60.6216405,27 67.4955207,27 C67.4955207,27.75 67.4955207,29.25 67.4955207,30 C60.6216405,30 46.8738802,30 40,30 C40,29.25 40,27.75 40,27 Z M40,33 C43.7644576,33 51.2933729,33 55.0578305,33 C55.0578305,33.75 55.0578305,35.25 55.0578305,36 C51.2933729,36 43.7644576,36 40,36 C40,35.25 40,33.75 40,33 Z M40,39 C44.75,39 54.25,39 59,39 C59,39.75 59,41.25 59,42 C54.25,42 44.75,42 40,42 C40,41.25 40,39.75 40,39 Z M40,45 C43.7644576,45 51.2933729,45 55.0578305,45 C55.0578305,45.75 55.0578305,47.25 55.0578305,48 C51.2933729,48 43.7644576,48 40,48 C40,47.25 40,45.75 40,45 Z M21,29.68 C22.8380556,29.68 24.3333333,31.18696 24.3333333,33.03944 L24.3333333,36.96056 C24.3333333,38.81304 22.8380556,40.32 21,40.32 C19.1619444,40.32 17.6666667,38.81304 17.6666667,36.96056 L17.6666667,33.03944 C17.6666667,31.18696 19.1619444,29.68 21,29.68 M21,28 C18.2380556,28 16,30.25652 16,33.03944 L16,36.96056 C16,39.74292 18.2386111,42 21,42 C23.7619444,42 26,39.74348 26,36.96056 L26,33.03944 C26,30.25708 23.7613889,28 21,28" fill="#000000" fill-rule="nonzero"></path>
    </g>
</svg>