<?xml version="1.0" encoding="UTF-8"?>
<svg width="63px" height="76px" viewBox="0 0 63 76" version="1.1" xmlns="http://www.w3.org/2000/svg" xmlns:xlink="http://www.w3.org/1999/xlink">
    <!-- Generator: Sketch 48.1 (47250) - http://www.bohemiancoding.com/sketch -->
    <title>address-book</title>
    <desc>Created with Sketch.</desc>
    <defs></defs>
    <g id="address-book" stroke="none" stroke-width="1" fill="none" fill-rule="evenodd" transform="translate(-7.000000, 0.000000)">
        <g transform="translate(7.000000, 0.000000)">
            <g fill="#000000" id="Combined-Shape">
                <path d="M3,60 L3,47 L1.5,47 C0.671572875,47 3.65416674e-15,46.3284271 3.55271368e-15,45.5 C3.45126062e-15,44.6715729 0.671572875,44 1.5,44 L3,44 L3,31 L1.5,31 C0.671572875,31 3.65416674e-15,30.3284271 3.55271368e-15,29.5 C3.45126062e-15,28.6715729 0.671572875,28 1.5,28 L3,28 L3,15 L1.5,15 C0.671572875,15 3.65416674e-15,14.3284271 3.55271368e-15,13.5 C3.45126062e-15,12.6715729 0.671572875,12 1.5,12 L3,12 L3,9 C3,4.02943725 7.02943725,9.13077564e-16 12,0 L54,0 C58.9705627,-9.13077564e-16 63,4.02943725 63,9 L63,67 C63,71.9705627 58.9705627,76 54,76 L12,76 C7.02943725,76 3,71.9705627 3,67 L3,63 L1.5,63 C0.671572875,63 3.65416674e-15,62.3284271 3.55271368e-15,61.5 C3.45126062e-15,60.6715729 0.671572875,60 1.5,60 L3,60 Z M7,60 L9.77028404,60 C10.4223583,58.2522114 12.1818202,57 14.25,57 C16.8733526,57 19,59.0147186 19,61.5 C19,63.9852814 16.8733526,66 14.25,66 C12.1818202,66 10.4223583,64.7477886 9.77028404,63 L7,63 L7,66.2869281 C7,69.6006366 9.6862915,72.2869281 13,72.2869281 L53.4210526,72.2869281 C56.7347611,72.2869281 59.4210526,69.6006366 59.4210526,66.2869281 L59.4210526,9.7130719 C59.4210526,6.3993634 56.7347611,3.7130719 53.4210526,3.7130719 L13,3.7130719 C9.6862915,3.7130719 7,6.3993634 7,9.7130719 L7,12 L9.77028404,12 C10.4223583,10.2522114 12.1818202,9 14.25,9 C16.8733526,9 19,11.0147186 19,13.5 C19,15.9852814 16.8733526,18 14.25,18 C12.1818202,18 10.4223583,16.7477886 9.77028404,15 L7,15 L7,28 L9.77028404,28 C10.4223583,26.2522114 12.1818202,25 14.25,25 C16.8733526,25 19,27.0147186 19,29.5 C19,31.9852814 16.8733526,34 14.25,34 C12.1818202,34 10.4223583,32.7477886 9.77028404,31 L7,31 L7,44 L9.77028404,44 C10.4223583,42.2522114 12.1818202,41 14.25,41 C16.8733526,41 19,43.0147186 19,45.5 C19,47.9852814 16.8733526,50 14.25,50 C12.1818202,50 10.4223583,48.7477886 9.77028404,47 L7,47 L7,60 Z M14.25,15 C15.1244509,15 15.8333333,14.3284271 15.8333333,13.5 C15.8333333,12.6715729 15.1244509,12 14.25,12 C13.3755491,12 12.6666667,12.6715729 12.6666667,13.5 C12.6666667,14.3284271 13.3755491,15 14.25,15 Z M14.25,31 C15.1244509,31 15.8333333,30.3284271 15.8333333,29.5 C15.8333333,28.6715729 15.1244509,28 14.25,28 C13.3755491,28 12.6666667,28.6715729 12.6666667,29.5 C12.6666667,30.3284271 13.3755491,31 14.25,31 Z M14.25,47 C15.1244509,47 15.8333333,46.3284271 15.8333333,45.5 C15.8333333,44.6715729 15.1244509,44 14.25,44 C13.3755491,44 12.6666667,44.6715729 12.6666667,45.5 C12.6666667,46.3284271 13.3755491,47 14.25,47 Z M14.25,63 C15.1244509,63 15.8333333,62.3284271 15.8333333,61.5 C15.8333333,60.6715729 15.1244509,60 14.25,60 C13.3755491,60 12.6666667,60.6715729 12.6666667,61.5 C12.6666667,62.3284271 13.3755491,63 14.25,63 Z"></path>
            </g>
            <g id="Group" transform="translate(23.000000, 18.000000)"></g>
            <path d="M26,14 L50,14 C52.209139,14 54,15.790861 54,18 L54,44 C54,46.209139 52.209139,48 50,48 L26,48 C23.790861,48 22,46.209139 22,44 L22,18 C22,15.790861 23.790861,14 26,14 Z M50.3622258,46.4830623 C50.385027,46.470949 50.4065381,46.4590152 50.4267409,46.4472713 C50.3718445,40.0463975 48.7315104,38.4722817 43.9682925,37.0710318 C43.9399811,37.0627342 43.9127055,37.0589312 43.8823225,37.0589312 C43.5995539,37.0589312 43.1027237,37.3586804 42.5772367,37.6757162 C41.5228103,38.3115166 40.0785843,39.1827601 37.9990786,39.1827601 C35.8878088,39.1827601 34.4674059,38.2859324 33.4302424,37.6314626 C32.9579257,37.333442 32.4700722,37.0257409 32.218377,37.0257409 C32.1962804,37.0257409 32.1769458,37.0285068 32.1555396,37.0340385 C26.6330931,38.6095372 25.6090496,40.7911032 25.5707257,46.4427768 C25.5935306,46.4559754 25.617967,46.4694088 25.6440097,46.4830623 L50.3622258,46.4830623 Z M52,41.5907476 L52,18 C52,16.8954305 51.1045695,16 50,16 L26,16 C24.8954305,16 24,16.8954305 24,18 L24,41.5806857 C24.8268716,38.3937867 26.8798543,36.3820813 31.5882761,35.0395132 C31.7930157,34.9807388 32.0050059,34.9513517 32.218377,34.9513517 C33.0684091,34.9513517 33.7806822,35.4008027 34.5347317,35.8765293 C35.4493276,36.453901 36.4861458,37.1083708 37.9990786,37.1083708 C39.5026893,37.1083708 40.5681642,36.4660016 41.5083093,35.8986561 C42.2875629,35.4288069 43.0236589,34.9845419 43.8823225,34.9845419 C44.1098494,34.9845419 44.3353047,35.0166949 44.5524737,35.081001 C49.1645909,36.437926 51.183116,38.4389401 52,41.5907476 Z" id="Combined-Shape" fill="#000000"></path>
            <path d="M38.4824437,18.5169377 C41.9528172,18.5169377 44.7661902,21.3223502 44.7661902,24.7806536 L44.7661902,29.654366 C44.7661902,33.1133655 41.9535154,35.9180819 38.4824437,35.9180819 C35.0120701,35.9180819 32.1986972,33.1126694 32.1986972,29.654366 L32.1986972,24.7806536 C32.1986972,21.3216542 35.0113719,18.5169377 38.4824437,18.5169377 Z M38.4824437,20.605075 C36.1724686,20.605075 34.2932793,22.4781342 34.2932793,24.7806536 L34.2932793,29.654366 C34.2932793,31.9568854 36.1724686,33.8299446 38.4824437,33.8299446 C40.7924187,33.8299446 42.671608,31.9568854 42.671608,29.654366 L42.671608,24.7806536 C42.671608,22.4781342 40.7924187,20.605075 38.4824437,20.605075 Z" id="Combined-Shape" fill="#000000"></path>
        </g>
    </g>
</svg>