<?xml version="1.0" encoding="UTF-8"?>
<svg width="76px" height="54px" viewBox="0 0 76 54" version="1.1" xmlns="http://www.w3.org/2000/svg" xmlns:xlink="http://www.w3.org/1999/xlink">
    <!-- Generator: Sketch 48.1 (47250) - http://www.bohemiancoding.com/sketch -->
    <title>align-right</title>
    <desc>Created with Sketch.</desc>
    <defs></defs>
    <g id="align-left---f036" stroke="none" stroke-width="1" fill="none" fill-rule="evenodd" transform="translate(0.000000, -11.000000)">
        <path d="M0,11 L76,11 L76,17 L0,17 L0,11 Z M0,35 L76,35 L76,41 L0,41 L0,35 Z M0,59 L76,59 L76,65 L0,65 L0,59 Z M1.42108547e-14,23 L58,23 L58,29 L1.42108547e-14,29 L1.42108547e-14,23 Z M1.42108547e-14,47 L58,47 L58,53 L1.42108547e-14,53 L1.42108547e-14,47 Z" id="align-right" fill="#000000"></path>
    </g>
</svg>