<?xml version="1.0" encoding="UTF-8"?>
<svg width="76px" height="76px" viewBox="0 0 76 76" version="1.1" xmlns="http://www.w3.org/2000/svg" xmlns:xlink="http://www.w3.org/1999/xlink">
    <!-- Generator: Sketch 48.1 (47250) - http://www.bohemiancoding.com/sketch -->
    <title>anchor</title>
    <desc>Created with Sketch.</desc>
    <defs></defs>
    <g id="anchor" stroke="none" stroke-width="1" fill="none" fill-rule="evenodd">
        <path d="M38,0 C41.5797101,0 44.6775362,1.30797101 47.2934783,3.92391304 C49.9094203,6.53985507 51.2173913,9.63768116 51.2173913,13.2173913 C51.2173913,16.2463768 50.2880434,18.9311594 48.4293476,21.2717391 C46.5706517,23.6123188 44.1956518,25.1956522 41.3043478,26.0217391 C41.3043478,28.3623188 41.3043478,31.2880435 41.3043478,33.0434783 C43.7826087,33.0434783 48.7391304,33.0434783 51.2173913,33.0434783 C51.2173913,34.6956522 51.2173913,38 51.2173913,39.6521739 C48.7391304,39.6521739 43.7826087,39.6521739 41.3043478,39.6521739 C41.3043478,46.2608696 41.3043478,46.2608696 41.3043478,66.0869565 C48.1884058,65.5362319 53.9021741,63.1956522 58.4456527,59.0652174 C60.7862321,57.0000004 62.8514491,54.3840583 64.6413038,51.2173913 C62.9202895,50.3913043 60.7690216,49.3586957 59.4782609,48.7391304 C62.7826087,47.241848 69.3913043,44.247283 72.6956522,42.7500005 C73.5217391,46.3125004 75.173913,53.4375001 76,57 C74.6576087,56.3288045 74.6576087,56.3288045 70.6304348,54.3152179 C68.5652177,58.0326089 65.9492757,61.2681159 62.7826087,64.0217391 C57.1376815,69.1159424 49.9782612,71.9384063 41.3043478,72.489131 C41.3043478,72.5579714 41.3043478,72.6440219 41.3043478,72.6956522 C40.4782609,73.5217391 38.826087,75.173913 38,76 C37.173913,75.173913 35.5217391,73.5217391 34.6956522,72.6956522 C34.6956522,72.6440219 34.6956522,72.6440219 34.6956522,72.489131 C26.0217388,71.9384063 18.8623185,69.1159424 13.2173913,64.0217391 C10.0507243,61.2681159 7.43478226,58.0326089 5.36956522,54.3152179 C3.57971014,55.2101453 1.3423913,56.3288045 0,57 C0.826086957,53.4375001 2.47826087,46.3125004 3.30434783,42.7500005 C6.60869565,44.247283 13.2173913,47.241848 16.5217391,48.7391304 C15.2309784,49.3586957 15.2309784,49.3586957 11.3586962,51.2173913 C13.1485509,54.3840583 15.2137679,57.0000004 17.5543473,59.0652174 C22.0978259,63.1956522 27.8115942,65.5362319 34.6956522,66.0869565 C34.6956522,57.2753623 34.6956522,46.2608696 34.6956522,39.6521739 C32.2173913,39.6521739 27.2608696,39.6521739 24.7826087,39.6521739 C24.7826087,38 24.7826087,34.6956522 24.7826087,33.0434783 C27.2608696,33.0434783 32.2173913,33.0434783 34.6956522,33.0434783 C34.6956522,31.2880435 34.6956522,31.2880435 34.6956522,26.0217391 C31.8043482,25.1956522 29.4293483,23.6123188 27.5706524,21.2717391 C25.7119566,18.9311594 24.7826087,16.2463768 24.7826087,13.2173913 C24.7826087,9.63768116 26.0905799,6.53985525 28.7065223,3.92391357 C31.3224639,1.30797119 34.4202899,0 38,0 Z M38,6.60869565 C36.2101453,6.60869565 34.6612323,7.26268125 33.3532611,8.57065244 C32.0452899,9.87862363 31.3913043,11.4275366 31.3913043,13.2173913 C31.3913043,15.007246 32.0452899,16.556159 33.3532611,17.8641302 C34.6612323,19.1721014 36.2101453,19.826087 38,19.826087 C39.7898547,19.826087 41.3387677,19.1721014 42.6467389,17.8641302 C43.9547101,16.556159 44.6086957,15.007246 44.6086957,13.2173913 C44.6086957,11.4275366 43.9547101,9.87862363 42.6467389,8.57065244 C41.3387677,7.26268125 39.7898547,6.60869565 38,6.60869565 Z" fill="#000000" fill-rule="nonzero"></path>
    </g>
</svg>