<?xml version="1.0" encoding="UTF-8"?>
<svg width="76px" height="76px" viewBox="0 0 76 76" version="1.1" xmlns="http://www.w3.org/2000/svg" xmlns:xlink="http://www.w3.org/1999/xlink">
    <!-- Generator: Sketch 48.1 (47250) - http://www.bohemiancoding.com/sketch -->
    <title>arrows-alt</title>
    <desc>Created with Sketch.</desc>
    <defs></defs>
    <g id="arrows-alt---f0b2" stroke="none" stroke-width="1" fill="none" fill-rule="evenodd">
        <path d="M30.376547,25.8244631 L25.8244631,30.376547 L6.33333333,10.8854172 L6.33333333,28.5 L0,28.5 L0,0 L28.5,0 L28.5,6.33333333 L10.8854172,6.33333333 L30.376547,25.8244631 Z M45.623453,25.8244631 L65.1145828,6.33333333 L47.5,6.33333333 L47.5,0 L76,0 L76,28.5 L69.6666667,28.5 L69.6666667,10.8854172 L50.1755369,30.376547 L45.623453,25.8244631 Z M50.1755369,45.623453 L69.6666667,65.1145828 L69.6666667,47.5 L76,47.5 L76,76 L47.5,76 L47.5,69.6666667 L65.1145828,69.6666667 L45.623453,50.1755369 L50.1755369,45.623453 Z M30.376547,50.1755369 L10.8854172,69.6666667 L28.5,69.6666667 L28.5,76 L0,76 L0,47.5 L6.33333333,47.5 L6.33333333,65.1145828 L25.8244631,45.623453 L30.376547,50.1755369 Z" id="arrows-alt" fill="#000000" fill-rule="nonzero"></path>
    </g>
</svg>