<?xml version="1.0" encoding="UTF-8"?>
<svg width="76px" height="76px" viewBox="0 0 76 76" version="1.1" xmlns="http://www.w3.org/2000/svg" xmlns:xlink="http://www.w3.org/1999/xlink">
    <!-- Generator: Sketch 48.1 (47250) - http://www.bohemiancoding.com/sketch -->
    <title>arrows</title>
    <desc>Created with Sketch.</desc>
    <defs></defs>
    <g id="arrows" stroke="none" stroke-width="1" fill="none" fill-rule="evenodd">
        <polygon fill="#000000" fill-rule="nonzero" points="34.875 34.78125 34.875 12.0423762 26.78125 20.7282395 22.09375 15.9533704 38 -0.09375 53.90625 15.9533704 49.21875 20.7282395 41.125 12.0423762 41.125 34.78125 63.8638738 34.78125 55.1780105 26.6875 59.9528796 22 76 37.90625 59.9528796 53.8125 55.1780105 49.125 63.8638738 41.03125 41.125 41.03125 41.125 63.7701238 49.21875 55.0842605 53.90625 59.8591296 38 75.90625 22.09375 59.8591296 26.78125 55.0842605 34.875 63.7701238 34.875 41.03125 12.1361262 41.03125 20.8219895 49.125 16.0471204 53.8125 0 37.90625 16.0471204 22 20.8219895 26.6875 12.1361262 34.78125"></polygon>
    </g>
</svg>