<?xml version="1.0" encoding="UTF-8"?>
<svg width="76px" height="76px" viewBox="0 0 76 76" version="1.1" xmlns="http://www.w3.org/2000/svg" xmlns:xlink="http://www.w3.org/1999/xlink">
    <!-- Generator: Sketch 48.1 (47250) - http://www.bohemiancoding.com/sketch -->
    <title>arrow-circle-left</title>
    <desc>Created with Sketch.</desc>
    <defs></defs>
    <g id="Artboard-Copy-37" stroke="none" stroke-width="1" fill="none" fill-rule="evenodd">
        <g id="arrow-circle-left" transform="translate(38.000000, 38.000000) rotate(-270.000000) translate(-38.000000, -38.000000) " fill="#000000" fill-rule="nonzero">
            <path d="M38,0 C48.474359,0 57.4262821,3.71474359 64.8557692,11.1442308 C72.2852564,18.5737179 76,27.525641 76,38 C76,48.474359 72.2852564,57.4262821 64.8557692,64.8557692 C57.4262821,72.2852564 48.474359,76 38,76 C27.525641,76 18.5737179,72.2852564 11.1442308,64.8557692 C3.71474359,57.4262821 0,48.474359 0,38 C0,27.525641 3.71474359,18.5737179 11.1442308,11.1442308 C18.5737179,3.71474359 27.525641,0 38,0 Z M38.0769231,5.92307692 C29.2071681,5.92307692 21.6435756,9.05179204 15.3861453,15.3092223 C9.12871511,21.5666525 6,29.1302451 6,38 C6,46.8697549 9.12871511,54.4333475 15.3861453,60.6907777 C21.6435756,66.948208 29.2071681,70.0769231 38.0769231,70.0769231 C46.946678,70.0769231 54.5102706,66.948208 60.7677008,60.6907777 C67.025131,54.4333475 70.1538462,46.8697549 70.1538462,38 C70.1538462,29.1302451 67.025131,21.5666525 60.7677008,15.3092223 C54.5102706,9.05179204 46.946678,5.92307692 38.0769231,5.92307692 Z M35.0769231,17.5384615 C36.5384615,17.5384615 39.4615385,17.5384615 40.9230769,17.5384615 C40.9230769,25.0288462 40.9230769,40.0096154 40.9230769,47.5 C43.8461538,44.5769231 49.6923077,38.7307692 52.6153846,35.8076923 C53.6201923,36.9038462 55.6298077,39.0961538 56.6346154,40.1923077 C52.5240385,44.3028846 44.3028846,52.5240385 40.1923077,56.6346154 C39.6442308,57.1826923 38.5480769,58.2788462 38,58.8269231 C37.4519231,58.2788462 36.3557692,57.1826923 35.8076923,56.6346154 C31.6971154,52.5240385 23.4759615,44.3028846 19.3653846,40.1923077 C20.3701923,39.0961538 22.3798077,36.9038462 23.3846154,35.8076923 C26.3076923,38.7307692 32.1538462,44.5769231 35.0769231,47.5 C35.0769231,40.0096154 35.0769231,25.0288462 35.0769231,17.5384615 Z" id="path__0"></path>
        </g>
    </g>
</svg>