<?xml version="1.0" encoding="UTF-8"?>
<svg width="76px" height="55px" viewBox="0 0 76 55" version="1.1" xmlns="http://www.w3.org/2000/svg" xmlns:xlink="http://www.w3.org/1999/xlink">
    <!-- Generator: Sketch 48.1 (47250) - http://www.bohemiancoding.com/sketch -->
    <title>asl-interpreting</title>
    <desc>Created with Sketch.</desc>
    <defs></defs>
    <g id="american-sign-language-interpreting" stroke="none" stroke-width="1" fill="none" fill-rule="evenodd" transform="translate(0.000000, -11.000000)">
        <path d="M9.32975224,51.4297803 C9.17360575,50.7531456 9.48589872,50.0765108 10.1625335,49.8162667 C16.0440509,47.8904601 21.1968848,46.9015324 24.9964492,46.9015324 C29.264453,46.8494835 31.4505037,45.496214 31.970992,45.0798234 C33.0119685,43.6224563 34.2090915,41.8527961 34.8857263,40.707722 C33.4283591,40.395429 33.0119685,40.8638684 32.3353338,41.6966497 C32.2832849,41.7486985 32.3452599,41.7199029 32.2832849,41.7486985 C31.4505037,42.6335286 30.3574783,43.8827004 27.8070858,43.9347492 C26.2976698,43.9867981 23.9554726,43.8827004 21.4571289,43.2581145 C21.2489336,43.2581145 22.5402359,43.47127 21.2489336,43.2581145 C20.8845918,43.1540168 20.5722989,42.8417239 20.4161524,42.4253332 C18.3862481,36.6999623 19.0356912,38.9312917 18.3862481,36.6999623 C18.2821505,36.3356205 18.2821505,35.9192299 18.438297,35.6589857 C20.3120547,32.3278608 19.9914761,32.7983384 20.3120547,32.3278608 C20.4682012,32.0155678 20.7284453,31.8073725 21.0407383,31.7032749 C26.0374257,29.8815659 23.9739132,30.5681736 26.0374257,29.8815659 C26.245621,29.8295171 26.3497187,29.8295171 26.4538163,29.8295171 C27.755037,29.8295171 29.1603553,30.3500054 30.2533807,31.1307378 C31.7627967,32.2237632 32.6476267,33.9413744 32.855822,36.0753764 C32.9078709,36.6479134 33.1160662,36.8561088 33.2722126,37.0122552 C33.5324568,37.1684017 33.8447497,37.3245482 34.2611404,37.376597 C34.4172868,34.6180092 34.365238,33.5770327 34.365238,33.2647397 C34.2090915,32.6401538 31.2423084,28.8405894 29.8890389,27.9037105 C29.1603553,27.9037105 27.442744,27.9037105 25.6210351,27.9557593 C25.3607909,27.9557593 21.7173731,27.9557593 25.3607909,27.9557593 C24.1116191,28.0078082 22.8103984,28.0078082 21.7173731,28.1119058 C21.0407383,28.1119058 20.4682012,27.5914176 20.3641036,26.862734 C20.3641036,26.1860992 20.8845918,25.6135621 21.6132754,25.5094645 C21.8735195,25.5094645 22.7063008,25.4574156 23.7472773,25.4053668 C25.2046445,25.353318 21.5612266,25.353318 25.2046445,25.353318 L34.365238,23.1672673 C34.6254821,23.1152184 37.6443141,22.1262907 38.5291442,21.7099001 C39.4139742,21.3455583 39.778316,20.3045818 39.9865113,19.5238494 C31.4505037,21.5537536 33.5317624,21.1696219 31.4505037,21.5537536 C31.346406,21.6058025 31.2423084,21.6058025 31.1902596,21.6058025 C27.8070858,22.1262907 26.4017675,22.4385837 26.1415233,22.5426813 C26.0374257,22.5947302 25.8812792,22.646779 25.6210351,22.7508766 C25.3087421,22.8549743 24.8403027,23.0631696 24.3718632,23.2193161 C24.2677656,23.2713649 24.1636679,23.3234137 24.0075214,23.3234137 C22.3940078,23.8959508 20.1559082,24.7287321 19.7395176,24.9369274 C18.9067364,25.353318 16.616588,26.6024898 15.3153673,27.7996129 C15.0551232,28.059857 14.1182443,29.3090288 13.2334143,30.5061519 C12.6088283,31.3389331 12.9823867,30.9664173 12.6088283,31.3389331 C9.43384989,35.6589857 4.95765077,41.6966497 1.88676998,42.9458215 C1.41833054,43.2060656 0.845793438,43.0499192 0.429402823,42.6855774 C0.325305169,42.5814797 0.221207515,42.4773821 0.117109861,42.2691868 C-0.0390366202,41.9568938 -0.0390366202,41.592552 0.117109861,41.280259 C0.273256342,40.9679661 0.48145165,40.707722 0.845793438,40.6036243 C3.34413713,39.6146966 7.97648273,33.2647397 10.7871194,29.5172242 C11.20351,28.9967359 11.628358,28.4973063 11.20351,28.9967359 C12.5567795,27.1750269 13.2334143,26.2901969 13.6498049,25.8738063 C14.6387326,24.9889762 16.0440509,24.1041461 17.2932228,23.3754626 C18.1780528,22.1783395 19.7915665,20.3566306 19.7915665,20.3566306 C26.9743046,12.4452089 25.1686444,14.4791274 26.9743046,12.4452089 C27.442744,11.9767695 28.2234764,11.9247206 28.7960135,12.3411113 C29.4205994,12.9136483 30.149283,13.8505272 30.461576,14.9435526 C34.9898239,11.3001347 33.05387,12.8861526 34.9898239,11.3001347 C35.3021169,11.0398906 35.6664587,10.9357929 36.0308005,11.0398906 C36.2910446,11.0919394 36.5512887,11.2480859 36.7594841,11.4562812 C36.8635817,11.50833 37.6734971,12.5675576 36.8635817,11.50833 C37.9566071,12.8615995 38.7893883,15.411992 37.2799723,17.5459939 C41.0795367,16.6611639 39.5054182,17.0278872 41.0795367,16.6611639 C41.4438785,16.5570662 41.8082203,16.6091151 42.1725621,16.8693592 C42.484855,17.0775545 42.6930503,17.3898475 42.6930503,17.8062381 C42.797148,18.5349217 42.6410015,22.6988278 39.5701207,24.1041461 C38.5291442,24.6246344 35.6664587,25.5094645 35.0418728,25.665611 C34.9377751,25.7176598 34.8857263,25.7176598 34.7816286,25.7176598 C31.970992,26.3942945 28.3275741,26.3942945 31.970992,26.3942945 C33.8447497,28.059857 36.6553864,31.4430308 36.8115329,32.9524467 C36.9156305,34.1495698 36.7594841,37.6368412 36.6553864,38.57372 C36.9676794,38.6778177 36.9863558,38.701304 36.9676794,38.6778177 C37.3320211,38.8339642 37.6443141,39.1462571 37.8004606,39.5105989 C38.0607047,40.083136 38.0717408,41.1614565 33.8967986,46.6933371 C33.7406521,46.8494835 33.8503574,46.577571 33.7406521,46.8494835 C33.6365544,46.9535812 31.1382107,49.3998761 24.9964492,49.4519249 C19.4272247,49.5039737 12.3485842,51.8461709 10.9432659,52.3146104 C10.4748264,52.418708 10.006387,52.3146104 9.69409402,52.0023174 C9.48589872,51.8461709 9.38180106,51.6379756 9.32975224,51.4297803 Z M30.149283,36.2315228 C29.8890389,33.2126909 27.5988905,32.5360561 26.557914,32.3799096 C22.2378613,33.9413744 23.6553183,33.4355284 22.2378613,33.9413744 L20.8845918,36.3876693 L22.4981055,40.9159173 C23.4349843,41.1241126 25.3087421,41.4364055 27.6509393,41.3843567 C29.0562577,41.3323079 29.5246971,40.8118196 30.2533807,39.9790384 C30.6177225,39.5626478 30.9820643,39.198306 31.3984549,38.886013 C30.6697713,38.1573294 30.2533807,37.3245482 30.149283,36.2315228 Z M24.5280097,19.6799959 C26.0894745,18.3787752 26.5058651,18.0664822 26.6620116,17.9623846 C27.9111835,16.9734569 27.3191605,17.7447259 27.9111835,16.9734569 C28.1714276,16.3488709 28.0673299,15.8283827 27.8591346,15.3599432 C22.7063008,21.0332654 24.6907519,18.8598083 22.7063008,21.0332654 C22.8624472,20.9812165 22.9665449,20.9291677 23.1226914,20.8771189 C23.4349843,20.6168747 23.9554726,20.1484353 24.5280097,19.6799959 Z M32.3873826,18.6910681 C32.6476267,18.4828728 32.9078709,18.2226287 33.2201638,17.9623846 C33.7927009,17.4418963 34.365238,16.921408 34.7295798,16.6091151 C35.6144099,15.8283827 35.6664587,14.9435526 35.5103122,14.3189667 C29.264453,19.3156541 31.0626514,17.9040234 29.264453,19.3156541 C30.0451854,19.1595076 30.6697713,19.1074588 30.8779666,19.0554099 C32.3873826,18.6910681 32.735275,18.4615646 32.3873826,18.6910681 Z M66.4273154,25.3012692 C66.5834619,25.9779039 66.2711689,26.6545387 65.5945342,26.9147828 C59.7130167,28.8405894 54.5601829,29.8295171 50.7606185,29.8295171 C46.4926147,29.8815659 44.306564,31.2348354 43.7860757,31.6512261 C42.7450992,33.1085932 41.5479761,34.7986046 40.8713414,35.9436788 C42.3287085,36.2559717 42.7450992,35.867181 43.4217339,35.0343998 C43.4737827,34.982351 43.9657478,34.5506108 43.4737827,34.982351 C44.306564,34.0975209 45.3995893,32.8483491 47.9499819,32.7963003 C49.4593978,32.7442514 51.801595,32.8483491 54.2999387,33.472935 C54.4560852,33.5249838 50.8126673,33.5249838 54.4560852,33.5249838 C54.820427,33.6290815 55.13272,33.9413744 55.2888665,34.3577651 C57.3187707,40.083136 56.1520056,36.9400731 57.3187707,40.083136 C57.4228684,40.4474778 57.4228684,40.8638684 57.2667219,41.1241126 C55.3929641,44.4552375 56.1520056,43.2323238 55.3929641,44.4552375 C55.2368176,44.7675305 54.9765735,44.9757258 54.6642805,45.0798234 C49.6675931,46.9015324 51.373081,46.3386248 49.6675931,46.9015324 C49.5634955,46.9015324 49.407349,46.9015324 49.3032514,46.9015324 C48.0020307,46.9015324 46.5967123,46.3810441 45.503687,45.6003117 C43.994271,44.5072863 43.1094409,42.789675 42.9012456,40.6556731 C42.8491968,40.083136 42.6410015,39.8749407 42.484855,39.7187942 C42.2246109,39.5626478 41.9123179,39.4065013 41.4959273,39.3544525 C41.3397808,42.1130403 41.3918297,43.1540168 41.3918297,43.4663098 C41.5479761,44.0908957 44.5147593,47.8904601 45.8680288,48.827339 C46.5967123,48.827339 48.3143236,48.827339 50.1360326,48.7752901 C50.3962767,48.7752901 46.7528588,48.7752901 50.3962767,48.7752901 C51.6454486,48.7232413 52.9466692,48.7232413 54.0396946,48.6191437 C54.7163294,48.6191437 55.2888665,49.1396319 55.3929641,49.8683155 C55.3929641,50.5449503 54.8724758,51.1174873 54.1437923,51.221585 C53.8835481,51.221585 53.0507669,51.2736338 52.0097904,51.3256827 C50.5524232,51.3777315 46.9090053,51.3777315 50.5524232,51.3777315 L41.3918297,53.5117334 C41.1315855,53.5637822 38.1127536,54.5527099 37.2279235,54.9691005 C36.3430934,55.3334423 35.9787516,56.3744189 35.7705563,57.1551513 C44.2545151,55.1772959 41.416988,55.896474 44.2545151,55.1772959 C44.3586128,55.125247 44.4627104,55.125247 44.5147593,55.125247 C47.897933,54.6047588 49.3032514,54.2924658 49.5634955,54.1883681 C49.6675931,54.1363193 49.8237396,54.0842705 50.0839838,53.9801728 C50.3962767,53.8760752 50.8647162,53.6678799 51.3331556,53.5117334 C51.4372533,53.4596846 51.5413509,53.4076357 51.6974974,53.4076357 C53.311011,52.8350986 55.5491106,52.0023174 55.9655012,51.7941221 C56.7982824,51.3777315 59.0884308,50.1285596 60.3896515,48.9314366 C60.6498956,48.6711925 61.5867745,47.4220206 62.4716046,46.2248976 C63.0961905,45.3921164 62.8425,45.7810836 63.0961905,45.3921164 C66.3752666,40.9679661 70.7994169,34.9303022 73.9223465,33.6811303 C74.390786,33.4208862 74.9633231,33.5770327 75.3797137,33.9413744 C75.4838113,34.0454721 75.587909,34.1495698 75.6920066,34.3577651 C75.8481531,34.670058 75.8481531,35.0343998 75.6920066,35.3466928 C75.5358601,35.6589857 75.3276648,35.9192299 74.9633231,36.0233275 C72.4649794,37.0122552 67.8326338,43.3622121 65.0219971,47.1097277 C64.6056065,47.6302159 64.7540699,47.5333559 64.6056065,47.6302159 C63.252337,49.4519249 62.5757022,50.3367549 62.1593116,50.7531456 C61.1703839,51.6379756 59.7650656,52.5228057 58.5158937,53.2514893 C57.5790148,54.3445146 55.9655012,56.1662236 55.9655012,56.1662236 C48.7827631,64.0776453 51.6916759,60.9143448 48.7827631,64.0776453 C48.3143236,64.5460847 47.5335912,64.5981335 46.9610541,64.1817429 C46.3364682,63.6092058 45.6077846,62.6723269 45.2954917,61.5793016 C40.7672437,65.2227195 42.6913679,63.7020508 40.7672437,65.2227195 C40.4549508,65.4829636 40.090609,65.5870612 39.7262672,65.4829636 C39.4660231,65.4309148 39.2057789,65.2747683 38.9975836,65.066573 C38.9455348,65.0145241 38.629282,64.896782 38.9455348,65.0145241 C37.8525094,63.6612546 37.0197282,61.1108621 38.5291442,58.9768602 C34.7295798,59.8616903 36.160171,59.5603162 34.7295798,59.8616903 C34.365238,59.9657879 34.0008962,59.9137391 33.6365544,59.653495 C33.3242615,59.4452997 33.1160662,59.1330067 33.1160662,58.7166161 C33.0119685,57.9879325 33.168115,53.8240263 36.2389958,52.418708 C37.2799723,51.8982198 40.1426578,51.0133897 40.7672437,50.8572432 C40.8713414,50.8051944 40.9233902,50.8051944 41.0274879,50.8051944 C43.8381245,50.1285596 42.7710167,50.4007107 43.8381245,50.1285596 C41.9643667,48.4629972 39.1537301,45.0798234 38.9975836,43.5704074 C38.893486,42.3732844 39.0496324,38.886013 39.1537301,37.9491341 C38.7893883,38.0532318 39.0275257,37.9755067 38.7893883,38.0532318 C38.4250465,37.8970853 38.1127536,37.5847923 37.9566071,37.2204505 C37.6963629,36.6479134 37.4881676,36.0753764 41.8602691,30.0377124 C42.0164156,29.8815659 42.2931242,29.6123887 42.0164156,29.8815659 C42.1205132,29.7774683 44.6188569,27.3311734 50.7606185,27.2791246 C56.329843,27.2270758 63.4605323,24.8848786 64.8658506,24.4164391 C65.3342901,24.3123415 65.8027295,24.4164391 66.1150225,24.7287321 C66.2191201,24.8848786 66.3752666,25.0930739 66.4273154,25.3012692 Z M45.6077846,40.4995266 C45.8680288,43.5183586 48.1581772,44.1949934 49.1991537,44.3511398 C53.5192063,42.789675 51.5323785,43.47127 53.5192063,42.789675 L54.8724758,40.3433802 L53.2589622,35.8151322 C52.3220833,35.6069369 50.4483255,35.2946439 48.1061283,35.3466928 C46.70081,35.3987416 46.2323706,35.9192299 45.503687,36.7520111 C45.1393452,37.1684017 44.7750034,37.5327435 44.3586128,37.8450365 C45.0872964,38.5216712 45.503687,39.4065013 45.6077846,40.4995266 Z M51.1770091,57.0510536 C49.6155443,58.3522743 49.1991537,58.6645673 49.0430072,58.7686649 C47.7938354,59.7575926 48.3464287,59.32137 47.7938354,59.7575926 C47.5335912,60.3821785 47.6376889,60.9026668 47.8458842,61.3711063 C52.9987181,55.6977841 51.6916759,57.0912051 52.9987181,55.6977841 C52.8425716,55.7498329 52.7384739,55.8018818 52.5823275,55.8539306 C52.3220833,56.1141747 51.7495462,56.5305654 51.1770091,57.0510536 Z M43.3176362,57.9879325 C43.0573921,58.1961278 42.797148,58.456372 42.484855,58.7166161 C41.9123179,59.2371044 41.3397808,59.7575926 40.975439,60.0698856 C40.090609,60.850618 40.0385602,61.735448 40.1947066,62.360034 C46.4405659,57.3633466 44.841884,58.68418 46.4405659,57.3633466 C45.6598335,57.5194931 45.0352475,57.5715419 44.8270522,57.6235907 C43.3176362,57.9879325 41.735583,58.2859363 43.3176362,57.9879325 Z" id="asl-interpreting" fill="#000000" fill-rule="nonzero"></path>
    </g>
</svg>