<?xml version="1.0" encoding="UTF-8"?>
<svg width="76px" height="76px" viewBox="0 0 76 76" version="1.1" xmlns="http://www.w3.org/2000/svg" xmlns:xlink="http://www.w3.org/1999/xlink">
    <!-- Generator: Sketch 48.1 (47250) - http://www.bohemiancoding.com/sketch -->
    <title>assistive-listening-systems</title>
    <desc>Created with Sketch.</desc>
    <defs></defs>
    <g id="assistive-listening-systems" stroke="none" stroke-width="1" fill="none" fill-rule="evenodd">
        <path d="M5.42713343,73.2738408 C5.42713343,74.0052493 5.16131465,74.6480023 4.62967709,75.1799358 C4.09803953,75.7118693 3.45564414,75.9778361 2.7246425,75.9778361 C1.99364085,75.9778361 1.35124547,75.7118693 0.819607905,75.1799358 C0.287970345,74.6480023 0,74.0052493 0,73.2738408 C0,72.5424322 0.26581878,71.8996792 0.79745634,71.3677457 C1.3290939,70.8358122 1.97148929,70.5698454 2.70249093,70.5698454 C3.43349258,70.5698454 4.07588796,70.8358122 4.60752552,71.3677457 C5.16131465,71.8996792 5.42713343,72.5424322 5.42713343,73.2738408 Z M13.5789093,65.1396909 C13.5789093,65.8710994 13.3130906,66.5138524 12.781453,67.0457859 C12.2498154,67.5777195 11.6074201,67.8436862 10.8764184,67.8436862 C10.1454168,67.8436862 9.50302139,67.5777195 8.97138383,67.0457859 C8.43974627,66.5138524 8.17392749,65.8710994 8.17392749,65.1396909 C8.17392749,64.4082823 8.43974627,63.7655293 8.97138383,63.2335958 C9.50302139,62.7016623 10.1454168,62.4356955 10.8764184,62.4356955 C11.6074201,62.4356955 12.2498154,62.7016623 12.781453,63.2335958 C13.3130906,63.7655293 13.5789093,64.4082823 13.5789093,65.1396909 Z M15.4839439,49.6471274 C19.1020329,53.2672305 24.7876012,60.5074366 26.3382108,60.5074366 L22.5281416,64.3196267 L11.6738748,53.4593176 L15.4839439,49.6471274 Z M29.8603096,48.8492272 C29.8603096,49.5806358 29.5944908,50.2233887 29.0628533,50.7553223 C28.5312157,51.2872558 27.8888203,51.5532225 27.1578187,51.5532225 C26.426817,51.5532225 25.7844217,51.2872558 25.2527841,50.7553223 C24.7211465,50.2233887 24.4553278,49.5806358 24.4553278,48.8492272 C24.4553278,48.1178186 24.7211465,47.4750656 25.2527841,46.9431321 C25.7844217,46.4111986 26.426817,46.1452318 27.1578187,46.1452318 C27.8888203,46.1452318 28.5312157,46.4111986 29.0628533,46.9431321 C29.5944908,47.4750656 29.8603096,48.0956547 29.8603096,48.8492272 Z M59.8313771,35.2627588 C59.8313771,36.925051 59.6763161,38.4765238 59.3440426,39.8728492 C59.0117692,41.2691747 58.4801316,42.5990085 57.74913,43.8401866 C57.0181283,45.0813648 56.3978845,46.0344124 55.8883985,46.6993293 C55.3789125,47.3642461 54.6257593,48.2729659 53.6510904,49.4254885 C52.7650278,50.4228638 52.1226325,51.1764363 51.7239043,51.7083698 C51.3251761,52.2403033 50.8378417,52.949548 50.3062041,53.8361038 C49.7745666,54.7226597 49.39799,55.6092155 49.1764743,56.5622631 C48.9549587,57.4931467 48.8663524,58.5348498 48.8663524,59.7095363 C48.8663524,64.2088072 47.2714397,68.0431613 44.1037659,71.2347623 C40.9360921,74.4263634 37.0817198,76 32.5849521,76 C31.8539505,76 31.2115551,75.7340332 30.6799175,75.2020997 C30.14828,74.6701662 29.8824612,74.0274132 29.8824612,73.2960047 C29.8824612,72.5645961 30.14828,71.9218431 30.6799175,71.3899096 C31.2115551,70.8579761 31.8539505,70.5920093 32.5849521,70.5920093 C35.5754134,70.5920093 38.1449949,69.5281423 40.2715452,67.4004083 C42.3980954,65.2726742 43.4613705,62.7238262 43.4613705,59.7095363 C43.4613705,58.0915719 43.6164315,56.6065908 43.948705,55.2324293 C44.2809784,53.8582677 44.7904644,52.5727617 45.5214661,51.3759113 C46.2524677,50.179061 46.85056,49.2260134 47.360046,48.5610965 C47.869532,47.8740157 48.6005336,46.9874599 49.5752025,45.8792651 C50.7049323,44.5715952 51.5466918,43.552056 52.1004809,42.8206474 C52.65427,42.0892388 53.1859076,41.0253718 53.6953936,39.6512103 C54.2048796,38.2770487 54.4485468,36.8142316 54.4485468,35.2627588 C54.4485468,30.0320793 52.5878153,25.5549723 48.8663524,21.8314377 C45.1448895,18.1079032 40.6702733,16.2461359 35.442504,16.2461359 C30.2147347,16.2461359 25.6958154,18.1079032 21.996504,21.8314377 C18.2971927,25.5549723 16.4143097,30.0320793 16.4143097,35.2627588 C16.4143097,35.9941674 16.1484909,36.6369204 15.6168533,37.1688539 C15.0852158,37.7007874 14.4428204,37.9667542 13.7118187,37.9667542 C12.9808171,37.9667542 12.3384217,37.7007874 11.8067841,37.1688539 C11.2751466,36.6369204 11.0093278,35.9941674 11.0093278,35.2627588 C11.0093278,31.9603383 11.6517232,28.7909011 12.936514,25.7766113 C14.2213047,22.7623214 15.9712784,20.1691455 18.1421317,17.9749198 C20.3129851,15.7806941 22.9268698,14.0519102 25.9394826,12.7664042 C28.9520955,11.4808982 32.1197693,10.8381452 35.4203524,10.8381452 C38.7209356,10.8381452 41.8886094,11.4808982 44.9012223,12.7664042 C47.9138351,14.0519102 50.5055682,15.802858 52.6985731,17.9749198 C54.8915781,20.1469816 56.6194001,22.7623214 57.9041909,25.7766113 C59.1889817,28.7909011 59.8313771,31.9603383 59.8313771,35.2627588 Z M37.989934,40.6929134 C37.989934,41.424322 37.7241152,42.0670749 37.1924776,42.5990085 C36.6608401,43.130942 36.0184447,43.3969087 35.2874431,43.3969087 C34.5564414,43.3969087 33.914046,43.130942 33.3824085,42.5990085 C32.8507709,42.0670749 32.5849521,41.424322 32.5849521,40.6929134 C32.5849521,39.9615048 32.8507709,39.3187518 33.3824085,38.7868183 C33.914046,38.2548848 34.5564414,37.9889181 35.2874431,37.9889181 C36.0184447,37.9889181 36.6608401,38.2548848 37.1924776,38.7868183 C37.7241152,39.3187518 37.989934,39.9615048 37.989934,40.6929134 Z M50.2175979,35.2627588 C50.2175979,35.9941674 49.9517791,36.6369204 49.4201415,37.1688539 C48.888504,37.7007874 48.2461086,37.9667542 47.5151069,37.9667542 C46.7841053,37.9667542 46.1417099,37.7007874 45.6100723,37.1688539 C45.0784348,36.6369204 44.812616,35.9941674 44.812616,35.2627588 C44.812616,32.6252552 43.8822503,30.3867017 42.0436704,28.5470983 C40.1829389,26.685331 37.9456309,25.7766113 35.3317462,25.7766113 C32.7400131,25.7766113 30.502705,26.7074949 28.6419735,28.5470983 C26.7812421,30.4088656 25.8508764,32.6474191 25.8508764,35.2627588 C25.8508764,35.9941674 25.5850576,36.6369204 25.05342,37.1688539 C24.5217825,37.7007874 23.8793871,37.9667542 23.1483854,37.9667542 C22.4173838,37.9667542 21.7749884,37.7007874 21.2433508,37.1688539 C20.7117133,36.6369204 20.4458945,35.9941674 20.4458945,35.2627588 C20.4458945,31.1402741 21.9078978,27.6162146 24.8097528,24.6905803 C27.7116078,21.764946 31.2337067,20.3242928 35.3760493,20.3242928 C39.518392,20.3242928 43.0183392,21.7871099 45.9423458,24.6905803 C48.7555946,27.6162146 50.2175979,31.1402741 50.2175979,35.2627588 Z M66.9198779,23.0061242 C67.2078482,23.7153689 67.1856967,24.4024497 66.8755747,25.0895305 C66.5654528,25.7766113 66.0559668,26.2420531 65.3471168,26.5301837 C65.1034495,26.6410032 64.7711761,26.7074949 64.3724479,26.7074949 C63.8408103,26.7074949 63.3313243,26.5523476 62.8661415,26.2420531 C62.4009586,25.9317585 62.0686851,25.5106445 61.8693211,24.978711 C59.9421349,19.9475066 56.7744611,15.7806941 52.3662997,12.4561097 C51.7682074,12.0128317 51.4137824,11.4144065 51.3030245,10.682998 C51.1922667,9.95158938 51.3694792,9.2866725 51.8125105,8.6882473 C52.299845,8.08982211 52.8979372,7.73519977 53.6289389,7.62438029 C54.3599405,7.5135608 55.0244875,7.69087197 55.6225797,8.1341499 C60.8060459,11.9906678 64.571812,16.9553806 66.9198779,23.0061242 Z M75.824807,19.5707203 C76.0684742,20.279965 76.0684742,20.9670458 75.7583523,21.6541266 C75.4482304,22.3412073 74.960896,22.8066492 74.2520459,23.0947798 C73.941924,23.2055993 73.6096505,23.272091 73.277377,23.272091 C72.0368894,23.272091 71.1951299,22.6958297 70.7299471,21.5433071 C68.138214,14.8054826 63.9294166,9.24234471 58.1257066,4.87605716 C57.5054627,4.43277924 57.1510377,3.83435404 57.0402799,3.10294547 C56.9516736,2.37153689 57.1288861,1.70662001 57.5719174,1.10819481 C58.0149487,0.487605716 58.613041,0.132983377 59.3440426,0.0221638962 C60.0750443,-0.0664916885 60.7395912,0.110819481 61.3376835,0.554097405 C68.0053046,5.45231846 72.8343457,11.8133567 75.824807,19.5707203 Z" fill="#000000" fill-rule="nonzero"></path>
    </g>
</svg>