<?xml version="1.0" encoding="UTF-8"?>
<svg width="76px" height="76px" viewBox="0 0 76 76" version="1.1" xmlns="http://www.w3.org/2000/svg" xmlns:xlink="http://www.w3.org/1999/xlink">
    <!-- Generator: Sketch 48.1 (47250) - http://www.bohemiancoding.com/sketch -->
    <title>at</title>
    <desc>Created with Sketch.</desc>
    <defs></defs>
    <g id="at" stroke="none" stroke-width="1" fill="none" fill-rule="evenodd">
        <path d="M38.7293549,0.00286834624 C48.7571443,0.134812606 57.4325015,3.79627511 64.7554265,10.9872559 C72.0783515,18.1782366 75.8717586,26.7876217 76.1356478,36.8154111 C76.1356478,36.947356 76.1356478,37.2112452 76.1356478,37.6070787 C76.1356478,37.8709679 76.1356478,38.0029125 76.1356478,38.0029125 C76.1356478,43.2806964 74.2554374,47.7668127 70.4950165,51.4612615 C66.7345956,55.1557102 62.2814654,57.0029346 57.1356257,57.0029346 C53.1772878,57.0029346 49.8786729,55.3536273 47.2397809,52.0550126 C44.3369997,55.3536273 40.7744956,57.0029346 36.5522685,57.0029346 C32.5939306,57.0029346 29.2293433,55.6175163 26.4585068,52.8466797 C23.6876702,50.0758432 22.3022519,46.7112559 22.3022519,42.752918 C22.3022519,39.5862477 22.3022519,39.5862477 22.3022519,33.252907 C22.3022519,29.294569 23.6876702,25.9299818 26.4585068,23.1591452 C29.2293433,20.3883087 32.5939306,19.0028904 36.5522685,19.0028904 C39.4550496,19.0028904 42.0939416,19.794558 44.4689443,21.3778932 C44.4689443,20.5862256 44.4689443,19.5966411 44.4689443,19.0028904 C46.0522795,19.0028904 49.2189499,19.0028904 50.802285,19.0028904 C50.802285,22.5653946 50.802285,29.6904028 50.802285,33.252907 C50.802285,35.6279097 50.802285,40.3779152 50.802285,42.752918 C50.802285,43.1487518 50.802285,43.1487518 50.802285,44.3362532 C50.802285,46.0515326 51.429022,47.5359092 52.6824958,48.7893831 C53.9359697,50.0428569 55.4203463,50.6695939 57.1356257,50.6695939 C60.6981302,50.6695939 63.6998699,49.4491064 66.1408448,47.0081315 C68.5818197,44.5671566 69.8023071,41.565417 69.8023071,38.0029125 C69.8023071,37.6730512 69.8023071,37.6730512 69.8023071,37.0133285 C69.5384179,28.7008185 66.3717476,21.5428238 60.3022961,15.5393445 C54.2328446,9.53586511 46.9758917,6.4681533 38.5314374,6.33620904 C28.7675372,6.20426478 20.6529445,9.86572745 14.1876592,17.320597 C7.72237389,24.7754666 5.28139883,33.5167962 6.864734,43.5445856 C8.05223572,50.1418155 11.1199477,55.8814055 16.0678699,60.7633556 C21.0157922,65.6453057 26.9203129,68.4821146 33.7814319,69.2737821 C42.8856095,70.5932281 50.93423,68.4161421 57.9272933,62.742524 C59.2467393,64.3918317 59.2467393,64.3918317 61.8856312,67.690447 C53.441177,74.4196211 43.8092214,77.0585131 32.9897643,75.6071228 C24.8091993,74.551566 17.7171771,71.1210065 11.7136977,65.3154442 C5.71021835,59.5098819 1.98278355,52.5168182 0.531393311,44.3362532 C-1.31583106,32.5931843 1.65292239,22.2355336 9.43765366,13.2633009 C17.2223849,4.29106828 26.9862853,-0.129075914 38.7293549,0.00286834624 Z M36.5522685,25.3362311 C34.3092107,25.3362311 32.4290002,26.0949126 30.9116372,27.6122757 C29.3942741,29.1296387 28.6355926,31.0098491 28.6355926,33.252907 C28.6355926,36.4195773 28.6355926,36.4195773 28.6355926,42.752918 C28.6355926,44.9959758 29.3942741,46.8761863 30.9116372,48.3935493 C32.4290002,49.9109123 34.3092107,50.6695939 36.5522685,50.6695939 C38.7953263,50.6695939 40.6755367,49.9109123 42.1928998,48.3935493 C43.7102628,46.8761863 44.4689443,44.9959758 44.4689443,42.752918 C44.4689443,39.5862477 44.4689443,39.5862477 44.4689443,33.252907 C44.4689443,31.0098491 43.6772768,29.1626248 42.0939416,27.7112339 C40.6425507,26.1278987 38.7953263,25.3362311 36.5522685,25.3362311 Z" fill="#000000" fill-rule="nonzero"></path>
    </g>
</svg>