<?xml version="1.0" encoding="UTF-8"?>
<svg width="76px" height="28px" viewBox="0 0 76 28" version="1.1" xmlns="http://www.w3.org/2000/svg" xmlns:xlink="http://www.w3.org/1999/xlink">
    <!-- Generator: Sketch 48.1 (47250) - http://www.bohemiancoding.com/sketch -->
    <title>audio-description</title>
    <desc>Created with Sketch.</desc>
    <defs></defs>
    <g id="audio-description" stroke="none" stroke-width="1" fill="none" fill-rule="evenodd" transform="translate(0.000000, -24.000000)">
        <path d="M16.6421535,40.8219209 C18.5202729,40.8219209 21.4649786,40.8219209 22.2765116,40.8219209 L22.2417316,32.0805506 L16.6421535,40.8219209 Z M50.4714887,37.5526021 C50.4714887,35.6397027 49.9150089,34.0977899 48.8020493,32.938457 C47.700683,31.7675307 46.0892102,31.1878642 43.9792242,31.1878642 C42.2054448,31.1878642 41.3939118,31.1878642 42.2054448,31.1878642 L42.2054448,43.9868999 L43.9212576,43.9868999 C45.9269036,43.9868999 47.5151897,43.3608601 48.6977093,42.1087805 C49.8802289,40.8567009 50.4714887,39.3379748 50.4714887,37.5526021 Z M31.5511751,25.124553 C31.3294672,33.4550512 31.6371477,47.8720843 31.5859551,50.0502111 C31.5859551,50.363231 31.4816151,50.6182843 31.2729352,50.8385575 C31.0642553,51.0588308 30.809202,51.1631708 30.4961821,51.1631708 C23.3778779,51.1631708 22.5663448,51.1631708 23.3778779,51.1631708 C23.064858,51.1631708 22.8098048,51.0588308 22.6011248,50.8385575 C22.3924449,50.6182843 22.2881049,50.3516377 22.2881049,50.0502111 C22.2881049,48.0097852 22.2748671,49.4104872 22.2881049,48.0097852 L12.6888282,48.0097852 L10.8802688,50.6762509 C10.6599956,51.0008641 10.3469757,51.1747641 9.95280247,51.1747641 C1.14187214,51.1747641 0.330339078,51.1747641 1.14187214,51.1747641 C0.67813896,51.1747641 0.341932407,50.9776775 0.133252478,50.5835043 C-0.0754274507,50.1893311 -0.0406474625,49.8067512 0.249185772,49.4241714 C18.5898329,24.4637332 17.9887256,25.2613433 18.5898329,24.4637332 C18.7869195,24.1507133 19.088346,24 19.4825192,24 C30.4266222,24 29.6150891,24 30.4266222,24 C30.7396421,24 30.9946953,24.10434 31.2149686,24.3246132 C31.4352418,24.5448865 31.5511751,24.8115331 31.5511751,25.124553 Z M58.8186858,37.5526021 C58.8186858,41.7957606 57.4390796,45.1230461 54.6798673,47.546052 C51.9206549,49.9690578 48.3499094,51.1747641 43.9792242,51.1747641 C35.0755473,51.1747641 34.2640142,51.1747641 35.0755473,51.1747641 C34.7625274,51.1747641 34.5074741,51.0704241 34.2872009,50.8501509 C34.0669276,50.6298776 33.9625876,50.363231 33.9625876,50.0618045 C33.9625876,25.124553 33.9753544,26.3740276 33.9625876,25.124553 C33.9625876,24.8115331 34.0669276,24.5564798 34.2872009,24.3362066 C34.5074741,24.1159333 34.7741207,24.0115933 35.0755473,24.0115933 C43.9096643,24.0115933 43.0981312,24.0115933 43.9096643,24.0115933 C48.3035361,24.0115933 51.8858749,25.2057063 54.6566806,27.6055254 C57.4390796,29.9937513 58.8186858,33.3094435 58.8186858,37.5526021 Z M63.9661241,37.587382 C63.9661241,37.830842 63.9661241,38.1438619 63.9545308,38.5380351 C63.9429374,38.9322083 63.8501908,39.7205547 63.6878842,40.8914809 C63.5255776,42.0624072 63.2821177,43.1869601 62.9806911,44.2535464 C62.6676712,45.3201327 62.1807514,46.5026523 61.5083383,47.8126986 C60.8359252,49.1227448 60.0243921,50.2472977 59.0853324,51.1979507 C57.4042997,51.1979507 56.5927666,51.1979507 57.4042997,51.1979507 C58.2390194,50.2125177 58.9693991,49.0647781 59.5954389,47.7547319 C60.2214787,46.4446857 60.6736185,45.2157928 60.9634518,44.0564598 C61.253285,42.8971269 61.4851516,41.8305406 61.6590515,40.8219209 C61.8329515,39.8248946 61.9372915,39.0249549 61.9604781,38.4336951 C61.9952581,37.5410087 61.97963,37.8449872 61.9952581,37.5410087 C61.9952581,37.3671088 61.9952581,37.1120555 61.9836648,36.7990356 C61.9720714,36.4860158 61.8909181,35.825196 61.7402049,34.8165763 C61.5894916,33.8079567 61.3692183,32.8109303 61.0793851,31.8023107 C60.7895518,30.793691 60.337412,29.5647981 59.7229655,28.1272253 C59.1085191,26.6896524 58.3781393,25.3216396 57.5434196,24.0231867 C58.9578058,24.0231867 58.1462727,24.0231867 58.9578058,24.0231867 C59.8620855,25.054993 60.6504319,26.2375126 61.3344383,27.5475588 C62.0184448,28.8691983 62.5169579,30.0864979 62.8299778,31.2226442 C63.1429977,32.3587905 63.398051,33.4137835 63.5835442,34.3876231 C63.7690375,35.3614628 63.8849708,36.1382159 63.9313441,36.7178823 C63.9661241,37.587382 63.9657961,37.2753116 63.9661241,37.587382 Z M70.0294354,37.587382 C70.0294354,37.830842 70.0294354,38.1438619 70.017842,38.5380351 C70.0062487,38.9322083 69.9135021,39.7205547 69.7511955,40.8914809 C69.5888888,42.0624072 69.3454289,43.1869601 69.0440024,44.2535464 C68.7309825,45.3201327 68.2440626,46.5026523 67.5600562,47.8126986 C66.8760498,49.1227448 66.0645167,50.2472977 65.125457,51.1979507 C63.4444243,51.1979507 62.6328912,51.1979507 63.4444243,51.1979507 C64.279144,50.2125177 65.0095237,49.0647781 65.6355635,47.7547319 C66.2616033,46.4446857 66.7137432,45.2157928 67.0035764,44.0564598 C67.2934096,42.8971269 67.5252762,41.8305406 67.6991762,40.8219209 C67.8730761,39.8248946 67.9774161,39.0249549 68.0006027,38.4336951 C68.0353827,37.5410087 68.030508,37.9527636 68.0353827,37.5410087 C68.0353827,37.3671088 68.0353827,37.1120555 68.0237894,36.7990356 C68.0121961,36.4860158 67.9310427,35.825196 67.7803295,34.8165763 C67.6296162,33.81955 67.4093429,32.8109303 67.1426963,31.8023107 C66.8760498,30.793691 66.4239099,29.5647981 65.8094635,28.1272253 C65.195017,26.6896524 64.4646373,25.3216396 63.6299175,24.0231867 C65.0443037,24.0231867 64.2327707,24.0231867 65.0443037,24.0231867 C65.9485834,25.054993 66.7369298,26.2375126 67.4209363,27.5475588 C68.1049427,28.8691983 68.6034558,30.0864979 68.9164757,31.2226442 C69.2294956,32.3587905 69.4845489,33.4137835 69.6700422,34.3876231 C69.8555354,35.3614628 69.9714687,36.1382159 70.017842,36.7178823 C70.0294354,37.587382 70.0166741,37.2137251 70.0294354,37.587382 Z M76,37.587382 C76,37.830842 76,38.1438619 75.9884067,38.5380351 C75.9768133,38.9322083 75.8840667,39.7205547 75.7217601,40.8914809 C75.5594535,42.0624072 75.3159936,43.1869601 75.014567,44.2535464 C74.7015471,45.3201327 74.2146273,46.5026523 73.5422142,47.8126986 C72.8698011,49.1227448 72.058268,50.2472977 71.1192083,51.1979507 C69.4381756,51.1979507 68.6266425,51.1979507 69.4381756,51.1979507 C70.2728953,50.2125177 71.003275,49.0647781 71.6177215,47.7547319 C72.2321679,46.4446857 72.6843078,45.2157928 72.974141,44.0564598 C73.2639743,42.8971269 73.4958409,41.8305406 73.6697408,40.8219209 C73.8436407,39.8248946 73.9479807,39.0249549 73.9711674,38.4336951 C74.0059473,37.5410087 73.9890062,37.9219703 74.0059473,37.5410087 C74.0059473,37.3671088 74.0059473,37.1120555 73.994354,36.7990356 C73.9827607,36.4860158 73.9016074,35.825196 73.7508941,34.8165763 C73.6001808,33.8079567 73.3799076,32.8109303 73.113261,31.8023107 C72.8350211,30.793691 72.3944746,29.5647981 71.7800281,28.1272253 C71.1655816,26.6896524 70.4004219,25.3332329 69.5657022,24.03478 C70.9800884,24.03478 70.1685553,24.03478 70.9800884,24.03478 C71.8843681,25.0665863 72.6727145,26.2491059 73.3567209,27.5591521 C74.0407273,28.8691983 74.5392405,30.0980913 74.8522604,31.2342375 C75.1652803,32.3703838 75.4203335,33.4253768 75.6058268,34.3992165 C75.9389614,36.1481729 75.9905434,37.2485445 76,37.587382 Z" fill="#000000" fill-rule="nonzero"></path>
    </g>
</svg>