<?xml version="1.0" encoding="UTF-8"?>
<svg width="76px" height="58px" viewBox="0 0 76 58" version="1.1" xmlns="http://www.w3.org/2000/svg" xmlns:xlink="http://www.w3.org/1999/xlink">
    <!-- Generator: Sketch 48.1 (47250) - http://www.bohemiancoding.com/sketch -->
    <title>car</title>
    <desc>Created with Sketch.</desc>
    <defs></defs>
    <g id="car" stroke="none" stroke-width="1" fill="none" fill-rule="evenodd" transform="translate(0.000000, -9.000000)">
        <path d="M19.4460092,9 C28.7230046,9 28.7230046,9 56.5539908,9 C58.4569643,9 60.1517999,9.56494531 61.6384977,10.6948359 C63.1251955,11.8247265 64.1658842,13.2816905 64.7605637,15.0657278 C66.0688579,19.4663538 67.7042257,24.9671363 68.6854464,28.2676059 C70.0680756,27.7769954 72.8333341,26.7957745 74.2159633,26.3051641 C74.6619725,27.6431925 75.5539908,30.3192493 76,31.6572777 C74.617371,32.1478879 71.852113,33.1291084 70.469484,33.6197186 C70.9154934,35.1361505 70.9154934,35.1361505 72.2535215,39.6854464 C72.2535215,39.8043819 72.2535215,39.9827858 72.2535215,40.2206581 C72.2535215,40.2801259 72.2535215,40.3544606 72.2535215,40.3990614 C72.2535215,45.3943666 72.2535215,45.3943666 72.2535215,60.3802823 C72.2535215,60.4992178 72.2535215,60.5884196 72.2535215,60.6478877 C72.2535215,60.7073558 72.2535215,60.7370898 72.2535215,60.7370898 C72.2535215,61.5696407 72.2535215,61.5696407 72.2535215,63.2347424 C72.2535215,64.0672936 71.985916,64.7511748 71.4507049,65.2863859 C70.9154937,65.821597 70.2316126,66.0892026 69.3990614,66.0892026 C66.5446013,66.0892026 62.9765261,66.0892026 60.835681,66.0892026 C60.5680754,65.3755875 60.0328641,63.9483575 59.7652585,63.2347424 C48.8826292,63.2347424 27.1173708,63.2347424 16.2347415,63.2347424 C15.9671359,63.9483575 15.4319246,65.3755875 15.164319,66.0892026 C13.0234739,66.0892026 13.0234739,66.0892026 6.60093859,66.0892026 C5.76838741,66.0892026 5.08450627,65.821597 4.54929514,65.2863859 C4.01408402,64.7511748 3.74647846,64.0672936 3.74647846,63.2347424 C3.74647846,62.4021916 3.74647846,62.4021916 3.74647846,60.7370898 C3.74647846,60.6181537 3.74647846,60.5289517 3.74647846,60.469484 C3.74647846,60.4100162 3.74647846,60.3802823 3.74647846,60.3802823 C3.74647846,53.7198753 3.74647846,45.3943666 3.74647846,40.3990614 C3.74647846,40.3544606 3.74647846,40.3544606 3.74647846,40.2206581 C3.74647846,39.9827858 3.74647846,39.8043819 3.74647846,39.6854464 C4.34115765,37.6635371 5.08450665,35.1361505 5.53051604,33.6197186 C4.14788703,33.1291084 1.38262901,32.1478879 0,31.6572777 C0.446009167,30.3192493 1.3380275,27.6431925 1.78403667,26.3051641 C3.16666591,26.7957745 5.93192438,27.7769954 7.31455362,28.2676059 C8.29577429,24.9671363 8.29577429,24.9671363 11.2394363,15.0657278 C11.8341158,13.2816905 12.8748045,11.8247265 14.3615023,10.6948359 C15.8482001,9.56494531 17.5430357,9 19.4460092,9 Z M19.4460092,14.7089203 C18.0187791,14.7089203 17.0672924,15.4225353 16.591549,16.8497654 C15.4021907,20.8935839 13.9154927,25.948357 13.0234739,28.9812209 C25.5117369,28.9812209 50.4882631,28.9812209 62.9765261,28.9812209 C62.0845073,25.948357 62.0845073,25.948357 59.408451,16.8497654 C58.9327076,15.4225353 57.9812209,14.7089203 56.5539908,14.7089203 C44.1846636,14.7089203 44.1846636,14.7089203 19.4460092,14.7089203 Z M11.2394363,34.6901412 C10.7934269,36.2511742 9.90140811,39.3732401 9.45539872,40.9342731 C9.45539872,45.0821604 9.45539872,53.3779349 9.45539872,57.5258222 C11.5962438,57.5258222 15.877934,57.5258222 18.0187791,57.5258222 C30.1502346,57.5258222 54.4131457,57.5258222 66.5446013,57.5258222 C66.5446013,53.3779349 66.5446013,45.0821604 66.5446013,40.9342731 C66.0985919,39.3732401 65.2065731,36.2511742 64.7605637,34.6901412 C51.3802819,34.6901412 24.6197181,34.6901412 11.2394363,34.6901412 Z M16.591549,37.5446013 C17.7809074,37.5446013 18.7918621,37.9608767 19.6244129,38.7934276 C20.4569638,39.6259785 20.8732392,40.6369331 20.8732392,41.8262915 C20.8732392,43.0156499 20.4569638,44.0266045 19.6244129,44.8591554 C18.7918621,45.6917062 17.7809074,46.1079817 16.591549,46.1079817 C15.4021907,46.1079817 14.391236,45.6917062 13.5586852,44.8591554 C12.7261343,44.0266045 12.3098588,43.0156499 12.3098588,41.8262915 C12.3098588,40.6369331 12.7261343,39.6259785 13.5586852,38.7934276 C14.391236,37.9608767 15.4021907,37.5446013 16.591549,37.5446013 Z M59.408451,37.5446013 C60.5978093,37.5446013 61.608764,37.9608767 62.4413148,38.7934276 C63.2738657,39.6259785 63.6901412,40.6369331 63.6901412,41.8262915 C63.6901412,43.0156499 63.2738657,44.0266045 62.4413148,44.8591554 C61.608764,45.6917062 60.5978093,46.1079817 59.408451,46.1079817 C58.2190926,46.1079817 57.2081379,45.6917062 56.3755871,44.8591554 C55.5430362,44.0266045 55.1267608,43.0156499 55.1267608,41.8262915 C55.1267608,40.6369331 55.5430362,39.6259785 56.3755871,38.7934276 C57.2081379,37.9608767 58.2190926,37.5446013 59.408451,37.5446013 Z M26.5821595,46.1079817 C32.2910797,46.1079817 43.7089203,46.1079817 49.4178405,46.1079817 C50.3098593,48.2488268 52.0938969,52.530517 52.9859157,54.6713621 C51.4694837,54.6713621 48.4366198,54.6713621 46.9201879,54.6713621 C46.5633804,53.957747 45.8497654,52.530517 45.4929578,51.8169019 C41.7464789,51.8169019 34.2535211,51.8169019 30.5070422,51.8169019 C30.1502346,52.530517 29.4366196,53.957747 29.0798121,54.6713621 C27.5633802,54.6713621 24.5305163,54.6713621 23.0140843,54.6713621 C23.9061031,52.530517 25.6901407,48.2488268 26.5821595,46.1079817 Z" fill="#000000" fill-rule="nonzero"></path>
    </g>
</svg>