<?xml version="1.0" encoding="UTF-8"?>
<svg width="76px" height="70px" viewBox="0 0 76 70" version="1.1" xmlns="http://www.w3.org/2000/svg" xmlns:xlink="http://www.w3.org/1999/xlink">
    <!-- Generator: Sketch 48.1 (47250) - http://www.bohemiancoding.com/sketch -->
    <title>balance-scale</title>
    <desc>Created with Sketch.</desc>
    <defs></defs>
    <g id="balance-scale" stroke="none" stroke-width="1" fill="none" fill-rule="evenodd" transform="translate(0.000000, -3.000000)">
        <path d="M38,3 C42.0192305,3 44.7596149,4.94871795 46.2211534,8.84615385 C53.2243587,8.84615385 61.9783653,8.84615385 67.2307692,8.84615385 C67.2307692,10.3076923 67.2307692,13.2307692 67.2307692,14.6923077 C66.2259615,14.6923077 64.2163462,14.6923077 63.2115385,14.6923077 C63.3942308,15.0576923 63.7596154,15.7884615 63.9423077,16.1538462 C66.8653846,21.2692308 72.7115385,31.5 75.6346154,36.6153846 C75.7259615,36.7980769 75.9086538,37.1634615 76,37.3461538 C76,37.5288462 76,37.5288462 76,38.0769231 C76,42.0961535 74.5689102,45.5368586 71.7067305,48.3990382 C68.8445509,51.2612179 65.4038458,52.6923077 61.3846154,52.6923077 C57.3653849,52.6923077 53.9246799,51.2612179 51.0625002,48.3990382 C48.2003206,45.5368586 46.7692308,42.0961535 46.7692308,38.0769231 C46.7692308,37.8333333 46.7692308,37.5288462 46.7692308,37.3461538 C46.8605769,37.1634615 47.0432692,36.7980769 47.1346154,36.6153846 C50.0576923,31.5 55.9038462,21.2692308 58.8269231,16.1538462 C59.0096154,15.7884615 59.375,15.0576923 59.5576923,14.6923077 C56.2235576,14.6923077 56.2235576,14.6923077 46.2211534,14.6923077 C45.2467944,17.2499997 43.4807689,19.0160252 40.9230769,19.9903841 C40.9230769,28.5566236 40.9487179,44.2264955 41,67 L52.5,67.1538462 L52.5,73 L23.2692308,73 L23.2692308,67.1538462 L35.1538462,67 C35.1025641,54.9342948 35.0769231,39.2644228 35.0769231,19.9903841 C32.5192311,19.0160252 30.7532056,17.2499997 29.7788466,14.6923077 C25.3333336,14.6923077 19.7764424,14.6923077 16.4423077,14.6923077 C16.625,15.0576923 16.9903846,15.7884615 17.1730769,16.1538462 C20.0961538,21.2692308 25.9423077,31.5 28.8653846,36.6153846 C28.9567308,36.7980769 29.1394231,37.1634615 29.2307692,37.3461538 C29.2307692,37.5288462 29.2307692,37.5288462 29.2307692,38.0769231 C29.2307692,42.0961535 27.7996794,45.5368586 24.9374998,48.3990382 C22.0753201,51.2612179 18.6346151,52.6923077 14.6153846,52.6923077 C10.5961542,52.6923077 7.15544911,51.2612179 4.29326946,48.3990382 C1.43108982,45.5368586 0,42.0961535 0,38.0769231 C0,37.8333333 0,37.5288462 0,37.3461538 C0.0913461538,37.1634615 0.274038462,36.7980769 0.365384615,36.6153846 C3.28846154,31.5 9.13461538,21.2692308 12.0576923,16.1538462 C12.2403846,15.7884615 12.6057692,15.0576923 12.7884615,14.6923077 C11.7836538,14.6923077 9.77403846,14.6923077 8.76923077,14.6923077 C8.76923077,13.2307692 8.76923077,10.3076923 8.76923077,8.84615385 C14.0216347,8.84615385 14.0216347,8.84615385 29.7788466,8.84615385 C31.2403851,4.94871795 33.9807695,3 38,3 Z M38,8.84615385 C36.0512821,8.84615385 35.0769231,9.82051282 35.0769231,11.7692308 C35.0769231,13.7179487 36.0512821,14.6923077 38,14.6923077 C39.9487179,14.6923077 40.9230769,13.7179487 40.9230769,11.7692308 C40.9230769,9.82051282 39.9487179,8.84615385 38,8.84615385 Z M14.6153846,23.4615385 C12.9711538,26.3846154 9.68269231,32.2307692 8.03846154,35.1538462 C11.3269231,35.1538462 17.9038462,35.1538462 21.1923077,35.1538462 C19.5480769,32.2307692 16.2596154,26.3846154 14.6153846,23.4615385 Z M61.3846154,23.4615385 C59.7403846,26.3846154 56.4519231,32.2307692 54.8076923,35.1538462 C58.0961538,35.1538462 64.6730769,35.1538462 67.9615385,35.1538462 C66.3173077,32.2307692 63.0288462,26.3846154 61.3846154,23.4615385 Z M6.57692308,41 C7.91666698,44.8974359 10.5961542,46.8461538 14.6153846,46.8461538 C18.6346151,46.8461538 21.3141023,44.8974359 22.6538462,41 C17.2948718,41 17.2948718,41 6.57692308,41 Z M53.3461538,41 C54.6858977,44.8974359 57.3653849,46.8461538 61.3846154,46.8461538 C65.4038458,46.8461538 68.083333,44.8974359 69.4230769,41 C64.0641026,41 64.0641026,41 53.3461538,41 Z" fill="#000000" fill-rule="nonzero"></path>
    </g>
</svg>