<?xml version="1.0" encoding="UTF-8"?>
<svg width="76px" height="76px" viewBox="0 0 76 76" version="1.1" xmlns="http://www.w3.org/2000/svg" xmlns:xlink="http://www.w3.org/1999/xlink">
    <!-- Generator: Sketch 48.1 (47250) - http://www.bohemiancoding.com/sketch -->
    <title>ban</title>
    <desc>Created with Sketch.</desc>
    <defs></defs>
    <g id="ban---f05e" stroke="none" stroke-width="1" fill="none" fill-rule="evenodd">
        <path d="M38,0 C48.4236114,0 57.3628476,3.72743047 64.8177086,11.1822914 C72.2725695,18.6371524 76,27.5763886 76,38 C76,48.4236114 72.2725695,57.3628476 64.8177086,64.8177086 C57.3628476,72.2725695 48.4236114,76 38,76 C27.5763886,76 18.6371524,72.2725695 11.1822914,64.8177086 C3.72743047,57.3628476 0,48.4236114 0,38 C0,27.5763886 3.72743047,18.6371524 11.1822914,11.1822914 C18.6371524,3.72743047 27.5763886,0 38,0 Z M63.8191508,57 C67.9397169,51.5350732 70,45.1967892 70,37.9851481 C70,29.11611 66.8838976,21.5679924 60.6516927,15.3407955 C54.4194878,9.11359849 46.8653,6 37.9891294,6 C30.7897226,6 24.4600128,8.04835277 19,12.1450583 C24.7293106,17.869765 57.3956101,50.581621 63.8191508,57 Z M57,63.8191508 C50.581621,57.3956101 17.869765,24.7293106 12.1450583,19 C8.04835277,24.4600128 6,30.7897226 6,37.9891294 C6,46.8653 9.11359849,54.4194878 15.3407955,60.6516927 C21.5679924,66.8838976 29.11611,70 37.9851481,70 C45.1967892,70 51.5350732,67.9397169 57,63.8191508 Z" id="ban" fill="#000000"></path>
    </g>
</svg>