<?xml version="1.0" encoding="UTF-8"?>
<svg width="76px" height="76px" viewBox="0 0 76 76" version="1.1" xmlns="http://www.w3.org/2000/svg" xmlns:xlink="http://www.w3.org/1999/xlink">
    <!-- Generator: Sketch 48.1 (47250) - http://www.bohemiancoding.com/sketch -->
    <title>bar-chart</title>
    <desc>Created with Sketch.</desc>
    <defs></defs>
    <g id="bar-chart" stroke="none" stroke-width="1" fill="none" fill-rule="evenodd">
        <path d="M0,19 C0.6875,19 2.0625,19 2.75,19 C6.875,19 15.125,19 19.25,19 C19.9375,19 21.3125,19 22,19 C22,19.7916667 22,21.375 22,22.1666667 C22,34.8333333 22,60.1666667 22,72.8333333 C22,73.625 22,75.2083333 22,76 C21.3125,76 19.9375,76 19.25,76 C15.125,76 6.875,76 2.75,76 C2.0625,76 0.6875,76 0,76 C0,75.2083333 0,73.625 0,72.8333333 C0,60.1666667 0,34.8333333 0,22.1666667 C0,21.375 0,19.7916667 0,19 Z M6,25 C6,36.25 6,58.75 6,70 C8.5,70 13.5,70 16,70 C16,58.75 16,36.25 16,25 C13.5,25 8.5,25 6,25 Z M27,39 C27.6875,39 29.0625,39 29.75,39 C33.875,39 42.125,39 46.25,39 C46.9375,39 48.3125,39 49,39 C49,39.5138889 49,40.5416667 49,41.0555556 C49,49.2777778 49,65.7222222 49,73.9444444 C49,74.4583333 49,75.4861111 49,76 C48.3125,76 46.9375,76 46.25,76 C42.125,76 33.875,76 29.75,76 C29.0625,76 27.6875,76 27,76 C27,75.4861111 27,74.4583333 27,73.9444444 C27,65.7222222 27,49.2777778 27,41.0555556 C27,40.5416667 27,39.5138889 27,39 Z M33,45 C33,51.25 33,63.75 33,70 C35.5,70 40.5,70 43,70 C43,63.75 43,51.25 43,45 C40.5,45 35.5,45 33,45 Z M54,0 C54.6875,0 56.0625,0 56.75,0 C60.875,0 69.125,0 73.25,0 C73.9375,0 75.3125,0 76,0 C76,1.05555556 76,3.16666667 76,4.22222222 C76,21.1111111 76,54.8888889 76,71.7777778 C76,72.8333333 76,74.9444444 76,76 C75.3125,76 73.9375,76 73.25,76 C69.125,76 60.875,76 56.75,76 C56.0625,76 54.6875,76 54,76 C54,74.9444444 54,72.8333333 54,71.7777778 C54,54.8888889 54,21.1111111 54,4.22222222 C54,3.16666667 54,1.05555556 54,0 Z M60,6 C60,22 60,54 60,70 C62.5,70 67.5,70 70,70 C70,54 70,22 70,6 C67.5,6 62.5,6 60,6 Z" fill="#000000"></path>
    </g>
</svg>