<?xml version="1.0" encoding="UTF-8"?>
<svg width="76px" height="57px" viewBox="0 0 76 57" version="1.1" xmlns="http://www.w3.org/2000/svg" xmlns:xlink="http://www.w3.org/1999/xlink">
    <!-- Generator: Sketch 48.1 (47250) - http://www.bohemiancoding.com/sketch -->
    <title>barcode</title>
    <desc>Created with Sketch.</desc>
    <defs></defs>
    <g id="barcode" stroke="none" stroke-width="1" fill="none" fill-rule="evenodd" transform="translate(0.000000, -10.000000)">
        <path d="M0,10 C1.5,10 4.5,10 6,10 C6,24.0625 6,52.1875 6,66.25 C4.5,66.25 1.5,66.25 0,66.25 C0,52.1875 0,24.0625 0,10 Z M11,10 C15,10 23,10 27,10 C27,24.0625 27,52.1875 27,66.25 C23,66.25 15,66.25 11,66.25 C11,52.1875 11,24.0625 11,10 Z M33,10 C34.25,10 36.75,10 38,10 C38,24.0625 38,52.1875 38,66.25 C36.75,66.25 34.25,66.25 33,66.25 C33,52.1875 33,24.0625 33,10 Z M44,10 C46.75,10 52.25,10 55,10 C55,24.0625 55,52.1875 55,66.25 C52.25,66.25 46.75,66.25 44,66.25 C44,52.1875 44,24.0625 44,10 Z M59,10 C60.5,10 63.5,10 65,10 C65,24.0625 65,52.1875 65,66.25 C63.5,66.25 60.5,66.25 59,66.25 C59,52.1875 59,24.0625 59,10 Z M70,10 C71.5,10 74.5,10 76,10 C76,24.0625 76,52.1875 76,66.25 C74.5,66.25 71.5,66.25 70,66.25 C70,52.1875 70,24.0625 70,10 Z" fill="#000000" fill-rule="nonzero"></path>
    </g>
</svg>