<?xml version="1.0" encoding="UTF-8"?>
<svg width="76px" height="76px" viewBox="0 0 76 76" version="1.1" xmlns="http://www.w3.org/2000/svg" xmlns:xlink="http://www.w3.org/1999/xlink">
    <!-- Generator: Sketch 48.1 (47250) - http://www.bohemiancoding.com/sketch -->
    <title>bath</title>
    <desc>Created with Sketch.</desc>
    <defs></defs>
    <g id="bath" stroke="none" stroke-width="1" fill="none" fill-rule="evenodd">
        <path d="M6,38 C52.7952474,38 76.1285807,38 76,38 C75.8071289,38 77.1550252,58.2327042 59.9237511,64.5352113 L67.0411315,72.054326 L62.7553971,75.8511066 C60.9357325,73.9161563 62.7553971,75.8511066 53.3420875,65.8752515 C52.9594327,65.9496982 52.5002469,65.9496982 52.041061,65.9496982 C46.683893,65.9496982 52.041061,65.9496982 23.9541943,65.9496982 C23.5715394,65.9496982 23.1123536,65.9496982 22.7296987,65.9496982 L13.2398582,76 L8.95412373,72.1287726 C11.255085,69.6706749 8.95412373,72.1287726 16.0715041,64.6096579 C6.50513263,61.1851107 0,51.7303823 0,41.0100604 C0.0173896519,36.7344621 1.61372473e-15,41.0100604 0,14.6559356 C0,5.73657227 5.51022999,0 12.2449555,0 C17.9082475,0 22.7296987,3.87122736 24.1072562,9.38028169 L29.2348313,9.38028169 L29.2348313,15.0382294 L14.0816989,15.0382294 L14.0816989,9.38028169 C14.0816989,9.38028169 15.3827254,9.38028169 17.9847784,9.38028169 C16.8368139,7.07243461 14.6939466,6 12.2449555,6 C8.72453082,6 6,9.9050293 6,15 C6,18.1108317 6,25.7774984 6,38 Z M6,44 C7.38081649,53.6486486 15.0520192,60 24.0273264,60 C18.6574845,60 42.745061,60 52.1039283,60 C61.1559475,60 68.6191835,53.6486486 70,44 C64.6301581,44 61.8783779,44.0140192 6,44 Z" fill="#000000" fill-rule="nonzero"></path>
    </g>
</svg>