<?xml version="1.0" encoding="UTF-8"?>
<svg width="76px" height="59px" viewBox="0 0 76 59" version="1.1" xmlns="http://www.w3.org/2000/svg" xmlns:xlink="http://www.w3.org/1999/xlink">
    <!-- Generator: Sketch 48.1 (47250) - http://www.bohemiancoding.com/sketch -->
    <title>bed</title>
    <desc>Created with Sketch.</desc>
    <defs></defs>
    <g id="bed---f236" stroke="none" stroke-width="1" fill="none" fill-rule="evenodd" transform="translate(0.000000, -9.000000)">
        <path d="M10.8571429,9 C24.4285714,9 24.4285714,9 65.1428571,9 C67.4047619,9 69.327381,9.80555556 70.9107143,11.4166667 C72.4940476,13.0277778 73.2857143,14.984127 73.2857143,17.2857143 C73.2857143,23.5 73.2857143,23.5 73.2857143,35.9285714 C75.0952381,37.6547622 76,39.7261908 76,42.1428571 C76,47.0529101 76,55.3386243 76,67 L59,67.0238095 L59,62 L17,62 L17,67.0238095 L0,67 C0,61.4761905 0,53.1904762 0,42.1428571 C0,39.7261908 0.904761905,37.6547622 2.71428571,35.9285714 C2.71428571,29.7142857 2.71428571,29.7142857 2.71428571,17.2857143 C2.71428571,14.984127 3.50595238,13.0277778 5.08928571,11.4166667 C6.67261905,9.80555556 8.5952381,9 10.8571429,9 Z M10.7272727,15 C9.93181789,15 9.27840873,15.2410714 8.76704524,15.7232141 C8.25568175,16.2053568 8,16.8214283 8,17.5714286 C8,22.7142857 8,29.1428571 8,33 C9.36363636,33 12.1363636,33 13.5,33 C13.5,32.3571429 13.5,32 13.5,30.7142857 C13.5,28.5714286 14.1136364,26.75 15.7045455,25.25 C17.2954545,23.75 19.2272727,23 21.5,23 C25.1363636,23 25.1363636,23 32.4090909,23 C34.4545455,23 36.2727273,23.6428571 37.8636364,24.9285714 C39.4545455,23.6428571 41.2727273,23 43.3181818,23 C46.9545455,23 46.9545455,23 54.2272727,23 C56.5,23 58.4318182,23.75 60.0227273,25.25 C61.6136364,26.75 62.4090909,27.9636364 62.4090909,30.7142857 C62.4090909,31.5 62.4090909,32 62.4090909,33 C63.7727273,33 66.6363636,33 68,33 C68,29.1428571 68,29.1428571 68,17.5714286 C68,16.8214283 67.7443183,16.2053568 67.2329548,15.7232141 C66.7215913,15.2410714 66.0681821,15 65.2727273,15 C47.0909091,15 47.0909091,15 10.7272727,15 Z M21.6666667,28 C20.8888886,28 20.2499996,28.2343749 19.7499998,28.7031248 C19.2499999,29.1718747 19,29.7708331 19,30.5 C19,31.3333333 19,32.375 19,33 C23,33 31,33 35,33 C35,32.375 35,32.375 35,30.5 C35,29.7708331 34.7500001,29.1718747 34.2500002,28.7031248 C33.7500004,28.2343749 33.1111114,28 32.3333333,28 C28.7777778,28 28.7777778,28 21.6666667,28 Z M43.6666667,28 C42.8888886,28 42.2499996,28.2343749 41.7499998,28.7031248 C41.2499999,29.1718747 41,29.7708331 41,30.5 C41,31.3333333 41,32.375 41,33 C45,33 53,33 57,33 C57,32.375 57,32.375 57,30.5 C57,29.7708331 56.7500001,29.1718747 56.2500002,28.7031248 C55.7500004,28.2343749 55.1111114,28 54.3333333,28 C50.7777778,28 50.7777778,28 43.6666667,28 Z M8.66666667,40 C7.8888886,40 7.24999964,40.2578124 6.74999979,40.7734373 C6.24999993,41.2890621 6,41.9479164 6,42.75 C6,47.0277778 6,53.4444444 6,62 L11,62 L11,56 L65,56 L65,62 L70,62 C70,58.7916667 70,52.375 70,42.75 C70,41.9479164 69.7500001,41.2890621 69.2500002,40.7734373 C68.7500004,40.2578124 68.1111114,40 67.3333333,40 C47.7777778,40 47.7777778,40 8.66666667,40 Z" id="bed" fill="#000000" fill-rule="nonzero"></path>
    </g>
</svg>