<?xml version="1.0" encoding="UTF-8"?>
<svg width="67px" height="76px" viewBox="0 0 67 76" version="1.1" xmlns="http://www.w3.org/2000/svg" xmlns:xlink="http://www.w3.org/1999/xlink">
    <!-- Generator: Sketch 48.1 (47250) - http://www.bohemiancoding.com/sketch -->
    <title>beer</title>
    <desc>Created with Sketch.</desc>
    <defs></defs>
    <g id="beer" stroke="none" stroke-width="1" fill="none" fill-rule="evenodd" transform="translate(-5.000000, 0.000000)">
        <path d="M62.2942701,32.7680109 L58.1745805,32.7680109 L58.1745805,30.4123724 C58.9334273,29.5192237 59.5200711,28.4662311 59.8339915,27.2772886 L59.8858996,27.0803675 L59.9172092,26.8776788 L59.9493428,26.6898209 C60.0061945,26.3553021 60.078701,25.9383895 60.1017713,25.3443303 C60.1083628,25.1680076 60.1108346,24.8137143 60.1108346,24.6571661 C60.1108346,17.7121934 54.1521156,14.8061644 49.6682455,13.2242036 C46.303283,12.036909 44.8473847,10.5126239 43.4219721,8.78812181 C40.5225346,5.28638567 36.204276,1.1452737 28.4617314,0.191977534 C27.4252175,0.0642671575 26.370577,0 25.3291194,0 C15.4286814,0 5.26870299,6.07983788 5.00421892,17.6998343 C4.96549384,19.4268082 5.1929007,21.2056901 5.70539009,23.1386485 C5.74823486,23.3017882 5.99953592,24.1693948 6.30274507,24.9026996 L6.31592808,24.9348332 L6.32911109,24.9661428 C6.70235496,25.8288058 7.18930227,26.609075 7.75864337,27.3020068 L7.75864337,29.1632825 L7.75864337,64.7310345 C7.75864337,70.9237519 12.7953759,75.9604844 18.9856214,75.9604844 L46.9476025,75.9604844 C52.089799,75.9604844 56.4253603,72.4809945 57.7494286,67.7548866 L62.2942701,67.7548866 C67.2222428,67.7548866 71.2315247,63.7472526 71.2315247,58.818456 L71.2315247,41.7052655 C71.2307007,36.7772928 67.2222428,32.7680109 62.2942701,32.7680109 Z M53.9659056,64.7293866 C53.9659056,68.6076624 50.8217586,71.7501616 46.9467785,71.7501616 L18.9839735,71.7501616 C15.1081696,71.7501616 11.9656704,68.6084863 11.9656704,64.7293866 L11.9656704,30.2138034 C12.9585156,30.5573855 14.014804,30.7584263 15.1221765,30.7666657 L15.1221765,58.4163743 C15.1221765,60.5479017 16.854918,62.2798192 18.9839735,62.2798192 L46.9476025,62.2798192 C49.077482,62.2798192 50.8102234,60.5470778 50.8102234,58.4163743 L50.8102234,33.2533104 L52.0972144,33.2533104 C52.739886,33.2533104 53.3611352,33.1503181 53.9667296,33.0044811 L53.9667296,64.7293866 L53.9659056,64.7293866 Z M55.8955682,25.1828385 C55.8799134,25.5840962 55.8255335,25.8180946 55.7629142,26.2053454 C55.3336426,27.8359186 53.8620895,29.0446355 52.0972144,29.0446355 L46.9574897,29.0446355 C44.924011,29.0446355 43.2753112,30.6925113 43.2753112,32.7251661 L43.2753112,34.2848806 L43.2753112,40.6151956 C43.2753112,42.5530976 41.7057095,44.1235233 39.7678075,44.1235233 C37.8307294,44.1235233 36.2603038,42.5530976 36.2603038,40.6151956 L36.2603038,31.200881 L36.2603038,29.6765959 C36.2603038,27.9570374 34.8670247,26.5637584 33.1482903,26.5637584 L15.2012746,26.5637584 C12.925558,26.5637584 11.0395642,25.255345 10.1900842,23.2919009 C9.993163,22.8148409 9.79953759,22.1622821 9.77317158,22.0601138 C9.41228677,20.6981444 9.17746446,19.27026 9.21124592,17.7945872 C9.41311071,8.92819126 17.1416484,4.20785094 25.3282955,4.20785094 C26.19755,4.20785094 27.0750439,4.26058296 27.9467702,4.36851883 C33.5783858,5.06227456 37.0356293,7.67333381 40.1781286,11.4708637 C41.7567936,13.377456 43.7960399,15.6136235 48.2667271,17.1922886 C54.4075364,19.3592453 55.9021597,21.7981015 55.9021597,24.6563421 C55.9021597,24.7799328 55.8996879,25.0600717 55.8955682,25.1828385 Z M64.7169485,58.8168081 C64.7169485,59.8318996 63.8115274,60.6583094 62.6971631,60.6583094 L58.1745805,60.6583094 L58.1745805,39.8654121 L62.6971631,39.8654121 C63.8115274,39.8654121 64.7169485,40.6909979 64.7169485,41.7036176 L64.7169485,58.8168081 Z" fill="#000000" fill-rule="nonzero"></path>
    </g>
</svg>