<?xml version="1.0" encoding="UTF-8"?>
<svg width="59px" height="76px" viewBox="0 0 59 76" version="1.1" xmlns="http://www.w3.org/2000/svg" xmlns:xlink="http://www.w3.org/1999/xlink">
    <!-- Generator: Sketch 48.1 (47250) - http://www.bohemiancoding.com/sketch -->
    <title>bell</title>
    <desc>Created with Sketch.</desc>
    <defs></defs>
    <g id="bell---f0f3" stroke="none" stroke-width="1" fill="none" fill-rule="evenodd" transform="translate(-9.000000, 0.000000)">
        <path d="M38.2307692,0 C39.8141023,0 41.1842945,0.578525719 42.3413459,1.73557716 C43.4983974,2.89262859 44.0769231,4.26282082 44.0769231,5.84615385 C44.0769231,5.84615385 44.0769231,6.08974359 44.0769231,6.57692308 C49.1923077,7.91666698 53.3942308,10.7788466 56.6826923,15.163462 C59.9711538,19.5480774 61.6153846,24.4807695 61.6153846,29.9615385 C61.6153846,38.4871795 61.6153846,38.4871795 61.6153846,55.5384615 C61.6153846,57.4871795 62.5897436,58.4615385 64.5384615,58.4615385 C65.5128205,58.4615385 66.7307692,58.4615385 67.4615385,58.4615385 C67.4615385,59.9230769 67.4615385,62.8461538 67.4615385,64.3076923 C62.2091345,64.3076923 62.2091345,64.3076923 46.4519226,64.3076923 C46.8173075,65.2820513 47,66.2564103 47,67.2307692 C47,69.6666667 46.1474359,71.7371795 44.4423077,73.4423077 C42.7371795,75.1474359 40.6666667,76 38.2307692,76 C35.7948718,76 33.724359,75.1474359 32.0192308,73.4423077 C30.3141026,71.7371795 29.4615385,69.6666667 29.4615385,67.2307692 C29.4615385,66.2564103 29.6442309,65.2820513 30.0096159,64.3076923 C23.0064106,64.3076923 14.252404,64.3076923 9,64.3076923 C9,62.8461538 9,59.9230769 9,58.4615385 C9.73076923,58.4615385 9.73076923,58.4615385 11.9230769,58.4615385 C13.8717949,58.4615385 14.8461538,57.4871795 14.8461538,55.5384615 C14.8461538,46.7692308 14.8461538,46.7692308 14.8461538,29.2307692 C14.8461538,23.8717949 16.5208334,19.0913462 19.8701925,14.8894233 C23.2195517,10.6875004 27.391026,7.91666698 32.3846154,6.57692308 C32.3846154,6.08974359 32.3846154,5.84615385 32.3846154,5.84615385 C32.3846154,4.26282082 32.9326922,2.92307723 34.0288457,1.82692308 C35.246795,0.608974359 36.6474362,0 38.2307692,0 Z M36.9519226,11.6923077 C32.3237181,12.0576926 28.4567312,13.9150645 25.3509618,17.2644233 C22.2451924,20.6137821 20.6923077,24.6025641 20.6923077,29.2307692 C20.6923077,38 20.6923077,38 20.6923077,55.5384615 C20.6923077,56.5128205 20.5096152,57.4871795 20.1442303,58.4615385 C32.2019229,58.4615385 32.2019229,58.4615385 56.3173082,58.4615385 C55.9519232,57.4871795 55.7692308,56.5128205 55.7692308,55.5384615 C55.7692308,47.0128205 55.7692308,47.0128205 55.7692308,29.9615385 C55.7692308,25.0897436 54.125,20.8573717 50.8365385,17.2644228 C47.5480769,13.671474 43.5288463,11.8141023 38.7788466,11.6923077 C38.5961542,11.6923077 38.3677886,11.6923077 38.2307692,11.6923077 C38.0480769,11.6923077 37.6826923,11.6923077 37.5,11.6923077 C37.3629807,11.6923077 37.3629807,11.6923077 36.9519226,11.6923077 Z M38.2307692,64.3076923 C36.2820513,64.3076923 35.3076923,65.2820513 35.3076923,67.2307692 C35.3076923,69.1794872 36.2820513,70.1538462 38.2307692,70.1538462 C40.1794872,70.1538462 41.1538462,69.1794872 41.1538462,67.2307692 C41.1538462,65.2820513 40.1794872,64.3076923 38.2307692,64.3076923 Z" id="bell" fill="#000000" fill-rule="nonzero"></path>
    </g>
</svg>