<?xml version="1.0" encoding="UTF-8"?>
<svg width="74px" height="76px" viewBox="0 0 74 76" version="1.1" xmlns="http://www.w3.org/2000/svg" xmlns:xlink="http://www.w3.org/1999/xlink">
    <!-- Generator: Sketch 48.1 (47250) - http://www.bohemiancoding.com/sketch -->
    <title>bell-slash</title>
    <desc>Created with Sketch.</desc>
    <defs></defs>
    <g id="bell-slash---f1f6" stroke="none" stroke-width="1" fill="none" fill-rule="evenodd" transform="translate(-1.000000, 0.000000)">
        <path d="M5.36363636,0.818181818 L19.4545455,15.0909096 C20.5454544,13.7575759 21.3333334,12.8484848 21.8181823,12.3636364 C24.7272732,9.45454545 28.1818185,7.51515152 32.1818182,6.54545455 C32.1818182,6.06060606 32.1818182,5.81818182 32.1818182,5.81818182 C32.1818182,4.24242455 32.7575758,2.87878827 33.9090911,1.72727296 C35.0606064,0.575757653 36.4242427,0 38,0 C39.5757573,0 40.9393936,0.575757653 42.0909089,1.72727296 C43.2424242,2.87878827 43.8181818,4.24242455 43.8181818,5.81818182 C43.8181818,5.93939363 43.8181818,6.18181787 43.8181818,6.54545455 C48.7878785,8 52.9393936,10.878788 56.272727,15.1818184 C59.6060605,19.4848489 61.2727273,24.3636367 61.2727273,29.8181818 C61.2727273,38.3030303 61.2727273,38.3030303 61.2727273,55.2727273 C61.2727273,56.1212124 61.5454545,56.8181822 62.0909089,57.3636366 C62.6363632,57.909091 63.333333,58.1818182 64.1818182,58.1818182 C65.1515152,58.1818182 66.3636364,58.1818182 67.0909091,58.1818182 C67.0909091,58.9393939 67.0909091,60.4545452 67.0909091,62.7272723 L75,70.4545455 L70.6363636,74.8181818 L1,5.18181818 L5.36363636,0.818181818 Z M36.7272723,11.6363636 C32.4848483,11.8787879 28.8484847,13.5151517 25.8181814,16.545455 C25.2121211,17.1515153 24.4848483,18.0606061 23.6363632,19.2727273 C34.2424239,29.8787877 47.4999999,43.1363633 55.4545455,51.0909086 C55.4545455,45.7727269 55.4545455,45.7727269 55.4545455,29.8181818 C55.4545455,24.969697 53.7878787,20.7575757 50.4545452,17.1818179 C47.1212117,13.6060602 43.151515,11.7575754 38.545455,11.6363636 C37.6969699,11.6363636 37.0909089,11.6363636 36.7272723,11.6363636 Z M14.7272727,26.9090909 C16.1818182,28.3181819 19.0909091,31.136364 20.5454545,32.545455 C20.5454545,38.2272731 20.5454545,38.2272731 20.5454545,55.2727273 C20.5454545,56.2424242 20.3636362,57.2121212 19.9999995,58.1818182 C28.7272723,58.1818182 39.6363632,58.1818182 46.1818177,58.1818182 C47.6363632,59.6363636 50.5454541,62.5454545 51.9999995,64 C50.5454541,64 50.5454541,64 46.1818177,64 C46.5454544,64.969697 46.7272727,65.9393939 46.7272727,66.9090909 C46.7272727,69.3333333 45.8787879,71.3939394 44.1818182,73.0909091 C42.4848485,74.7878788 40.4242424,75.6363636 38,75.6363636 C35.5757576,75.6363636 33.5151515,74.7878788 31.8181818,73.0909091 C30.1212121,71.3939394 29.2727273,69.3333333 29.2727273,66.9090909 C29.2727273,65.9393939 29.4545456,64.969697 29.8181823,64 C22.8484852,64 14.1363638,64 8.90909091,64 C8.90909091,62.5454545 8.90909091,59.6363636 8.90909091,58.1818182 C9.63636364,58.1818182 9.63636364,58.1818182 11.8181818,58.1818182 C12.666667,58.1818182 13.3636368,57.909091 13.9090911,57.3636366 C14.4545455,56.8181822 14.7272727,56.1212124 14.7272727,55.2727273 C14.7272727,46.5454545 14.7272727,46.5454545 14.7272727,29.0909091 C14.7272727,28.2424239 14.7272727,27.5151512 14.7272727,26.9090909 Z M38,64 C36.0606061,64 35.0909091,64.969697 35.0909091,66.9090909 C35.0909091,68.8484848 36.0606061,69.8181818 38,69.8181818 C39.9393939,69.8181818 40.9090909,68.8484848 40.9090909,66.9090909 C40.9090909,64.969697 39.9393939,64 38,64 Z" id="bell-slash" fill="#000000" fill-rule="nonzero"></path>
    </g>
</svg>