<?xml version="1.0" encoding="UTF-8"?>
<svg width="76px" height="50px" viewBox="0 0 76 50" version="1.1" xmlns="http://www.w3.org/2000/svg" xmlns:xlink="http://www.w3.org/1999/xlink">
    <!-- Generator: Sketch 48.1 (47250) - http://www.bohemiancoding.com/sketch -->
    <title>bicycle</title>
    <desc>Created with Sketch.</desc>
    <defs></defs>
    <g id="bicycle" stroke="none" stroke-width="1" fill="none" fill-rule="evenodd" transform="translate(0.000000, -13.000000)">
        <path d="M45.125,13 C45.71875,13 46.90625,13 47.5,13 C50.171875,13 50.171875,13 58.1875,13 C59.7708333,13 61.15625,13.5952381 62.34375,14.7857143 C63.53125,15.9761905 64.125,17.3650794 64.125,18.952381 C64.125,20.5396825 63.53125,21.9285714 62.34375,23.1190476 C61.15625,24.3095238 59.7708333,24.9047619 58.1875,24.9047619 C58.1875,23.3174603 58.1875,23.3174603 58.1875,20.1428571 C58.9791667,20.1428571 59.375,19.7460317 59.375,18.952381 C59.375,18.1587302 58.9791667,17.7619048 58.1875,17.7619048 C55.7135417,17.7619048 52.6210938,17.7619048 50.765625,17.7619048 C52.3984375,21.4077381 52.3984375,21.4077381 57.296875,32.3452381 C58.3854164,32.1468254 59.4739581,32.047619 60.5625,32.047619 C64.8177086,32.047619 68.4544274,33.5605158 71.4726564,36.5863093 C74.4908855,39.6121029 76,43.2579363 76,47.5238095 C76,51.7896828 74.4908855,55.4355162 71.4726564,58.4613097 C68.4544274,61.4871032 64.8177086,63 60.5625,63 C56.3072914,63 52.6705726,61.4871032 49.6523436,58.4613097 C46.6341145,55.4355162 45.125,51.7896828 45.125,47.5238095 C45.125,41.5714286 47.6979167,37.1071429 52.84375,34.1309524 C52.3489583,32.9404762 51.7304688,31.452381 51.359375,30.5595238 C48.4648438,34.8377975 42.6757812,43.394345 39.78125,47.6726187 C39.5585938,47.9330354 39.1132812,48.453869 38.890625,48.7142857 C38.59375,48.7142857 38,48.7142857 37.703125,48.7142857 C35.9960938,48.7142857 35.9960938,48.7142857 30.875,48.7142857 C30.4791667,52.6825397 28.8216145,56.0555556 25.9023436,58.8333333 C22.9830726,61.6111111 19.4947914,63 15.4375,63 C11.1822914,63 7.5455726,61.4871032 4.52734356,58.4613097 C1.50911452,55.4355162 0,51.7896828 0,47.5238095 C0,43.2579363 1.50911452,39.6121029 4.52734356,36.5863093 C7.5455726,33.5605158 11.1822914,32.047619 15.4375,32.047619 C17.0208333,32.047619 18.5052083,32.2460317 19.890625,32.6428571 C22.0677083,29.6170636 24.7890625,25.8348217 26.421875,23.5654766 C26.607422,23.3050598 26.9785159,22.7842263 27.1640629,22.5238095 C27.4609379,22.5238095 28.0546879,22.5238095 28.3515629,22.5238095 C33.2128909,22.5238095 42.935547,22.5238095 47.796875,22.5238095 C47.203125,21.110119 46.015625,18.2827381 45.421875,16.8690476 C45.3476562,16.7574406 45.1992188,16.5342265 45.125,16.4226194 C45.125,16.3110122 45.125,16.0877977 45.125,15.9761905 C45.125,15.827381 45.125,15.5297619 45.125,15.3809524 C45.125,14.7857143 45.125,13.5952381 45.125,13 Z M19,15.3809524 C21.96875,15.3809524 27.90625,15.3809524 30.875,15.3809524 C31.46875,16.5714286 32.65625,18.952381 33.25,20.1428571 C29.6875,20.1428571 22.5625,20.1428571 19,20.1428571 C19,18.952381 19,16.5714286 19,15.3809524 Z M32.0625,27.2857143 C33.6210938,30.8199406 36.7382812,37.8883931 38.296875,41.4226194 C40.671875,37.8883931 45.421875,30.8199406 47.796875,27.2857143 C43.8632812,27.2857143 35.9960938,27.2857143 32.0625,27.2857143 Z M27.90625,29.6666667 C27.015625,30.9315476 27.015625,30.9315476 24.34375,34.7261905 C26.71875,36.5119048 28.5,38.7936508 29.6875,41.5714286 C27.90625,41.5714286 27.90625,41.5714286 24.34375,41.5714286 C22.2656253,38.3968254 19.2968753,36.8095238 15.4375,36.8095238 C12.46875,36.8095238 9.9453125,37.8511905 7.8671875,39.9345238 C5.7890625,42.0178571 4.75,44.547619 4.75,47.5238095 C4.75,50.5 5.7890625,53.0297619 7.8671875,55.1130952 C9.9453125,57.1964286 12.46875,58.2380952 15.4375,58.2380952 C18.2083333,58.2380952 20.5833333,57.3204366 22.5625,55.4851192 C24.5416667,53.6498019 25.6796876,51.3928574 25.9765629,48.7142857 C22.0677086,48.7142857 17.1816407,48.7142857 14.25,48.7142857 C14.25,47.5238095 14.25,45.1428571 14.25,43.952381 C19.2226562,43.952381 29.1679688,43.952381 34.140625,43.952381 C32.5820312,40.3809524 29.4648438,33.2380952 27.90625,29.6666667 Z M60.5625,36.8095238 C60.4635419,36.8095238 60.0182295,36.8591269 59.2265629,36.958333 C60.7604169,40.5793648 62.6777345,45.1056547 63.828125,47.8214286 C62.7890625,48.2678571 60.7109375,49.1607143 59.671875,49.6071429 C58.4472655,46.8541667 58.4472655,46.8541667 54.7734371,38.5952381 C51.5078124,40.7777778 49.875,43.7539683 49.875,47.5238095 C49.875,50.5 50.9140625,53.0297619 52.9921875,55.1130952 C55.0703125,57.1964286 57.59375,58.2380952 60.5625,58.2380952 C63.53125,58.2380952 66.0546875,57.1964286 68.1328125,55.1130952 C70.2109375,53.0297619 71.25,50.5 71.25,47.5238095 C71.25,44.547619 70.2109375,42.0178571 68.1328125,39.9345238 C66.0546875,37.8511905 63.53125,36.8095238 60.5625,36.8095238 Z" fill="#000000" fill-rule="nonzero"></path>
    </g>
</svg>