<?xml version="1.0" encoding="UTF-8"?>
<svg width="76px" height="54px" viewBox="0 0 76 54" version="1.1" xmlns="http://www.w3.org/2000/svg" xmlns:xlink="http://www.w3.org/1999/xlink">
    <!-- Generator: Sketch 48.1 (47250) - http://www.bohemiancoding.com/sketch -->
    <title>binoculars</title>
    <desc>Created with Sketch.</desc>
    <defs></defs>
    <g id="binoculars---f1e5" stroke="none" stroke-width="1" fill="none" fill-rule="evenodd" transform="translate(0.000000, -11.000000)">
        <path d="M26.125,11 C28.3020833,11 30.2070313,11.6603261 31.8398439,12.9809784 C33.4726566,14.3016307 34.5859376,15.9891307 35.1796871,18.0434783 C37.0598957,18.0434783 37.0598957,18.0434783 40.8203129,18.0434783 C41.4140624,15.9891307 42.5273434,14.3016307 44.1601561,12.9809784 C45.7929687,11.6603261 47.6979167,11 49.875,11 C52.1510419,11 54.1549482,11.7336957 55.8867189,13.201087 C57.6184896,14.6684783 58.6822917,16.5271738 59.078125,18.7771735 C64.0260417,20.0489129 67.390625,22.7880434 69.171875,26.9945648 C69.171875,27.043478 69.171875,27.1046195 69.171875,27.1413043 C70.544922,30.8831522 70.544922,30.8831522 74.6640629,42.1086957 C75.5546876,44.1630432 76,46.3152171 76,48.5652174 C76,53.0652174 74.3671875,56.9293478 71.1015625,60.1576087 C67.8359375,63.3858696 63.9270833,65 59.375,65 C55.3177086,65 51.7304691,63.6793478 48.6132814,61.0380435 C45.4960938,58.3967391 43.640625,55.1195652 43.046875,51.2065217 C41.5625003,52.576087 39.8802086,53.2608696 38,53.2608696 C36.1197914,53.2608696 34.4374997,52.576087 32.953125,51.2065217 C32.359375,55.1195652 30.5039062,58.3967391 27.3867186,61.0380435 C24.2695309,63.6793478 20.6822914,65 16.625,65 C12.0729167,65 8.1640625,63.3858696 4.8984375,60.1576087 C1.6328125,56.9293478 0,53.0652174 0,48.5652174 C0,46.0217391 0.59375,43.6250001 1.78125,41.3750004 C3.46354167,36.7282611 3.46354167,36.7282611 6.828125,27.4347826 C8.51041692,22.9347826 11.8750003,20.0489129 16.921875,18.7771735 C17.3177083,16.5271738 18.3815104,14.6684783 20.1132811,13.201087 C21.8450518,11.7336957 23.8489581,11 26.125,11 Z M26.125,15.6956522 C24.7395833,15.6956522 23.6015625,16.1358696 22.7109375,17.0163043 C21.8203125,17.8967391 21.375,19.0217391 21.375,20.3913043 C21.375,21.076087 21.375,21.9320652 21.375,22.4456522 C20.8554687,22.5190217 20.8554687,22.5190217 19.296875,22.7391304 C15.3385417,23.1304348 12.6666667,25.1847826 11.28125,28.9021739 C10.6875,30.5163045 10.6875,30.5163045 9.5,33.7445656 C11.7760419,32.6684784 14.1510419,32.1304348 16.625,32.1304348 C20.0885419,32.1304348 23.2057295,33.0842392 25.9765629,34.991848 C28.7473962,36.8994568 30.7760419,39.3695655 32.0625,42.4021739 C33.4479167,40.25 35.4270833,39.173913 38,39.173913 C40.5729167,39.173913 42.5520833,40.25 43.9375,42.4021739 C45.2239581,39.3695655 47.2526038,36.8994568 50.0234371,34.991848 C52.7942705,33.0842392 55.9114581,32.1304348 59.375,32.1304348 C61.8489581,32.1304348 64.2239581,32.7173913 66.5,33.8913043 C65.90625,32.2282609 65.90625,32.2282609 64.71875,28.9021739 C64.71875,28.8043476 64.71875,28.7554344 64.71875,28.7554344 C64.71875,28.7554344 64.71875,28.7065215 64.71875,28.6086957 C64.0260414,27.0434783 62.9622393,25.7228261 61.5273436,24.6467391 C60.0924479,23.5706522 58.484375,22.9347826 56.703125,22.7391304 C56.0104167,22.6413043 55.1445313,22.5190217 54.625,22.4456522 C54.625,21.9320652 54.625,21.9320652 54.625,20.3913043 C54.625,19.0217391 54.1796875,17.8967391 53.2890625,17.0163043 C52.3984375,16.1358696 51.2604167,15.6956522 49.875,15.6956522 C48.4895833,15.6956522 47.3515625,16.1358696 46.4609375,17.0163043 C45.5703125,17.8967391 45.125,19.0217391 45.125,20.3913043 C45.125,21.173913 45.125,22.1521739 45.125,22.7391304 C44.53125,22.7391304 43.34375,22.7391304 42.75,22.7391304 C40.375,22.7391304 35.625,22.7391304 33.25,22.7391304 C32.65625,22.7391304 31.46875,22.7391304 30.875,22.7391304 C30.875,22.1521739 30.875,22.1521739 30.875,20.3913043 C30.875,19.0217391 30.4296876,17.896739 29.5390629,17.016304 C28.6484376,16.1358694 27.5104167,15.6956522 26.125,15.6956522 Z M16.625,36.826087 C14.25,36.826087 12.0976562,37.4619565 10.1679686,38.7336957 C8.23828093,40.0054348 6.82812475,41.6195652 5.9375,43.576087 C5.83854192,43.6739133 5.78906288,43.7717394 5.78906288,43.8695652 C5.09635429,45.5326084 4.75,47.0978258 4.75,48.5652174 C4.75,51.793478 5.91276048,54.5570649 8.23828144,56.8559781 C10.5638024,59.1548912 13.3593753,60.3043478 16.625,60.3043478 C19.8906247,60.3043478 22.6861976,59.1548912 25.0117186,56.8559781 C27.3372395,54.5570649 28.5,51.793478 28.5,48.5652174 C28.5,45.3369568 27.3372395,42.5733699 25.0117186,40.2744567 C22.6861976,37.9755435 19.8906247,36.826087 16.625,36.826087 Z M59.375,36.826087 C56.1093753,36.826087 53.3138024,37.9755435 50.9882814,40.2744567 C48.6627605,42.5733699 47.5,45.3369568 47.5,48.5652174 C47.5,51.793478 48.6627605,54.5570649 50.9882814,56.8559781 C53.3138024,59.1548912 56.1093753,60.3043478 59.375,60.3043478 C62.6406247,60.3043478 65.4361976,59.1548912 67.7617186,56.8559781 C70.0872395,54.5570649 71.25,51.793478 71.25,48.5652174 C71.25,45.3369568 70.0872395,42.5733699 67.7617186,40.2744567 C65.4361976,37.9755435 62.6406247,36.826087 59.375,36.826087 Z M38,43.8695652 C36.4166667,43.8695652 35.625,44.6521739 35.625,46.2173913 C35.625,47.7826087 36.4166667,48.5652174 38,48.5652174 C39.5833333,48.5652174 40.375,47.7826087 40.375,46.2173913 C40.375,44.6521739 39.5833333,43.8695652 38,43.8695652 Z" id="binoculars" fill="#000000" fill-rule="nonzero"></path>
    </g>
</svg>