<?xml version="1.0" encoding="UTF-8"?>
<svg width="76px" height="76px" viewBox="0 0 76 76" version="1.1" xmlns="http://www.w3.org/2000/svg" xmlns:xlink="http://www.w3.org/1999/xlink">
    <!-- Generator: Sketch 48.1 (47250) - http://www.bohemiancoding.com/sketch -->
    <title>birthday-cake</title>
    <desc>Created with Sketch.</desc>
    <defs></defs>
    <g id="birthday-cake---f1fd" stroke="none" stroke-width="1" fill="none" fill-rule="evenodd">
        <path d="M38,0.140625 C38.5163593,0.877050489 44.1433522,9.54619814 44.6729518,10.6831358 C45.308471,12.2335054 45.6262306,13.4738007 45.6262306,14.404022 C45.6262306,16.471181 44.8847915,18.2282662 43.4019133,19.6752775 C41.9190352,21.1222887 40.1183974,21.8457944 38,21.8457944 C35.8816026,21.8457944 34.0809648,21.1222887 32.5980867,19.6752775 C31.1152085,18.2282662 30.3737694,16.471181 30.3737694,14.404022 C30.3737694,13.4738007 30.691529,12.2335054 31.3270482,10.6831358 C31.8566478,9.54619814 37.4836407,0.877050489 38,0.140625 Z M38,9.13276661 C37.8940804,9.23612482 35.3910264,13.3545413 35.3910264,14.404022 C35.3910264,15.4535027 35.8201227,16.8846128 38,16.8846128 C40.1798773,16.8846128 40.6089736,15.4535027 40.6089736,14.404022 C40.6089736,13.3545413 38.1059196,9.23612482 38,9.13276661 Z M38,25.5140187 C39.4615385,25.5140187 42.3846154,25.5140187 43.8461538,25.5140187 C44.5769231,25.5140187 46.0384615,25.5140187 46.7692308,25.5140187 C46.7692308,26.2429907 46.7692308,27.7009346 46.7692308,28.4299065 C46.7692308,30.6168224 46.7692308,34.9906542 46.7692308,37.1775701 C51.1538462,37.1775701 51.1538462,37.1775701 64.3076923,37.1775701 C67.5961542,37.1775701 70.3669876,38.3014018 72.6201925,40.5490652 C74.8733975,42.7967286 76,45.5607474 76,48.8411215 C76,51.7570093 75.025641,54.3084112 73.0769231,56.4953271 C73.0769231,60.6261682 73.0512821,67.1277259 73,76 L2.84615385,76 C2.8974359,72.2912773 2.92307692,65.7897196 2.92307692,56.4953271 C0.974358974,54.3084112 0,51.7570093 0,48.8411215 C0,45.5607474 1.12660249,42.7967286 3.37980746,40.5490652 C5.63301243,38.3014018 8.40384584,37.1775701 11.6923077,37.1775701 C17.5384615,37.1775701 24.8461538,37.1775701 29.2307692,37.1775701 C29.2307692,34.9906542 29.2307692,30.6168224 29.2307692,28.4299065 C29.2307692,27.7009346 29.2307692,26.2429907 29.2307692,25.5140187 C29.9615385,25.5140187 31.4230769,25.5140187 32.1538462,25.5140187 C33.6153846,25.5140187 36.5384615,25.5140187 38,25.5140187 Z M35.0769231,31.3457944 C35.0769231,32.8037383 35.0769231,35.7196262 35.0769231,37.1775701 C36.5384615,37.1775701 39.4615385,37.1775701 40.9230769,37.1775701 C40.9230769,35.7196262 40.9230769,32.8037383 40.9230769,31.3457944 C39.4615385,31.3457944 36.5384615,31.3457944 35.0769231,31.3457944 Z M11.6923077,43.0093458 C9.98717949,43.0093458 8.58653846,43.5560748 7.49038462,44.6495327 C6.39423077,45.7429907 5.84615385,47.1401869 5.84615385,48.8411215 C5.84615385,50.5420561 6.39423077,51.9392523 7.49038462,53.0327103 C8.58653846,54.1261682 9.98717949,54.6728972 11.6923077,54.6728972 C13.3974359,54.6728972 14.7980769,54.1261682 15.8942308,53.0327103 C16.9903846,51.9392523 17.5384615,50.5420561 17.5384615,48.8411215 C19.4871795,48.8411215 19.4871795,48.8411215 23.3846154,48.8411215 C23.3846154,50.5420561 23.9326923,51.9392523 25.0288462,53.0327103 C26.125,54.1261682 27.525641,54.6728972 29.2307692,54.6728972 C30.9358974,54.6728972 32.3365385,54.1261682 33.4326923,53.0327103 C34.5288462,51.9392523 35.0769231,50.5420561 35.0769231,48.8411215 C37.025641,48.8411215 37.025641,48.8411215 40.9230769,48.8411215 C40.9230769,50.5420561 41.4711538,51.9392523 42.5673077,53.0327103 C43.6634615,54.1261682 45.0641026,54.6728972 46.7692308,54.6728972 C48.474359,54.6728972 49.875,54.1261682 50.9711538,53.0327103 C52.0673077,51.9392523 52.6153846,50.5420561 52.6153846,48.8411215 C54.5641026,48.8411215 54.5641026,48.8411215 58.4615385,48.8411215 C58.4615385,50.5420561 59.0096154,51.9392523 60.1057692,53.0327103 C61.2019231,54.1261682 62.6025641,54.6728972 64.3076923,54.6728972 C66.0128205,54.6728972 67.4134615,54.1261682 68.5096154,53.0327103 C69.6057692,51.9392523 70.1538462,50.5420561 70.1538462,48.8411215 C70.1538462,47.1401869 69.6057692,45.7429907 68.5096154,44.6495327 C67.4134615,43.5560748 66.0128205,43.0093458 64.3076923,43.0093458 C46.7692308,43.0093458 46.7692308,43.0093458 11.6923077,43.0093458 Z M20.4615385,56.4953271 C18.1474356,59.1682243 15.2243587,60.5046729 11.6923077,60.5046729 C11.2051282,60.5046729 10.3076923,60.3364486 9,60 L9,70 L67,70 L67,60 C65.6923077,60.3364486 64.7948718,60.5046729 64.3076923,60.5046729 C60.7756413,60.5046729 57.8525644,59.1682243 55.5384615,56.4953271 C53.2243587,59.1682243 50.3012817,60.5046729 46.7692308,60.5046729 C43.2371798,60.5046729 40.3141029,59.1682243 38,56.4953271 C35.6858971,59.1682243 32.7628202,60.5046729 29.2307692,60.5046729 C25.6987183,60.5046729 22.7756413,59.1682243 20.4615385,56.4953271 Z" id="birthday-cake" fill="#000000" fill-rule="nonzero"></path>
    </g>
</svg>