<?xml version="1.0" encoding="UTF-8"?>
<svg width="50px" height="76px" viewBox="0 0 50 76" version="1.1" xmlns="http://www.w3.org/2000/svg" xmlns:xlink="http://www.w3.org/1999/xlink">
    <!-- Generator: Sketch 48.1 (47250) - http://www.bohemiancoding.com/sketch -->
    <title>bitcoin</title>
    <desc>Created with Sketch.</desc>
    <defs></defs>
    <g id="bitcoin---f15a" stroke="none" stroke-width="1" fill="none" fill-rule="evenodd" transform="translate(-13.000000, 0.000000)">
        <path d="M24.6809117,0 C26.1410256,0 29.0612536,0 30.5213675,0 C30.5213675,2.19230769 30.5213675,6.57692308 30.5213675,8.76923077 C31.9814815,8.76923077 34.9017094,8.76923077 36.3618234,8.76923077 C36.3618234,6.57692308 36.3618234,2.19230769 36.3618234,0 C37.8219373,0 40.7421652,0 42.2022792,0 C42.2022792,2.19230769 42.2022792,6.57692308 42.2022792,8.76923077 C42.5673077,8.76923077 43.2973647,8.76923077 43.6623932,8.76923077 C48.042735,8.76923077 51.8146961,10.3525641 54.9782764,13.5192308 C58.1418566,16.6858974 59.7236467,20.4615385 59.7236467,24.8461538 C59.7236467,29.7179487 57.8985043,33.7371795 54.2482194,36.9038462 C56.8034191,38.3653846 58.8414949,40.3445514 60.3624468,42.8413464 C61.8833987,45.3381414 62.6438746,48.1089747 62.6438746,51.1538462 C62.6438746,55.5384615 61.0620845,59.3141026 57.8985043,62.4807692 C54.734924,65.6474359 50.962963,67.2307692 46.5826211,67.2307692 C45.1225071,67.2307692 43.2973647,67.2307692 42.2022792,67.2307692 C42.2022792,69.4230769 42.2022792,73.8076923 42.2022792,76 C40.7421652,76 37.8219373,76 36.3618234,76 C36.3618234,73.8076923 36.3618234,69.4230769 36.3618234,67.2307692 C34.9017094,67.2307692 31.9814815,67.2307692 30.5213675,67.2307692 C30.5213675,69.4230769 30.5213675,73.8076923 30.5213675,76 C29.0612536,76 26.1410256,76 24.6809117,76 C24.6809117,73.8076923 24.6809117,69.4230769 24.6809117,67.2307692 C22.4907407,67.2307692 18.1103989,67.2307692 15.9202279,67.2307692 C15.1901709,67.2307692 13.730057,67.2307692 13,67.2307692 C13,66.5 13,65.0384615 13,64.3076923 C13,58.4615385 13,46.7692308 13,40.9230769 C13,40.1923077 13,38.7307692 13,38 C13,31.4230769 13,18.2692308 13,11.6923077 C13,10.9615385 13,9.5 13,8.76923077 C13.730057,8.76923077 15.1901709,8.76923077 15.9202279,8.76923077 C18.1103989,8.76923077 22.4907407,8.76923077 24.6809117,8.76923077 C24.6809117,6.57692308 24.6809117,2.19230769 24.6809117,0 Z M18.8404558,14.6153846 C18.8404558,19.7307692 18.8404558,29.9615385 18.8404558,35.0769231 C25.0459402,35.0769231 37.4569088,35.0769231 43.6623932,35.0769231 C46.4609452,35.0769231 48.8640495,34.0721155 50.8717061,32.0625002 C52.8793626,30.052885 53.8831909,27.6474362 53.8831909,24.8461538 C53.8831909,22.0448715 52.8793626,19.6394227 50.8717061,17.6298075 C48.8640495,15.6201922 46.4609452,14.6153846 43.6623932,14.6153846 C35.3884141,14.6153846 25.0459402,14.6153846 18.8404558,14.6153846 Z M18.8404558,40.9230769 C18.8404558,46.0384615 18.8404558,56.2692308 18.8404558,61.3846154 C25.7759972,61.3846154 39.6470798,61.3846154 46.5826211,61.3846154 C49.3811732,61.3846154 51.7842775,60.3798078 53.791934,58.3701925 C55.7995905,56.3605773 56.8034188,53.9551285 56.8034188,51.1538462 C56.8034188,48.3525638 55.7995905,45.947115 53.791934,43.9374998 C51.7842775,41.9278845 49.3811732,40.9230769 46.5826211,40.9230769 C45.6092118,40.9230769 44.3924501,40.9230769 43.6623932,40.9230769 C37.4569088,40.9230769 25.0459402,40.9230769 18.8404558,40.9230769 Z" id="bitcoin" fill="#000000" fill-rule="nonzero"></path>
    </g>
</svg>