<?xml version="1.0" encoding="UTF-8"?>
<svg width="56px" height="76px" viewBox="0 0 56 76" version="1.1" xmlns="http://www.w3.org/2000/svg" xmlns:xlink="http://www.w3.org/1999/xlink">
    <!-- Generator: Sketch 48.1 (47250) - http://www.bohemiancoding.com/sketch -->
    <title>blind</title>
    <desc>Created with Sketch.</desc>
    <defs></defs>
    <g id="blind" stroke="none" stroke-width="1" fill="none" fill-rule="evenodd" transform="translate(-10.000000, 0.000000)">
        <path d="M23.7636294,11.8667819 C20.4193031,11.7907227 17.7590436,9.20471008 17.7590436,5.85810555 C17.7590436,2.6636194 20.4193031,0.00154760899 23.7636294,0.00154760899 C26.9559409,-0.0745115849 29.6162004,2.6636194 29.6162004,5.85810555 C29.6922078,9.20471008 27.0319483,11.8667819 23.7636294,11.8667819 Z M40.9843991,40.493927 C33.8852436,32.6053563 25.4544221,22.9591576 24.9037406,23.4277794 C24.3530591,23.8964012 27.2350547,27.1443549 29.6162004,29.96887 L29.6922078,44.4961761 C29.0691596,46.1010454 29.9050171,43.8573133 19.644016,72.4555702 C18.0478603,77.7036546 12.7239732,77.0210171 14.211878,70.2295558 C15.6997827,63.4380946 17.8313963,53.5960476 19.659229,44.6482945 L19.8872512,26.013792 L15.3268063,33.087297 C15.4782299,36.1842415 15.3268063,33.087297 15.7828508,43.5074066 C16.0445186,47.3760631 13.283861,47.4468974 12.3625171,44.1158801 L10,32.1682951 C13.0160087,26.6397542 17.4770838,18.1165079 19.048026,15.5826722 C20.6189682,13.0488364 26.7279186,13.8443209 27.716015,15.2894456 C30.6511661,19.0300305 42.2482433,34.2803238 44.8107798,37.7273261 C47.3733164,41.1743285 44.4407543,44.3346237 40.9843991,40.493927 Z M31.5315987,72.9727613 C29.767659,68.1436732 27.9753061,62.8950507 26.3478815,57.7304758 L30.1482523,47.0821887 C31.5930641,52.6022611 35.2609929,66.8757522 36.5127633,71.3450142 C37.7645336,75.8142762 33.2955384,77.8018494 31.5315987,72.9727613 Z M46.6418614,45.0285904 C46.3378318,44.5722353 46.4138392,43.9637617 46.7938762,43.659525 C47.2499207,43.3552882 47.8579801,43.3552882 48.2380171,43.8116433 C48.3140246,43.8877025 48.3140246,43.8877025 48.3140246,43.8877025 C49.6231882,46.2302811 48.3140246,43.8877025 65.8717375,74.3874393 C66.0997597,74.8437945 66.0237523,75.452268 65.6437152,75.7565048 C65.1876707,76.1368008 64.503604,76.0607416 64.1235669,75.6043864 C61.0928439,70.3165622 64.1235669,75.6043864 46.6418614,45.0285904 Z" fill="#000000" fill-rule="nonzero"></path>
    </g>
</svg>