<?xml version="1.0" encoding="UTF-8"?>
<svg width="48px" height="76px" viewBox="0 0 48 76" version="1.1" xmlns="http://www.w3.org/2000/svg" xmlns:xlink="http://www.w3.org/1999/xlink">
    <!-- Generator: Sketch 48.1 (47250) - http://www.bohemiancoding.com/sketch -->
    <title>bluetooth-b</title>
    <desc>Created with Sketch.</desc>
    <defs></defs>
    <g id="bluetooth-b" stroke="none" stroke-width="1" fill="none" fill-rule="evenodd" transform="translate(-14.000000, 0.000000)">
        <path d="M38,0 C51.254834,-2.4348735e-15 62,10.745166 62,24 L62,52 C62,65.254834 51.254834,76 38,76 C24.745166,76 14,65.254834 14,52 L14,24 C14,10.745166 24.745166,2.4348735e-15 38,0 Z M38,6 C28.0588745,6 20,14.0588745 20,24 L20,52 C20,61.9411255 28.0588745,70 38,70 C47.9411255,70 56,61.9411255 56,52 L56,24 C56,14.0588745 47.9411255,6 38,6 Z M40.3059524,51.89279 L45.072619,47.1924765 L40.3059524,42.492163 L40.3059524,51.89279 Z M40.3059524,32.4924765 L45.072619,27.792163 L40.3059524,23.0918495 L40.3059524,32.4924765 Z M41.1880952,37.5 L51,47.238558 L36.1583333,62 L36.1583333,42.553605 L27.9714286,50.6485893 L25,47.6840125 L35.2452381,37.4846395 L25,27.300627 L27.9714286,24.3514107 L36.1583333,32.446395 L36.1583333,13 L51,27.761442 L41.1880952,37.5 Z" fill="#000000"></path>
    </g>
</svg>