<?xml version="1.0" encoding="UTF-8"?>
<svg width="52px" height="76px" viewBox="0 0 52 76" version="1.1" xmlns="http://www.w3.org/2000/svg" xmlns:xlink="http://www.w3.org/1999/xlink">
    <!-- Generator: Sketch 48.1 (47250) - http://www.bohemiancoding.com/sketch -->
    <title>bold</title>
    <desc>Created with Sketch.</desc>
    <defs></defs>
    <g id="bold---f032" stroke="none" stroke-width="1" fill="none" fill-rule="evenodd" transform="translate(-12.000000, 0.000000)">
        <path d="M64,54.9719101 C64,68.741573 54.8548057,76 41.4560327,76 L12,76 L12,0 L40.4989775,0 C53.6850716,0 62.8302658,7.57865169 62.8302658,20.2808989 C62.8302658,28.2865169 58.0449898,34.5842697 51.6646217,36.9325843 C58.8957055,39.6011236 64,45.8988764 64,54.9719101 Z M55.9182004,54.758427 C55.9182004,46.2191011 50.0695297,40.8820225 40.7116564,40.8820225 L20.0817996,40.8820225 L20.0817996,68.741573 L40.7116564,68.741573 C50.0695297,68.741573 55.9182004,63.2977528 55.9182004,54.758427 Z M54.7484663,20.3876404 C54.7484663,11.3146067 48.2617587,7.25842697 39.8609407,7.25842697 L20.0817996,7.25842697 L20.0817996,33.6235955 L39.8609407,33.6235955 C48.2617587,33.6235955 54.7484663,29.4606742 54.7484663,20.3876404 Z" id="bold" fill="#000000"></path>
    </g>
</svg>