<?xml version="1.0" encoding="UTF-8"?>
<svg width="76px" height="76px" viewBox="0 0 76 76" version="1.1" xmlns="http://www.w3.org/2000/svg" xmlns:xlink="http://www.w3.org/1999/xlink">
    <!-- Generator: Sketch 48.1 (47250) - http://www.bohemiancoding.com/sketch -->
    <title>bomb</title>
    <desc>Created with Sketch.</desc>
    <defs></defs>
    <g id="bomb" stroke="none" stroke-width="1" fill="none" fill-rule="evenodd">
        <path d="M56.7879005,0 C57.0102629,1.42311848 57.4549876,4.26935544 57.67735,5.69247392 C58.077602,8.44976598 58.8781059,13.9643501 59.2783579,16.7216421 C62.0356499,17.1218941 67.550234,17.922398 70.3075261,18.32265 C71.7306446,18.5450124 74.5768815,18.9897371 76,19.2120995 C75.021606,20.1904934 73.0648181,22.1472814 72.0864242,23.1256753 C69.418077,25.7940225 64.0813827,31.1307168 61.4130356,33.7990639 C61.1462009,34.0214261 60.6125314,34.4661504 60.3456967,34.6885125 C59.9899171,34.6440402 59.2783579,34.5550955 58.9225782,34.5106232 C58.7446884,34.5106232 58.7446884,34.5106232 58.211019,34.5106232 C59.1597646,41.1518427 57.3215701,46.7850202 52.6964353,51.4101556 C46.4702918,57.6362988 46.4702918,57.6362988 34.0180048,70.0885852 C29.7486494,74.3579406 23.3446162,76.3147284 14.8059053,75.9589484 C13.0270075,75.8403555 11.188813,75.6624659 9.29132168,75.4252795 C7.39383038,75.188093 5.9707119,74.9509066 5.02196624,74.7137202 C4.60688987,74.595127 4.0880444,74.4468855 3.77673712,74.3579406 C3.37648516,74.2245231 2.57598124,73.9576882 2.17572928,73.8242707 C2.04231181,73.4240188 2.04231181,73.4240188 1.6420594,72.2232629 C0.693313743,69.021246 0.159644465,65.3448566 0.041051562,61.1940947 C-0.314728362,52.6553838 1.6420594,46.2513506 5.91141484,41.9819952 C11.9596684,35.8744452 19.5199853,28.2400077 24.0561755,23.6593452 C24.1895927,23.5704001 24.1895927,23.5704001 24.5898444,23.3035647 C29.2149798,18.6784299 34.8481573,16.8402354 41.4893768,17.788981 C41.4893768,17.5517946 41.4893768,17.2553116 41.4893768,17.0774218 C41.4449045,16.7216421 41.3559598,16.0100829 41.3114875,15.6543033 C41.5338496,15.3874686 41.9785739,14.8537991 42.2009361,14.5869644 C44.8692832,11.9186173 50.2059775,6.58192297 52.8743247,3.91357582 C53.8527186,2.93518187 55.8095066,0.978393955 56.7879005,0 Z M52.8743247,12.0965071 C51.4956786,13.475153 48.7383863,16.2324448 47.3597401,17.6110907 C47.4931576,18.4560675 47.7599925,20.1460209 47.89341,20.9909976 C48.0712998,22.2362263 48.4270794,24.7266836 48.6049693,25.9719123 C47.4486855,25.5271877 47.4486855,25.5271877 43.9798342,24.1930142 C41.4893765,23.125675 38.8210292,22.8588402 35.9747923,23.3925098 C33.1285553,23.9261794 30.6973947,25.260353 28.6813105,27.3950307 C22.4551673,33.5618775 22.4551673,33.5618775 10.0028809,45.895571 C6.91945694,48.9789944 5.49633846,53.959909 5.73352548,60.838315 C5.85211839,63.4473656 6.26719446,66.1750093 6.9787537,69.0212463 C9.82499066,69.7328055 12.5526344,70.1478816 15.161685,70.2664745 C22.040091,70.5036615 27.0210056,69.0805431 30.104429,65.9971191 C36.2712758,59.7709759 36.2712758,59.7709759 48.6049693,47.3186895 C50.739647,45.3026053 52.0738206,42.8714447 52.6074902,40.0252077 C53.1411598,37.1789708 52.874325,34.5106235 51.8069858,32.0201658 C51.2140198,30.4784541 50.4728123,28.5513145 50.0280877,27.3950307 C51.2733164,27.5729206 53.7637737,27.9287002 55.0090024,28.10659 C55.8539791,28.2400075 57.5439325,28.5068424 58.3889093,28.6402599 C59.7675552,27.2616137 62.524847,24.5043214 63.9034929,23.1256753 C62.0356499,22.8588406 58.2999639,22.3251712 56.4321209,22.0583364 C55.8984515,21.9693915 54.8311126,21.7915017 54.2974432,21.7025568 C54.2084983,21.1688874 54.0306085,20.1015485 53.9416636,19.5678791 C53.6748288,17.7000361 53.1411594,13.9643501 52.8743247,12.0965071 Z" fill="#000000" fill-rule="nonzero"></path>
    </g>
</svg>