<?xml version="1.0" encoding="UTF-8"?>
<svg width="76px" height="52px" viewBox="0 0 76 52" version="1.1" xmlns="http://www.w3.org/2000/svg" xmlns:xlink="http://www.w3.org/1999/xlink">
    <!-- Generator: Sketch 48.1 (47250) - http://www.bohemiancoding.com/sketch -->
    <title>braile</title>
    <desc>Created with Sketch.</desc>
    <defs></defs>
    <g id="braile" stroke="none" stroke-width="1" fill="none" fill-rule="evenodd" transform="translate(0.000000, -12.000000)">
        <path d="M11.2304667,62.0886122 C10.644052,62.6772429 9.93858945,63.1429652 9.11407915,63.4857791 C8.28956885,63.828593 7.46265589,64 6.63334027,64 C5.80402464,64 4.97711168,63.828593 4.15260138,63.4857791 C3.32809108,63.1429652 2.62262858,62.6772429 2.03621388,62.0886122 C1.44979917,61.4999815 0.985830148,60.7918532 0.644306799,59.9642272 C0.30278345,59.1366012 0.132021776,58.3065634 0.132021776,57.4741139 C0.132021776,56.6416644 0.30278345,55.8116267 0.644306799,54.9840006 C0.985830148,54.1563746 1.44979917,53.4482463 2.03621388,52.8596156 C2.62262858,52.2709849 3.32809108,51.8052626 4.15260138,51.4624487 C4.97711168,51.1196348 5.80402464,50.9482278 6.63334027,50.9482278 C7.46265589,50.9482278 8.28956885,51.1196348 9.11407915,51.4624487 C9.93858945,51.8052626 10.644052,52.2709849 11.2304667,52.8596156 C11.8168814,53.4482463 12.2808504,54.1563746 12.6223737,54.9840006 C12.9638971,55.8116267 13.1346588,56.6416644 13.1346588,57.4741139 C13.1346588,58.3065634 12.9638971,59.1366012 12.6223737,59.9642272 C12.2808504,60.7918532 11.8168814,61.4999815 11.2304667,62.0886122 Z M11.0984449,23.3925771 C10.5120302,23.9812077 9.80656768,24.44693 8.98205738,24.789744 C8.15754708,25.1325579 7.33063411,25.3039648 6.50131849,25.3039648 C5.67200287,25.3039648 4.8450899,25.1325579 4.0205796,24.789744 C3.1960693,24.44693 2.4906068,23.9812077 1.9041921,23.3925771 C1.3177774,22.8039464 0.853808372,22.095818 0.512285023,21.268192 C0.170761674,20.440566 0,19.6105282 0,18.7780787 C0,17.9456293 0.170761674,17.1155915 0.512285023,16.2879655 C0.853808372,15.4603395 1.3177774,14.7522111 1.9041921,14.1635804 C2.4906068,13.5749498 3.1960693,13.1092275 4.0205796,12.7664135 C4.8450899,12.4235996 5.67200287,12.2521927 6.50131849,12.2521927 C7.33063411,12.2521927 8.15754708,12.4235996 8.98205738,12.7664135 C9.80656768,13.1092275 10.5120302,13.5749498 11.0984449,14.1635804 C11.6848596,14.7522111 12.1488286,15.4603395 12.490352,16.2879655 C12.8318753,17.1155915 13.002637,17.9456293 13.002637,18.7780787 C13.002637,19.6105282 12.8318753,20.440566 12.490352,21.268192 C12.1488286,22.095818 11.6848596,22.8039464 11.0984449,23.3925771 Z M29.2032021,43.2319238 C28.6167874,43.8205545 27.9113249,44.2862768 27.0868146,44.6290907 C26.2623043,44.9719046 25.4353914,45.1433116 24.6060757,45.1433116 C23.7767601,45.1433116 22.9498472,44.9719046 22.1253369,44.6290907 C21.3008266,44.2862768 20.5953641,43.8205545 20.0089494,43.2319238 C19.4225346,42.6432931 18.9585656,41.9351648 18.6170423,41.1075387 C18.2755189,40.2799127 18.1047573,39.449875 18.1047573,38.6174255 C18.1047573,37.784976 18.2755189,36.9549382 18.6170423,36.1273122 C18.9585656,35.2996862 19.4225346,34.5915578 20.0089494,34.0029272 C20.5953641,33.4142965 21.3008266,32.9485742 22.1253369,32.6057603 C22.9498472,32.2629463 23.7767601,32.0915394 24.6060757,32.0915394 C25.4353914,32.0915394 26.2623043,32.2629463 27.0868146,32.6057603 C27.9113249,32.9485742 28.6167874,33.4142965 29.2032021,34.0029272 C29.7896168,34.5915578 30.2535859,35.2996862 30.5951092,36.1273122 C30.9366326,36.9549382 31.1073942,37.784976 31.1073942,38.6174255 C31.1073942,39.449875 30.9366326,40.2799127 30.5951092,41.1075387 C30.2535859,41.9351648 29.7896168,42.6432931 29.2032021,43.2319238 Z M29.4672457,23.3538235 C28.880831,23.9424542 28.1753685,24.4081765 27.3508582,24.7509904 C26.5263479,25.0938044 25.6994349,25.2652113 24.8701193,25.2652113 C24.0408037,25.2652113 23.2138907,25.0938044 22.3893804,24.7509904 C21.5648701,24.4081765 20.8594076,23.9424542 20.2729929,23.3538235 C19.6865782,22.7651928 19.2226092,22.0570645 18.8810858,21.2294385 C18.5395625,20.4018125 18.3688008,19.5717747 18.3688008,18.7393252 C18.3688008,17.9068757 18.5395625,17.076838 18.8810858,16.249212 C19.2226092,15.4215859 19.6865782,14.7134576 20.2729929,14.1248269 C20.8594076,13.5361962 21.5648701,13.0704739 22.3893804,12.72766 C23.2138907,12.3848461 24.0408037,12.2134391 24.8701193,12.2134391 C25.6994349,12.2134391 26.5263479,12.3848461 27.3508582,12.72766 C28.1753685,13.0704739 28.880831,13.5361962 29.4672457,14.1248269 C30.0536604,14.7134576 30.5176294,15.4215859 30.8591528,16.249212 C31.2006761,17.076838 31.3714378,17.9068757 31.3714378,18.7393252 C31.3714378,19.5717747 31.2006761,20.4018125 30.8591528,21.2294385 C30.5176294,22.0570645 30.0536604,22.7651928 29.4672457,23.3538235 Z M55.8590289,61.8751731 C55.2726142,62.4638038 54.5671517,62.9295261 53.7426414,63.27234 C52.9181311,63.6151539 52.0912181,63.7865609 51.2619025,63.7865609 C50.4325869,63.7865609 49.6056739,63.6151539 48.7811636,63.27234 C47.9566533,62.9295261 47.2511908,62.4638038 46.6647761,61.8751731 C46.0783614,61.2865424 45.6143924,60.5784141 45.272869,59.750788 C44.9313457,58.923162 44.760584,58.0931243 44.760584,57.2606748 C44.760584,56.4282253 44.9313457,55.5981875 45.272869,54.7705615 C45.6143924,53.9429355 46.0783614,53.2348072 46.6647761,52.6461765 C47.2511908,52.0575458 47.9566533,51.5918235 48.7811636,51.2490096 C49.6056739,50.9061956 50.4325869,50.7347887 51.2619025,50.7347887 C52.0912181,50.7347887 52.9181311,50.9061956 53.7426414,51.2490096 C54.5671517,51.5918235 55.2726142,52.0575458 55.8590289,52.6461765 C56.4454436,53.2348072 56.9094126,53.9429355 57.2509359,54.7705615 C57.5924593,55.5981875 57.763221,56.4282253 57.763221,57.2606748 C57.763221,58.0931243 57.5924593,58.923162 57.2509359,59.750788 C56.9094126,60.5784141 56.4454436,61.2865424 55.8590289,61.8751731 Z M55.4629635,43.0572382 C54.8765488,43.6458689 54.1710863,44.1115912 53.346576,44.4544051 C52.5220657,44.797219 51.6951528,44.968626 50.8658372,44.968626 C50.0365215,44.968626 49.2096086,44.797219 48.3850983,44.4544051 C47.560588,44.1115912 46.8551255,43.6458689 46.2687108,43.0572382 C45.6822961,42.4686075 45.218327,41.7604791 44.8768037,40.9328531 C44.5352803,40.1052271 44.3645187,39.2751894 44.3645187,38.4427399 C44.3645187,37.6102904 44.5352803,36.7802526 44.8768037,35.9526266 C45.218327,35.1250006 45.6822961,34.4168722 46.2687108,33.8282416 C46.8551255,33.2396109 47.560588,32.7738886 48.3850983,32.4310747 C49.2096086,32.0882607 50.0365215,31.9168538 50.8658372,31.9168538 C51.6951528,31.9168538 52.5220657,32.0882607 53.346576,32.4310747 C54.1710863,32.7738886 54.8765488,33.2396109 55.4629635,33.8282416 C56.0493782,34.4168722 56.5133473,35.1250006 56.8548706,35.9526266 C57.196394,36.7802526 57.3671556,37.6102904 57.3671556,38.4427399 C57.3671556,39.2751894 57.196394,40.1052271 56.8548706,40.9328531 C56.5133473,41.7604791 56.0493782,42.4686075 55.4629635,43.0572382 Z M55.7270071,23.1791379 C55.1405924,23.7677686 54.4351299,24.2334909 53.6106196,24.5763048 C52.7861093,24.9191188 51.9591963,25.0905257 51.1298807,25.0905257 C50.3005651,25.0905257 49.4736521,24.9191188 48.6491418,24.5763048 C47.8246315,24.2334909 47.119169,23.7677686 46.5327543,23.1791379 C45.9463396,22.5905072 45.4823706,21.8823789 45.1408472,21.0547529 C44.7993239,20.2271269 44.6285622,19.3970891 44.6285622,18.5646396 C44.6285622,17.7321901 44.7993239,16.9021524 45.1408472,16.0745264 C45.4823706,15.2469003 45.9463396,14.538772 46.5327543,13.9501413 C47.119169,13.3615106 47.8246315,12.8957883 48.6491418,12.5529744 C49.4736521,12.2101605 50.3005651,12.0387535 51.1298807,12.0387535 C51.9591963,12.0387535 52.7861093,12.2101605 53.6106196,12.5529744 C54.4351299,12.8957883 55.1405924,13.3615106 55.7270071,13.9501413 C56.3134218,14.538772 56.7773908,15.2469003 57.1189142,16.0745264 C57.4604375,16.9021524 57.6311992,17.7321901 57.6311992,18.5646396 C57.6311992,19.3970891 57.4604375,20.2271269 57.1189142,21.0547529 C56.7773908,21.8823789 56.3134218,22.5905072 55.7270071,23.1791379 Z M73.8317643,43.0184847 C73.2453496,43.6071153 72.5398871,44.0728376 71.7153768,44.4156516 C70.8908665,44.7584655 70.0639536,44.9298724 69.234638,44.9298724 C68.4053223,44.9298724 67.5784094,44.7584655 66.7538991,44.4156516 C65.9293888,44.0728376 65.2239263,43.6071153 64.6375116,43.0184847 C64.0510969,42.429854 63.5871278,41.7217256 63.2456045,40.8940996 C62.9040811,40.0664736 62.7333195,39.2364358 62.7333195,38.4039863 C62.7333195,37.5715368 62.9040811,36.7414991 63.2456045,35.9138731 C63.5871278,35.0862471 64.0510969,34.3781187 64.6375116,33.789488 C65.2239263,33.2008574 65.9293888,32.7351351 66.7538991,32.3923211 C67.5784094,32.0495072 68.4053223,31.8781003 69.234638,31.8781003 C70.0639536,31.8781003 70.8908665,32.0495072 71.7153768,32.3923211 C72.5398871,32.7351351 73.2453496,33.2008574 73.8317643,33.789488 C74.4181791,34.3781187 74.8821481,35.0862471 75.2236714,35.9138731 C75.5651948,36.7414991 75.7359564,37.5715368 75.7359564,38.4039863 C75.7359564,39.2364358 75.5651948,40.0664736 75.2236714,40.8940996 C74.8821481,41.7217256 74.4181791,42.429854 73.8317643,43.0184847 Z M74.0958079,23.1403844 C73.5093932,23.7290151 72.8039307,24.1947374 71.9794204,24.5375513 C71.1549101,24.8803652 70.3279971,25.0517722 69.4986815,25.0517722 C68.6693659,25.0517722 67.8424529,24.8803652 67.0179426,24.5375513 C66.1934323,24.1947374 65.4879698,23.7290151 64.9015551,23.1403844 C64.3151404,22.5517537 63.8511714,21.8436254 63.509648,21.0159994 C63.1681247,20.1883733 62.997363,19.3583356 62.997363,18.5258861 C62.997363,17.6934366 63.1681247,16.8633988 63.509648,16.0357728 C63.8511714,15.2081468 64.3151404,14.5000185 64.9015551,13.9113878 C65.4879698,13.3227571 66.1934323,12.8570348 67.0179426,12.5142209 C67.8424529,12.171407 68.6693659,12 69.4986815,12 C70.3279971,12 71.1549101,12.171407 71.9794204,12.5142209 C72.8039307,12.8570348 73.5093932,13.3227571 74.0958079,13.9113878 C74.6822226,14.5000185 75.1461916,15.2081468 75.487715,16.0357728 C75.8292383,16.8633988 76,17.6934366 76,18.5258861 C76,19.3583356 75.8292383,20.1883733 75.487715,21.0159994 C75.1461916,21.8436254 74.6822226,22.5517537 74.0958079,23.1403844 Z" fill="#000000" fill-rule="nonzero"></path>
    </g>
</svg>