<?xml version="1.0" encoding="UTF-8"?>
<svg width="76px" height="68px" viewBox="0 0 76 68" version="1.1" xmlns="http://www.w3.org/2000/svg" xmlns:xlink="http://www.w3.org/1999/xlink">
    <!-- Generator: Sketch 48.1 (47250) - http://www.bohemiancoding.com/sketch -->
    <title>briefcase</title>
    <desc>Created with Sketch.</desc>
    <defs></defs>
    <g id="briefcase" stroke="none" stroke-width="1" fill="none" fill-rule="evenodd" transform="translate(0.000000, -4.000000)">
        <path d="M38,4 C40.6794872,4 43.0544872,4.83152182 45.125,6.49456545 C47.1955128,8.15760909 48.5961538,10.282609 49.3269231,12.8695652 C57.2435897,12.8695652 67.1394231,12.8695652 73.0769231,12.8695652 C73.8076923,12.8695652 75.2692308,12.8695652 76,12.8695652 C76,13.6086957 76,15.0869565 76,15.826087 C76,29.1304348 76,55.7391304 76,69.0434783 C76,69.7826087 76,71.2608696 76,72 C75.2692308,72 73.8076923,72 73.0769231,72 C55.5384615,72 20.4615385,72 2.92307692,72 C2.19230769,72 0.730769231,72 0,72 C0,71.2608696 0,69.7826087 0,69.0434783 C0,55.7391304 0,29.1304348 0,15.826087 C0,15.0869565 0,13.6086957 0,12.8695652 C0.730769231,12.8695652 2.19230769,12.8695652 2.92307692,12.8695652 C8.86057692,12.8695652 8.86057692,12.8695652 26.6730769,12.8695652 C27.4038462,10.282609 28.804487,8.18840611 30.8749995,6.58695652 C32.9455127,4.86231884 35.3205128,4 38,4 Z M38,9.91304348 C35.5641026,9.91304348 33.8589744,10.8985507 32.8846154,12.8695652 C36.2948718,12.8695652 36.2948718,12.8695652 43.1153846,12.8695652 C42.1410256,10.8985507 40.4358974,9.91304348 38,9.91304348 Z M6,19 C6,25.5978261 6,38.7934783 6,45.3913043 C22,45.3913043 54,45.3913043 70,45.3913043 C70,38.7934783 70,25.5978261 70,19 C54,19 22,19 6,19 Z M38,37.4942792 C38.5721156,37.4942792 39.0420676,37.6802774 39.4098559,38.0522739 C39.7776443,38.4242703 39.9615385,38.8995993 39.9615385,39.4782609 C39.9615385,40.0569224 39.7776443,40.5322514 39.4098559,40.9042479 C39.0420676,41.2762443 38.5721156,41.4622426 38,41.4622426 C37.4278844,41.4622426 36.9579324,41.2762443 36.5901441,40.9042479 C36.2223557,40.5322514 36.0384615,40.0569224 36.0384615,39.4782609 C36.0384615,38.8995993 36.2223557,38.4242703 36.5901441,38.0522739 C36.9579324,37.6802774 37.4278844,37.4942792 38,37.4942792 Z M6,51.3043478 C6,54.9782609 6,62.326087 6,66 C22,66 54,66 70,66 C70,62.326087 70,54.9782609 70,51.3043478 C54,51.3043478 22,51.3043478 6,51.3043478 Z" fill="#000000" fill-rule="nonzero"></path>
    </g>
</svg>