<?xml version="1.0" encoding="UTF-8"?>
<svg width="76px" height="76px" viewBox="0 0 76 76" version="1.1" xmlns="http://www.w3.org/2000/svg" xmlns:xlink="http://www.w3.org/1999/xlink">
    <!-- Generator: Sketch 48.1 (47250) - http://www.bohemiancoding.com/sketch -->
    <title>bug</title>
    <desc>Created with Sketch.</desc>
    <defs></defs>
    <g id="bug" stroke="none" stroke-width="1" fill="none" fill-rule="evenodd">
        <path d="M21.375,0 C23.15625,1.88020833 23.15625,1.88020833 28.5,7.52083333 C31.5347226,6.20138889 34.7013892,5.54166667 38,5.54166667 C41.2986108,5.54166667 44.4652774,6.20138889 47.5,7.52083333 C49.875,5.01388889 52.84375,1.88020833 54.625,0 C55.8125,1.1875 58.1875,3.5625 59.375,4.75 C57.7916667,6.234375 57.7916667,6.234375 53.0416667,10.6875 C57.7916667,14.2499997 61.3541667,19.1979162 63.7291667,25.5312495 C66.3020832,24.2777774 69.5182288,22.7109374 71.4479162,21.7708333 C72.1406247,23.15625 73.5260419,25.9270833 74.2187505,27.3125 C72.0416672,28.4010417 72.0416672,28.4010417 65.5104172,31.6666667 C66.1701391,34.8333333 66.5,37.7361111 66.5,40.375 C66.5,41.5624997 66.5,42.6180552 66.5,43.5416667 C69.6666667,43.5416667 73.625,43.5416667 76,43.5416667 C76,45.125 76,48.2916667 76,49.875 C73.328125,49.875 73.328125,49.875 65.3125,49.875 C64.5208333,53.5694444 63.4652778,56.6701391 62.1458333,59.1770838 C65.3125,61.5520838 69.2708333,64.5208338 71.6458333,66.3020838 C70.65625,67.5885419 68.6770833,70.1614581 67.6875,71.4479162 C65.4114583,69.7161455 65.4114583,69.7161455 58.5833333,64.5208333 C52.9097219,71.6458333 46.0486108,75.2083333 38,75.2083333 C29.9513892,75.2083333 23.0902781,71.6458333 17.4166667,64.5208333 C14.3819444,66.8298609 10.5885417,69.7161455 8.3125,71.4479162 C7.32291667,70.1614581 5.34375,67.5885419 4.35416667,66.3020838 C6.72916667,64.5208338 6.72916667,64.5208338 13.8541667,59.1770838 C12.5347222,56.6701391 11.4791667,53.5694444 10.6875,49.875 C7.125,49.875 2.671875,49.875 0,49.875 C0,48.2916667 0,45.125 0,43.5416667 C2.375,43.5416667 2.375,43.5416667 9.5,43.5416667 C9.5,42.6180552 9.5,41.5624997 9.5,40.375 C9.5,37.7361111 9.82986094,34.8333333 10.4895828,31.6666667 C7.58680505,30.2152778 3.95833283,28.4010417 1.78124949,27.3125 C2.47395808,25.9270833 3.85937525,23.15625 4.55208384,21.7708333 C6.48177121,22.7109374 6.48177121,22.7109374 12.2708333,25.5312495 C14.6458333,19.1979162 18.2083333,14.2499997 22.9583333,10.6875 C20.8472222,8.70833333 18.2083333,6.234375 16.625,4.75 C17.8125,3.5625 20.1875,1.1875 21.375,0 Z M38,11.524353 C31.5882002,11.524353 26.1114546,14.5966738 21.569763,20.7413152 C26.9129295,23.1457401 32.3896752,24.3479526 38,24.3479526 C43.6103248,24.3479526 49.0870705,23.1457401 54.430237,20.7413152 C49.8885454,14.5966738 44.4117998,11.524353 38,11.524353 Z M18.3638631,26.35164 C16.4937549,30.6261732 15.5587007,35.3014439 15.5587007,40.3774521 C15.5587007,47.7243063 17.428809,54.0693167 21.1690256,59.4124832 C24.9092421,64.7556497 29.4509336,67.8947598 34.7941001,68.8298136 C34.7941001,56.0730038 34.7941001,56.0730038 34.7941001,30.5593842 C29.0501958,30.1586463 23.5734501,28.756065 18.3638631,26.35164 Z M57.6361369,26.35164 C52.4265499,28.756065 46.9498042,30.1586463 41.2058999,30.5593842 C41.2058999,43.316194 41.2058999,43.316194 41.2058999,68.8298136 C46.5490664,67.8947598 51.0907579,64.7556497 54.8309744,59.4124832 C58.571191,54.0693167 60.4412993,47.7243063 60.4412993,40.3774521 C60.4412993,35.3014439 59.5062451,30.6261732 57.6361369,26.35164 Z" fill="#000000" fill-rule="nonzero"></path>
    </g>
</svg>