<?xml version="1.0" encoding="UTF-8"?>
<svg width="71px" height="76px" viewBox="0 0 71 76" version="1.1" xmlns="http://www.w3.org/2000/svg" xmlns:xlink="http://www.w3.org/1999/xlink">
    <!-- Generator: Sketch 48.1 (47250) - http://www.bohemiancoding.com/sketch -->
    <title>building</title>
    <desc>Created with Sketch.</desc>
    <defs></defs>
    <g id="building" stroke="none" stroke-width="1" fill="none" fill-rule="evenodd" transform="translate(-3.000000, 0.000000)">
        <path d="M3,0 L5.92307692,0 L70.2307692,0 L73.1538462,0 L73.1538462,76 L42,76 L42,64.3076923 L34,64.3076923 L34,76 L3,76 L3,0 Z M9,6 L9,70 L28.1,70 L28.1,58 L48,58 L48,70 L67,70 L67,6 L9,6 Z M14,12 C17.0013733,12 23.0041199,12 26.0054932,12 C26.0054932,13.2493134 26.0054932,15.7479401 26.0054932,16.9972534 C23.0041199,16.9972534 17.0013733,16.9972534 14,16.9972534 C14,15.7479401 14,13.2493134 14,12 Z M32,12 C35.0013733,12 41.0041199,12 44.0054932,12 C44.0054932,13.2493134 44.0054932,15.7479401 44.0054932,16.9972534 C41.0041199,16.9972534 35.0013733,16.9972534 32,16.9972534 C32,15.7479401 32,13.2493134 32,12 Z M50,12 C53.0013733,12 59.0041199,12 62.0054932,12 C62.0054932,13.2493134 62.0054932,15.7479401 62.0054932,16.9972534 C59.0041199,16.9972534 53.0013733,16.9972534 50,16.9972534 C50,15.7479401 50,13.2493134 50,12 Z M14,23 C17.0013733,23 23.0041199,23 26.0054932,23 C26.0054932,24.4615385 26.0054932,27.3846154 26.0054932,28.8461538 C23.0041199,28.8461538 17.0013733,28.8461538 14,28.8461538 C14,27.3846154 14,24.4615385 14,23 Z M32,23 C35.0013733,23 41.0041199,23 44.0054932,23 C44.0054932,24.4615385 44.0054932,27.3846154 44.0054932,28.8461538 C41.0041199,28.8461538 35.0013733,28.8461538 32,28.8461538 C32,27.3846154 32,24.4615385 32,23 Z M50,23 C53.0013733,23 59.0041199,23 62.0054932,23 C62.0054932,24.4615385 62.0054932,27.3846154 62.0054932,28.8461538 C59.0041199,28.8461538 53.0013733,28.8461538 50,28.8461538 C50,27.3846154 50,24.4615385 50,23 Z M14,35 C17.0013733,35 23.0041199,35 26.0054932,35 C26.0054932,36.4615385 26.0054932,39.3846154 26.0054932,40.8461538 C23.0041199,40.8461538 17.0013733,40.8461538 14,40.8461538 C14,39.3846154 14,36.4615385 14,35 Z M32,35 C35.0013733,35 41.0041199,35 44.0054932,35 C44.0054932,36.4615385 44.0054932,39.3846154 44.0054932,40.8461538 C41.0041199,40.8461538 35.0013733,40.8461538 32,40.8461538 C32,39.3846154 32,36.4615385 32,35 Z M50,35 C53.0013733,35 59.0041199,35 62.0054932,35 C62.0054932,36.4615385 62.0054932,39.3846154 62.0054932,40.8461538 C59.0041199,40.8461538 53.0013733,40.8461538 50,40.8461538 C50,39.3846154 50,36.4615385 50,35 Z M14,47 C17.0013733,47 23.0041199,47 26.0054932,47 C26.0054932,48.4615385 26.0054932,51.3846154 26.0054932,52.8461538 C23.0041199,52.8461538 17.0013733,52.8461538 14,52.8461538 C14,51.3846154 14,48.4615385 14,47 Z M32,47 L44.0054932,47 L44.0054932,52.8461538 L32,52.8461538 L32,47 Z M50,47 C53.0013733,47 59.0041199,47 62.0054932,47 C62.0054932,48.4615385 62.0054932,51.3846154 62.0054932,52.8461538 C59.0041199,52.8461538 53.0013733,52.8461538 50,52.8461538 C50,51.3846154 50,48.4615385 50,47 Z" fill="#000000" fill-rule="nonzero"></path>
    </g>
</svg>