<?xml version="1.0" encoding="UTF-8"?>
<svg width="76px" height="65px" viewBox="0 0 76 65" version="1.1" xmlns="http://www.w3.org/2000/svg" xmlns:xlink="http://www.w3.org/1999/xlink">
    <!-- Generator: Sketch 48.1 (47250) - http://www.bohemiancoding.com/sketch -->
    <title>bullhorn</title>
    <desc>Created with Sketch.</desc>
    <defs></defs>
    <g id="bullhorn---f0a1" stroke="none" stroke-width="1" fill="none" fill-rule="evenodd" transform="translate(0.000000, -6.000000)">
        <path d="M70.5714286,6 C70.5714286,7.35416667 70.5714286,10.0625 70.5714286,11.4166667 C70.5714286,16.2832032 70.5714286,16.2832032 70.5714286,30.8828129 C74.1904762,32.2369796 76,34.776042 76,38.5 C76,42.223958 74.1904762,44.7630204 70.5714286,46.1171871 C70.5714286,52.6059025 70.5714286,60.7167968 70.5714286,65.5833333 C70.5714286,66.9375 70.5714286,69.6458333 70.5714286,71 C69.46875,70.1959634 69.46875,70.1959634 66.1607143,67.7838537 C62.5416667,65.1883679 58.1309524,62.5364583 52.9285714,59.828125 C42.6369045,54.6371528 33.8154759,52.0416667 26.4642857,52.0416667 C23.4107143,52.0416667 19.59375,52.0416667 17.3035714,52.0416667 C18.40625,55.9348958 20.6116071,63.7213542 21.7142857,67.6145833 C21.9263392,68.4609375 22.3504461,70.1536458 22.5624996,71 C21.6718747,71 19.8906249,71 19,71 C16.2857143,71 10.8571429,71 8.14285714,71 C7.63392857,71 6.61607143,71 6.10714286,71 C5.9375,70.4921875 5.59821429,69.4765625 5.42857143,68.96875 C4.07142857,64.2291667 1.35714286,54.75 0,50.0104167 C0,49.9257812 0,49.7565104 0,49.671875 C0,49.5872396 0,49.4179688 0,49.3333333 C0,43.9166667 0,33.0833333 0,27.6666667 C0,26.9895833 0,25.6354167 0,24.9583333 C0.678571429,24.9583333 2.03571429,24.9583333 2.71428571,24.9583333 C8.65178571,24.9583333 8.65178571,24.9583333 26.4642857,24.9583333 C34.041667,24.9583333 42.919643,22.3628472 53.0982139,17.171875 C55.3601186,16.0434028 57.5937496,14.8020833 59.7991069,13.4479167 C62.0044642,12.09375 63.6160713,11.078125 64.6339281,10.4010417 C65.1428569,10.0060765 65.7790177,9.51237012 66.1607143,9.21614627 C67.2633929,8.4121097 69.46875,6.80403657 70.5714286,6 Z M65.1428571,16.15625 C61.75,18.4131944 58.5833333,20.3315972 55.6428571,21.9114583 C44.8988092,27.4409725 35.3988092,30.2621531 27.1428571,30.375 C27.1428571,35.7916667 27.1428571,35.7916667 27.1428571,46.625 C35.3988092,46.7378469 44.8422618,49.5590275 55.4732147,55.0885417 C58.5267859,56.5555558 61.75,58.4739586 65.1428571,60.84375 C65.1428571,56.1041667 65.1428571,50.1796875 65.1428571,46.625 C65.1428571,45.9479167 65.1428571,44.59375 65.1428571,43.9166667 C65.1428571,41.2083333 65.1428571,35.7916667 65.1428571,33.0833333 C65.1428571,32.40625 65.1428571,31.0520833 65.1428571,30.375 C65.1428571,26.8203125 65.1428571,26.8203125 65.1428571,16.15625 Z M6,30.375 C6,34.4375 6,42.5625 6,46.625 C9.92857143,46.625 17.7857143,46.625 21.7142857,46.625 C21.7142857,42.5625 21.7142857,34.4375 21.7142857,30.375 C17.7857143,30.375 9.92857143,30.375 6,30.375 Z M6.44642857,52.0416667 C7.37946429,55.4270833 9.24553571,62.1979167 10.1785714,65.5833333 C11.4508929,65.5833333 13.9955357,65.5833333 15.2678571,65.5833333 C14.3348214,62.1979167 12.46875,55.4270833 11.5357143,52.0416667 C10.2633929,52.0416667 7.71875,52.0416667 6.44642857,52.0416667 Z" id="bullhorn" fill="#000000" fill-rule="nonzero"></path>
    </g>
</svg>