<?xml version="1.0" encoding="UTF-8"?>
<svg width="76px" height="76px" viewBox="0 0 76 76" version="1.1" xmlns="http://www.w3.org/2000/svg" xmlns:xlink="http://www.w3.org/1999/xlink">
    <!-- Generator: Sketch 48.1 (47250) - http://www.bohemiancoding.com/sketch -->
    <title>bullseye</title>
    <desc>Created with Sketch.</desc>
    <defs></defs>
    <g id="bullseye---f140" stroke="none" stroke-width="1" fill="none" fill-rule="evenodd">
        <path d="M38,0 C48.474359,0 57.4262821,3.71474359 64.8557692,11.1442308 C72.2852564,18.5737179 76,27.525641 76,38 C76,48.474359 72.2852564,57.4262821 64.8557692,64.8557692 C57.4262821,72.2852564 48.474359,76 38,76 C27.525641,76 18.5737179,72.2852564 11.1442308,64.8557692 C3.71474359,57.4262821 0,48.474359 0,38 C0,27.525641 3.71474359,18.5737179 11.1442308,11.1442308 C18.5737179,3.71474359 27.525641,0 38,0 Z M38,2.92307692 C28.2564103,2.92307692 19.974359,6.33333333 13.1538462,13.1538462 C6.33333333,19.974359 2.92307692,28.2564103 2.92307692,38 C2.92307692,47.7435897 6.33333333,56.025641 13.1538462,62.8461538 C19.974359,69.6666667 28.2564103,73.0769231 38,73.0769231 C47.7435897,73.0769231 56.025641,69.6666667 62.8461538,62.8461538 C69.6666667,56.025641 73.0769231,47.7435897 73.0769231,38 C73.0769231,28.2564103 69.6666667,19.974359 62.8461538,13.1538462 C56.025641,6.33333333 47.7435897,2.92307692 38,2.92307692 Z M38,8.76923077 C46.0384615,8.76923077 52.9198718,11.6314103 58.6442308,17.3557692 C64.3685897,23.0801282 67.2307692,29.9615385 67.2307692,38 C67.2307692,46.0384615 64.3685897,52.9198718 58.6442308,58.6442308 C52.9198718,64.3685897 46.0384615,67.2307692 38,67.2307692 C29.9615385,67.2307692 23.0801282,64.3685897 17.3557692,58.6442308 C11.6314103,52.9198718 8.76923077,46.0384615 8.76923077,38 C8.76923077,29.9615385 11.6314103,23.0801282 17.3557692,17.3557692 C23.0801282,11.6314103 29.9615385,8.76923077 38,8.76923077 Z M38,14.6153846 C31.5448721,14.6153846 26.0336542,16.8990385 21.4663464,21.4663464 C16.8990385,26.0336542 14.6153846,31.5448721 14.6153846,38 C14.6153846,44.4551279 16.8990385,49.9663458 21.4663464,54.5336536 C26.0336542,59.1009615 31.5448721,61.3846154 38,61.3846154 C44.4551279,61.3846154 49.9663458,59.1009615 54.5336536,54.5336536 C59.1009615,49.9663458 61.3846154,44.4551279 61.3846154,38 C61.3846154,31.5448721 59.1009615,26.0336542 54.5336536,21.4663464 C49.9663458,16.8990385 44.4551279,14.6153846 38,14.6153846 Z M38,20.4615385 C42.8717949,20.4615385 47.0128205,22.1666667 50.4230769,25.5769231 C53.8333333,28.9871795 55.5384615,33.1282051 55.5384615,38 C55.5384615,42.8717949 53.8333333,47.0128205 50.4230769,50.4230769 C47.0128205,53.8333333 42.8717949,55.5384615 38,55.5384615 C33.1282051,55.5384615 28.9871795,53.8333333 25.5769231,50.4230769 C22.1666667,47.0128205 20.4615385,42.8717949 20.4615385,38 C20.4615385,33.1282051 22.1666667,28.9871795 25.5769231,25.5769231 C28.9871795,22.1666667 33.1282051,20.4615385 38,20.4615385 Z M38,26.3076923 C34.7115381,26.3076923 31.9407047,27.4342948 29.6874998,29.6874998 C27.4342948,31.9407047 26.3076923,34.7115381 26.3076923,38 C26.3076923,41.2884619 27.4342948,44.0592953 29.6874998,46.3125002 C31.9407047,48.5657052 34.7115381,49.6923077 38,49.6923077 C41.2884619,49.6923077 44.0592953,48.5657052 46.3125002,46.3125002 C48.5657052,44.0592953 49.6923077,41.2884619 49.6923077,38 C49.6923077,34.7115381 48.5657052,31.9407047 46.3125002,29.6874998 C44.0592953,27.4342948 41.2884619,26.3076923 38,26.3076923 Z M38,32.1538462 C39.583333,32.1538462 40.9535253,32.7323719 42.1105767,33.8894233 C43.2676281,35.0464747 43.8461538,36.416667 43.8461538,38 C43.8461538,39.583333 43.2676281,40.9535253 42.1105767,42.1105767 C40.9535253,43.2676281 39.583333,43.8461538 38,43.8461538 C36.416667,43.8461538 35.0464747,43.2676281 33.8894233,42.1105767 C32.7323719,40.9535253 32.1538462,39.583333 32.1538462,38 C32.1538462,36.416667 32.7323719,35.0464747 33.8894233,33.8894233 C35.0464747,32.7323719 36.416667,32.1538462 38,32.1538462 Z" id="bullseye" fill="#000000" fill-rule="nonzero"></path>
    </g>
</svg>