<?xml version="1.0" encoding="UTF-8"?>
<svg width="76px" height="71px" viewBox="0 0 76 71" version="1.1" xmlns="http://www.w3.org/2000/svg" xmlns:xlink="http://www.w3.org/1999/xlink">
    <!-- Generator: Sketch 48.1 (47250) - http://www.bohemiancoding.com/sketch -->
    <title>bus</title>
    <desc>Created with Sketch.</desc>
    <defs></defs>
    <g id="bus" stroke="none" stroke-width="1" fill="none" fill-rule="evenodd" transform="translate(0.000000, -3.000000)">
        <path d="M17.6923077,3 C27.9230769,3 27.6153846,3 58.3076923,3 C61.474359,3 64.2147436,4.15451389 66.5288462,6.46354167 C68.8429487,8.77256944 70,11.5069444 70,14.6666667 C70,17.9074074 70,22.7407407 70,29.1666667 L76,29.1666667 L76,38.1666667 L70,38.1666667 C70,52.6388889 70,62.3055556 70,67.1666667 C70,67.8958333 70,67.8958333 70,70.0833333 C70,72.1666667 69,73.1666667 67,73.1666667 C65.0512821,73.1666667 62.2051282,73.1666667 58.4615385,73.1666667 L57.3653846,70.25 L18.6346154,70.25 L17.5384615,73.1666667 C16.2307692,73.1666667 13.3846154,73.1666667 9,73.1666667 C7.02429199,73.1666667 6,72.1976725 6,70.0833333 C6,67.9689941 6,67.8958333 6,67.1666667 C6,62.3055556 6,52.6388889 6,38.1666667 L0,38.1666667 L0,29.1666667 L6,29.1666667 C6,26.7916667 6,21.9583333 6,14.6666667 C6,11.5069444 7.15705128,8.77256944 9.47115385,6.46354167 C11.7852564,4.15451389 14.525641,3 17.6923077,3 Z M17.5384615,9.16666667 C15.9551285,9.16666667 14.5849363,9.72743063 13.4278848,10.8489586 C12.2708334,11.9704865 11.6923077,13.2986114 11.6923077,14.8333333 C29.2307692,14.8333333 29.2307692,14.8333333 64.3076923,14.8333333 C64.3076923,13.2986114 63.7291666,11.9704865 62.5721152,10.8489586 C61.4150637,9.72743063 60.0448715,9.16666667 58.4615385,9.16666667 C44.8205128,9.16666667 44.8205128,9.16666667 17.5384615,9.16666667 Z M11.6923077,20.6666667 C11.6923077,25.7708333 11.6923077,35.9791667 11.6923077,41.0833333 C17.5384615,41.0833333 29.2307692,41.0833333 35.0769231,41.0833333 C35.0769231,35.9791667 35.0769231,25.7708333 35.0769231,20.6666667 C29.2307692,20.6666667 17.5384615,20.6666667 11.6923077,20.6666667 Z M40.9230769,20.6666667 C40.9230769,25.7708333 40.9230769,35.9791667 40.9230769,41.0833333 C46.7692308,41.0833333 58.4615385,41.0833333 64.3076923,41.0833333 C64.3076923,35.9791667 64.3076923,25.7708333 64.3076923,20.6666667 C58.4615385,20.6666667 46.7692308,20.6666667 40.9230769,20.6666667 Z M11.6923077,46.9166667 C11.6923077,51.2291667 11.6923077,59.8541667 11.6923077,64.1666667 C13.8846154,64.1666667 18.2692308,64.1666667 20.4615385,64.1666667 C31.4230769,64.1666667 53.3461538,64.1666667 64.3076923,64.1666667 C64.3076923,59.8541667 64.3076923,51.2291667 64.3076923,46.9166667 C51.1538462,46.9166667 24.8461538,46.9166667 11.6923077,46.9166667 Z M14.6153846,52.75 C17.5384615,52.75 23.3846154,52.75 26.3076923,52.75 C26.3076923,54.2083333 26.3076923,57.125 26.3076923,58.5833333 C23.3846154,58.5833333 17.5384615,58.5833333 14.6153846,58.5833333 C14.6153846,57.125 14.6153846,54.2083333 14.6153846,52.75 Z M49.6923077,52.75 C52.6153846,52.75 58.4615385,52.75 61.3846154,52.75 C61.3846154,54.2083333 61.3846154,57.125 61.3846154,58.5833333 C58.4615385,58.5833333 52.6153846,58.5833333 49.6923077,58.5833333 C49.6923077,57.125 49.6923077,54.2083333 49.6923077,52.75 Z" fill="#000000" fill-rule="nonzero"></path>
    </g>
</svg>