<?xml version="1.0" encoding="UTF-8"?>
<svg width="62px" height="76px" viewBox="0 0 62 76" version="1.1" xmlns="http://www.w3.org/2000/svg" xmlns:xlink="http://www.w3.org/1999/xlink">
    <!-- Generator: Sketch 48.1 (47250) - http://www.bohemiancoding.com/sketch -->
    <title>calculator</title>
    <desc>Created with Sketch.</desc>
    <defs></defs>
    <g id="calculator" stroke="none" stroke-width="1" fill="none" fill-rule="evenodd" transform="translate(-7.000000, 0.000000)">
        <path d="M7,0 C7.775,0 9.325,0 10.1,0 C24.05,0 51.95,0 65.9,0 C66.675,0 68.225,0 69,0 C69,0.730769231 69,2.19230769 69,2.92307692 C69,20.4615385 69,55.5384615 69,73.0769231 C69,73.8076923 69,75.2692308 69,76 C68.225,76 66.675,76 65.9,76 C51.95,76 24.05,76 10.1,76 C9.325,76 7.775,76 7,76 C7,75.2692308 7,73.8076923 7,73.0769231 C7,55.5384615 7,20.4615385 7,2.92307692 C7,2.19230769 7,0.730769231 7,0 Z M13,6 C13,22 13,54 13,70 C25.5,70 50.5,70 63,70 C63,54 63,22 63,6 C50.5,6 25.5,6 13,6 Z M20,11 C20.7708333,11 22.3125,11 23.0833333,11 C30.7916667,11 46.2083333,11 53.9166667,11 C54.6875,11 56.2291667,11 57,11 C57,11.75 57,13.25 57,14 C57,17 57,23 57,26 C57,26.75 57,28.25 57,29 C56.2291667,29 54.6875,29 53.9166667,29 C46.2083333,29 30.7916667,29 23.0833333,29 C22.3125,29 20.7708333,29 20,29 C20,28.25 20,26.75 20,26 C20,23 20,17 20,14 C20,13.25 20,11.75 20,11 Z M26,17 C26,18.5 26,21.5 26,23 C32.25,23 44.75,23 51,23 C51,21.5 51,18.5 51,17 C44.75,17 32.25,17 26,17 Z M22.625,34.5 C24.1875,34.5 27.3125,34.5 28.875,34.5 C28.875,36.0625 28.875,39.1875 28.875,40.75 C27.3125,40.75 24.1875,40.75 22.625,40.75 C22.625,39.1875 22.625,36.0625 22.625,34.5 Z M35.125,34.5 C36.6875,34.5 39.8125,34.5 41.375,34.5 C41.375,36.0625 41.375,39.1875 41.375,40.75 C39.8125,40.75 36.6875,40.75 35.125,40.75 C35.125,39.1875 35.125,36.0625 35.125,34.5 Z M47.625,34.5 C49.1875,34.5 52.3125,34.5 53.875,34.5 C53.875,36.0625 53.875,39.1875 53.875,40.75 C52.3125,40.75 49.1875,40.75 47.625,40.75 C47.625,39.1875 47.625,36.0625 47.625,34.5 Z M22.625,47 C24.1875,47 27.3125,47 28.875,47 C28.875,48.5625 28.875,51.6875 28.875,53.25 C27.3125,53.25 24.1875,53.25 22.625,53.25 C22.625,51.6875 22.625,48.5625 22.625,47 Z M35.125,47 C36.6875,47 39.8125,47 41.375,47 C41.375,48.5625 41.375,51.6875 41.375,53.25 C39.8125,53.25 36.6875,53.25 35.125,53.25 C35.125,51.6875 35.125,48.5625 35.125,47 Z M47.625,47 C49.1875,47 52.3125,47 53.875,47 C53.875,48.5625 53.875,51.6875 53.875,53.25 C52.3125,53.25 49.1875,53.25 47.625,53.25 C47.625,51.6875 47.625,48.5625 47.625,47 Z M22.625,59.5 C24.1875,59.5 27.3125,59.5 28.875,59.5 C28.875,61.0625 28.875,64.1875 28.875,65.75 C27.3125,65.75 24.1875,65.75 22.625,65.75 C22.625,64.1875 22.625,61.0625 22.625,59.5 Z M35.125,59.5 C36.6875,59.5 39.8125,59.5 41.375,59.5 C41.375,61.0625 41.375,64.1875 41.375,65.75 C39.8125,65.75 36.6875,65.75 35.125,65.75 C35.125,64.1875 35.125,61.0625 35.125,59.5 Z M47.625,59.5 C49.1875,59.5 52.3125,59.5 53.875,59.5 C53.875,61.0625 53.875,64.1875 53.875,65.75 C52.3125,65.75 49.1875,65.75 47.625,65.75 C47.625,64.1875 47.625,61.0625 47.625,59.5 Z" fill="#000000" fill-rule="nonzero"></path>
    </g>
</svg>