<?xml version="1.0" encoding="UTF-8"?>
<svg width="76px" height="76px" viewBox="0 0 76 76" version="1.1" xmlns="http://www.w3.org/2000/svg" xmlns:xlink="http://www.w3.org/1999/xlink">
    <!-- Generator: Sketch 48.1 (47250) - http://www.bohemiancoding.com/sketch -->
    <title>calendar</title>
    <desc>Created with Sketch.</desc>
    <defs></defs>
    <g id="calendar" stroke="none" stroke-width="1" fill="none" fill-rule="evenodd">
        <path d="M14,0 L20,0 L20,4 L56,4 L56,0 L62,0 L62,4 L76,4 L76,76 L0,76 L0,4 L14,4 L14,0 Z M6,10 C6,15 6,18.3333333 6,20 C21,20 55,20 70,20 C70,17.5 70,12.5 70,10 C68.8888889,10 66.2222222,10 62,10 L62,14 L56,14 L56,10 L20,10 L20,14 L14,14 L14,10 L6,10 Z M6,24 L6,70 L70,70 L70,24 L6,24 Z M29,31 C30.75,31 34.25,31 36,31 C36,32.75 36,36.25 36,38 C34.25,38 30.75,38 29,38 C29,36.25 29,32.75 29,31 Z M42,31 C43.75,31 47.25,31 49,31 C49,32.75 49,36.25 49,38 C47.25,38 43.75,38 42,38 C42,36.25 42,32.75 42,31 Z M55,31 C56.75,31 60.25,31 62,31 C62,32.75 62,36.25 62,38 C60.25,38 56.75,38 55,38 C55,36.25 55,32.75 55,31 Z M15,44 C16.75,44 20.25,44 22,44 C22,45.75 22,49.25 22,51 C20.25,51 16.75,51 15,51 C15,49.25 15,45.75 15,44 Z M29,44 C30.75,44 34.25,44 36,44 C36,45.75 36,49.25 36,51 C34.25,51 30.75,51 29,51 C29,49.25 29,45.75 29,44 Z M42,44 C43.75,44 47.25,44 49,44 C49,45.75 49,49.25 49,51 C47.25,51 43.75,51 42,51 C42,49.25 42,45.75 42,44 Z M55,44 C56.75,44 60.25,44 62,44 C62,45.75 62,49.25 62,51 C60.25,51 56.75,51 55,51 C55,49.25 55,45.75 55,44 Z M15,57 C16.75,57 20.25,57 22,57 C22,58.75 22,62.25 22,64 C20.25,64 16.75,64 15,64 C15,62.25 15,58.75 15,57 Z M29,57 C30.75,57 34.25,57 36,57 C36,58.75 36,62.25 36,64 C34.25,64 30.75,64 29,64 C29,62.25 29,58.75 29,57 Z M42,57 C43.75,57 47.25,57 49,57 C49,58.75 49,62.25 49,64 C47.25,64 43.75,64 42,64 C42,62.25 42,58.75 42,57 Z" fill="#000000" fill-rule="nonzero"></path>
    </g>
</svg>