<?xml version="1.0" encoding="UTF-8"?>
<svg width="76px" height="58px" viewBox="0 0 76 58" version="1.1" xmlns="http://www.w3.org/2000/svg" xmlns:xlink="http://www.w3.org/1999/xlink">
    <!-- Generator: Sketch 48.1 (47250) - http://www.bohemiancoding.com/sketch -->
    <title>camera-retro</title>
    <desc>Created with Sketch.</desc>
    <defs></defs>
    <g id="camera-retro" stroke="none" stroke-width="1" fill="none" fill-rule="evenodd" transform="translate(0.000000, -9.000000)">
        <path d="M24.8461538,9 C25.2115385,9 25.9423077,9 26.3076923,9 C32.1538462,9 43.8461538,9 49.6923077,9 C50.0576923,9 50.7884615,9 51.1538462,9 C51.3822114,9.271875 51.838942,9.815625 52.0673072,10.0875 C52.9350958,11.265625 54.670673,13.621875 55.5384615,14.8 C59.9230769,14.8 68.6923077,14.8 73.0769231,14.8 C73.8076923,14.8 75.2692308,14.8 76,14.8 C76,15.525 76,16.975 76,17.7 C76,29.3 76,52.5 76,64.1 C76,64.825 76,66.275 76,67 C75.2692308,67 73.8076923,67 73.0769231,67 C55.5384615,67 20.4615385,67 2.92307692,67 C2.19230769,67 0.730769231,67 0,67 C0,66.275 0,64.825 0,64.1 C0,52.5 0,29.3 0,17.7 C0,16.975 0,15.525 0,14.8 C0.730769231,14.8 2.19230769,14.8 2.92307692,14.8 C3.65384615,14.8 5.11538462,14.8 5.84615385,14.8 C5.84615385,14.075 5.84615385,12.625 5.84615385,11.9 C8.76923077,11.9 14.6153846,11.9 17.5384615,11.9 C17.5384615,12.625 17.5384615,14.075 17.5384615,14.8 C18.2692308,14.8 19.7307692,14.8 20.4615385,14.8 C21.329327,13.621875 23.0649042,11.265625 23.9326928,10.0875 C24.161058,9.815625 24.6177886,9.271875 24.8461538,9 Z M27.8181818,15 C26.9545453,16.1510417 25.2272724,18.453125 24.3636359,19.6041667 C24.1363633,19.8697917 23.6818181,20.4010417 23.4545455,20.6666667 C23.0909091,20.6666667 22.3636364,20.6666667 22,20.6666667 C18,20.6666667 10,20.6666667 6,20.6666667 C6,23.5 6,29.1666667 6,32 C10.2272726,32 10.2272726,32 22.9090904,32 C26.3030298,26.3333333 31.333333,23.5 38,23.5 C44.666667,23.5 49.6969702,26.3333333 53.0909096,32 C58.727273,32 65.7727274,32 70,32 C70,29.1666667 70,23.5 70,20.6666667 C66,20.6666667 58,20.6666667 54,20.6666667 C53.6363636,20.6666667 52.9090909,20.6666667 52.5454545,20.6666667 C52.3181819,20.4010417 51.8636367,19.8697917 51.6363641,19.6041667 C50.7727276,18.453125 49.0454547,16.1510417 48.1818182,15 C43.0909091,15 32.9090909,15 27.8181818,15 Z M58,24 C59.5,24 62.5,24 64,24 C64,25.5 64,28.5 64,30 C62.5,30 59.5,30 58,30 C58,28.5 58,25.5 58,24 Z M38,29 C34.6249997,29 31.7812496,30.1562499 29.4687498,32.4687498 C27.1562499,34.7812496 26,37.6249997 26,41 C26,44.3750003 27.1562499,47.2187504 29.4687498,49.5312502 C31.7812496,51.8437501 34.6249997,53 38,53 C41.3750003,53 44.2187504,51.8437501 46.5312502,49.5312502 C48.8437501,47.2187504 50,44.3750003 50,41 C50,37.6249997 48.8437501,34.7812496 46.5312502,32.4687498 C44.2187504,30.1562499 41.3750003,29 38,29 Z M6,38 C6,43.75 6,55.25 6,61 C22,61 54,61 70,61 C70,55.25 70,43.75 70,38 C66.2727273,38 66.2727273,38 55.0909091,38 C57,44 53,58.125 38,58.125 C23,58.125 19,44 20.9090909,38 C15.9393939,38 9.72727273,38 6,38 Z" fill="#000000" fill-rule="nonzero"></path>
    </g>
</svg>