<?xml version="1.0" encoding="UTF-8"?>
<svg width="76px" height="59px" viewBox="0 0 76 59" version="1.1" xmlns="http://www.w3.org/2000/svg" xmlns:xlink="http://www.w3.org/1999/xlink">
    <!-- Generator: Sketch 48.1 (47250) - http://www.bohemiancoding.com/sketch -->
    <title>camera</title>
    <desc>Created with Sketch.</desc>
    <defs></defs>
    <g id="camera---f030" stroke="none" stroke-width="1" fill="none" fill-rule="evenodd" transform="translate(0.000000, -9.000000)">
        <path d="M24.8461538,9 C25.2115385,9 25.9423077,9 26.3076923,9 C32.1538462,9 43.8461538,9 49.6923077,9 C50.0576923,9 50.7884615,9 51.1538462,9 C51.3822114,9.2765625 51.838942,9.8296875 52.0673072,10.10625 C52.9350958,11.3046875 54.670673,13.7015625 55.5384615,14.9 C59.9230769,14.9 68.6923077,14.9 73.0769231,14.9 C73.8076923,14.9 75.2692308,14.9 76,14.9 C76,15.6375 76,17.1125 76,17.85 C76,29.65 76,53.25 76,65.05 C76,65.7875 76,67.2625 76,68 C75.2692308,68 73.8076923,68 73.0769231,68 C55.5384615,68 20.4615385,68 2.92307692,68 C2.19230769,68 0.730769231,68 0,68 C0,67.2625 0,65.7875 0,65.05 C0,53.25 0,29.65 0,17.85 C0,17.1125 0,15.6375 0,14.9 C0.730769231,14.9 2.19230769,14.9 2.92307692,14.9 C7.30769231,14.9 16.0769231,14.9 20.4615385,14.9 C21.329327,13.7015625 23.0649042,11.3046875 23.9326928,10.10625 C24.161058,9.8296875 24.6177886,9.2765625 24.8461538,9 Z M27.8181818,15 C26.9545453,16.1933594 25.2272724,18.5800781 24.3636359,19.7734375 C24.1363633,20.0488281 23.6818181,20.5996094 23.4545455,20.875 C23.0909091,20.875 22.3636364,20.875 22,20.875 C18,20.875 10,20.875 6,20.875 C6,31.15625 6,51.71875 6,62 C22,62 54,62 70,62 C70,51.71875 70,31.15625 70,20.875 C66,20.875 58,20.875 54,20.875 C53.6363636,20.875 52.9090909,20.875 52.5454545,20.875 C52.3181819,20.5996094 51.8636367,20.0488281 51.6363641,19.7734375 C50.7727276,18.5800781 49.0454547,16.1933594 48.1818182,15 C43.0909091,15 32.9090909,15 27.8181818,15 Z M14.6153846,23.6329365 C15.467949,23.6329365 16.1682696,23.907304 16.7163464,24.456039 C17.2644232,25.0047739 17.5384615,25.7059355 17.5384615,26.5595238 C17.5384615,27.4131121 17.2644232,28.1142737 16.7163464,28.6630087 C16.1682696,29.2117436 15.467949,29.4861111 14.6153846,29.4861111 C13.7628202,29.4861111 13.0624996,29.2117436 12.5144228,28.6630087 C11.9663461,28.1142737 11.6923077,27.4131121 11.6923077,26.5595238 C11.6923077,25.7059355 11.9663461,25.0047739 12.5144228,24.456039 C13.0624996,23.907304 13.7628202,23.6329365 14.6153846,23.6329365 Z M38,23.6329365 C42.8717949,23.6329365 47.0128205,25.3401124 50.4230769,28.7544643 C53.8333333,32.1688161 55.5384615,36.3148148 55.5384615,41.1924603 C55.5384615,46.0701058 53.8333333,50.2161045 50.4230769,53.6304563 C47.0128205,57.0448082 42.8717949,58.7519841 38,58.7519841 C33.1282051,58.7519841 28.9871795,57.0448082 25.5769231,53.6304563 C22.1666667,50.2161045 20.4615385,46.0701058 20.4615385,41.1924603 C20.4615385,36.3148148 22.1666667,32.1688161 25.5769231,28.7544643 C28.9871795,25.3401124 33.1282051,23.6329365 38,23.6329365 Z M38,29.4861111 C34.7115381,29.4861111 31.9407047,30.6140666 29.6874998,32.8699774 C27.4342948,35.1258883 26.3076923,37.9000493 26.3076923,41.1924603 C26.3076923,44.4848713 27.4342948,47.2590323 29.6874998,49.5149432 C31.9407047,51.7708541 34.7115381,52.8988095 38,52.8988095 C41.2884619,52.8988095 44.0592953,51.7708541 46.3125002,49.5149432 C48.5657052,47.2590323 49.6923077,44.4848713 49.6923077,41.1924603 C49.6923077,37.9000493 48.5657052,35.1258883 46.3125002,32.8699774 C44.0592953,30.6140666 41.2884619,29.4861111 38,29.4861111 Z" id="camera" fill="#000000" fill-rule="nonzero"></path>
    </g>
</svg>