<?xml version="1.0" encoding="UTF-8"?>
<svg width="76px" height="67px" viewBox="0 0 76 67" version="1.1" xmlns="http://www.w3.org/2000/svg" xmlns:xlink="http://www.w3.org/1999/xlink">
    <!-- Generator: Sketch 48.1 (47250) - http://www.bohemiancoding.com/sketch -->
    <title>cart-arrow-down</title>
    <desc>Created with Sketch.</desc>
    <defs></defs>
    <g id="cart-arrow-down---f218" stroke="none" stroke-width="1" fill="none" fill-rule="evenodd">
        <path d="M35,61.9852732 C34.7636381,64.7821264 32.1676461,66.9852732 29,66.9852732 C25.8323539,66.9852732 23.2363619,64.7821264 23,61.9852732 L20,61.9852732 L10.0135458,18.9920461 L0,13.9852732 L0,8 L14.2075274,15.1037637 L15.3000002,15.1976407 L23.5574504,49.1025945 L62.6946565,40.7959678 L70.2799988,19.463026 L76,19.9337294 L67,45.8674589 L24.950036,54.7923001 L25.2071794,55.8429142 L62,55.8429142 L60,61.9852732 L57,61.9852732 C56.7636381,64.7821264 54.1676461,66.9852732 51,66.9852732 C47.8323539,66.9852732 45.2363619,64.7821264 45,61.9852732 L35,61.9852732 Z M31.2681408,61.9852732 L26.7318592,61.9852732 C26.9463013,62.9362067 27.8802944,63.6519399 29,63.6519399 C30.1197056,63.6519399 31.0536987,62.9362067 31.2681408,61.9852732 Z M48.7318592,61.9852732 C48.9463013,62.9362067 49.8802944,63.6519399 51,63.6519399 C52.1197056,63.6519399 53.0536987,62.9362067 53.2681408,61.9852732 L48.7318592,61.9852732 Z M39.09375,0 L45.34375,0 L45.34375,29.757812 L56.75,18.15625 L61.4375,22.84375 L42.21875,41.671875 L23,22.84375 L27.6875,18.15625 L39.09375,29.757812 L39.09375,0 Z" id="cart-arrow-down" fill="#000000"></path>
    </g>
</svg>