<?xml version="1.0" encoding="UTF-8"?>
<svg width="76px" height="52px" viewBox="0 0 76 52" version="1.1" xmlns="http://www.w3.org/2000/svg" xmlns:xlink="http://www.w3.org/1999/xlink">
    <!-- Generator: Sketch 48.1 (47250) - http://www.bohemiancoding.com/sketch -->
    <title>cc-amex</title>
    <desc>Created with Sketch.</desc>
    <defs></defs>
    <g id="cc-amex---f1f3" stroke="none" stroke-width="1" fill="none" fill-rule="evenodd" transform="translate(0.000000, -12.000000)">
        <path d="M5,12 L71,12 C73.7614237,12 76,14.2385763 76,17 L76,59 C76,61.7614237 73.7614237,64 71,64 L5,64 C2.23857625,64 3.38176876e-16,61.7614237 0,59 L0,17 C-3.38176876e-16,14.2385763 2.23857625,12 5,12 Z M6,56 C6,57.1045695 6.8954305,58 8,58 L68,58 C69.1045695,58 70,57.1045695 70,56 L70,20 C70,18.8954305 69.1045695,18 68,18 L8,18 C6.8954305,18 6,18.8954305 6,20 L6,56 Z M15.1705182,32 L19.4730137,32 L24.363574,43.0642179 L24.363574,32 L29.0767937,32 L32.8541765,39.93299 L36.3354796,32 L41.0251562,32 L41.0251562,43.7080696 L38.1715829,43.7080696 L38.1482957,34.5336946 L33.9880822,43.7080696 L31.4354508,43.7080696 L27.2519501,34.5336946 L27.2519501,43.7080696 L21.3815375,43.7080696 L20.2686158,41.0832735 L14.2559212,41.0832735 L13.1453026,43.7057665 L10,43.7057665 C10,43.7057665 15.1705182,32 15.1705182,32 Z M43.6358776,32 L55.239027,32 L58.7878885,35.8334255 L62.4511385,32 L66,32 L60.6078699,37.8844873 L66,43.7011602 L62.2901756,43.7011602 L58.7413142,39.8232077 L55.0593832,43.7011602 L43.6358776,43.7011602 L43.6358776,32 Z M17.263548,33.9809444 L15.2826036,38.6568022 L19.2421892,38.6568022 L17.263548,33.9809444 Z M46.5012224,34.4241682 L46.5012224,36.5614692 L52.8312366,36.5614692 L52.8312366,38.9436694 L46.5012224,38.9436694 L46.5012224,41.276992 L53.6012484,41.276992 L56.9003487,37.8402161 L53.7412273,34.422121 L46.5012224,34.422121 L46.5012224,34.4241682 Z" id="cc-amex" fill="#000000"></path>
    </g>
</svg>