<?xml version="1.0" encoding="UTF-8"?>
<svg width="76px" height="52px" viewBox="0 0 76 52" version="1.1" xmlns="http://www.w3.org/2000/svg" xmlns:xlink="http://www.w3.org/1999/xlink">
    <!-- Generator: Sketch 48.1 (47250) - http://www.bohemiancoding.com/sketch -->
    <title>cc-diners-club</title>
    <desc>Created with Sketch.</desc>
    <defs></defs>
    <g id="cc-diners-club---f24c" stroke="none" stroke-width="1" fill="none" fill-rule="evenodd" transform="translate(0.000000, -12.000000)">
        <path d="M5,12 L71,12 C73.7614237,12 76,14.2385763 76,17 L76,59 C76,61.7614237 73.7614237,64 71,64 L5,64 C2.23857625,64 3.38176876e-16,61.7614237 0,59 L0,17 C-3.38176876e-16,14.2385763 2.23857625,12 5,12 Z M6,56 C6,57.1045695 6.8954305,58 8,58 L68,58 C69.1045695,58 70,57.1045695 70,56 L70,20 C70,18.8954305 69.1045695,18 68,18 L8,18 C6.8954305,18 6,18.8954305 6,20 L6,56 Z M35.4285714,22 C36.7142857,22 39.2857143,22 40.5714286,22 C44.8571429,22 48.5,23.5069444 51.5,26.5208333 C54.5,29.5347222 56,33.1944444 56,37.5 C56,41.8055556 54.5,45.4652778 51.5,48.4791667 C48.5,51.4930556 44.8571429,53 40.5714286,53 C38.8571429,53 36.7142857,53 35.4285714,53 C31.1428571,53 27.5,51.4930556 24.5,48.4791667 C21.5,45.4652778 20,41.8055556 20,37.5 C20,33.1944444 21.5,29.5347222 24.5,26.5208333 C27.5,23.5069444 31.1428571,22 35.4285714,22 Z M36,26 C32.6249997,26 29.7812496,27.1562499 27.4687498,29.4687498 C25.1562499,31.7812496 24,34.6249997 24,38 C24,41.3750003 25.1562499,44.2187504 27.4687498,46.5312502 C29.7812496,48.8437501 32.6249997,50 36,50 C39.3750003,50 42.2187504,48.8437501 44.5312502,46.5312502 C46.8437501,44.2187504 48,41.3750003 48,38 C48,34.6249997 46.8437501,31.7812496 44.5312502,29.4687498 C42.2187504,27.1562499 39.3750003,26 36,26 Z M33,31 C33,34.5 33,41.5 33,45 C31.5185187,44.3859646 30.314815,43.4649118 29.388889,42.2368416 C28.462963,41.0087715 28,39.5964909 28,38 C28,36.4035091 28.462963,34.9912285 29.388889,33.7631584 C30.314815,32.5350882 31.5185187,31.6140354 33,31 Z M38,31 C39.4814813,31.6140354 40.685185,32.5350882 41.611111,33.7631584 C42.537037,34.9912285 43,36.4035091 43,38 C43,39.5964909 42.537037,41.0087715 41.611111,42.2368416 C40.685185,43.4649118 39.4814813,44.3859646 38,45 C38,40.3333333 38,34.5 38,31 Z" id="cc-diners-club" fill="#000000"></path>
    </g>
</svg>