<?xml version="1.0" encoding="UTF-8"?>
<svg width="76px" height="52px" viewBox="0 0 76 52" version="1.1" xmlns="http://www.w3.org/2000/svg" xmlns:xlink="http://www.w3.org/1999/xlink">
    <!-- Generator: Sketch 48.1 (47250) - http://www.bohemiancoding.com/sketch -->
    <title>cc-discover</title>
    <desc>Created with Sketch.</desc>
    <defs></defs>
    <g id="cc-discover---f1f2" stroke="none" stroke-width="1" fill="none" fill-rule="evenodd" transform="translate(0.000000, -12.000000)">
        <path d="M5,12 L71,12 C73.7614237,12 76,14.2385763 76,17 L76,59 C76,61.7614237 73.7614237,64 71,64 L5,64 C2.23857625,64 3.38176876e-16,61.7614237 0,59 L0,17 C-3.38176876e-16,14.2385763 2.23857625,12 5,12 Z M6,56 C6,57.1045695 6.8954305,58 8,58 L68,58 C69.1045695,58 70,57.1045695 70,56 L70,20 C70,18.8954305 69.1045695,18 68,18 L8,18 C6.8954305,18 6,18.8954305 6,20 L6,56 Z M32.3935897,33 C33.1269231,33 33.7333333,33.1428571 34.4807692,33.5142857 L34.4807692,35.4142857 C33.775641,34.7571429 33.1692308,34.4857143 32.3653846,34.4857143 C30.7858974,34.4857143 29.5307692,35.7428571 29.5307692,37.3285714 C29.5307692,39 30.7435897,40.1857143 32.4358974,40.1857143 C33.1974359,40.1857143 33.8038462,39.9285714 34.4807692,39.2857143 L34.4807692,41.1857143 C33.7051282,41.5285714 33.0846154,41.6714286 32.3653846,41.6714286 C29.7846154,41.6714286 27.7961538,39.7857143 27.7961538,37.3571429 C27.7679487,34.9285714 29.8269231,33 32.3935897,33 Z M24.3974359,33.0571429 C25.3423077,33.0571429 26.2166667,33.3714286 26.95,33.9714286 L26.0615385,35.0714286 C25.624359,34.6 25.2012821,34.4 24.6935897,34.4 C23.9602564,34.4 23.4384615,34.8 23.4384615,35.3142857 C23.4384615,35.7571429 23.7346154,36 24.75,36.3571429 C26.6679487,37.0285714 27.2461538,37.6285714 27.2461538,38.9428571 C27.2461538,40.5428571 26.0192308,41.6571429 24.2564103,41.6571429 C22.9730769,41.6571429 22.0282051,41.1714286 21.2525641,40.0857143 L22.3384615,39.0857143 C22.7333333,39.8 23.3820513,40.1857143 24.1858974,40.1857143 C24.9333333,40.1857143 25.4974359,39.6857143 25.4974359,39.0142857 C25.4974359,38.6714286 25.3282051,38.3714286 24.9897436,38.1571429 C24.8205128,38.0571429 24.4820513,37.9142857 23.8192308,37.6857143 C22.225641,37.1428571 21.6897436,36.5714286 21.6897436,35.4285714 C21.6897436,34.0714286 22.8602564,33.0571429 24.3974359,33.0571429 Z M43.7179487,33.2 L45.5653846,33.2 L47.8782051,38.7571429 L50.2192308,33.2 L52.0525641,33.2 L48.3012821,41.6857143 L47.3846154,41.6857143 L43.7179487,33.2 Z M11,33.2142857 L13.4820513,33.2142857 C16.2179487,33.2142857 18.1358974,34.9142857 18.1358974,37.3571429 C18.1358974,38.5714286 17.5576923,39.7571429 16.5564103,40.5285714 C15.724359,41.1857143 14.7794872,41.4857143 13.4679487,41.4857143 L11,41.4857143 L11,33.2142857 Z M18.9115385,33.2142857 L20.6038462,33.2142857 L20.6038462,41.4857143 L18.9115385,41.4857143 L18.9115385,33.2142857 Z M52.8141026,33.2142857 L57.6089744,33.2142857 L57.6089744,34.6142857 L54.5064103,34.6142857 L54.5064103,36.4428571 L57.4961538,36.4428571 L57.4961538,37.8428571 L54.5064103,37.8428571 L54.5064103,40.0714286 L57.6089744,40.0714286 L57.6089744,41.4714286 L52.8141026,41.4714286 L52.8141026,33.2142857 Z M58.7371795,33.2142857 L61.2474359,33.2142857 C63.1935897,33.2142857 64.3217949,34.1142857 64.3217949,35.6571429 C64.3217949,36.9285714 63.6166667,37.7571429 62.3474359,38 L65.0833333,41.4857143 L62.9820513,41.4857143 L60.6410256,38.1571429 L60.4153846,38.1571429 L60.4153846,41.4857143 L58.7230769,41.4857143 L58.7230769,33.2142857 L58.7371795,33.2142857 Z M60.4153846,34.5142857 L60.4153846,37.0142857 L60.9089744,37.0142857 C61.9948718,37.0142857 62.5589744,36.5714286 62.5589744,35.7428571 C62.5589744,34.9428571 61.9807692,34.5142857 60.9371795,34.5142857 L60.4153846,34.5142857 Z M12.6923077,34.6142857 L13.1435897,34.6142857 C14.2294872,34.6142857 14.8923077,34.8 15.4564103,35.2857143 C16.0346154,35.7857143 16.3871795,36.5571429 16.3871795,37.3428571 C16.3871795,38.1428571 16.0346154,38.9285714 15.4564103,39.4285714 C14.9205128,39.8857143 14.2294872,40.0857143 13.1435897,40.0857143 L12.6923077,40.0857143 L12.6923077,34.6142857 Z M39.5858974,33 C42.1384615,33 44.1974359,34.9714286 44.1974359,37.4 C44.1974359,39.8285714 42.1384615,41.8 39.5858974,41.8 C37.0333333,41.8 34.974359,39.8285714 34.974359,37.4 C34.974359,34.9714286 37.0474359,33 39.5858974,33 Z" id="cc-discover" fill="#000000"></path>
    </g>
</svg>