<?xml version="1.0" encoding="UTF-8"?>
<svg width="76px" height="52px" viewBox="0 0 76 52" version="1.1" xmlns="http://www.w3.org/2000/svg" xmlns:xlink="http://www.w3.org/1999/xlink">
    <!-- Generator: Sketch 48.1 (47250) - http://www.bohemiancoding.com/sketch -->
    <title>cc-mastercard</title>
    <desc>Created with Sketch.</desc>
    <defs></defs>
    <g id="cc-mastercard---f1f1" stroke="none" stroke-width="1" fill="none" fill-rule="evenodd" transform="translate(0.000000, -12.000000)">
        <path d="M5,12 L71,12 C73.7614237,12 76,14.2385763 76,17 L76,59 C76,61.7614237 73.7614237,64 71,64 L5,64 C2.23857625,64 3.38176876e-16,61.7614237 0,59 L0,17 C-3.38176876e-16,14.2385763 2.23857625,12 5,12 Z M6,56 C6,57.1045695 6.8954305,58 8,58 L68,58 C69.1045695,58 70,57.1045695 70,56 L70,20 C70,18.8954305 69.1045695,18 68,18 L8,18 C6.8954305,18 6,18.8954305 6,20 L6,56 Z M29.0894242,50.9090909 C32.2393994,50.9090909 35.1268768,49.8111888 37.3900346,47.986014 C39.6744762,49.8601399 42.6116152,51 45.8112523,51 C53.0831546,51 59,45.1678322 59,38 C59,30.8321678 53.0831546,25 45.8112523,25 C42.6045207,25 39.6602871,26.1328671 37.3758456,28.020979 C35.1126877,26.2027972 32.2323049,25.1048951 29.0894242,25.1048951 C21.8600891,25.1048951 16,30.8811189 16,38.006993 C16,45.1328671 21.8600891,50.9090909 29.0894242,50.9090909 Z M56.169279,38 C56.169279,43.6293706 51.5152615,48.2097902 45.8112523,48.2097902 C43.3778254,48.2097902 41.1430457,47.3776224 39.369411,45.986014 C41.1217621,43.7972028 42.1788484,41.020979 42.1788484,38.013986 C42.1788484,35 41.1146675,32.2307692 39.3552219,30.034965 C41.1288566,28.6363636 43.3636364,27.7972028 45.8041577,27.7972028 C51.522356,27.7832168 56.169279,32.3706294 56.169279,38 Z" id="cc-mastercard" fill="#000000"></path>
    </g>
</svg>