<?xml version="1.0" encoding="UTF-8"?>
<svg width="76px" height="52px" viewBox="0 0 76 52" version="1.1" xmlns="http://www.w3.org/2000/svg" xmlns:xlink="http://www.w3.org/1999/xlink">
    <!-- Generator: Sketch 48.1 (47250) - http://www.bohemiancoding.com/sketch -->
    <title>cc-paypal</title>
    <desc>Created with Sketch.</desc>
    <defs></defs>
    <g id="cc-paypal---f1f4" stroke="none" stroke-width="1" fill="none" fill-rule="evenodd" transform="translate(0.000000, -12.000000)">
        <path d="M5,12 L71,12 C73.7614237,12 76,14.2385763 76,17 L76,59 C76,61.7614237 73.7614237,64 71,64 L5,64 C2.23857625,64 3.38176876e-16,61.7614237 0,59 L0,17 C-3.38176876e-16,14.2385763 2.23857625,12 5,12 Z M6,56 C6,57.1045695 6.8954305,58 8,58 L68,58 C69.1045695,58 70,57.1045695 70,56 L70,20 C70,18.8954305 69.1045695,18 68,18 L8,18 C6.8954305,18 6,18.8954305 6,20 L6,56 Z M46.9681739,31 L42.9225375,31 C42.6459921,31 42.4105375,31.2012727 42.3674466,31.4745455 L40.7314466,41.8478182 C40.6992648,42.0525455 40.8572648,42.2376364 41.0645375,42.2376364 L43.1403557,42.2376364 C43.3338103,42.2376364 43.4989012,42.0969091 43.5289012,41.9054545 L43.9929012,38.9647273 C44.0359921,38.6914545 44.2714466,38.4901818 44.5481739,38.4901818 L45.8283557,38.4901818 C48.4929012,38.4901818 50.0307193,37.2005455 50.4327193,34.6447273 C50.6136284,33.5269091 50.4399921,32.6485455 49.9165375,32.0336364 C49.3412648,31.3574545 48.3216284,31 46.9681739,31 Z M47.435083,34.7885455 C47.2139921,36.2407273 46.105083,36.2407273 45.0321739,36.2407273 L44.4219921,36.2407273 L44.8499921,33.5294545 C44.8759921,33.3654545 45.0172648,33.2447273 45.183083,33.2447273 L45.4629012,33.2447273 C46.193083,33.2447273 46.8829012,33.2447273 47.2383557,33.6607273 C47.4512648,33.9098182 47.5154466,34.2787273 47.435083,34.7885455 Z M18.2408972,31 L14.1954427,31 C13.9188972,31 13.6834427,31.2012727 13.64017,31.4745455 L12.00417,41.8478182 C11.9719881,42.0525455 12.13017,42.2376364 12.3374427,42.2376364 L14.2690791,42.2376364 C14.5456245,42.2376364 14.7810791,42.0365455 14.8243518,41.7632727 L15.2658063,38.9647273 C15.3088972,38.6914545 15.5443518,38.4901818 15.8208972,38.4901818 L17.1010791,38.4901818 C19.7658063,38.4901818 21.3036245,37.2005455 21.7056245,34.6447273 C21.8865336,33.5269091 21.7128972,32.6485455 21.1896245,32.0336364 C20.6139881,31.3574545 19.59417,31 18.2408972,31 Z M18.7078063,34.7885455 C18.4867154,36.2407273 17.3776245,36.2407273 16.3050791,36.2407273 L15.6947154,36.2407273 L16.1227154,33.5294545 C16.1487154,33.3654545 16.2898063,33.2447273 16.4558063,33.2447273 L16.7356245,33.2447273 C17.4658063,33.2447273 18.1556245,33.2447273 18.5110791,33.6607273 C18.7238063,33.9098182 18.78817,34.2787273 18.7078063,34.7885455 Z M30.2520537,34.8185455 L28.3151447,34.8185455 C28.1491447,34.8185455 28.0078719,34.9392727 27.9818719,35.1032727 L27.896781,35.6449091 L27.7613265,35.4487273 C27.3416901,34.8398182 26.406781,34.6363636 25.4731447,34.6363636 C23.3331447,34.6363636 21.504781,36.2581818 21.1489628,38.5327273 C20.9636901,39.6674545 21.2265992,40.752 21.8700537,41.5089091 C22.4611447,42.2043636 23.304781,42.4938182 24.3098719,42.4938182 C26.034781,42.4938182 26.9916901,41.3854545 26.9916901,41.3854545 L26.9051447,41.924 C26.8725992,42.1287273 27.030781,42.314 27.2382356,42.314 L28.982781,42.314 C29.2593265,42.314 29.4945992,42.1129091 29.5378719,41.8398182 L30.5851447,35.2083636 C30.6175083,35.0034545 30.4593265,34.8185455 30.2520537,34.8185455 Z M27.5524174,38.5890909 C27.3653265,39.6958182 26.4865992,40.4389091 25.3658719,40.4389091 C24.8040537,40.4389091 24.3542356,40.2581818 24.0651447,39.916 C23.7785992,39.5769091 23.670781,39.0936364 23.7616901,38.5554545 C23.9360537,37.4585455 24.8289628,36.6914545 25.9325992,36.6914545 C26.4825992,36.6914545 26.9293265,36.8738182 27.2240537,37.2192727 C27.520781,37.5670909 27.6373265,38.0534545 27.5524174,38.5890909 Z M59.1609628,34.8185455 L57.2240537,34.8185455 C57.0580537,34.8185455 56.916781,34.9392727 56.8909628,35.1032727 L56.8056901,35.6449091 L56.6702356,35.4487273 C56.2505992,34.8398182 55.3156901,34.6363636 54.3820537,34.6363636 C52.2418719,34.6363636 50.4136901,36.2581818 50.0580537,38.5327273 C49.872781,39.6674545 50.1356901,40.752 50.7791447,41.5089091 C51.3702356,42.2043636 52.2138719,42.4938182 53.2189628,42.4938182 C54.9438719,42.4938182 55.900781,41.3854545 55.900781,41.3854545 L55.8142356,41.924 C55.7816901,42.1287273 55.9398719,42.314 56.1473265,42.314 L57.8918719,42.314 C58.1684174,42.314 58.4036901,42.1129091 58.4469628,41.8398182 L59.4942356,35.2083636 C59.5265992,35.0034545 59.3682356,34.8185455 59.1609628,34.8185455 Z M56.4615083,38.5890909 C56.2744174,39.6958182 55.3958719,40.4389091 54.2751447,40.4389091 C53.7131447,40.4389091 53.2635083,40.2581818 52.9742356,39.916 C52.6878719,39.5769091 52.5798719,39.0936364 52.670781,38.5554545 C52.8453265,37.4585455 53.7378719,36.6914545 54.8415083,36.6914545 C55.3915083,36.6914545 55.8382356,36.8738182 56.1331447,37.2192727 C56.4296901,37.5670909 56.5462356,38.0534545 56.4615083,38.5890909 Z M40.6625825,34.8183636 C40.9345825,34.8183636 41.0945825,35.1241818 40.9396734,35.3476364 L34.4644007,44.6929091 C34.3593098,44.8445455 34.1867643,44.9349091 34.0024007,44.9349091 L32.0573098,44.9349091 C31.7834916,44.9349091 31.6236734,44.626 31.7820371,44.4025455 L33.7985825,41.5574545 L31.6545825,35.2643636 C31.5802189,35.0454545 31.7427643,34.8181818 31.9738552,34.8181818 L33.8878552,34.8181818 C34.1360371,34.8181818 34.3549461,34.9814545 34.4262189,35.2192727 L35.5645825,39.0205455 L38.2504007,35.0649091 C38.355128,34.9109091 38.5293098,34.8183636 38.7154916,34.8183636 L40.6625825,34.8183636 Z M61.3010792,31.2847275 C61.3268974,31.1207275 61.4681701,30.9998184 61.6343519,31.0000002 L63.5028974,31.0000002 C63.7101701,31.0000002 63.8683519,31.1850911 63.8359883,31.3898184 L62.1988974,41.7630911 C62.1556246,42.0363638 61.9201701,42.2374548 61.6436246,42.2374548 L59.9736246,42.2374548 C59.7665337,42.2374548 59.6083519,42.0523638 59.6405337,41.8478184 L61.3010792,31.2847275 Z" id="cc-paypal" fill="#000000"></path>
    </g>
</svg>