<?xml version="1.0" encoding="UTF-8"?>
<svg width="76px" height="52px" viewBox="0 0 76 52" version="1.1" xmlns="http://www.w3.org/2000/svg" xmlns:xlink="http://www.w3.org/1999/xlink">
    <!-- Generator: Sketch 48.1 (47250) - http://www.bohemiancoding.com/sketch -->
    <title>cc-stripe</title>
    <desc>Created with Sketch.</desc>
    <defs></defs>
    <g id="cc-stripe---f1f5" stroke="none" stroke-width="1" fill="none" fill-rule="evenodd" transform="translate(0.000000, -12.000000)">
        <path d="M5,12 L71,12 C73.7614237,12 76,14.2385763 76,17 L76,59 C76,61.7614237 73.7614237,64 71,64 L5,64 C2.23857625,64 3.38176876e-16,61.7614237 0,59 L0,17 C-3.38176876e-16,14.2385763 2.23857625,12 5,12 Z M6,56 C6,57.1045695 6.8954305,58 8,58 L68,58 C69.1045695,58 70,57.1045695 70,56 L70,20 C70,18.8954305 69.1045695,18 68,18 L8,18 C6.8954305,18 6,18.8954305 6,20 L6,56 Z M36.4652188,27.8986047 C37.7631118,27.6356202 39.058282,27.361938 40.3534522,27.0873643 C40.3543598,28.1259302 40.3552674,29.1653876 40.3534522,30.204845 C39.0564668,30.4705039 37.760389,30.7450775 36.4634036,31.0151938 C36.4634036,29.9757364 36.4615883,28.9371705 36.4652188,27.8986047 Z M20.7389303,29.6485659 C22.0023339,29.3837984 23.2666451,29.1252713 24.5282334,28.8542636 C24.5227877,29.956124 24.5373096,31.057093 24.5373096,32.1589535 C25.5175365,32.159845 26.498671,32.158062 27.4788979,32.159845 C27.4816207,33.2465504 27.4798055,34.3323643 27.4798055,35.4190698 C26.4995786,35.4199612 25.5184441,35.4190698 24.5382172,35.4190698 C24.5373096,37.250155 24.5364019,39.0821318 24.5382172,40.9132171 C24.5327715,41.4534496 24.7660292,42.0543023 25.3033387,42.279845 C26.000389,42.5713566 26.7909238,42.4082171 27.4816207,42.1782171 C27.4788979,43.2167829 27.4807131,44.2553488 27.4807131,45.2948062 C26.645705,45.6852713 25.7072285,45.7824419 24.7932577,45.794031 C23.783987,45.8056202 22.7601945,45.4713178 22.006872,44.8018217 C21.1727715,44.0761628 20.7144246,42.9796512 20.7244084,41.8902713 C20.7316694,37.81 20.7298541,33.7297287 20.7389303,29.6485659 Z M11.2189303,33.3579845 C12.147423,32.4165891 13.4988655,32.0056202 14.8012966,31.9289535 C16.2988655,31.8487209 17.8173096,32.06 19.2132253,32.6064729 C19.2141329,33.8063953 19.2132253,35.0063178 19.2132253,36.2071318 C18.1077472,35.6365891 16.8770178,35.2978295 15.6299514,35.2282946 C15.2151702,35.214031 14.7713452,35.2095736 14.3964992,35.4110465 C14.0289141,35.6018217 13.9272609,36.1322481 14.1813938,36.4496124 C14.4137439,36.7455814 14.7795138,36.8953488 15.1216856,37.0362016 C16.2779903,37.4721318 17.5277796,37.7565116 18.5316045,38.5053488 C19.2132253,38.9965504 19.7069692,39.7337984 19.8721556,40.5503876 C20.1017828,41.7084109 19.9193517,42.9903488 19.1787358,43.9451163 C18.4245057,44.9310853 17.2092058,45.4686434 15.9975365,45.6710078 C14.0715721,45.9865891 12.0684603,45.6736822 10.2795462,44.9301938 C10.2795462,43.7133333 10.2804538,42.4964729 10.2795462,41.2805039 C11.4567261,41.8938372 12.7400972,42.3493798 14.0724797,42.4795349 C14.5789303,42.5169767 15.1216856,42.5285659 15.5863857,42.2967829 C16.0102431,42.0890698 16.1300486,41.4962403 15.8595786,41.1262791 C15.6054457,40.7910853 15.2024635,40.6154651 14.8230794,40.4541085 C13.5660292,39.9531008 12.1737439,39.6286047 11.150859,38.6987984 C10.4347488,38.0685271 10.0916694,37.1110853 10.0898541,36.1812791 C10.1225284,35.1534109 10.4710535,34.1005814 11.2189303,33.3579845 Z M45.4206807,33.0941085 C46.2202917,32.3568605 47.2967261,31.9022093 48.3994814,31.9146899 C49.7926742,31.879031 51.1468395,32.5494186 52.042658,33.5817442 C53.1063857,34.7852326 53.5964992,36.3800775 53.7117666,37.9463953 C53.8079741,39.6125581 53.6509562,41.3402326 52.9185089,42.8664341 C52.3839222,43.9870155 51.4690438,44.9631783 50.2882334,45.4347674 C49.1954619,45.8742636 47.9175365,45.9348837 46.8165964,45.4864729 C46.411799,45.3260078 46.0478444,45.0844186 45.6911507,44.8410465 C45.6820746,46.2727519 45.6893355,47.7044574 45.6875203,49.1361628 C44.3905348,49.4116279 43.0890113,49.6683721 41.7956564,49.9581008 C41.8001945,44.0253488 41.7938412,38.0925969 41.7992869,32.159845 C42.9383468,32.1589535 44.0783144,32.1589535 45.2191896,32.159845 C45.2845381,32.470969 45.3553323,32.782093 45.4206807,33.0941085 Z M45.6775365,36.035969 C45.6938736,37.9241085 45.6902431,39.8122481 45.7038574,41.7003876 C46.4835008,42.5356977 47.994684,42.7068605 48.8469368,41.8867054 C49.5730308,41.1913566 49.840778,40.1697287 49.9061264,39.205155 C49.9596759,38.1532171 49.77906,37.0344186 49.1391896,36.1652326 C48.7470989,35.6205426 48.0863533,35.2407752 47.3938412,35.295155 C46.7458023,35.3005039 46.122269,35.575969 45.6775365,36.035969 Z M58.8461588,32.1018992 C60.3400972,31.7248062 62.0291734,31.8843798 63.3207131,32.7535659 C64.4062237,33.4774419 65.1295948,34.6256589 65.5225932,35.838062 C65.9773096,37.2653101 66.0880389,38.7852713 65.9282982,40.2686822 C63.3960454,40.2704651 60.8637925,40.2677907 58.3315397,40.2704651 C58.4077796,40.9987984 58.7435981,41.7431783 59.4097893,42.1247287 C60.3727715,42.6854651 61.5490438,42.6052326 62.6182172,42.4920155 C63.5022366,42.376124 64.3653809,42.1184884 65.1613614,41.7244574 C65.1586386,42.7523256 65.1613614,43.7801938 65.1604538,44.808062 C63.6801297,45.6041473 61.9529335,45.8671318 60.2820097,45.7744186 C58.8334522,45.6879457 57.3740032,45.1744574 56.3320583,44.1572868 C55.205705,43.0741473 54.6475203,41.5381395 54.4977634,40.0217442 C54.3044408,38.1826357 54.5576661,36.2410078 55.5297245,34.6310078 C56.2530956,33.4150388 57.4466126,32.454031 58.8461588,32.1018992 Z M58.9614263,35.6009302 C59.5559157,34.9768992 60.6105673,34.8333721 61.3393841,35.3147674 C62.0573096,35.7694186 62.2969206,36.6564341 62.3105348,37.449845 C60.9727066,37.4516279 59.6357861,37.449845 58.2988655,37.4507364 C58.3115721,36.7892636 58.4776661,36.0885659 58.9614263,35.6009302 Z M33.5998703,32.158062 C34.2206807,31.9405426 34.9050243,31.977093 35.5312804,32.1571705 C35.532188,33.3267829 35.5294652,34.4963953 35.532188,35.6660078 C34.4993193,35.3807364 33.2504376,35.5848837 32.5760778,36.4665504 C32.5824311,39.484186 32.5769854,42.5018217 32.5788006,45.5194574 C31.2863533,45.5194574 29.9929984,45.5185659 28.7005511,45.5203488 C28.7005511,41.0665504 28.6969206,36.6127519 28.7023663,32.1589535 C29.8205511,32.1589535 30.9396434,32.158062 32.0587358,32.159845 C32.1349757,32.5298062 32.2184765,32.8997674 32.295624,33.2706202 C32.5878768,32.7705039 33.0353323,32.3425969 33.5998703,32.158062 Z M36.4643112,32.1589535 C37.760389,32.1589535 39.0564668,32.1589535 40.3534522,32.159845 C40.3570827,36.6127519 40.351637,41.0656589 40.3552674,45.5185659 C39.058282,45.5203488 37.760389,45.5194574 36.4634036,45.5185659 C36.4643112,41.0656589 36.4615883,36.6127519 36.4643112,32.1589535 Z" id="cc-stripe" fill="#000000"></path>
    </g>
</svg>