<?xml version="1.0" encoding="UTF-8"?>
<svg width="76px" height="52px" viewBox="0 0 76 52" version="1.1" xmlns="http://www.w3.org/2000/svg" xmlns:xlink="http://www.w3.org/1999/xlink">
    <!-- Generator: Sketch 48.1 (47250) - http://www.bohemiancoding.com/sketch -->
    <title>cc-visa</title>
    <desc>Created with Sketch.</desc>
    <defs></defs>
    <g id="cc-visa---f1f0" stroke="none" stroke-width="1" fill="none" fill-rule="evenodd" transform="translate(0.000000, -12.000000)">
        <path d="M5,12 L71,12 C73.7614237,12 76,14.2385763 76,17 L76,59 C76,61.7614237 73.7614237,64 71,64 L5,64 C2.23857625,64 3.38176876e-16,61.7614237 0,59 L0,17 C-3.38176876e-16,14.2385763 2.23857625,12 5,12 Z M6,56 C6,57.1045695 6.8954305,58 8,58 L68,58 C69.1045695,58 70,57.1045695 70,56 L70,20 C70,18.8954305 69.1045695,18 68,18 L8,18 C6.8954305,18 6,18.8954305 6,20 L6,56 Z M46.19882,30 L46.38674,30 C47.70569,30.0094444 49.02923,30.2300772 50.25881,30.6999383 C50.06117,31.8831173 49.86272,33.0662963 49.664,34.249213 C48.94283,33.9155093 48.18305,33.6484414 47.39087,33.5314352 C46.80443,33.4401389 46.20746,33.4270216 45.61535,33.4590278 C45.08588,33.4981173 44.54237,33.6096142 44.09498,33.9010802 C43.81148,34.0857716 43.57415,34.3628086 43.50935,34.6949383 C43.45535,34.9402315 43.52312,35.200216 43.66649,35.4058951 C43.8293,35.6396451 44.05772,35.8209259 44.29262,35.9827932 C45.13448,36.5481481 46.09649,36.9083488 46.97129,37.4183488 C47.43839,37.6945988 47.88551,38.0060031 48.28052,38.3745988 C48.85157,38.9019136 49.30517,39.5659105 49.50011,40.313071 C49.64861,40.8608488 49.65536,41.4359105 49.58759,41.9957562 C49.52279,42.5251698 49.37645,43.0459259 49.14614,43.5299537 C48.77057,44.3251235 48.16496,45.0082716 47.43785,45.520108 C46.57061,46.1326852 45.55163,46.5175463 44.50835,46.7368673 C42.68531,47.1151698 40.78667,47.0217747 38.97011,46.6568519 C38.34452,46.5243673 37.72298,46.3596142 37.13708,46.1061883 C37.34093,44.8765741 37.54478,43.6469599 37.7489,42.4173457 C38.53703,42.7804321 39.33947,43.1309259 40.19051,43.3303086 C40.88603,43.4961111 41.60423,43.5488426 42.31865,43.5527778 C42.67289,43.558287 43.02848,43.529429 43.37462,43.4549228 C43.8536,43.3499846 44.33582,43.1645062 44.68304,42.8155864 C44.99867,42.5060185 45.13664,42.0306481 45.00758,41.6103704 C44.90201,41.2577778 44.62202,40.9886111 44.33096,40.7700772 C43.83065,40.4014815 43.26581,40.1283796 42.70556,39.8576389 C41.85425,39.4457562 41.01968,38.9745833 40.32362,38.3381327 C39.79361,37.854892 39.35108,37.2630401 39.12887,36.5854012 C38.97173,36.1220988 38.93204,35.6283642 38.96552,35.1435494 C39.01736,34.286466 39.31436,33.4445988 39.81899,32.7394136 C40.48265,31.8057253 41.46761,31.1204784 42.53816,30.6878704 C43.69295,30.2156481 44.95088,30.0188889 46.19882,30 Z M26.37272,30.2975 C27.91469,30.2972377 29.45639,30.2969753 30.99836,30.2977623 C28.70606,35.7718673 26.41457,41.2462346 24.12146,46.7200772 C22.58003,46.7203395 21.0386,46.7200772 19.49717,46.7200772 C18.19523,41.9587654 17.00669,37.8255093 15.70394,33.0644599 C17.39306,34.0233333 18.90398,35.2957099 20.05607,36.8362037 C20.75132,37.7575617 21.3086,38.7746759 21.72251,39.8434722 C21.88343,40.6074228 21.92987,40.7430556 22.08863,41.5075309 C23.51666,37.7709414 24.94469,34.0340895 26.37272,30.2975 Z M32.76308,30.2975 C34.22108,30.2972377 35.67881,30.2972377 37.13681,30.2975 C36.22529,35.7773765 35.31269,41.2572531 34.4009,46.737392 C32.94263,46.7379167 31.48463,46.7376543 30.02663,46.737392 C30.93842,41.2575154 31.85021,35.7773765 32.76308,30.2975 Z M58.05074,30.2985494 C59.19149,30.2959259 60.33224,30.2977623 61.47326,30.2977623 C62.64911,35.7729167 63.82388,41.2485957 65,46.72375 L65,46.7358835 C63.65081,46.7358179 62.30135,46.7358179 60.95216,46.7358179 C60.77936,45.9136265 60.60494,45.0916975 60.42998,44.2700309 C58.55807,44.2695062 56.68616,44.2697685 54.81425,44.2700309 C54.50726,45.0916975 54.20189,45.9138889 53.89571,46.7358179 C52.36562,46.7358179 50.8358,46.7360802 49.30598,46.7355556 C51.46355,41.7289506 53.62193,36.722608 55.77977,31.7160031 C55.94069,31.3240586 56.17829,30.9470679 56.53658,30.6975772 C56.97074,30.3887963 57.52397,30.3006481 58.05074,30.2985494 Z M58.39526,34.7403241 C58.84211,36.7963272 59.26817,38.8565278 59.70962,40.9133179 C58.49759,40.9135802 57.28529,40.9135802 56.07326,40.9133179 C56.48798,39.8211728 56.90297,38.7287654 57.31769,37.636358 C57.68543,36.6740741 58.04696,35.7096914 58.39526,34.7403241 Z M11.07236,30.2975 C13.40597,30.2972377 15.73958,30.2969753 18.07319,30.2975 C18.56702,30.311929 19.09001,30.3929938 19.49015,30.6954784 C19.82738,30.9447068 20.01854,31.3363889 20.10089,31.7322685 C20.60471,34.2261265 21.11285,36.7194599 21.61451,39.2138426 C21.2006,38.1450463 20.64332,37.1279321 19.94807,36.2065741 C18.79598,34.6660802 17.28506,33.3937037 15.59594,32.4348302 C14.16386,31.6212963 12.60488,31.0304938 11,30.6296296 L11,30.6283179 C11.02403,30.5181327 11.04806,30.4076852 11.07236,30.2975 Z" id="cc-visa" fill="#000000"></path>
    </g>
</svg>