<?xml version="1.0" encoding="UTF-8"?>
<svg width="76px" height="49px" viewBox="0 0 76 49" version="1.1" xmlns="http://www.w3.org/2000/svg" xmlns:xlink="http://www.w3.org/1999/xlink">
    <!-- Generator: Sketch 48.1 (47250) - http://www.bohemiancoding.com/sketch -->
    <title>cc</title>
    <desc>Created with Sketch.</desc>
    <defs></defs>
    <g id="cc" stroke="none" stroke-width="1" fill="none" fill-rule="evenodd" transform="translate(0.000000, -14.000000)">
        <path d="M0,14 C0.678571429,14 2.03571429,14 2.71428571,14 C20.3571429,14 55.6428571,14 73.2857143,14 C73.9642857,14 75.3214286,14 76,14 C76,14.6785714 76,16.0357143 76,16.7142857 C76,27.4866071 76,49.03125 76,59.8035714 C76,60.4821429 76,61.8392857 76,62.5178571 C75.3214286,62.5178571 73.9642857,62.5178571 73.2857143,62.5178571 C55.6428571,62.5178571 20.3571429,62.5178571 2.71428571,62.5178571 C2.03571429,62.5178571 0.678571429,62.5178571 0,62.5178571 C0,61.8392857 0,60.4821429 0,59.8035714 C0,49.03125 0,27.4866071 0,16.7142857 C0,16.0357143 0,14.6785714 0,14 Z M6,19.4285714 C6,28.84375 6,47.6741071 6,57.0892857 C22,57.0892857 54,57.0892857 70,57.0892857 C70,47.6741071 70,28.84375 70,19.4285714 C54,19.4285714 22,19.4285714 6,19.4285714 Z M27.1428571,24.8571429 C30.3095238,24.8571429 33.1369048,25.875 35.625,27.9107143 C34.4940476,29.3244049 34.4940476,29.3244049 32.2321429,32.1517861 C30.6488095,30.9077382 28.952381,30.2857143 27.1428571,30.2857143 C24.8809524,30.2857143 22.9583333,31.077381 21.375,32.6607143 C19.7916667,34.2440476 19,36.1666667 19,38.4285714 C19,40.6904762 19.7916667,42.6130952 21.375,44.1964286 C22.9583333,45.7797619 24.8809524,46.5714286 27.1428571,46.5714286 C28.952381,46.5714286 30.6488095,45.9494046 32.2321429,44.7053567 C33.3630952,46.1190473 33.3630952,46.1190473 35.625,48.9464286 C33.1369048,50.9821429 30.3095238,52 27.1428571,52 C23.4107146,52 20.2157742,50.6711309 17.5580359,48.0133926 C14.9002977,45.3556544 13.5714286,42.160714 13.5714286,38.4285714 C13.5714286,34.6964289 14.9002977,31.5014885 17.5580359,28.8437502 C20.2157742,26.186012 23.4107146,24.8571429 27.1428571,24.8571429 Z M54.2857143,24.8571429 C57.452381,24.8571429 60.2797619,25.875 62.7678571,27.9107143 C61.6369048,29.3244049 61.6369048,29.3244049 59.375,32.1517861 C57.7916667,30.9077382 56.0952381,30.2857143 54.2857143,30.2857143 C52.0238095,30.2857143 50.1011905,31.077381 48.5178571,32.6607143 C46.9345238,34.2440476 46.1428571,36.1666667 46.1428571,38.4285714 C46.1428571,40.6904762 46.9345238,42.6130952 48.5178571,44.1964286 C50.1011905,45.7797619 52.0238095,46.5714286 54.2857143,46.5714286 C56.0952381,46.5714286 57.7916667,45.9494046 59.375,44.7053567 C60.5059524,46.1190473 60.5059524,46.1190473 62.7678571,48.9464286 C60.2797619,50.9821429 57.452381,52 54.2857143,52 C50.5535717,52 47.3586313,50.6711309 44.7008931,48.0133926 C42.0431548,45.3556544 40.7142857,42.160714 40.7142857,38.4285714 C40.7142857,34.6964289 42.0431548,31.5014885 44.7008931,28.8437502 C47.3586313,26.186012 50.5535717,24.8571429 54.2857143,24.8571429 Z" fill="#000000" fill-rule="nonzero"></path>
    </g>
</svg>