<?xml version="1.0" encoding="UTF-8"?>
<svg width="72px" height="76px" viewBox="0 0 72 76" version="1.1" xmlns="http://www.w3.org/2000/svg" xmlns:xlink="http://www.w3.org/1999/xlink">
    <!-- Generator: Sketch 48.1 (47250) - http://www.bohemiancoding.com/sketch -->
    <title>certificate</title>
    <desc>Created with Sketch.</desc>
    <defs></defs>
    <g id="certificate" stroke="none" stroke-width="1" fill="none" fill-rule="evenodd" transform="translate(-2.000000, 0.000000)">
        <path d="M37.890625,0 C39.7175484,0 41.4226766,0.608974359 43.0060096,1.82692308 C44.6502405,2.92307692 46.7055292,4.29326923 47.9387024,5.11538462 C49.3088945,5.29807692 52.0492786,5.66346154 53.4194707,5.84615385 C55.4290862,6.08974359 57.0428682,6.9118589 58.4435094,8.31249977 C59.8441506,9.71314064 60.666266,11.3269228 60.9098558,13.1538462 C60.9098558,13.336538 61.7319712,17.6298077 62.0060096,19 C62.828125,20.1875 62.828125,20.1875 65.2944712,23.75 C67.7303686,27.0384612 67.7912662,30.5705125 65.4771639,34.3461538 C64.4723558,35.579327 62.828125,38.0456734 62.0060096,39.2788466 C61.8233173,40.6490387 61.4579327,43.3894228 61.2752404,44.7596149 C63.5588942,48.2307688 68.1262019,55.1730765 70.4098558,58.6442303 C71.140625,59.7860573 72.6021635,62.0697114 73.3329327,63.2115385 C72.0084133,63.2115385 69.3593746,63.2115385 68.0348553,63.2115385 C65.8882208,63.2115385 61.5949518,63.2115385 59.4483173,63.2115385 C58.6262019,65.1298077 56.9819712,68.9663462 56.1598558,70.8846154 C55.6117788,72.1634615 54.515625,74.7211538 53.9675481,76 C53.2367788,74.8581732 51.7752404,72.5745196 51.0444712,71.4326928 C48.7151441,67.9615389 48.7151441,67.9615389 41.727163,57.5480774 C39.2912656,58.6442309 36.7335736,58.6442309 34.054087,57.5480774 C30.9483176,62.1762825 27.0661059,67.9615389 24.7367788,71.4326928 C24.0060096,72.5745196 22.5444712,74.8581732 21.8137019,76 C21.265625,74.7211538 20.1694712,72.1634615 19.6213942,70.8846154 C18.7992788,68.9663462 17.1550481,65.1298077 16.3329327,63.2115385 C14.1862982,63.2115385 9.8930292,63.2115385 7.7463947,63.2115385 C6.42187535,63.2115385 3.77283666,63.2115385 2.44831731,63.2115385 C3.17908654,62.0697114 4.640625,59.7860573 5.37139423,58.6442303 C7.74639423,55.0360573 12.4963942,47.8197114 14.8713942,44.2115385 C14.5973558,42.9783655 14.0492788,40.5120196 13.7752404,39.2788466 C12.953125,38.0456734 12.953125,38.0456734 10.4867788,34.3461538 C8.05088141,31.057692 7.98998382,27.5256407 10.3040861,23.75 C11.3088942,22.6538462 12.953125,20.4615385 13.7752404,19.3653846 C13.9579327,17.9038462 14.3233173,14.9807692 14.5060096,13.5192308 C14.9931891,11.5705128 15.9066506,9.92628205 17.2463942,8.58653846 C18.5861378,7.24679487 20.2303686,6.33333333 22.1790865,5.84615385 C23.5949518,5.66346154 26.4266823,5.29807692 27.8425476,5.11538462 C29.0757208,4.29326923 29.0757208,4.29326923 32.7752404,1.82692308 C34.3585734,0.608974359 36.0637016,0 37.890625,0 Z M37.8137019,6 C37.0853365,6 36.4783654,6.24278846 35.9927885,6.72836538 C34.2932692,7.94230769 32.1688702,9.45973558 30.8942308,10.3701923 C30.7121394,10.461238 30.3479567,10.6433293 30.1658654,10.734375 C29.983774,10.779898 29.6195913,10.8709439 29.4375,10.9164668 C27.8897236,11.1440809 27.8897236,11.1440809 23.2463942,11.8269231 C21.6682695,12.1911061 20.6971157,13.1622599 20.3329327,14.7403846 C20.0294473,16.8040865 19.6500905,19.3837139 19.4224764,20.9314904 C19.3769535,21.1135817 19.2859076,21.4777644 19.2403846,21.6598558 C19.1493389,21.8419471 18.9672476,22.2061298 18.8762019,22.3882212 C17.9657452,23.5718149 17.9657452,23.5718149 15.234375,27.1225962 C14.2632212,28.5793269 14.2632212,29.9146635 15.234375,31.1286058 C16.4483173,32.828125 17.9657452,34.952524 18.8762019,36.2271635 C18.9672476,36.4092548 19.1493389,36.7734375 19.2403846,36.9555288 C19.2859076,37.1376202 19.3769535,37.5018029 19.4224764,37.6838942 C19.7411362,39.3227163 20.3784556,42.6003606 20.6971154,44.2391827 C20.6971154,44.2847056 20.6971154,44.2847056 20.6971154,44.4212745 C20.6971154,44.7854569 20.8185096,45.1496393 21.0612981,45.5138216 C21.4254811,46.2421877 22.0324522,46.6670676 22.8822115,46.7884615 C22.9429088,46.7884615 23.0187804,46.7884615 23.0643034,46.7884615 C24.6576025,47.0160756 27.8442008,47.4713037 29.4375,47.6989178 C29.6195913,47.7444408 29.983774,47.8354867 30.1658654,47.8810096 C30.3479567,47.9720553 30.7121394,48.1541466 30.8942308,48.2451923 C32.0778245,49.155649 32.0778245,49.155649 35.6286058,51.8870192 C37.0853365,52.8581731 38.4206731,52.8581731 39.6346154,51.8870192 C41.3341346,50.6730769 43.4585337,49.155649 44.7331731,48.2451923 C44.9152644,48.1541466 45.2794471,47.9720553 45.4615385,47.8810096 C45.6436298,47.8354867 46.0078125,47.7444408 46.1899038,47.6989178 C47.828726,47.3802581 51.1063702,46.7429386 52.7451923,46.4242788 C52.7907153,46.4242788 54.0661058,46.1959135 54.5,46 C54.9338942,45.8040865 55.2944712,44.6033651 55.2944712,44.2391827 C55.2944712,44.1784854 55.2944712,44.1026138 55.2944712,44.0570909 C55.5220852,42.4637917 55.9773134,39.2771934 56.2049274,37.6838942 C56.2504504,37.5018029 56.3414963,37.1376202 56.3870192,36.9555288 C56.4780649,36.7734375 56.6601562,36.4092548 56.7512019,36.2271635 C57.6616587,34.952524 57.6616587,34.952524 60.3930288,31.1286058 C61.3641827,29.671875 61.3641827,28.3365385 60.3930288,27.1225962 C59.1790865,25.4230769 57.6616587,23.2986779 56.7512019,22.0240385 C56.6601562,21.8874698 56.4780649,21.6143326 56.3870192,21.477764 C56.3414963,21.3411956 56.2504504,21.0680588 56.2049274,20.9314904 C55.8862677,19.2926683 54.9302885,14.330679 54.9302885,14.1941101 C54.8088939,12.7373793 54.0805285,11.948317 52.7451923,11.8269231 C52.684495,11.8269231 52.6086234,11.8269231 52.5631005,11.8269231 C50.9698013,11.599309 47.783203,11.1440809 46.1899038,10.9164668 C46.0078125,10.8709439 45.6436298,10.779898 45.4615385,10.734375 C45.2794471,10.6433293 44.9152644,10.461238 44.7331731,10.3701923 C43.4585337,9.45973558 43.4585337,9.45973558 39.6346154,6.72836538 C39.1490385,6.24278846 38.5420673,6 37.8137019,6 Z M57.9867788,50.4230769 C56.7688301,51.3974359 55.4290865,52.0064103 53.9675481,52.25 C53.8457535,52.25 53.7848562,52.25 53.7848562,52.25 C53.7848562,52.25 53.7239586,52.25 53.6021635,52.25 C51.7143431,52.6153846 49.3545677,53.0721154 47.9387024,53.3461538 C47.6189907,53.5745191 46.9795674,54.0312496 46.6598558,54.2596149 C48.2127404,56.6346149 51.3185096,61.3846149 52.8713942,63.7596149 C53.328125,62.6177881 54.2415865,60.3341345 54.6983173,59.1923077 C54.8810096,58.7355769 55.2463942,57.8221154 55.4290865,57.3653846 C55.9314905,57.3653846 56.9362984,57.3653846 57.4387024,57.3653846 C58.7175485,57.3653846 61.2752409,57.3653846 62.554087,57.3653846 C61.41226,55.6298077 61.41226,55.6298077 57.9867788,50.4230769 Z M17.7944712,50.4230769 C16.6526441,52.1586538 14.36899,55.6298077 13.227163,57.3653846 C14.5060091,57.3653846 17.0637015,57.3653846 18.3425476,57.3653846 C18.8449516,57.3653846 19.8497595,57.3653846 20.3521635,57.3653846 C20.5348558,57.8221154 20.9002404,58.7355769 21.0829327,59.1923077 C21.5396635,60.3341345 22.453125,62.6177881 22.9098558,63.7596149 C24.4627404,61.4302881 27.5685096,56.7716345 29.1213942,54.4423077 C28.8473558,54.1682692 28.2992788,53.6201923 28.0252404,53.3461538 C26.6093751,53.1634615 23.7776446,52.7980769 22.3617793,52.6153846 C22.3161061,52.6153846 22.3161061,52.6153846 22.1790865,52.6153846 C20.4739583,52.3717949 19.0124199,51.6410256 17.7944712,50.4230769 Z" fill="#000000" fill-rule="nonzero"></path>
    </g>
</svg>