<?xml version="1.0" encoding="UTF-8"?>
<svg width="76px" height="76px" viewBox="0 0 76 76" version="1.1" xmlns="http://www.w3.org/2000/svg" xmlns:xlink="http://www.w3.org/1999/xlink">
    <!-- Generator: Sketch 48.1 (47250) - http://www.bohemiancoding.com/sketch -->
    <title>check-circle</title>
    <desc>Created with Sketch.</desc>
    <defs></defs>
    <g id="check-circle" stroke="none" stroke-width="1" fill="none" fill-rule="evenodd">
        <path d="M64.4039468,10.7738422 L60.2298647,14.9479244 C54.0340804,8.94097479 46.6241256,5.9375 38,5.9375 C29.1828125,5.9375 21.6347656,9.07695313 15.3558594,15.3558594 C9.07695313,21.6347656 5.9375,29.1828125 5.9375,38 C5.9375,46.8171875 9.07695313,54.3652344 15.3558594,60.6441406 C21.6347656,66.9230469 29.1828125,70.0625 38,70.0625 C46.8171875,70.0625 54.3652344,66.9230469 60.6441406,60.6441406 C66.9230469,54.3652344 70.0625,46.8171875 70.0625,38 C70.0625,34.59471 69.5942238,31.3787232 68.6576715,28.3520394 L73.3000919,23.709619 C75.1000306,28.1146844 76,32.8781447 76,38 C76,48.4236114 72.2725695,57.3628476 64.8177086,64.8177086 C57.3628476,72.2725695 48.4236114,76 38,76 C27.5763886,76 18.6371524,72.2725695 11.1822914,64.8177086 C3.72743047,57.3628476 0,48.4236114 0,38 C0,27.5763886 3.72743047,18.6371524 11.1822914,11.1822914 C18.6371524,3.72743047 27.5763886,0 38,0 C48.2314719,0 57.0327875,3.59128075 64.4039468,10.7738422 Z M69.7027027,12 C70.777027,13.0884956 72.9256757,15.2654867 74,16.3539823 C65.4054054,25.0619469 48.2162162,42.4778761 39.6216216,51.1858407 C39.0844595,51.6393805 38.0101351,52.5464602 37.472973,53 C36.9358108,52.5464602 35.8614865,51.6393805 35.3243243,51.1858407 C31.7432432,47.5575221 24.5810811,40.300885 21,36.6725664 C22.0743243,35.5840708 24.222973,33.4070796 25.2972973,32.3185841 C28.3412162,35.4480087 34.4290541,41.7068581 37.472973,44.8362827 C45.5304054,36.627212 61.6452703,20.2090707 69.7027027,12 Z" fill="#000000"></path>
    </g>
</svg>