<?xml version="1.0" encoding="UTF-8"?>
<svg width="73px" height="76px" viewBox="0 0 73 76" version="1.1" xmlns="http://www.w3.org/2000/svg" xmlns:xlink="http://www.w3.org/1999/xlink">
    <!-- Generator: Sketch 48.1 (47250) - http://www.bohemiancoding.com/sketch -->
    <title>child</title>
    <desc>Created with Sketch.</desc>
    <defs></defs>
    <g id="child---f1ae" stroke="none" stroke-width="1" fill="none" fill-rule="evenodd" transform="translate(-2.000000, 0.000000)">
        <path d="M26.3333333,0 C32.9236111,0 37.4861111,2.34333317 40.0208333,7.02999951 C40.1475691,7.02999951 40.210937,6.96666634 40.210937,6.84 C40.210937,6.71333366 40.2743052,6.65000049 40.4010417,6.65000049 C42.0486114,4.2433335 44.4565975,3.04 47.625,3.04 C47.625,5.06666667 47.625,5.06666667 47.625,9.12 C46.6111111,9.12 45.8506944,9.37333333 45.34375,9.88 C51.3003475,11.4 56.338108,14.3766667 60.4570315,18.81 C64.5759549,23.2433333 67.2690972,28.5 68.5364583,34.58 C72.8454861,35.973333 75,38.633333 75,42.56 C75,44.5866667 74.3346355,46.2966667 73.0039065,47.69 C71.6731775,49.0833333 70.057292,50.0966668 68.15625,50.7300005 C66.8888889,57.9500002 63.4670139,63.9666667 57.890625,68.78 C52.3142361,73.5933333 45.8506944,76 38.5,76 C31.1493056,76 24.6857639,73.5933333 19.109375,68.78 C13.5329861,63.9666667 10.1111111,57.9500002 8.84375,50.7300005 C6.94270801,50.0966668 5.32682251,49.0833333 3.99609351,47.69 C2.6653645,46.2966667 2,44.5866667 2,42.56 C2,40.5333333 2.6653645,38.8233333 3.99609351,37.43 C5.32682251,36.0366667 6.94270801,35.0233332 8.84375,34.3899995 C9.98437468,27.9299998 12.9309892,22.3566667 17.6835935,17.67 C22.4361978,12.9833333 28.044271,10.26 34.507813,9.5 C32.9869797,7.22 30.2621531,6.08 26.3333333,6.08 C26.3333333,4.05333333 26.3333333,4.05333333 26.3333333,0 Z M38.5,15.2 C32.2899309,15.2 26.9036463,17.29 22.3411463,21.47 C17.7786463,25.65 15.1805559,30.78 14.546875,36.86 C14.4201389,37.7466667 14.2617188,38.855 14.1666667,39.52 C13.5013021,39.52 12.1705729,39.52 11.5052083,39.52 C11.4101562,39.52 11.4101562,39.52 11.125,39.52 C10.2378469,39.52 9.50911418,39.8049999 8.93880184,40.3749998 C8.3684895,40.9449996 8.08333333,41.673333 8.08333333,42.56 C8.08333333,43.446667 8.3684895,44.1750004 8.93880184,44.7450002 C9.50911418,45.3150001 10.2378469,45.6 11.125,45.6 C11.2517361,45.6 11.4101562,45.6 11.5052083,45.6 C12.1705729,45.6 13.5013021,45.6 14.1666667,45.6 C14.2617188,46.265 14.2617188,46.265 14.546875,48.26 C15.1805559,54.34 17.7786463,59.47 22.3411463,63.65 C26.9036463,67.83 32.2899309,69.92 38.5,69.92 C44.7100691,69.92 50.0963537,67.83 54.6588537,63.65 C59.2213537,59.47 61.8194441,54.34 62.453125,48.26 C62.5798611,47.3733333 62.7382812,46.265 62.8333333,45.6 C63.4986979,45.6 64.8294271,45.6 65.4947917,45.6 C65.5898438,45.6 65.5898438,45.6 65.875,45.6 C66.7621531,45.6 67.4908858,45.3150001 68.0611982,44.7450002 C68.6315105,44.1750004 68.9166667,43.446667 68.9166667,42.56 C68.9166667,41.673333 68.6315105,40.9449996 68.0611982,40.3749998 C67.4908858,39.8049999 66.7621531,39.52 65.875,39.52 C64.9878472,39.52 63.8789062,39.52 63.2135417,39.52 C63.1184896,38.855 63.1184896,38.855 62.8333333,36.86 C62.0729167,30.653333 59.3480901,25.5233328 54.6588537,21.4699995 C50.0963537,17.2899998 44.7100691,15.2 38.5,15.2 Z M27.8541667,39.52 C29.1215278,39.52 30.1987847,39.9633333 31.0859375,40.85 C31.9730903,41.7366667 32.4166667,42.8133333 32.4166667,44.08 C32.4166667,45.3466667 31.9730903,46.4233333 31.0859375,47.31 C30.1987847,48.1966667 29.1215278,48.64 27.8541667,48.64 C26.5868056,48.64 25.5095486,48.1966667 24.6223958,47.31 C23.7352431,46.4233333 23.2916667,45.3466667 23.2916667,44.08 C23.2916667,42.8133333 23.7352431,41.7366667 24.6223958,40.85 C25.5095486,39.9633333 26.5868056,39.52 27.8541667,39.52 Z M49.1458333,39.52 C50.4131944,39.52 51.4904514,39.9633333 52.3776042,40.85 C53.2647569,41.7366667 53.7083333,42.8133333 53.7083333,44.08 C53.7083333,45.3466667 53.2647569,46.4233333 52.3776042,47.31 C51.4904514,48.1966667 50.4131944,48.64 49.1458333,48.64 C47.8784722,48.64 46.8012153,48.1966667 45.9140625,47.31 C45.0269097,46.4233333 44.5833333,45.3466667 44.5833333,44.08 C44.5833333,42.8133333 45.0269097,41.7366667 45.9140625,40.85 C46.8012153,39.9633333 47.8784722,39.52 49.1458333,39.52 Z" id="child" fill="#000000" fill-rule="nonzero"></path>
    </g>
</svg>