<?xml version="1.0" encoding="UTF-8"?>
<svg width="76px" height="76px" viewBox="0 0 76 76" version="1.1" xmlns="http://www.w3.org/2000/svg" xmlns:xlink="http://www.w3.org/1999/xlink">
    <!-- Generator: Sketch 48.1 (47250) - http://www.bohemiancoding.com/sketch -->
    <title>circle-o-notch</title>
    <desc>Created with Sketch.</desc>
    <defs></defs>
    <g id="circle-o-notch" stroke="none" stroke-width="1" fill="none" fill-rule="evenodd">
        <path d="M44,0.435836577 C51.895368,1.61703542 58.8346042,5.19918704 64.8177086,11.1822914 C72.2725695,18.6371524 76,27.5763886 76,38 C76,48.4236114 72.2725695,57.3628476 64.8177086,64.8177086 C57.3628476,72.2725695 48.4236114,76 38,76 C27.5763886,76 18.6371524,72.2725695 11.1822914,64.8177086 C3.72743047,57.3628476 0,48.4236114 0,38 C0,27.5763886 3.72743047,18.6371524 11.1822914,11.1822914 C17.4167171,4.9478657 24.6892867,1.32033395 33,0.299696163 L33,6.35691953 C26.3122148,7.34009172 20.4455481,10.3544519 15.4,15.4 C9.13333333,21.6666667 6,29.2 6,38 C6,46.8 9.13333333,54.3333333 15.4,60.6 C21.6666667,66.8666667 29.2,70 38,70 C46.8,70 54.3333333,66.8666667 60.6,60.6 C66.8666667,54.3333333 70,46.8 70,38 C70,29.2 66.8666667,21.6666667 60.6,15.4 C55.8074907,10.6074907 50.2741574,7.64754622 44,6.52016649 L44,0.435836577 Z" fill="#000000"></path>
    </g>
</svg>