<?xml version="1.0" encoding="UTF-8"?>
<svg width="76px" height="76px" viewBox="0 0 76 76" version="1.1" xmlns="http://www.w3.org/2000/svg" xmlns:xlink="http://www.w3.org/1999/xlink">
    <!-- Generator: Sketch 48.1 (47250) - http://www.bohemiancoding.com/sketch -->
    <title>circle-thin</title>
    <desc>Created with Sketch.</desc>
    <defs></defs>
    <g id="circle-thin" stroke="none" stroke-width="1" fill="none" fill-rule="evenodd">
        <path d="M38,0 C48.4236114,0 57.3628476,3.72743047 64.8177086,11.1822914 C72.2725695,18.6371524 76,27.5763886 76,38 C76,48.4236114 72.2725695,57.3628476 64.8177086,64.8177086 C57.3628476,72.2725695 48.4236114,76 38,76 C27.5763886,76 18.6371524,72.2725695 11.1822914,64.8177086 C3.72743047,57.3628476 0,48.4236114 0,38 C0,27.5763886 3.72743047,18.6371524 11.1822914,11.1822914 C18.6371524,3.72743047 27.5763886,0 38,0 Z M38,4 C28.65,4 20.6458333,7.32916667 13.9875,13.9875 C7.32916667,20.6458333 4,28.65 4,38 C4,47.35 7.32916667,55.3541667 13.9875,62.0125 C20.6458333,68.6708333 28.65,72 38,72 C47.35,72 55.3541667,68.6708333 62.0125,62.0125 C68.6708333,55.3541667 72,47.35 72,38 C72,28.65 68.6708333,20.6458333 62.0125,13.9875 C55.3541667,7.32916667 47.35,4 38,4 Z" fill="#000000" fill-rule="nonzero"></path>
    </g>
</svg>