<?xml version="1.0" encoding="UTF-8"?>
<svg width="76px" height="56px" viewBox="0 0 76 56" version="1.1" xmlns="http://www.w3.org/2000/svg" xmlns:xlink="http://www.w3.org/1999/xlink">
    <!-- Generator: Sketch 48.1 (47250) - http://www.bohemiancoding.com/sketch -->
    <title>cloud-download</title>
    <desc>Created with Sketch.</desc>
    <defs></defs>
    <g id="cloud-download" stroke="none" stroke-width="1" fill="none" fill-rule="evenodd" transform="translate(0.000000, -10.000000)">
        <path d="M25,36.3973333 C12.7694782,32.691218 6.02809824,40.1954463 6.02809824,47.2602286 C6.02809824,54.3250109 11.8465018,60 19.0898206,60 L48.4193245,60 C40.1073193,60 48.4193245,60 49.6067538,59.8841839 C63.1434478,58.1469423 69.674309,48.4183897 70.1492807,37.9949404 C71.2179671,14.6000875 32.1245758,5.35861757 25,36.3973333 Z M76,37.9934556 C76,52.6332402 64.8533333,65.8726975 50.6666667,65.8726975 C41.8,65.8726975 50.6666667,65.8726975 17.7333333,66 C7.98,66 0,57.9799441 0,48.1776535 C0,38.375363 7.98,30.3553071 17.7333333,30.3553071 C19,30.3553071 20.14,30.4826096 21.28,30.7372145 C31.16,-1.3430091 74.86,5.91323196 76,37.9934556 Z M39.1132231,30 L39.1132231,44.0567477 L34.2818182,39.3519029 L31,42.813807 L41.5,53 L52,42.813807 L48.7181818,39.3519029 L43.8867769,44.0567477 L43.8867769,30 L39.1132231,30 Z" fill="#000000" fill-rule="nonzero"></path>
    </g>
</svg>