<?xml version="1.0" encoding="UTF-8"?>
<svg width="62px" height="76px" viewBox="0 0 62 76" version="1.1" xmlns="http://www.w3.org/2000/svg" xmlns:xlink="http://www.w3.org/1999/xlink">
    <!-- Generator: Sketch 48.1 (47250) - http://www.bohemiancoding.com/sketch -->
    <title>cny</title>
    <desc>Created with Sketch.</desc>
    <defs></defs>
    <g id="cny---f157" stroke="none" stroke-width="1" fill="none" fill-rule="evenodd" transform="translate(-7.000000, 0.000000)">
        <path d="M7,0 C9.05788325,0 13.1736497,0 15.231533,0 C20.8094806,8.96022727 31.9653757,26.8806818 37.5433233,35.8409091 C43.1212709,26.8806818 54.2771661,8.96022727 59.8551136,0 C61.9129969,0 66.0287634,0 68.0866466,0 C62.1296156,9.5 50.2155537,28.5 44.2585227,38 C47.7785865,38 54.8187141,38 58.3387779,38 C58.3387779,39.7272727 58.3387779,43.1818182 58.3387779,44.9090909 C54.0063915,44.9090909 45.3416188,44.9090909 41.0092324,44.9090909 C41.0092324,46.6363636 41.0092324,50.0909091 41.0092324,51.8181818 C45.3416188,51.8181818 54.0063915,51.8181818 58.3387779,51.8181818 C58.3387779,53.5454545 58.3387779,57 58.3387779,58.7272727 C54.0063915,58.7272727 45.3416188,58.7272727 41.0092324,58.7272727 C41.0092324,63.0454545 41.0092324,71.6818182 41.0092324,76 C39.2762779,76 35.8103688,76 34.0774142,76 C34.0774142,71.6818182 34.0774142,63.0454545 34.0774142,58.7272727 C29.7450279,58.7272727 21.0802551,58.7272727 16.7478688,58.7272727 C16.7478688,57 16.7478688,53.5454545 16.7478688,51.8181818 C21.0802551,51.8181818 29.7450279,51.8181818 34.0774142,51.8181818 C34.0774142,50.0909091 34.0774142,46.6363636 34.0774142,44.9090909 C29.7450279,44.9090909 21.0802551,44.9090909 16.7478688,44.9090909 C16.7478688,43.1818182 16.7478688,39.7272727 16.7478688,38 C20.2679325,38 27.3080601,38 30.8281239,38 C24.8710929,28.5 12.957031,9.5 7,0 Z" id="cny" fill="#000000" fill-rule="nonzero"></path>
    </g>
</svg>