<?xml version="1.0" encoding="UTF-8"?>
<svg width="65px" height="76px" viewBox="0 0 65 76" version="1.1" xmlns="http://www.w3.org/2000/svg" xmlns:xlink="http://www.w3.org/1999/xlink">
    <!-- Generator: Sketch 48.1 (47250) - http://www.bohemiancoding.com/sketch -->
    <title>code-fork</title>
    <desc>Created with Sketch.</desc>
    <defs></defs>
    <g id="code-fork---f126" stroke="none" stroke-width="1" fill="none" fill-rule="evenodd" transform="translate(-6.000000, 0.000000)">
        <path d="M63.1816982,26.3829736 C63.0938524,26.8198783 63.0938524,27.256783 63.0060062,27.6936878 C62.5667759,31.1889256 62.1275451,34.7715444 59.6678548,38.3541631 C56.5932418,42.7232106 51.5535424,42.737857 47.9518529,43 C44.3501633,43.262143 36.5995974,43.6426359 33.9289513,44.4113714 C31.2583051,45.1801068 23.2775934,47.0565488 21.9863284,57 C23.655404,58.3107144 25.7592651,60.0246378 26.4620338,62.0343995 C28.3946477,67.4520184 25.4957269,73.4813036 20.0492694,75.4036846 C14.602812,77.3260654 8.54143198,74.4424939 6.60881806,69.0248754 C4.67620414,63.6072566 7.57512502,57.5779714 13.0215824,55.6555907 C13.1438739,21.845963 13.0215824,55.6555907 13.0215824,20.3536883 C10.0348155,19.3051169 7.66297111,16.9458314 6.60881806,13.9748792 C4.67620414,8.55726053 7.48727893,2.52797522 13.0215824,0.605594396 C18.555886,-1.31678642 24.5294199,1.47940386 26.4620338,6.98440348 C28.3946477,12.4020221 24.4464574,18.9468263 19,20.8692071 L19,48 C21.0022376,42.9629202 28.4375654,39.0123873 33.9289513,38 C39.4203371,36.9876127 45.7557006,36.9847334 47.9518529,36.8099714 C51.6413886,36.5478287 53.5740024,35.848781 54.7160016,34.275924 C56.209385,32.1787812 56.4729235,29.8194957 56.8243077,26.8485436 C56.9121539,26.4116388 56.9121539,25.9747341 57,25.5378294 C56.6346598,28.9717364 57,25.5378294 57,25.2756865 C53.0469259,23.7028295 49.9169392,19.9167835 49.9169392,15.7224981 C49.9169392,9.8679747 54.6606279,5.23678455 60.4584697,5.23678455 C66.3441574,5.23678455 71,9.95535567 71,15.7224981 C71,20.4410692 67.8375408,24.6353547 63.1816982,25.771307 C62.6711871,31.0831633 63.2695443,25.771307 63.1816982,26.3829736 Z M12,10.5148797 C12,12.9767747 14.025,14.9910524 16.5,14.9910524 C18.975,14.9910524 21,12.9767747 21,10.5148797 C21,8.05298472 18.975,6.03870699 16.5,6.03870699 C14.025,6.03870699 12,8.05298472 12,10.5148797 Z M21,65.5443517 C21,63.0937448 18.9842851,61.088703 16.5206336,61.088703 C14.0569821,61.088703 12.0412672,63.0937448 12.0412672,65.5443517 C12.0412672,67.9949582 14.0569821,70 16.5206336,70 C18.9842851,70 21,67.9949582 21,65.5443517 Z M65,15.6025075 C65,13.1838866 63.0105945,11.205015 60.5790991,11.205015 C58.1476033,11.205015 56.1581978,13.1838866 56.1581978,15.6025075 C56.1581978,18.0211284 58.1476033,20 60.5790991,20 C63.0105945,20 65,18.0211284 65,15.6025075 Z" id="code-fork" fill="#000000" fill-rule="nonzero"></path>
    </g>
</svg>