<?xml version="1.0" encoding="UTF-8"?>
<svg width="67px" height="76px" viewBox="0 0 67 76" version="1.1" xmlns="http://www.w3.org/2000/svg" xmlns:xlink="http://www.w3.org/1999/xlink">
    <!-- Generator: Sketch 48.1 (47250) - http://www.bohemiancoding.com/sketch -->
    <title>coffee</title>
    <desc>Created with Sketch.</desc>
    <defs></defs>
    <g id="coffee---f0f4" stroke="none" stroke-width="1" fill="none" fill-rule="evenodd" transform="translate(-9.000000, 0.000000)">
        <path d="M27.1538462,0 L33,0 L33,11.6923077 L27.1538462,11.6923077 L27.1538462,0 Z M38,3 L44,3 L44,11.7692308 L38,11.7692308 L38,3 Z M9,14 L61.4347826,14 C61.4347826,20.7435897 61.4347826,24.8461538 61.4347826,26.3076923 C62.8913043,26.3076923 62.8913043,26.3076923 67.2608696,26.3076923 C69.6884058,26.3076923 71.7518116,27.1602564 73.451087,28.8653846 C75.1503623,30.5705128 76,32.6410256 76,35.0769231 C76,38 76,38 76,43.8461538 C76,46.2820513 75.1503623,48.3525641 73.451087,50.0576923 C71.7518116,51.7628205 69.6884058,52.6153846 67.2608696,52.6153846 C65.3188406,52.6153846 62.8913043,52.6153846 61.4347826,52.6153846 C61.4347826,56.2692308 61.4347826,56.2692308 61.4347826,67.2307692 C61.4347826,69.6666667 60.5851449,71.7371795 58.8858696,73.4423077 C57.1865942,75.1474359 55.1231884,76 52.6956522,76 C41.0434783,76 41.0434783,76 17.7391304,76 C15.3115942,76 13.2481884,75.1474359 11.548913,73.4423077 C9.84963768,71.7371795 9,69.6666667 9,67.2307692 C9,56.1880342 9,38.4444444 9,14 Z M15.0769231,20 C15.0769231,27.7647059 15.0769231,43.4479638 15.0769231,67.0497738 C15.0769231,67.9102567 15.3509615,68.6170818 15.8990382,69.1702491 C16.447115,69.7234164 17.1474356,70 18,70 C29.6923077,70 29.6923077,70 53.0769231,70 C53.9294875,70 54.6298081,69.7234164 55.1778848,69.1702491 C55.7259616,68.6170818 56,67.9102567 56,67.0497738 C56,56.5600804 56,40.8768225 56,20 L15.0769231,20 Z M61.6153846,32.1538462 C61.6153846,35.8076923 61.6153846,43.1153846 61.6153846,46.7692308 C63.0128205,46.7692308 63.0128205,46.7692308 67.2051282,46.7692308 C68.0202994,46.7692308 68.6899042,46.4951924 69.2139425,45.9471156 C69.7379808,45.3990389 70,44.6987183 70,43.8461538 C70,40.9230769 70,40.9230769 70,35.0769231 C70,34.2243587 69.7379808,33.5240381 69.2139425,32.9759613 C68.6899042,32.4278845 68.0202994,32.1538462 67.2051282,32.1538462 C65.3418803,32.1538462 63.0128205,32.1538462 61.6153846,32.1538462 Z" id="coffee" fill="#000000" fill-rule="nonzero"></path>
    </g>
</svg>