<?xml version="1.0" encoding="UTF-8"?>
<svg width="76px" height="76px" viewBox="0 0 76 76" version="1.1" xmlns="http://www.w3.org/2000/svg" xmlns:xlink="http://www.w3.org/1999/xlink">
    <!-- Generator: Sketch 48.1 (47250) - http://www.bohemiancoding.com/sketch -->
    <title>cog</title>
    <desc>Created with Sketch.</desc>
    <defs></defs>
    <g id="cog---f013" stroke="none" stroke-width="1" fill="none" fill-rule="evenodd">
        <path d="M32.5213231,1.34343432e-06 C31.8104359,0.0702737058 31.1739801,0.627174232 31.009964,1.3224445 L28.8778681,10.3906262 C27.5117298,10.8437848 26.201726,11.398058 24.9375389,12.0369329 L17.0029034,7.12500122 C16.3528126,6.73050509 15.440963,6.83571845 14.897796,7.36789894 L7.36798891,14.8707397 C6.82323635,15.4174535 6.71726935,16.3476071 7.1250919,17.002842 L12.0100205,24.9914782 C11.3885229,26.2420409 10.8549898,27.5427809 10.4176957,28.8778417 L1.32255236,31.009944 C0.577688594,31.1895812 0.00277655941,31.917023 0.000113112791,32.6832394 L0.000113112791,43.2897733 C-0.00929185921,44.0649647 0.568900515,44.8083561 1.32255236,44.9900574 L10.4176957,47.1221596 C10.8685964,48.467705 11.4088019,49.7676505 12.0370091,51.0085232 L7.1250919,58.9701708 C6.71726935,59.6254056 6.82323635,60.5555592 7.36798891,61.102273 L14.8708075,68.6321024 C15.4175196,69.1768566 16.3476705,69.2828239 17.0029034,68.8750001 L24.9645274,63.9360798 C26.2219307,64.5742207 27.512818,65.1265593 28.8778681,65.5823865 L31.009964,74.6505682 C31.1791801,75.4052016 31.9099032,75.9944969 32.6832545,76 L43.3167455,76 C44.0900968,75.9944727 44.8208199,75.4052016 44.990036,74.6505682 L47.1221319,65.5823865 C48.488227,65.1292366 49.7982602,64.5749979 51.0624611,63.9360798 L58.9970966,68.8750001 C59.6523295,69.2828239 60.5824804,69.1768566 61.1291925,68.6321024 L68.6050225,61.102273 C69.1497751,60.5555592 69.2557421,59.6254056 68.8479195,58.9701708 L63.9629909,51.0355118 C64.5952365,49.7834982 65.1320453,48.4740959 65.5823043,47.1221596 L74.6774476,44.9900574 C75.4310994,44.8083561 76.0092919,44.0649647 75.9998869,43.2897733 L75.9998869,32.6832394 C75.9972096,31.917023 75.4223111,31.1895812 74.6774476,31.009944 L65.6092928,28.8778417 C65.1595693,27.521829 64.595803,26.2201736 63.9629909,24.9644895 L68.8479195,17.002842 C69.2557421,16.3476071 69.1497751,15.4174535 68.6050225,14.8707397 L61.1291925,7.36789894 C60.5824804,6.82314477 59.6523295,6.71717745 58.9970966,7.12500122 L51.0894497,12.0369329 C49.8140733,11.3939384 48.4945238,10.8431371 47.1221319,10.3906262 L44.990036,1.3224445 C44.8103993,0.577578533 44.0829597,0.00266479793 43.3167455,1.34343432e-06 C39.724067,-1.6792929e-06 36.1016284,1.34343432e-06 32.5213231,1.34343432e-06 Z M34.3188979,5.72722932 L41.6811021,5.72722932 L43.5468662,13.744996 C43.6778997,14.3034956 44.1291766,14.7748306 44.6814524,14.9300118 C46.4060316,15.428497 48.0599909,16.0978988 49.5979929,16.94706 C50.0901923,17.2210784 50.7282288,17.2111085 51.2116267,16.9218469 L58.2208485,12.5851932 L63.4147322,17.7790924 L59.0780914,24.7883349 C58.7718108,25.2729517 58.7517582,25.9246568 59.0276654,26.4271866 C59.8755872,27.9662186 60.5753257,29.60741 61.0699206,31.3185285 C61.2327879,31.8616002 61.702315,32.3011585 62.2549329,32.427905 L70.2726759,34.3188877 L70.2726759,41.6559006 L62.2549329,43.5468832 C61.6964349,43.6779172 61.2251014,44.1291954 61.0699206,44.6814729 C60.5753257,46.3926559 59.8755872,48.0085939 59.0276654,49.5476017 C58.7517582,50.0501315 58.7718108,50.7018365 59.0780914,51.1864533 L63.4147322,58.220909 L58.2208485,63.4148081 L51.1864137,59.0529414 C50.7030158,58.7636797 50.0649793,58.7537098 49.5727799,59.0277283 C48.0338089,59.8756146 46.3925787,60.5501156 44.6814524,61.0447765 C44.1291766,61.1999577 43.6778997,61.6712926 43.5468662,62.2297923 L41.6558891,70.272772 L34.3441109,70.272772 L32.4531338,62.2297923 C32.3221003,61.6712926 31.8708234,61.1999577 31.3185476,61.0447765 C29.6209734,60.5541497 27.9924022,59.8744044 26.4524332,59.0277283 C25.9602337,58.7537098 25.3221973,58.7636797 24.8387994,59.0529414 L17.7791515,63.4148081 L12.5600547,58.220909 L16.9219086,51.1612402 C17.2281892,50.6766234 17.2482418,50.0249184 16.9723346,49.5223886 C16.1256392,47.9824126 15.4207644,46.379182 14.9300794,44.6814729 C14.7748986,44.1291954 14.3035651,43.6779172 13.7450671,43.5468832 L5.72732414,41.6559006 L5.72732414,34.2936746 L13.7702801,32.4026919 C14.322898,32.2759454 14.7924251,31.836387 14.9552924,31.2933154 C15.4503552,29.588595 16.119037,27.9603126 16.9471216,26.4523997 C17.2230288,25.9498699 17.2029762,25.2981648 16.8966956,24.813548 L12.5600547,17.7790924 L17.7791515,12.5851932 L24.8135863,16.9218469 C25.2969842,17.2111085 25.9350207,17.2210784 26.4272201,16.94706 C27.9662137,16.0991655 29.6075181,15.4245275 31.3185476,14.9300118 C31.8708234,14.7748306 32.3221003,14.3034956 32.4531338,13.744996 L34.3188979,5.72722932 Z M38,21.2272732 C28.758781,21.2272732 21.2273222,28.7587403 21.2273222,38.0000007 C21.2273222,47.2412144 28.758781,54.7727281 38,54.7727281 C47.241219,54.7727281 54.7726778,47.2412144 54.7726778,38.0000007 C54.7726778,28.7587403 47.241219,21.2272732 38,21.2272732 Z M38,25.9090918 C44.6980647,25.9090918 50.0908731,31.3019049 50.0908731,38.0000007 C50.0908731,44.6981051 44.6980647,50.0909095 38,50.0909095 C31.3019344,50.0909095 25.9091269,44.6981051 25.9091269,38.0000007 C25.9091269,31.3019049 31.3019344,25.9090918 38,25.9090918 Z" id="cog" fill="#000000" fill-rule="nonzero"></path>
    </g>
</svg>