<?xml version="1.0" encoding="UTF-8"?>
<svg width="76px" height="76px" viewBox="0 0 76 76" version="1.1" xmlns="http://www.w3.org/2000/svg" xmlns:xlink="http://www.w3.org/1999/xlink">
    <!-- Generator: Sketch 48.1 (47250) - http://www.bohemiancoding.com/sketch -->
    <title>cogs</title>
    <desc>Created with Sketch.</desc>
    <defs></defs>
    <g id="cogs---f085" stroke="none" stroke-width="1" fill="none" fill-rule="evenodd">
        <path d="M31.0491784,25.6449146 C33.268962,26.4970096 35.5148689,27.3591303 37.7423231,28.2141721 C38.2167361,28.3981907 38.5299182,28.9303756 38.462719,29.4383283 L37.6106163,35.6092173 C38.3530124,36.2184519 39.0390823,36.8764968 39.6756626,37.5816072 L45.7559738,36.3958805 C46.2599885,36.2971197 46.8112761,36.584672 47.0196378,37.0550087 L49.8559152,43.520059 C50.0625922,43.9911531 49.9052973,44.5972928 49.4953625,44.9094547 L44.5579953,48.7192492 C44.6493011,49.6540829 44.6867774,50.601195 44.6405158,51.5551139 L49.7516088,55.0448777 C50.1703569,55.3343426 50.3523967,55.9254835 50.1703645,56.4046551 L47.6275623,63.0288813 C47.4475496,63.5152592 46.9108511,63.8419314 46.4000273,63.7760461 L40.2499044,62.9430341 C39.6466324,63.6802158 38.9998967,64.3702346 38.3077486,65.0016984 L39.4341476,71.1198155 C39.5299115,71.6260969 39.2412178,72.1817973 38.7724033,72.3935946 L32.3322052,75.3170787 C31.8626456,75.5271858 31.260549,75.3719955 30.952077,74.9613502 L27.2166686,69.9883826 C26.2796923,70.0865402 25.3346011,70.1209041 24.3789865,70.0787914 L20.8830916,75.2348236 C20.5972627,75.6658513 20.0029441,75.8599674 19.5221424,75.6793656 L12.9293949,73.1486469 C12.4512377,72.9611562 12.1394677,72.419208 12.2154692,71.9076351 L13.067572,65.7367462 C12.3305228,65.1271877 11.662592,64.4750042 11.0359914,63.7772025 L4.91574423,64.9669385 C4.41172951,65.0656993 3.86044198,64.778147 3.65208027,64.3078103 L0.805540179,57.8194813 C0.598863194,57.3483872 0.756158129,56.7422475 1.16609296,56.4300856 L6.120193,52.6267142 C6.02819138,51.7022268 6.00491273,50.76179 6.04793508,49.8141282 L0.920109232,46.3179413 C0.496407224,46.0250957 0.31614895,45.4232096 0.50782379,44.9413084 L3.050626,38.3170821 C3.23596946,37.8391817 3.76681033,37.5216899 4.27169077,37.5867729 L10.4218137,38.4197849 C11.0130018,37.6900571 11.6556298,37.0046685 12.3407663,36.371553 L11.2273078,30.2197248 C11.131544,29.7134434 11.4202376,29.157743 11.8890521,28.9459457 L18.3562457,26.0521634 C18.8205929,25.8490654 19.411162,26.0003709 19.719641,26.4014688 L23.4615197,31.3575809 C24.3984771,31.2594469 25.3435584,31.2250545 26.2992018,31.2671721 L29.7950967,26.1111399 C30.06347,25.7159494 30.5915825,25.5196149 31.0491784,25.6449146 Z M30.7906308,29.6496231 L27.7116869,34.2130127 C27.496552,34.5306339 27.1037636,34.7176007 26.7241504,34.6830789 C25.54476,34.5847081 24.3654167,34.6154256 23.2079696,34.7786984 C22.8371138,34.8326934 22.4439224,34.6746172 22.2135638,34.3789148 L18.8918914,29.9963314 L14.4108784,31.9980203 L15.4131539,37.4234327 C15.4868657,37.7989896 15.343059,38.2107792 15.0515209,38.4589657 C14.1766039,39.2036406 13.3716591,40.0614284 12.6560326,41.0082754 C12.4248596,41.3086849 12.0283741,41.4714624 11.6553658,41.4191006 L6.21540322,40.6859147 L4.45038888,45.2839343 L8.96803396,48.3731159 C9.28288788,48.5878718 9.46692484,48.9818891 9.43073408,49.3637419 C9.32795056,50.5408132 9.38061454,51.7098549 9.53637171,52.8731439 C9.58695761,53.2526595 9.41828575,53.6549042 9.11221061,53.8846745 L4.71538868,57.2556346 L6.70603902,61.7415623 L12.12872,60.6975547 C12.4977733,60.631945 12.895745,60.7775679 13.1352149,61.065845 C13.8870118,61.9611349 14.7337617,62.7732563 15.6686325,63.4836877 C15.9738396,63.7120438 16.1406331,64.113814 16.0879794,64.4938058 L15.3321645,69.967028 L19.8654553,71.7071953 L22.9660758,67.1340597 C23.1812106,66.8164385 23.573999,66.6294717 23.9536122,66.6639934 C25.1330974,66.7622966 26.3123618,66.7316471 27.469793,66.568374 C27.8406488,66.514379 28.2338402,66.6724551 28.4641988,66.9681575 L31.7798266,71.3664876 L36.2452076,69.3587981 L35.2429321,63.9333857 C35.1692203,63.5578288 35.313027,63.1460392 35.6045651,62.8978528 C36.4992358,62.1384789 37.3204763,61.2957921 38.037362,60.3447975 C38.2659764,60.0368093 38.6663916,59.8671421 39.0440734,59.9182257 L44.468404,60.645411 L46.2273737,56.0631381 L41.7097286,52.9739565 C41.3974925,52.7632776 41.2117658,52.3770098 41.240984,51.9990771 C41.3445581,50.8127005 41.3041793,49.6211732 41.1474355,48.4581818 C41.0968496,48.0786662 41.2655214,47.6764215 41.5715966,47.4466512 L45.9406973,44.1011838 L43.965679,39.6212567 L38.5803067,40.6615188 C38.2112534,40.7271285 37.8132817,40.5815056 37.5738118,40.2932285 C36.8238302,39.3968548 35.95886,38.585151 35.0091301,37.8633847 C34.703923,37.6350285 34.5371295,37.2332584 34.5897832,36.8532665 L35.3551856,31.4017916 L30.7906308,29.6496231 Z M29.3569397,40.2061362 C35.0864807,42.405501 37.9503851,48.901669 35.7348925,54.6732245 C33.5194111,60.4447509 27.0443194,63.3560475 21.3147784,61.1566828 C15.5852373,58.957318 12.7213441,52.4611209 14.9368255,46.6895945 C17.1523181,40.918039 23.6273986,38.0067715 29.3569397,40.2061362 Z M28.2345241,43.1301287 C24.0817341,41.536022 19.4453333,43.6205987 17.839537,47.8038411 C16.2337386,51.9870888 18.2844039,56.6385836 22.4371939,58.2326903 C26.5899834,59.8267968 31.2263827,57.7422257 32.8321811,53.5589779 C34.4379773,49.3757356 32.3873136,44.7242352 28.2345241,43.1301287 Z M55.964686,0.671944576 C57.7639026,0.861049864 59.5842927,1.05237902 61.3897271,1.24213938 C61.7746323,1.28395771 62.1096052,1.61340937 62.1602476,1.99995934 L62.7492181,6.70301695 C63.4148124,7.00457175 64.0486222,7.35309156 64.6553285,7.74594774 L68.8905118,5.67712486 C69.2414854,5.50528682 69.7032776,5.6080579 69.949034,5.91269666 L73.3066843,10.1056026 C73.5513516,10.4111298 73.5551143,10.887584 73.3153086,11.1977328 L70.4368758,14.9700203 C70.6880749,15.6390897 70.9021304,16.3277835 71.0559836,17.0379703 L75.4995791,18.5962348 C75.8643388,18.7265121 76.1145398,19.1251187 76.0751185,19.5131299 L75.5107949,24.8823101 C75.4742769,25.2752198 75.1441646,25.6209962 74.7557632,25.6731695 L70.071727,26.2720812 C69.7735275,26.932669 69.434097,27.567154 69.0497598,28.1675472 L71.0824252,32.442199 C71.252507,32.7954288 71.1497662,33.2606889 70.8469227,33.5086705 L66.689455,36.9255186 C66.3857311,37.1724047 65.9126629,37.176918 65.605086,36.9358635 L61.8804574,34.0166177 C61.2111626,34.2732745 60.5233411,34.4846444 59.8127251,34.6418808 L58.2588044,39.1197115 C58.1336175,39.49278 57.7350537,39.7524821 57.3461261,39.7144331 L52.0024606,39.1527912 C51.6141199,39.1091584 51.2782621,38.7722531 51.2333761,38.3813092 L50.6444056,33.6782516 C49.9826772,33.3754058 49.3633529,33.0276217 48.7654204,32.6381718 L44.5016759,34.7178057 C44.1507023,34.8896437 43.6889101,34.7868727 43.4431537,34.4822339 L40.0733768,30.2742404 C39.8287095,29.9687132 39.8249468,29.4922591 40.0647525,29.1821102 L42.9567479,25.4112482 C42.7070748,24.7499198 42.5047684,24.063336 42.3497667,23.3583858 L37.8926087,21.7986958 C37.5235423,21.6669094 37.2725347,21.2600549 37.3185052,20.8681387 L37.8828288,15.4989585 C37.924934,15.1112294 38.2525492,14.7733537 38.6364245,14.7217611 L43.3204607,14.1228494 C43.6112471,13.4701194 43.9485706,12.8398464 44.3274294,12.2396199 L42.2976358,7.93764406 C42.1275541,7.58441429 42.2302949,7.11915412 42.5331384,6.87117259 L46.7162953,3.47083742 C47.0175687,3.2301291 47.4813998,3.22503083 47.7871017,3.45906708 L51.5131663,6.36465083 C52.1824518,6.10801521 52.8702604,5.89662619 53.5808985,5.73938773 L55.1348193,1.26155707 C55.2542346,0.91826429 55.6037038,0.669969674 55.964686,0.671944576 Z M57.5884915,11.7068691 C52.9444867,11.2187645 48.7589767,14.6335035 48.2672928,19.3115626 C47.7756115,23.9895981 51.1596915,28.1999569 55.8036962,28.6880615 C60.447701,29.176166 64.6332135,25.7614034 65.1248949,21.083368 C65.6165787,16.4053089 62.2324963,12.1949737 57.5884915,11.7068691 Z" id="cogs" fill="#000000" fill-rule="nonzero"></path>
    </g>
</svg>