<?xml version="1.0" encoding="UTF-8"?>
<svg width="76px" height="70px" viewBox="0 0 76 70" version="1.1" xmlns="http://www.w3.org/2000/svg" xmlns:xlink="http://www.w3.org/1999/xlink">
    <!-- Generator: Sketch 48.1 (47250) - http://www.bohemiancoding.com/sketch -->
    <title>comment</title>
    <desc>Created with Sketch.</desc>
    <defs></defs>
    <g id="comment---f075" stroke="none" stroke-width="1" fill="none" fill-rule="evenodd" transform="translate(0.000000, -3.000000)">
        <path d="M16,18 C26.9375,18 48.8125,18 59.75,18 C59.75,19.5 59.75,22.5 59.75,24 C48.8125,24 26.9375,24 16,24 C16,22.5 16,19.5 16,18 Z M16,28 C26.9375,28 48.8125,28 59.75,28 C59.75,29.5 59.75,32.5 59.75,34 C48.8125,34 26.9375,34 16,34 C16,32.5 16,29.5 16,28 Z M16,38 C22.75,38 36.25,38 43,38 C43,39.5 43,42.5 43,44 C36.25,44 22.75,44 16,44 C16,42.5 16,39.5 16,38 Z M0,3 L76,3 L76,60.3663102 L48.0480774,60.3663102 L38,73 L27.9519226,60.3663102 L0,60.3663102 L0,3 Z M6,9 L6,54.6660365 L30.4222028,54.6660365 L38.0769231,63.9328622 L45.7316434,54.6660365 L70.1538462,54.6660365 L70.1538462,9 L6,9 Z" id="comment" fill="#000000" fill-rule="nonzero"></path>
    </g>
</svg>