<?xml version="1.0" encoding="UTF-8"?>
<svg width="76px" height="70px" viewBox="0 0 76 70" version="1.1" xmlns="http://www.w3.org/2000/svg" xmlns:xlink="http://www.w3.org/1999/xlink">
    <!-- Generator: Sketch 48.1 (47250) - http://www.bohemiancoding.com/sketch -->
    <title>comments</title>
    <desc>Created with Sketch.</desc>
    <defs></defs>
    <g id="comments---f086" stroke="none" stroke-width="1" fill="none" fill-rule="evenodd" transform="translate(0.000000, -3.000000)">
        <path d="M-1.13686838e-13,3 L56,3 L56,47 L29.05,47 L11.2,60.1741294 L11.2,47 L-1.13686838e-13,47 L-1.13686838e-13,3 Z M6,9 L6,41 L17,41 L17,49 L26.96875,41 L50,41 L50,9 L6,9 Z M62,14 L76,14 L76,59 L66,59 L66,73 L48.2462687,59 L22,59 L31,53 L50,53 L60,61 L60,53 L70,53 L70,20 L62,20 L62,14 Z" id="comments" fill="#000000"></path>
    </g>
</svg>