<?xml version="1.0" encoding="UTF-8"?>
<svg width="76px" height="76px" viewBox="0 0 76 76" version="1.1" xmlns="http://www.w3.org/2000/svg" xmlns:xlink="http://www.w3.org/1999/xlink">
    <!-- Generator: Sketch 48.1 (47250) - http://www.bohemiancoding.com/sketch -->
    <title>compass</title>
    <desc>Created with Sketch.</desc>
    <defs></defs>
    <g id="compass---f14e" stroke="none" stroke-width="1" fill="none" fill-rule="evenodd">
        <path d="M38,0 C48.474359,0 57.4262821,3.71474359 64.8557692,11.1442308 C72.2852564,18.5737179 76,27.525641 76,38 C76,48.474359 72.2852564,57.4262821 64.8557692,64.8557692 C57.4262821,72.2852564 48.474359,76 38,76 C27.525641,76 18.5737179,72.2852564 11.1442308,64.8557692 C3.71474359,57.4262821 0,48.474359 0,38 C0,27.525641 3.71474359,18.5737179 11.1442308,11.1442308 C18.5737179,3.71474359 27.525641,0 38,0 Z M34.7115385,6.02884569 C27.0384619,6.75961554 20.5224364,9.86538493 15.163462,15.3461538 C9.80448765,20.8269228 6.75961554,27.4038458 6.02884569,35.0769231 C6.94230738,35.0769231 8.0841345,35.0769231 8.76923077,35.0769231 C8.76923077,36.5384615 8.76923077,39.4615385 8.76923077,40.9230769 C8.0841345,40.9230769 8.0841345,40.9230769 6.02884569,40.9230769 C6.75961554,48.5961542 9.86538493,55.1730772 15.3461538,60.6538462 C20.8269228,66.1346151 27.4038458,69.2403845 35.0769231,69.9711543 C35.0769231,69.0576926 35.0769231,67.9158655 35.0769231,67.2307692 C36.5384615,67.2307692 39.4615385,67.2307692 40.9230769,67.2307692 C40.9230769,67.9158655 40.9230769,67.9158655 40.9230769,69.9711543 C48.5961542,69.2403845 55.1730772,66.1346151 60.6538462,60.6538462 C66.1346151,55.1730772 69.2403845,48.5961542 69.9711543,40.9230769 C69.0576926,40.9230769 67.9158655,40.9230769 67.2307692,40.9230769 C67.2307692,39.4615385 67.2307692,36.5384615 67.2307692,35.0769231 C67.9158655,35.0769231 67.9158655,35.0769231 69.9711543,35.0769231 C69.2403845,27.4038458 66.1346151,20.8269228 60.6538462,15.3461538 C55.1730772,9.86538493 48.5961542,6.75961554 40.9230769,6.02884569 C40.9230769,6.94230738 40.9230769,8.0841345 40.9230769,8.76923077 C39.4615385,8.76923077 36.5384615,8.76923077 35.0769231,8.76923077 C35.0769231,8.0841345 35.0769231,6.71394196 35.0769231,6.02884569 C35.0312501,6.02884569 34.9399042,6.02884569 34.8942312,6.02884569 C34.848558,6.02884569 34.848558,6.02884569 34.7115385,6.02884569 Z M55.9038462,20.0961538 C53.1634615,26.3076923 47.6826923,38.7307692 44.9423077,44.9423077 C38.7307692,47.6826923 26.3076923,53.1634615 20.0961538,55.9038462 C22.8365385,49.6923077 28.3173077,37.2692308 31.0576923,31.0576923 C37.2692308,28.3173077 49.6923077,22.8365385 55.9038462,20.0961538 Z M38,33.6153846 C36.7820513,33.6153846 35.7467949,34.0416667 34.8942308,34.8942308 C34.0416667,35.7467949 33.6153846,36.7820513 33.6153846,38 C33.6153846,39.2179487 34.0416667,40.2532051 34.8942308,41.1057692 C35.7467949,41.9583333 36.7820513,42.3846154 38,42.3846154 C39.2179487,42.3846154 40.2532051,41.9583333 41.1057692,41.1057692 C41.9583333,40.2532051 42.3846154,39.2179487 42.3846154,38 C42.3846154,36.7820513 41.9583333,35.7467949 41.1057692,34.8942308 C40.2532051,34.0416667 39.2179487,33.6153846 38,33.6153846 Z" id="compass" fill="#000000" fill-rule="nonzero"></path>
    </g>
</svg>