<?xml version="1.0" encoding="UTF-8"?>
<svg width="76px" height="76px" viewBox="0 0 76 76" version="1.1" xmlns="http://www.w3.org/2000/svg" xmlns:xlink="http://www.w3.org/1999/xlink">
    <!-- Generator: Sketch 48.1 (47250) - http://www.bohemiancoding.com/sketch -->
    <title>copyright</title>
    <desc>Created with Sketch.</desc>
    <defs></defs>
    <g id="copyright---f1f9" stroke="none" stroke-width="1" fill="none" fill-rule="evenodd">
        <path d="M38.4098363,18 C42.3187621,18 45.8233158,19.0494793 48.9234977,21.1484378 C52.0236795,23.2473963 54.3825136,25.9895837 56,29.375 C54.0455375,30.2552082 54.0455375,30.2552082 50.1366125,32.0156245 C47.8451738,27.0052082 43.9362484,24.5 38.4098363,24.5 C34.7704924,24.5 31.7040079,25.7526041 29.2103829,28.2578122 C26.7167579,30.7630204 25.4699454,33.8437497 25.4699454,37.5 C25.4699454,41.1562503 26.7167579,44.2369796 29.2103829,46.7421878 C31.7040079,49.2473959 34.7704924,50.5 38.4098363,50.5 C43.9362484,50.5 47.8451738,47.9947918 50.1366125,42.9843755 C52.091075,43.8645837 52.091075,43.8645837 56,45.625 C54.3825136,49.0104163 52.0236795,51.7526037 48.9234977,53.8515622 C45.8233158,55.9505207 42.3187621,57 38.4098363,57 C33.153006,57 28.6038257,55.1041667 24.7622954,51.3125 C20.9207651,47.5208333 19,42.9166667 19,37.5 C19,32.0833333 20.9207651,27.4791667 24.7622954,23.6875 C28.6038257,19.8958333 33.153006,18 38.4098363,18 Z M38,0 C48.4236114,0 57.3628476,3.72743047 64.8177086,11.1822914 C72.2725695,18.6371524 76,27.5763886 76,38 C76,48.4236114 72.2725695,57.3628476 64.8177086,64.8177086 C57.3628476,72.2725695 48.4236114,76 38,76 C27.5763886,76 18.6371524,72.2725695 11.1822914,64.8177086 C3.72743047,57.3628476 0,48.4236114 0,38 C0,27.5763886 3.72743047,18.6371524 11.1822914,11.1822914 C18.6371524,3.72743047 27.5763886,0 38,0 Z M38,6 C29.2,6 21.6666667,9.13333333 15.4,15.4 C9.13333333,21.6666667 6,29.2 6,38 C6,46.8 9.13333333,54.3333333 15.4,60.6 C21.6666667,66.8666667 29.2,70 38,70 C46.8,70 54.3333333,66.8666667 60.6,60.6 C66.8666667,54.3333333 70,46.8 70,38 C70,29.2 66.8666667,21.6666667 60.6,15.4 C54.3333333,9.13333333 46.8,6 38,6 Z" id="copyright" fill="#000000" fill-rule="nonzero"></path>
    </g>
</svg>