<?xml version="1.0" encoding="UTF-8"?>
<svg width="76px" height="76px" viewBox="0 0 76 76" version="1.1" xmlns="http://www.w3.org/2000/svg" xmlns:xlink="http://www.w3.org/1999/xlink">
    <!-- Generator: Sketch 48.1 (47250) - http://www.bohemiancoding.com/sketch -->
    <title>copy</title>
    <desc>Created with Sketch.</desc>
    <defs></defs>
    <g id="copy---f0c5" stroke="none" stroke-width="1" fill="none" fill-rule="evenodd">
        <path d="M0,0 C0.791666667,0 2.375,0 3.16666667,0 C14.25,0 36.4166667,0 47.5,0 C48.2916667,0 49.875,0 50.6666667,0 C50.6666667,0.791666667 50.6666667,2.375 50.6666667,3.16666667 C50.6666667,4.75 50.6666667,7.91666667 50.6666667,9.5 C49.0833333,9.5 45.9166667,9.5 44.3333333,9.5 C44.3333333,8.70833333 44.3333333,7.125 44.3333333,6.33333333 C34.8333333,6.33333333 15.8333333,6.33333333 6.33333333,6.33333333 C6.33333333,19 6.33333333,44.3333333 6.33333333,57 C10.2916667,57 18.2083333,57 22.1666667,57 C22.1666667,58.5833333 22.1666667,61.75 22.1666667,63.3333333 C17.4166667,63.3333333 7.91666667,63.3333333 3.16666667,63.3333333 C2.375,63.3333333 0.791666667,63.3333333 0,63.3333333 C0,62.5416667 0,60.9583333 0,60.1666667 C0,45.9166667 0,17.4166667 0,3.16666667 C0,2.375 0,0.791666667 0,0 Z M25.3333333,12.6666667 C26.125,12.6666667 27.7083333,12.6666667 28.5,12.6666667 C39.5833333,12.6666667 61.75,12.6666667 72.8333333,12.6666667 C73.625,12.6666667 75.2083333,12.6666667 76,12.6666667 C76,13.4583333 76,15.0416667 76,15.8333333 C76,30.0833333 76,58.5833333 76,72.8333333 C76,73.625 76,75.2083333 76,76 C75.2083333,76 73.625,76 72.8333333,76 C61.75,76 39.5833333,76 28.5,76 C27.7083333,76 26.125,76 25.3333333,76 C25.3333333,75.2083333 25.3333333,73.625 25.3333333,72.8333333 C25.3333333,58.5833333 25.3333333,30.0833333 25.3333333,15.8333333 C25.3333333,15.0416667 25.3333333,13.4583333 25.3333333,12.6666667 Z M31.6666667,19 C31.6666667,31.6666667 31.6666667,57 31.6666667,69.6666667 C41.1666667,69.6666667 60.1666667,69.6666667 69.6666667,69.6666667 C69.6666667,57 69.6666667,31.6666667 69.6666667,19 C60.1666667,19 41.1666667,19 31.6666667,19 Z" id="copy" fill="#000000" fill-rule="nonzero"></path>
    </g>
</svg>