<?xml version="1.0" encoding="UTF-8"?>
<svg width="76px" height="76px" viewBox="0 0 76 76" version="1.1" xmlns="http://www.w3.org/2000/svg" xmlns:xlink="http://www.w3.org/1999/xlink">
    <!-- Generator: Sketch 48.1 (47250) - http://www.bohemiancoding.com/sketch -->
    <title>creative-commons</title>
    <desc>Created with Sketch.</desc>
    <defs></defs>
    <g id="creative-commons---f25e" stroke="none" stroke-width="1" fill="none" fill-rule="evenodd">
        <path d="M34.4442231,33.9963235 C32.9382395,32.4056293 30.9860678,31.6102941 28.5876494,31.6102941 C26.7748913,31.6102941 25.3037905,32.2034254 24.1743028,33.3897059 C23.0448151,34.5759863 22.4800797,36.1127357 22.4800797,38 C22.4800797,39.9411862 23.0448151,41.504896 24.1743028,42.6911765 C25.3037905,43.8774569 26.7748913,44.4705882 28.5876494,44.4705882 C31.2649536,44.4705882 33.2729017,43.621332 34.6115538,41.9227941 L38,44.6323529 C36.9960109,46.0343207 35.671323,47.1127413 34.0258964,47.8676471 C32.3804699,48.6225528 30.4701304,49 28.2948207,49 C26.0916225,49 24.1324787,48.5416713 22.4173307,47.625 C20.7021827,46.7083288 19.3705227,45.4209642 18.4223108,43.7628676 C17.4740988,42.1047711 17,40.1973147 17,38.0404412 C17,35.8566067 17.4810709,33.9289299 18.4432271,32.2573529 C19.4053833,30.585776 20.7440153,29.2916713 22.4591633,28.375 C24.1743114,27.4583288 26.1473992,27 28.3784861,27 C30.4143528,27 32.2340557,27.3437466 33.8376494,28.03125 C35.4412431,28.7187534 36.7450149,29.6960721 37.749004,30.9632353 L34.4442231,33.9963235 Z M56.4442231,33.9963235 C54.9382395,32.4056293 52.9860678,31.6102941 50.5876494,31.6102941 C48.7748913,31.6102941 47.3037905,32.2034254 46.1743028,33.3897059 C45.0448151,34.5759863 44.4800797,36.1127357 44.4800797,38 C44.4800797,39.9411862 45.0448151,41.504896 46.1743028,42.6911765 C47.3037905,43.8774569 48.7748913,44.4705882 50.5876494,44.4705882 C53.2649536,44.4705882 55.2729017,43.621332 56.6115538,41.9227941 L60,44.6323529 C58.9960109,46.0343207 57.671323,47.1127413 56.0258964,47.8676471 C54.3804699,48.6225528 52.4701304,49 50.2948207,49 C48.0916225,49 46.1324787,48.5416713 44.4173307,47.625 C42.7021827,46.7083288 41.3705227,45.4209642 40.4223108,43.7628676 C39.4740988,42.1047711 39,40.1973147 39,38.0404412 C39,35.8566067 39.4810709,33.9289299 40.4432271,32.2573529 C41.4053833,30.585776 42.7440153,29.2916713 44.4591633,28.375 C46.1743114,27.4583288 48.1473992,27 50.3784861,27 C52.4143528,27 54.2340557,27.3437466 55.8376494,28.03125 C57.4412431,28.7187534 58.7450149,29.6960721 59.749004,30.9632353 L56.4442231,33.9963235 Z M38,0 C48.4236114,0 57.3628476,3.72743047 64.8177086,11.1822914 C72.2725695,18.6371524 76,27.5763886 76,38 C76,48.4236114 72.2725695,57.3628476 64.8177086,64.8177086 C57.3628476,72.2725695 48.4236114,76 38,76 C27.5763886,76 18.6371524,72.2725695 11.1822914,64.8177086 C3.72743047,57.3628476 0,48.4236114 0,38 C0,27.5763886 3.72743047,18.6371524 11.1822914,11.1822914 C18.6371524,3.72743047 27.5763886,0 38,0 Z M38,6 C29.2,6 21.6666667,9.13333333 15.4,15.4 C9.13333333,21.6666667 6,29.2 6,38 C6,46.8 9.13333333,54.3333333 15.4,60.6 C21.6666667,66.8666667 29.2,70 38,70 C46.8,70 54.3333333,66.8666667 60.6,60.6 C66.8666667,54.3333333 70,46.8 70,38 C70,29.2 66.8666667,21.6666667 60.6,15.4 C54.3333333,9.13333333 46.8,6 38,6 Z" id="creative-commons" fill="#000000" fill-rule="nonzero"></path>
    </g>
</svg>