<?xml version="1.0" encoding="UTF-8"?>
<svg width="76px" height="76px" viewBox="0 0 76 76" version="1.1" xmlns="http://www.w3.org/2000/svg" xmlns:xlink="http://www.w3.org/1999/xlink">
    <!-- Generator: Sketch 48.1 (47250) - http://www.bohemiancoding.com/sketch -->
    <title>crosshairs</title>
    <desc>Created with Sketch.</desc>
    <defs></defs>
    <g id="crosshairs---f05b" stroke="none" stroke-width="1" fill="none" fill-rule="evenodd">
        <path d="M35.0769231,0 C36.5384615,0 39.4615385,0 40.9230769,0 C40.9230769,1.50721142 40.9230769,1.50721142 40.9230769,6.02884569 C48.5961542,6.75961554 55.1730772,9.86538493 60.6538462,15.3461538 C66.1346151,20.8269228 69.2403845,27.4038458 69.9711543,35.0769231 C71.9807695,35.0769231 74.4927886,35.0769231 76,35.0769231 C76,36.5384615 76,39.4615385 76,40.9230769 C74.4927886,40.9230769 74.4927886,40.9230769 69.9711543,40.9230769 C69.2403845,48.5961542 66.1346151,55.1730772 60.6538462,60.6538462 C55.1730772,66.1346151 48.5961542,69.2403845 40.9230769,69.9711543 C40.9230769,71.9807695 40.9230769,74.4927886 40.9230769,76 C39.4615385,76 36.5384615,76 35.0769231,76 C35.0769231,74.4927886 35.0769231,74.4927886 35.0769231,69.9711543 C27.4038458,69.2403845 20.8269228,66.1346151 15.3461538,60.6538462 C9.86538493,55.1730772 6.75961554,48.5961542 6.02884569,40.9230769 C4.01923046,40.9230769 1.50721142,40.9230769 0,40.9230769 C0,39.4615385 0,36.5384615 0,35.0769231 C1.50721142,35.0769231 1.50721142,35.0769231 6.02884569,35.0769231 C6.75961554,27.4038458 9.86538493,20.8269228 15.3461538,15.3461538 C20.8269228,9.86538493 27.4038458,6.75961554 35.0769231,6.02884569 C35.0769231,4.01923046 35.0769231,1.50721142 35.0769231,0 Z M35.0769231,11.6923077 C28.9871795,12.4230769 23.75,14.9807692 19.3653846,19.3653846 C14.9807692,23.75 12.4230769,28.9871795 11.6923077,35.0769231 C13.6410256,35.0769231 16.0769231,35.0769231 17.5384615,35.0769231 C17.5384615,36.5384615 17.5384615,39.4615385 17.5384615,40.9230769 C16.0769231,40.9230769 16.0769231,40.9230769 11.6923077,40.9230769 C12.4230769,47.0128205 14.9807692,52.25 19.3653846,56.6346154 C23.75,61.0192308 28.9871795,63.5769231 35.0769231,64.3076923 C35.0769231,62.3589744 35.0769231,59.9230769 35.0769231,58.4615385 C36.5384615,58.4615385 39.4615385,58.4615385 40.9230769,58.4615385 C40.9230769,59.9230769 40.9230769,59.9230769 40.9230769,64.3076923 C47.0128205,63.5769231 52.25,61.0192308 56.6346154,56.6346154 C61.0192308,52.25 63.5769231,47.0128205 64.3076923,40.9230769 C62.3589744,40.9230769 59.9230769,40.9230769 58.4615385,40.9230769 C58.4615385,39.4615385 58.4615385,36.5384615 58.4615385,35.0769231 C59.9230769,35.0769231 59.9230769,35.0769231 64.3076923,35.0769231 C63.5769231,28.9871795 61.0192308,23.75 56.6346154,19.3653846 C52.25,14.9807692 47.0128205,12.4230769 40.9230769,11.6923077 C40.9230769,13.6410256 40.9230769,16.0769231 40.9230769,17.5384615 C39.4615385,17.5384615 36.5384615,17.5384615 35.0769231,17.5384615 C35.0769231,16.0769231 35.0769231,16.0769231 35.0769231,11.6923077 Z" id="crosshairs" fill="#000000" fill-rule="nonzero"></path>
    </g>
</svg>