<?xml version="1.0" encoding="UTF-8"?>
<svg width="76px" height="72px" viewBox="0 0 76 72" version="1.1" xmlns="http://www.w3.org/2000/svg" xmlns:xlink="http://www.w3.org/1999/xlink">
    <!-- Generator: Sketch 48.1 (47250) - http://www.bohemiancoding.com/sketch -->
    <title>cubes</title>
    <desc>Created with Sketch.</desc>
    <defs></defs>
    <g id="cubes---f1b3" stroke="none" stroke-width="1" fill="none" fill-rule="evenodd" transform="translate(0.000000, -2.000000)">
        <path d="M38,64.12424 L20.6019909,74 L3.85226184e-14,62.1518489 L0,39.4555468 L17.3539431,30.5858666 L17.3980091,11.8378566 L38,2 L58.6019909,11.8378566 L58.6019909,30.6069319 L76,39.4555468 L76,62.1518489 L55.3980091,74 L38,64.12424 Z M38,7.91717331 L23.903901,14.735989 L38,21.7101066 L52.096099,14.735989 L38,7.91717331 Z M38,27.5853953 L23.903901,20.723911 L23.903901,31.0585732 L38,38.475431 L52.096099,31.0585732 L52.096099,20.723911 L38,27.5853953 Z M56.349045,35.5168443 L40.6904862,43.33566 L55.349045,50.3097776 L70.0076037,42.33566 L56.349045,35.5168443 Z M55.349045,56.1850663 L40.6904862,49.323582 L40.6904862,59.6582442 L55.349045,68.075102 L70.0076037,59.6582442 L70.0076037,48.323582 L55.349045,56.1850663 Z M19.650955,35.5168443 L5.99239628,42.33566 L20.650955,50.3097776 L35.3095138,43.33566 L19.650955,35.5168443 Z M20.650955,56.1850663 L5.99239628,48.323582 L5.99239628,59.6582442 L20.650955,68.075102 L35.3095138,59.6582442 L35.3095138,49.323582 L20.650955,56.1850663 Z" id="cubes" fill="#000000"></path>
    </g>
</svg>