<?xml version="1.0" encoding="UTF-8"?>
<svg width="76px" height="76px" viewBox="0 0 76 76" version="1.1" xmlns="http://www.w3.org/2000/svg" xmlns:xlink="http://www.w3.org/1999/xlink">
    <!-- Generator: Sketch 48.1 (47250) - http://www.bohemiancoding.com/sketch -->
    <title>cutlery</title>
    <desc>Created with Sketch.</desc>
    <defs></defs>
    <g id="cutlery---0f5" stroke="none" stroke-width="1" fill="none" fill-rule="evenodd">
        <path d="M2.18007273,0.546829576 C3.79648829,-1.06297805 6.51887239,1.39409675 6.51887239,1.39409675 L72.1963888,66.8878491 C72.1963888,66.8878491 76.960561,71.124185 74.0680279,74.0896201 C71.0904203,77.1397819 65.7307266,71.5478186 65.7307266,71.5478186 L44.8023988,50.1966858 L38.7621091,50.3661393 L22.5979535,34.9458767 C22.683028,34.9458767 -4.96618553,7.74860053 2.18007273,0.546829576 Z M25.2344701,47 L29,50.9317064 L9.55935744,73.9103457 C9.55935744,73.9103457 5.09326388,78.1041658 1.5904454,74.6093157 C-2.087514,70.9397231 1.76558633,67.0080168 1.76558633,67.0080168 L25.2344701,47 Z M57.3738067,1.37249956 C60.8230471,-2.09887331 64.5246709,1.71117009 61.0754306,5.09787533 C58.8881074,7.29923373 47.783236,18.475361 47.783236,18.475361 L51.0642207,21.7773986 C51.0642207,21.7773986 61.6643253,11.1092771 64.3564153,8.39991294 C67.8056557,4.92854007 71.5072795,8.65391583 68.0580391,12.1252887 C65.1976934,15.0886558 54.7658445,25.5027744 54.7658445,25.5027744 L57.5420624,28.2121386 C57.5420624,28.2121386 68.4786782,17.2053466 70.834257,14.8346529 C74.1993695,11.5326153 78.0692489,15.3426587 74.7041364,18.7293639 C71.6755351,21.692731 63.7675206,29.6514883 61.327814,32.1068496 C58.4674683,34.9855491 51.4848598,34.3928757 48.7086419,31.5988438 C47.783236,30.6674999 45.9324241,28.804812 45.0070181,27.8734681 C41.7260334,24.6560981 40.7164996,18.1366905 44.0816122,14.7499853 C46.9419578,11.8712858 54.9341001,3.82786086 57.3738067,1.37249956 Z" id="cutlery" fill="#000000" fill-rule="nonzero"></path>
    </g>
</svg>