<?xml version="1.0" encoding="UTF-8"?>
<svg width="76px" height="65px" viewBox="0 0 76 65" version="1.1" xmlns="http://www.w3.org/2000/svg" xmlns:xlink="http://www.w3.org/1999/xlink">
    <!-- Generator: Sketch 48.1 (47250) - http://www.bohemiancoding.com/sketch -->
    <title>dashboard</title>
    <desc>Created with Sketch.</desc>
    <defs></defs>
    <g id="dashboard---f0e4" stroke="none" stroke-width="1" fill="none" fill-rule="evenodd" transform="translate(0.000000, -6.000000)">
        <path d="M35.3684728,37.7047641 L56.9498838,24.7359098 L44.0046048,46.3566239 C43.490701,47.2075985 42.7542471,47.9734758 41.84451,48.5206525 C38.8630186,50.3119542 34.9964235,49.343545 33.208378,46.3566239 C31.4203326,43.3688517 32.3869814,39.4960659 35.3684728,37.7047641 Z M38,6 C58.9536838,6 76,23.0773601 76,44.0692039 C76,53.1542097 72.7449928,61.95499 66.8346745,68.8512889 C65.6658619,70.2154013 63.960211,71 62.1653702,71 L13.8337804,71 C12.0389396,71 10.3341381,70.2154013 9.16447604,68.8512889 C3.25500715,61.95499 0,53.1542097 0,44.0692039 C0,23.0773601 17.0463162,6 38,6 Z M13.8337804,64.8355393 L62.1662196,64.8355393 C66.9493473,59.2539963 69.8467454,52.0028409 69.8467454,44.0692039 C69.8467454,26.4489219 55.5882511,12.1653117 38.0008494,12.1653117 C20.4125984,12.1653117 6.15495351,26.4489219 6.15495351,44.0692039 C6.15410408,52.0028409 9.05065272,59.2539963 13.8337804,64.8355393 Z" id="dashboard" fill="#000000" fill-rule="nonzero"></path>
    </g>
</svg>