<?xml version="1.0" encoding="UTF-8"?>
<svg width="69px" height="76px" viewBox="0 0 69 76" version="1.1" xmlns="http://www.w3.org/2000/svg" xmlns:xlink="http://www.w3.org/1999/xlink">
    <!-- Generator: Sketch 48.1 (47250) - http://www.bohemiancoding.com/sketch -->
    <title>database</title>
    <desc>Created with Sketch.</desc>
    <defs></defs>
    <g id="database---f1c0" stroke="none" stroke-width="1" fill="none" fill-rule="evenodd" transform="translate(-4.000000, 0.000000)">
        <path d="M61.9677199,4.17640051 C65.0722624,5.50468553 67.6956921,7.11009387 69.6495117,9.08649302 C71.6033309,11.0628832 72.9084533,13.5542754 72.9084533,16.2540993 C72.9067492,22.5842354 72.9084533,16.2540993 72.9084533,59.5984005 C72.9084533,62.2982063 71.6033309,64.7613344 69.6495117,66.7377426 C67.6956921,68.7141508 65.0722716,70.3196044 61.9677199,71.6478351 C55.7586162,74.3044771 47.531976,75.8524997 38.4567818,75.8524997 C29.3816343,75.8524997 21.1549569,74.3044771 14.9458438,71.6478351 C11.841292,70.3196044 9.21788098,68.7141508 7.26405219,66.7377426 C5.3102234,64.7613344 4.00511028,62.2982063 4.00511028,59.5984005 C3.99361215,46.5756348 4.00511028,59.5984005 4.00511028,16.2540993 C4.00511028,13.5542663 5.3102234,11.0628832 7.26405219,9.08649302 C9.21788098,7.11009387 11.8412826,5.50468553 14.9458438,4.17640051 C21.1549662,1.51983053 29.3816343,0 38.4567818,0 C47.531976,0 55.7586255,1.51983053 61.9677199,4.17640051 Z M17.5436917,9.58828157 C14.9644591,10.6908802 12.9959436,11.9763939 11.7673167,13.2181673 C10.5386897,14.4599319 10.0801576,15.5492035 10.0801576,16.5709626 C10.0801576,17.5927128 10.5386897,18.6542754 11.7673167,19.8960488 C12.9959436,21.1378134 14.9644591,22.4233272 17.5436917,23.5259346 C22.7021571,25.7311229 30.1831873,27.2112385 38.4473064,27.2112385 C46.7114714,27.2112385 54.1924923,25.7311229 59.3509211,23.5259346 C61.9301355,22.4233272 63.8986875,21.1378134 65.1272964,19.8960488 C66.3559049,18.6542754 66.8144553,17.5927217 66.8144553,16.5709626 C66.8144553,15.5491946 66.3559049,14.4599319 65.1272964,13.2181673 C63.8986875,11.9763939 61.9301355,10.6908802 59.3509211,9.58828157 C54.1924923,7.38308441 46.7114714,5.93068675 38.4473064,5.93068675 C30.1831873,5.93068675 22.7021571,7.38308441 17.5436917,9.58828157 Z M11.7684496,34.0492534 C12.9970766,35.330762 19.4925085,41.398273 38.4483184,41.398273 C57.4041283,41.398273 63.8998205,35.330762 65.1284293,34.0492534 C66.3570378,32.7677354 66.8155882,31.6722052 66.8155882,30.6177434 C66.8175928,28.5515068 66.8155882,28.5910241 66.8155882,23.1578001 C64.2948966,30.7579971 47.3729224,33.2913961 38.4542266,33.2913961 C29.5355768,33.2913961 12.6135567,30.7579971 10.0812906,23.1578001 C10.0787415,25.5089996 10.0812906,25.1845193 10.0812906,30.6177434 C10.0812906,31.6721961 10.5398227,32.7677354 11.7684496,34.0492534 Z M11.7684496,48.2362879 C12.9970766,49.5177965 19.4925085,55.5853075 38.4483184,55.5853075 C57.4041283,55.5853075 63.8998205,49.5177965 65.1284293,48.2362879 C66.3570378,46.9547699 66.8155882,45.8592397 66.8155882,44.8047779 C66.8175928,42.7385413 66.8155882,42.7780587 66.8155882,37.3448346 C64.2948966,44.9450316 47.3729224,47.4784306 38.4542266,47.4784306 C29.5355768,47.4784306 12.6135567,44.9450316 10.0812906,37.3448346 C10.0787415,39.6960341 10.0812906,39.3715538 10.0812906,44.8047779 C10.0812906,45.8592306 10.5398227,46.9547699 11.7684496,48.2362879 Z M11.7684496,62.4233224 C12.9970766,63.704831 19.4925085,69.772342 38.4483184,69.772342 C57.4041283,69.772342 63.8998205,63.704831 65.1284293,62.4233224 C66.3570378,61.1418044 66.8155882,60.0462742 66.8155882,58.9918124 C66.8175928,56.9255758 66.8155882,56.9650932 66.8155882,51.5318691 C64.2948966,59.1320661 47.3729224,61.6654652 38.4542266,61.6654652 C29.5355768,61.6654652 12.6135567,59.1320661 10.0812906,51.5318691 C10.0787415,53.8830686 10.0812906,53.5585883 10.0812906,58.9918124 C10.0812906,60.0462651 10.5398227,61.1418044 11.7684496,62.4233224 Z" id="database" fill="#000000"></path>
    </g>
</svg>