<?xml version="1.0" encoding="UTF-8"?>
<svg width="60px" height="76px" viewBox="0 0 60 76" version="1.1" xmlns="http://www.w3.org/2000/svg" xmlns:xlink="http://www.w3.org/1999/xlink">
    <!-- Generator: Sketch 48.1 (47250) - http://www.bohemiancoding.com/sketch -->
    <title>deaf</title>
    <desc>Created with Sketch.</desc>
    <defs></defs>
    <g id="deaf---f2a4" stroke="none" stroke-width="1" fill="none" fill-rule="evenodd" transform="translate(-8.000000, 0.000000)">
        <path d="M47.8243797,57.5066667 C44.8688242,58.52 42.5888242,60.8844444 41.7443797,63.84 C39.6332686,71.0177778 32.9621575,76 25.5310464,76 C25.4390602,73.7554804 25.5310464,76 25.5310464,69.6666667 C30.1754909,69.6666667 34.3977131,66.5422222 35.6643797,62.0666667 C37.0999353,57.0844444 40.8154909,53.2 45.7132686,51.5111111 C55.086602,48.3022222 61.4199353,39.4355556 61.4199353,29.5555556 C61.4199353,16.72 51.0332686,6.33333333 38.1977131,6.33333333 C25.3621575,6.33333333 14.9754909,16.72 14.9754909,29.5555556 C9.06437975,29.5555556 14.9754909,29.5555556 8.64215753,29.5555556 C8.64215753,13.2577778 21.8999353,0 38.1977131,0 C54.4954909,0 67.7532686,13.2577778 67.7532686,29.5555556 C67.7532686,42.2222222 59.7310464,53.4533333 47.8243797,57.5066667 Z M52.9754909,29.5555556 C52.9754909,21.4488889 46.3043797,14.7777778 38.1977131,14.7777778 C30.0910464,14.7777778 23.4199353,21.4488889 23.4199353,29.5555556 C17.5088242,29.5555556 23.4199353,29.5555556 19.1977131,29.5555556 C19.1977131,19.0844444 27.726602,10.4711111 38.1977131,10.4711111 C48.6688242,10.4711111 57.1977131,19 57.1977131,29.4711111 C57.1977131,35.6355556 53.2288242,41.1244444 47.4021575,43.1511111 C46.9672515,42.2173658 46.5014168,40.5051852 46.0510464,39.1822222 C50.1888242,37.8311111 52.9754909,33.9466667 52.9754909,29.5555556 Z M29.7532686,57 L33.9754909,52.7777778 L26.5443797,45.4311111 L33.9754909,38 L29.7532686,33.7777778 L22.3221575,41.2088889 L14.9754909,33.7777778 L10.7532686,38 L18.0999353,45.4311111 L10.7532686,52.7777778 L14.9754909,57 L22.3221575,49.6533333 L29.7532686,57 Z" id="deaf" fill="#000000" fill-rule="nonzero"></path>
    </g>
</svg>