<?xml version="1.0" encoding="UTF-8"?>
<svg width="76px" height="76px" viewBox="0 0 76 76" version="1.1" xmlns="http://www.w3.org/2000/svg" xmlns:xlink="http://www.w3.org/1999/xlink">
    <!-- Generator: Sketch 48.1 (47250) - http://www.bohemiancoding.com/sketch -->
    <title>diamond</title>
    <desc>Created with Sketch.</desc>
    <defs></defs>
    <g id="diamond---f219" stroke="none" stroke-width="1" fill="none" fill-rule="evenodd">
        <path d="M17.8367347,0 C18.2244898,0 19,0 19.3877551,0 C28.6938776,0 47.3061224,0 56.6122449,0 C57,0 57.7755102,0 58.1632653,0 C58.3571429,0.314917127 58.744898,0.944751381 58.9387755,1.25966851 C62.8163265,6.29834254 70.5714286,16.3756906 74.4489796,21.4143646 C74.8367347,21.9392265 75.6122449,22.9889503 76,23.5138122 C75.6122449,24.038674 74.8367347,25.0883978 74.4489796,25.6132597 C65.9183673,37.3701657 48.8571429,60.8839779 40.3265306,72.640884 C39.744898,73.480663 38.5816327,75.160221 38,76 C37.4183673,75.160221 36.255102,73.480663 35.6734694,72.640884 C27.1428571,60.8839779 10.0816327,37.3701657 1.55102041,25.6132597 C1.16326531,25.0883978 0.387755102,24.038674 0,23.5138122 C0.387755102,22.9889503 1.16326531,21.9392265 1.55102041,21.4143646 C5.42857143,16.3756906 13.1836735,6.29834254 17.0612245,1.25966851 C17.255102,0.944751381 17.6428571,0.314917127 17.8367347,0 Z M20.9387755,6.71823204 C18.3214286,10.0773481 13.0867347,16.7955801 10.4693878,20.1546961 C13.8137756,20.1546961 20.5025514,20.1546961 23.8469393,20.1546961 C25.9311228,16.7955801 30.0994899,10.0773481 32.1836735,6.71823204 C29.372449,6.71823204 23.75,6.71823204 20.9387755,6.71823204 Z M43.8163265,6.71823204 C45.9005101,10.0773481 50.0688772,16.7955801 52.1530607,20.1546961 C55.4974486,20.1546961 62.1862244,20.1546961 65.5306122,20.1546961 C62.9132653,16.7955801 57.6785714,10.0773481 55.0612245,6.71823204 C52.25,6.71823204 46.627551,6.71823204 43.8163265,6.71823204 Z M38,9.65745856 C36.3520408,12.281768 33.0561224,17.5303867 31.4081633,20.1546961 C34.7040816,20.1546961 41.2959184,20.1546961 44.5918367,20.1546961 C42.9438776,17.5303867 39.6479592,12.281768 38,9.65745856 Z M10.0816327,26.8729282 C15.2193878,33.9060773 25.494898,47.9723757 30.6326531,55.0055249 C28.7908163,47.9723757 25.1071429,33.9060773 23.2653061,26.8729282 C19.9693878,26.8729282 13.377551,26.8729282 10.0816327,26.8729282 Z M29.6632648,26.8729282 C31.7474486,34.69337 35.9158162,50.3342537 38,58.1546956 C40.0357143,50.3342537 44.1071429,34.69337 46.1428571,26.8729282 C42.0229591,26.8729282 33.7831629,26.8729282 29.6632648,26.8729282 Z M52.7346939,26.8729282 C50.8928571,33.9060773 47.2091837,47.9723757 45.3673469,55.0055249 C50.505102,47.9723757 60.7806122,33.9060773 65.9183673,26.8729282 C62.622449,26.8729282 56.0306122,26.8729282 52.7346939,26.8729282 Z" id="diamond" fill="#000000" fill-rule="nonzero"></path>
    </g>
</svg>