<?xml version="1.0" encoding="UTF-8"?>
<svg width="35px" height="76px" viewBox="0 0 35 76" version="1.1" xmlns="http://www.w3.org/2000/svg" xmlns:xlink="http://www.w3.org/1999/xlink">
    <!-- Generator: Sketch 48.1 (47250) - http://www.bohemiancoding.com/sketch -->
    <title>dollar</title>
    <desc>Created with Sketch.</desc>
    <defs></defs>
    <g id="dollar---f155" stroke="none" stroke-width="1" fill="none" fill-rule="evenodd" transform="translate(-21.000000, 0.000000)">
        <path d="M35.5833333,0 C37.0416667,0 39.9583333,0 41.4166667,0 C41.4166667,1.55288462 41.4166667,4.65865385 41.4166667,6.21153846 C45.5486111,6.82051313 49.0121528,8.76923108 51.8072917,12.0576923 C54.6024306,15.3461535 56,19.1217946 56,23.3846154 C56,24.3589744 56,25.5769231 56,26.3076923 C54.5416667,26.3076923 51.625,26.3076923 50.1666667,26.3076923 C50.1666667,25.5769231 50.1666667,24.1153846 50.1666667,23.3846154 C50.1666667,20.0961535 49.0425348,17.3253201 46.7942711,15.0721152 C44.5460073,12.8189102 41.7812503,11.6923077 38.5,11.6923077 C35.2187497,11.6923077 32.4539927,12.849359 30.2057289,15.1634615 C27.9574652,17.4775641 26.8333333,20.2179487 26.8333333,23.3846154 C26.8333333,26.3076923 27.9878474,28.7435897 30.2968755,30.6923077 C31.8767363,31.9102564 34.9756944,33.4326922 39.59375,35.2596149 C44.6979167,37.330128 48.282986,39.2179487 50.3489579,40.9230769 C54.1163193,43.8461538 56,47.7435897 56,52.6153846 C56,56.8782054 54.6024306,60.6538465 51.8072917,63.9423077 C49.0121528,67.2307689 45.5486111,69.1794869 41.4166667,69.7884615 C41.4166667,71.8589744 41.4166667,74.4471154 41.4166667,76 C39.9583333,76 37.0416667,76 35.5833333,76 C35.5833333,74.4471154 35.5833333,71.3413462 35.5833333,69.7884615 C31.4513889,69.1794869 27.9878472,67.2307689 25.1927083,63.9423077 C22.3975694,60.6538465 21,56.8782054 21,52.6153846 C21,51.6410256 21,50.4230769 21,49.6923077 C22.4583333,49.6923077 25.375,49.6923077 26.8333333,49.6923077 C26.8333333,50.4230769 26.8333333,51.8846154 26.8333333,52.6153846 C26.8333333,55.9038465 27.9574652,58.6746799 30.2057289,60.9278848 C32.4539927,63.1810898 35.2187497,64.3076923 38.5,64.3076923 C41.6597222,64.3076923 44.3940972,63.150641 46.703125,60.8365385 C49.0121528,58.5224359 50.1666667,55.7820513 50.1666667,52.6153846 C50.1666667,49.6923077 49.0121526,47.2564103 46.7031245,45.3076923 C45.0017363,43.9679484 41.9027781,42.3846151 37.40625,40.5576923 C32.1805559,38.4871792 28.5954866,36.6602561 26.6510421,35.0769231 C22.8836807,32.1538462 21,28.2564103 21,23.3846154 C21,19.1217946 22.3975694,15.3461535 25.1927083,12.0576923 C27.9878472,8.76923108 31.4513889,6.82051313 35.5833333,6.21153846 C35.5833333,4.14102564 35.5833333,1.55288462 35.5833333,0 Z" id="dollar" fill="#000000" fill-rule="nonzero"></path>
    </g>
</svg>