<?xml version="1.0" encoding="UTF-8"?>
<svg width="76px" height="76px" viewBox="0 0 76 76" version="1.1" xmlns="http://www.w3.org/2000/svg" xmlns:xlink="http://www.w3.org/1999/xlink">
    <!-- Generator: Sketch 48.1 (47250) - http://www.bohemiancoding.com/sketch -->
    <title>edit</title>
    <desc>Created with Sketch.</desc>
    <defs></defs>
    <g id="edit---f044" stroke="none" stroke-width="1" fill="none" fill-rule="evenodd">
        <path d="M38.7549526,16 L32.496303,22 L6,22 L6,70 L55,70 L55,41.7521029 L61,35.466931 L61,76 L0,76 L0,16 L38.7549526,16 Z M72.9125977,3.15869141 C76.5737305,7.14274089 76.3580729,11.7617188 72.265625,17.015625 L40.625,48.65625 L24.21875,51.78125 L27.34375,35.375 L58.984375,3.734375 C64.608724,-0.633463542 69.2514648,-0.825358073 72.9125977,3.15869141 Z M63.476562,8.226562 L33.203125,38.5 L32.03125,43.96875 L37.5,42.796875 L67.773438,12.523438 C68.9039715,10.7659507 68.9039715,9.33365869 67.773438,8.226562 C66.6429045,7.11946531 65.2106125,7.11946531 63.476562,8.226562 Z" id="edit" fill="#000000" fill-rule="nonzero"></path>
    </g>
</svg>