<?xml version="1.0" encoding="UTF-8"?>
<svg width="64px" height="12px" viewBox="0 0 64 12" version="1.1" xmlns="http://www.w3.org/2000/svg" xmlns:xlink="http://www.w3.org/1999/xlink">
    <!-- Generator: Sketch 48.1 (47250) - http://www.bohemiancoding.com/sketch -->
    <title>ellipsis-h</title>
    <desc>Created with Sketch.</desc>
    <defs></defs>
    <g id="ellipsis-h" stroke="none" stroke-width="1" fill="none" fill-rule="evenodd" transform="translate(-6.000000, -32.000000)">
        <path d="M12,44 C8.6862915,44 6,41.3137085 6,38 C6,34.6862915 8.6862915,32 12,32 C15.3137085,32 18,34.6862915 18,38 C18,41.3137085 15.3137085,44 12,44 Z M38,44 C34.6862915,44 32,41.3137085 32,38 C32,34.6862915 34.6862915,32 38,32 C41.3137085,32 44,34.6862915 44,38 C44,41.3137085 41.3137085,44 38,44 Z M64,44 C60.6862915,44 58,41.3137085 58,38 C58,34.6862915 60.6862915,32 64,32 C67.3137085,32 70,34.6862915 70,38 C70,41.3137085 67.3137085,44 64,44 Z" fill="#000000"></path>
    </g>
</svg>