<?xml version="1.0" encoding="UTF-8"?>
<svg width="76px" height="73px" viewBox="0 0 76 73" version="1.1" xmlns="http://www.w3.org/2000/svg" xmlns:xlink="http://www.w3.org/1999/xlink">
    <!-- Generator: Sketch 48.1 (47250) - http://www.bohemiancoding.com/sketch -->
    <title>eraser</title>
    <desc>Created with Sketch.</desc>
    <defs></defs>
    <g id="eraser---f12d" stroke="none" stroke-width="1" fill="none" fill-rule="evenodd" transform="translate(0.000000, -3.000000)">
        <path d="M40.3584809,4.03035226 L66.1551738,18.9124464 C69.83185,21.0335183 71.0915723,25.7311937 68.9688423,29.404998 L42.0767734,75.9470454 L19.056392,76 L3.84482616,67.2244583 C0.168150006,65.1033864 -1.09157228,60.405711 1.03115769,56.7319067 L29.8577272,6.84182298 C31.9804572,3.16801866 36.6818048,1.90928035 40.3584809,4.03035226 Z M51.5507812,70 L76,70 L76,76 L48,76 L51.5507812,70 Z M39.1401267,9.97949574 C37.3017887,8.91895978 34.9511149,9.54832894 33.8897499,11.3852311 L21.8786792,32.172766 L51.0039777,48.9751304 L63.0150484,28.1875955 C64.0764133,26.3506933 63.4465522,24.0018557 61.6082141,22.9413197 L39.1401267,9.97949574 Z M18.9960223,37.1617743 L7.01821459,57.466859 C5.95684961,59.3037611 6.58671075,61.6525988 8.42504883,62.7131348 L20.768886,70.0658576 L38.8366699,70 L48.1213208,53.9641387 L18.9960223,37.1617743 Z" id="eraser" fill="#000000"></path>
    </g>
</svg>