<?xml version="1.0" encoding="UTF-8"?>
<svg width="60px" height="76px" viewBox="0 0 60 76" version="1.1" xmlns="http://www.w3.org/2000/svg" xmlns:xlink="http://www.w3.org/1999/xlink">
    <!-- Generator: Sketch 48.1 (47250) - http://www.bohemiancoding.com/sketch -->
    <title>euro</title>
    <desc>Created with Sketch.</desc>
    <defs></defs>
    <g id="eur---f153" stroke="none" stroke-width="1" fill="none" fill-rule="evenodd" transform="translate(-8.000000, 0.000000)">
        <path d="M46.0198017,0 C54.6006593,0 61.9273921,3.5625 68,10.6875 C66.3498348,12.0069444 64.2871284,13.65625 63.0495045,14.6458333 C58.2970293,9.10416667 52.6204617,6.33333333 46.0198017,6.33333333 C40.4752473,6.33333333 35.4587456,8.41145842 30.9702968,12.5677086 C26.481848,16.7239588 23.4455444,22.0347226 21.861386,28.5 C30.9702968,28.5 42.3564354,28.5 49.1881185,28.5 C49.1881185,30.0833333 49.1881185,33.25 49.1881185,34.8333333 C42.0594057,34.8333333 27.80198,34.8333333 20.6732672,34.8333333 C20.6732672,35.625 20.6732672,36.6805556 20.6732672,38 C20.6732672,39.3194444 20.6732672,40.375 20.6732672,41.1666667 C30.1782176,41.1666667 42.0594057,41.1666667 49.1881185,41.1666667 C49.1881185,42.75 49.1881185,45.9166667 49.1881185,47.5 C42.3564354,47.5 28.6930691,47.5 21.861386,47.5 C23.4455444,53.9652774 26.481848,59.2760412 30.9702968,63.4322914 C35.4587456,67.5885416 40.4752473,69.6666667 46.0198017,69.6666667 C52.6204617,69.6666667 58.2970293,66.8958333 63.0495045,61.3541667 C64.6996697,62.6736111 66.7623761,64.3229167 68,65.3125 C61.9273921,72.4375 54.6006593,76 46.0198017,76 C38.6270624,76 32.092409,73.2951389 26.4158414,67.8854167 C20.7392738,62.4756944 17.042904,55.6805556 15.3267321,47.5 C12.8844881,47.5 9.83168303,47.5 8,47.5 C8,45.9166667 8,42.75 8,41.1666667 C9.63366323,41.1666667 12.9009897,41.1666667 14.5346529,41.1666667 C14.40264,39.1874997 14.3366336,38.1319441 14.3366336,38 C14.3366336,37.8680559 14.40264,36.8125003 14.5346529,34.8333333 C12.3564353,34.8333333 9.63366323,34.8333333 8,34.8333333 C8,33.25 8,30.0833333 8,28.5 C9.83168303,28.5 13.4950491,28.5 15.3267321,28.5 C17.042904,20.3194444 20.7392738,13.5243056 26.4158414,8.11458333 C32.092409,2.70486111 38.6270624,0 46.0198017,0 Z" id="euro" fill="#000000" fill-rule="nonzero"></path>
    </g>
</svg>