<?xml version="1.0" encoding="UTF-8"?>
<svg width="76px" height="76px" viewBox="0 0 76 76" version="1.1" xmlns="http://www.w3.org/2000/svg" xmlns:xlink="http://www.w3.org/1999/xlink">
    <!-- Generator: Sketch 48.1 (47250) - http://www.bohemiancoding.com/sketch -->
    <title>exclamation-circle</title>
    <desc>Created with Sketch.</desc>
    <defs></defs>
    <g id="exclamation-circle---f06a" stroke="none" stroke-width="1" fill="none" fill-rule="evenodd">
        <path d="M38,0 C48.4236114,0 57.3628476,3.72743047 64.8177086,11.1822914 C72.2725695,18.6371524 76,27.5763886 76,38 C76,48.4236114 72.2725695,57.3628476 64.8177086,64.8177086 C57.3628476,72.2725695 48.4236114,76 38,76 C27.5763886,76 18.6371524,72.2725695 11.1822914,64.8177086 C3.72743047,57.3628476 0,48.4236114 0,38 C0,27.5763886 3.72743047,18.6371524 11.1822914,11.1822914 C18.6371524,3.72743047 27.5763886,0 38,0 Z M38,5.9375 C29.1828125,5.9375 21.6347656,9.07695313 15.3558594,15.3558594 C9.07695313,21.6347656 5.9375,29.1828125 5.9375,38 C5.9375,46.8171875 9.07695313,54.3652344 15.3558594,60.6441406 C21.6347656,66.9230469 29.1828125,70.0625 38,70.0625 C46.8171875,70.0625 54.3652344,66.9230469 60.6441406,60.6441406 C66.9230469,54.3652344 70.0625,46.8171875 70.0625,38 C70.0625,29.1828125 66.9230469,21.6347656 60.6441406,15.3558594 C54.3652344,9.07695313 46.8171875,5.9375 38,5.9375 Z M34.8894471,15 C34.8894471,22.70531 34.8894471,38.1159299 34.8894471,45.8212399 C36.6895563,45.8212399 40.2897748,45.8212399 42.0898841,45.8212399 C42.0898841,38.1159299 42.0898841,22.70531 42.0898841,15 C40.2897748,15 36.6895563,15 34.8894471,15 Z M41.6819805,59.7137357 C41.2760834,60.1098534 40.7877854,60.4232603 40.2170863,60.6539562 C39.6463873,60.8846521 39.0740251,61 38.5,61 C37.9259749,61 37.3536127,60.8846521 36.7829137,60.6539562 C36.2122146,60.4232603 35.7239166,60.1098534 35.3180195,59.7137357 C34.9121224,59.3176179 34.5909782,58.8410844 34.3545869,58.2841353 C34.1181956,57.7271861 34,57.168614 34,56.6084188 C34,56.0482237 34.1181956,55.4896516 34.3545869,54.9327024 C34.5909782,54.3757533 34.9121224,53.8992198 35.3180195,53.503102 C35.7239166,53.1069843 36.2122146,52.7935774 36.7829137,52.5628815 C37.3536127,52.3321856 37.9259749,52.2168377 38.5,52.2168377 C39.0740251,52.2168377 39.6463873,52.3321856 40.2170863,52.5628815 C40.7877854,52.7935774 41.2760834,53.1069843 41.6819805,53.503102 C42.0878776,53.8992198 42.4090218,54.3757533 42.6454131,54.9327024 C42.8818044,55.4896516 43,56.0482237 43,56.6084188 C43,57.168614 42.8818044,57.7271861 42.6454131,58.2841353 C42.4090218,58.8410844 42.0878776,59.3176179 41.6819805,59.7137357 Z" id="exclamation-circle" fill="#000000" fill-rule="nonzero"></path>
    </g>
</svg>