<?xml version="1.0" encoding="UTF-8"?>
<svg width="76px" height="73px" viewBox="0 0 76 73" version="1.1" xmlns="http://www.w3.org/2000/svg" xmlns:xlink="http://www.w3.org/1999/xlink">
    <!-- Generator: Sketch 48.1 (47250) - http://www.bohemiancoding.com/sketch -->
    <title>exclamation-triangle</title>
    <desc>Created with Sketch.</desc>
    <defs></defs>
    <g id="exclamation-triangle---f071" stroke="none" stroke-width="1" fill="none" fill-rule="evenodd" transform="translate(0.000000, -2.000000)">
        <path d="M34.8894471,51.8212399 L42.0898841,51.8212399 L42.0898841,31 L34.8894471,31 L34.8894471,51.8212399 Z M41.6819805,64.7137357 C41.2760834,65.1098534 40.7877854,65.4232603 40.2170863,65.6539562 C39.6463873,65.8846521 39.0740251,66 38.5,66 C37.9259749,66 37.3536127,65.8846521 36.7829137,65.6539562 C36.2122146,65.4232603 35.7239166,65.1098534 35.3180195,64.7137357 C34.9121224,64.3176179 34.5909782,63.8410844 34.3545869,63.2841353 C34.1181956,62.7271861 34,62.168614 34,61.6084188 C34,61.0482237 34.1181956,60.4896516 34.3545869,59.9327024 C34.5909782,59.3757533 34.9121224,58.8992198 35.3180195,58.503102 C35.7239166,58.1069843 36.2122146,57.7935774 36.7829137,57.5628815 C37.3536127,57.3321856 37.9259749,57.2168377 38.5,57.2168377 C39.0740251,57.2168377 39.6463873,57.3321856 40.2170863,57.5628815 C40.7877854,57.7935774 41.2760834,58.1069843 41.6819805,58.503102 C42.0878776,58.8992198 42.4090218,59.3757533 42.6454131,59.9327024 C42.8818044,60.4896516 43,61.0482237 43,61.6084188 C43,62.168614 42.8818044,62.7271861 42.6454131,63.2841353 C42.4090218,63.8410844 42.0878776,64.3176179 41.6819805,64.7137357 Z M65.1517857,69 L38,15.9090909 L10.8482143,69 L65.1517857,69 Z M76,75 L0,75 L38,2 L76,75 Z" id="exclamation-triangle" fill="#000000"></path>
    </g>
</svg>