<?xml version="1.0" encoding="UTF-8"?>
<svg width="11px" height="64px" viewBox="0 0 11 64" version="1.1" xmlns="http://www.w3.org/2000/svg" xmlns:xlink="http://www.w3.org/1999/xlink">
    <!-- Generator: Sketch 48.1 (47250) - http://www.bohemiancoding.com/sketch -->
    <title>exclamation</title>
    <desc>Created with Sketch.</desc>
    <defs></defs>
    <g id="exclamation---f12a" stroke="none" stroke-width="1" fill="none" fill-rule="evenodd" transform="translate(-31.000000, -6.000000)">
        <path d="M32,6 C34.25,6 38.75,6 41,6 C41,17.25 41,39.75 41,51 C38.75,51 34.25,51 32,51 C32,39.75 32,17.25 32,6 Z M40.3890873,68.3890873 C39.8929909,68.8851837 39.2961821,69.2776933 38.598661,69.566616 C37.90114,69.8555387 37.2015863,70 36.5,70 C35.7984137,70 35.09886,69.8555387 34.401339,69.566616 C33.7038179,69.2776933 33.1070091,68.8851837 32.6109127,68.3890873 C32.1148163,67.8929909 31.7223067,67.2961821 31.433384,66.598661 C31.1444613,65.90114 31,65.2015863 31,64.5 C31,63.7984137 31.1444613,63.09886 31.433384,62.401339 C31.7223067,61.7038179 32.1148163,61.1070091 32.6109127,60.6109127 C33.1070091,60.1148163 33.7038179,59.7223067 34.401339,59.433384 C35.09886,59.1444613 35.7984137,59 36.5,59 C37.2015863,59 37.90114,59.1444613 38.598661,59.433384 C39.2961821,59.7223067 39.8929909,60.1148163 40.3890873,60.6109127 C40.8851837,61.1070091 41.2776933,61.7038179 41.566616,62.401339 C41.8555387,63.09886 42,63.7984137 42,64.5 C42,65.2015863 41.8555387,65.90114 41.566616,66.598661 C41.2776933,67.2961821 40.8851837,67.8929909 40.3890873,68.3890873 Z" id="exclamation" fill="#000000"></path>
    </g>
</svg>