<?xml version="1.0" encoding="UTF-8"?>
<svg width="76px" height="76px" viewBox="0 0 76 76" version="1.1" xmlns="http://www.w3.org/2000/svg" xmlns:xlink="http://www.w3.org/1999/xlink">
    <!-- Generator: Sketch 48.1 (47250) - http://www.bohemiancoding.com/sketch -->
    <title>eyedropper</title>
    <desc>Created with Sketch.</desc>
    <defs></defs>
    <g id="eyedropper---f1fb" stroke="none" stroke-width="1" fill="none" fill-rule="evenodd">
        <path d="M72.5036392,3.61978718 C78.8596977,10.1705865 75.1073763,20.146295 72.5036392,22.7643556 C70.5074408,24.7279012 67.5131432,27.6732195 63.5207463,31.6003107 L66.6452308,34.7419834 L62.3490647,39.2581374 L59.2245802,36.1164647 C48.2888845,46.7353185 40.3474864,54.531903 35.400386,59.5062182 C32.2759015,62.5169875 29.6721644,64.611436 27.5891748,65.7895636 C26.0269325,66.7058845 24.2043166,67.3603997 22.1213269,67.7531091 C20.9496456,67.8840118 19.9081508,68.2112692 18.9968425,68.7348813 C17.9553476,69.2584939 15.0912369,71.6802001 10.4045101,76 L-0.140625,65.3968545 C4.19893656,60.6843455 6.67248677,57.8044788 7.28002565,56.7572545 C7.80077306,55.840933 8.19133362,54.6628057 8.45170733,53.2228727 C8.71208103,51.2593276 9.23282845,49.5575882 10.0139496,48.1176545 C11.1856316,45.8923034 13.2686212,43.2742428 16.2629185,40.2634727 C22.8590524,33.6310525 30.8004505,25.834468 40.0871127,16.8737193 L36.9626282,13.7320465 L41.4540742,9.41224653 L44.5785587,12.5539193 C48.9723652,8.03776471 51.9015696,5.02699501 53.3661718,3.52161016 C55.9699088,0.903549556 66.1475807,-2.93101212 72.5036392,3.61978718 Z M57.6623379,8.23411925 C55.7529307,10.1540304 52.88882,13.033897 49.0700056,16.8737193 L59.2245802,27.0841556 C63.5207463,22.7643556 66.3848571,19.884489 67.8169125,18.4445556 C69.3791547,17.004622 71.4143024,11.7994301 68.0121923,8.23411925 C64.6100822,4.66880839 59.0943937,6.66328289 57.6623379,8.23411925 Z M44.5785587,21.1935193 C33.642863,31.8123731 25.7014649,39.6089576 20.7543645,44.5832727 C18.2808146,47.2013333 16.5232922,49.3612335 15.4817974,51.0629732 C15.0912372,51.9792941 14.7657699,53.0919697 14.5053955,54.401 C14.1148353,56.4954485 13.5289946,58.2626396 12.7478735,59.7025732 C12.3573126,60.4879907 10.9252572,62.2551815 8.45170733,65.0041455 C9.23282845,65.7895636 10.2092298,66.7713364 10.7950707,67.3604 C13.5289949,64.8732428 15.221424,63.4333094 15.872358,63.0406 C17.3044137,62.3860852 19.0619364,61.8624731 21.144926,61.4697636 C22.4467939,61.2079576 23.553382,60.8152485 24.4646903,60.2916364 C26.1571191,59.3753155 28.3702956,57.6081247 31.1042198,54.9900641 C37.7003537,48.3576439 45.6417518,40.5610594 54.928414,31.6003107 L44.5785587,21.1935193 Z" id="eyedropper" fill="#000000" fill-rule="nonzero"></path>
    </g>
</svg>