<?xml version="1.0" encoding="UTF-8"?>
<svg width="76px" height="76px" viewBox="0 0 76 76" version="1.1" xmlns="http://www.w3.org/2000/svg" xmlns:xlink="http://www.w3.org/1999/xlink">
    <!-- Generator: Sketch 48.1 (47250) - http://www.bohemiancoding.com/sketch -->
    <title>fax</title>
    <desc>Created with Sketch.</desc>
    <defs></defs>
    <g id="fax---f1ac" stroke="none" stroke-width="1" fill="none" fill-rule="evenodd">
        <path d="M26,0 L63,0 L63,15.2 L76,15.2 L76,64 C50.9333333,64 34.6,64 27,64 C27,64.76 27,66.24 27,67 C27,69.5333333 26.4333333,71.5666667 24.66,73.34 C22.8866667,75.1133333 20.7333333,76 18.2,76 C15.6666667,76 13.5133333,75.1133333 11.74,73.34 C9.96666667,71.5666667 9,69.5733333 9,67.04 C9,66.0266667 9,64.76 9,64 C8.49333333,64 5.49333333,64 0,64 L0,9.12 L18,8.92 L18,15 L26,15 L26,0 Z M32,6 C32,9.75 32,17.25 32,21 C38.25,21 50.75,21 57,21 C57,17.25 57,9.75 57,6 C50.75,6 38.25,6 32,6 Z M6,15 C6,25.75 6,47.25 6,58 C7.5,58 10.5,58 12,58 C12,48.0178571 12,28.0535714 12,18.0714286 C12,17.3035714 12,15.7678571 12,15 C10.5,15 7.5,15 6,15 Z M18,21 L18,58 L70,58 L70,21 L63,21 L63,27 L26,27 L26,21 L18,21 Z M26,33 C27.5,33 30.5,33 32,33 C32,34.5 32,37.5 32,39 C30.5,39 27.5,39 26,39 C26,37.5 26,34.5 26,33 Z M42,33 C43.5,33 46.5,33 48,33 C48,34.5 48,37.5 48,39 C46.5,39 43.5,39 42,39 C42,37.5 42,34.5 42,33 Z M57,33 C58.5,33 61.5,33 63,33 C63,34.5 63,37.5 63,39 C61.5,39 58.5,39 57,39 C57,37.5 57,34.5 57,33 Z M26,44 C27.5,44 30.5,44 32,44 C32,45.5 32,48.5 32,50 C30.5,50 27.5,50 26,50 C26,48.5 26,45.5 26,44 Z M42,44 C43.5,44 46.5,44 48,44 C48,45.5 48,48.5 48,50 C46.5,50 43.5,50 42,50 C42,48.5 42,45.5 42,44 Z M57,44 C58.5,44 61.5,44 63,44 C63,45.5 63,48.5 63,50 C61.5,50 58.5,50 57,50 C57,48.5 57,45.5 57,44 Z M15,64 C15,64.74 15,66.22 15,66.96 C15,67.8233336 15.2812499,68.5325004 15.8437498,69.0875002 C16.4062496,69.6425001 17.1249997,69.92 18,69.92 C18.8750003,69.92 19.5937504,69.6425001 20.1562502,69.0875002 C20.7187501,68.5325004 21,67.8233336 21,66.96 C21,65.9733333 21,64.74 21,64 C20.25,64 18.75,64 18,64 C17.25,64 15.75,64 15,64 Z" id="fax" fill="#000000" fill-rule="nonzero"></path>
    </g>
</svg>