<?xml version="1.0" encoding="UTF-8"?>
<svg width="76px" height="68px" viewBox="0 0 76 68" version="1.1" xmlns="http://www.w3.org/2000/svg" xmlns:xlink="http://www.w3.org/1999/xlink">
    <!-- Generator: Sketch 48.1 (47250) - http://www.bohemiancoding.com/sketch -->
    <title>female</title>
    <desc>Created with Sketch.</desc>
    <defs></defs>
    <g id="female---f182" stroke="none" stroke-width="1" fill="none" fill-rule="evenodd" transform="translate(0.000000, -4.000000)">
        <path d="M44.2115385,4 C44.6682692,4 45.5817308,4 46.0384615,4 C46.2211538,4.36538462 46.5865385,5.09615385 46.7692308,5.46153846 C47.454327,6.64903846 48.8245196,9.02403846 49.5096159,10.2115385 C55.8429492,10.9423077 61.141026,14.1089744 65.4038462,19.7115385 C72.4679487,29.2115385 76,44.4358974 76,65.3846154 C76,66.3589744 76,67.5769231 76,68.3076923 C75.2692308,68.3076923 73.8076923,68.3076923 73.0769231,68.3076923 C66.7740385,68.3076923 54.1682692,68.3076923 47.8653846,68.3076923 C44.6987179,70.2564103 41.4102564,71.2307692 38,71.2307692 C34.5897436,71.2307692 31.3012821,70.2564103 28.1346154,68.3076923 C19.7307692,68.3076923 9.22596154,68.3076923 2.92307692,68.3076923 C2.19230769,68.3076923 0.730769231,68.3076923 0,68.3076923 C0,67.5769231 0,66.1153846 0,65.3846154 C0,41.1474356 4.87179487,24.1570508 14.6153846,14.4134611 C21.4358974,7.47115369 31.3012821,4 44.2115385,4 Z M42.5673072,10.0288457 C31.9711537,10.2724361 23.9935897,13.1346157 18.6346154,18.6153846 C10.5961538,26.6538462 6.39423061,41.2692308 6.02884569,62.4615385 C11.3269228,62.4615385 17.9495191,62.4615385 21.9230769,62.4615385 C21.557692,62.0961535 21.1923074,61.608974 20.8269231,61 C16.6858974,55.1538462 14.6153846,48.8205128 14.6153846,42 C14.6153846,39.5641026 15.224359,37.5544873 16.4423077,35.9711543 C17.5384619,34.5096159 19.0608979,33.4134617 21.0096159,32.6826918 C22.9583338,31.9519232 26.5512824,31.3429492 31.7884615,30.8557697 C36.4166667,30.4903848 39.4615385,29.9423077 40.9230769,29.2115385 C42.0192305,28.724359 42.7804483,28.1762821 43.2067305,27.5673077 C43.6330127,26.9583333 43.8461538,25.9230769 43.8461538,24.4615385 C45.7948718,24.4615385 48.2307692,24.4615385 49.6923077,24.4615385 C49.6923077,29.2115388 47.6217949,32.5608979 43.4807692,34.5096159 C41.166667,35.6057694 37.5128208,36.3365386 32.5192308,36.7019235 C27.7692311,37.0673078 24.663462,37.5544873 23.2019235,38.163462 C22.2275646,38.5288463 21.5576926,38.9551282 21.1923077,39.4423077 C20.7051282,40.0512824 20.4615385,40.9038465 20.4615385,42 C20.4615385,47.6025641 22.1666667,52.8397436 25.5769231,57.7115385 C29.108974,62.8269231 33.2499997,65.3846154 38,65.3846154 C42.7500003,65.3846154 46.891026,62.8269231 50.4230769,57.7115385 C53.8333333,52.9615388 55.5384615,47.7243593 55.5384615,42 C57.4871795,42 59.9230769,42 61.3846154,42 C61.3846154,48.8205128 59.3141026,55.2147434 55.1730769,61.1826918 C54.6858974,61.9134617 54.3814101,62.3397439 54.2596149,62.4615385 C59.4967947,62.4615385 66.0432695,62.4615385 69.9711543,62.4615385 C69.6057694,44.0705125 66.5,31.0384612 60.6538462,23.3653846 C56.8782048,18.25 52.4935894,15.6923077 47.5,15.6923077 C46.8910256,15.6923077 46.1298077,15.6923077 45.6730769,15.6923077 C45.4903846,15.3269231 45.125,14.5961538 44.9423077,14.2307692 C44.3485576,13.1802883 43.1610573,11.0793266 42.5673072,10.0288457 Z M29.2307692,42 C30.0833336,42 30.7836542,42.2740384 31.331731,42.8221152 C31.8798078,43.3701919 32.1538462,44.0705125 32.1538462,44.9230769 C32.1538462,45.7756413 31.8798078,46.4759619 31.331731,47.0240387 C30.7836542,47.5721155 30.0833336,47.8461538 29.2307692,47.8461538 C28.3782048,47.8461538 27.6778842,47.5721155 27.1298075,47.0240387 C26.5817307,46.4759619 26.3076923,45.7756413 26.3076923,44.9230769 C26.3076923,44.0705125 26.5817307,43.3701919 27.1298075,42.8221152 C27.6778842,42.2740384 28.3782048,42 29.2307692,42 Z M46.7692308,42 C47.6217952,42 48.3221158,42.2740384 48.8701925,42.8221152 C49.4182693,43.3701919 49.6923077,44.0705125 49.6923077,44.9230769 C49.6923077,45.7756413 49.4182693,46.4759619 48.8701925,47.0240387 C48.3221158,47.5721155 47.6217952,47.8461538 46.7692308,47.8461538 C45.9166664,47.8461538 45.2163458,47.5721155 44.668269,47.0240387 C44.1201922,46.4759619 43.8461538,45.7756413 43.8461538,44.9230769 C43.8461538,44.0705125 44.1201922,43.3701919 44.668269,42.8221152 C45.2163458,42.2740384 45.9166664,42 46.7692308,42 Z" id="female" fill="#000000" fill-rule="nonzero"></path>
    </g>
</svg>