<?xml version="1.0" encoding="UTF-8"?>
<svg width="61px" height="76px" viewBox="0 0 61 76" version="1.1" xmlns="http://www.w3.org/2000/svg" xmlns:xlink="http://www.w3.org/1999/xlink">
    <!-- Generator: Sketch 48.1 (47250) - http://www.bohemiancoding.com/sketch -->
    <title>file-code-o</title>
    <desc>Created with Sketch.</desc>
    <defs></defs>
    <g id="file-code-o---f1c9" stroke="none" stroke-width="1" fill="none" fill-rule="evenodd" transform="translate(-8.000000, 0.000000)">
        <path d="M10,0 L51.7573593,1.77635684e-15 C52.5530088,1.6301984e-15 53.3160705,0.316070521 53.8786797,0.878679656 L68.1213203,15.1213203 C68.6839295,15.6839295 69,16.4469912 69,17.2426407 L69,74 C69,75.1045695 68.1045695,76 67,76 L10,76 C8.8954305,76 8,75.1045695 8,74 L8,2 C8,0.8954305 8.8954305,2.02906125e-16 10,0 Z M53,5 L53,16 C53,16.5522847 53.4477153,17 54,17 L65,17 L53,5 Z M49,4 L13,4 C12.4477153,4 12,4.44771525 12,5 L12,71 C12,71.5522847 12.4477153,72 13,72 L64,72 C64.5522847,72 65,71.5522847 65,71 L65,21 L51,21 C49.8954305,21 49,20.1045695 49,19 L49,4 Z M32.5346663,48.908 L21.9786663,44.046 L21.9786663,41.108 L32.5346663,36.246 L32.5346663,39.808 L26.2686663,42.59 L32.5346663,45.346 L32.5346663,48.908 Z M44.5235554,29.564 L37.1135554,51.924 L33.9415554,51.924 L41.3515554,29.564 L44.5235554,29.564 Z M56.4084446,44.046 L45.8524446,48.908 L45.8524446,45.346 L52.1184446,42.59 L45.8524446,39.808 L45.8524446,36.246 L56.4084446,41.108 L56.4084446,44.046 Z" id="file-code-o" fill="#000000"></path>
    </g>
</svg>