<?xml version="1.0" encoding="UTF-8"?>
<svg width="61px" height="76px" viewBox="0 0 61 76" version="1.1" xmlns="http://www.w3.org/2000/svg" xmlns:xlink="http://www.w3.org/1999/xlink">
    <!-- Generator: Sketch 48.1 (47250) - http://www.bohemiancoding.com/sketch -->
    <title>file-movie-o</title>
    <desc>Created with Sketch.</desc>
    <defs></defs>
    <g id="file-movie-o---f1c8" stroke="none" stroke-width="1" fill="none" fill-rule="evenodd" transform="translate(-8.000000, 0.000000)">
        <path d="M10,0 L51.7573593,1.77635684e-15 C52.5530088,1.6301984e-15 53.3160705,0.316070521 53.8786797,0.878679656 L68.1213203,15.1213203 C68.6839295,15.6839295 69,16.4469912 69,17.2426407 L69,74 C69,75.1045695 68.1045695,76 67,76 L10,76 C8.8954305,76 8,75.1045695 8,74 L8,2 C8,0.8954305 8.8954305,2.02906125e-16 10,0 Z M53,5 L53,16 C53,16.5522847 53.4477153,17 54,17 L65,17 L53,5 Z M49,4 L13,4 C12.4477153,4 12,4.44771525 12,5 L12,71 C12,71.5522847 12.4477153,72 13,72 L64,72 C64.5522847,72 65,71.5522847 65,71 L65,21 L51,21 C49.8954305,21 49,20.1045695 49,19 L49,4 Z M27,27 C28.171875,27.6835938 30.515625,29.0507812 31.6875,29.734375 C35.59375,32.078125 43.40625,36.765625 47.3125,39.109375 C48.435547,39.7929688 50.681641,41.1601562 51.804688,41.84375 C50.681641,42.5273438 48.435547,43.8945312 47.3125,44.578125 C43.40625,46.921875 35.59375,51.609375 31.6875,53.953125 C30.515625,54.6367188 28.171875,56.0039062 27,56.6875 C27,55.3203125 27,52.5859375 27,51.21875 C27,46.53125 27,37.15625 27,32.46875 C27,31.1015625 27,28.3671875 27,27 Z M33.25,37.9375 C33.25,39.890625 33.25,43.796875 33.25,45.75 C34.9101562,44.7734375 38.2304688,42.8203125 39.890625,41.84375 C38.2304688,40.8671875 34.9101562,38.9140625 33.25,37.9375 Z" id="file-movie-o" fill="#000000"></path>
    </g>
</svg>