<?xml version="1.0" encoding="UTF-8"?>
<svg width="61px" height="76px" viewBox="0 0 61 76" version="1.1" xmlns="http://www.w3.org/2000/svg" xmlns:xlink="http://www.w3.org/1999/xlink">
    <!-- Generator: Sketch 48.1 (47250) - http://www.bohemiancoding.com/sketch -->
    <title>file-word-o</title>
    <desc>Created with Sketch.</desc>
    <defs></defs>
    <g id="file-word-o---f1c2" stroke="none" stroke-width="1" fill="none" fill-rule="evenodd" transform="translate(-8.000000, 0.000000)">
        <path d="M10,0 L51.7573593,1.77635684e-15 C52.5530088,1.6301984e-15 53.3160705,0.316070521 53.8786797,0.878679656 L68.1213203,15.1213203 C68.6839295,15.6839295 69,16.4469912 69,17.2426407 L69,74 C69,75.1045695 68.1045695,76 67,76 L10,76 C8.8954305,76 8,75.1045695 8,74 L8,2 C8,0.8954305 8.8954305,2.02906125e-16 10,0 Z M53,5 L53,16 C53,16.5522847 53.4477153,17 54,17 L65,17 L53,5 Z M49,4 L13,4 C12.4477153,4 12,4.44771525 12,5 L12,71 C12,71.5522847 12.4477153,72 13,72 L64,72 C64.5522847,72 65,71.5522847 65,71 L65,21 L51,21 C49.8954305,21 49,20.1045695 49,19 L49,4 Z M29.1426663,40.666 C29.1426663,43.448 29.3506663,46.152 27.2706663,48.232 C26.0486663,49.454 24.3066663,50 22.3826663,50 L15.7006663,50 L15.7006663,31.488 L22.3826663,31.488 C24.3066663,31.488 26.0486663,32.034 27.2706663,33.256 C29.3506663,35.336 29.1426663,37.884 29.1426663,40.666 Z M25.5286663,40.666 C25.5286663,37.858 25.4246663,36.688 24.7486663,35.856 C24.1246663,35.102 23.2926663,34.712 22.0446663,34.712 L19.3146663,34.712 L19.3146663,46.776 L22.0446663,46.776 C23.2926663,46.776 24.1246663,46.386 24.7486663,45.632 C25.4246663,44.8 25.5286663,43.474 25.5286663,40.666 Z M45.5255554,40.744 C45.5255554,43.942 45.5515554,46.256 43.6795554,48.128 C42.3795554,49.428 40.7935554,50.156 38.6875554,50.156 C36.5815554,50.156 34.9695554,49.428 33.6695554,48.128 C31.7975554,46.256 31.8495554,43.942 31.8495554,40.744 C31.8495554,37.546 31.7975554,35.232 33.6695554,33.36 C34.9695554,32.06 36.5815554,31.332 38.6875554,31.332 C40.7935554,31.332 42.3795554,32.06 43.6795554,33.36 C45.5515554,35.232 45.5255554,37.546 45.5255554,40.744 Z M41.9115554,40.744 C41.9115554,37.182 41.7035554,36.324 41.0015554,35.544 C40.4815554,34.946 39.6755554,34.556 38.6875554,34.556 C37.6995554,34.556 36.8675554,34.946 36.3475554,35.544 C35.6455554,36.324 35.4635554,37.182 35.4635554,40.744 C35.4635554,44.306 35.6455554,45.164 36.3475554,45.944 C36.8675554,46.542 37.6995554,46.932 38.6875554,46.932 C39.6755554,46.932 40.4815554,46.542 41.0015554,45.944 C41.7035554,45.164 41.9115554,44.306 41.9115554,40.744 Z M61.8564446,44.306 C61.2324446,48.076 58.5804446,50.156 55.0444446,50.156 C53.0684446,50.156 51.4044446,49.48 50.0524446,48.128 C49.2464446,47.322 48.7524446,46.386 48.5444446,45.346 C48.3364446,44.306 48.2324446,42.772 48.2324446,40.744 C48.2324446,38.716 48.3364446,37.182 48.5444446,36.142 C48.7524446,35.076 49.2464446,34.166 50.0524446,33.36 C51.4044446,32.008 53.0684446,31.332 55.0444446,31.332 C58.6064446,31.332 61.2324446,33.412 61.8564446,37.182 L58.1904446,37.182 C57.8004446,35.596 56.8124446,34.556 55.0704446,34.556 C54.0824446,34.556 53.3024446,34.868 52.7564446,35.518 C52.0024446,36.324 51.8464446,37.156 51.8464446,40.744 C51.8464446,44.332 52.0024446,45.164 52.7564446,45.97 C53.3024446,46.62 54.0824446,46.932 55.0704446,46.932 C56.8124446,46.932 57.8004446,45.892 58.1904446,44.306 L61.8564446,44.306 Z" id="file-word-o" fill="#000000"></path>
    </g>
</svg>