<?xml version="1.0" encoding="UTF-8"?>
<svg width="61px" height="76px" viewBox="0 0 61 76" version="1.1" xmlns="http://www.w3.org/2000/svg" xmlns:xlink="http://www.w3.org/1999/xlink">
    <!-- Generator: Sketch 48.1 (47250) - http://www.bohemiancoding.com/sketch -->
    <title>file-pdf-o</title>
    <desc>Created with Sketch.</desc>
    <defs></defs>
    <g id="file-pdf-o---f1c1" stroke="none" stroke-width="1" fill="none" fill-rule="evenodd" transform="translate(-8.000000, 0.000000)">
        <path d="M10,0 L51.7573593,1.77635684e-15 C52.5530088,1.6301984e-15 53.3160705,0.316070521 53.8786797,0.878679656 L68.1213203,15.1213203 C68.6839295,15.6839295 69,16.4469912 69,17.2426407 L69,74 C69,75.1045695 68.1045695,76 67,76 L10,76 C8.8954305,76 8,75.1045695 8,74 L8,2 C8,0.8954305 8.8954305,2.02906125e-16 10,0 Z M53,5 L53,16 C53,16.5522847 53.4477153,17 54,17 L65,17 L53,5 Z M49,4 L13,4 C12.4477153,4 12,4.44771525 12,5 L12,71 C12,71.5522847 12.4477153,72 13,72 L64,72 C64.5522847,72 65,71.5522847 65,71 L65,21 L51,21 C49.8954305,21 49,20.1045695 49,19 L49,4 Z M35.7335072,17.0325522 C35.7823355,17.0325522 35.879992,17.0325522 35.9288202,17.0325522 C36.9704869,17.0325522 37.9470492,17.3580732 38.8585072,18.0091152 C39.5095492,18.6601566 40.0303826,19.5065106 40.4210072,20.5481772 C40.9418406,21.9804692 41.1371529,23.9335942 41.0069442,26.4075522 C41.0069442,27.1888022 40.7790797,28.3606772 40.3233507,29.9231772 C39.8676217,31.4856772 39.6397572,32.3971356 39.6397572,32.6575522 C39.7699659,33.0481769 39.9652786,33.6666664 40.2256952,34.5130207 C40.4861119,35.3593751 40.7465282,36.0429689 41.0069442,36.5638022 C41.2673616,37.0846356 42.6345492,38.9075522 45.1085072,42.0325522 C45.3689239,42.0325522 46.1176219,41.9674481 47.3546012,41.8372397 C48.5915806,41.7070314 49.4704869,41.6419272 49.9913202,41.6419272 C52.2048616,42.0325526 53.7673616,42.6835942 54.6788202,43.5950522 C55.4600696,44.5065102 55.8506942,45.4179686 55.8506942,46.3294272 C55.8506942,47.2408859 55.5902776,48.1523442 55.0694442,49.0638022 C55.0694442,49.1289066 55.0694442,49.210287 55.0694442,49.2591152 C55.0206162,49.2591152 54.9229602,49.2591152 54.8741322,49.2591152 C53.7022576,51.3424486 52.0746536,52.3190109 49.9913202,52.1888022 C48.4288202,52.0585936 46.7361116,51.2773436 44.9131942,49.8450522 C44.6527782,49.5846356 44.2947056,49.0963542 43.8389762,48.3802082 C43.3832469,47.6640622 43.0251739,47.2408852 42.7647572,47.1106772 C42.5043406,47.1106772 41.8532989,47.1106772 40.8116322,47.1106772 C39.7699656,47.1106772 38.9236116,47.2408856 38.2725702,47.5013022 C37.6215282,47.6315109 36.8077261,47.8919276 35.8311637,48.2825522 C34.8546014,48.6731769 34.1710076,48.9335936 33.7803822,49.0638022 C33.7803822,49.1940109 33.3897572,50.1054692 32.6085072,51.7981772 C31.8272572,53.4908852 31.2413196,54.6627602 30.8506942,55.3138022 C29.4184029,57.2669269 27.9210072,58.4388019 26.3585072,58.8294272 C25.4470492,59.2200526 24.4704869,59.2200526 23.4288202,58.8294272 C22.5173616,58.4388019 21.7361116,57.7877602 21.0850702,56.8763022 C19.7829862,55.0533856 19.6527776,53.2304689 20.6944442,51.4075522 C21.3454862,49.9752609 22.7126739,48.6731776 24.7960072,47.5013022 C25.3168406,47.1106776 26.3585072,46.6549486 27.9210072,46.1341152 C29.4835072,45.6132819 30.3949656,45.3528652 30.6553822,45.3528652 C30.7855902,44.9622399 31.1436631,44.2135419 31.7296007,43.1067712 C32.3155384,42.0000006 32.7387156,40.9908859 32.9991322,40.0794272 C33.3897576,39.1679686 33.7478306,37.8658852 34.0733512,36.1731772 C34.3988719,34.4804692 34.5616322,33.5039066 34.5616322,33.2434892 C32.8689242,28.9466146 31.9574659,26.4075522 31.8272572,25.6263022 C31.3064239,23.5429689 31.2413196,21.7200522 31.6319442,20.1575522 C31.8923616,19.2460942 32.3480909,18.4648442 32.9991322,17.8138022 C33.7803822,17.1627602 34.6918406,16.9023436 35.7335072,17.0325522 Z M37.8819442,40.0794272 C37.8819442,40.2096352 37.8493922,40.4700519 37.7842882,40.8606772 C37.7191842,41.2513026 37.6215282,41.5117192 37.4913202,41.6419272 C37.4913202,41.9023439 37.3936639,42.1627606 37.1983512,42.4231772 C37.0030386,42.6835939 36.9053822,42.8789066 36.9053822,43.0091152 C36.9704862,42.9440109 37.0518662,42.8626305 37.1006942,42.8138022 C37.1495225,42.8138022 37.247179,42.8138022 37.2960072,42.8138022 C37.5564239,42.6835936 37.9470489,42.6184892 38.4678822,42.6184892 C38.9887156,42.6184892 39.3793406,42.6184892 39.6397572,42.6184892 C39.5095486,42.3580732 39.2491319,41.9674486 38.8585072,41.4466152 C38.4678826,40.9257819 38.1423616,40.4700526 37.8819442,40.0794272 Z M49.4053822,46.3294272 C49.2751742,46.3294272 49.1124139,46.3619792 48.9171012,46.4270832 C48.7217886,46.4921872 48.6241322,46.5247392 48.6241322,46.5247392 C49.4053822,47.1757812 49.9262156,47.5013022 50.1866322,47.5013022 C50.4470489,47.5013022 50.7074656,47.3059899 50.9678822,46.9153652 C50.9678822,46.8502609 50.9678822,46.7688805 50.9678822,46.7200522 C50.5772569,46.5898436 50.0564236,46.4596352 49.4053822,46.3294272 Z M27.5303822,51.4075522 C27.5303822,51.4075522 27.4652781,51.4075522 27.3350697,51.4075522 C27.2048614,51.4075522 27.1397572,51.4075522 27.1397572,51.4075522 C25.9678819,52.1888022 25.1866319,52.9049479 24.7960072,53.5559892 C24.6657986,53.8164066 24.6657986,54.0117192 24.7960072,54.1419272 C24.8611116,54.1419272 24.942492,54.1419272 24.9913202,54.1419272 C24.9913202,54.1907552 24.9913202,54.2884112 24.9913202,54.3372392 C25.5121536,54.0768232 26.2282992,53.4257819 27.1397572,52.3841152 C27.1397572,52.2539066 27.2048614,52.0585939 27.3350697,51.7981772 C27.4652781,51.5377606 27.5303822,51.4075522 27.5303822,51.4075522 Z" id="file-pdf-o" fill="#000000"></path>
    </g>
</svg>