<?xml version="1.0" encoding="UTF-8"?>
<svg width="61px" height="76px" viewBox="0 0 61 76" version="1.1" xmlns="http://www.w3.org/2000/svg" xmlns:xlink="http://www.w3.org/1999/xlink">
    <!-- Generator: Sketch 48.1 (47250) - http://www.bohemiancoding.com/sketch -->
    <title>file-excel-o</title>
    <desc>Created with Sketch.</desc>
    <defs></defs>
    <g id="file-excel-o---f1c3" stroke="none" stroke-width="1" fill="none" fill-rule="evenodd" transform="translate(-8.000000, 0.000000)">
        <path d="M10,0 L51.7573593,1.77635684e-15 C52.5530088,1.6301984e-15 53.3160705,0.316070521 53.8786797,0.878679656 L68.1213203,15.1213203 C68.6839295,15.6839295 69,16.4469912 69,17.2426407 L69,74 C69,75.1045695 68.1045695,76 67,76 L10,76 C8.8954305,76 8,75.1045695 8,74 L8,2 C8,0.8954305 8.8954305,2.02906125e-16 10,0 Z M53,5 L53,16 C53,16.5522847 53.4477153,17 54,17 L65,17 L53,5 Z M49,4 L13,4 C12.4477153,4 12,4.44771525 12,5 L12,71 C12,71.5522847 12.4477153,72 13,72 L64,72 C64.5522847,72 65,71.5522847 65,71 L65,21 L51,21 C49.8954305,21 49,20.1045695 49,19 L49,4 Z M32.0926663,50 L27.9586663,50 L24.3706663,43.552 L20.8086663,50 L16.6746663,50 L22.4206663,40.51 L17.0386663,31.488 L21.1466663,31.488 L24.3706663,37.468 L27.6206663,31.488 L31.7026663,31.488 L26.3206663,40.51 L32.0926663,50 Z M46.0315554,50 L34.0195554,50 L34.0195554,31.488 L37.6335554,31.488 L37.6335554,46.776 L46.0315554,46.776 L46.0315554,50 Z M60.5684446,44.54 C60.5684446,48.128 57.5784446,50.156 53.7044446,50.156 C50.8964446,50.156 48.7644446,49.558 46.9444446,47.712 L49.2844446,45.372 C50.4544446,46.542 52.0404446,46.932 53.7564446,46.932 C55.8884446,46.932 57.0324446,46.126 57.0324446,44.644 C57.0324446,43.994 56.8504446,43.448 56.4604446,43.084 C56.0964446,42.746 55.6804446,42.564 54.8224446,42.434 L52.5864446,42.122 C51.0004446,41.888 49.8304446,41.394 48.9984446,40.588 C48.1144446,39.704 47.6724446,38.508 47.6724446,36.948 C47.6724446,33.646 50.1164446,31.332 54.1204446,31.332 C56.6684446,31.332 58.5144446,31.956 60.1004446,33.49 L57.8124446,35.752 C56.6424446,34.634 55.2384446,34.478 54.0164446,34.478 C52.0924446,34.478 51.1564446,35.544 51.1564446,36.818 C51.1564446,37.286 51.3124446,37.78 51.7024446,38.144 C52.0664446,38.482 52.6644446,38.768 53.4184446,38.872 L55.6024446,39.184 C57.2924446,39.418 58.3584446,39.886 59.1384446,40.614 C60.1264446,41.55 60.5684446,42.902 60.5684446,44.54 Z" id="file-excel-o" fill="#000000"></path>
    </g>
</svg>