<?xml version="1.0" encoding="UTF-8"?>
<svg width="62px" height="76px" viewBox="0 0 62 76" version="1.1" xmlns="http://www.w3.org/2000/svg" xmlns:xlink="http://www.w3.org/1999/xlink">
    <!-- Generator: Sketch 48.1 (47250) - http://www.bohemiancoding.com/sketch -->
    <title>files-o</title>
    <desc>Created with Sketch.</desc>
    <defs></defs>
    <g id="files-o---f0c5" stroke="none" stroke-width="1" fill="none" fill-rule="evenodd" transform="translate(-7.000000, 0.000000)">
        <path d="M52,20 L56.2800192,20 C56.8669737,20 57.4298881,20.2328941 57.8449276,20.6474482 L68.3517937,31.1420255 C68.7668332,31.5565796 69,32.1188356 69,32.7051037 L69,74.5263158 C69,75.3402091 68.3394365,76 67.5245902,76 L25.4754098,76 C24.6605635,76 24,75.3402091 24,74.5263158 L24,56 L8.47540984,56 C7.66056348,56 7,55.3402091 7,54.5263158 L7,1.47368421 C7,0.659790895 7.66056348,1.49509777e-16 8.47540984,0 L39.2800192,1.30889451e-15 C39.8669737,1.20119882e-15 40.4298881,0.232894068 40.8449276,0.647448168 L51.3517937,11.1420255 C51.7668332,11.5565796 52,12.1188356 52,12.7051037 L52,20 Z M47,20 L47,16.5 L35.490566,16.5 C34.7402924,16.5 34.1320755,15.8942676 34.1320755,15.1470588 L34.1320755,5 L11.6792453,5 C11.3041085,5 11,5.3028662 11,5.67647059 L11,50.3235294 C11,50.6971338 11.3041085,51 11.6792453,51 L24,51 L24,21.4736842 C24,20.6597909 24.6605635,20 25.4754098,20 L47,20 Z M39,6 L39,11.5 C39,11.7761424 39.2238576,12 39.5,12 L45,12 L39,6 Z M57,26 L57,31.5 C57,31.7761424 57.2238576,32 57.5,32 L63,32 L57,26 Z M52.1320755,25 L29.6792453,25 C29.3041085,25 29,25.3028662 29,25.6764706 L29,70.3235294 C29,70.6971338 29.3041085,71 29.6792453,71 L64.3207547,71 C64.6958915,71 65,70.6971338 65,70.3235294 L65,36.5 L53.490566,36.5 C52.7402924,36.5 52.1320755,35.8942676 52.1320755,35.1470588 L52.1320755,25 Z" id="files-o" fill="#000000"></path>
    </g>
</svg>