<?xml version="1.0" encoding="UTF-8"?>
<svg width="61px" height="76px" viewBox="0 0 61 76" version="1.1" xmlns="http://www.w3.org/2000/svg" xmlns:xlink="http://www.w3.org/1999/xlink">
    <!-- Generator: Sketch 48.1 (47250) - http://www.bohemiancoding.com/sketch -->
    <title>file-powerpoint-o</title>
    <desc>Created with Sketch.</desc>
    <defs></defs>
    <g id="file-powerpoint-o---f1c5" stroke="none" stroke-width="1" fill="none" fill-rule="evenodd" transform="translate(-8.000000, 0.000000)">
        <path d="M10,0 L51.7573593,1.77635684e-15 C52.5530088,1.6301984e-15 53.3160705,0.316070521 53.8786797,0.878679656 L68.1213203,15.1213203 C68.6839295,15.6839295 69,16.4469912 69,17.2426407 L69,74 C69,75.1045695 68.1045695,76 67,76 L10,76 C8.8954305,76 8,75.1045695 8,74 L8,2 C8,0.8954305 8.8954305,2.02906125e-16 10,0 Z M53,5 L53,16 C53,16.5522847 53.4477153,17 54,17 L65,17 L53,5 Z M49,4 L13,4 C12.4477153,4 12,4.44771525 12,5 L12,71 C12,71.5522847 12.4477153,72 13,72 L64,72 C64.5522847,72 65,71.5522847 65,71 L65,21 L51,21 C49.8954305,21 49,20.1045695 49,19 L49,4 Z M31.2346663,37.26 C31.2346663,40.406 28.9466663,43.032 25.1246663,43.032 L21.5626663,43.032 L21.5626663,50 L17.9486663,50 L17.9486663,31.488 L25.1246663,31.488 C28.9466663,31.488 31.2346663,34.114 31.2346663,37.26 Z M27.6206663,37.26 C27.6206663,35.752 26.5806663,34.712 24.9426663,34.712 L21.5626663,34.712 L21.5626663,39.782 L24.9426663,39.782 C26.5806663,39.782 27.6206663,38.768 27.6206663,37.26 Z M47.2015554,37.26 C47.2015554,40.406 44.9135554,43.032 41.0915554,43.032 L37.5295554,43.032 L37.5295554,50 L33.9155554,50 L33.9155554,31.488 L41.0915554,31.488 C44.9135554,31.488 47.2015554,34.114 47.2015554,37.26 Z M43.5875554,37.26 C43.5875554,35.752 42.5475554,34.712 40.9095554,34.712 L37.5295554,34.712 L37.5295554,39.782 L40.9095554,39.782 C42.5475554,39.782 43.5875554,38.768 43.5875554,37.26 Z M61.7904446,34.712 L56.9544446,34.712 L56.9544446,50 L53.3404446,50 L53.3404446,34.712 L48.5044446,34.712 L48.5044446,31.488 L61.7904446,31.488 L61.7904446,34.712 Z" id="file-powerpoint-o" fill="#000000"></path>
    </g>
</svg>