<?xml version="1.0" encoding="UTF-8"?>
<svg width="61px" height="76px" viewBox="0 0 61 76" version="1.1" xmlns="http://www.w3.org/2000/svg" xmlns:xlink="http://www.w3.org/1999/xlink">
    <!-- Generator: Sketch 48.1 (47250) - http://www.bohemiancoding.com/sketch -->
    <title>file-image-o</title>
    <desc>Created with Sketch.</desc>
    <defs></defs>
    <g id="file-image-o---f1c5" stroke="none" stroke-width="1" fill="none" fill-rule="evenodd" transform="translate(-8.000000, 0.000000)">
        <path d="M65,56.8934743 L65,21 L51,21 C49.8954305,21 49,20.1045695 49,19 L49,4 L13,4 C12.4477153,4 12,4.44771525 12,5 L12,51.1381568 L25.5911458,40.5672656 L39.0809896,54.9564323 L51.6715104,48.6611719 L65,56.8934743 Z M65,62.2894118 L51.6715104,54.0571094 L38.1816667,61.2516927 L25.5911458,47.761849 L12,58.3327402 L12,71 C12,71.5522847 12.4477153,72 13,72 L64,72 C64.5522847,72 65,71.5522847 65,71 L65,62.2894118 Z M10,0 L51.7573593,1.77635684e-15 C52.5530088,1.6301984e-15 53.3160705,0.316070521 53.8786797,0.878679656 L68.1213203,15.1213203 C68.6839295,15.6839295 69,16.4469912 69,17.2426407 L69,74 C69,75.1045695 68.1045695,76 67,76 L10,76 C8.8954305,76 8,75.1045695 8,74 L8,2 C8,0.8954305 8.8954305,2.02906125e-16 10,0 Z M53,5 L53,16 C53,16.5522847 53.4477153,17 54,17 L65,17 L53,5 Z M55.4936328,29.7753906 C57.0159239,29.7753906 58.3332914,30.3316126 59.4457352,31.4440564 C60.5581791,32.5565003 61.114401,33.8738678 61.114401,35.3961589 C61.114401,36.9184499 60.5581791,38.2358174 59.4457352,39.3482613 C58.3332914,40.4607052 57.0159239,41.0169271 55.4936328,41.0169271 C53.9713417,41.0169271 52.6539742,40.4607052 51.5415304,39.3482613 C50.4290865,38.2358174 49.8728646,36.9184499 49.8728646,35.3961589 C49.8728646,33.8738678 50.4290865,32.5565003 51.5415304,31.4440564 C52.6539742,30.3316126 53.9713417,29.7753906 55.4936328,29.7753906 Z" id="file-image-o" fill="#000000"></path>
    </g>
</svg>