<?xml version="1.0" encoding="UTF-8"?>
<svg width="61px" height="76px" viewBox="0 0 61 76" version="1.1" xmlns="http://www.w3.org/2000/svg" xmlns:xlink="http://www.w3.org/1999/xlink">
    <!-- Generator: Sketch 48.1 (47250) - http://www.bohemiancoding.com/sketch -->
    <title>file-audio-o</title>
    <desc>Created with Sketch.</desc>
    <defs></defs>
    <g id="file-audio-o" stroke="none" stroke-width="1" fill="none" fill-rule="evenodd" transform="translate(-8.000000, 0.000000)">
        <path d="M10,0 L51.7573593,1.77635684e-15 C52.5530088,1.6301984e-15 53.3160705,0.316070521 53.8786797,0.878679656 L68.1213203,15.1213203 C68.6839295,15.6839295 69,16.4469912 69,17.2426407 L69,74 C69,75.1045695 68.1045695,76 67,76 L10,76 C8.8954305,76 8,75.1045695 8,74 L8,2 C8,0.8954305 8.8954305,2.02906125e-16 10,0 Z M53,5 L53,16 C53,16.5522847 53.4477153,17 54,17 L65,17 L53,5 Z M49,4 L13,4 C12.4477153,4 12,4.44771525 12,5 L12,71 C12,71.5522847 12.4477153,72 13,72 L64,72 C64.5522847,72 65,71.5522847 65,71 L65,21 L51,21 C49.8954305,21 49,20.1045695 49,19 L49,4 Z M37.9571842,49.4049449 L37.9571842,21 L38.0029358,21.0629085 C37.9880956,21.0418553 37.9728489,21.0208863 37.9571842,21 C47.6285321,24.8685392 50.0463691,34.0563197 51.4970713,41.3098306 C46.7327623,32.2143318 44.5229389,33.7739106 41.8257234,31.2566136 L41.8257234,52.9154481 L41.8085492,52.9154481 C42.0562721,55.5432535 39.2761005,58.5824404 35.1437087,60.005337 C30.5984079,61.5704096 26.1383712,60.5873939 25.1819379,57.8097101 C24.2255047,55.0320262 27.1348567,51.5115266 31.6801575,49.946454 C33.9319768,49.1710904 36.1628691,49.0211245 37.9571842,49.4049449 Z" fill="#000000"></path>
    </g>
</svg>