<?xml version="1.0" encoding="UTF-8"?>
<svg width="61px" height="76px" viewBox="0 0 61 76" version="1.1" xmlns="http://www.w3.org/2000/svg" xmlns:xlink="http://www.w3.org/1999/xlink">
    <!-- Generator: Sketch 48.1 (47250) - http://www.bohemiancoding.com/sketch -->
    <title>file-archive-o</title>
    <desc>Created with Sketch.</desc>
    <defs></defs>
    <g id="file-archive-o" stroke="none" stroke-width="1" fill="none" fill-rule="evenodd" transform="translate(-8.000000, 0.000000)">
        <path d="M10,0 L51.7573593,1.77635684e-15 C52.5530088,1.6301984e-15 53.3160705,0.316070521 53.8786797,0.878679656 L68.1213203,15.1213203 C68.6839295,15.6839295 69,16.4469912 69,17.2426407 L69,74 C69,75.1045695 68.1045695,76 67,76 L10,76 C8.8954305,76 8,75.1045695 8,74 L8,2 C8,0.8954305 8.8954305,2.02906125e-16 10,0 Z M53,5 L53,16 C53,16.5522847 53.4477153,17 54,17 L65,17 L53,5 Z M49,4 L13,4 C12.4477153,4 12,4.44771525 12,5 L12,71 C12,71.5522847 12.4477153,72 13,72 L64,72 C64.5522847,72 65,71.5522847 65,71 L65,21 L51,21 C49.8954305,21 49,20.1045695 49,19 L49,4 Z M33.4966663,50 L21.3286663,50 L21.3286663,47.088 L29.2326663,34.712 L21.6666663,34.712 L21.6666663,31.488 L33.4966663,31.488 L33.4966663,34.348 L25.5666663,46.776 L33.4966663,46.776 L33.4966663,50 Z M39.9475554,50 L36.3335554,50 L36.3335554,31.488 L39.9475554,31.488 L39.9475554,50 Z M57.1884446,37.26 C57.1884446,40.406 54.9004446,43.032 51.0784446,43.032 L47.5164446,43.032 L47.5164446,50 L43.9024446,50 L43.9024446,31.488 L51.0784446,31.488 C54.9004446,31.488 57.1884446,34.114 57.1884446,37.26 Z M53.5744446,37.26 C53.5744446,35.752 52.5344446,34.712 50.8964446,34.712 L47.5164446,34.712 L47.5164446,39.782 L50.8964446,39.782 C52.5344446,39.782 53.5744446,38.768 53.5744446,37.26 Z" fill="#000000"></path>
    </g>
</svg>