<?xml version="1.0" encoding="UTF-8"?>
<svg width="76px" height="76px" viewBox="0 0 76 76" version="1.1" xmlns="http://www.w3.org/2000/svg" xmlns:xlink="http://www.w3.org/1999/xlink">
    <!-- Generator: Sketch 48.1 (47250) - http://www.bohemiancoding.com/sketch -->
    <title>film</title>
    <desc>Created with Sketch.</desc>
    <defs></defs>
    <g id="film---f008" stroke="none" stroke-width="1" fill="none" fill-rule="evenodd">
        <path d="M0,0 C0.791666667,0 2.375,0 3.16666667,0 C20.5833333,0 55.4166667,0 72.8333333,0 C73.625,0 75.2083333,0 76,0 C76,0.791666667 76,2.375 76,3.16666667 C76,20.5833333 76,55.4166667 76,72.8333333 C76,73.625 76,75.2083333 76,76 C75.2083333,76 73.625,76 72.8333333,76 C55.4166667,76 20.5833333,76 3.16666667,76 C2.375,76 0.791666667,76 0,76 C0,75.2083333 0,73.625 0,72.8333333 C0,55.4166667 0,20.5833333 0,3.16666667 C0,2.375 0,0.791666667 0,0 Z M6,6 L6,70 L12.034668,70 L12.034668,66.987793 L19.0130615,66.987793 L19.0130615,70 L57.0040283,70 L57.0040283,66.987793 L64.0236816,66.987793 L64.0236816,70 L70,70 L70,6 L64.0236816,6 L64.0236816,9.00769043 L57.0040283,9.00769043 L57.0040283,6 L19.0130615,6 L19.0130615,9.00769043 L12.034668,9.00769043 L12.034668,6 L6,6 Z M12,15 C13.75,15 17.25,15 19,15 C19,16.5 19,19.5 19,21 C17.25,21 13.75,21 12,21 C12,19.5 12,16.5 12,15 Z M57,15 C58.75,15 62.25,15 64,15 C64,16.5 64,19.5 64,21 C62.25,21 58.75,21 57,21 C57,19.5 57,16.5 57,15 Z M12,29 C13.75,29 17.25,29 19,29 C19,30.5 19,33.5 19,35 C17.25,35 13.75,35 12,35 C12,33.5 12,30.5 12,29 Z M57,29 C58.75,29 62.25,29 64,29 C64,30.5 64,33.5 64,35 C62.25,35 58.75,35 57,35 C57,33.5 57,30.5 57,29 Z M12,42 C13.75,42 17.25,42 19,42 C19,43.5 19,46.5 19,48 C17.25,48 13.75,48 12,48 C12,46.5 12,43.5 12,42 Z M57,42 C58.75,42 62.25,42 64,42 C64,43.5 64,46.5 64,48 C62.25,48 58.75,48 57,48 C57,46.5 57,43.5 57,42 Z M12,55 C13.75,55 17.25,55 19,55 C19,56.5 19,59.5 19,61 C17.25,61 13.75,61 12,61 C12,59.5 12,56.5 12,55 Z M57,55 C58.75,55 62.25,55 64,55 C64,56.5 64,59.5 64,61 C62.25,61 58.75,61 57,61 C57,59.5 57,56.5 57,55 Z" id="film" fill="#000000" fill-rule="nonzero"></path>
    </g>
</svg>