<?xml version="1.0" encoding="UTF-8"?>
<svg width="60px" height="76px" viewBox="0 0 60 76" version="1.1" xmlns="http://www.w3.org/2000/svg" xmlns:xlink="http://www.w3.org/1999/xlink">
    <!-- Generator: Sketch 48.1 (47250) - http://www.bohemiancoding.com/sketch -->
    <title>fire</title>
    <desc>Created with Sketch.</desc>
    <defs></defs>
    <g id="fire---f06d" stroke="none" stroke-width="1" fill="none" fill-rule="evenodd" transform="translate(-8.000000, 0.000000)">
        <path d="M32.8246368,1.38008398 C32.9085801,0.795069865 33.471934,0.358003033 34.5146986,0.0688834809 C35.5574632,-0.220236071 36.8800832,0.400769499 38.4825586,1.93190019 C43.0659975,6.67971614 47.6640706,11.5776974 52.2767781,16.6258439 C62.2807359,28.583303 67.2827148,39.7635275 67.2827148,50.1665172 C67.2827148,57.5801419 65.368377,63.3795094 61.5397014,67.5646198 C57.2170037,72.2280291 47.3141665,75.9946289 37.4560994,75.9946289 C27.5980323,75.9946289 19.2390147,73.3639879 14.2987885,68.1027059 C10.0995962,63.5588714 8,57.9388656 8,51.2426885 C8,41.9158704 11.952181,32.0509665 19.856543,21.6479767 C20.7210829,20.3326565 22.0796451,18.5390378 23.9322296,16.2671206 C25.7848141,13.9952034 27.1433764,12.2613718 28.0079163,11.0656259 C28.8724562,9.86987995 29.7369958,8.55455945 30.601535,7.11966436 C31.4660743,5.68476926 32.0218499,4.48902335 32.2688619,3.53242662 C32.4541202,2.81497907 32.6856931,1.91816964 32.8246368,1.38008398 Z M36.1592896,8.55455945 C35.5417616,9.86988026 34.738975,11.2449882 33.7509297,12.6798833 C32.7628845,14.1147784 31.8983446,15.3703115 31.15731,16.4464825 C30.4162767,17.4030792 29.3047261,18.8678679 27.8226583,20.8408485 C26.3405904,22.8138291 25.2907921,24.2188306 24.6732635,25.055853 C17.5099355,34.5022461 13.9282715,43.2311912 13.9282715,51.2426885 C13.9282715,56.3843956 15.533845,60.6890809 18.7449921,64.1567444 C19.3625207,64.7546176 20.1653076,65.4720652 21.1533528,66.309087 C20.7828355,65.3524903 20.5975769,64.7546173 20.5975769,64.5154681 C18.6214864,57.5801419 20.5358242,50.2860918 26.3405904,42.633318 C27.2668826,41.437572 28.424748,39.9428896 29.1194672,39.0460802 C29.6752426,40.0325706 32.9330906,47 35.5,47 C38.0669094,47 42.458078,40.5 37.6413574,27.9256432 C37.2708405,26.7298973 36.8076942,25.2352149 36.5298065,24.3384055 C35.9893926,22.0741855 36.4745121,21.0158185 37.9851651,21.1633046 C39.495818,21.3107907 40.986789,22.3691577 42.458078,24.3384055 C42.7050893,24.6971293 43.0138535,25.145534 43.1991119,25.4145768 C44.839056,27.9144753 46.7533935,31.1429893 48.9421245,35.1001187 C51.7827549,40.9592734 53.6970927,46.34013 54.6851379,51.2426885 C55.9201945,57.2214181 55.8584418,62.1239763 54.4998799,65.9503632 C55.4879252,65.2329157 56.3524645,64.5154681 57.0934978,63.7980206 C59.9341282,60.6890812 61.3544434,56.1452468 61.3544434,50.1665172 C61.3544434,41.1984226 56.7847341,31.2737315 47.6453156,20.392444 C43.6491443,16.1090504 39.820469,12.1630889 36.1592896,8.55455945 Z M44.7750769,42.2745942 C44.2965786,45.5632516 43.2797699,48.1471967 41.7246506,50.0264295 C39.3321591,52.6103746 36.5807938,53.4325389 33.4705547,52.4929225 C32.0350598,52.0231143 30.5995649,51.0834979 29.1640699,49.6740733 C26.4127049,54.9594158 25.4557083,59.3051417 26.2930801,62.7112508 C27.6089501,67.1744287 31.5997016,70 37.2387294,70 C42.8777573,70 46.6292584,67.2918805 47.8255041,64.8253877 C49.2609991,62.0065385 49.3806237,57.8369906 48.1843779,52.316744 C47.8255038,50.4375112 46.6890702,47.0901279 44.7750769,42.2745942 Z" id="fire" fill="#000000" fill-rule="nonzero"></path>
    </g>
</svg>