<?xml version="1.0" encoding="UTF-8"?>
<svg width="55px" height="76px" viewBox="0 0 55 76" version="1.1" xmlns="http://www.w3.org/2000/svg" xmlns:xlink="http://www.w3.org/1999/xlink">
    <!-- Generator: Sketch 48.1 (47250) - http://www.bohemiancoding.com/sketch -->
    <title>fire-extinguisher</title>
    <desc>Created with Sketch.</desc>
    <defs></defs>
    <g id="fire-extinguisher---f134" stroke="none" stroke-width="1" fill="none" fill-rule="evenodd" transform="translate(-11.000000, 0.000000)">
        <path d="M48.2576493,12.3246459 C46.3323367,12.1138102 44.7373968,11.0338866 44.3853716,9.15641868 L43,9 L43,12 L40,12 C40,12.3537553 40,12.6870887 40,13 C49.5046816,13.5867087 57,21.3779766 57,31 L57,76 L18,76 C17.9868884,63.9362051 17.9868884,48.9362051 18,31 C18,21.3779766 26.6667676,13.5867087 36.1714492,13 L36.1714492,12 L33,12 C33.0026996,10.9013161 33.0026996,10.0316835 33,9.39110217 C21.1399602,10.6683372 17.2452088,18.4673324 17,22 L11,22 C11.1358185,16.7352832 18,5 33,5 L33,2 L43,2 L43,5 C43.3759862,5 43.8377767,5 44.3853716,5 C44.7373968,3.12253203 46.1444393,1.66052696 48.2576493,1.43437245 C52.1348301,1.12245116 55.0599181,0.856122854 61.7854015,0.260954971 C65.7365609,-0.0426278698 65.9789755,2.80740762 65.9681149,6.6332353 C65.9572543,10.459063 66.6567439,13.7936222 62.0368106,13.4744415 C57.4168773,13.1552609 54.7247497,12.9221844 48.2576493,12.3246459 Z M24,64 L24,70 L51,70 L51,64 L24,64 Z M24,32 L24,58 L51,58 L51,32 C51,24.3201365 46.6796875,19 38,19 C29.3203125,19 24,24.3201365 24,32 Z M40,5 L35.9367657,5 L35.9367657,9 L40,9 L40,5 Z M61.970741,4.70918974 C61.970741,4.35716449 61.757547,4.12248099 61.4377559,4.12248099 C57.376606,4.51251062 61.4377559,4.12248099 49.3922919,5.29589848 C48.9659038,5.29589848 48.7527097,5.53058197 48.7527097,5.88260722 C48.7600249,6.58737879 48.7527097,5.88260722 48.7527097,7.64273344 C48.7527097,7.99475869 48.9659038,8.22944219 49.2856949,8.22944219 C53.3760505,8.61990272 49.5049411,8.25042877 61.5443529,9.40285967 C61.757547,9.40285967 61.970741,9.16817617 61.970741,8.81615093 C61.9541647,7.51895226 61.970741,8.81615093 61.970741,4.70918974 Z" id="fire-extinguisher" fill="#000000" fill-rule="nonzero"></path>
    </g>
</svg>