<?xml version="1.0" encoding="UTF-8"?>
<svg width="63px" height="74px" viewBox="0 0 63 74" version="1.1" xmlns="http://www.w3.org/2000/svg" xmlns:xlink="http://www.w3.org/1999/xlink">
    <!-- Generator: Sketch 48.1 (47250) - http://www.bohemiancoding.com/sketch -->
    <title>flag</title>
    <desc>Created with Sketch.</desc>
    <defs></defs>
    <g id="flag---f024" stroke="none" stroke-width="1" fill="none" fill-rule="evenodd" transform="translate(-7.000000, -1.000000)">
        <path d="M57.8228767,4.93342466 L60.6506849,3.78273973 L70,41.3238356 L68.5136986,42.2827397 C67.7782192,42.7938356 67.0273973,43.2416438 66.260274,43.6252055 C66.0042466,43.7843836 65.7328767,43.9282192 65.4442466,44.0557534 C60.41,46.5172603 55.169589,47.1252055 49.5753425,45.9735616 C48.0410959,45.6542466 46.4905479,45.2064384 44.9246575,44.6320548 C43.7423288,44.1842466 42.5273973,43.6731507 41.2808219,43.0968493 C40.369863,42.6173973 39.4109589,42.2012329 38.4520548,41.850274 C37.3646575,41.4350685 36.2782192,41.0994521 35.1917808,40.8434247 C30.4289041,39.6927397 25.7312329,39.980411 21.0958904,41.7064384 L29.0557534,73.6858904 L24.1643836,74.8845205 L15.6780822,40.8913699 C15.6461187,40.8057078 12.7534247,29.2186301 7,6.13013699 L8.48630137,5.17123288 C9.57273973,4.46835616 10.660137,3.84506849 11.7456164,3.30136986 C14.0469863,2.21493151 16.4126027,1.51109589 18.8415068,1.19178082 C19.8636986,1.07958904 20.9194521,1 22.0058904,1 C22.9331507,1 23.8757534,1.06328767 24.8346575,1.19178082 C24.9631507,1.19178082 25.0906849,1.19178082 25.2182192,1.19178082 C27.7746575,1.51109589 30.4432877,2.21493151 33.2250685,3.30136986 C34.2156164,3.71657534 35.2224658,4.16438356 36.2456164,4.64383562 C37.0760274,5.02739726 37.8910959,5.39465753 38.6908219,5.74657534 C45.0531507,8.13041096 51.429863,7.87438356 57.8228767,4.93342466 Z M64.0557534,39.0713699 C64.0873973,39.039726 64.1353425,39.0080822 64.1986301,38.9745205 L57.1506849,10.6868493 C51.4931507,12.7005479 45.8672603,12.9882192 40.2730137,11.549863 C39.1549315,11.2621918 38.019589,10.8939726 36.8689041,10.4471233 L36.8209589,10.4471233 C35.8936986,10.0635616 34.9664384,9.64835616 34.040137,9.20054795 C31.3235616,7.88972603 28.7182192,6.99506849 26.2260274,6.51561644 C25.6832877,6.38808219 25.1386301,6.29219178 24.5958904,6.22794521 L24.5479452,6.22794521 C23.6849315,6.13205479 22.8382192,6.08410959 22.0068493,6.08410959 C21.1764384,6.08410959 20.3450685,6.13205479 19.5136986,6.22794521 C17.179726,6.54726027 14.9426027,7.2990411 12.8013699,8.48136986 L19.8493151,36.7210959 C24.4520548,35.1226027 29.1027397,34.6910959 33.8013699,35.4265753 C35.9426027,35.7458904 38.0847945,36.3058904 40.2260274,37.1046575 C41.3134247,37.5208219 42.399863,37.9839726 43.4863014,38.4950685 C44.5727397,39.0387671 45.6438356,39.5019178 46.6986301,39.8854795 C47.1464384,40.0446575 47.609589,40.2057534 48.0890411,40.3649315 C53.8434247,42.1561644 59.1653425,41.7227397 64.0557534,39.0713699 Z" id="flag" fill="#000000"></path>
    </g>
</svg>