<?xml version="1.0" encoding="UTF-8"?>
<svg width="63px" height="74px" viewBox="0 0 63 74" version="1.1" xmlns="http://www.w3.org/2000/svg" xmlns:xlink="http://www.w3.org/1999/xlink">
    <!-- Generator: Sketch 48.1 (47250) - http://www.bohemiancoding.com/sketch -->
    <title>flag-checkered</title>
    <desc>Created with Sketch.</desc>
    <defs></defs>
    <g id="flag-checkered---f11e" stroke="none" stroke-width="1" fill="none" fill-rule="evenodd" transform="translate(-7.000000, -1.000000)">
        <path d="M57.8228767,4.93342466 L60.6506849,3.78273973 L70,41.3238356 L68.5136986,42.2827397 C67.7782192,42.7938356 67.0273973,43.2416438 66.260274,43.6252055 C66.0042466,43.7843836 65.7328767,43.9282192 65.4442466,44.0557534 C60.41,46.5172603 55.169589,47.1252055 49.5753425,45.9735616 C48.0410959,45.6542466 46.4905479,45.2064384 44.9246575,44.6320548 C43.7423288,44.1842466 42.5273973,43.6731507 41.2808219,43.0968493 C40.369863,42.6173973 39.4109589,42.2012329 38.4520548,41.850274 C37.3646575,41.4350685 36.2782192,41.0994521 35.1917808,40.8434247 C30.4289041,39.6927397 25.7312329,39.980411 21.0958904,41.7064384 L29.0557534,73.6858904 L24.1643836,74.8845205 L15.6780822,40.8913699 C15.6461187,40.8057078 12.7534247,29.2186301 7,6.13013699 L8.48630137,5.17123288 C9.57273973,4.46835616 10.660137,3.84506849 11.7456164,3.30136986 C14.0469863,2.21493151 16.4126027,1.51109589 18.8415068,1.19178082 C19.8636986,1.07958904 20.9194521,1 22.0058904,1 C22.9331507,1 23.8757534,1.06328767 24.8346575,1.19178082 C24.9631507,1.19178082 25.0906849,1.19178082 25.2182192,1.19178082 C27.7746575,1.51109589 30.4432877,2.21493151 33.2250685,3.30136986 C34.2156164,3.71657534 35.2224658,4.16438356 36.2456164,4.64383562 C37.0760274,5.02739726 37.8910959,5.39465753 38.6908219,5.74657534 C45.0531507,8.13041096 51.429863,7.87438356 57.8228767,4.93342466 Z M64.0557534,39.0713699 C64.0873973,39.039726 64.1353425,39.0080822 64.1986301,38.9745205 L57.1506849,10.6868493 C51.4931507,12.7005479 45.8672603,12.9882192 40.2730137,11.549863 C39.1549315,11.2621918 38.019589,10.8939726 36.8689041,10.4471233 L36.8209589,10.4471233 C35.8936986,10.0635616 34.9664384,9.64835616 34.040137,9.20054795 C31.3235616,7.88972603 28.7182192,6.99506849 26.2260274,6.51561644 C25.6832877,6.38808219 25.1386301,6.29219178 24.5958904,6.22794521 L24.5479452,6.22794521 C23.6849315,6.13205479 22.8382192,6.08410959 22.0068493,6.08410959 C21.1764384,6.08410959 20.3450685,6.13205479 19.5136986,6.22794521 C17.179726,6.54726027 14.9426027,7.2990411 12.8013699,8.48136986 L19.8493151,36.7210959 C24.4520548,35.1226027 29.1027397,34.6910959 33.8013699,35.4265753 C35.9426027,35.7458904 38.0847945,36.3058904 40.2260274,37.1046575 C41.3134247,37.5208219 42.399863,37.9839726 43.4863014,38.4950685 C44.5727397,39.0387671 45.6438356,39.5019178 46.6986301,39.8854795 C47.1464384,40.0446575 47.609589,40.2057534 48.0890411,40.3649315 C53.8434247,42.1561644 59.1653425,41.7227397 64.0557534,39.0713699 Z M20.7612329,7.47547945 C21.5283562,7.37958904 22.2954795,7.33164384 23.0626027,7.33164384 C23.829726,7.33164384 24.6121918,7.37958904 25.4109589,7.47547945 L25.459863,7.47547945 C25.8424658,7.53876712 26.2423288,7.6030137 26.6584932,7.66726027 L28.4794521,14.5234247 C28.0968493,14.460137 27.7286301,14.3958904 27.3776712,14.3316438 L27.2817808,14.3316438 C26.4513699,14.2357534 25.6353425,14.1878082 24.8365753,14.1878082 C24.0378082,14.1878082 23.269726,14.2357534 22.5352055,14.3316438 L22.4393151,14.3316438 C20.4256164,14.6193151 18.4752055,15.2426027 16.59,16.2015068 L14.8630137,9.39328767 C16.7491781,8.40178082 18.6986301,7.76315068 20.7132877,7.47547945 L20.7612329,7.47547945 Z M36.2475342,17.9265753 C37.1421918,18.3417808 38.0215068,18.7253425 38.8845205,19.0772603 L38.7406849,18.9813699 L38.7886301,18.9813699 L38.8854795,19.0772603 L38.9334247,19.1252055 C40.0515068,19.540411 41.1705479,19.8923288 42.289589,20.18 L44.5430137,28.4265753 C43.6157534,28.1705479 42.6731507,27.8675342 41.7142466,27.5156164 C40.8521918,27.1636986 40.0045205,26.7964384 39.1741096,26.4128767 L39.1741096,26.3649315 L39.0772603,26.3169863 C36.68,25.1663014 34.3632877,24.3512329 32.1252055,23.8717808 L29.9676712,15.6252055 C31.949726,16.0720548 33.9950685,16.8075342 36.1046575,17.8306849 L36.1526027,17.8786301 L36.2475342,17.9265753 Z M27.2817808,24.4471233 C28.0815068,24.4471233 28.880274,24.4950685 29.6790411,24.5909589 L29.6790411,24.6389041 C30.1584932,24.6705479 30.6542466,24.7510959 31.1653425,24.8786301 L33.5626027,34.0841096 C29.4709589,33.540411 25.3956164,33.940274 21.3365753,35.2827397 L19.1790411,26.4608219 C21.0335616,25.5019178 22.9667123,24.8949315 24.9813699,24.6389041 L25.0293151,24.5909589 C25.7638356,24.4960274 26.5146575,24.4471233 27.2817808,24.4471233 Z M57.7269863,18.6936986 C52.7406849,20.3880822 47.8023288,20.6757534 42.9119178,19.5567123 L41.0430137,12.7005479 C46.0283562,13.819589 51.0309589,13.5319178 56.0489041,11.8375342 L57.7269863,18.6936986 Z M60.1242466,29.0019178 L62.329726,37.8717808 C57.9830137,40.1089041 53.2527397,40.459863 48.1379452,38.9265753 L45.6927397,29.9128767 C50.4872603,30.9043836 55.2980822,30.600411 60.1242466,29.0019178 Z" id="flag-checkered" fill="#000000"></path>
    </g>
</svg>