<?xml version="1.0" encoding="UTF-8"?>
<svg width="64px" height="76px" viewBox="0 0 64 76" version="1.1" xmlns="http://www.w3.org/2000/svg" xmlns:xlink="http://www.w3.org/1999/xlink">
    <!-- Generator: Sketch 48.1 (47250) - http://www.bohemiancoding.com/sketch -->
    <title>flask</title>
    <desc>Created with Sketch.</desc>
    <defs></defs>
    <g id="flask---f0c3" stroke="none" stroke-width="1" fill="none" fill-rule="evenodd" transform="translate(-6.000000, 0.000000)">
        <path d="M40.6666667,0 C41.4444447,0 42.0833337,0.253906178 42.5833335,0.761718533 C43.0833334,1.26953089 43.3333333,1.91840249 43.3333333,2.70833333 C43.3333333,3.49826418 43.0833334,4.14713578 42.5833335,4.65494813 C42.0833337,5.16276049 41.4444447,5.41666667 40.6666667,5.41666667 C39.8888886,5.41666667 39.2499996,5.16276049 38.7499998,4.65494813 C38.2499999,4.14713578 38,3.49826418 38,2.70833333 C38,1.91840249 38.2499999,1.26953089 38.7499998,0.761718533 C39.2499996,0.253906178 39.8888886,0 40.6666667,0 Z M32.6666667,7.29166667 C34.093316,7.29166667 34.9822049,8.19444444 35.3333333,10 L54,10 L54,16 L52,16 L52,37 C59.7222222,47.1006944 64.9444444,53.9565972 67.6666667,57.5677083 C69.2222222,59.4861114 70,62.6302086 70,65 C70,68.0468753 68.9722223,70.6141497 66.9166669,72.7018231 C64.8611115,74.7894966 62.3333336,75.8333333 59.3333333,75.8333333 C45.1111111,75.8333333 27.3333333,75.8333333 16.6666667,75.8333333 C13.6666664,75.8333333 11.1388885,74.7894966 9.08333312,72.7018231 C7.02777771,70.6141497 6,68.0468753 6,65 C6,62.6302086 6.77777778,59.4861114 8.33333333,57.5677083 C11.962963,52.7528935 17.1851852,45.8640046 24,36.9010417 L24,16 L22,16 L22,10 L30,10 C30.3511285,8.19444444 31.2400174,7.29166667 32.6666667,7.29166667 Z M30,16 C30,21.3333333 30,32 30,37.3333333 C30,37.5833333 30,38.0833333 30,38.3333333 C29.8333333,38.5 29.5,38.8333333 29.3333333,39 C27.5833333,41.25 24.0833333,45.75 22.3333333,48 C30.1666667,48 45.8333333,48 53.6666667,48 C51.9166667,45.75 48.4166667,41.25 46.6666667,39 C46.5,38.8333333 46.1666667,38.5 46,38.3333333 C46,38.0833333 46,37.5833333 46,37.3333333 C46,32 46,21.3333333 46,16 C42,16 34,16 30,16 Z M40.6666667,27.0833333 C41.4444447,27.0833333 42.0833337,27.3372395 42.5833335,27.8450519 C43.0833334,28.3528642 43.3333333,29.0017358 43.3333333,29.7916667 C43.3333333,30.5815975 43.0833334,31.2304691 42.5833335,31.7382815 C42.0833337,32.2460938 41.4444447,32.5 40.6666667,32.5 C39.8888886,32.5 39.2499996,32.2460938 38.7499998,31.7382815 C38.2499999,31.2304691 38,30.5815975 38,29.7916667 C38,29.0017358 38.2499999,28.3528642 38.7499998,27.8450519 C39.2499996,27.3372395 39.8888886,27.0833333 40.6666667,27.0833333 Z M18.7569231,54 C17.2892308,55.8749999 14.3538462,59.6249997 12.8861538,61.4999996 C12.2338462,62.3888885 11.9076923,63.4444442 11.9076923,64.6666667 C11.9076923,66.2222222 12.3969231,67.5 13.3753846,68.5 C14.3538462,69.5 15.6041026,70 17.1261538,70 C31.0420513,70 48.4369231,70 58.8738462,70 C60.3958974,70 61.6461538,69.5 62.6246154,68.5 C63.6030769,67.5 64.0923077,66.2222222 64.0923077,64.6666667 C64.0923077,63.4444442 63.7661538,62.3888885 63.1138462,61.4999996 C61.1569231,58.9999997 58.7107692,55.8749999 57.2430769,54 C47.6215385,54 28.3784615,54 18.7569231,54 Z" id="flask" fill="#000000" fill-rule="nonzero"></path>
    </g>
</svg>