<?xml version="1.0" encoding="UTF-8"?>
<svg width="76px" height="76px" viewBox="0 0 76 76" version="1.1" xmlns="http://www.w3.org/2000/svg" xmlns:xlink="http://www.w3.org/1999/xlink">
    <!-- Generator: Sketch 48.1 (47250) - http://www.bohemiancoding.com/sketch -->
    <title>floppy-o</title>
    <desc>Created with Sketch.</desc>
    <defs></defs>
    <g id="floppy-o---f0c7" stroke="none" stroke-width="1" fill="none" fill-rule="evenodd" opacity="0.699999988">
        <path d="M0,0 L60.0227273,0 L76,15.9772727 L76,76 L0,76 L0,0 Z M6,6 L6,70 L13.8181818,70 L13.8181818,38 L62.1818182,38 L62.1818182,70 L70,70 L70,18.7840915 L58.7272727,7.51136419 L58.7272727,27.6363636 L17.2727273,27.6363636 L17.2727273,6 L6,6 Z M24.1818182,6 L24.1818182,20.7272727 L51.8181818,20.7272727 L51.8181818,6 L44.9090909,6 L44.9090909,13.8181818 L38,13.8181818 L38,6 L24.1818182,6 Z M20.7272727,44.9090909 L20.7272727,70 L55.2727273,70 L55.2727273,44.9090909 L20.7272727,44.9090909 Z" id="floppy-o" fill="#000000" fill-rule="nonzero"></path>
    </g>
</svg>