<?xml version="1.0" encoding="UTF-8"?>
<svg width="76px" height="76px" viewBox="0 0 76 76" version="1.1" xmlns="http://www.w3.org/2000/svg" xmlns:xlink="http://www.w3.org/1999/xlink">
    <!-- Generator: Sketch 48.1 (47250) - http://www.bohemiancoding.com/sketch -->
    <title>frown-o</title>
    <desc>Created with Sketch.</desc>
    <defs></defs>
    <g id="frown-o---f119" stroke="none" stroke-width="1" fill="none" fill-rule="evenodd">
        <path d="M38,0 C48.4236114,0 57.3628476,3.72743047 64.8177086,11.1822914 C72.2725695,18.6371524 76,27.5763886 76,38 C76,48.4236114 72.2725695,57.3628476 64.8177086,64.8177086 C57.3628476,72.2725695 48.4236114,76 38,76 C27.5763886,76 18.6371524,72.2725695 11.1822914,64.8177086 C3.72743047,57.3628476 0,48.4236114 0,38 C0,27.5763886 3.72743047,18.6371524 11.1822914,11.1822914 C18.6371524,3.72743047 27.5763886,0 38,0 Z M38,6 C29.2,6 21.6666667,9.13333333 15.4,15.4 C9.13333333,21.6666667 6,29.2 6,38 C6,46.8 9.13333333,54.3333333 15.4,60.6 C21.6666667,66.8666667 29.2,70 38,70 C46.8,70 54.3333333,66.8666667 60.6,60.6 C66.8666667,54.3333333 70,46.8 70,38 C70,29.2 66.8666667,21.6666667 60.6,15.4 C54.3333333,9.13333333 46.8,6 38,6 Z M23.6875,30 C24.9895833,30 26.0963542,30.4557292 27.0078125,31.3671875 C27.9192708,32.2786458 28.375,33.3854167 28.375,34.6875 C28.375,35.9895833 27.9192708,37.0963542 27.0078125,38.0078125 C26.0963542,38.9192708 24.9895833,39.375 23.6875,39.375 C22.3854167,39.375 21.2786458,38.9192708 20.3671875,38.0078125 C19.4557292,37.0963542 19,35.9895833 19,34.6875 C19,33.3854167 19.4557292,32.2786458 20.3671875,31.3671875 C21.2786458,30.4557292 22.3854167,30 23.6875,30 Z M51.6875,30 C52.9895833,30 54.0963542,30.4557292 55.0078125,31.3671875 C55.9192708,32.2786458 56.375,33.3854167 56.375,34.6875 C56.375,35.9895833 55.9192708,37.0963542 55.0078125,38.0078125 C54.0963542,38.9192708 52.9895833,39.375 51.6875,39.375 C50.3854167,39.375 49.2786458,38.9192708 48.3671875,38.0078125 C47.4557292,37.0963542 47,35.9895833 47,34.6875 C47,33.3854167 47.4557292,32.2786458 48.3671875,31.3671875 C49.2786458,30.4557292 50.3854167,30 51.6875,30 Z M38.3125,44 C45.3958331,44 51.0624997,47.515625 55.3125,54.546875 C53.8958333,55.71875 53.8958333,55.71875 51.0625,58.0625 C47.9022433,52.8541667 43.6522433,50.25 38.3125,50.25 C32.9727567,50.25 28.7227567,52.8541667 25.5625,58.0625 C24.1458333,56.890625 24.1458333,56.890625 21.3125,54.546875 C25.5625003,47.515625 31.2291669,44 38.3125,44 Z" id="frown-o" fill="#000000" fill-rule="nonzero"></path>
    </g>
</svg>