<?xml version="1.0" encoding="UTF-8"?>
<svg width="76px" height="76px" viewBox="0 0 76 76" version="1.1" xmlns="http://www.w3.org/2000/svg" xmlns:xlink="http://www.w3.org/1999/xlink">
    <!-- Generator: Sketch 48.1 (47250) - http://www.bohemiancoding.com/sketch -->
    <title>futbol-o</title>
    <desc>Created with Sketch.</desc>
    <defs></defs>
    <g id="futbol-o---f1e3" stroke="none" stroke-width="1" fill="none" fill-rule="evenodd">
        <path d="M31.8171975,27 L25,40.3855469 L35.6190314,51 L49,44.1815138 L46.649661,29.3506369 L31.8171975,27 Z M55.2461705,4.14688769 C49.7216819,1.33598186 43.8329118,0 38.0275673,0 C24.1974932,0 10.8590654,7.58422057 4.14925204,20.7580408 C-5.37624543,39.4469426 2.05485687,62.3250381 20.7509224,71.852667 C26.2755595,74.6684714 32.1643296,76 37.967299,76 C51.8019749,76 65.138176,68.4200843 71.8503645,55.2461156 C81.3779402,36.5527605 73.9422361,13.6748134 55.2461705,4.14688769 Z M70.0920463,40.300635 C70.0573104,40.7924247 70.0132226,41.2748626 69.955181,41.7573005 L61.2063421,49.8382095 L59.8124538,61.6530393 C58.2143066,63.1232131 56.4631137,64.4360379 54.5823294,65.5679114 C51.3936057,67.4791077 47.9120021,68.8196913 44.2988773,69.5480983 L33.9222024,63.7263347 L22.260597,66.0552479 C18.8650909,64.1486534 15.8825558,61.6901499 13.3869168,58.7261999 C12.078829,57.1675544 10.9307638,55.5066321 9.94509619,53.7487768 L12.2689857,42.0780846 L6.44746071,31.6920132 C7.02030577,28.825293 7.98756631,26.0467476 9.33736681,23.3980894 C10.6849407,20.7586346 12.3733417,18.3372417 14.3518022,16.1895766 L26.1618515,14.7933271 L34.2376457,6.0494743 C35.4924421,5.90103187 36.756442,5.82681066 38.0297939,5.82681066 C40.5114793,5.82681066 42.9884144,6.11894536 45.3982529,6.68955805 C47.4740926,7.18134782 49.508368,7.88630091 51.4632259,8.78630736 L56.4359485,19.5897989 L67.2230708,24.5624718 C67.7449996,25.6943453 68.1995349,26.8633294 68.5915752,28.0602207 C69.8833342,32.0346183 70.3889341,36.1538957 70.0920463,40.300635 Z" id="futbol-o" fill="#000000" fill-rule="nonzero"></path>
    </g>
</svg>