<?xml version="1.0" encoding="UTF-8"?>
<svg width="76px" height="55px" viewBox="0 0 76 55" version="1.1" xmlns="http://www.w3.org/2000/svg" xmlns:xlink="http://www.w3.org/1999/xlink">
    <!-- Generator: Sketch 48.1 (47250) - http://www.bohemiancoding.com/sketch -->
    <title>gamepad</title>
    <desc>Created with Sketch.</desc>
    <defs></defs>
    <g id="gamepad---f11b" stroke="none" stroke-width="1" fill="none" fill-rule="evenodd" transform="translate(0.000000, -11.000000)">
        <path d="M50.6520253,23.2413153 C52.1731865,23.2413153 53.4408207,24.5089495 53.4408207,26.0301107 C53.4408207,27.5512718 52.1731865,28.818906 50.6520253,28.818906 C49.0463553,28.818906 47.8632299,27.5512718 47.8632299,26.0301107 C47.8632299,24.5089495 49.1308642,23.2413153 50.6520253,23.2413153 Z M50.6520253,40.0585966 C49.1308642,40.0585966 47.8632299,38.7909623 47.8632299,37.2698012 C47.8632299,35.7486401 49.1308642,34.4810058 50.6520253,34.4810058 C52.1731865,34.4810058 53.4408207,35.7486401 53.4408207,37.2698012 C53.4408207,38.7909623 52.1731865,40.0585966 50.6520253,40.0585966 Z M44.9899256,34.3964968 C43.4687645,34.3964968 42.2011302,33.1288626 42.2011302,31.6077014 C42.2011302,30.0865403 43.4687645,28.818906 44.9899256,28.818906 C46.5955957,28.818906 47.778721,30.0865403 47.778721,31.6077014 C47.778721,33.1288626 46.5110867,34.3964968 44.9899256,34.3964968 Z M56.2296161,34.3964968 C54.708455,34.3964968 53.4408207,33.1288626 53.4408207,31.6077014 C53.4408207,30.0865403 54.708455,28.818906 56.2296161,28.818906 C57.8352862,28.818906 59.0184115,30.0865403 59.0184115,31.6077014 C59.0184115,33.1288626 57.7507773,34.3964968 56.2296161,34.3964968 Z M30.9614397,34.4810058 L28.1726443,34.4810058 C28.1726443,35.4106043 28.1726443,34.4810058 28.1726443,37.2698012 C28.1726443,38.7909623 26.90501,40.0585966 25.3838489,40.0585966 C23.8626878,40.0585966 22.5950535,38.7909623 22.5950535,37.2698012 L22.5950535,34.3964968 C16.6794269,34.3964968 22.5950535,34.3964968 19.8062581,34.3964968 C18.285097,34.3964968 17.0174627,33.1288626 17.0174627,31.6077014 C17.0174627,30.0865403 18.285097,28.818906 19.8062581,28.818906 L22.5950535,28.818906 C22.5950535,27.8893076 22.5950535,28.818906 22.5950535,26.0301107 C22.5950535,24.5089495 23.8626878,23.2413153 25.3838489,23.2413153 C26.90501,23.2413153 28.1726443,24.5089495 28.1726443,26.0301107 L28.1726443,28.818906 C22.2570177,28.818906 30.0318412,28.818906 30.9614397,28.818906 C32.4826008,28.818906 33.7502351,30.1710493 33.7502351,31.6922104 C33.7502351,33.2133715 32.4826008,34.4810058 30.9614397,34.4810058 Z M46.9898907,50 L28.9898907,50 C27.4802943,51.746228 23.3204671,56.1556135 16.510409,63.2281567 C9.98989074,70 -1.99705135,62.8056119 0.284690341,53.5941362 C0.284690341,53.5941362 7.55246016,23.5934585 7.55246016,23.5934585 C7.55246016,23.4244406 7.55246016,23.3399316 7.63696911,23.2554227 C9.66518394,15.9876529 16.2426043,11 23.8484099,11 C17.9327833,11 23.8484099,11 51.9898907,11 C59.5956964,11 66.2861813,15.9876529 68.3143962,23.2554227 C68.3143962,23.3399316 68.3989051,23.5089495 68.3989051,23.5934585 C68.3989051,23.5934585 75.6666749,53.5096273 75.6666749,53.5941362 C78.1174345,63.3971746 66.0326545,69.8198549 59.6099742,63.2281567 L46.9898907,50 Z M62.8341605,25.704422 C62.8341605,25.619913 62.7507431,25.5354041 62.7507431,25.4508951 C61.4994812,20.464867 57.0783558,17 51.9898907,17 C46.1506685,17 51.7679049,17 23.9898907,17 C18.9014257,17 14.7022861,20.464867 13.4510242,25.4508951 C13.4510242,25.5354041 13.3676068,25.619913 13.3676068,25.704422 C13.3676068,25.704422 6.08669083,55.0307884 6.08669083,55.0307884 C5.25251623,58.9182001 10.0073114,61.0450313 12.7600876,58.2562359 C15.8972244,55.0390109 12.7600876,58.2562359 26.2737161,44.5657858 C26.8576384,44.0587321 27.524978,43.7206963 28.2757352,43.7206963 C22.436513,43.7206963 28.2757352,43.7206963 47.5451684,43.7206963 C48.2959256,43.7206963 49.0466827,44.0587321 49.5471875,44.5657858 C52.0323725,47.0310184 58.6118848,53.6927526 63.1442335,58.2562359 C65.4799223,60.6224866 70.7352223,59.4252538 69.9010477,55.0307884 C69.9010477,55.0307884 62.8341605,25.704422 62.8341605,25.704422 Z" id="gamepad" fill="#000000" fill-rule="nonzero"></path>
    </g>
</svg>