<?xml version="1.0" encoding="UTF-8"?>
<svg width="76px" height="76px" viewBox="0 0 76 76" version="1.1" xmlns="http://www.w3.org/2000/svg" xmlns:xlink="http://www.w3.org/1999/xlink">
    <!-- Generator: Sketch 48.1 (47250) - http://www.bohemiancoding.com/sketch -->
    <title>gavel</title>
    <desc>Created with Sketch.</desc>
    <defs></defs>
    <g id="gavel---f0e3" stroke="none" stroke-width="1" fill="none" fill-rule="evenodd">
        <path d="M35.7235023,-0.234375 C36.1612903,0.203413018 37.0368664,1.07898906 37.4746544,1.51677707 C39.5760369,3.66193825 43.7788018,7.95226061 45.8801843,10.0974218 C46.40553,10.5789887 47.4562212,11.5421226 47.9815668,12.0236895 C47.4562212,12.5490351 46.40553,13.5997264 45.8801843,14.125072 C45.7050691,14.3001872 45.3548387,14.6504176 45.1797235,14.8255328 C49.1198157,18.7218461 57,26.5144726 60.9400922,30.4107858 C61.1152074,30.1918919 61.4654378,29.7541042 61.640553,29.5352103 C62.1658986,29.0974222 63.2165899,28.2218462 63.7419355,27.7840582 C64.1797235,28.2218462 65.0552995,29.0974222 65.4930876,29.5352103 C67.59447,31.6803714 71.797235,35.9706938 73.8986175,38.115855 C74.4239631,38.5974219 75.4746544,39.5605558 76,40.0421227 C75.4746544,40.5674683 74.4239631,41.6181596 73.8986175,42.1435052 C68.9953917,47.046731 59.1889401,56.8531826 54.2857143,61.7564084 C53.8479263,62.2379753 52.9723502,63.2011092 52.5345622,63.6826761 C52.0092166,63.2011092 50.9585253,62.2379753 50.4331797,61.7564084 C48.3317972,59.6550259 44.1290323,55.4522609 42.0276498,53.3508785 C41.5023041,52.8255328 40.4516129,51.7748416 39.9262673,51.249496 C40.4516129,50.767929 41.5023041,49.8047952 42.0276498,49.3232282 C42.2903226,49.1043343 42.8156682,48.6665465 43.078341,48.4476526 C41.5898618,46.9591734 38.6129032,43.9822149 37.124424,42.4937356 C28.8940092,50.8117079 12.4331797,67.4476526 4.20276498,75.765625 C3.15207373,74.7149338 1.05069124,72.6135513 0,71.56286 C8.31797235,63.3324453 24.9539171,46.8716158 33.2718894,38.641201 C31.7834101,37.1527218 28.8064516,34.1757632 27.3179724,32.687284 C27.0552995,32.9499568 26.5299539,33.4753024 26.2672811,33.7379752 C25.8294931,34.2195422 24.9539171,35.182676 24.516129,35.664243 C23.9907834,35.182676 22.9400922,34.2195422 22.4147465,33.7379752 C20.3133641,31.6365927 16.1105991,27.4338278 14.0092166,25.3324453 C13.483871,24.8070997 12.4331797,23.7564084 11.9078341,23.2310628 C12.4331797,22.7494959 13.483871,21.786362 14.0092166,21.3047951 C18.9124424,16.3577906 28.718894,6.46378157 33.6221198,1.51677707 C34.1474654,1.07898906 35.1981567,0.203413018 35.7235023,-0.234375 Z M35.7235023,7.47069412 C31.7834101,11.4107863 23.9032258,19.2909706 19.9631336,23.2310628 C21.1013825,24.3693116 23.3778802,26.6458093 24.516129,27.7840582 C28.4124423,23.843966 36.2050688,15.9637817 40.101382,12.0236895 C39.0069121,10.8854407 36.8179722,8.60894297 35.7235023,7.47069412 Z M41.3271889,18.8531831 C38.8317973,21.3485746 33.8410142,26.3393578 31.3456226,28.8347494 C35.2419358,32.7310627 43.0345623,40.5236892 46.9308756,44.4200024 C49.4262672,41.9246108 54.4170504,36.9338277 56.9124419,34.4384361 C53.0161287,30.5421228 45.2235022,22.7494963 41.3271889,18.8531831 Z M63.7419355,35.4891273 C63.5230416,35.7080214 63.0852538,36.1458097 62.8663599,36.3647038 C59.1451616,40.0859018 51.7027651,47.5282979 47.9815668,51.249496 C49.1198157,52.3877448 51.3963134,54.6642425 52.5345622,55.8024914 C56.4308755,51.8623992 64.223502,43.9822149 68.1198152,40.0421227 C67.0253453,38.9038738 64.8364054,36.6273762 63.7419355,35.4891273 Z" id="gavel" fill="#000000" fill-rule="nonzero"></path>
    </g>
</svg>