<?xml version="1.0" encoding="UTF-8"?>
<svg width="55px" height="76px" viewBox="0 0 55 76" version="1.1" xmlns="http://www.w3.org/2000/svg" xmlns:xlink="http://www.w3.org/1999/xlink">
    <!-- Generator: Sketch 48.1 (47250) - http://www.bohemiancoding.com/sketch -->
    <title>gbp</title>
    <desc>Created with Sketch.</desc>
    <defs></defs>
    <g id="gbp---f154" stroke="none" stroke-width="1" fill="none" fill-rule="evenodd" transform="translate(-11.000000, 0.000000)">
        <path d="M44.3007818,0 C47.0221356,0 49.8151042,0.575757576 52.6796875,1.72727273 C51.8203125,3.88636364 50.7460938,6.58522727 50.1015625,8.20454545 C44.802083,6.04545491 39.8248693,6.58522773 35.1699216,9.82386391 C30.5149739,13.0625001 28.1875,17.4166667 28.1875,22.8863636 C28.1875,25.0454542 29.1901042,28.9318178 31.1953125,34.5454545 C38.2135417,34.5454545 46.9863281,34.5454545 52.25,34.5454545 C52.25,36.2727273 52.25,39.7272727 52.25,41.4545455 C47.5234375,41.4545455 38.0703125,41.4545455 33.34375,41.4545455 C33.9166667,43.469697 34.3463542,44.7651515 34.6328125,45.3409091 C36.7812496,54.4090905 35.8502599,62.3257572 31.8398432,69.0909091 C40.9348955,69.0909091 52.3037108,69.0909091 59.125,69.0909091 C59.125,66.5 59.125,61.3181818 59.125,58.7272727 C60.84375,58.7272727 64.28125,58.7272727 66,58.7272727 C66,62.1818182 66,69.0909091 66,72.5454545 C66,73.4090909 66,75.1363636 66,76 C65.140625,76 63.421875,76 62.5625,76 C49.671875,76 23.890625,76 11,76 C11,74.2727273 11,70.8181818 11,69.0909091 C14.0078125,69.0909091 20.0234375,69.0909091 23.03125,69.0909091 C26.3255212,65.6363636 28.2591151,62.001894 28.8320318,58.1875003 C29.4049485,54.3731065 29.0468754,50.666667 27.7578125,47.0681818 C27.3281254,45.0530303 26.7552087,43.1818182 26.0390625,41.4545455 C22.171875,41.4545455 17.3378906,41.4545455 14.4375,41.4545455 C14.4375,39.7272727 14.4375,36.2727273 14.4375,34.5454545 C16.6933594,34.5454545 21.2050781,34.5454545 23.4609375,34.5454545 C22.0286458,30.083333 21.3125,26.1969693 21.3125,22.8863636 C21.3125,17.1287879 23.2819011,12.0909091 27.2207034,7.77272727 C31.1595057,3.45454545 35.9218754,0.935605876 41.5078125,0.215908538 C42.6536458,0.0719695127 43.5846356,0 44.3007818,0 Z" id="gbp" fill="#000000" fill-rule="nonzero"></path>
    </g>
</svg>