<?xml version="1.0" encoding="UTF-8"?>
<svg width="76px" height="76px" viewBox="0 0 76 76" version="1.1" xmlns="http://www.w3.org/2000/svg" xmlns:xlink="http://www.w3.org/1999/xlink">
    <!-- Generator: Sketch 48.1 (47250) - http://www.bohemiancoding.com/sketch -->
    <title>gg-circle</title>
    <desc>Created with Sketch.</desc>
    <defs></defs>
    <g id="gg-circle---f261" stroke="none" stroke-width="1" fill="none" fill-rule="evenodd">
        <path d="M38,0 C48.4236114,0 57.3628476,3.72743047 64.8177086,11.1822914 C72.2725695,18.6371524 76,27.5763886 76,38 C76,48.4236114 72.2725695,57.3628476 64.8177086,64.8177086 C57.3628476,72.2725695 48.4236114,76 38,76 C27.5763886,76 18.6371524,72.2725695 11.1822914,64.8177086 C3.72743047,57.3628476 0,48.4236114 0,38 C0,27.5763886 3.72743047,18.6371524 11.1822914,11.1822914 C18.6371524,3.72743047 27.5763886,0 38,0 Z M38,6 C29.2,6 21.6666667,9.13333333 15.4,15.4 C9.13333333,21.6666667 6,29.2 6,38 C6,46.8 9.13333333,54.3333333 15.4,60.6 C21.6666667,66.8666667 29.2,70 38,70 C46.8,70 54.3333333,66.8666667 60.6,60.6 C66.8666667,54.3333333 70,46.8 70,38 C70,29.2 66.8666667,21.6666667 60.6,15.4 C54.3333333,9.13333333 46.8,6 38,6 Z M29.6752243,18 C30.0487288,18.325 30.7957378,18.975 31.1692423,19.3 C32.1652542,20.34 34.1572782,22.42 35.1532901,23.46 C34.4062812,24.24 32.9122632,25.8 32.1652542,26.58 C31.5427468,25.8975001 30.2977318,24.5325002 29.6752243,23.8500003 C26.4070601,27.2625002 19.8707318,34.0875001 16.6025676,37.5 C19.8707318,40.9124999 26.4070601,47.7374998 29.6752243,51.1499997 C30.9513646,49.8174998 33.5036451,47.1524999 34.7797853,45.82 C32.6321346,43.61 28.3368332,39.19 26.1891825,36.98 C26.9361914,36.2 28.4302094,34.64 29.1772183,33.86 C31.6672483,36.46 36.6473081,41.66 39.137338,44.26 C39.4485917,44.65 40.0710992,45.43 40.3823529,45.82 C40.0710992,46.21 39.4485917,46.99 39.137338,47.38 C37.1453141,49.46 33.1612662,53.62 31.1692423,55.7 C30.7957378,56.025 30.0487288,56.675 29.6752243,57 C29.3017198,56.675 28.5547109,56.025 28.1812064,55.7 C24.1971585,51.54 16.2290628,43.22 12.245015,39.06 C11.9337612,38.67 11.3112537,37.89 11,37.5 C11.3112537,37.11 11.9337612,36.33 12.245015,35.94 C16.2290628,31.78 24.1971585,23.46 28.1812064,19.3 C28.5547109,18.975 29.3017198,18.325 29.6752243,18 Z M46.3247757,18 C46.6982802,18.325 47.4452891,18.975 47.8187936,19.3 C51.8028415,23.46 59.7709372,31.78 63.754985,35.94 C64.0662388,36.33 64.6887463,37.11 65,37.5 C64.6887463,37.89 64.0662388,38.67 63.754985,39.06 C59.7709372,43.22 51.8028415,51.54 47.8187936,55.7 C47.4452891,56.025 46.6982802,56.675 46.3247757,57 C45.9512712,56.675 45.2042622,56.025 44.8307577,55.7 C43.8347458,54.66 41.8427218,52.58 40.8467099,51.54 C41.5937188,50.76 43.0877368,49.2 43.8347458,48.42 C44.4572532,49.1024999 45.7022682,50.4674998 46.3247757,51.1499997 C49.5929399,47.7374998 56.1292682,40.9124999 59.3974324,37.5 C56.1292682,34.0875001 49.5929399,27.2625002 46.3247757,23.8500003 C45.0486354,25.1825002 42.4963549,27.8475001 41.2202147,29.18 C43.3678654,31.39 47.6631668,35.81 49.8108175,38.02 C49.0638086,38.8 47.5697906,40.36 46.8227817,41.14 C44.3327517,38.54 39.3526919,33.34 36.862662,30.74 C36.5514083,30.35 35.9289008,29.57 35.6176471,29.18 C35.9289008,28.79 36.5514083,28.01 36.862662,27.62 C38.8546859,25.54 42.8387338,21.38 44.8307577,19.3 C45.2042622,18.975 45.9512712,18.325 46.3247757,18 Z" id="gg-circle" fill="#000000" fill-rule="nonzero"></path>
    </g>
</svg>