<?xml version="1.0" encoding="UTF-8"?>
<svg width="76px" height="53px" viewBox="0 0 76 53" version="1.1" xmlns="http://www.w3.org/2000/svg" xmlns:xlink="http://www.w3.org/1999/xlink">
    <!-- Generator: Sketch 48.1 (47250) - http://www.bohemiancoding.com/sketch -->
    <title>gg</title>
    <desc>Created with Sketch.</desc>
    <defs></defs>
    <g id="gg---f260" stroke="none" stroke-width="1" fill="none" fill-rule="evenodd" transform="translate(0.000000, -12.000000)">
        <path d="M26.635514,12 C27.1682243,12.4416667 28.2336449,13.325 28.7663551,13.7666667 C30.1869159,15.18 33.0280374,18.0066667 34.4485981,19.42 C33.3831776,20.48 31.2523364,22.6 30.1869159,23.66 C29.2990654,22.7325001 27.5233645,20.8775003 26.635514,19.9500005 C21.9742992,24.5875003 12.6518695,33.8625001 7.99065466,38.5 C12.6518695,43.1374999 21.9742992,52.4124997 26.635514,57.0499995 C28.4556074,55.2391663 32.0957941,51.6174999 33.9158874,49.8066667 C30.8528034,46.8033333 24.7266354,40.7966667 21.6635514,37.7933333 C22.728972,36.7333333 24.8598131,34.6133333 25.9252336,33.5533333 C29.4766355,37.0866667 36.5794393,44.1533333 40.1308411,47.6866667 C40.5747664,48.2166667 41.4626168,49.2766667 41.9065421,49.8066667 C41.4626168,50.3366667 40.5747664,51.3966667 40.1308411,51.9266667 C37.2897196,54.7533333 31.6074766,60.4066667 28.7663551,63.2333333 C28.2336449,63.675 27.1682243,64.5583333 26.635514,65 C26.1028037,64.5583333 25.0373832,63.675 24.5046729,63.2333333 C18.8224299,57.58 7.45794393,46.2733333 1.77570093,40.62 C1.3317757,40.09 0.443925234,39.03 0,38.5 C0.443925234,37.97 1.3317757,36.91 1.77570093,36.38 C7.45794393,30.7266667 18.8224299,19.42 24.5046729,13.7666667 C25.0373832,13.325 26.1028037,12.4416667 26.635514,12 Z M49.364486,12 C49.8971963,12.4416667 50.9626168,13.325 51.4953271,13.7666667 C57.1775701,19.42 68.5420561,30.7266667 74.2242991,36.38 C74.6682243,36.91 75.5560748,37.97 76,38.5 C75.5560748,39.03 74.6682243,40.09 74.2242991,40.62 C68.5420561,46.2733333 57.1775701,57.58 51.4953271,63.2333333 C50.9626168,63.675 49.8971963,64.5583333 49.364486,65 C48.8317757,64.5583333 47.7663551,63.675 47.2336449,63.2333333 C45.8130841,61.82 42.9719626,58.9933333 41.5514019,57.58 C42.6168224,56.52 44.7476636,54.4 45.8130841,53.34 C46.7009346,54.2674999 48.4766355,56.1224997 49.364486,57.0499995 C54.0257008,52.4124997 63.3481305,43.1374999 68.0093453,38.5 C63.3481305,33.8625001 54.0257008,24.5875003 49.364486,19.9500005 C47.5443926,21.7608337 43.9042059,25.3825001 42.0841126,27.1933333 C45.1471966,30.1966667 51.2733646,36.2033333 54.3364486,39.2066667 C53.271028,40.2666667 51.1401869,42.3866667 50.0747664,43.4466667 C46.5233645,39.9133333 39.4205607,32.8466667 35.8691589,29.3133333 C35.4252336,28.7833333 34.5373832,27.7233333 34.0934579,27.1933333 C34.5373832,26.6633333 35.4252336,25.6033333 35.8691589,25.0733333 C38.7102804,22.2466667 44.3925234,16.5933333 47.2336449,13.7666667 C47.7663551,13.325 48.8317757,12.4416667 49.364486,12 Z" id="gg" fill="#000000" fill-rule="nonzero"></path>
    </g>
</svg>