<?xml version="1.0" encoding="UTF-8"?>
<svg width="64px" height="76px" viewBox="0 0 64 76" version="1.1" xmlns="http://www.w3.org/2000/svg" xmlns:xlink="http://www.w3.org/1999/xlink">
    <!-- Generator: Sketch 48.1 (47250) - http://www.bohemiancoding.com/sketch -->
    <title>gift</title>
    <desc>Created with Sketch.</desc>
    <defs></defs>
    <g id="gift---f06b" stroke="none" stroke-width="1" fill="none" fill-rule="evenodd" transform="translate(-6.000000, 0.000000)">
        <path d="M11.5941174,15 C11.3826092,14.8494459 11.1739332,14.6911232 10.968371,14.5246622 C6.33725605,10.7744593 4.64046109,5.19356084 7.17847339,2.05937668 C9.71648568,-1.07480749 15.5282116,-0.575425599 20.1593266,3.17477735 C22.6025253,5.15324066 24.220057,7.66966759 25.1925097,10.3403387 C26.1649624,7.66966759 27.7824941,5.15324066 30.2256929,3.17477735 C34.8568078,-0.575425599 40.6685337,-1.07480749 43.206546,2.05937668 C45.7445583,5.19356084 44.0477634,10.7744593 39.4166484,14.5246622 C39.2110862,14.6911232 39.0024102,14.8494459 38.790902,15 L70,15 L70,76 L6,76 L6,15 L11.5941174,15 Z M27,21 L27,35 L64,35 L64,21 L27,21 Z M27,41 L27,70 L64,70 L64,41 L27,41 Z M12,21 L12,35 L21,35 L21,21 L12,21 Z M12,41 L12,70 L21,70 L21,41 L12,41 Z M35.0780291,13.1471822 C37.6691973,11.1945969 38.8903747,8.44473775 37.8056051,7.00519987 C36.7208355,5.56566199 33.7408991,5.98156908 31.1497309,7.93415436 C28.5585627,9.88673964 27.3471534,12.6850503 27.0605491,15.1021803 C29.3609895,15.1021803 32.486861,15.0997675 35.0780291,13.1471822 Z M15.3069903,13.1471822 C12.7158221,11.1945969 11.4946448,8.44473775 12.5794144,7.00519987 C13.664184,5.56566199 16.6441203,5.98156908 19.2352885,7.93415436 C21.8264567,9.88673964 23.037866,12.6850503 23.3244703,15.1021803 C21.02403,15.1021803 17.8981585,15.0997675 15.3069903,13.1471822 Z" id="gift" fill="#000000"></path>
    </g>
</svg>