<?xml version="1.0" encoding="UTF-8"?>
<svg width="58px" height="76px" viewBox="0 0 58 76" version="1.1" xmlns="http://www.w3.org/2000/svg" xmlns:xlink="http://www.w3.org/1999/xlink">
    <!-- Generator: Sketch 48.1 (47250) - http://www.bohemiancoding.com/sketch -->
    <title>glass</title>
    <desc>Created with Sketch.</desc>
    <defs></defs>
    <g id="glass---f000" stroke="none" stroke-width="1" fill="none" fill-rule="evenodd" transform="translate(-9.000000, 0.000000)">
        <path d="M41,53.1246929 L41,70 L59,70 L59,76 L18,76 L18,70 L35,70 L35,53.1246929 C20.8201299,51.3862589 9.77128585,37.4637372 9.77128585,20.5462671 C9.77128585,12.7661759 12.1080527,5.61949899 16.0114755,0 C26.547998,0 49.034841,6.8435234e-13 60.0094313,0.0301343839 C63.9002896,5.64503784 66.2287141,12.780076 66.2287141,20.5462671 C66.2287141,37.4637372 55.1798701,51.3862589 41,53.1246929 Z M16.9951141,27 C19.1715646,38.4515117 27.6055152,47 38.0000951,47 C48.3722136,47 56.8241672,38.4142281 59.0296894,27 L16.9951141,27 Z M16.4484299,21 L59.5917978,21 C59.5804483,16.1789799 58.4805483,11.068447 56.0255058,6.02317703 C47.6058332,6 28.0743124,6 19.9907241,6 C17.56269,11.0733576 16.4684024,16.186976 16.4484299,21 Z" id="glass" fill="#000000"></path>
    </g>
</svg>