<?xml version="1.0" encoding="UTF-8"?>
<svg width="76px" height="76px" viewBox="0 0 76 76" version="1.1" xmlns="http://www.w3.org/2000/svg" xmlns:xlink="http://www.w3.org/1999/xlink">
    <!-- Generator: Sketch 48.1 (47250) - http://www.bohemiancoding.com/sketch -->
    <title>globe</title>
    <desc>Created with Sketch.</desc>
    <defs></defs>
    <g id="globe---f0ac" stroke="none" stroke-width="1" fill="none" fill-rule="evenodd">
        <path d="M38.0184681,0 C48.4370137,0 57.3719054,3.72561893 64.8231432,11.1768568 C72.2743811,18.6280946 76,27.5629863 76,37.9815319 C76,48.4000774 72.2743811,57.3349691 64.8231432,64.786207 C57.3719054,72.2374449 48.4370137,75.9630638 38.0184681,75.9630638 C27.5999226,75.9630638 18.6650309,72.2374449 11.213793,64.786207 C3.76255514,57.3349691 0.0369362144,48.4000774 0.0369362144,37.9815319 C0.0369362144,27.5629863 3.76255514,18.6280946 11.213793,11.1768568 C18.6650309,3.72561893 27.5999226,0 38.0184681,0 Z M38.0184681,6.33025532 C37.3755517,6.37971031 36.0897188,6.47862029 35.4468024,6.52807529 C37.1777315,6.67644077 40.6395896,6.97317174 42.3705186,7.12153723 C42.8156148,8.90192154 43.7058072,12.4626902 44.1509035,14.2430745 C41.7770577,14.7376257 37.0293662,15.726728 34.6555205,16.2212792 C34.0126038,15.3310871 32.7267704,13.5507028 32.0838537,12.6605106 C30.6991104,12.9572413 27.9296237,13.5507028 26.5448803,13.8474335 C27.0394315,15.9245485 28.0285339,20.0787786 28.5230851,22.1558936 C25.3579575,23.6395472 19.0277022,26.6068544 15.8625745,28.090508 C13.7360042,29.771982 9.48286369,33.1349302 7.35629342,34.8164042 C8.09812034,36.3989681 9.58177418,39.5640957 10.3236011,41.1466596 C13.2909083,41.1466596 19.2255226,41.1466596 22.1928298,41.1466596 C25.3579575,43.5205053 31.6882128,48.2681968 34.8533404,50.6420425 C34.0620585,53.8071702 32.4794947,60.1374255 31.6882128,63.3025532 C32.5289497,64.835662 32.5289497,64.835662 35.0511604,69.4349885 C36.5018443,69.5668685 37.4909468,69.6328085 38.0184681,69.6328085 C42.7661596,69.6328085 47.3160304,68.5777659 51.6680806,66.4676808 C53.3165848,61.192468 53.3165848,61.192468 56.6135931,50.6420425 C55.1629099,46.9493936 54.3056877,45.1030691 54.0419264,45.1030691 C51.8659013,45.4327698 49.1458699,45.8448955 47.5138511,46.092171 C45.9312873,44.8557931 42.7661596,42.3830374 41.1835958,41.1466596 C41.9748777,38.7728138 43.5574415,34.0251223 44.3487234,31.6512766 C45.7334668,30.6127192 48.5029535,28.5356044 49.8876968,27.497047 C51.2724402,27.2992266 54.0419269,26.9035856 55.4266702,26.7057651 C56.7125033,27.497047 59.2841696,29.0796109 60.5700027,29.8708928 C61.0645539,28.8817904 62.0536563,26.9035856 62.5482075,25.9144832 C60.4710924,25.2221113 56.3168624,23.8373674 54.2397474,23.1449955 C52.5088183,23.6890019 49.0469602,24.7770148 47.3160311,25.3210213 C47.1676656,23.6890024 46.8709347,20.4249648 46.7225692,18.792946 C47.4149408,18.1994845 48.7996842,17.0125617 49.4920559,16.4191002 C50.382248,16.7652859 52.1626323,17.4576574 53.0528245,17.8038431 C52.855004,16.2212792 52.459363,13.0561516 52.2615426,11.4735878 C52.9539142,11.4241325 52.9539142,11.4241325 55.0310293,11.2757668 C49.7558165,7.97875914 44.0849628,6.33025532 38.0184681,6.33025532 Z M34.4576995,6.52807529 C31.8200931,6.7918366 29.380307,7.38529821 27.1383413,8.3084601 C27.9296232,8.44034042 28.9187256,8.60519082 29.512187,8.70410106 C30.7485651,8.16009462 30.7485651,8.16009462 34.4576995,6.52807529 Z M6.5650115,40.3553776 C7.09253278,46.8175129 9.3344982,52.5872768 13.2909078,57.6646693 C17.2473173,62.7420617 22.1928295,66.2039202 28.1274442,68.0502446 C25.1601368,64.3575957 21.4510026,59.7417845 19.2255221,56.9722978 C18.285875,56.9722978 16.4065807,56.9722978 15.4669335,56.9722978 C13.98328,55.389734 11.0159728,52.2246064 9.53231919,50.6420425 C9.53231919,48.9605685 9.53231919,45.5976203 9.53231919,43.9161463 C8.79049227,43.0259541 8.79049227,43.0259541 6.5650115,40.3553776 Z" id="globe" fill="#000000" fill-rule="nonzero"></path>
    </g>
</svg>