<?xml version="1.0" encoding="UTF-8"?>
<svg width="76px" height="46px" viewBox="0 0 76 46" version="1.1" xmlns="http://www.w3.org/2000/svg" xmlns:xlink="http://www.w3.org/1999/xlink">
    <!-- Generator: Sketch 48.1 (47250) - http://www.bohemiancoding.com/sketch -->
    <title>graduation-cap</title>
    <desc>Created with Sketch.</desc>
    <defs></defs>
    <g id="graduation-cap---f19d" stroke="none" stroke-width="1" fill="none" fill-rule="evenodd" transform="translate(0.000000, -15.000000)">
        <path d="M38,15 C38.1899999,15.0884615 74.2899999,29.1980768 76,29.8615385 C74.2899999,30.5250001 64.0299999,34.5057693 62.32,35.1692308 C62.32,38.7961538 62.32,46.05 62.32,49.6769231 C62.32,51.8 61.408,53.6871795 59.584,55.3384615 C58.368,56.3999997 56.5946668,57.4025636 54.2640004,58.3461534 C49.7040001,60.1153845 44.2826667,61 38,61 C31.7173333,61 26.2959999,60.1153845 21.7359996,58.3461534 C19.4053332,57.4025636 17.632,56.3999997 16.416,55.3384615 C14.592,53.6871795 13.68,51.8 13.68,49.6769231 C13.68,44.8410256 13.68,38.7961538 13.68,35.1692308 C12.464,34.7269231 0.988,30.2153846 0,29.8615385 C1.7100001,29.1980768 37.8100001,15.0884615 38,15 Z M38,21.0153846 C32.3,23.2269231 20.9,27.65 15.2,29.8615385 C20.9,32.0730769 32.3,36.4961538 38,38.7076923 C43.7,36.4961538 55.1,32.0730769 60.8,29.8615385 C55.1,27.65 43.7,23.2269231 38,21.0153846 Z M18.544,37.1153842 C18.544,40.2557689 18.544,46.5365383 18.544,49.6769231 C18.544,49.9128205 18.7973332,50.2666667 19.3039996,50.7384615 C20.3173335,51.6820513 21.6346671,52.4487181 23.2560004,53.038462 C27.2080001,54.571795 32.1226667,55.3384615 38,55.3384615 C43.8773333,55.3384615 48.7919999,54.571795 52.7439996,53.038462 C54.3653329,52.4487181 55.6826665,51.6820513 56.6960004,50.7384615 C57.2026668,50.2666667 57.456,49.9128205 57.456,49.6769231 C57.456,45.4897434 57.456,40.2557689 57.456,37.1153842 C52.7819999,38.9288458 43.4339997,42.5557691 38.7599996,44.3692308 C38.5699997,44.4576923 38.1899999,44.6346154 38,44.7230769 C37.8100001,44.6346154 37.4300003,44.4576923 37.2400004,44.3692308 C32.5660003,42.5557691 23.2180001,38.9288458 18.544,37.1153842 Z" id="graduation-cap" fill="#000000" fill-rule="nonzero"></path>
    </g>
</svg>