<?xml version="1.0" encoding="UTF-8"?>
<svg width="76px" height="76px" viewBox="0 0 76 76" version="1.1" xmlns="http://www.w3.org/2000/svg" xmlns:xlink="http://www.w3.org/1999/xlink">
    <!-- Generator: Sketch 49.3 (51167) - http://www.bohemiancoding.com/sketch -->
    <title>h-square</title>
    <desc>Created with Sketch.</desc>
    <defs></defs>
    <g id="line" stroke="none" stroke-width="1" fill="none" fill-rule="evenodd">
        <g id="h-square---f0fd" fill="#000000" fill-rule="nonzero">
            <path d="M0,0 C0.863636364,0 2.59090909,0 3.45454545,0 C20.7272727,0 55.2727273,0 72.5454545,0 C73.4090909,0 75.1363636,0 76,0 C76,0.863636364 76,2.59090909 76,3.45454545 C76,20.7272727 76,55.2727273 76,72.5454545 C76,73.4090909 76,75.1363636 76,76 C75.1363636,76 73.4090909,76 72.5454545,76 C55.2727273,76 20.7272727,76 3.45454545,76 C2.59090909,76 0.863636364,76 0,76 C0,75.1363636 0,73.4090909 0,72.5454545 C0,55.2727273 0,20.7272727 0,3.45454545 C0,2.59090909 0,0.863636364 0,0 Z M6,6 C6,22 6,54 6,70 C22,70 54,70 70,70 C70,54 70,22 70,6 C54,6 22,6 6,6 Z M20.7272727,17.2727273 C22.4545455,17.2727273 25.9090909,17.2727273 27.6363636,17.2727273 C27.6363636,21.5909091 27.6363636,30.2272727 27.6363636,34.5454545 C32.8181818,34.5454545 43.1818182,34.5454545 48.3636364,34.5454545 C48.3636364,30.2272727 48.3636364,21.5909091 48.3636364,17.2727273 C50.0909091,17.2727273 53.5454545,17.2727273 55.2727273,17.2727273 C55.2727273,27.6363636 55.2727273,48.3636364 55.2727273,58.7272727 C53.5454545,58.7272727 50.0909091,58.7272727 48.3636364,58.7272727 C48.3636364,54.4090909 48.3636364,45.7727273 48.3636364,41.4545455 C43.1818182,41.4545455 32.8181818,41.4545455 27.6363636,41.4545455 C27.6363636,45.7727273 27.6363636,54.4090909 27.6363636,58.7272727 C25.9090909,58.7272727 22.4545455,58.7272727 20.7272727,58.7272727 C20.7272727,48.3636364 20.7272727,27.6363636 20.7272727,17.2727273 Z" id="h-square"></path>
        </g>
    </g>
</svg>