<?xml version="1.0" encoding="UTF-8"?>
<svg width="75px" height="75px" viewBox="0 0 75 75" version="1.1" xmlns="http://www.w3.org/2000/svg" xmlns:xlink="http://www.w3.org/1999/xlink">
    <!-- Generator: Sketch 48.1 (47250) - http://www.bohemiancoding.com/sketch -->
    <title>hand-lizard-o</title>
    <desc>Created with Sketch.</desc>
    <defs></defs>
    <g id="hand-lizard-o---f258" stroke="none" stroke-width="1" fill="none" fill-rule="evenodd" transform="translate(-1.000000, -1.000000)">
        <path d="M33.226562,1 C43.1386715,1 62.9628905,1 72.875,1 C73.65625,1 75.21875,1 76,1 C76,1.78125 76,3.34375 76,4.125 C76,4.90625 76,6.46875 76,7.25 C76,11.2864587 73.4270833,14.0677087 69,15.5 C69,21 66.071615,24.7304683 63.792969,26.488281 C61.514323,28.2460937 58.9427083,29.125 56.078125,29.125 C49.4375,29.125 41.1367188,29.125 36.15625,29.125 C36.546875,30.6875 37.328125,33.8125 37.71875,35.375 C43.0898438,35.375 53.8320312,35.375 59.203125,35.375 C62.0677083,35.375 64.639323,36.2539063 66.917969,38.011719 C69.196615,39.7695317 72,41.9821777 72,46 C72,50.0178223 70.9101562,54 65.921875,54 C59.28125,54 50.9804688,54 46,54 C43.0052087,57.7760413 38.369792,60.7005207 32.25,62.523438 C32.25,65.9739587 32.25,70.2871095 32.25,72.875 C32.25,73.65625 32.25,75.21875 32.25,76 C31.46875,76 29.90625,76 29.125,76 C22.875,76 10.375,76 4.125,76 C3.34375,76 1.78125,76 1,76 C1,75.21875 1,73.65625 1,72.875 C1,65.9414062 1,52.0742188 1,45.140625 C1,42.2760417 1.716146,39.6067707 3.148438,37.132812 C8.682292,27.692708 15.5996095,15.892578 19.75,8.8125 C22.744792,3.60416667 27.2369793,1 33.226562,1 Z M33.226562,7 C29.7109373,7 27.0416667,8.56875 25.21875,11.70625 C19.6197917,21.1841144 12.3710937,33.0314449 8.171875,40.1398432 C7.390625,41.5778644 7,43.2119792 7,45.0421875 C7,50.5328125 7,58.8520833 7,70 L26,70 C26,62.2837242 26,58.2131515 26,57.7882818 C26.6347655,57.6412113 27.9042965,57.3470704 28.539062,57.2 C31.2734373,56.6770833 33.7799478,55.729297 36.0585935,54.3566409 C38.3372392,52.9839848 39.9322913,51.7747401 40.84375,50.7289068 C41.2994793,50.1406253 42.9365236,48.2941406 43.1806641,48 C43.5712891,48 57.3778716,48 63,48 C65.9870605,48 65,44 63.2070315,42.7871091 C61.414063,41.5742182 60.765625,41.5125 59.203125,41.5125 C52.0416667,41.5125 43.0898438,41.5125 37.71875,41.5125 C36.4166667,41.5125 35.1796875,41.0876303 34.0078125,40.2378909 C32.8359375,39.3881515 32.1197917,38.2442712 31.859375,36.80625 C31.3385417,34.7145833 30.6875,32.1 30.296875,30.53125 C29.7760417,28.5703122 30.1341145,26.772786 31.3710935,25.1386716 C32.6080725,23.5045572 34.2031247,22.6875 36.15625,22.6875 C42.796875,22.6875 51.0976562,22.6875 56.078125,22.6875 C57.640625,22.6875 58.9752605,22.2626303 60.0820315,21.4128909 C61.1888025,20.5631515 61.9375003,19.4192712 62.328125,17.98125 C62.4583333,17.4583333 62.6210938,16.8046875 62.71875,16.4125 C55.8828125,16.4125 42.2109375,16.4125 35.375,16.4125 C36.15625,14.84375 37.71875,11.70625 38.5,10.1375 C44.9453125,10.1375 66.2890625,10.1375 66.875,10.1375 C68.9583333,10.1375 70,9.09166667 70,7 C57.8255207,7 42.3574215,7 33.226562,7 Z" id="hand-lizard-o" fill="#000000" fill-rule="nonzero"></path>
    </g>
</svg>