<?xml version="1.0" encoding="UTF-8"?>
<svg width="76px" height="64px" viewBox="0 0 76 64" version="1.1" xmlns="http://www.w3.org/2000/svg" xmlns:xlink="http://www.w3.org/1999/xlink">
    <!-- Generator: Sketch 48.1 (47250) - http://www.bohemiancoding.com/sketch -->
    <title>hand-o-right</title>
    <desc>Created with Sketch.</desc>
    <defs></defs>
    <g id="hand-o-right---f0a4" stroke="none" stroke-width="1" fill="none" fill-rule="evenodd" transform="translate(0.000000, -6.000000)">
        <path d="M0.191780822,25.7945205 L15.459638,25.7945205 C20.0399951,21.2174658 34.4172276,6.97773973 34.6292813,6.80821918 C43.3398521,6.80821918 43.6203523,12.006849 43.6203523,13.9280822 C43.6203523,17.0924658 38.9975845,25.2859589 38.8703523,25.7945205 L68.0489237,25.7945205 C70.3108284,25.7945205 72.2334475,26.5856164 73.8167808,28.1678082 C75.4001142,29.75 76.1917808,31.6712329 76.1917808,33.9315068 C76.1917808,36.1917808 75.4001142,38.1130137 73.8167808,39.6952055 C72.2334475,41.2773973 70.3108284,42.0684932 68.0489237,42.0684932 L58.3792813,42.0684932 L53.7989237,62.75 C53.4596377,64.6712332 52.5266019,66.2251716 50.9998163,67.4118153 C49.4730307,68.598459 47.8048761,69.1917808 45.9953523,69.1917808 L0.191780822,69.1917808 L0.191780822,25.7945205 Z M6.19178082,31.2191781 L6.19178082,63.7671233 L13.7632094,63.7671233 L13.7632094,31.2191781 L6.19178082,31.2191781 Z M19.1917808,29.5239726 L19.1917808,63.7671233 L45.9953523,63.7671233 C47.4655906,63.7671233 48.3703525,63.0890411 48.709638,61.7328767 C49.897138,55.9691781 53.8413341,37.1523973 53.9685661,36.6438356 L68.0489237,36.6438356 C69.8584475,36.6438356 70.7632094,35.739726 70.7632094,33.9315068 C70.7632094,32.1232877 69.8584475,31.2191781 68.0489237,31.2191781 L31.7453523,31.2191781 C31.9998165,30.3715753 36.3960916,21.0368045 37.1429527,19.4223463 C37.8898137,17.8078881 40.0227039,12.6822962 36.3145836,12.3117506 C33.430655,15.137093 27.7230541,20.8745004 19.1917808,29.5239726 Z" id="hand-o-right" fill="#000000" fill-rule="nonzero"></path>
    </g>
</svg>