<?xml version="1.0" encoding="UTF-8"?>
<svg width="76px" height="64px" viewBox="0 0 76 64" version="1.1" xmlns="http://www.w3.org/2000/svg" xmlns:xlink="http://www.w3.org/1999/xlink">
    <!-- Generator: Sketch 48.1 (47250) - http://www.bohemiancoding.com/sketch -->
    <title>hand-o-left</title>
    <desc>Created with Sketch.</desc>
    <defs></defs>
    <g id="hand-o-left---f0a5" stroke="none" stroke-width="1" fill="none" fill-rule="evenodd" transform="translate(0.000000, -6.000000)">
        <path d="M76,25.7945205 L76,69.1917808 L30.1964286,69.1917808 C28.3869048,69.1917808 26.7187501,68.598459 25.1919645,67.4118153 C23.6651789,66.2251716 22.7321431,64.6712332 22.3928571,62.75 L17.8124996,42.0684932 L8.14285714,42.0684932 C5.88095238,42.0684932 3.95833333,41.2773973 2.375,39.6952055 C0.791666667,38.1130137 0,36.1917808 0,33.9315068 C0,31.6712329 0.791666667,29.75 2.375,28.1678082 C3.95833333,26.5856164 5.88095238,25.7945205 8.14285714,25.7945205 L37.3214286,25.7945205 C37.1941963,25.2859589 32.5714286,17.0924658 32.5714286,13.9280822 C32.5714286,12.006849 32.8519287,6.80821918 41.5624996,6.80821918 C41.7745532,6.97773973 56.1517857,21.2174658 60.7321429,25.7945205 L76,25.7945205 Z M70,31.2191781 L62.4285714,31.2191781 L62.4285714,63.7671233 L70,63.7671233 L70,31.2191781 Z M57,29.5239726 C48.4687267,20.8745004 42.7611258,15.137093 39.8771973,12.3117506 C36.1690769,12.6822962 38.3019671,17.8078881 39.0488281,19.4223463 C39.7956892,21.0368045 44.1919643,30.3715753 44.4464286,31.2191781 L8.14285714,31.2191781 C6.33333333,31.2191781 5.42857143,32.1232877 5.42857143,33.9315068 C5.42857143,35.739726 6.33333333,36.6438356 8.14285714,36.6438356 L22.2232147,36.6438356 C22.3504468,37.1523973 26.2946429,55.9691781 27.4821429,61.7328767 C27.8214283,63.0890411 28.7261902,63.7671233 30.1964286,63.7671233 L57,63.7671233 L57,29.5239726 Z" id="hand-o-left" fill="#000000" fill-rule="nonzero"></path>
    </g>
</svg>