<?xml version="1.0" encoding="UTF-8"?>
<svg width="76px" height="45px" viewBox="0 0 76 45" version="1.1" xmlns="http://www.w3.org/2000/svg" xmlns:xlink="http://www.w3.org/1999/xlink">
    <!-- Generator: Sketch 48.1 (47250) - http://www.bohemiancoding.com/sketch -->
    <title>handshake-o</title>
    <desc>Created with Sketch.</desc>
    <defs></defs>
    <g id="handshake-o---f2b5" stroke="none" stroke-width="1" fill="none" fill-rule="evenodd" transform="translate(0.000000, -16.000000)">
        <path d="M60.4076087,46.9184783 C60.8206522,47.5380435 61.0271739,48.3641304 61.0271739,49.1902174 C61.0271739,50.7391304 59.9945652,52.1847826 58.7554348,53.0108696 C56.3804348,54.6630435 52.5597826,56.3152174 48.7391304,57.7608696 C44.9184783,59.2065217 41.3043478,60.3423913 38.7228261,60.3423913 C37.8967391,60.3423913 36.9673913,60.1358696 36.1413043,59.6195652 C35.3152174,60.0326087 34.3858696,60.3423913 33.4565217,60.3423913 C32.2173913,60.3423913 31.1847826,59.9293478 30.2554348,59.3097826 C30.2554348,59.3097826 29.326087,58.818269 28.0869565,57.992182 C26.8478261,57.1660951 25.298913,56.0054348 23.75,54.9728261 C22.201087,53.9402174 20.6521739,52.9076087 19.5163043,51.9782609 C18.8967391,51.5652174 18.3804348,51.2554348 17.9673913,50.9456522 C17.5543478,50.7391304 17.3478261,50.6358696 17.0380435,50.326087 C16.0054348,49.3967391 15.2826087,48.0543478 15.076087,46.6086957 L0,46.6086957 L0,22.6086957 L26.951087,22.6086957 L39.0326087,16.2065217 C39.3423913,16.1032609 39.548913,16 39.8586957,16 C40.1684783,16 40.4782609,16 40.7880435,16.2065217 L54.4184783,22.6086957 L76,22.6086957 L76,46.6086957 L60.4076087,46.6086957 C60.201087,46.7119565 60.3043478,46.8152174 60.4076087,46.9184783 Z M66,26.6086957 L66,42.6086957 L70,42.6086957 L70,26.6086957 L66,26.6086957 Z M6,26.6086957 L6,42.6086957 L10,42.6086957 L10,26.6086957 L6,26.6086957 Z M34.1793478,54.3780516 C34.1793478,54.2747907 33.8695652,54.068269 33.6630435,53.8617473 C33.3532609,53.5519647 32.8369565,53.1389212 32.3206522,52.7258777 C31.1847826,51.7965299 29.7391304,50.6606603 28.2934783,49.4215299 C26.8478261,48.2856603 25.298913,47.0465299 24.1630435,46.117182 C23.0271739,45.2910951 21.9945652,44.4650081 21.9945652,44.4650081 C21.6847826,44.2584864 21.2717391,44.1552255 20.8586957,44.1552255 C19.7228261,44.1552255 18.8967391,44.9813125 18.8967391,46.117182 C18.8967391,46.7367473 19.1032609,47.2530516 19.5163043,47.5628342 C19.6195652,47.6660951 19.826087,47.769356 20.0326087,47.9758777 C20.3423913,48.2856603 20.8586957,48.5954429 21.4782609,49.0084864 C22.7173913,49.8345734 24.2663043,50.867182 25.8152174,51.8997907 C27.3641304,52.9323994 28.9130435,53.9650081 30.1521739,54.7910951 C31.3913043,55.617182 32.1141304,56.1334864 32.5271739,56.443269 C32.8369565,56.5465299 33.0434783,56.6497907 33.3532609,56.6497907 C34.1793478,56.6497907 34.6956522,56.0302255 34.5923913,55.3073994 C34.5923913,54.894356 34.3858696,54.5845734 34.1793478,54.3780516 Z M56.8967391,49.1117473 C56.7934783,49.0084864 56.5869565,48.5954429 56.173913,48.1823994 L38.7228261,28.8726168 L30.875,32.2802255 C30.2554348,32.4867473 29.5326087,32.693269 28.8097826,32.693269 C25.9184783,32.693269 23.5434783,30.318269 23.5434783,27.4269647 C23.5434783,27.1033921 23.6068488,26.8431901 23.6839463,26.5967151 C23.6981585,26.55128 20.4701764,26.5552735 14,26.6086957 L14,42.6086957 C15.3356962,42.6543973 16.0210327,42.6551672 16.0560096,42.6110051 C17.1934475,41.1748688 18.8845381,40.2313125 20.8586957,40.2313125 C22.0978261,40.2313125 23.2336957,40.644356 24.1630435,41.2639212 C24.6793478,41.5737038 25.4021739,42.193269 26.6413043,43.1226168 C27.7771739,44.0519647 29.326087,45.2910951 30.7717391,46.4269647 C32.2173913,47.6660951 33.6630435,48.8019647 34.798913,49.7313125 C35.4184783,50.144356 35.8315217,50.5573994 36.2445652,50.867182 C36.6576087,51.1769647 36.7608696,51.2802255 37.0706522,51.5900081 C38,52.519356 38.6195652,53.8617473 38.6195652,55.3073994 C38.6195652,55.8237038 38.5163043,56.2367473 38.4130435,56.6497907 C38.5163043,56.6497907 38.5163043,56.6497907 38.6195652,56.6497907 C39.7554348,56.6497907 43.576087,55.617182 47.2934783,54.2747907 C51.0108696,52.9323994 54.7282609,51.0737038 56.4836957,49.9378342 C57.3097826,49.4215299 57,49.7313125 57,49.5247907 C57,49.2150081 57,49.2150081 56.8967391,49.1117473 Z M61.9891304,42.6086957 L61.9891304,26.6086957 L54,26.5967151 C53.7934783,26.5967151 49.1485507,24.3952041 40.0652174,19.992182 L28.3967391,25.9813125 L28.0869565,26.1878342 L27.9836957,26.2910951 C27.673913,26.4976168 27.4673913,26.9106603 27.4673913,27.3237038 C27.4673913,28.1497907 28.0869565,28.6660951 28.8097826,28.6660951 C29.0163043,28.6660951 29.1195652,28.6660951 29.326087,28.5628342 L38.5163043,24.5356603 C39.3423913,24.2258777 40.2717391,24.4323994 40.7880435,25.0519647 L57.3097826,43.3291386 C57.5163043,43.2258777 58,42.6086957 59,42.6086957 C59.6666667,42.6086957 60.6630435,42.6086957 61.9891304,42.6086957 Z" id="handshake-o" fill="#000000" fill-rule="nonzero"></path>
    </g>
</svg>