<?xml version="1.0" encoding="UTF-8"?>
<svg width="66px" height="66px" viewBox="0 0 66 66" version="1.1" xmlns="http://www.w3.org/2000/svg" xmlns:xlink="http://www.w3.org/1999/xlink">
    <!-- Generator: Sketch 48.1 (47250) - http://www.bohemiancoding.com/sketch -->
    <title>hand-grab-o</title>
    <desc>Created with Sketch.</desc>
    <defs></defs>
    <g id="hand-grab-o---f255" stroke="none" stroke-width="1" fill="none" fill-rule="evenodd" transform="translate(-5.000000, -5.000000)">
        <path d="M36.4350009,5 C39.8391296,5 42.4576901,6.44047619 44.2906825,9.32142857 C45.8618188,8.53571429 47.4329552,8.14285714 49.0040915,8.14285714 C52.4082202,8.14285714 55.0267807,9.58333333 56.8597731,12.4642857 C58.4309094,11.6785714 60.0020457,11.2857143 61.5731821,11.2857143 C64.1917426,11.2857143 66.4175191,12.202381 68.2505114,14.0357143 C70.0835038,15.8690476 71,18.0952381 71,20.7142857 C71,30.1428571 71,41.9285714 71,49 C71,55.0238095 68.8396876,60.1964286 64.5190627,64.5178571 C60.1984378,68.8392857 55.0267807,71 49.0040915,71 C43.5051144,71 36.6313929,71 32.5071601,71 C25.8298304,71 20.3308533,68.5119048 16.0102287,63.5357143 C13.5225962,60.7202383 10.4130556,57.2008932 8.54733117,55.0892862 C6.32155438,52.6011906 5.14320214,49.6874999 5.01227444,46.348214 C4.88134675,43.0089282 5.79784294,40.0952378 7.76176301,37.6071429 C9.98753947,34.7261905 12.76976,31.125 14.4390924,28.9642857 C14.4390924,28.4732143 14.4390924,27.4910714 14.4390924,27 C14.4390924,24.6428571 14.4390924,19.9285714 14.4390924,17.5714286 C14.4390924,14.952381 15.3555886,12.7261905 17.1885809,10.8928571 C19.0215733,9.05952381 21.2473498,8.14285714 23.8659103,8.14285714 C25.4370466,8.14285714 27.008183,8.53571429 28.5793193,9.32142857 C30.4123117,6.44047619 33.0308722,5 36.4350009,5 Z M36.4117647,11 C34.2941176,11 33.2352941,12.0588235 33.2352941,14.1764706 C33.2352941,15.2352941 33.2352941,16.5588235 33.2352941,17.3529412 C33.2352941,18.9411765 33.2352941,22.1176471 33.2352941,23.7058824 C31.6470588,23.7058824 28.4705882,23.7058824 26.8823529,23.7058824 C26.8823529,22.1176471 26.8823529,18.9411765 26.8823529,17.3529412 C26.8823529,15.2352941 25.8235294,14.1764706 23.7058824,14.1764706 C21.5882353,14.1764706 20.5294118,15.2352941 20.5294118,17.3529412 C20.5294118,20.5294118 20.5294118,24.5 20.5294118,26.8823529 C20.5294118,27.6764706 20.5294118,29.2647059 20.5294118,30.0588235 C20.5294118,30.3566176 20.5294118,30.9522059 20.5294118,31.25 C20.5294118,34.1286765 20.5294118,39.8860294 20.5294118,42.7647059 C18.9411765,42.7647059 15.7647059,42.7647059 14.1764706,42.7647059 C14.1764706,41.920956 14.1764706,40.2334563 14.1764706,39.3897064 C13.7794118,39.9356621 12.9852941,41.0275737 12.5882353,41.5735294 C11.5294118,42.8970588 11,44.452206 11,46.2389708 C11,48.0257357 11.6617647,49.6470592 12.9852941,51.1029412 C15.5,53.9485292 18.6433824,57.5055143 20.5294118,59.6397054 C23.5735298,63.2132351 27.544118,65 32.4411765,65 C38,65 44.9485294,65 49.1176471,65 C53.4852938,65 57.2242643,63.4448529 60.3345586,60.3345586 C63.4448529,57.2242643 65,53.4852938 65,49.1176471 C65,39.5882353 65,27.6764706 65,20.5294118 C65,18.4117647 63.9411765,17.3529412 61.8235294,17.3529412 C59.7058824,17.3529412 58.6470588,18.4117647 58.6470588,20.5294118 C58.6470588,21.5882353 58.6470588,22.9117647 58.6470588,23.7058824 C57.0588235,23.7058824 53.8823529,23.7058824 52.2941176,23.7058824 C52.2941176,22.1176471 52.2941176,18.9411765 52.2941176,17.3529412 C52.2941176,15.2352941 51.2352941,14.1764706 49.1176471,14.1764706 C47,14.1764706 45.9411765,15.2352941 45.9411765,17.3529412 C45.9411765,19.4705882 45.9411765,22.1176471 45.9411765,23.7058824 C44.3529412,23.7058824 41.1764706,23.7058824 39.5882353,23.7058824 C39.5882353,21.3235294 39.5882353,16.5588235 39.5882353,14.1764706 C39.5882353,12.0588235 38.5294118,11 36.4117647,11 Z" id="hand-grab-o" fill="#000000" fill-rule="nonzero"></path>
    </g>
</svg>