<?xml version="1.0" encoding="UTF-8"?>
<svg width="63px" height="76px" viewBox="0 0 63 76" version="1.1" xmlns="http://www.w3.org/2000/svg" xmlns:xlink="http://www.w3.org/1999/xlink">
    <!-- Generator: Sketch 48.1 (47250) - http://www.bohemiancoding.com/sketch -->
    <title>hand-o-down</title>
    <desc>Created with Sketch.</desc>
    <defs></defs>
    <g id="hand-o-down---f0a7" stroke="none" stroke-width="1" fill="none" fill-rule="evenodd" transform="translate(-7.000000, 0.000000)">
        <path d="M25.9863014,0 C26.6643836,0 68.7054795,0 69.3835616,0 C69.3835616,0.678571429 69.3835616,35.03125 69.3835616,45.8035714 C69.3835616,47.6130952 68.7902398,49.2812499 67.6035961,50.8080355 C66.4169524,52.3348211 64.863014,53.2678569 62.9417808,53.6071429 C56.0479452,55.1339287 47.4306507,57.042411 42.260274,58.1875004 C42.260274,60.604911 42.260274,65.4397323 42.260274,67.8571429 C42.260274,70.1190476 41.4691781,72.0416667 39.8869863,73.625 C38.3047945,75.2083333 36.3835616,76 34.1232877,76 C31.8630137,76 29.9417808,75.2083333 28.359589,73.625 C26.7773973,72.0416667 25.9863014,70.1190476 25.9863014,67.8571429 C25.9863014,58.1309524 25.9863014,45.9732143 25.9863014,38.6785714 C25.4777397,38.8058037 17.2842466,43.4285714 14.119863,43.4285714 C12.1986298,43.4285714 7,43.1480713 7,34.4375004 C7.16952055,34.2254468 21.4092466,19.8482143 25.9863014,15.2678571 C25.9863014,12.1294643 25.9863014,0.678571429 25.9863014,0 Z M31.4109589,6 L31.4109589,13.5714286 L63.9589041,13.5714286 L63.9589041,6 L31.4109589,6 Z M29.7157534,19 C21.0662812,27.5312733 15.3288739,33.2388742 12.5035314,36.1228027 C12.874077,39.8309231 17.9996689,37.6980329 19.6141271,36.9511719 C21.2285853,36.2043108 30.5633562,31.8080357 31.4109589,31.5535714 C31.4109589,32.4441965 31.4109589,34.2254468 31.4109589,35.1160719 C31.4109589,43.3013396 31.4109589,59.6718751 31.4109589,67.8571429 C31.4109589,69.6666667 32.3150685,70.5714286 34.1232877,70.5714286 C35.9315068,70.5714286 36.8356164,69.6666667 36.8356164,67.8571429 C36.8356164,63.8988095 36.8356164,54.3281247 36.8356164,53.7767853 C37.3441781,53.6495532 56.1609589,49.7053571 61.9246575,48.5178571 C63.2808219,48.1785717 63.9589041,47.2738098 63.9589041,45.8035714 C63.9589041,36.8690476 63.9589041,25.7008929 63.9589041,19 C58.2517123,19 46.8373288,19 29.7157534,19 Z" id="hand-o-down" fill="#000000" fill-rule="nonzero"></path>
    </g>
</svg>