<?xml version="1.0" encoding="UTF-8"?>
<svg width="69px" height="76px" viewBox="0 0 69 76" version="1.1" xmlns="http://www.w3.org/2000/svg" xmlns:xlink="http://www.w3.org/1999/xlink">
    <!-- Generator: Sketch 48.1 (47250) - http://www.bohemiancoding.com/sketch -->
    <title>hand-spock-o</title>
    <desc>Created with Sketch.</desc>
    <defs></defs>
    <g id="hand-spock-o" stroke="none" stroke-width="1" fill="none" fill-rule="evenodd">
        <path d="M49.8325291,76 C48.7030481,76.2006021 47.5340545,76.3009032 46.3255484,76.3009032 L33.7222742,76.3009032 C32.6352034,76.3009032 31.5717329,76.2006021 30.5318626,76 L33.5892857,76 C28.8392857,76 24.5416667,74.077381 20.6964286,70.2321429 C14.5892857,64.125 4.58035714,52.5803571 -1.17239551e-13,48 C2.5,41 10.2142857,38.25 17,43 L11.0704431,17.7127097 C10.6162711,15.5553922 10.9852859,13.511618 12.1774877,11.5813871 C13.3696894,9.6511562 15.1012204,8.40218309 17.3720806,7.83446774 C18.2804247,7.72092444 19.3023118,7.72092444 20.4377419,7.83446774 C20.4377419,6.01777957 21.0338427,4.39979159 22.2260441,2.98050381 C23.4182456,1.56121603 24.9226904,0.624486123 26.7393786,0.17031408 C27.1935506,0.05677136 27.7044943,0 28.2722097,0 C30.2024411,0 31.9055863,0.567715054 33.3816452,1.70314516 C34.857704,2.83857527 35.8795911,4.37140577 36.4473064,6.30163666 L40.5348548,22.311202 L43.2598871,9.36729882 C43.7140591,7.20998133 44.8778751,5.4784502 46.7513349,4.17270543 C48.6247947,2.86696066 50.6401831,2.4411743 52.7975,2.89534634 C55.0683602,3.34951838 56.8282769,4.51333431 58.07725,6.38679414 C59.3262231,8.26025396 59.7236237,10.332414 59.2694516,12.6032742 L58.7585076,15.6689355 C59.6668517,15.4418495 60.5751958,15.4418495 61.4835399,15.6689355 C63.6408574,16.1231075 65.3723885,17.2869233 66.6781333,19.1603828 C67.983878,21.0338424 68.4096644,23.0492309 67.9554924,25.2065484 L65.1428571,38.5 L65.1428571,57 C65.1428571,62.202381 63.2767857,66.6696429 59.5446429,70.4017857 C55.8125,74.1339286 51.3452381,76 46.1428571,76 L49.8325291,76 Z M59.9507097,37.6395076 L62.6757419,24.1846613 C62.7892847,23.5034032 62.6473558,22.8505308 62.2499554,22.2260441 C61.852555,21.6015574 61.2564544,21.2325427 60.4616537,21.119 C59.6668523,20.891914 58.9855941,21.005457 58.417879,21.459629 C57.850164,21.9138011 57.4527634,22.4815161 57.2256774,23.1627742 L54.5006452,37.4691935 L49.0505806,36.4473064 L53.9897012,11.5813871 C54.1032445,10.7865857 53.9613159,10.0769418 53.5639155,9.45245543 C53.1665151,8.82796901 52.5704143,8.45895416 51.7756129,8.34541085 C51.0943548,8.11832541 50.4414826,8.20348289 49.8169962,8.60088328 C49.1925098,8.99828367 48.8234949,9.59438426 48.7099516,10.389185 L43.9411452,33.7222742 L43.2598871,35.7660484 L38.4910806,35.7660484 L37.9801375,33.7222742 L31.1675569,7.66415279 C31.0540136,6.81258064 30.6566129,6.30163724 29.9753548,5.9610085 C29.4076401,5.50683646 28.726382,5.39329316 27.9315806,5.6203786 C27.1367793,5.7339219 26.5690642,6.10293676 26.2284355,6.72742317 C25.8878067,7.35190958 25.7742637,8.06155347 25.8878065,8.85635484 L27.0800085,13.9657903 L32.019129,35.7660484 L26.5690645,36.9582496 L21.8002581,15.3283065 C21.573172,14.5335057 21.1473858,13.9374049 20.5228994,13.5400042 C19.898413,13.1426036 19.1887691,13.0574462 18.3939677,13.2845323 C17.7127097,13.3980756 17.1733804,13.7670904 16.7759801,14.3915768 C16.3785797,15.0160632 16.2366508,15.7257068 16.3501935,16.5205076 L22,40 L22,54 C17.7218022,49.8965254 14.7218022,47.2298587 13,46 C9.5,43.5 6.41825802,46.581742 6,47 C10,51.5 20.1026786,61.5 24.7678571,66 C27.4821429,68.6666667 30.422619,70 33.5892857,70 L46.1428571,70 C49.8749997,70 53.0699401,68.6944444 55.7276784,66.0833331 C58.3854166,63.4722219 59.9507097,60.6666664 59.9507097,57 L59.9507097,37.6395076 Z" fill="#000000" fill-rule="nonzero"></path>
    </g>
</svg>