<?xml version="1.0" encoding="UTF-8"?>
<svg width="55px" height="76px" viewBox="0 0 55 76" version="1.1" xmlns="http://www.w3.org/2000/svg" xmlns:xlink="http://www.w3.org/1999/xlink">
    <!-- Generator: Sketch 48.1 (47250) - http://www.bohemiancoding.com/sketch -->
    <title>hand-peace-o</title>
    <desc>Created with Sketch.</desc>
    <defs></defs>
    <g id="hand-peace-o---f25b" stroke="none" stroke-width="1" fill="none" fill-rule="evenodd" transform="translate(-11.000000, 0.000000)">
        <path d="M35.792908,0 C38.0813241,0 40.0264777,0.791666667 41.628369,2.375 C43.2302602,3.95833333 44.0312058,5.88095238 44.0312058,8.14285714 C44.0312058,11.6488095 44.0312058,16.03125 44.0312058,18.6607143 C46.2052014,17.7559524 48.3791966,17.7559524 50.5531916,18.6607143 C52.2695033,19.3392857 53.642553,20.5833333 54.6723405,22.3928571 C56.731915,21.4880952 58.7914894,21.4880952 60.8510639,22.3928571 C63.9404253,23.5238095 65.6567373,25.7857143 66,29.1785714 C66,29.2916664 66,29.4047616 66,29.5178571 C66,29.729911 66,29.8147323 66,29.8571429 C66,29.9702378 66,30.083333 66,30.1964286 C66,39.1309524 66,50.2991071 66,57 C66,62.202381 64.1120568,66.6696429 60.3361703,70.4017857 C56.5602838,74.1339286 52.040662,76 46.7773051,76 C41.9716314,76 35.9645392,76 32.3602839,76 C28.1267145,76 24.2936177,74.7559524 20.8609937,72.2678571 C17.4283696,69.7797619 15.082743,66.5565475 13.8241138,62.5982139 C13.137589,60.3363091 12.279433,57.5089281 11.7645394,55.8124996 C10.9635935,53.1547619 10.7919621,50.6666667 11.2496453,48.1785714 C11.9361707,44.3333333 13.8241141,41.5059524 16.9134755,39.6964286 C17.2567376,39.4702381 17.8288416,39.1874999 18.6297876,38.8482139 C16.2269507,31.2142854 13.2234046,21.6718749 11.421277,15.9464286 C10.7347522,13.7976193 10.9349886,11.7336313 12.0219864,9.7544645 C13.1089842,7.77529769 14.7394806,6.44642857 16.9134755,5.76785714 C19.0874705,5.08928571 21.1756501,5.28720245 23.1780143,6.36160736 C25.1803785,7.43601227 26.524823,9.04761934 27.2113478,11.1964286 C27.3257686,11.5357143 27.4687946,11.9598214 27.5546102,12.2142857 C27.5546102,11.1964286 27.5546102,9.16071429 27.5546102,8.14285714 C27.5546102,5.88095238 28.3555558,3.95833333 29.9574471,2.375 C31.5593383,0.791666667 33.504492,0 35.792908,0 Z M35.5056822,6 C33.6961584,6 32.7913965,6.8887218 32.7913965,8.66616541 C32.7913965,15.9981203 32.7913965,25.1630639 32.7913965,30.6620301 C32.1976465,30.6620301 31.0101465,30.6620301 30.4163965,30.6620301 C29.6530036,30.8703241 28.1262179,31.2869123 27.3628251,31.4952063 C26.0056822,26.9543935 23.2913965,17.8727678 21.9342536,13.3319549 C21.7080631,12.554323 21.2556822,11.9988719 20.5771108,11.6656015 C19.8985393,11.3323311 19.1634204,11.2767859 18.3717541,11.4989657 C17.6931821,11.6100562 17.1842533,11.9988722 16.8449679,12.6654135 C16.5056825,13.3319549 16.4491347,13.9984962 16.6753246,14.6650376 C18.9937771,22.3302632 21.8918428,31.9117951 23.6306822,37.6607143 C26.4297893,37.3274436 32.0280036,36.6609023 34.8271108,36.3276316 C34.8271108,35.2167293 35.0533012,34.2169173 35.5056822,33.3281955 C36.4104441,30.9953008 37.5413965,28.0791823 38.2199679,26.3295113 C38.2199679,21.9136748 38.2199679,13.0820019 38.2199679,8.66616541 C38.2199679,6.8887218 37.315206,6 35.5056822,6 Z M46.8717541,23.4107143 C45.7408011,23.4107143 44.9491341,23.9761905 44.4967532,25.1071429 C43.1396103,28.5 41.4431818,32.7410714 40.4253246,35.2857143 C40.4253246,35.2857143 40.4253246,35.3988095 40.4253246,35.625 C40.4253246,35.7380955 40.3687771,35.7946433 40.2556822,35.7946433 C42.065206,35.7946433 43.7616346,36.416667 45.3449679,37.6607143 C45.3449679,37.5476188 45.3732418,37.4627973 45.4297896,37.4062498 C45.4863373,37.3497023 45.5146112,37.3214286 45.5146112,37.3214286 C45.9104444,36.3601192 46.4052359,35.1584825 46.7021108,34.4375004 C46.7021108,34.3950896 46.7021108,34.310268 46.7021108,34.2678571 C47.0413965,33.3348214 47.7199679,31.46875 48.0592536,30.5357143 C48.3985393,29.6875 49.0771108,27.9910714 49.4163965,27.1428571 C49.7556819,26.4642857 49.7839556,25.7857143 49.5012177,25.1071429 C49.2184797,24.4285714 48.7378251,23.919643 48.0592536,23.5803576 C47.7199682,23.467262 47.324135,23.4107143 46.8717541,23.4107143 Z M57.2199679,27.1428571 C56.767587,27.1428571 56.4283012,27.1994046 56.2021108,27.3124996 C55.5235393,27.6517856 55.0146106,28.1607143 54.6753246,28.8392857 C54.6753246,28.8392857 54.6753246,28.8958333 54.6753246,29.0089286 C54.6753246,29.1220238 54.6187771,29.1785714 54.5056822,29.1785714 C53.6009203,31.5535714 52.4699679,34.5223214 51.7913965,36.3035714 C50.9997295,38.1130952 51.4521105,39.3571429 53.1485393,40.0357143 C53.8271108,40.2619048 54.5056822,40.2336309 55.1842536,39.9508926 C55.8628251,39.6681544 56.3717535,39.1309521 56.7110389,38.3392857 C57.7288963,35.8511905 59.0012181,32.7410714 59.7646112,30.875 C59.8777061,30.6488095 59.9342536,30.3095238 59.9342536,29.8571429 C59.9342536,28.6130949 59.3687774,27.7648805 58.2378251,27.3124996 C57.8985396,27.1994046 57.5592539,27.1428571 57.2199679,27.1428571 Z M39,40.99868 C36.1813556,41.4365019 22,43.0476863 20.0382953,44.2122921 C18.5038481,45.1232477 17.523844,46.6524192 17.1885835,48.8707166 C16.8533236,50.53444 16.9650773,52.2536206 17.5238445,54.0282586 C18.1943648,56.246556 19.0325152,59.0194278 19.5354055,60.6831508 C20.4294325,63.4560223 22.0498565,65.7020484 24.3966773,67.421229 C26.7434981,69.1404097 29.4255793,70 32.442921,70 C37.1365631,70 43.0036158,70 46.5238474,70 C50.2117089,70 53.3687419,68.6967502 55.9949466,66.0902506 C58.6211513,63.483751 59.9342536,60.3504059 59.9342536,56.6902155 C59.9342536,52.1427058 59.9342536,46.4583186 59.9342536,43.0476863 C57.4756792,45.5987281 54.5700912,46.2087597 51.2174896,44.8777813 C50.0999558,44.4341218 49.1500521,43.7686326 48.3677787,42.8813136 C48.5912849,44.545037 48.2560245,46.0978452 47.3619974,47.5397382 C46.3562172,49.2034615 44.7357933,50.4235254 42.5007256,51.1999298 C42.5007256,51.1999298 42.444849,51.2553871 42.3330959,51.3663017 C39.036371,52.1981633 34.9154647,53.2379904 32.442921,53.8618867 C32.610551,54.1946313 32.9458112,54.8601205 33.1134413,55.1928651 C33.4487017,55.6365246 33.6163319,56.0801841 33.6163319,56.5238436 C33.6163319,57.1893323 33.3369483,57.7993639 32.7781811,58.3539385 C32.2194139,58.9085132 31.5488936,59.1858005 30.7666202,59.1858005 C29.7608394,59.1858005 28.9785658,58.6866834 28.4197991,57.6884493 C27.6375254,56.246556 26.6596833,54.4441893 26.072978,53.3627693 C25.8494713,52.9191099 25.7377179,52.4754504 25.7377179,52.0317909 C25.7377179,50.7008124 26.4082382,49.8689508 27.7492788,49.5362059 C32.1076608,48.4270572 38.6488497,47.0055951 40.8244248,46.2087597 C43,45.4119244 43.0874308,43.7131756 42.9198006,43.0476863 C42.7521704,42.3821971 41.8186444,40.5608582 39,40.99868 Z" id="hand-peace-o" fill="#000000" fill-rule="nonzero"></path>
    </g>
</svg>