<?xml version="1.0" encoding="UTF-8"?>
<svg width="66px" height="76px" viewBox="0 0 66 76" version="1.1" xmlns="http://www.w3.org/2000/svg" xmlns:xlink="http://www.w3.org/1999/xlink">
    <!-- Generator: Sketch 48.1 (47250) - http://www.bohemiancoding.com/sketch -->
    <title>hand-paper-o</title>
    <desc>Created with Sketch.</desc>
    <defs></defs>
    <g id="hand-paper-o---f256" stroke="none" stroke-width="1" fill="none" fill-rule="evenodd">
        <path d="M35.2857143,0 C37.0952381,0 38.735119,0.56547619 40.2053571,1.69642857 C41.6755952,2.82738095 42.6369048,4.29761905 43.0892857,6.10714286 C44.2202381,5.6547619 45.2380952,5.42857143 46.1428571,5.42857143 C48.4047619,5.42857143 50.327381,6.2202381 51.9107143,7.80357143 C53.4940476,9.38690476 54.2857143,11.3095238 54.2857143,13.5714286 C54.2857143,14.6458335 54.2857143,15.9888396 54.2857143,16.7946433 C55.1904762,16.4553573 56.0952381,16.2857143 57,16.2857143 C59.2619048,16.2857143 61.1845238,17.077381 62.7678571,18.6607143 C64.3511905,20.2440476 65.1428571,22.1666667 65.1428571,24.4285714 C65.1428571,35.2857143 65.1428571,48.8571429 65.1428571,57 C65.1428571,62.202381 63.2767857,66.6696429 59.5446429,70.4017857 C55.8125,74.1339286 51.3452381,76 46.1428571,76 C41.9583333,76 36.7276786,76 33.5892857,76 C28.8392857,76 24.5416667,74.077381 20.6964286,70.2321429 C14.5892857,64.125 4.58035714,52.5803571 -1.20542465e-13,48 C2.5,41 9.5,38 16.2857143,42.75 C16.2857143,42.2410714 16.2857143,20.3571429 16.2857143,13.5714286 C16.2857143,11.3095238 17.077381,9.38690476 18.6607143,7.80357143 C20.2440476,6.2202381 22.1666667,5.42857143 24.4285714,5.42857143 C25.3333333,5.42857143 26.3511905,5.6547619 27.4821429,6.10714286 C27.9345238,4.29761905 28.8958335,2.82738095 30.3660719,1.69642857 C31.8363097,0.56547619 33.4761905,0 35.2857143,0 Z M35.2857143,6 C33.4761905,6 32.5714286,6.88888889 32.5714286,8.66666667 C32.5714286,10.4444444 32.5714286,12.6666667 32.5714286,14 C32.5714286,19.3333333 32.5714286,30 32.5714286,35.3333333 C31.2142857,35.3333333 28.5,35.3333333 27.1428571,35.3333333 C27.1428571,30 27.1428571,19.3333333 27.1428571,14 C27.1428571,12.2222222 26.2380952,11.3333333 24.4285714,11.3333333 C22.6190476,11.3333333 22,12.2222222 22,14 C22,20.6666667 22,34 22,54 C17.7218022,49.8965254 14.7218022,47.2298587 13,46 C9.5,43.5 6.41825802,46.581742 6,47 C10,51.5 20.1026786,61.5 24.7678571,66 C27.4821429,68.6666667 30.422619,70 33.5892857,70 C37.7738095,70 43.0044643,70 46.1428571,70 C49.8749997,70 53.0699401,68.6944444 55.7276784,66.0833331 C58.3854166,63.4722219 59.7142857,60.333333 59.7142857,56.6666667 C59.7142857,46 59.7142857,32.6666667 59.7142857,24.6666667 C59.7142857,22.8888889 58.8095238,22 57,22 C55.1904762,22 54.2857143,22.8888889 54.2857143,24.6666667 C54.2857143,28.2222222 54.2857143,32.6666667 54.2857143,35.3333333 C52.9285714,35.3333333 50.2142857,35.3333333 48.8571429,35.3333333 C48.8571429,32.6666667 48.8571429,27.3333333 48.8571429,24.6666667 C48.8571429,22 48.8571429,16.6666667 48.8571429,14 C48.8571429,12.2222222 47.952381,11.3333333 46.1428571,11.3333333 C44.3333333,11.3333333 43.4285714,12.2222222 43.4285714,14 C43.4285714,21.1111111 43.4285714,30 43.4285714,35.3333333 C42.0714286,35.3333333 39.3571429,35.3333333 38,35.3333333 C38,28.6666667 38,15.3333333 38,8.66666667 C38,6.88888889 37.0952381,6 35.2857143,6 Z" id="hand-paper-o" fill="#000000" fill-rule="nonzero"></path>
    </g>
</svg>