<?xml version="1.0" encoding="UTF-8"?>
<svg width="76px" height="56px" viewBox="0 0 76 56" version="1.1" xmlns="http://www.w3.org/2000/svg" xmlns:xlink="http://www.w3.org/1999/xlink">
    <!-- Generator: Sketch 48.1 (47250) - http://www.bohemiancoding.com/sketch -->
    <title>hand-scissors-o</title>
    <desc>Created with Sketch.</desc>
    <defs></defs>
    <g id="hand-scissors-o" stroke="none" stroke-width="1" fill="none" fill-rule="evenodd" transform="translate(0.000000, -10.000000)">
        <path d="M76.5,35.292908 C76.5,37.5813241 75.7083333,39.5264777 74.125,41.128369 C72.5416667,42.7302602 70.6190476,43.5312058 68.3571429,43.5312058 L57.8392857,43.5312058 C58.7440476,45.7052014 58.7440476,47.8791966 57.8392857,50.0531916 C57.1607143,51.7695033 55.9166667,53.142553 54.1071429,54.1723405 C55.0119048,56.231915 55.0119048,58.2914894 54.1071429,60.3510639 C52.9761905,63.4404253 50.7142857,65.1567373 47.3214286,65.5 L19.5,65.5 C14.297619,65.5 9.83035714,63.6120568 6.09821429,59.8361703 C2.36607143,56.0602838 0.5,51.540662 0.5,46.2773051 L0.5,31.8602839 C0.5,27.6267145 1.74404762,23.7936177 4.23214286,20.3609937 C6.7202381,16.9283696 9.94345253,14.582743 13.9017861,13.3241138 L20.6875004,11.2645394 C23.3452381,10.4635935 25.8333333,10.2919621 28.3214286,10.7496453 C32.1666667,11.4361707 34.9940476,13.3241141 36.8035714,16.4134755 C37.0297619,16.7567376 37.3125001,17.3288416 37.6517861,18.1297876 L60.5535714,10.921277 C62.7023807,10.2347522 64.7663687,10.4349886 66.7455355,11.5219864 C68.7247023,12.6089842 70.0535714,14.2394806 70.7321429,16.4134755 C71.4107143,18.5874705 71.2127975,20.6756501 70.1383926,22.6780143 C69.0639877,24.6803785 67.4523807,26.024823 65.3035714,26.7113478 L64.2857143,27.0546102 L68.3571429,27.0546102 C70.6190476,27.0546102 72.5416667,27.8555558 74.125,29.4574471 C75.7083333,31.0593383 76.5,33.004492 76.5,35.292908 Z M70.5,35.0056822 C70.5,33.1961584 69.6112782,32.2913965 67.8338346,32.2913965 L45.8379699,32.2913965 L45.8379699,29.9163965 L45.0047937,26.8628251 L63.1680451,21.4342536 C63.945677,21.2080631 64.5011281,20.7556822 64.8343985,20.0771108 C65.1676689,19.3985393 65.2232141,18.6634204 65.0010343,17.8717541 C64.8899438,17.1931821 64.5011278,16.6842533 63.8345865,16.3449679 C63.1680451,16.0056825 62.5015038,15.9491347 61.8349624,16.1753246 L38.8392857,23.1306822 L40.1723684,34.3271108 C41.2832707,34.3271108 42.2830827,34.5533012 43.1718045,35.0056822 L50.1704887,37.7199679 L67.8338346,37.7199679 C69.6112782,37.7199679 70.5,36.815206 70.5,35.0056822 Z M53.0892857,46.3717541 C53.0892857,45.2408011 52.5238095,44.4491341 51.3928571,43.9967532 L41.2142857,39.9253246 L40.875,39.9253246 C40.7619045,39.9253246 40.7053567,39.8687771 40.7053567,39.7556822 C40.7053567,41.565206 40.083333,43.2616346 38.8392857,44.8449679 C38.9523812,44.8449679 39.0372027,44.8732418 39.0937502,44.9297896 L39.1785714,45.0146112 L42.0624996,46.2021108 L42.2321429,46.2021108 L45.9642857,47.5592536 L49.3571429,48.9163965 C50.0357143,49.2556819 50.7142857,49.2839556 51.3928571,49.0012177 C52.0714286,48.7184797 52.580357,48.2378251 52.9196424,47.5592536 C53.032738,47.2199682 53.0892857,46.824135 53.0892857,46.3717541 Z M49.3571429,56.7199679 C49.3571429,56.267587 49.3005954,55.9283012 49.1875004,55.7021108 C48.8482144,55.0235393 48.3392857,54.5146106 47.6607143,54.1753246 L47.4910714,54.1753246 C47.3779762,54.1753246 47.3214286,54.1187771 47.3214286,54.0056822 L40.1964286,51.2913965 C38.3869048,50.4997295 37.1428571,50.9521105 36.4642857,52.6485393 C36.2380952,53.3271108 36.2663691,54.0056822 36.5491074,54.6842536 C36.8318456,55.3628251 37.3690479,55.8717535 38.1607143,56.2110389 L45.625,59.2646112 C45.8511905,59.3777061 46.1904762,59.4342536 46.6428571,59.4342536 C47.8869051,59.4342536 48.7351195,58.8687774 49.1875004,57.7378251 C49.3005954,57.3985396 49.3571429,57.0592539 49.3571429,56.7199679 Z M35.50132,38.5 C35.0634981,35.6813556 33.4523137,21.5 32.2877079,19.5382953 C31.3767523,18.0038481 29.8475808,17.023844 27.6292834,16.6885835 C25.96556,16.3533236 24.2463794,16.4650773 22.4717414,17.0238445 L15.8168492,19.0354055 C13.0439777,19.9294325 10.7979516,21.5498565 9.07877096,23.8966773 C7.35959032,26.2434981 6.5,28.9255793 6.5,31.942921 L6.5,46.0238474 C6.5,49.7117089 7.80324981,52.8687419 10.4097494,55.4949466 C13.016249,58.1211513 16.1495941,59.4342536 19.8097845,59.4342536 L33.4523137,59.4342536 C30.9012719,56.9756792 30.2912403,54.0700912 31.6222187,50.7174896 C32.0658782,49.5999558 32.7313674,48.6500521 33.6186864,47.8677787 C31.954963,48.0912849 30.4021548,47.7560245 28.9602618,46.8619974 C27.2965385,45.8562172 26.0764746,44.2357933 25.3000702,42.0007256 L25.1336983,41.8330959 L22.6381133,31.942921 L21.3071349,32.6134413 C20.8634754,32.9487017 20.4198159,33.1163319 19.9761564,33.1163319 C19.3106677,33.1163319 18.7006361,32.8369483 18.1460615,32.2781811 C17.5914868,31.7194139 17.3141995,31.0488936 17.3141995,30.2666202 C17.3141995,29.2608394 17.8133166,28.4785658 18.8115507,27.9197991 L23.1372307,25.572978 C23.5808901,25.3494713 24.0245496,25.2377179 24.4682091,25.2377179 C25.7991876,25.2377179 26.6310492,25.9082382 26.9637941,27.2492788 C28.0729428,31.6076608 29.4944049,38.1488497 30.2912403,40.3244248 C31.0880756,42.5 32.7868244,42.5874308 33.4523137,42.4198006 C34.1178029,42.2521704 35.9391418,41.3186444 35.50132,38.5 Z" fill="#000000" fill-rule="nonzero"></path>
    </g>
</svg>