<?xml version="1.0" encoding="UTF-8"?>
<svg width="57px" height="76px" viewBox="0 0 57 76" version="1.1" xmlns="http://www.w3.org/2000/svg" xmlns:xlink="http://www.w3.org/1999/xlink">
    <!-- Generator: Sketch 48.1 (47250) - http://www.bohemiancoding.com/sketch -->
    <title>hand-rock-o</title>
    <desc>Created with Sketch.</desc>
    <defs></defs>
    <g id="hand-rock-o" stroke="none" stroke-width="1" fill="none" fill-rule="evenodd" transform="translate(-10.000000, 0.000000)">
        <path d="M33,20.0756975 C34.1872583,19.3585658 35.5700616,19 37.1484099,19 C40.0883392,19 41.5,21 42.5,23 C43,21 45,19 48.0035336,19 C49.0892977,19 50.1015121,19.1476212 51,19.45289 L51,11.5 C51,7.35786438 54.581722,4 59,4 C63.418278,4 67,7.35786438 67,11.5 L67,57 C67,62.202381 65.1342756,66.6696429 61.4028269,70.4017857 C57.6713781,74.1339286 53.204947,76 48.0035336,76 L33.7561837,76 C27.989399,76 23.2402824,73.8511905 19.5088339,69.5535714 L13.0636042,62.258929 C11.1413424,60.1101192 10.1236746,57.5937499 10.0106007,54.7098212 C9.89752674,51.8258925 10.6890462,49.3095235 12.385159,47.1607143 C14.3074204,44.672619 16.5583039,41.8660714 18,40 L18,7.5 C18,3.35786438 21.3578644,1.05471187e-15 25.5,0 C29.6421356,-7.91033905e-16 33,3.35786438 33,7.5 L33,20.0756975 Z M26,5 C24.3431458,5 23,6.34314575 23,8 L23,36 L29,36 L29,8 C29,6.34314575 27.6568542,5 26,5 Z M61,11.5 C61,10.1192881 59.8807119,9 58.5,9 C57.1192881,9 56,10.1192881 56,11.5 L56,39.5 C56,43.6421356 52.6421356,47 48.5,47 C46.811232,47 45.2528279,46.4418454 43.9992001,45.4999484 C43,48.5 39.8598398,50.7514497 36,51 C40.5,53 41,55 41,60 C38.1914569,53.6807779 31,51 28,50.5 L28,47.5 C35.2959656,47.0946686 40.0405488,45.1893372 41.5756508,42.3866454 C41.9341868,41.732053 42.1176471,40.9466858 42.1176471,40 L23.1176471,40 C22.1176471,41.5 16.6911765,49.5790442 16.3529412,50.0441176 C15.4509804,51.1715686 15,52.4963236 15,54.0183826 C15,55.5404415 15.5637255,56.9215689 16.6911765,58.1617647 L23.1176471,65.4338231 C25.7107846,68.477941 29.0931375,70 33.2647059,70 L47.4705882,70 C51.1911762,70 54.3762251,68.675245 57.0257351,66.0257351 C59.675245,63.3762251 61,60.1911762 61,56.4705882 L61,11.5 Z M37,24 C35.3431458,24 34,25.3431458 34,27 L34,36 L40,36 L40,27 C40,25.3431458 38.6568542,24 37,24 Z M48,24 C46.3431458,24 45,25.3431458 45,27 L45,39 C45,40.6568542 46.3431458,42 48,42 C49.6568542,42 51,40.6568542 51,39 L51,27 C51,25.3431458 49.6568542,24 48,24 Z" fill="#000000"></path>
    </g>
</svg>