<?xml version="1.0" encoding="UTF-8"?>
<svg width="63px" height="76px" viewBox="0 0 63 76" version="1.1" xmlns="http://www.w3.org/2000/svg" xmlns:xlink="http://www.w3.org/1999/xlink">
    <!-- Generator: Sketch 48.1 (47250) - http://www.bohemiancoding.com/sketch -->
    <title>hand-o-up</title>
    <desc>Created with Sketch.</desc>
    <defs></defs>
    <g id="hand-o-up---f0a6" stroke="none" stroke-width="1" fill="none" fill-rule="evenodd" transform="translate(-7.000000, 0.000000)">
        <path d="M25.9863014,76 L25.9863014,60.7321429 C21.4092466,56.1517857 7.16952055,41.7745532 7,41.5624996 C7,32.8519287 12.1986298,32.5714286 14.119863,32.5714286 C17.2842466,32.5714286 25.4777397,37.1941963 25.9863014,37.3214286 L25.9863014,8.14285714 C25.9863014,5.88095238 26.7773973,3.95833333 28.359589,2.375 C29.9417808,0.791666667 31.8630137,0 34.1232877,0 C36.3835616,0 38.3047945,0.791666667 39.8869863,2.375 C41.4691781,3.95833333 42.260274,5.88095238 42.260274,8.14285714 L42.260274,17.8124996 L62.9417808,22.3928571 C64.863014,22.7321431 66.4169524,23.6651789 67.6035961,25.1919645 C68.7902398,26.7187501 69.3835616,28.3869048 69.3835616,30.1964286 L69.3835616,76 L25.9863014,76 Z M31.4109589,70 L63.9589041,70 L63.9589041,62.4285714 L31.4109589,62.4285714 L31.4109589,70 Z M29.7157534,57 L63.9589041,57 L63.9589041,30.1964286 C63.9589041,28.7261902 63.2808219,27.8214283 61.9246575,27.4821429 C56.1609589,26.2946429 37.3441781,22.3504468 36.8356164,22.2232147 L36.8356164,8.14285714 C36.8356164,6.33333333 35.9315068,5.42857143 34.1232877,5.42857143 C32.3150685,5.42857143 31.4109589,6.33333333 31.4109589,8.14285714 L31.4109589,44.4464286 C30.5633562,44.1919643 21.2285853,39.7956892 19.6141271,39.0488281 C17.9996689,38.3019671 12.874077,36.1690769 12.5035314,39.8771973 C15.3288739,42.7611258 21.0662812,48.4687267 29.7157534,57 Z" id="hand-o-up" fill="#000000" fill-rule="nonzero"></path>
    </g>
</svg>