<?xml version="1.0" encoding="UTF-8"?>
<svg width="66px" height="76px" viewBox="0 0 66 76" version="1.1" xmlns="http://www.w3.org/2000/svg" xmlns:xlink="http://www.w3.org/1999/xlink">
    <!-- Generator: Sketch 48.1 (47250) - http://www.bohemiancoding.com/sketch -->
    <title>hand-pointer-o</title>
    <desc>Created with Sketch.</desc>
    <defs></defs>
    <g id="hand-pointer-o" stroke="none" stroke-width="1" fill="none" fill-rule="evenodd">
        <path d="M66,32.5714286 L66,57 C66,62.202381 63.2767857,66.6696429 59.5446429,70.4017857 C55.8125,74.1339286 51.3452381,76 46.1428571,76 L33.5892857,76 C28.8392857,76 24.5416667,74.077381 20.6964286,70.2321429 C14.5892857,64.125 4.58035714,52.5803571 1.20792265e-13,48 C2.5,41 10.5,37.5 17,44 L17,8 C17,5.73809524 17.9077385,3.95833333 19.4910719,2.375 C21.0744052,0.791666667 22.9970242,3.55271368e-15 25.258929,3.55271368e-15 C27.5208338,3.55271368e-15 29.4434528,0.791666667 31.0267861,2.375 C32.6101195,3.95833333 33.4017861,5.88095238 33.4017861,8.14285714 L33.4017861,19.508929 C34.3065481,19.169643 35.21131,19 36.1160719,19 C38.1517861,19 39.96131,19.6785714 41.5446433,21.0357143 C43.1279766,19.6785714 44.9375004,19 46.9732147,19 C48.8958335,19 50.592262,19.5937499 52.0625004,20.7812498 C53.5327388,21.9687496 54.4375007,23.410714 54.7767861,25.1071429 C56.0208335,24.6547619 57.1517859,24.4285714 58.1696433,24.4285714 C64.2062988,24.4285714 66,30.3095238 66,32.5714286 Z M60,57 L60,32.1428571 C60,31.3511902 59.713623,29.4285714 57.4553567,29.4285714 C55.1970904,29.4285714 54.9107143,31.3511902 54.9107143,32.1428571 L54.9107143,37.5714286 L49.1428571,37.5714286 L49.1428571,26.7142857 C49.1428571,25.9226188 48.8883929,25.2723211 48.3794645,24.7633926 C47.8705361,24.2544642 47.2202384,24 46.4285714,24 C45.6369045,24 44.9866068,24.2544642 44.4776784,24.7633926 C43.9687499,25.2723211 43.7142857,25.9226188 43.7142857,26.7142857 L43.7142857,37.5714286 L38.2857143,37.5714286 L38.2857143,26.7142857 C38.2857143,25.9226188 38.0312501,25.2723211 37.5223216,24.7633926 C37.0133932,24.2544642 36.3630955,24 35.5714286,24 C34.7797616,24 34.1294639,24.2544642 33.6205355,24.7633926 C33.1116071,25.2723211 32.8571429,25.9226188 32.8571429,26.7142857 L32.8571429,37.5714286 L27.4285714,37.5714286 L27.4285714,7.71428571 C27.4285714,6.92261876 27.1458335,6.3005948 26.5803576,5.84821385 C26.1279766,5.28273795 25.5059527,5 24.7142857,5 C23.9226188,5 23.2723211,5.25446421 22.7633926,5.76339264 C22.2544642,6.27232107 22,6.92261876 22,7.71428571 L22,54 C17.7218022,49.8965254 14.7218022,47.2298587 13,46 C9.5,43.5 6.41825802,46.581742 6,47 C10,51.5 20.1026786,61.5 24.7678571,66 C27.4821429,68.6666667 30.422619,70 33.5892857,70 L46.1428571,70 C54.9835205,70 60,61.038208 60,57 Z" fill="#000000"></path>
    </g>
</svg>