<?xml version="1.0" encoding="UTF-8"?>
<svg width="75px" height="71px" viewBox="0 0 75 71" version="1.1" xmlns="http://www.w3.org/2000/svg" xmlns:xlink="http://www.w3.org/1999/xlink">
    <!-- Generator: Sketch 48.1 (47250) - http://www.bohemiancoding.com/sketch -->
    <title>hashtag</title>
    <desc>Created with Sketch.</desc>
    <defs></defs>
    <g id="hastag---f2b5" stroke="none" stroke-width="1" fill="none" fill-rule="evenodd" transform="translate(-1.000000, -2.000000)">
        <path d="M19.4868421,45.9078947 L23.5312308,29.0166244 L6,29.0166244 L8,23.4868421 L24.8552632,23.4868421 L30,2 L36,2 L30.8552632,23.4868421 L52.8552632,23.4868421 L58,2 L64,2 L58.8552632,23.4868421 L76,23.4868421 L74,29.0166244 L57.5312308,29.0166244 L53.4868421,45.9078947 L71,45.9078947 L69,51.437677 L52.1628097,51.437677 L47,73 L41,73 L46.1628097,51.437677 L24.1628097,51.437677 L19,73 L13,73 L18.1628097,51.437677 L1,51.437677 L3,45.9078947 L19.4868421,45.9078947 Z M25,46 L46.9625044,46 L51,29 L29.0374956,29 L25,46 Z" id="hashtag" fill="#000000"></path>
    </g>
</svg>