<?xml version="1.0" encoding="UTF-8"?>
<svg width="76px" height="60px" viewBox="0 0 76 60" version="1.1" xmlns="http://www.w3.org/2000/svg" xmlns:xlink="http://www.w3.org/1999/xlink">
    <!-- Generator: Sketch 48.1 (47250) - http://www.bohemiancoding.com/sketch -->
    <title>hdd-o</title>
    <desc>Created with Sketch.</desc>
    <defs></defs>
    <g id="hdd-o---f0a0" stroke="none" stroke-width="1" fill="none" fill-rule="evenodd" transform="translate(0.000000, -8.000000)">
        <path d="M12,8 L64,8 L76,45 L76,68 L0,68 L0,45 L12,8 Z M16,13 L6,43 L70,43 L60,13 L16,13 Z M6,49 L6,62 L70,62 L70,49 L6,49 Z M60.375,52.875 C61.2864587,52.875 62.0351567,53.1679687 62.621094,53.753906 C63.2070313,54.3398433 63.5,55.0885413 63.5,56 C63.5,56.9114587 63.2070313,57.6601567 62.621094,58.246094 C62.0351567,58.8320313 61.2864587,59.125 60.375,59.125 C59.4635413,59.125 58.7148433,58.8320313 58.128906,58.246094 C57.5429687,57.6601567 57.25,56.9114587 57.25,56 C57.25,55.0885413 57.5429687,54.3398433 58.128906,53.753906 C58.7148433,53.1679687 59.4635413,52.875 60.375,52.875 Z" id="hdd-o" fill="#000000" fill-rule="nonzero"></path>
    </g>
</svg>