<?xml version="1.0" encoding="UTF-8"?>
<svg width="76px" height="76px" viewBox="0 0 76 76" version="1.1" xmlns="http://www.w3.org/2000/svg" xmlns:xlink="http://www.w3.org/1999/xlink">
    <!-- Generator: Sketch 48.1 (47250) - http://www.bohemiancoding.com/sketch -->
    <title>headphones</title>
    <desc>Created with Sketch.</desc>
    <defs></defs>
    <g id="headphones---f025" stroke="none" stroke-width="1" fill="none" fill-rule="evenodd">
        <path d="M38,0 C48.5075754,0 57.4678026,3.70643949 64.8806815,11.1193185 C72.2935605,18.5321974 76,27.4924246 76,38 C76,42.6060606 76,48.3636364 76,51.8181818 C76,55.2727273 76,62.1818182 76,65.6363636 C76,68.5151515 74.9924242,70.9621212 72.9772727,72.9772727 C70.9621212,74.9924242 68.5151515,76 65.6363636,76 C64.1010101,76 60.6464646,76 55.2727273,76 L55.2727273,44.9090909 L70,45 C70,41.5454545 70,39.2424242 70,38.0909091 C70,29.4545455 60.215332,6 38,6 C15.784668,6 6,29.4545455 6,38.0909091 C6,39.6262626 6,41.9292929 6,45 L20.7272727,45 L20.7272727,76 C14.969697,76 11.5151515,76 10.3636364,76 C7.48484848,76 5.03787879,74.9924242 3.02272727,72.9772727 C1.00757576,70.9621212 0,68.5151515 0,65.6363636 C0,61.030303 0,55.2727273 0,51.8181818 C0,48.3636364 0,41.4545455 0,38 C0,27.4924246 3.67045473,18.5681822 11.0113642,11.2272727 C18.4962127,3.74242424 27.4924246,0 38,0 Z M7,52 C7,55.4 7,62.2 7,65.6 C7,67.8666667 8.16666667,69 10.5,69 C11.6666667,69 13.125,69 14,69 C14,64.75 14,56.25 14,52 C12.25,52 8.75,52 7,52 Z M62,52 C62,56.25 62,64.75 62,69 C62.875,69 64.625,69 65.5,69 C67.8333333,69 69,67.8666667 69,65.6 C69,61.0666667 69,55.4 69,52 C67.25,52 63.75,52 62,52 Z" id="headphones" fill="#000000" fill-rule="nonzero"></path>
    </g>
</svg>