<?xml version="1.0" encoding="UTF-8"?>
<svg width="76px" height="69px" viewBox="0 0 76 69" version="1.1" xmlns="http://www.w3.org/2000/svg" xmlns:xlink="http://www.w3.org/1999/xlink">
    <!-- Generator: Sketch 48.1 (47250) - http://www.bohemiancoding.com/sketch -->
    <title>heart-o</title>
    <desc>Created with Sketch.</desc>
    <defs></defs>
    <g id="heart-o---f08a" stroke="none" stroke-width="1" fill="none" fill-rule="evenodd" transform="translate(0.000000, -5.000000)">
        <path d="M39.6226896,11.5424793 L38.0726577,12.9956342 L36.5226259,11.4456023 C28.1912046,3.11418101 14.6284257,3.11418101 6.29700446,11.4456023 C2.22817081,15.5144359 0,20.8426705 0,26.558413 C0,32.2741555 2.22817081,37.6023901 6.29700446,41.6712237 L35.9413639,71.3155832 L38.0726577,73.35 L69.751434,41.6712237 C78.0828553,33.3398024 78.0828553,19.7770236 69.751434,11.4456023 C61.5168897,3.211058 47.9541109,3.211058 39.6226896,11.5424793 Z M65.4611632,37.7336217 L37.9879925,65.1107324 L10.5148218,37.6375617 C7.5369606,34.6597005 6,30.817299 6,26.6867174 C6,22.5561358 7.63302064,18.6176742 10.5148218,15.7358731 C13.4926829,12.7580119 17.5272045,11.2210513 21.465666,11.2210513 C25.4041276,11.2210513 29.4386492,12.7580119 32.4165103,15.7358731 L37.9879925,21.3073553 L43.5594747,15.7358731 C49.611257,9.68409074 59.4093809,9.68409074 65.4611632,15.7358731 C71.5129456,21.8837155 71.5129456,31.6818393 65.4611632,37.7336217 Z" id="heart-o" fill="#000000" fill-rule="nonzero"></path>
    </g>
</svg>