<?xml version="1.0" encoding="UTF-8"?>
<svg width="76px" height="69px" viewBox="0 0 76 69" version="1.1" xmlns="http://www.w3.org/2000/svg" xmlns:xlink="http://www.w3.org/1999/xlink">
    <!-- Generator: Sketch 48.1 (47250) - http://www.bohemiancoding.com/sketch -->
    <title>heartbeat</title>
    <desc>Created with Sketch.</desc>
    <defs></defs>
    <g id="heartbeat---f21e" stroke="none" stroke-width="1" fill="none" fill-rule="evenodd" transform="translate(0.000000, -5.000000)">
        <path d="M39.6226896,11.5424793 C47.9541109,3.211058 61.5168897,3.211058 69.751434,11.4456023 C78.0828553,19.7770236 78.0828553,33.3398024 69.751434,41.6712237 L38.0726577,73.35 L35.9413639,71.3155832 L6.29700446,41.6712237 C2.22817081,37.6023901 0,32.2741555 0,26.558413 C0,20.8426705 2.22817081,15.5144359 6.29700446,11.4456023 C14.6284257,3.11418101 28.1912046,3.11418101 36.5226259,11.4456023 L38.0726577,12.9956342 L39.6226896,11.5424793 Z M65.4611632,37.7336217 C66.005468,37.189317 66.5008173,36.6147065 66.9472111,36.0151718 C62.9824037,36.0151718 57,36.0101145 49,36 L39,46 L29,29 L24,36 C17.3333333,36.0101145 12.3653011,36.0144787 9.09590339,36.0130925 C9.5251969,36.5785845 9.99833676,37.1210766 10.5148218,37.6375617 L37.9879925,65.1107324 L65.4611632,37.7336217 Z M40,39 L47,32.0047389 C59,32.0015796 66.3650864,32.0015796 69.0952593,32.0047389 C71.0493816,26.5378686 69.8380163,20.1822 65.4611632,15.7358731 C59.4093809,9.68409074 49.611257,9.68409074 43.5594747,15.7358731 L37.9879925,21.3073553 L32.4165103,15.7358731 C29.4386492,12.7580119 25.4041276,11.2210513 21.465666,11.2210513 C17.5272045,11.2210513 13.4926829,12.7580119 10.5148218,15.7358731 C7.63302064,18.6176742 6,22.5561358 6,26.6867174 C6,28.5350944 6.30776657,30.3257652 6.91469213,32.0070843 C8.30489738,32.0070843 13,32.0070843 21,32.0070843 L29,21 L40,39 Z" id="heartbeat" fill="#000000"></path>
    </g>
</svg>