<?xml version="1.0" encoding="UTF-8"?>
<svg width="76px" height="76px" viewBox="0 0 76 76" version="1.1" xmlns="http://www.w3.org/2000/svg" xmlns:xlink="http://www.w3.org/1999/xlink">
    <!-- Generator: Sketch 48.1 (47250) - http://www.bohemiancoding.com/sketch -->
    <title>history</title>
    <desc>Created with Sketch.</desc>
    <defs></defs>
    <g id="history---f1da" stroke="none" stroke-width="1" fill="none" fill-rule="evenodd">
        <path d="M38,0 C48.4236114,0 57.3628476,3.72743047 64.8177086,11.1822914 C72.2725695,18.6371524 76,27.5763886 76,38 C76,48.4236114 72.2725695,57.3628476 64.8177086,64.8177086 C57.3628476,72.2725695 48.4236114,76 38,76 C27.5763886,76 18.6371524,72.2725695 11.1822914,64.8177086 C3.72743047,57.3628476 0,48.4236114 0,38 C2.11111111,38 2.11111111,38 6.33333333,38 C6.33333333,46.7083333 9.43402778,54.1631944 15.6354167,60.3645833 C21.8368056,66.5659722 29.2916667,69.6666667 38,69.6666667 C46.7083333,69.6666667 54.1631944,66.5659722 60.3645833,60.3645833 C66.5659722,54.1631944 69.6666667,46.7083333 69.6666667,38 C69.6666667,29.2916667 66.5659722,21.8368056 60.3645833,15.6354167 C54.1631944,9.43402778 46.7083333,6.33333333 38,6.33333333 C32.1944444,6.33333333 26.8836806,7.7517362 22.0677086,10.5885419 C17.2517365,13.4253476 13.4583337,17.2847226 10.6875,22.1666667 C14.5138889,22.1666667 19.296875,22.1666667 22.1666667,22.1666667 C22.1666667,23.75 22.1666667,26.9166667 22.1666667,28.5 C17.4166667,28.5 7.91666667,28.5 3.16666667,28.5 C2.375,28.5 0.791666667,28.5 0,28.5 C0,27.7083333 0,26.125 0,25.3333333 C0,20.5833333 0,11.0833333 0,6.33333333 C1.58333333,6.33333333 4.75,6.33333333 6.33333333,6.33333333 C6.33333333,9.00520833 6.33333333,9.00520833 6.33333333,17.0208333 C9.76388889,11.7430556 14.2829862,7.58680556 19.8906253,4.55208333 C25.4982643,1.51736111 31.5347226,0 38,0 Z M36,10 L38.25,10 L40.112793,33.9645996 L56.6582031,38.125 L56.0742187,40.6147461 L34,38.125 L36,10 Z" id="history" fill="#000000" fill-rule="nonzero"></path>
    </g>
</svg>