<?xml version="1.0" encoding="UTF-8"?>
<svg width="61px" height="76px" viewBox="0 0 61 76" version="1.1" xmlns="http://www.w3.org/2000/svg" xmlns:xlink="http://www.w3.org/1999/xlink">
    <!-- Generator: Sketch 49.3 (51167) - http://www.bohemiancoding.com/sketch -->
    <title>hospital</title>
    <desc>Created with Sketch.</desc>
    <defs></defs>
    <g id="line" stroke="none" stroke-width="1" fill="none" fill-rule="evenodd">
        <g id="horspital---f0f8" transform="translate(-8.000000, 0.000000)" fill="#000000" fill-rule="nonzero">
            <path d="M35.45,0 C36.975,0 40.025,0 41.55,0 C41.55,1.52 41.55,4.56 41.55,6.08 C43.075,6.08 46.125,6.08 47.65,6.08 C47.65,7.6 47.65,10.64 47.65,12.16 C46.125,12.16 43.075,12.16 41.55,12.16 C41.55,13.68 41.55,16.72 41.55,18.24 C40.025,18.24 36.975,18.24 35.45,18.24 C35.45,16.72 35.45,13.68 35.45,12.16 C33.925,12.16 30.875,12.16 29.35,12.16 C29.35,10.64 29.35,7.6 29.35,6.08 C30.875,6.08 33.925,6.08 35.45,6.08 C35.45,4.56 35.45,1.52 35.45,0 Z M8,6.08 C8.7625,6.08 10.2875,6.08 11.05,6.08 C14.1,6.08 20.2,6.08 23.25,6.08 C23.25,7.6 23.25,10.64 23.25,12.16 C20.9625,12.16 16.3875,12.16 14.1,12.16 C14.1,26.6 14.1,55.48 14.1,69.92 C17.9125,69.92 25.5375,69.92 29.35,69.92 C29.35,68.4 29.35,65.36 29.35,63.84 C29.35,63.08 29.35,61.56 29.35,60.8 C30.1125,60.8 31.6375,60.8 32.4,60.8 C35.45,60.8 41.55,60.8 44.6,60.8 C45.3625,60.8 46.8875,60.8 47.65,60.8 C47.65,61.56 47.65,63.08 47.65,63.84 C47.65,65.36 47.65,68.4 47.65,69.92 C51.4625,69.92 59.0875,69.92 62.9,69.92 C62.9,55.48 62.9,26.6 62.9,12.16 C60.6125,12.16 56.0375,12.16 53.75,12.16 C53.75,10.64 53.75,7.6 53.75,6.08 C56.8,6.08 62.9,6.08 65.95,6.08 C66.7125,6.08 68.2375,6.08 69,6.08 C69,6.84 69,8.36 69,9.12 C69,25.08 69,57 69,72.96 C69,73.72 69,75.24 69,76 C68.2375,76 66.7125,76 65.95,76 C60.6125,76 49.9375,76 44.6,76 C43.8375,76 42.3125,76 41.55,76 C41.55,75.24 41.55,73.72 41.55,72.96 C41.55,71.44 41.55,68.4 41.55,66.88 C40.025,66.88 36.975,66.88 35.45,66.88 C35.45,68.4 35.45,71.44 35.45,72.96 C35.45,73.72 35.45,75.24 35.45,76 C34.6875,76 33.1625,76 32.4,76 C27.0625,76 16.3875,76 11.05,76 C10.2875,76 8.7625,76 8,76 C8,75.24 8,73.72 8,72.96 C8,57 8,25.08 8,9.12 C8,8.36 8,6.84 8,6.08 Z M23.25,24.32 C24.775,24.32 27.825,24.32 29.35,24.32 C29.35,25.84 29.35,28.88 29.35,30.4 C27.825,30.4 24.775,30.4 23.25,30.4 C23.25,28.88 23.25,25.84 23.25,24.32 Z M35.45,24.32 C36.975,24.32 40.025,24.32 41.55,24.32 C41.55,25.84 41.55,28.88 41.55,30.4 C40.025,30.4 36.975,30.4 35.45,30.4 C35.45,28.88 35.45,25.84 35.45,24.32 Z M47.65,24.32 C49.175,24.32 52.225,24.32 53.75,24.32 C53.75,25.84 53.75,28.88 53.75,30.4 C52.225,30.4 49.175,30.4 47.65,30.4 C47.65,28.88 47.65,25.84 47.65,24.32 Z M23.25,36.48 C24.775,36.48 27.825,36.48 29.35,36.48 C29.35,38 29.35,41.04 29.35,42.56 C27.825,42.56 24.775,42.56 23.25,42.56 C23.25,41.04 23.25,38 23.25,36.48 Z M35.45,36.48 C36.975,36.48 40.025,36.48 41.55,36.48 C41.55,38 41.55,41.04 41.55,42.56 C40.025,42.56 36.975,42.56 35.45,42.56 C35.45,41.04 35.45,38 35.45,36.48 Z M47.65,36.48 C49.175,36.48 52.225,36.48 53.75,36.48 C53.75,38 53.75,41.04 53.75,42.56 C52.225,42.56 49.175,42.56 47.65,42.56 C47.65,41.04 47.65,38 47.65,36.48 Z M23.25,48.64 C24.775,48.64 27.825,48.64 29.35,48.64 C29.35,50.16 29.35,53.2 29.35,54.72 C27.825,54.72 24.775,54.72 23.25,54.72 C23.25,53.2 23.25,50.16 23.25,48.64 Z M35.45,48.64 C36.975,48.64 40.025,48.64 41.55,48.64 C41.55,50.16 41.55,53.2 41.55,54.72 C40.025,54.72 36.975,54.72 35.45,54.72 C35.45,53.2 35.45,50.16 35.45,48.64 Z M47.65,48.64 C49.175,48.64 52.225,48.64 53.75,48.64 C53.75,50.16 53.75,53.2 53.75,54.72 C52.225,54.72 49.175,54.72 47.65,54.72 C47.65,53.2 47.65,50.16 47.65,48.64 Z" id="hospital"></path>
        </g>
    </g>
</svg>