<?xml version="1.0" encoding="UTF-8"?>
<svg width="51px" height="76px" viewBox="0 0 51 76" version="1.1" xmlns="http://www.w3.org/2000/svg" xmlns:xlink="http://www.w3.org/1999/xlink">
    <!-- Generator: Sketch 48.1 (47250) - http://www.bohemiancoding.com/sketch -->
    <title>hourglass-2</title>
    <desc>Created with Sketch.</desc>
    <defs></defs>
    <g id="hourglass-2---f252" stroke="none" stroke-width="1" fill="none" fill-rule="evenodd" transform="translate(-13.000000, 0.000000)">
        <path d="M25.2537309,31.9113171 C21.2499159,29.0278231 19.1599967,27.1636631 17.1149546,24.0899158 C14.3973108,20.0052315 13,14.9568701 13,8.551381 C13,4.78781574 15.886106,1.53308049 19.6279,1.06686631 L21.0519463,0.889435136 C30.570512,-0.296544374 45.7758681,-0.296412382 55.2933747,0.889435136 L56.717421,1.06686631 C60.4481969,1.53170776 63.345321,4.78832629 63.345321,8.551381 C63.345321,15.009653 61.951127,20.0884961 59.2365899,24.1900343 C57.1907105,27.2812621 55.099379,29.1501011 51.1451118,31.9973282 C47.4172952,34.7637298 46.4947966,35.9123717 46.4947966,38.029346 C46.4947966,40.1463204 47.4172952,41.2949621 51.0915901,44.0222349 C55.0954051,46.9057289 57.1853243,48.7698889 59.2303664,51.8436364 C61.9480102,55.9283205 63.345321,60.976682 63.345321,67.382171 C63.345321,71.1457363 60.459215,74.4004716 56.717421,74.8666857 C46.3460314,76.1589241 29.998968,76.158884 19.7743156,74.8849287 C15.8971241,74.4018444 13,71.1452259 13,67.382171 C13,60.976682 14.3973108,55.9283205 17.1149546,51.8436364 C19.1599967,48.7698889 21.2499159,46.9057289 25.2537309,44.0222349 L25.1088863,44.130901 C25.2792441,43.9979584 25.2792441,43.9979584 25.4466848,43.8675901 C29.0566509,41.057286 29.8505244,40.0185343 29.8505244,37.9042061 C29.8505244,35.7872316 28.9280258,34.6385899 25.2537309,31.9113171 Z M27.9674133,47.7902616 C23.102121,51.2941799 17.6435005,55.4237981 17.6435005,67.382171 C17.6435005,68.7957661 18.7889906,70.0827555 20.2020243,70.2588145 L20.34844,70.2770574 C30.1914701,71.5034639 46.1528358,71.5035905 55.9968809,70.2770574 L56.1432967,70.2588145 C57.5688417,70.0811966 58.7018205,68.7948383 58.7018205,67.382171 C58.7018205,55.4237981 53.2431999,51.2941799 48.3779076,47.7902616 C45.1739347,45.4126026 41.8512961,42.9098038 41.8512961,38.029346 C41.8512961,33.1488882 45.1739347,30.6460893 48.3779076,28.2684304 C53.2431999,24.764512 58.7018205,20.6348939 58.7018205,8.551381 C58.7018205,7.13778592 57.5563303,5.85079658 56.1432967,5.67473756 L54.7192503,5.49730651 C45.5841583,4.35910641 30.7644999,4.35869058 21.6260706,5.49730651 L20.2020243,5.67473756 C18.7764793,5.8523554 17.6435005,7.13871369 17.6435005,8.551381 C17.6435005,20.509754 23.102121,24.6393721 27.9674133,28.1432905 C31.1713863,30.5209494 34.4940248,33.0237482 34.4940248,37.9042061 C34.4940248,42.9098038 31.1713863,45.2874627 27.9674133,47.7902616 Z M48.6652046,24.3977421 C45.7183488,26.8794348 39.2796984,32.5862674 39.4495474,37.7628631 C39.4490512,38.4958339 38.8824834,39.0686236 38.1719873,39.0686236 C37.4664103,39.0686236 36.9047504,38.5010071 36.8955356,37.789262 C37.0642762,32.5862674 30.0465346,26.2989973 27.8261451,24.5074036 C24.242159,20.4946217 52.1031619,21.0750592 48.6652046,24.3977421 Z M53.8904077,67.162495 L50.5701092,67.6845857 C43.936311,68.727698 33.15984,68.7289552 26.5180461,67.6845857 L23.1977477,67.162495 C22.5074902,67.0539575 22.1231742,66.4260807 22.3543176,65.7624457 C22.3543176,65.7624457 22.5006395,65.2895939 22.6990999,64.8739791 C24.4276443,61.2540696 26.456764,59.9648947 29.8790774,57.4376265 C35.3198158,53.297914 41.7683397,53.297914 47.2090781,57.4376265 C50.6313915,59.9648947 52.6605111,61.2540696 54.3890556,64.8739791 C54.5875159,65.2895939 54.7338379,65.7624457 54.7338379,65.7624457 C54.963174,66.4123333 54.5873647,67.052904 53.8904077,67.162495 Z" id="hourglass-2" fill="#000000" fill-rule="nonzero"></path>
    </g>
</svg>