<?xml version="1.0" encoding="UTF-8"?>
<svg width="51px" height="76px" viewBox="0 0 51 76" version="1.1" xmlns="http://www.w3.org/2000/svg" xmlns:xlink="http://www.w3.org/1999/xlink">
    <!-- Generator: Sketch 48.1 (47250) - http://www.bohemiancoding.com/sketch -->
    <title>hourglass-3</title>
    <desc>Created with Sketch.</desc>
    <defs></defs>
    <g id="hourglass-3---f253" stroke="none" stroke-width="1" fill="none" fill-rule="evenodd" transform="translate(-13.000000, 0.000000)">
        <path d="M25.2537309,43.9268248 C28.9280258,41.199552 29.8505244,40.0509103 29.8505244,37.9339359 C29.8505244,35.8196077 29.0566509,34.7808559 25.4466848,31.9705518 C25.2792441,31.8401836 25.2792441,31.8401836 25.1088863,31.707241 L25.2537309,31.815907 C21.2499159,28.932413 19.1599967,27.0682531 17.1149546,23.9945056 C14.3973108,19.9098215 13,14.86146 13,8.45597091 C13,4.69291608 15.8971241,1.43629755 19.7743156,0.953213298 C29.998968,-0.320742088 46.3460314,-0.320782138 56.717421,0.971456219 C60.459215,1.4376704 63.345321,4.69240565 63.345321,8.45597091 C63.345321,14.86146 61.9480102,19.9098215 59.2303664,23.9945056 C57.1853243,27.0682531 55.0954051,28.932413 51.0915901,31.815907 C47.4172952,34.5431799 46.4947966,35.6918216 46.4947966,37.808796 C46.4947966,39.9257703 47.4172952,41.0744121 51.1451118,43.8408137 C55.099379,46.6880408 57.1907105,48.5568798 59.2365899,51.6481077 C61.951127,55.7496458 63.345321,60.828489 63.345321,67.2867609 C63.345321,71.0498157 60.4481969,74.3064342 56.717421,74.7712756 L55.2933747,74.9487068 C45.7758681,76.1345543 30.570512,76.1346863 21.0519463,74.9487068 L19.6279,74.7712756 C15.886106,74.3050615 13,71.0503262 13,67.2867609 C13,60.8812719 14.3973108,55.8329104 17.1149546,51.7482262 C19.1599967,48.6744788 21.2499159,46.8103188 25.2537309,43.9268248 Z M27.9674133,28.0478804 C31.1713863,30.5506792 34.4940248,32.9283381 34.4940248,37.9339359 C34.4940248,42.8143937 31.1713863,45.3171925 27.9674133,47.6948515 C23.102121,51.1987698 17.6435005,55.3283879 17.6435005,67.2867609 C17.6435005,68.6994283 18.7764793,69.9857866 20.2020243,70.1634044 L21.6260706,70.3408354 C30.7644999,71.4794514 45.5841583,71.4790355 54.7192503,70.3408354 L56.1432967,70.1634044 C57.5563303,69.9873454 58.7018205,68.700356 58.7018205,67.2867609 C58.7018205,55.203248 53.2431999,51.0736299 48.3779076,47.5697116 C45.1739347,45.1920526 41.8512961,42.6892537 41.8512961,37.808796 C41.8512961,32.9283381 45.1739347,30.4255393 48.3779076,28.0478804 C53.2431999,24.543962 58.7018205,20.4143438 58.7018205,8.45597091 C58.7018205,7.0433036 57.5688417,5.75694531 56.1432967,5.57932747 L55.9968809,5.56108455 C46.1528358,4.33455149 30.1914701,4.33467803 20.34844,5.56108455 L20.2020243,5.57932747 C18.7889906,5.75538649 17.6435005,7.04237583 17.6435005,8.45597091 C17.6435005,20.4143438 23.102121,24.543962 27.9674133,28.0478804 Z M54.9769292,67.162495 C54.9769292,67.162495 53.7914581,67.3365253 51.4205161,67.6845857 C44.314972,68.727698 33.8957522,69.2986786 26.9305015,68.4916321 C19.9652507,67.6845857 21.1261258,66.7503195 21.1261258,65.5894443 C26.8583978,45.1011283 47.8262536,45.8545673 55.3719419,64.4285692 C55.5428824,64.8493457 55.8803378,65.7624457 55.8803378,65.7624457 C56.1259826,66.4123333 55.7234486,67.052904 54.9769292,67.162495 Z" id="hourglass-3" fill="#000000" fill-rule="nonzero"></path>
    </g>
</svg>