<?xml version="1.0" encoding="UTF-8"?>
<svg width="59px" height="76px" viewBox="0 0 59 76" version="1.1" xmlns="http://www.w3.org/2000/svg" xmlns:xlink="http://www.w3.org/1999/xlink">
    <!-- Generator: Sketch 48.1 (47250) - http://www.bohemiancoding.com/sketch -->
    <title>ils</title>
    <desc>Created with Sketch.</desc>
    <defs></defs>
    <g id="ils---f20b" stroke="none" stroke-width="1" fill="none" fill-rule="evenodd" transform="translate(-9.000000, 0.000000)">
        <path d="M9,0 C9.86764706,0 11.6029412,0 12.4705882,0 C14.2058824,0 17.6764706,0 19.4117647,0 C28.0882353,0 35.4632353,3.02272727 41.5367647,9.06818182 C47.6102941,15.1136364 50.6470588,22.4545455 50.6470588,31.0909091 C50.6470588,39.1515152 50.6470588,49.2272727 50.6470588,55.2727273 C48.9117647,55.2727273 45.4411765,55.2727273 43.7058824,55.2727273 C43.7058824,49.2272727 43.7058824,37.1363636 43.7058824,31.0909091 C43.7058824,24.3257572 41.356005,18.6041662 36.6562503,13.9261361 C31.9564956,9.24810597 26.2083337,6.90909091 19.4117647,6.90909091 C18.254902,6.90909091 16.8088235,6.90909091 15.9411765,6.90909091 C15.9411765,24.1818182 15.9411765,58.7272727 15.9411765,76 C14.2058824,76 10.7352941,76 9,76 C9,57.8636364 9,21.5909091 9,3.45454545 C9,2.59090909 9,0.863636364 9,0 Z M61.0588235,0 C62.7941176,0 66.2647059,0 68,0 C68,18.1363636 68,54.4090909 68,72.5454545 C68,73.4090909 68,75.1363636 68,76 C67.1323529,76 65.3970588,76 64.5294118,76 C62.7941176,76 59.3235294,76 57.5882353,76 C48.9117647,76 41.5367647,72.9772727 35.4632353,66.9318182 C29.3897059,60.8863636 26.3529412,53.5454545 26.3529412,44.9090909 C26.3529412,36.8484848 26.3529412,26.7727273 26.3529412,20.7272727 C28.0882353,20.7272727 31.5588235,20.7272727 33.2941176,20.7272727 C33.2941176,26.7727273 33.2941176,38.8636364 33.2941176,44.9090909 C33.2941176,51.6742428 35.643995,57.3958338 40.3437497,62.0738639 C45.0435044,66.751894 50.7916663,69.0909091 57.5882353,69.0909091 C58.745098,69.0909091 60.1911765,69.0909091 61.0588235,69.0909091 C61.0588235,51.8181818 61.0588235,17.2727273 61.0588235,0 Z" id="ils" fill="#000000" fill-rule="nonzero"></path>
    </g>
</svg>