<?xml version="1.0" encoding="UTF-8"?>
<svg width="76px" height="76px" viewBox="0 0 76 76" version="1.1" xmlns="http://www.w3.org/2000/svg" xmlns:xlink="http://www.w3.org/1999/xlink">
    <!-- Generator: Sketch 48.1 (47250) - http://www.bohemiancoding.com/sketch -->
    <title>industry</title>
    <desc>Created with Sketch.</desc>
    <defs></defs>
    <g id="industry---f275" stroke="none" stroke-width="1" fill="none" fill-rule="evenodd">
        <path d="M53,0 L76,0 L76,76 L0,76 L0,29.1477278 L24,15.1818182 L24,26 L41,15.1818182 L41,26 L53,19 L53,0 Z M59,6 L59,22.670454 L34.5454545,37.1363636 L34.5454545,26.7727273 L17.2727273,37.1363636 L17.2727273,26.7727273 L6,33 L6,70 L70,70 L70,6 L59,6 Z M13.8181818,41.4545455 C15.5454545,41.4545455 19,41.4545455 20.7272727,41.4545455 C20.7272727,43.1818182 20.7272727,46.6363636 20.7272727,48.3636364 C19,48.3636364 15.5454545,48.3636364 13.8181818,48.3636364 C13.8181818,46.6363636 13.8181818,43.1818182 13.8181818,41.4545455 Z M27.6363636,41.4545455 C29.3636364,41.4545455 32.8181818,41.4545455 34.5454545,41.4545455 C34.5454545,43.1818182 34.5454545,46.6363636 34.5454545,48.3636364 C32.8181818,48.3636364 29.3636364,48.3636364 27.6363636,48.3636364 C27.6363636,46.6363636 27.6363636,43.1818182 27.6363636,41.4545455 Z M41.4545455,41.4545455 C43.1818182,41.4545455 46.6363636,41.4545455 48.3636364,41.4545455 C48.3636364,43.1818182 48.3636364,46.6363636 48.3636364,48.3636364 C46.6363636,48.3636364 43.1818182,48.3636364 41.4545455,48.3636364 C41.4545455,46.6363636 41.4545455,43.1818182 41.4545455,41.4545455 Z M55.2727273,41.4545455 C57,41.4545455 60.4545455,41.4545455 62.1818182,41.4545455 C62.1818182,43.1818182 62.1818182,46.6363636 62.1818182,48.3636364 C60.4545455,48.3636364 57,48.3636364 55.2727273,48.3636364 C55.2727273,46.6363636 55.2727273,43.1818182 55.2727273,41.4545455 Z M13.8181818,55.2727273 C15.5454545,55.2727273 19,55.2727273 20.7272727,55.2727273 C20.7272727,57 20.7272727,60.4545455 20.7272727,62.1818182 C19,62.1818182 15.5454545,62.1818182 13.8181818,62.1818182 C13.8181818,60.4545455 13.8181818,57 13.8181818,55.2727273 Z M27.6363636,55.2727273 C29.3636364,55.2727273 32.8181818,55.2727273 34.5454545,55.2727273 C34.5454545,57 34.5454545,60.4545455 34.5454545,62.1818182 C32.8181818,62.1818182 29.3636364,62.1818182 27.6363636,62.1818182 C27.6363636,60.4545455 27.6363636,57 27.6363636,55.2727273 Z M41.4545455,55.2727273 C43.1818182,55.2727273 46.6363636,55.2727273 48.3636364,55.2727273 C48.3636364,57 48.3636364,60.4545455 48.3636364,62.1818182 C46.6363636,62.1818182 43.1818182,62.1818182 41.4545455,62.1818182 C41.4545455,60.4545455 41.4545455,57 41.4545455,55.2727273 Z M55.2727273,55.2727273 C57,55.2727273 60.4545455,55.2727273 62.1818182,55.2727273 C62.1818182,57 62.1818182,60.4545455 62.1818182,62.1818182 C60.4545455,62.1818182 57,62.1818182 55.2727273,62.1818182 C55.2727273,60.4545455 55.2727273,57 55.2727273,55.2727273 Z" id="industry" fill="#000000" fill-rule="nonzero"></path>
    </g>
</svg>