<?xml version="1.0" encoding="UTF-8"?>
<svg width="15px" height="76px" viewBox="0 0 15 76" version="1.1" xmlns="http://www.w3.org/2000/svg" xmlns:xlink="http://www.w3.org/1999/xlink">
    <!-- Generator: Sketch 48.1 (47250) - http://www.bohemiancoding.com/sketch -->
    <title>info</title>
    <desc>Created with Sketch.</desc>
    <defs></defs>
    <g id="info---f129" stroke="none" stroke-width="1" fill="none" fill-rule="evenodd" transform="translate(-31.000000, 0.000000)">
        <path d="M33,0 C33,12.75 33,38.25 33,51 C35.7609675,51 41.2829024,51 44.0438699,51 C44.0438699,38.25 44.0438699,12.75 44.0438699,0 C41.2829024,0 35.7609675,0 33,0 Z M43.3861793,73.8748676 C42.7317238,74.5293231 41.9444077,75.0471256 41.0242308,75.4282754 C40.1040539,75.8094251 39.1811956,76 38.2556558,76 C37.3301161,76 36.4072577,75.8094251 35.4870809,75.4282754 C34.566904,75.0471256 33.7795878,74.5293231 33.1251324,73.8748676 C32.4706769,73.2204122 31.9528744,72.433096 31.5717246,71.5129191 C31.1905749,70.5927423 31,69.6698839 31,68.7443442 C31,67.8188044 31.1905749,66.8959461 31.5717246,65.9757692 C31.9528744,65.0555923 32.4706769,64.2682762 33.1251324,63.6138207 C33.7795878,62.9593653 34.566904,62.4415627 35.4870809,62.060413 C36.4072577,61.6792632 37.3301161,61.4886884 38.2556558,61.4886884 C39.1811956,61.4886884 40.1040539,61.6792632 41.0242308,62.060413 C41.9444077,62.4415627 42.7317238,62.9593653 43.3861793,63.6138207 C44.0406347,64.2682762 44.5584373,65.0555923 44.939587,65.9757692 C45.3207368,66.8959461 45.5113116,67.8188044 45.5113116,68.7443442 C45.5113116,69.6698839 45.3207368,70.5927423 44.939587,71.5129191 C44.5584373,72.433096 44.0406347,73.2204122 43.3861793,73.8748676 Z" id="info" fill="#000000" fill-rule="nonzero" transform="translate(38.255656, 38.000000) scale(1, -1) translate(-38.255656, -38.000000) "></path>
    </g>
</svg>