<?xml version="1.0" encoding="UTF-8"?>
<svg width="55px" height="76px" viewBox="0 0 55 76" version="1.1" xmlns="http://www.w3.org/2000/svg" xmlns:xlink="http://www.w3.org/1999/xlink">
    <!-- Generator: Sketch 48.1 (47250) - http://www.bohemiancoding.com/sketch -->
    <title>inr</title>
    <desc>Created with Sketch.</desc>
    <defs></defs>
    <g id="inr---f156" stroke="none" stroke-width="1" fill="none" fill-rule="evenodd" transform="translate(-11.000000, 0.000000)">
        <path d="M11,0 C13.578125,0 18.734375,0 21.3125,0 C22.171875,0 23.890625,0 24.75,0 C35.0625,0 55.6875,0 66,0 C66,1.72727273 66,5.18181818 66,6.90909091 C59.984375,6.90909091 47.953125,6.90909091 41.9375,6.90909091 C45.0885417,9.93181781 47.1653644,13.3863633 48.1679682,17.2727273 C54.1119788,17.2727273 61.5419921,17.2727273 66,17.2727273 C66,19 66,22.4545455 66,24.1818182 C61.703125,24.1818182 53.109375,24.1818182 48.8125,24.1818182 C48.2395833,30.2272727 45.5540364,35.1931818 40.7558591,39.0795455 C35.9576818,42.9659091 30.6223955,44.9090909 24.75,44.9090909 C23.1028644,44.9090909 21.0439449,44.9090909 19.8085932,44.9090909 C29.1005855,52.6818182 47.6845702,68.2272727 56.9765625,76 C54.2910156,76 48.9199219,76 46.234375,76 C37.4257812,68.6590909 19.8085938,53.9772727 11,46.6363636 C11,44.4772727 11,40.1590909 11,38 C14.4375,38 21.3125,38 24.75,38 C28.6171879,38 32.305339,36.7405302 35.8144534,34.2215906 C39.3235678,31.7026511 41.3645833,28.3560602 41.9375,24.1818182 C31.625,24.1818182 18.734375,24.1818182 11,24.1818182 C11,22.4545455 11,19 11,17.2727273 C18.5195312,17.2727273 33.5585938,17.2727273 41.078125,17.2727273 C39.7890629,14.1060606 37.5332036,11.5871212 34.3105471,9.71590909 C31.0878907,7.84469697 27.9010417,6.90909091 24.75,6.90909091 C23.6041667,6.90909091 22.171875,6.90909091 21.3125,6.90909091 C18.734375,6.90909091 13.578125,6.90909091 11,6.90909091 C11,5.18181818 11,1.72727273 11,0 Z" id="inr" fill="#000000" fill-rule="nonzero"></path>
    </g>
</svg>