<?xml version="1.0" encoding="UTF-8"?>
<svg width="76px" height="76px" viewBox="0 0 76 76" version="1.1" xmlns="http://www.w3.org/2000/svg" xmlns:xlink="http://www.w3.org/1999/xlink">
    <!-- Generator: Sketch 48.1 (47250) - http://www.bohemiancoding.com/sketch -->
    <title>institution</title>
    <desc>Created with Sketch.</desc>
    <defs></defs>
    <g id="institution---f19c" stroke="none" stroke-width="1" fill="none" fill-rule="evenodd">
        <path d="M38,0 L76,17.3264249 L76,24 L0,24 L0,17.3264249 L38,0 Z M38,6 L9,19 L67,19 L38,6 Z M5,28 L5,66 L11,66 L11,28 L5,28 Z M20,28 L20,66 L26,66 L26,28 L20,28 Z M35,28 L35,66 L41,66 L41,28 L35,28 Z M50,28 L50,66 L56,66 L56,28 L50,28 Z M65,28 L65,66 L71,66 L71,28 L65,28 Z M0,70 L0,76 L76,76 L76,70 L0,70 Z" id="institution" fill="#000000" fill-rule="nonzero"></path>
    </g>
</svg>