<?xml version="1.0" encoding="UTF-8"?>
<svg width="54px" height="76px" viewBox="0 0 54 76" version="1.1" xmlns="http://www.w3.org/2000/svg" xmlns:xlink="http://www.w3.org/1999/xlink">
    <!-- Generator: Sketch 48.1 (47250) - http://www.bohemiancoding.com/sketch -->
    <title>intersex</title>
    <desc>Created with Sketch.</desc>
    <defs></defs>
    <g id="intersex---f224" stroke="none" stroke-width="1" fill="none" fill-rule="evenodd" transform="translate(-11.000000, 0.000000)">
        <path d="M45.1052632,0 L65,0 L65,19.7037037 L59.3157895,19.7037037 L59.3157895,9.5 C53.0986842,15.7453701 48.9539474,19.9089502 46.8815789,21.9907403 C49.4868421,25.5092594 50.7894737,29.4382719 50.7894737,33.7777778 C50.7894737,38.7037037 49.1611841,43.0138888 45.904605,46.7083331 C42.6480259,50.4027774 38.592105,52.5432096 33.7368421,53.1296296 C33.7368421,55.0843621 33.7368421,58.0164609 33.7368421,61.9259259 L42.2631579,61.9259259 L42.2631579,67.5555556 L33.7368421,67.5555556 L33.7368421,76 L28.0526316,76 L28.0526316,67.5555556 L19.5263158,67.5555556 L19.5263158,61.9259259 L28.0526316,61.9259259 C28.0526316,57.5277778 28.0526316,54.595679 28.0526316,53.1296296 C23.1973687,52.5432096 19.1414477,50.4027774 15.8848686,46.7083331 C12.6282895,43.0138888 11,38.7037037 11,33.7777778 C11,28.382716 12.9539474,23.75 16.8618421,19.8796296 C20.7697368,16.0092593 25.4473684,14.0740741 30.8947368,14.0740741 C35.2763155,14.0740741 39.2434209,15.3641975 42.7960531,17.9444444 C45.5986846,15.2078189 49.8026318,11.1028807 55.4078947,5.62962963 L45.1052632,5.62962963 L45.1052632,0 Z M30.8947368,19.7037037 C26.9868424,19.7037037 23.6414477,21.0817902 20.8585529,23.8379632 C18.075658,26.5941362 16.6842105,29.9074077 16.6842105,33.7777778 C16.6842105,37.6481478 18.075658,40.9614194 20.8585529,43.7175924 C23.6414477,46.4737654 26.9868424,47.8518519 30.8947368,47.8518519 C34.8026313,47.8518519 38.1480259,46.4737654 40.9309208,43.7175924 C43.7138157,40.9614194 45.1052632,37.6481478 45.1052632,33.7777778 C45.1052632,29.9074077 43.7138157,26.5941362 40.9309208,23.8379632 C38.1480259,21.0817902 34.8026313,19.7037037 30.8947368,19.7037037 Z" id="intersex" fill="#000000" fill-rule="nonzero"></path>
    </g>
</svg>