<?xml version="1.0" encoding="UTF-8"?>
<svg width="73px" height="76px" viewBox="0 0 73 76" version="1.1" xmlns="http://www.w3.org/2000/svg" xmlns:xlink="http://www.w3.org/1999/xlink">
    <!-- Generator: Sketch 48.1 (47250) - http://www.bohemiancoding.com/sketch -->
    <title>key</title>
    <desc>Created with Sketch.</desc>
    <defs></defs>
    <g id="key---f084" stroke="none" stroke-width="1" fill="none" fill-rule="evenodd">
        <path d="M72.5756674,58.3775262 L72.5756674,76 L52.6852295,73.9094307 L51.6399448,66.2321759 L41.7056821,62.9778344 L40.8554952,54.0380935 L32.89932,53.2018658 L26.2746361,45.7733544 C24.4338746,46.0365184 22.5311985,46.0790826 20.5977062,45.8758644 C7.96474281,44.5480865 -1.19992072,33.2306695 0.127857228,20.5977062 C1.45563518,7.96474281 12.7730521,-1.19992072 25.4060155,0.127857228 C38.0389788,1.45563518 47.2036424,12.7730521 45.8758644,25.4060155 L72.5756674,58.3775262 Z M39.6006746,26.680428 C39.7373623,26.060015 39.8407585,25.4255789 39.908733,24.7788447 C40.8901341,15.441437 34.1162524,7.0763897 24.7788447,6.0949886 C15.441437,5.1135875 7.0763897,11.8874693 6.0949886,21.2248769 C5.1135875,30.5622846 11.8874693,38.9273319 21.2248769,39.908733 C23.8386758,40.1834544 26.3762811,39.8504756 28.6970611,39.0236778 L35.5155346,47.4437914 L46.4497973,49.6981329 L47.2999842,58.6378738 L57.234247,61.8922153 L58.3195269,69.2025439 L66.6075916,70 L66.3712033,60.0084252 L39.6006746,26.680428 Z M19.9137667,23.6827973 C17.7167296,23.4518794 16.122875,21.483633 16.3537929,19.2865959 C16.5847108,17.0895588 18.5529573,15.4957043 20.7499944,15.7266222 C22.9470315,15.9575401 24.540886,17.9257865 24.3099681,20.1228236 C24.0790502,22.3198607 22.1108038,23.9137152 19.9137667,23.6827973 Z" id="key" fill="#000000"></path>
    </g>
</svg>