<?xml version="1.0" encoding="UTF-8"?>
<svg width="76px" height="48px" viewBox="0 0 76 48" version="1.1" xmlns="http://www.w3.org/2000/svg" xmlns:xlink="http://www.w3.org/1999/xlink">
    <!-- Generator: Sketch 48.1 (47250) - http://www.bohemiancoding.com/sketch -->
    <title>keyboard-o</title>
    <desc>Created with Sketch.</desc>
    <defs></defs>
    <g id="keyboard-o---f11c" stroke="none" stroke-width="1" fill="none" fill-rule="evenodd" transform="translate(0.000000, -14.000000)">
        <path d="M5.06666667,14 C21.5333333,14 54.4666667,14 70.9333333,14 C72.3055553,14 73.4930552,14.5123843 74.4958331,15.537153 C75.498611,16.5619216 76,17.7754632 76,19.1777778 C76,31.2592593 76,47.7611111 76,56.8222222 C76,58.2245368 75.498611,59.4380784 74.4958331,60.462847 C73.4930552,61.4876157 72.3055553,62 70.9333333,62 C48.9777778,62 21.5333333,62 5.06666667,62 C3.69444471,62 2.50694478,61.4876157 1.50416687,60.462847 C0.501388956,59.4380784 0,58.2245368 0,56.8222222 C0,44.7407407 0,28.2388889 0,19.1777778 C0,17.7754632 0.501388956,16.5619216 1.50416687,15.537153 C2.50694478,14.5123843 3.69444471,14 5.06666667,14 Z M5.93333333,20 L5.93333333,56 L69.9333333,56 L69.9333333,20 L5.93333333,20 Z M10.0666667,25.4583333 C11.3333333,25.4583333 13.8666667,25.4583333 15.1333333,25.4583333 C15.1333333,26.725 15.1333333,29.2583333 15.1333333,30.525 C13.8666667,30.525 11.3333333,30.525 10.0666667,30.525 C10.0666667,29.2583333 10.0666667,26.725 10.0666667,25.4583333 Z M20.2,25.4583333 C21.4666667,25.4583333 24,25.4583333 25.2666667,25.4583333 C25.2666667,26.725 25.2666667,29.2583333 25.2666667,30.525 C24,30.525 21.4666667,30.525 20.2,30.525 C20.2,29.2583333 20.2,26.725 20.2,25.4583333 Z M30.3333333,25.4583333 C31.6,25.4583333 34.1333333,25.4583333 35.4,25.4583333 C35.4,26.725 35.4,29.2583333 35.4,30.525 C34.1333333,30.525 31.6,30.525 30.3333333,30.525 C30.3333333,29.2583333 30.3333333,26.725 30.3333333,25.4583333 Z M40.4666667,25.4583333 C41.7333333,25.4583333 44.2666667,25.4583333 45.5333333,25.4583333 C45.5333333,26.725 45.5333333,29.2583333 45.5333333,30.525 C44.2666667,30.525 41.7333333,30.525 40.4666667,30.525 C40.4666667,29.2583333 40.4666667,26.725 40.4666667,25.4583333 Z M50.6,25.4583333 C51.8666667,25.4583333 54.4,25.4583333 55.6666667,25.4583333 C55.6666667,26.725 55.6666667,29.2583333 55.6666667,30.525 C54.4,30.525 51.8666667,30.525 50.6,30.525 C50.6,29.2583333 50.6,26.725 50.6,25.4583333 Z M60.7333333,25.4583333 C62,25.4583333 64.5333333,25.4583333 65.8,25.4583333 C65.8,26.725 65.8,29.2583333 65.8,30.525 C64.5333333,30.525 62,30.525 60.7333333,30.525 C60.7333333,29.2583333 60.7333333,26.725 60.7333333,25.4583333 Z M10.0666667,35.5916667 C12.6,35.5916667 17.6666667,35.5916667 20.2,35.5916667 C20.2,36.8583333 20.2,39.3916667 20.2,40.6583333 C17.6666667,40.6583333 12.6,40.6583333 10.0666667,40.6583333 C10.0666667,39.3916667 10.0666667,36.8583333 10.0666667,35.5916667 Z M25.2666667,35.5916667 C26.5333333,35.5916667 29.0666667,35.5916667 30.3333333,35.5916667 C30.3333333,36.8583333 30.3333333,39.3916667 30.3333333,40.6583333 C29.0666667,40.6583333 26.5333333,40.6583333 25.2666667,40.6583333 C25.2666667,39.3916667 25.2666667,36.8583333 25.2666667,35.5916667 Z M35.4,35.5916667 C36.6666667,35.5916667 39.2,35.5916667 40.4666667,35.5916667 C40.4666667,36.8583333 40.4666667,39.3916667 40.4666667,40.6583333 C39.2,40.6583333 36.6666667,40.6583333 35.4,40.6583333 C35.4,39.3916667 35.4,36.8583333 35.4,35.5916667 Z M45.5333333,35.5916667 C46.8,35.5916667 49.3333333,35.5916667 50.6,35.5916667 C50.6,36.8583333 50.6,39.3916667 50.6,40.6583333 C49.3333333,40.6583333 46.8,40.6583333 45.5333333,40.6583333 C45.5333333,39.3916667 45.5333333,36.8583333 45.5333333,35.5916667 Z M55.6666667,35.5916667 C58.2,35.5916667 63.2666667,35.5916667 65.8,35.5916667 C65.8,36.8583333 65.8,39.3916667 65.8,40.6583333 C63.2666667,40.6583333 58.2,40.6583333 55.6666667,40.6583333 C55.6666667,39.3916667 55.6666667,36.8583333 55.6666667,35.5916667 Z M10.0666667,45.725 C12.6,45.725 17.6666667,45.725 20.2,45.725 C20.2,46.9916667 20.2,49.525 20.2,50.7916667 C17.6666667,50.7916667 12.6,50.7916667 10.0666667,50.7916667 C10.0666667,49.525 10.0666667,46.9916667 10.0666667,45.725 Z M25.2666667,45.725 C31.6,45.725 44.2666667,45.725 50.6,45.725 C50.6,46.9916667 50.6,49.525 50.6,50.7916667 C44.2666667,50.7916667 31.6,50.7916667 25.2666667,50.7916667 C25.2666667,49.525 25.2666667,46.9916667 25.2666667,45.725 Z M55.6666667,45.725 C58.2,45.725 63.2666667,45.725 65.8,45.725 C65.8,46.9916667 65.8,49.525 65.8,50.7916667 C63.2666667,50.7916667 58.2,50.7916667 55.6666667,50.7916667 C55.6666667,49.525 55.6666667,46.9916667 55.6666667,45.725 Z" id="keyboard-o" fill="#000000" fill-rule="nonzero"></path>
    </g>
</svg>