<?xml version="1.0" encoding="UTF-8"?>
<svg width="76px" height="63px" viewBox="0 0 76 63" version="1.1" xmlns="http://www.w3.org/2000/svg" xmlns:xlink="http://www.w3.org/1999/xlink">
    <!-- Generator: Sketch 48.1 (47250) - http://www.bohemiancoding.com/sketch -->
    <title>krw</title>
    <desc>Created with Sketch.</desc>
    <defs></defs>
    <g id="krw---f159" stroke="none" stroke-width="1" fill="none" fill-rule="evenodd" transform="translate(0.000000, -7.000000)">
        <path d="M0,7 C1.58333333,7 4.75,7 6.33333333,7 C7.76822904,11.725 10.6380205,21.175 12.0729162,25.9 C16.5755205,25.9 25.580729,25.9 30.0833333,25.9 C31.2708333,21.175 33.6458333,11.725 34.8333333,7 C36.4166667,7 39.5833333,7 41.1666667,7 C42.3541667,11.725 44.7291667,21.175 45.9166667,25.9 C50.419271,25.9 59.4244795,25.9 63.9270838,25.9 C65.3619795,21.175 68.231771,11.725 69.6666667,7 C71.25,7 74.4166667,7 76,7 C74.5651043,11.725 71.6953129,21.175 70.2604172,25.9 C71.6953129,25.9 74.5651043,25.9 76,25.9 C76,27.475 76,30.625 76,32.2 C74.1197917,32.2 70.359375,32.2 68.4791667,32.2 C67.984375,33.775 66.9947917,36.925 66.5,38.5 C68.875,38.5 73.625,38.5 76,38.5 C76,40.075 76,43.225 76,44.8 C73.1302083,44.8 67.390625,44.8 64.5208333,44.8 C62.640625,51.1 58.8802083,63.7 57,70 C55.4166667,70 52.25,70 50.6666667,70 C49.0833333,63.7 45.9166667,51.1 44.3333333,44.8 C41.1666667,44.8 34.8333333,44.8 31.6666667,44.8 C30.0833333,51.1 26.9166667,63.7 25.3333333,70 C23.75,70 20.5833333,70 19,70 C17.1197917,63.7 13.359375,51.1 11.4791667,44.8 C8.609375,44.8 2.86979167,44.8 0,44.8 C0,43.225 0,40.075 0,38.5 C2.375,38.5 7.125,38.5 9.5,38.5 C9.00520833,36.925 8.015625,33.775 7.52083333,32.2 C5.640625,32.2 1.88020833,32.2 0,32.2 C0,30.625 0,27.475 0,25.9 C1.43489571,25.9 4.30468712,25.9 5.73958283,25.9 C4.30468712,21.175 1.43489571,11.725 0,7 Z M38,19.6 C37.6041667,21.175 36.8125,24.325 36.4166667,25.9 C37.2083333,25.9 38.7916667,25.9 39.5833333,25.9 C39.1875,24.325 38.3958333,21.175 38,19.6 Z M13.8541667,32.2 C14.3489583,33.775 15.3385417,36.925 15.8333333,38.5 C18.6041667,38.5 24.1458333,38.5 26.9166667,38.5 C27.3125,36.925 28.1041667,33.775 28.5,32.2 C24.8385417,32.2 17.515625,32.2 13.8541667,32.2 Z M34.8333333,32.2 C34.4375,33.775 33.6458333,36.925 33.25,38.5 C35.625,38.5 40.375,38.5 42.75,38.5 C42.3541667,36.925 41.5625,33.775 41.1666667,32.2 C39.5833333,32.2 36.4166667,32.2 34.8333333,32.2 Z M47.5,32.2 C47.8958333,33.775 48.6875,36.925 49.0833333,38.5 C51.8541667,38.5 57.3958333,38.5 60.1666667,38.5 C60.6614583,36.925 61.6510417,33.775 62.1458333,32.2 C58.484375,32.2 51.1614583,32.2 47.5,32.2 Z M17.8125,44.8 C18.8020833,48.2453125 20.78125,55.1359375 21.7708333,58.58125 C22.6614583,55.1359375 24.4427083,48.2453125 25.3333333,44.8 C23.453125,44.8 19.6927083,44.8 17.8125,44.8 Z M50.6666667,44.8 C51.5572917,48.2453125 53.3385417,55.1359375 54.2291667,58.58125 C55.21875,55.1359375 57.1979167,48.2453125 58.1875,44.8 C56.3072917,44.8 52.546875,44.8 50.6666667,44.8 Z" id="krw" fill="#000000" fill-rule="nonzero"></path>
    </g>
</svg>