<?xml version="1.0" encoding="UTF-8"?>
<svg width="76px" height="76px" viewBox="0 0 76 76" version="1.1" xmlns="http://www.w3.org/2000/svg" xmlns:xlink="http://www.w3.org/1999/xlink">
    <!-- Generator: Sketch 48.1 (47250) - http://www.bohemiancoding.com/sketch -->
    <title>language</title>
    <desc>Created with Sketch.</desc>
    <defs></defs>
    <g id="language---f1ab" stroke="none" stroke-width="1" fill="none" fill-rule="evenodd">
        <path d="M0,0 C0.791666667,0 2.375,0 3.16666667,0 C15.8333333,0 41.1666667,0 53.8333333,0 C54.625,0 56.2083333,0 57,0 C57,0.791666667 57,2.375 57,3.16666667 C57,7.125 57,15.0416667 57,19 C60.9583333,19 68.875,19 72.8333333,19 C73.625,19 75.2083333,19 76,19 C76,19.7916667 76,21.375 76,22.1666667 C76,34.8333333 76,60.1666667 76,72.8333333 C76,73.625 76,75.2083333 76,76 C75.2083333,76 73.625,76 72.8333333,76 C60.1666667,76 34.8333333,76 22.1666667,76 C21.375,76 19.7916667,76 19,76 C19,75.2083333 19,73.625 19,72.8333333 C19,68.875 19,60.9583333 19,57 C15.0416667,57 7.125,57 3.16666667,57 C2.375,57 0.791666667,57 0,57 C0,56.2083333 0,54.625 0,53.8333333 C0,41.1666667 0,15.8333333 0,3.16666667 C0,2.375 0,0.791666667 0,0 Z M6,6 C6,17 6,39 6,50 C9.5848213,50 16.7544639,50 20.3392852,50 C27.7544639,42.5848213 42.5848213,27.7544639 50,20.3392852 C50,16.7544639 50,9.5848213 50,6 C39,6 17,6 6,6 Z M20.375,10 C21.9375,10 25.0625,10 26.625,10 C26.625,10.8055556 26.625,12.4166667 26.625,13.2222222 C28.96875,13.2222222 33.65625,13.2222222 36,13.2222222 C36,14.8333333 36,18.0555556 36,19.6666667 C35.169922,19.6666667 33.509766,19.6666667 32.679688,19.6666667 C32.2890627,23.5601848 31.3125,26.9166663 29.75,29.7361111 C29.75,31.75 29.75,34.2673611 29.75,35.7777778 C28.1875,35.7777778 26.4947917,35.6435185 24.671875,35.375 C21.0260417,37.7916667 16.46875,39 11,39 C11,36.8518519 11,34.1666667 11,32.5555556 C13.0833333,32.5555556 14.90625,32.4212963 16.46875,32.1527778 C12.8229167,29.6018522 11,26.5138892 11,22.8888889 C13.0833333,22.8888889 15.6875,22.8888889 17.25,22.8888889 C17.25,24.3657411 18.2916667,25.7083337 20.375,26.9166667 C21.15625,27.4537037 22.0677083,27.9236113 23.109375,28.3263894 C24.9322917,26.3125002 26.0390627,23.4259259 26.429688,19.6666667 C21.2864587,19.6666667 14.857422,19.6666667 11,19.6666667 C11,18.0555556 11,14.8333333 11,13.2222222 C13.34375,13.2222222 18.03125,13.2222222 20.375,13.2222222 C20.375,12.4166667 20.375,10.8055556 20.375,10 Z M54.6607148,25 L25,54.6607148 L25,70 L70,70 L70,25 L54.6607148,25 Z M50.5,38 C51.2421876,39.7361112 52.7265629,43.2083336 53.4687505,44.9444448 C55.0520838,48.6481485 58.2187505,56.055556 59.8020838,59.7592597 C59.8515629,59.8750003 59.950521,60.1064816 60,60.2222222 C60,60.2993827 60,60.4537037 60,60.5308642 C60,61.1481481 60,62.382716 60,63 C58.4166667,63 55.25,63 53.6666667,63 C53.6666667,62.4598765 53.6666667,61.3796296 53.6666667,60.8395062 C53.6666667,60.7623457 53.6666667,60.6080247 53.6666667,60.5308642 C52.0833333,60.5308642 48.9166667,60.5308642 47.3333333,60.5308642 C47.3333333,60.6080247 47.3333333,60.7623457 47.3333333,60.8395062 C47.3333333,61.3796296 47.3333333,62.4598765 47.3333333,63 C45.75,63 42.5833333,63 41,63 C41,62.382716 41,61.1481481 41,60.5308642 C41,60.4537037 41,60.2993827 41,60.2222222 C41.049479,60.1064816 41.1484371,59.8750003 41.1979162,59.7592597 C42.7812495,56.055556 45.9479162,48.6481485 47.5312495,44.9444448 C48.2734371,43.2083336 49.7578124,39.7361112 50.5,38 Z M51,51 C50.75,51.75 50.25,53.25 50,54 C50.5,54 51.5,54 52,54 C51.75,53.25 51.25,51.75 51,51 Z" id="language" fill="#000000" fill-rule="nonzero"></path>
    </g>
</svg>