<?xml version="1.0" encoding="UTF-8"?>
<svg width="59px" height="76px" viewBox="0 0 59 76" version="1.1" xmlns="http://www.w3.org/2000/svg" xmlns:xlink="http://www.w3.org/1999/xlink">
    <!-- Generator: Sketch 48.1 (47250) - http://www.bohemiancoding.com/sketch -->
    <title>leaf</title>
    <desc>Created with Sketch.</desc>
    <defs></defs>
    <g id="leaf---f06c" stroke="none" stroke-width="1" fill="none" fill-rule="evenodd" transform="translate(-9.000000, 0.000000)">
        <path d="M62.6363636,0 C62.8877841,0.754261364 63.390625,2.26278409 63.6420455,3.01704545 C66.5473485,13.0738636 68,25.030303 68,38.8863636 C68,48.9431818 65.8768939,56.3740529 61.6306818,61.1789768 C58.2784091,65.089962 53.9763256,67.0454545 48.7244314,67.0454545 C45.0369317,67.0454545 41.1259471,65.592803 36.9914777,62.6875 C36.0975383,62.1287876 35.1477276,61.458333 34.1420455,60.6761364 C33.1363634,59.8939397 32.2982953,59.2793565 31.6278413,58.8323868 C31.0691289,58.2736744 30.7897727,57.9384468 30.7897727,57.8267041 C31.6837121,56.3181815 32.8011364,54.4325283 33.4715909,53.3011364 C34.1420455,53.7481061 35.1756628,54.530303 36.572443,55.6477273 C37.9692231,56.7651515 39.1145829,57.6590909 40.0085223,58.3295455 C43.2490529,60.5643939 46.1543559,61.6818182 48.7244314,61.6818182 C52.300189,61.6818182 55.2613634,60.3409091 57.6079545,57.6590909 C60.9602273,53.7481058 62.6363636,47.49053 62.6363636,38.8863636 C62.6363636,26.8181818 61.407197,16.2026515 58.9488636,7.03977273 C55.8200758,8.26893911 50.9592803,9.69365495 44.3664773,11.3139202 C37.7736742,12.9341855 33.1363636,14.1912879 30.4545455,15.0852273 C25.2026512,16.9848488 21.2916664,19.3314397 18.7215909,22.125 C15.8162879,25.36553 14.3636364,29.6117421 14.3636364,34.8636364 C14.3636364,39.1098485 16.375,42.6856061 20.3977273,45.5909091 C21.6268942,46.4848485 23.0795457,47.2670455 24.7556818,47.9375 C29.7840912,39.7803027 37.2708336,30.3380678 47.2159091,19.610795 C48.5568182,20.839962 50.2329545,22.3764207 51.2386364,23.2982959 C36.0416667,39.5009471 26.7670455,52.5748105 23.4147727,62.5198859 C22.4090906,65.4251895 21.9621209,68.1070077 22.0738636,70.5653405 C22.0738636,71.0123102 22.5,74.1079545 23,75.6079545 C21,75.6079545 18.7215909,75.6079545 17.2130678,75.6079545 C17.1292609,74.6022727 16.7940341,71.7386364 16.7102273,70.7329545 C16.4867424,67.6041667 16.9895835,64.2518939 18.2187504,60.6761364 C19.1126898,58.217803 20.3418562,55.5359848 21.9062496,52.6306818 C20.2301135,51.8484851 18.6657196,50.9545457 17.2130678,49.9488636 C11.7376893,46.0378791 9,41.00947 9,34.8636364 C9,28.1590909 10.9554926,22.6837121 14.8664777,18.4375 C17.9952656,15.0852273 22.5767047,12.2916667 28.610795,10.0568182 C31.7395829,9.05113665 36.9914768,7.68229202 44.3664768,5.95028431 C51.7414768,4.21827659 56.9374997,2.68181818 59.9545455,1.34090909 C60.8484848,0.893939394 61.9659091,0.335227273 62.6363636,0 Z" id="leaf" fill="#000000" fill-rule="nonzero"></path>
    </g>
</svg>