<?xml version="1.0" encoding="UTF-8"?>
<svg width="76px" height="76px" viewBox="0 0 76 76" version="1.1" xmlns="http://www.w3.org/2000/svg" xmlns:xlink="http://www.w3.org/1999/xlink">
    <!-- Generator: Sketch 48.1 (47250) - http://www.bohemiancoding.com/sketch -->
    <title>lemon-o</title>
    <desc>Created with Sketch.</desc>
    <defs></defs>
    <g id="lemon-o---f094" stroke="none" stroke-width="1" fill="none" fill-rule="evenodd">
        <path d="M28.5,0 C39.5833333,0 49.1163194,3.0017362 57.0989581,9.00520859 C65.0815968,15.008681 69.9965276,22.166667 71.8437505,30.4791667 C74.6145835,32.5902778 76,35.0972222 76,38 C76,40.9027778 74.6145835,43.4097222 71.8437505,45.5208333 C69.9965276,54.0972226 65.3784717,61.321181 57.9895828,67.1927086 C50.6006939,73.0642362 40.770833,76 28.5,76 C20.4513892,76 13.5902781,72.1736111 7.91666667,64.5208333 C2.63888889,57.1319444 0,48.2916667 0,38 C0,27.7083333 2.63888889,18.8680556 7.91666667,11.4791667 C13.5902781,3.82638889 20.4513892,0 28.5,0 Z M28,6 C22.1071432,6 17.0000003,8.99999983 12.6785714,14.9999995 C8.22619048,21.2666665 6,28.9333333 6,38 C6,47.0666667 8.22619048,54.7333335 12.6785714,61.0000005 C17.0000003,67.0000002 22.1071432,70 28,70 C33.8928568,70 38.9999997,67.0000002 43.3214286,61.0000005 C47.7738095,54.7333335 50,47.0666667 50,38 C50,28.9333333 47.7738095,21.2666665 43.3214286,14.9999995 C38.9999997,8.99999983 33.8928568,6 28,6 Z M48.9909915,11 C48.9909915,11.1318941 49.0240246,11.2308149 49.0900908,11.2967623 C49.1561571,11.3627097 49.2552561,11.3956835 49.3873879,11.3956835 C54.672673,18.7817746 57.3153156,27.618705 57.3153156,37.9064748 C57.3153156,48.1942446 54.672673,57.0311751 49.3873879,64.4172662 C49.2552561,64.549161 48.7927935,65.0767389 48,66 C58.1741743,61.6474817 64.3183184,53.9976016 66.4324325,43.0503597 C66.4984987,42.5227818 66.5810815,41.8633094 66.6306312,41.4676259 C66.9774779,41.2697842 67.6711714,40.8741007 68.0180181,40.676259 C69.3393394,40.1486811 70,39.2254197 70,37.9064748 C70,36.58753 69.3393394,35.6642686 68.0180181,35.1366906 C67.5555558,34.8729017 66.9774779,34.5431655 66.6306312,34.3453237 C66.5810815,33.9496403 66.4819822,33.1582734 66.4324325,32.7625899 C65.6396397,28.5419664 63.7237239,24.4862111 60.6846849,20.595324 C57.6456459,16.7044369 53.7477481,13.5059955 48.9909915,11 Z M28.3030303,13 C30.6666667,13 32.8989899,13.7727273 35,15.3181818 C32.7676768,20.2121212 29.9772727,26.3295455 28.3030303,30 C26.7272727,26.2812501 23.5757576,18.8437504 22,15.1250005 C24.1010101,13.7083335 26.2020202,13 28.3030303,13 Z M17.7142857,20 C19.2857143,23.75 22.4285714,31.25 24,35 C21.25,35 15.75,35 13,35 C13.5238095,29.2105263 15.0952381,24.2105263 17.7142857,20 Z M39.4821424,20 C41.9702379,23.9099096 43.4761905,28.5765763 44,34 C40.3333333,34 35.75,34 33,34 C34.6205356,30.5 37.8616068,23.5 39.4821424,20 Z M13,42 C15.75,42 21.25,42 24,42 C22.3794644,45.5 19.1383932,52.5 17.5178576,56 C15.0297621,52.0900904 13.5238095,47.4234237 13,42 Z M33,42 C35.75,42 41.25,42 44,42 C43.4761905,47.7894737 41.9047619,52.7894737 39.2857143,57 C37.1904762,52 34.5714286,45.75 33,42 Z M28.6969697,46 C30.2727273,49.7187499 33.4242424,57.1562496 35,60.8749995 C32.8989899,62.2916665 30.7979798,63 28.6969697,63 C26.3333333,63 24.1010101,62.2272727 22,60.6818182 C24.2323232,55.7878788 27.0227273,49.6704545 28.6969697,46 Z" id="lemon-o" fill="#000000" fill-rule="nonzero"></path>
    </g>
</svg>