<?xml version="1.0" encoding="UTF-8"?>
<svg width="76px" height="76px" viewBox="0 0 76 76" version="1.1" xmlns="http://www.w3.org/2000/svg" xmlns:xlink="http://www.w3.org/1999/xlink">
    <!-- Generator: Sketch 48.1 (47250) - http://www.bohemiancoding.com/sketch -->
    <title>life-bouy</title>
    <desc>Created with Sketch.</desc>
    <defs></defs>
    <g id="life-buoy---f1cd" stroke="none" stroke-width="1" fill="none" fill-rule="evenodd">
        <path d="M38,0 C48.4236114,0 57.3628476,3.72743047 64.8177086,11.1822914 C72.2725695,18.6371524 76,27.5763886 76,38 C76,48.4236114 72.2725695,57.3628476 64.8177086,64.8177086 C57.3628476,72.2725695 48.4236114,76 38,76 C27.5763886,76 18.6371524,72.2725695 11.1822914,64.8177086 C3.72743047,57.3628476 0,48.4236114 0,38 C0,27.5763886 3.72743047,18.6371524 11.1822914,11.1822914 C18.6371524,3.72743047 27.5763886,0 38,0 Z M37.951416,5.86565168 C37.1489807,5.86565168 36.079067,5.93252111 34.7416748,6.06625999 C34.7416748,9.34287098 34.7416748,9.34287098 34.7416748,15.896093 C36.079067,15.6286145 37.1489807,15.4948753 37.951416,15.4948753 C38.7538513,15.4948753 39.8237651,15.6286145 41.1611572,15.896093 C41.1611572,12.619482 41.1611572,12.619482 41.1611572,6.06625999 C39.8237651,5.93252111 38.7538513,5.86565168 37.951416,5.86565168 Z M28.3221924,7.26991397 C23.3738417,8.87478458 19.0273173,11.516134 15.2826192,15.1939623 C11.5379211,18.8717906 8.93000624,23.2517499 7.45887451,28.3338402 C10.8692247,28.3338402 10.8692247,28.3338402 17.6899251,28.3338402 C19.9634915,23.5192283 23.5075806,19.9751393 28.3221924,17.7015729 C28.3221924,14.2243533 28.3221924,14.2243533 28.3221924,7.26991397 Z M47.5806396,7.26991397 C47.5806396,9.8778287 47.5806396,9.8778287 47.5806396,17.7015729 C52.3952515,19.9751393 55.9393405,23.5192283 58.2129069,28.3338402 C61.6901265,28.3338402 61.6901265,28.3338402 68.6445658,28.3338402 C67.0396952,23.3854895 64.3649109,19.0389651 60.6202128,15.294267 C56.8755147,11.5495689 52.5289903,8.87478458 47.5806396,7.26991397 Z M37.951416,21.9143577 C33.5380222,21.9143577 29.7598894,23.4857936 26.6170176,26.6286654 C23.4741458,29.7715372 21.90271,33.54967 21.90271,37.9630638 C21.90271,42.3764576 23.4741458,46.1545904 26.6170176,49.2974622 C29.7598894,52.440334 33.5380222,54.0117698 37.951416,54.0117698 C42.3648098,54.0117698 46.1429426,52.440334 49.2858144,49.2974622 C52.4286862,46.1545904 54.0001221,42.3764576 54.0001221,37.9630638 C54.0001221,33.54967 52.4286862,29.7715372 49.2858144,26.6286654 C46.1429426,23.4857936 42.3648098,21.9143577 37.951416,21.9143577 Z M6.05461222,34.7533226 C5.92087334,36.0907147 5.85400391,37.1606285 5.85400391,37.9630638 C5.85400391,38.7654991 5.92087334,39.8354128 6.05461222,41.172805 C9.33122321,41.172805 9.33122321,41.172805 15.8844452,41.172805 C15.6169668,39.8354128 15.4832275,38.7654991 15.4832275,37.9630638 C15.4832275,36.7594112 15.550097,35.6894974 15.6838359,34.7533226 C12.4740946,34.7533226 12.4740946,34.7533226 6.05461222,34.7533226 Z M60.0183868,34.7533226 C60.2858653,36.0907147 60.4196045,37.1606285 60.4196045,37.9630638 C60.4196045,38.7654991 60.2858653,39.8354128 60.0183868,41.172805 C63.2949978,41.172805 63.2949978,41.172805 69.8482198,41.172805 C69.9819587,39.8354128 70.0488281,38.7654991 70.0488281,37.9630638 C70.0488281,37.1606285 69.9819587,36.0907147 69.8482198,34.7533226 C66.5716088,34.7533226 66.5716088,34.7533226 60.0183868,34.7533226 Z M7.2582662,47.5922874 C8.86313681,52.5406381 11.5379211,56.8871625 15.2826192,60.6318606 C19.0273173,64.3765587 23.3738417,67.051343 28.3221924,68.6562136 C28.3221924,65.178994 28.3221924,65.178994 28.3221924,58.2245547 C23.5075806,55.9509883 19.9634915,52.4068992 17.6899251,47.5922874 C14.2127055,47.5922874 14.2127055,47.5922874 7.2582662,47.5922874 Z M58.2129069,47.5922874 C55.9393405,52.4068992 52.3952515,55.9509883 47.5806396,58.2245547 C47.5806396,61.7017743 47.5806396,61.7017743 47.5806396,68.6562136 C52.5289903,67.051343 56.8755147,64.3765587 60.6202128,60.6318606 C64.3649109,56.8871625 67.0396952,52.5406381 68.6445658,47.5922874 C65.1673462,47.5922874 65.1673462,47.5922874 58.2129069,47.5922874 Z M34.7416748,60.0300346 C34.7416748,62.4874929 34.7416748,62.4874929 34.7416748,69.8598676 C36.079067,69.9936065 37.1489807,70.0604759 37.951416,70.0604759 C38.7538513,70.0604759 39.8237651,69.9936065 41.1611572,69.8598676 C41.1611572,66.5832566 41.1611572,66.5832566 41.1611572,60.0300346 C39.8237651,60.297513 38.7538513,60.4312523 37.951416,60.4312523 C37.1489807,60.4312523 36.079067,60.297513 34.7416748,60.0300346 Z" id="life-bouy" fill="#000000" fill-rule="nonzero"></path>
    </g>
</svg>