<?xml version="1.0" encoding="UTF-8"?>
<svg width="53px" height="76px" viewBox="0 0 53 76" version="1.1" xmlns="http://www.w3.org/2000/svg" xmlns:xlink="http://www.w3.org/1999/xlink">
    <!-- Generator: Sketch 48.1 (47250) - http://www.bohemiancoding.com/sketch -->
    <title>lightbulb-o</title>
    <desc>Created with Sketch.</desc>
    <defs></defs>
    <g id="lightbulb-o---f0eb" stroke="none" stroke-width="1" fill="none" fill-rule="evenodd" transform="translate(-12.000000, 0.000000)">
        <path d="M38.1891894,0 C45.5,0 51.556177,2.58814095 56.7324589,7.76442284 C61.9087408,12.9407047 65,18 65,26 C65,34 61.5,41 55.5,47 C51.6025641,50.532051 50,53 50,58 C50,58.121795 50,63.121795 50,73 C46.6089744,73 44.6089744,73 44,73 C42.7820513,74.9487179 40.3814971,76 38.1891894,76 C35.9968817,76 34.2179487,74.9487179 33,73 C32.1880342,73 30.1880342,73 27,73 C27,64.9487179 27,59.9487179 27,58 C27,53 24.3012824,49.3141029 21.5,47 C14.5,41 12,34 12,26 C12,18 15.6571378,11.9358971 19.9199586,7.67307692 C24.1827794,3.41025672 30.8783788,1.2961536e-15 38.1891894,0 Z M38.2334417,6 C22,6 18,20 18,26 C18,32 19.1117897,37.6842345 25.2180351,42.2019235 C29,45 31.3910253,49.3974359 32,55 C36.2628205,55 40.8028846,55 44,55 C44.7307692,49.6410256 48,45 51.8911129,41.6538462 C55.7822259,38.3076923 59,32 59,26 C59,20 54.4668834,6 38.2334417,6 Z M33,61 L33,67 L44.0353432,67 L44.0353432,61 L33,61 Z" id="lightbulb-o" fill="#000000" fill-rule="nonzero"></path>
    </g>
</svg>