<?xml version="1.0" encoding="UTF-8"?>
<svg width="76px" height="49px" viewBox="0 0 76 49" version="1.1" xmlns="http://www.w3.org/2000/svg" xmlns:xlink="http://www.w3.org/1999/xlink">
    <!-- Generator: Sketch 48.1 (47250) - http://www.bohemiancoding.com/sketch -->
    <title>line-chart</title>
    <desc>Created with Sketch.</desc>
    <defs></defs>
    <g id="line-chart---f201" stroke="none" stroke-width="1" fill="none" fill-rule="evenodd" transform="translate(0.000000, -14.000000)">
        <path d="M76,20.9916368 C76,24.9868578 72.8219833,28.1648746 68.8267622,28.1648746 C67.9187575,28.1648746 67.1015532,27.9832736 66.3751493,27.7108722 C63.3618946,30.6911444 66.3751493,27.7108722 54.3894863,39.6965352 C54.7526882,40.5137395 54.9342891,41.4217443 54.9342891,42.3297491 C54.9342891,46.3249701 51.7562724,49.5029869 47.7610514,49.5029869 C44.4922342,49.5029869 41.6774194,47.2329749 40.8602151,44.2365591 C37.4618019,43.5981673 40.8602151,44.2365591 29.5101553,42.0573477 C28.3297491,44.3273596 25.9689367,45.9617682 23.1541219,45.9617682 C22.1553166,45.9617682 21.2775787,45.5985663 20.339307,45.4169654 C18.0995619,47.6567105 20.339307,45.4169654 13.6200717,52.1362007 C14.0740741,53.135006 14.3464755,54.1338112 14.3464755,55.223417 C14.3464755,59.1278375 11.1684588,62.3966547 7.17323775,62.3966547 C3.2688172,62.3966547 -4.27586657e-14,59.218638 0,55.223417 C0,51.2281959 3.17801673,48.0501792 7.17323775,48.0501792 C8.26284349,48.0501792 9.17084827,48.4739148 10.1696535,48.6857826 C12.348865,46.5065711 10.1696535,48.6857826 16.7072879,42.1481481 C16.1624851,41.1493429 15.8900836,40.0597372 15.8900836,38.8793309 C15.8900836,34.8841099 19.0681004,31.7060932 23.0633214,31.7060932 C26.4229391,31.7060932 29.3734009,34.1330171 30.0549582,37.3357228 C33.7777778,38.0621266 30.0549582,37.3357228 41.223417,39.5149343 C42.4038232,37.0633214 44.8554361,35.3381123 47.7610514,35.3381123 C49.0322581,35.3381123 50.2126643,35.7013142 51.2114695,36.2461171 C54.0688381,33.4446426 51.2114695,36.2461171 62.6523297,24.8052569 C62.0167264,23.7156511 61.6535245,22.5352449 61.6535245,21.1732378 C61.6535245,17.1780167 64.9223417,14 68.8267622,14 C72.8219833,14 76,16.9964158 76,20.9916368 Z M9.35244922,55.4050179 C9.35244922,54.1338112 8.35364397,53.135006 7.08243728,53.135006 C5.81123059,53.135006 4.81242533,54.1338112 4.81242533,55.4050179 C4.81242533,56.6762246 5.81123059,57.6750299 7.08243728,57.6750299 C8.35364397,57.6750299 9.35244922,56.6762246 9.35244922,55.4050179 Z M25.3333333,39.0609319 C25.3333333,37.7897252 24.3345281,36.79092 23.0633214,36.79092 C21.7921147,36.79092 20.7933094,37.7897252 20.7933094,39.0609319 C20.7933094,40.3321386 21.7921147,41.3309438 23.0633214,41.3309438 C24.3345281,41.3309438 25.3333333,40.3321386 25.3333333,39.0609319 Z M50.0310633,42.6021505 C50.0310633,41.3309438 49.0322581,40.3321386 47.7610514,40.3321386 C46.4898447,40.3321386 45.4910394,41.3309438 45.4910394,42.6021505 C45.4910394,43.8733572 46.4898447,44.8721625 47.7610514,44.8721625 C49.0322581,44.8721625 50.0310633,43.8733572 50.0310633,42.6021505 Z M71.0967742,21.1732378 C71.0967742,19.9020311 70.0979689,18.9032258 68.8267622,18.9032258 C67.5555556,18.9032258 66.5567503,19.9020311 66.5567503,21.1732378 C66.5567503,22.4444444 67.5555556,23.4432497 68.8267622,23.4432497 C70.0979689,23.4432497 71.1875747,22.4444444 71.0967742,21.1732378 Z" id="line-chart" fill="#000000" fill-rule="nonzero"></path>
    </g>
</svg>