<?xml version="1.0" encoding="UTF-8"?>
<svg width="76px" height="76px" viewBox="0 0 76 76" version="1.1" xmlns="http://www.w3.org/2000/svg" xmlns:xlink="http://www.w3.org/1999/xlink">
    <!-- Generator: Sketch 48.1 (47250) - http://www.bohemiancoding.com/sketch -->
    <title>link</title>
    <desc>Created with Sketch.</desc>
    <defs></defs>
    <g id="link---f0c1" stroke="none" stroke-width="1" fill="none" fill-rule="evenodd">
        <path d="M56.2083333,0 C61.6180552,0 66.2690968,1.94618064 70.1614581,5.83854192 C74.0538194,9.7309032 76,14.3819448 76,19.7916667 C76,25.3333333 74.0208333,30.0173613 70.0625,33.8437505 C68.5451391,35.3611114 66.6484379,37.2578126 65.5104172,38.3958333 C61.6840279,42.3541667 57,44.3333333 51.4583333,44.3333333 C48.9513886,44.3333333 46.5763886,43.8715276 44.3333333,42.9479162 C46.0486111,41.2326387 48.1927083,39.0885419 49.4791667,37.8020838 C50.1388892,37.9340279 50.7986114,38 51.4583333,38 C55.1527778,38 58.3194444,36.6805556 60.9583333,34.0416667 C62.5416667,32.4583333 64.5208333,30.4791667 65.7083333,29.2916667 C68.3472222,26.7847219 69.6666667,23.6510412 69.6666667,19.8906247 C69.6666667,16.1302082 68.3472222,12.9305556 65.7083333,10.2916667 C63.0694444,7.65277778 59.9027778,6.33333333 56.2083333,6.33333333 C52.3819448,6.33333333 49.2152781,7.65277778 46.7083333,10.2916667 C45.125,11.875 43.1458333,13.8541667 41.9583333,15.0416667 C38.7916667,18.2083333 37.5381943,22.0347222 38.1979162,26.5208333 C36.4826387,28.2361111 34.3385419,30.3802083 33.0520838,31.6666667 C32.1284724,29.4236114 31.6666667,27.0486114 31.6666667,24.5416667 C31.6666667,19 33.6458333,14.3159721 37.6041667,10.4895828 C39.1215276,8.97222188 41.0182288,7.07552071 42.1562495,5.9375 C45.9826387,1.97916667 50.6666667,0 56.2083333,0 Z M48.2916667,22.9583333 C49.4791667,24.1458333 51.8541667,26.5208333 53.0416667,27.7083333 C46.7083333,34.0416667 34.0416667,46.7083333 27.7083333,53.0416667 C26.5208333,51.8541667 24.1458333,49.4791667 22.9583333,48.2916667 C29.2916667,41.9583333 41.9583333,29.2916667 48.2916667,22.9583333 Z M24.5416667,31.6666667 C27.0486114,31.6666667 29.4236114,32.1284724 31.6666667,33.0520838 C29.9513889,34.7673613 27.8072917,36.9114581 26.5208333,38.1979162 C25.8611108,38.0659721 25.2013886,38 24.5416667,38 C20.8472222,38 17.6805556,39.3194444 15.0416667,41.9583333 C13.4583333,43.5416667 11.4791667,45.5208333 10.2916667,46.7083333 C7.65277778,49.2152781 6.33333333,52.3489588 6.33333333,56.1093753 C6.33333333,59.8697918 7.65277778,63.0694444 10.2916667,65.7083333 C12.9305556,68.3472222 16.0972222,69.6666667 19.7916667,69.6666667 C23.6180552,69.6666667 26.7847219,68.3472222 29.2916667,65.7083333 C30.875,64.125 32.8541667,62.1458333 34.0416667,60.9583333 C37.2083333,57.7916667 38.4618057,53.9652778 37.8020838,49.4791667 C39.5173613,47.7638889 41.6614581,45.6197917 42.9479162,44.3333333 C43.8715276,46.5763886 44.3333333,48.9513886 44.3333333,51.4583333 C44.3333333,57 42.3541667,61.6840279 38.3958333,65.5104172 C36.8784724,67.0277781 34.9817712,68.9244793 33.8437505,70.0625 C30.0173613,74.0208333 25.3333333,76 19.7916667,76 C14.3819448,76 9.7309032,74.0538194 5.83854192,70.1614581 C1.94618064,66.2690968 0,61.6180552 0,56.2083333 C0,50.6666667 1.97916667,45.9826387 5.9375,42.1562495 C7.45486094,40.6388886 9.35156212,38.7421874 10.4895828,37.6041667 C14.3159721,33.6458333 19,31.6666667 24.5416667,31.6666667 Z" id="link" fill="#000000" fill-rule="nonzero"></path>
    </g>
</svg>