<?xml version="1.0" encoding="UTF-8"?>
<svg width="64px" height="57px" viewBox="0 0 64 57" version="1.1" xmlns="http://www.w3.org/2000/svg" xmlns:xlink="http://www.w3.org/1999/xlink">
    <!-- Generator: Sketch 48.1 (47250) - http://www.bohemiancoding.com/sketch -->
    <title>list-ol</title>
    <desc>Created with Sketch.</desc>
    <defs></defs>
    <g id="list-ol---f0cb" stroke="none" stroke-width="1" fill="none" fill-rule="evenodd" transform="translate(-6.000000, -9.000000)" opacity="0.699999988">
        <path d="M6.0999999,9.588 L9.9159999,9.588 L9.9159999,18 L7.7199999,18 L7.7199999,11.388 L6.0999999,11.388 L6.0999999,9.588 Z M12.7599999,32.236 L12.7599999,34 L6.3519999,34 L6.3399999,32.548 L9.3999999,29.404 C9.6400011,29.1559988 9.83599914,28.9080012 9.9879999,28.66 C10.1400007,28.4119988 10.2159999,28.2000009 10.2159999,28.024 C10.2159999,27.7919988 10.1320007,27.6140006 9.9639999,27.49 C9.79599906,27.3659994 9.56000142,27.304 9.2559999,27.304 C8.91999822,27.304 8.54600196,27.3979991 8.1339999,27.586 C7.72199784,27.7740009 7.32400182,28.0359983 6.9399999,28.372 L6.0999999,26.752 C7.2600057,25.9119958 8.42399406,25.492 9.5919999,25.492 C10.1520027,25.492 10.6539977,25.5839991 11.0979999,25.768 C11.5420021,25.9520009 11.8899986,26.2119983 12.1419999,26.548 C12.3940012,26.8840017 12.5199999,27.2679978 12.5199999,27.7 C12.5199999,28.1320022 12.3780013,28.5779977 12.0939999,29.038 C11.8099985,29.4980023 11.4080025,29.9879974 10.8879999,30.508 L9.1719999,32.236 L12.7599999,32.236 Z M10.5759999,45.044 C11.2560033,45.1400005 11.8019978,45.389998 12.2139999,45.794 C12.626002,46.198002 12.8319999,46.7159968 12.8319999,47.348 C12.8319999,47.8840027 12.6920013,48.3599979 12.4119999,48.776 C12.1319985,49.1920021 11.7360025,49.5159988 11.2239999,49.748 C10.7119973,49.9800012 10.1120033,50.096 9.4239999,50.096 C8.80799682,50.096 8.20200288,50.0020009 7.6059999,49.814 C7.00999692,49.6259991 6.50800194,49.3760016 6.0999999,49.064 L6.9159999,47.516 C7.26800166,47.8120015 7.6439979,48.0359992 8.0439999,48.188 C8.4440019,48.3400008 8.8439979,48.416 9.2439999,48.416 C9.70800222,48.416 10.0639987,48.3260009 10.3119999,48.146 C10.5600011,47.9659991 10.6839999,47.7080017 10.6839999,47.372 C10.6839999,47.0359983 10.5600011,46.7800009 10.3119999,46.604 C10.0639987,46.4279991 9.70400226,46.34 9.2319999,46.34 L7.8159999,46.34 L7.8159999,45.14 L9.7599999,43.268 L6.5439999,43.268 L6.5439999,41.588 L12.4239999,41.588 L12.4239999,42.86 L10.1319999,44.96 L10.5759999,45.044 Z M12.9999999,62.52 L12.9999999,64.188 L11.9199999,64.188 L11.9199999,66 L9.9039999,66 L9.9039999,64.188 L6.0999999,64.188 L6.0999999,62.7 L8.4879999,57.588 L10.5759999,57.588 L8.3319999,62.52 L9.9039999,62.52 L9.9039999,60.732 L11.9199999,60.732 L11.9199999,62.52 L12.9999999,62.52 Z M20.8066406,43 L70,43 L70,49 L20.8066406,49 L20.8066406,43 Z M20.8066406,27 L70,27 L70,33 L20.8066406,33 L20.8066406,27 Z M20.8066406,11 L70,11 L70,17 L20.8066406,17 L20.8066406,11 Z M20.8066406,59 L70,59 L70,65 L20.8066406,65 L20.8066406,59 Z" id="list-ol" fill="#000000"></path>
    </g>
</svg>