<?xml version="1.0" encoding="UTF-8"?>
<svg width="68px" height="59px" viewBox="0 0 68 59" version="1.1" xmlns="http://www.w3.org/2000/svg" xmlns:xlink="http://www.w3.org/1999/xlink">
    <!-- Generator: Sketch 48.1 (47250) - http://www.bohemiancoding.com/sketch -->
    <title>list-alt</title>
    <desc>Created with Sketch.</desc>
    <defs></defs>
    <g id="list-alt---f022" stroke="none" stroke-width="1" fill="none" fill-rule="evenodd" transform="translate(-2.000000, -8.000000)" opacity="0.699999988">
        <path d="M4.17740795,12.6855469 L7.51950115,15.7099609 L12.8596972,8.60546875 L15.1999512,10.3162842 L8.15824675,19.7711182 L2.44421387,14.6618652 L4.17740795,12.6855469 Z M4.17740795,27.6855469 L7.51950115,30.7099609 L12.8596972,23.6054688 L15.1999512,25.3162842 L8.15824675,34.7711182 L2.44421387,29.6618652 L4.17740795,27.6855469 Z M4.17740795,43.6855469 L7.51950115,46.7099609 L12.8596972,39.6054688 L15.1999512,41.3162842 L8.15824675,50.7711182 L2.44421387,45.6618652 L4.17740795,43.6855469 Z M4.17740795,59.6855469 L7.51950115,62.7099609 L12.8596972,55.6054688 L15.1999512,57.3162842 L8.15824675,66.7711182 L2.44421387,61.6618652 L4.17740795,59.6855469 Z M20.8066406,43 L70,43 L70,49 L20.8066406,49 L20.8066406,43 Z M20.8066406,27 L70,27 L70,33 L20.8066406,33 L20.8066406,27 Z M20.8066406,11 L70,11 L70,17 L20.8066406,17 L20.8066406,11 Z M20.8066406,59 L70,59 L70,65 L20.8066406,65 L20.8066406,59 Z" id="list-alt" fill="#000000"></path>
    </g>
</svg>