<?xml version="1.0" encoding="UTF-8"?>
<svg width="64px" height="54px" viewBox="0 0 64 54" version="1.1" xmlns="http://www.w3.org/2000/svg" xmlns:xlink="http://www.w3.org/1999/xlink">
    <!-- Generator: Sketch 48.1 (47250) - http://www.bohemiancoding.com/sketch -->
    <title>list-ul</title>
    <desc>Created with Sketch.</desc>
    <defs></defs>
    <g id="list-ul---f0ca" stroke="none" stroke-width="1" fill="none" fill-rule="evenodd" transform="translate(-6.000000, -11.000000)" opacity="0.699999988">
        <path d="M9,43 C10.6568542,43 12,44.3431458 12,46 C12,47.6568542 10.6568542,49 9,49 C7.34314575,49 6,47.6568542 6,46 C6,44.3431458 7.34314575,43 9,43 Z M9,27 C10.6568542,27 12,28.3431458 12,30 C12,31.6568542 10.6568542,33 9,33 C7.34314575,33 6,31.6568542 6,30 C6,28.3431458 7.34314575,27 9,27 Z M9,11 C10.6568542,11 12,12.3431458 12,14 C12,15.6568542 10.6568542,17 9,17 C7.34314575,17 6,15.6568542 6,14 C6,12.3431458 7.34314575,11 9,11 Z M9,59 C10.6568542,59 12,60.3431458 12,62 C12,63.6568542 10.6568542,65 9,65 C7.34314575,65 6,63.6568542 6,62 C6,60.3431458 7.34314575,59 9,59 Z M20,43 L70,43 L70,49 L20,49 L20,43 Z M20,27 L70,27 L70,33 L20,33 L20,27 Z M20,11 L70,11 L70,17 L20,17 L20,11 Z M20,59 L70,59 L70,65 L20,65 L20,59 Z" id="list-ul" fill="#000000"></path>
    </g>
</svg>