<?xml version="1.0" encoding="UTF-8"?>
<svg width="64px" height="54px" viewBox="0 0 64 54" version="1.1" xmlns="http://www.w3.org/2000/svg" xmlns:xlink="http://www.w3.org/1999/xlink">
    <!-- Generator: Sketch 48.1 (47250) - http://www.bohemiancoding.com/sketch -->
    <title>list</title>
    <desc>Created with Sketch.</desc>
    <defs></defs>
    <g id="list---f03a" stroke="none" stroke-width="1" fill="none" fill-rule="evenodd" transform="translate(-6.000000, -11.000000)" opacity="0.699999988">
        <path d="M6,43 L12,43 L12,49 L6,49 L6,43 Z M6,27 L12,27 L12,33 L6,33 L6,27 Z M6,11 L12,11 L12,17 L6,17 L6,11 Z M6,59 L12,59 L12,65 L6,65 L6,59 Z M20,43 L70,43 L70,49 L20,49 L20,43 Z M20,27 L70,27 L70,33 L20,33 L20,27 Z M20,11 L70,11 L70,17 L20,17 L20,11 Z M20,59 L70,59 L70,65 L20,65 L20,59 Z" id="list" fill="#000000"></path>
    </g>
</svg>