<?xml version="1.0" encoding="UTF-8"?>
<svg width="62px" height="76px" viewBox="0 0 62 76" version="1.1" xmlns="http://www.w3.org/2000/svg" xmlns:xlink="http://www.w3.org/1999/xlink">
    <!-- Generator: Sketch 48.1 (47250) - http://www.bohemiancoding.com/sketch -->
    <title>location-arrow</title>
    <desc>Created with Sketch.</desc>
    <defs></defs>
    <g id="location-arrow---f124" stroke="none" stroke-width="1" fill="none" fill-rule="evenodd" transform="translate(-7.000000, 0.000000)">
        <path d="M37.664062,0 C38.3476558,1.7828417 39.7148433,5.34852511 40.398437,7.13136682 C46.648437,22.6166216 59.148437,53.5871312 65.398437,69.072386 C66.1308588,70.8042895 67.5957022,74.2680965 68.328124,76 C66.6191397,75.3378017 63.2011713,74.0134052 61.492187,73.3512069 C55.5351558,71.0080431 43.6210933,66.3217155 37.664062,63.9785517 C31.7070308,66.3217155 19.7929683,71.0080431 13.835937,73.3512069 C12.1269527,74.0134052 8.70898425,75.3378017 7,76 C7.73242175,74.2680965 9.19726525,70.8042895 9.929687,69.072386 C16.179687,53.5871312 28.679687,22.6166216 34.929687,7.13136682 C35.6132808,5.34852511 36.9804683,1.7828417 37.664062,0 Z M37.5,17.5434519 C32.875,29.0451843 23.625,52.048649 19,63.5503814 C23.344697,61.8446159 32.0340909,58.4330849 36.3787879,56.7273193 C36.6590909,56.6298473 37.219697,56.4349032 37.5,56.3374311 C37.780303,56.4349032 38.3409091,56.6298473 38.6212121,56.7273193 C42.9659091,58.4330849 51.655303,61.8446159 56,63.5503814 C51.375,52.048649 42.125,29.0451843 37.5,17.5434519 Z" id="location-arrow" fill="#000000" fill-rule="nonzero"></path>
    </g>
</svg>