<?xml version="1.0" encoding="UTF-8"?>
<svg width="76px" height="71px" viewBox="0 0 76 71" version="1.1" xmlns="http://www.w3.org/2000/svg" xmlns:xlink="http://www.w3.org/1999/xlink">
    <!-- Generator: Sketch 48.1 (47250) - http://www.bohemiancoding.com/sketch -->
    <title>low-vision</title>
    <desc>Created with Sketch.</desc>
    <defs></defs>
    <g id="low-vision---f2a8" stroke="none" stroke-width="1" fill="none" fill-rule="evenodd" transform="translate(0.000000, -2.000000)">
        <path d="M18.5118975,55.3883504 L4.96907364,35.9524032 C6.15786879,34.8287688 7.32906755,33.7503836 8.18750546,33.0236563 L25.9002376,58.4440362 C25.4023265,58.27875 24.9044153,58.1036376 24.4065041,57.9186992 C22.2803875,57.1289988 20.3155186,56.2855492 18.5118975,55.3883504 Z M14.4730196,53.0903261 C12.0985362,51.4625039 9.92595781,49.8795495 7.95528436,48.341463 C5.84417311,46.6937665 0.386178862,41.1585366 3.55271368e-15,40.7723577 C0.197396548,40.5749612 1.72667139,39.0591395 3.50474347,37.3492342 L14.4730196,53.0903261 Z M28.9593064,59.3358899 L9.74002468,31.7533895 C10.8847376,30.8469819 12.044395,29.9953711 13.2189971,29.1985568 L34.935425,60.3648298 C32.9433844,60.1791279 30.9513454,59.8361487 28.9593064,59.3358899 Z M55.4629655,56.2935319 L64.672648,69.1042237 L59.818546,72.6309352 L40.2389495,45.3956668 C39.5383159,45.6088537 38.7919994,45.7154472 38,45.7154472 C35.9403794,45.7154472 34.1897019,44.9945799 32.7479675,43.5528455 C31.3062331,42.1111111 30.5853659,40.3604336 30.5853659,38.300813 C30.5853659,36.6405385 31.0537914,35.1810178 31.9906426,33.922251 L12.0600617,6.19876235 L16.9141637,2.67205084 L30.6649167,21.7993832 C33.1509386,21.2664611 35.5959664,21 38,21 C41.8102978,21 45.6720863,21.6178862 49.5853655,22.8536585 C53.4986446,24.0894309 56.8970186,25.6341463 59.7804874,27.4878049 C62.6639562,29.2384826 65.238482,30.9891602 67.5040646,32.7398374 C69.7696473,34.4905146 75.6138211,40.3861789 76,40.7723577 C75.6138211,41.1585366 70.490515,46.230352 68.1219516,48.1869919 C65.7533877,50.1436317 63.3333333,51.8943092 60.8617886,53.4390244 C59.3067724,54.4109094 57.5071647,55.3624119 55.4629655,56.2935319 Z M33.8488775,26.2282806 L37.2230254,30.9217289 C37.4769383,30.8980289 37.7359299,30.8861789 38,30.8861789 C40.0596206,30.8861789 41.8102981,31.6070461 43.2520325,33.0487805 C44.6937669,34.4905149 45.4146341,36.2411924 45.4146341,38.300813 C45.4146341,39.4305583 45.1977429,40.4673503 44.7639605,41.4111889 L50.8752855,49.9120575 C50.8829869,49.9034409 50.8906831,49.8948149 50.8983742,49.8861793 C53.8333334,46.5907863 55.300813,42.7289976 55.300813,38.300813 C55.300813,35.1084008 54.4769648,32.121951 52.8292683,29.3414634 C47.7831981,27.0758808 42.8401087,25.9430894 38,25.9430894 C36.6286921,25.9430894 35.2449846,26.0381532 33.8488775,26.2282806 Z M28.3010749,47.3451997 C30.6372706,50.0366152 34.0211347,51.7941426 37.817955,51.9830699 L43.6113673,60.0417211 C42.6677408,60.1931876 41.7241143,60.309362 40.7804878,60.3902443 C39.9566396,60.4932251 39.0298103,60.5447154 38,60.5447154 C37.8289698,60.5447154 37.6607801,60.5432952 37.4954308,60.5404548 L28.3010749,47.3451997 Z M26.6575624,44.9865171 L14.8948263,28.1052581 C15.359847,27.8138191 15.8271539,27.5307655 16.2967478,27.2560974 C17.1441165,26.7604666 18.0485757,26.2822112 19.0101253,25.8213311 L25.4996836,34.8483232 C25.1741108,36.0097837 25,37.234559 25,38.5 C25,40.8509356 25.6009294,43.0615166 26.6575624,44.9865171 Z M59.6260163,33.2032524 C60.0379404,34.9539297 60.2439024,36.6531165 60.2439024,38.300813 C60.2439024,42.6260163 59.1111111,46.5392954 56.8455285,50.0406504 C61.1707317,47.5691057 65.1869919,44.4796748 68.8943089,40.7723577 C66.1138209,37.9918697 63.02439,35.4688346 59.6260163,33.2032524 Z" id="low-vision" fill="#000000"></path>
    </g>
</svg>