<?xml version="1.0" encoding="UTF-8"?>
<svg width="76px" height="76px" viewBox="0 0 76 76" version="1.1" xmlns="http://www.w3.org/2000/svg" xmlns:xlink="http://www.w3.org/1999/xlink">
    <!-- Generator: Sketch 48.1 (47250) - http://www.bohemiancoding.com/sketch -->
    <title>magic</title>
    <desc>Created with Sketch.</desc>
    <defs></defs>
    <g id="magic---f0d0" stroke="none" stroke-width="1" fill="none" fill-rule="evenodd">
        <path d="M52.0092164,0 C52.534562,0.481566927 53.5852533,1.44470078 54.1105989,1.92626771 C55.3364053,3.23963175 57.7880182,5.86635983 59.0138246,7.17972387 C60.7649767,7.17972387 64.2672808,7.17972387 66.0184328,7.17972387 C66.7188937,7.17972387 68.1198153,7.17972387 68.8202761,7.17972387 C68.8202761,7.88018469 68.8202761,9.28110633 68.8202761,9.98156715 C68.8202761,11.7327192 68.8202761,15.2350233 68.8202761,16.9861754 C70.1336402,18.2119818 72.7603683,20.6635947 74.0737323,21.8894011 C74.5552992,22.4147467 75.5184331,23.465438 76,23.9907836 C75.4746544,24.4723503 74.4239632,25.4354837 73.8986175,25.9170504 C72.6290322,27.0990781 70.0898615,29.4631336 68.8202761,30.6451614 C68.8202761,32.483871 68.8202761,36.1612903 68.8202761,38 C68.8202761,38.7004608 68.8202761,40.1013825 68.8202761,40.8018433 C68.1198153,40.8018433 66.7188937,40.8018433 66.0184328,40.8018433 C64.2672808,40.8018433 60.7649767,40.8018433 59.0138246,40.8018433 C57.7880182,41.9838708 55.3364053,44.3479259 54.1105989,45.5299534 C53.5852533,46.0115203 52.534562,46.9746542 52.0092164,47.4562211 C51.5276497,46.9746542 50.5645163,46.0115203 50.0829496,45.5299534 C49.0322584,44.4792621 46.9308759,42.3778797 45.8801847,41.3271885 C37.6935487,49.5138244 21.3202768,65.8870963 13.1336408,74.0737323 C12.6520739,74.5552992 11.6889401,75.5184331 11.2073731,76 C10.7258064,75.5184331 9.76267303,74.5552992 9.28110633,74.0737323 C7.44239667,72.2350226 3.76497736,68.5576033 1.92626771,66.7188937 C1.44470078,66.2811057 0.481566927,65.4055296 0,64.9677416 C0.481566927,64.442396 1.44470078,63.3917048 1.92626771,62.8663592 C10.1129037,54.6797232 26.4861756,38.3064513 34.6728115,30.1198153 C33.6221203,29.0691241 31.5207379,26.9677416 30.4700466,25.9170504 C29.9884797,25.4354837 29.0253458,24.4723503 28.5437789,23.9907836 C29.0253458,23.465438 29.9884797,22.4147467 30.4700466,21.8894011 C31.6520741,20.6635947 34.0161292,18.2119818 35.1981567,16.9861754 C35.1981567,15.2350233 35.1981567,11.7327192 35.1981567,9.98156715 C35.1981567,9.28110633 35.1981567,7.88018469 35.1981567,7.17972387 C35.8986175,7.17972387 37.2995392,7.17972387 38,7.17972387 C39.8387097,7.17972387 43.516129,7.17972387 45.3548386,7.17972387 C46.5368664,5.91013852 48.9009219,3.37096781 50.0829496,2.10138246 C50.5645163,1.57603685 51.5276497,0.525345616 52.0092164,0 Z M52.0092164,8.05530034 C51.1336404,8.97465506 49.3824883,10.8133645 48.5069123,11.7327192 C48.3317971,11.995392 47.9815667,12.5207376 47.8064515,12.7834104 C47.4562211,12.7834104 46.7557603,12.7834104 46.4055299,12.7834104 C45.0046082,12.7834104 42.2027649,12.7834104 40.8018433,12.7834104 C40.8018433,14.0967745 40.8018433,16.7235026 40.8018433,18.0368666 C40.8018433,18.2995394 40.8018433,18.824885 40.8018433,19.0875578 C40.6267281,19.3064519 40.2764977,19.7442402 40.1013825,19.9631343 C39.1382488,20.9700466 37.2119816,22.9838713 36.2488479,23.9907836 C36.8617512,24.5599081 38.0875576,25.6981572 38.7004608,26.2672817 C41.3709678,23.5967747 46.7119818,18.2557607 49.3824888,15.5852537 C49.8640555,15.0599081 50.8271889,14.0092169 51.3087556,13.4838713 C51.8341012,14.0092169 52.8847925,15.0599081 53.4101381,15.5852537 C55.1612901,17.3364058 58.6635942,20.8387099 60.4147463,22.5898619 C60.9400919,23.1152075 61.9907831,24.1658988 62.5161287,24.6912444 C61.9907831,25.21659 60.9400919,26.2672812 60.4147463,26.7926269 C57.7880182,29.4193549 52.534562,34.6728111 49.907834,37.2995392 C50.4331796,37.9124424 51.4838708,39.1382488 52.0092164,39.7511521 C53.0161287,38.7880184 55.0299534,36.8617512 56.0368657,35.8986175 C56.2557598,35.7235023 56.6935481,35.3732719 56.9124422,35.1981567 C57.175115,35.1981567 57.7004606,35.1981567 57.9631334,35.1981567 C59.2764974,35.1981567 61.9032255,35.1981567 63.2165896,35.1981567 C63.2165896,33.7972351 63.2165896,30.9953918 63.2165896,29.5944701 C63.2165896,29.2442397 63.2165896,28.5437789 63.2165896,28.1935485 C63.4792624,28.0184333 64.004608,27.6682029 64.2672808,27.4930877 C65.1866355,26.6175117 67.0253449,24.8663596 67.9446997,23.9907836 C66.9815663,23.0276499 65.0552994,21.1013827 64.092166,20.1382491 C63.8732719,19.8755763 63.4354837,19.3502306 63.2165896,19.0875578 C63.2165896,18.824885 63.2165896,18.2995394 63.2165896,18.0368666 C63.2165896,16.7235026 63.2165896,14.0967745 63.2165896,12.7834104 C61.9032255,12.7834104 59.2764974,12.7834104 57.9631334,12.7834104 C57.7004606,12.7834104 57.175115,12.7834104 56.9124422,12.7834104 C56.6497694,12.5645163 56.1244237,12.1267281 55.8617509,11.907834 C54.8986173,10.9447006 52.9723501,9.01843375 52.0092164,8.05530034 Z M51.3087556,21.5391707 C40.4516129,32.3963134 18.7373274,54.1105989 7.88018469,64.9677416 C8.7119818,65.75576 10.375576,67.3317969 11.2073731,68.1198153 C22.0207372,57.2626726 43.6474653,35.5483871 54.4608293,24.6912444 C53.6728109,23.903226 52.096774,22.3271891 51.3087556,21.5391707 Z M46.7557603,51.658986 C48.1566819,51.658986 50.9585252,51.658986 52.3594468,51.658986 C52.3594468,52.3594468 52.3594468,53.7603685 52.3594468,54.4608293 C53.0599077,54.4608293 54.4608293,54.4608293 55.1612901,54.4608293 C55.1612901,55.8617509 55.1612901,58.6635942 55.1612901,60.0645159 C54.4608293,60.0645159 53.0599077,60.0645159 52.3594468,60.0645159 C52.3594468,60.7649767 52.3594468,62.1658983 52.3594468,62.8663592 C50.9585252,62.8663592 48.1566819,62.8663592 46.7557603,62.8663592 C46.7557603,62.1658983 46.7557603,60.7649767 46.7557603,60.0645159 C46.0552994,60.0645159 44.6543778,60.0645159 43.953917,60.0645159 C43.953917,58.6635942 43.953917,55.8617509 43.953917,54.4608293 C44.6543778,54.4608293 46.0552994,54.4608293 46.7557603,54.4608293 C46.7557603,53.7603685 46.7557603,52.3594468 46.7557603,51.658986 Z M63.56682,57.2626726 C64.9677416,57.2626726 67.7695849,57.2626726 69.1705065,57.2626726 C69.1705065,58.6635942 69.1705065,61.4654375 69.1705065,62.8663592 C70.5714282,62.8663592 73.3732715,62.8663592 74.7741931,62.8663592 C74.7741931,64.2672808 74.7741931,67.0691241 74.7741931,68.4700457 C73.3732715,68.4700457 70.5714282,68.4700457 69.1705065,68.4700457 C69.1705065,69.8709674 69.1705065,72.6728107 69.1705065,74.0737323 C67.7695849,74.0737323 64.9677416,74.0737323 63.56682,74.0737323 C63.56682,72.6728107 63.56682,69.8709674 63.56682,68.4700457 C62.1658983,68.4700457 59.364055,68.4700457 57.9631334,68.4700457 C57.9631334,67.0691241 57.9631334,64.2672808 57.9631334,62.8663592 C59.364055,62.8663592 62.1658983,62.8663592 63.56682,62.8663592 C63.56682,61.4654375 63.56682,58.6635942 63.56682,57.2626726 Z" id="magic" fill="#000000" fill-rule="nonzero"></path>
    </g>
</svg>