<?xml version="1.0" encoding="UTF-8"?>
<svg width="76px" height="76px" viewBox="0 0 76 76" version="1.1" xmlns="http://www.w3.org/2000/svg" xmlns:xlink="http://www.w3.org/1999/xlink">
    <!-- Generator: Sketch 48.1 (47250) - http://www.bohemiancoding.com/sketch -->
    <title>magnet</title>
    <desc>Created with Sketch.</desc>
    <defs></defs>
    <g id="magnet---f076" stroke="none" stroke-width="1" fill="none" fill-rule="evenodd">
        <path d="M11.0113642,64.7727273 C3.67045473,57.4318178 0,48.5075754 0,38 C0,26.4848485 0,12.0909091 0,3.45454545 C0,2.59090909 0,0.863636364 0,0 C0.863636364,0 2.59090909,0 3.45454545,0 C8.63636364,0 19,0 24.1818182,0 C25.0454545,0 26.7727273,0 27.6363636,0 C27.6363636,0.863636364 27.6363636,2.59090909 27.6363636,3.45454545 C27.6363636,12.0909091 27.6363636,29.3636364 27.6363636,38 C27.6363636,40.8787879 28.6439394,43.3257576 30.6590909,45.3409091 C32.6742424,47.3560606 35.1212121,48.3636364 38,48.3636364 C40.8787879,48.3636364 43.3257576,47.3560606 45.3409091,45.3409091 C47.3560606,43.3257576 48.3636364,40.8787879 48.3636364,38 C48.3636364,26.4848485 48.3636364,12.0909091 48.3636364,3.45454545 C48.3636364,2.59090909 48.3636364,0.863636364 48.3636364,0 C49.2272727,0 50.9545455,0 51.8181818,0 C57,0 67.3636364,0 72.5454545,0 C73.4090909,0 75.1363636,0 76,0 C76,0.863636364 76,2.59090909 76,3.45454545 C76,12.0909091 76,29.3636364 76,38 C76,48.5075754 72.2935605,57.4678026 64.8806815,64.8806815 C57.4678026,72.2935605 48.5075754,76 38,76 C27.4924246,76 18.4962127,72.2575758 11.0113642,64.7727273 Z M60.6666667,60.7613636 C66.8888889,54.6022727 70,47.1233766 70,38.3246753 C70,34.4141414 70,28.6392496 70,21 L55,21 C55,29.6168831 55,35.3917749 55,38.3246753 C55,43.1639607 52.5834961,55.9220779 38,55.9220779 C23.4165039,55.9220779 21,43.1639607 21,38.3246753 C21,34.4141414 21,28.6392496 21,21 L6,21 C6,29.6168831 6,35.3917749 6,38.3246753 C6,47.1233766 9.11111111,54.6022727 15.3333333,60.7613636 C21.5555556,66.9204545 29.1111111,70 38,70 C46.8888889,70 54.4444444,66.9204545 60.6666667,60.7613636 Z M21,14 L21,6 L6,6 L6,14 L21,14 Z M70,14 L70,6 L55,6 L55,14 L70,14 Z" id="magnet" fill="#000000" fill-rule="nonzero"></path>
    </g>
</svg>