<?xml version="1.0" encoding="UTF-8"?>
<svg width="64px" height="76px" viewBox="0 0 64 76" version="1.1" xmlns="http://www.w3.org/2000/svg" xmlns:xlink="http://www.w3.org/1999/xlink">
    <!-- Generator: Sketch 48.1 (47250) - http://www.bohemiancoding.com/sketch -->
    <title>male</title>
    <desc>Created with Sketch.</desc>
    <defs></defs>
    <g id="male---f183" stroke="none" stroke-width="1" fill="none" fill-rule="evenodd" transform="translate(-6.000000, 0.000000)">
        <path d="M44,0 C44.4947917,0 45.484375,0 45.9791667,0 C46.1770833,0.445312373 46.5729167,1.33593712 46.7708333,1.78124949 C47.4140626,3.01822879 48.7005212,5.49218737 49.3437505,6.72916667 C54.0937505,7.25694444 57.854167,9.10416667 60.625,12.2708333 C64.3194444,16.6250003 66.1666667,23.0902781 66.1666667,31.6666667 C66.1666667,32.5902778 66.1666667,33.7447917 66.1666667,34.4375 C68.2777778,36.5486111 69.3333333,38.7916667 69.3333333,41.1666667 C69.3333333,44.9930552 67.2222222,47.7638886 63,49.4791667 C61.6805556,53.5694441 60.3611111,57.1319441 59.0416667,60.1666667 C57.1944444,64.520833 55.6111111,67.4236108 54.2916667,68.875 C49.8055556,73.625 44.2638889,76 37.6666667,76 C31.0694444,76 25.5277778,73.625 21.0416667,68.875 C19.5902774,67.2916667 18.0069441,64.3888889 16.2916667,60.1666667 C15.104167,57.6597219 13.7847226,54.0972219 12.3333333,49.4791667 C8.11111111,47.7638886 6,44.9930552 6,41.1666667 C6,38.7916667 7.05555556,36.5486111 9.16666667,34.4375 C9.16666667,33.5138889 9.16666667,32.359375 9.16666667,31.6666667 C9.16666667,21.5069448 12.0034724,13.7222226 17.6770838,8.3125 C23.4826394,2.77083333 32.2569448,0 44,0 Z M42.0208333,6.53124949 C32.7847222,6.79513906 26.1215276,8.90625017 22.0312495,12.8645828 C17.6770832,16.9548609 15.5,23.2222222 15.5,31.6666667 C15.5,32.9861111 15.5,34.6354167 15.5,35.625 C15.5,36.1197917 15.5,37.109375 15.5,37.6041667 C15.1041667,37.8020833 14.3125,38.1979167 13.9166667,38.3958333 C12.8611111,39.0555559 12.3333333,39.979167 12.3333333,41.1666667 C12.3333333,43.1458337 13.2569444,44.2013892 15.1041667,44.3333333 C15.8958333,44.3333333 16.8854167,44.3333333 17.4791667,44.3333333 C17.578125,44.8776043 17.7760417,45.9661462 17.875,46.5104172 C19.1944444,50.4687498 20.5798609,54.2291663 22.0312495,57.7916667 C23.6145828,61.354167 24.8020832,63.5972226 25.5937505,64.5208333 C29.0243054,68.083333 33.0486108,69.8645828 37.6666667,69.8645828 C42.2847226,69.8645828 46.3090279,68.083333 49.7395828,64.5208333 C50.5312502,63.5972226 51.7187505,61.354167 53.3020838,57.7916667 C54.7534724,54.2291663 56.1388889,50.4687498 57.4583333,46.5104172 C57.5902778,45.7847226 57.7552083,44.8776043 57.8541667,44.3333333 C58.4479167,44.3333333 59.6354167,44.3333333 60.2291667,44.3333333 C62.0763889,44.2013892 63,43.1458337 63,41.1666667 C63,39.979167 62.4722222,39.0555559 61.4166667,38.3958333 C60.8888889,38.1319444 60.2291667,37.8020833 59.8333333,37.6041667 C59.8333333,37.109375 59.8333333,36.1197917 59.8333333,35.625 C59.8333333,34.6354167 59.8333333,32.65625 59.8333333,31.6666667 C59.8333333,24.6736114 58.4479168,19.5277781 55.6770838,16.2291667 C54.6215283,15.0416663 53.3680559,14.1180552 51.9166667,13.4583333 C52.0486108,14.3819448 52.1145828,14.9097226 52.1145828,15.0416667 C52.1145828,17.2847219 51.3229162,19.1319441 49.7395828,20.5833333 C49.211805,20.979167 48.6840273,21.3090283 48.1562495,21.5729172 C47.6284717,21.8368061 47.1006939,22.0347226 46.5729162,22.1666667 C46.1770832,22.2986108 45.6163195,22.4305552 44.8906253,22.5625 C44.164931,22.6944448 43.604167,22.7604172 43.2083333,22.7604172 C42.9444444,22.7604172 42.3506944,22.7934032 41.4270833,22.8593753 C40.5034722,22.9253473 39.9756946,22.9583333 39.8437505,22.9583333 C35.3576387,23.2222222 32.3888886,23.6180556 30.9375,24.1458333 C29.0902778,24.8055559 28.1666667,26.2569448 28.1666667,28.5 C26.0555556,28.5 23.4166667,28.5 21.8333333,28.5 C21.8333333,25.9930552 22.4930556,23.8489579 23.8125,22.0677081 C25.1319444,20.2864582 26.7152778,19 28.5625,18.2083333 C30.5416663,17.5486114 34.1701384,17.0208337 39.4479162,16.625 C43.0104165,16.4930559 45.0555556,16.163195 45.5833333,15.6354172 C45.7152774,15.6354172 45.7812495,15.4375003 45.7812495,15.0416667 C45.7812495,14.25 45.3194441,12.8645835 44.3958333,10.8854172 C43.6041667,9.43402795 42.6145833,7.61979141 42.0208333,6.53124949 Z M28.1666667,38 C29.0902781,38 29.8489588,38.2968749 30.4427086,38.8906247 C31.0364584,39.4843746 31.3333333,40.2430552 31.3333333,41.1666667 C31.3333333,42.0902781 31.0364584,42.8489588 30.4427086,43.4427086 C29.8489588,44.0364584 29.0902781,44.3333333 28.1666667,44.3333333 C27.2430552,44.3333333 26.4843746,44.0364584 25.8906247,43.4427086 C25.2968749,42.8489588 25,42.0902781 25,41.1666667 C25,40.2430552 25.2968749,39.4843746 25.8906247,38.8906247 C26.4843746,38.2968749 27.2430552,38 28.1666667,38 Z M47.1666667,38 C48.0902781,38 48.8489588,38.2968749 49.4427086,38.8906247 C50.0364584,39.4843746 50.3333333,40.2430552 50.3333333,41.1666667 C50.3333333,42.0902781 50.0364584,42.8489588 49.4427086,43.4427086 C48.8489588,44.0364584 48.0902781,44.3333333 47.1666667,44.3333333 C46.2430552,44.3333333 45.4843746,44.0364584 44.8906247,43.4427086 C44.2968749,42.8489588 44,42.0902781 44,41.1666667 C44,40.2430552 44.2968749,39.4843746 44.8906247,38.8906247 C45.4843746,38.2968749 46.2430552,38 47.1666667,38 Z" id="male" fill="#000000" fill-rule="nonzero"></path>
    </g>
</svg>