<?xml version="1.0" encoding="UTF-8"?>
<svg width="44px" height="76px" viewBox="0 0 44 76" version="1.1" xmlns="http://www.w3.org/2000/svg" xmlns:xlink="http://www.w3.org/1999/xlink">
    <!-- Generator: Sketch 48.1 (47250) - http://www.bohemiancoding.com/sketch -->
    <title>map-pin</title>
    <desc>Created with Sketch.</desc>
    <defs></defs>
    <g id="map-pin---f276" stroke="none" stroke-width="1" fill="none" fill-rule="evenodd" transform="translate(-16.000000, 0.000000)">
        <path d="M37.875,0 C43.8645833,0 49.0078125,2.1484375 53.3046875,6.4453125 C57.6015625,10.7421875 59.75,15.8854167 59.75,21.875 C59.75,27.34375 57.9596353,32.1289062 54.378906,36.2304685 C50.7981767,40.3320308 46.3385413,42.708333 41,43.359375 C41,49.6961806 41,60.5763889 41,76 L34.75,76 C34.75,58.9921875 34.75,48.1119792 34.75,43.359375 C29.4114587,42.708333 24.9518233,40.3320308 21.371094,36.2304685 C17.7903647,32.1289062 16,27.34375 16,21.875 C16,15.8854167 18.1484373,10.7421873 22.445312,6.445312 C26.7421873,2.14843733 31.8854167,0 37.875,0 Z M37.875,6.25 C33.5781253,6.25 29.89974,7.779948 26.839844,10.839844 C23.779948,13.89974 22.25,17.5781253 22.25,21.875 C22.25,26.1718747 23.779948,29.85026 26.839844,32.910156 C29.89974,35.970052 33.5781253,37.5 37.875,37.5 C42.1718747,37.5 45.85026,35.970052 48.910156,32.910156 C51.970052,29.85026 53.5,26.1718747 53.5,21.875 C53.5,17.5781253 51.970052,13.89974 48.910156,10.839844 C45.85026,7.779948 42.1718747,6.25 37.875,6.25 Z M37.875,9.375 C37.875,10.9375 37.875,14.0625 37.875,15.625 C36.182292,15.625 34.7174483,16.2434897 33.480469,17.480469 C32.2434897,18.7174483 31.625,20.182292 31.625,21.875 C29.5416667,21.875 26.9375,21.875 25.375,21.875 C25.375,18.4895833 26.6119792,15.5598958 29.0859375,13.0859375 C31.5598958,10.6119792 34.4895833,9.375 37.875,9.375 Z" id="map-pin" fill="#000000" fill-rule="nonzero"></path>
    </g>
</svg>