<?xml version="1.0" encoding="UTF-8"?>
<svg width="70px" height="76px" viewBox="0 0 70 76" version="1.1" xmlns="http://www.w3.org/2000/svg" xmlns:xlink="http://www.w3.org/1999/xlink">
    <!-- Generator: Sketch 48.1 (47250) - http://www.bohemiancoding.com/sketch -->
    <title>map-o</title>
    <desc>Created with Sketch.</desc>
    <defs></defs>
    <g id="map-o---f278" stroke="none" stroke-width="1" fill="none" fill-rule="evenodd" transform="translate(-3.000000, 0.000000)">
        <path d="M9.82203025,7.76950447 C5.77934566,9.77453788 3,14.0352339 3,18.5465591 L3.0360954,64.2204287 C3.0360954,70.7367873 8.59478671,76 15.1641492,76 L60.6443508,76 C67.2137133,76 72.5197368,70.7367873 72.5197368,64.2204287 L72.4836414,18.5465591 C72.4836414,12.0302005 67.1776179,6.51635859 60.6082554,6.51635859 L36.6048157,6.51635859 C33.5728022,2.25566259 28.7721143,0 23.4660907,0 C17.9073994,0 12.6013759,2.75692094 9.82203025,7.76950447 Z M8.99183609,20.8450924 C10.977083,24.196708 12.9502981,27.3400156 14.9114814,30.2750152 C17.8532563,34.6775145 20.8240645,39.1813063 23.3272019,42.1864966 C24.0781431,42.9377941 25.308119,42.8827904 25.8303393,42.1864966 C27.3192745,40.2012497 27.8155862,39.2086262 28.8082097,37.7196911 C30.107644,39.3311927 31.4311419,40.9855651 32.7787035,42.6828083 L8.99183609,64.0885186 C8.99183609,39.5609361 8.99183609,25.1464607 8.99183609,20.8450924 Z M15.8218139,70.0442593 C14.0369131,70.0442593 12.2520122,69.5436318 10.977083,68.5423769 L35.7565738,45.6606786 C51.0008636,61.9163991 58.6230085,70.0442593 58.6230085,70.0442593 C58.6230085,70.0442593 44.3559437,70.0442593 15.8218139,70.0442593 Z M66.5639961,64.2759668 C66.5639961,66.0354238 66.0906922,67.5435298 65.1440844,69.0516359 L31.78608,32.7565738 C38.0726952,23.1612138 40.5542538,16.3997223 39.2307559,12.4720993 L58.6230085,12.4720993 C62.8827436,12.4720993 66.6691748,16.2423643 66.6691748,21.0180333 L66.5639961,64.2759668 Z M35.7565738,15.2998351 C35.7565738,20.4719257 28.0753979,31.554977 23.8631401,36.7270676 C21.6331213,33.7715873 18.1642031,29.0920767 15.4386246,24.4125662 C13.4563856,20.9645058 11.9697064,17.5164454 11.9697064,15.2998351 C11.9697064,8.65000434 17.6686434,3.9704938 23.8631401,3.9704938 C30.3054167,3.9704938 35.7565738,8.89629437 35.7565738,15.2998351 Z M23.7711828,8.51965318 C20.031012,8.51965318 16.9508714,11.5997938 16.9508714,15.3399646 C16.9508714,19.3001454 20.031012,22.3802861 23.7711828,22.3802861 C27.7313636,22.3802861 30.8115043,19.3001454 30.8115043,15.3399646 C30.8115043,11.5997938 27.7313636,8.51965318 23.7711828,8.51965318 Z M23.7229848,11.9114814 C25.6009211,11.9114814 27.2910637,13.4138304 27.2910637,15.2917666 C27.2910637,17.1697029 25.6009211,18.8598455 23.7229848,18.8598455 C21.8450486,18.8598455 20.3426996,17.1697029 20.3426996,15.2917666 C20.3426996,13.4138304 21.8450486,11.9114814 23.7229848,11.9114814 Z" id="map-o" fill="#000000" fill-rule="nonzero"></path>
    </g>
</svg>