<?xml version="1.0" encoding="UTF-8"?>
<svg width="53px" height="76px" viewBox="0 0 53 76" version="1.1" xmlns="http://www.w3.org/2000/svg" xmlns:xlink="http://www.w3.org/1999/xlink">
    <!-- Generator: Sketch 48.1 (47250) - http://www.bohemiancoding.com/sketch -->
    <title>map-marker</title>
    <desc>Created with Sketch.</desc>
    <defs></defs>
    <g id="map-marker---f041" stroke="none" stroke-width="1" fill="none" fill-rule="evenodd" transform="translate(-12.000000, 0.000000)">
        <path d="M38.5,0 C45.8611111,0 52.1180556,2.48598131 57.2708333,7.45794393 C62.4236111,12.4299065 65,18.4672897 65,25.5700935 C65,28.8847352 63.650463,33.3831776 60.9513889,39.0654206 C58.9884259,43.6822433 56.2893519,48.772586 52.8541667,54.3364486 C51.1365741,57.2959505 49.2656251,60.3146422 47.2413197,63.3925238 C45.2170143,66.4704054 43.6527781,68.7788165 42.5486111,70.317757 C41.9965276,71.0872273 41.3064233,72.0490651 40.8923606,72.6261678 C40.2942705,73.4696258 39.0980902,75.1565419 38.5,76 C37.9019098,75.1565419 36.7057295,73.4696258 36.1076394,72.6261678 C32.0590279,67.0623051 28.0717593,60.9657321 24.1458333,54.3364486 C20.7106481,48.772586 18.0115741,43.6822433 16.0486111,39.0654206 C13.349537,33.3831776 12,28.8847352 12,25.5700935 C12,18.4672897 14.5763889,12.4299065 19.7291667,7.45794393 C24.8819444,2.48598131 31.1388889,0 38.5,0 Z M38.5700935,6 C33.035687,6 28.3549923,7.91349142 24.5280095,11.7404743 C20.7010267,15.5674571 18.7875353,20.2481517 18.7875353,25.7825582 C18.7875353,28.2553777 19.8473152,32.023484 21.966875,37.0868772 C23.7331745,40.9727365 26.3237476,45.8006228 29.7385943,51.5705359 C32.6824276,56.6339284 35.6262607,61.3440613 38.5700935,65.7009346 C41.5139262,61.3440613 44.4577593,56.6339284 47.4015927,51.5705359 C50.8164393,45.8006228 53.4070124,40.9727365 55.173312,37.0868772 C57.2928718,32.023484 58.3526517,28.2553777 58.3526517,25.7825582 C58.3526517,20.2481517 56.409722,15.5968953 52.5238626,11.828789 C48.7557563,7.94292967 44.1044999,6 38.5700935,6 Z M38.5700935,19.8878505 C40.109034,19.8878505 41.4408096,20.4501558 42.5654203,21.5747666 C43.6900311,22.6993773 44.2523364,24.031153 44.2523364,25.5700935 C44.2523364,27.109034 43.6900311,28.4408096 42.5654203,29.5654203 C41.4408096,30.6900311 40.109034,31.2523364 38.5700935,31.2523364 C37.031153,31.2523364 35.6993773,30.6900311 34.5747666,29.5654203 C33.4501558,28.4408096 32.8878505,27.109034 32.8878505,25.5700935 C32.8878505,24.031153 33.4501558,22.6993773 34.5747666,21.5747666 C35.6993773,20.4501558 37.031153,19.8878505 38.5700935,19.8878505 Z" id="map-marker" fill="#000000" fill-rule="nonzero"></path>
    </g>
</svg>