<?xml version="1.0" encoding="UTF-8"?>
<svg width="76px" height="72px" viewBox="0 0 76 72" version="1.1" xmlns="http://www.w3.org/2000/svg" xmlns:xlink="http://www.w3.org/1999/xlink">
    <!-- Generator: Sketch 48.1 (47250) - http://www.bohemiancoding.com/sketch -->
    <title>map</title>
    <desc>Created with Sketch.</desc>
    <defs></defs>
    <g id="map---f279" stroke="none" stroke-width="1" fill="none" fill-rule="evenodd">
        <path d="M76,0 L76,59.765625 L50.6666667,70.507812 L25.3333333,61.132812 L0,71.875 L0,12.109375 L25.3333333,1.367188 L50.6666667,10.742188 L76,0 Z M28,9.179688 C28,20.8007815 28,44.0429685 28,55.664062 C33,57.4218745 43,60.9374995 48,62.695312 C48,51.0742185 48,27.8320315 48,16.210938 C43,14.4531255 33,10.9375005 28,9.179688 Z M22.0453491,9.375 C18.0427399,11.0351562 10.0375214,14.3554687 6.03491211,16.015625 C6.03491211,27.6367188 6.03491211,50.8789062 6.03491211,62.5 C10.0375214,60.8398438 18.0427399,57.5195312 22.0453491,55.859375 C22.0453491,44.2382812 22.0453491,20.9960938 22.0453491,9.375 Z M70.0766602,9.375 C66.0740509,11.0351562 58.0688324,14.3554687 54.0662231,16.015625 C54.0662231,27.6367188 54.0662231,50.8789062 54.0662231,62.5 C58.0688324,60.8398438 66.0740509,57.5195312 70.0766602,55.859375 C70.0766602,44.2382812 70.0766602,20.9960938 70.0766602,9.375 Z" id="map" fill="#000000" fill-rule="nonzero"></path>
    </g>
</svg>