<?xml version="1.0" encoding="UTF-8"?>
<svg width="76px" height="43px" viewBox="0 0 76 43" version="1.1" xmlns="http://www.w3.org/2000/svg" xmlns:xlink="http://www.w3.org/1999/xlink">
    <!-- Generator: Sketch 48.1 (47250) - http://www.bohemiancoding.com/sketch -->
    <title>mars-stroke-h</title>
    <desc>Created with Sketch.</desc>
    <defs></defs>
    <g id="mars-stroke-h---f22b" stroke="none" stroke-width="1" fill="none" fill-rule="evenodd" transform="translate(0.000000, -17.000000)">
        <path d="M21.4273128,17 C26.784141,17 31.4992657,18.8196614 35.572687,22.4589842 C39.6461083,26.0983069 42.017621,30.5494789 42.6872251,35.8125 C43.9148315,35.8125 45.756241,35.8125 48.2114537,35.8125 L48.2114537,27.75 L53.5682819,27.75 L53.5682819,35.8125 L65.7885458,35.8125 L54.2378855,24.390625 L58.2555066,20.359375 L76,38.5 L58.2555066,56.640625 L54.2378855,52.609375 L65.7885458,41.1875 L53.5682819,41.1875 L53.5682819,49.25 L48.2114537,49.25 L48.2114537,41.1875 C45.4493394,41.1875 43.6079299,41.1875 42.6872251,41.1875 C42.017621,46.4505211 39.6461083,50.9016931 35.572687,54.5410158 C31.4992657,58.1803386 26.784141,60 21.4273128,60 C15.5124819,60 10.4625554,57.9003906 6.27753325,53.7011717 C2.09251108,49.5019528 0,44.4348955 0,38.5 C0,32.5651045 2.09251108,27.4980472 6.27753325,23.2988283 C10.4625554,19.0996094 15.5124819,17 21.4273128,17 Z M21.4273128,22.375 C16.9632893,22.375 13.1688693,23.9427083 10.0440529,27.078125 C6.91923642,30.2135417 5.35682819,34.0208333 5.35682819,38.5 C5.35682819,42.9791667 6.91923642,46.7864583 10.0440529,49.921875 C13.1688693,53.0572917 16.9632893,54.625 21.4273128,54.625 C25.8913363,54.625 29.6857562,53.0572917 32.8105727,49.921875 C35.9353891,46.7864583 37.4977974,42.9791667 37.4977974,38.5 C37.4977974,34.0208333 35.9353891,30.2135417 32.8105727,27.078125 C29.6857562,23.9427083 25.8913363,22.375 21.4273128,22.375 Z" id="mars-stroke-h" fill="#000000" fill-rule="nonzero"></path>
    </g>
</svg>