<?xml version="1.0" encoding="UTF-8"?>
<svg width="76px" height="76px" viewBox="0 0 76 76" version="1.1" xmlns="http://www.w3.org/2000/svg" xmlns:xlink="http://www.w3.org/1999/xlink">
    <!-- Generator: Sketch 48.1 (47250) - http://www.bohemiancoding.com/sketch -->
    <title>mars-stroke</title>
    <desc>Created with Sketch.</desc>
    <defs></defs>
    <g id="mars-stroke---f229" stroke="none" stroke-width="1" fill="none" fill-rule="evenodd">
        <path d="M41.1666667,0 L76,0 L76,34.8333333 L69.6666667,34.8333333 L69.6666667,10.8854172 L55.2187505,25.3333333 L62.5416667,32.4583333 L57.7916667,37.2083333 C54.2291667,33.5468753 51.8541667,31.1059032 50.6666667,29.8854172 C49.330729,31.2213545 46.6588538,33.8932293 45.3229162,35.2291667 C48.8854165,39.8472219 50.6666667,44.9930552 50.6666667,50.6666667 C50.6666667,57.6597219 48.1927082,63.6302079 43.2447914,68.5781247 C38.2968746,73.5260416 32.3263886,76 25.3333333,76 C18.3402781,76 12.3697921,73.5260416 7.42187525,68.5781247 C2.47395842,63.6302079 0,57.6597219 0,50.6666667 C0,43.6736114 2.47395842,37.7031254 7.42187525,32.7552086 C12.3697921,27.8072918 18.3402781,25.3333333 25.3333333,25.3333333 C31.0069448,25.3333333 36.1527781,27.1145835 40.7708333,30.6770838 C41.9583332,29.4895837 43.7395831,27.7083336 46.1145828,25.3333333 L38.7916667,18.2083333 L43.5416667,13.4583333 L50.6666667,20.7812495 L65.1145828,6.33333333 L41.1666667,6.33333333 L41.1666667,0 Z M25.3333333,31.6666667 C20.0555556,31.6666667 15.5694444,33.5138889 11.875,37.2083333 C8.18055556,40.9027778 6.33333333,45.3888889 6.33333333,50.6666667 C6.33333333,55.9444444 8.18055556,60.4305556 11.875,64.125 C15.5694444,67.8194444 20.0555556,69.6666667 25.3333333,69.6666667 C30.6111111,69.6666667 35.0972222,67.8194444 38.7916667,64.125 C42.4861111,60.4305556 44.3333333,55.9444444 44.3333333,50.6666667 C44.3333333,45.3888889 42.4861111,40.9027778 38.7916667,37.2083333 C35.0972222,33.5138889 30.6111111,31.6666667 25.3333333,31.6666667 Z" id="mars-stroke" fill="#000000" fill-rule="nonzero"></path>
    </g>
</svg>