<?xml version="1.0" encoding="UTF-8"?>
<svg width="43px" height="76px" viewBox="0 0 43 76" version="1.1" xmlns="http://www.w3.org/2000/svg" xmlns:xlink="http://www.w3.org/1999/xlink">
    <!-- Generator: Sketch 48.1 (47250) - http://www.bohemiancoding.com/sketch -->
    <title>mars-stroke-v</title>
    <desc>Created with Sketch.</desc>
    <defs></defs>
    <g id="mars-stroke-v---f22a" stroke="none" stroke-width="1" fill="none" fill-rule="evenodd" transform="translate(-17.000000, 0.000000)">
        <path d="M38.5,0 L56.640625,17.7444934 L52.609375,21.7621145 L41.1875,10.2114542 L41.1875,22.4317181 L49.25,22.4317181 L49.25,27.7885463 L41.1875,27.7885463 C41.1875,30.5506606 41.1875,32.3920701 41.1875,33.3127749 C46.4505211,33.982379 50.9016931,36.3538917 54.5410158,40.427313 C58.1803386,44.5007343 60,49.215859 60,54.5726872 C60,60.4875181 57.9003906,65.5374446 53.7011717,69.7224667 C49.5019528,73.9074889 44.4348955,76 38.5,76 C32.5651045,76 27.4980472,73.9074889 23.2988283,69.7224667 C19.0996094,65.5374446 17,60.4875181 17,54.5726872 C17,49.215859 18.8196614,44.5007343 22.4589842,40.427313 C26.0983069,36.3538917 30.5494789,33.982379 35.8125,33.3127749 C35.8125,32.0851685 35.8125,30.243759 35.8125,27.7885463 L27.75,27.7885463 L27.75,22.4317181 L35.8125,22.4317181 L35.8125,10.2114542 L24.390625,21.7621145 L20.359375,17.7444934 L38.5,0 Z M38.5,38.5022026 C34.0208333,38.5022026 30.2135417,40.0646109 27.078125,43.1894273 C23.9427083,46.3142438 22.375,50.1086637 22.375,54.5726872 C22.375,59.0367107 23.9427083,62.8311307 27.078125,65.9559471 C30.2135417,69.0807636 34.0208333,70.6431718 38.5,70.6431718 C42.9791667,70.6431718 46.7864583,69.0807636 49.921875,65.9559471 C53.0572917,62.8311307 54.625,59.0367107 54.625,54.5726872 C54.625,50.1086637 53.0572917,46.3142438 49.921875,43.1894273 C46.7864583,40.0646109 42.9791667,38.5022026 38.5,38.5022026 Z" id="mars-stroke-v" fill="#000000" fill-rule="nonzero"></path>
    </g>
</svg>