<?xml version="1.0" encoding="UTF-8"?>
<svg width="76px" height="76px" viewBox="0 0 76 76" version="1.1" xmlns="http://www.w3.org/2000/svg" xmlns:xlink="http://www.w3.org/1999/xlink">
    <!-- Generator: Sketch 48.1 (47250) - http://www.bohemiancoding.com/sketch -->
    <title>mars-double</title>
    <desc>Created with Sketch.</desc>
    <defs></defs>
    <g id="mars-double---f227" stroke="none" stroke-width="1" fill="none" fill-rule="evenodd">
        <path d="M32.1538462,0 L58.4615385,0 L58.4615385,17.5384615 L76,17.5384615 L76,43.8461538 L70.1538462,43.8461538 L70.1538462,27.5865389 C62.2980769,35.5336541 57.0608974,40.8317308 54.4423077,43.4807692 C57.1217949,47.1346154 58.4615385,51.1538462 58.4615385,55.5384615 C58.4615385,61.1410256 56.4519231,65.9519231 52.4326923,69.9711538 C48.4134615,73.9903846 43.6025641,76 38,76 C32.3974359,76 27.5865383,73.9903848 23.5673072,69.9711543 C21.0096152,67.4134617 19.2435897,64.5512821 18.2692308,61.3846154 C19,61.3846154 19.7307692,61.3846154 20.4615385,61.3846154 C21.6794872,61.3846154 23.0192308,61.2628205 24.4807692,61.0192308 C25.2115385,62.8461535 26.3076923,64.4294869 27.7692308,65.7692308 C30.5705131,68.6923077 33.9807695,70.1538462 38,70.1538462 C42.0192305,70.1538462 45.4294869,68.753205 48.2307692,65.9519226 C51.1538462,63.0288457 52.6153846,59.557692 52.6153846,55.5384615 C52.6153846,51.5192311 51.1538462,48.1089747 48.2307692,45.3076923 C45.4294869,42.3846154 42.0192305,40.9230769 38,40.9230769 C33.9807695,40.9230769 30.5705131,42.3846154 27.7692308,45.3076923 C26.7948718,46.1602567 25.9423077,47.2564106 25.2115385,48.5961538 C23.0192308,49.5705128 20.7660255,49.8141026 18.4519226,49.3269231 C19.4262816,46.282051 21.1314098,43.5416662 23.5673072,41.1057688 C27.5865383,37.0865383 32.3974359,35.0769231 38,35.0769231 C42.3846154,35.0769231 46.4038462,36.4166667 50.0576923,39.0961538 C53.5897435,35.6047009 58.8878203,30.3675214 65.9519226,23.3846154 L58.4615385,23.3846154 L52.6153846,23.3846154 L52.6153846,10.0480774 C44.7596154,17.9951925 39.5224359,23.2932693 36.9038462,25.9423077 C38.3653846,28.0128208 39.4615385,30.0833336 40.1923077,32.1538462 C39.4615385,32.1538462 38.7307692,32.1538462 38,32.1538462 C36.7820513,32.1538462 35.4423077,32.275641 33.9807692,32.5192308 C33.25,30.692308 32.1538462,29.1089747 30.6923077,27.7692308 C27.8910253,24.8461538 24.4807689,23.3846154 20.4615385,23.3846154 C16.442308,23.3846154 12.9711543,24.8461538 10.0480774,27.7692308 C7.24679503,30.5705131 5.84615385,33.9807695 5.84615385,38 C5.84615385,42.0192305 7.24679503,45.4903841 10.0480774,48.4134611 C12.9711543,51.2147434 16.442308,52.6153846 20.4615385,52.6153846 C24.4807689,52.6153846 27.8910253,51.1538462 30.6923077,48.2307692 C31.6666667,47.3782048 32.5192308,46.282051 33.25,44.9423077 C35.4423077,43.9679487 37.695513,43.724359 40.0096159,44.2115385 C39.0352569,47.2564106 37.3301287,49.9967953 34.8942312,52.4326928 C30.8750002,56.4519232 26.0641026,58.4615385 20.4615385,58.4615385 C14.8589744,58.4615385 10.0480768,56.4519232 6.02884569,52.4326928 C2.00961523,48.4134617 0,43.6025641 0,38 C0,32.3974359 2.00961523,27.5865383 6.02884569,23.5673072 C10.0480768,19.5480768 14.8589744,17.5384615 20.4615385,17.5384615 C24.8461538,17.5384615 28.8653846,18.8782051 32.5192308,21.5576923 C36.0512819,18.0662393 41.3493587,12.8290598 48.4134611,5.84615385 L32.1538462,5.84615385 L32.1538462,0 Z" id="mars-double" fill="#000000" fill-rule="nonzero"></path>
    </g>
</svg>