<?xml version="1.0" encoding="UTF-8"?>
<svg width="76px" height="61px" viewBox="0 0 76 61" version="1.1" xmlns="http://www.w3.org/2000/svg" xmlns:xlink="http://www.w3.org/1999/xlink">
    <!-- Generator: Sketch 49.3 (51167) - http://www.bohemiancoding.com/sketch -->
    <title>medikit</title>
    <desc>Created with Sketch.</desc>
    <defs></defs>
    <g id="line" stroke="none" stroke-width="1" fill="none" fill-rule="evenodd">
        <g id="medikit--f0fa" transform="translate(0.000000, -8.000000)" fill="#000000" fill-rule="nonzero">
            <path d="M32.1538462,8 C35.0769231,8 40.9230769,8 43.8461538,8 C45.4294869,8 46.7996791,8.57490087 47.9567305,9.72470261 C49.113782,10.8745044 49.6923077,12.2361114 49.6923077,13.8095238 C49.6923077,14.7777778 49.6923077,15.9880952 49.6923077,16.7142857 C54.0769231,16.7142857 62.8461538,16.7142857 67.2307692,16.7142857 C69.6666667,16.7142857 71.7371795,17.5615079 73.4423077,19.2559524 C75.1474359,20.9503968 76,23.0079365 76,25.4285714 C76,38.984127 76,55.9285714 76,66.0952381 C76,66.8214286 76,68.2738095 76,69 C75.2692308,69 73.8076923,69 73.0769231,69 C55.5384615,69 20.4615385,69 2.92307692,69 C2.19230769,69 0.730769231,69 0,69 C0,68.2738095 0,66.8214286 0,66.0952381 C0,55.9285714 0,35.5952381 0,25.4285714 C0,23.0079365 0.852564103,20.9503968 2.55769231,19.2559524 C4.26282051,17.5615079 6.33333333,16.7142857 8.76923077,16.7142857 C14.6153846,16.7142857 21.9230769,16.7142857 26.3076923,16.7142857 C26.3076923,15.9880952 26.3076923,14.5357143 26.3076923,13.8095238 C26.3076923,12.2361114 26.886218,10.8745044 28.0432695,9.72470261 C29.2003209,8.57490087 30.5705131,8 32.1538462,8 Z M32.1538462,13.8095238 C32.1538462,14.5357143 32.1538462,15.9880952 32.1538462,16.7142857 C35.0769231,16.7142857 40.9230769,16.7142857 43.8461538,16.7142857 C43.8461538,15.9880952 43.8461538,14.5357143 43.8461538,13.8095238 C40.9230769,13.8095238 35.0769231,13.8095238 32.1538462,13.8095238 Z M8.90909091,22.5238095 C6.96969697,22.5238095 6,23.4920635 6,25.4285714 C6,38.015873 6,53.75 6,63.1904762 C22,63.1904762 54,63.1904762 70,63.1904762 C70,53.75 70,34.8690476 70,25.4285714 C70,23.4920635 69.030303,22.5238095 67.0909091,22.5238095 C47.6969697,22.5238095 23.4545455,22.5238095 8.90909091,22.5238095 Z M35.0769231,31.2380952 C36.5384615,31.2380952 39.4615385,31.2380952 40.9230769,31.2380952 C40.9230769,33.4166667 40.9230769,37.7738095 40.9230769,39.952381 C43.1153846,39.952381 47.5,39.952381 49.6923077,39.952381 C49.6923077,41.4047619 49.6923077,44.3095238 49.6923077,45.7619048 C47.5,45.7619048 43.1153846,45.7619048 40.9230769,45.7619048 C40.9230769,47.9404762 40.9230769,52.297619 40.9230769,54.4761905 C39.4615385,54.4761905 36.5384615,54.4761905 35.0769231,54.4761905 C35.0769231,52.297619 35.0769231,47.9404762 35.0769231,45.7619048 C32.8846154,45.7619048 28.5,45.7619048 26.3076923,45.7619048 C26.3076923,44.3095238 26.3076923,41.4047619 26.3076923,39.952381 C28.5,39.952381 32.8846154,39.952381 35.0769231,39.952381 C35.0769231,37.7738095 35.0769231,33.4166667 35.0769231,31.2380952 Z" id="medikit"></path>
        </g>
    </g>
</svg>