<?xml version="1.0" encoding="UTF-8"?>
<svg width="76px" height="76px" viewBox="0 0 76 76" version="1.1" xmlns="http://www.w3.org/2000/svg" xmlns:xlink="http://www.w3.org/1999/xlink">
    <!-- Generator: Sketch 48.1 (47250) - http://www.bohemiancoding.com/sketch -->
    <title>meh-o</title>
    <desc>Created with Sketch.</desc>
    <defs></defs>
    <g id="meh-o---f11a" stroke="none" stroke-width="1" fill="none" fill-rule="evenodd">
        <path d="M38,0 C48.4236114,0 57.3628476,3.72743047 64.8177086,11.1822914 C72.2725695,18.6371524 76,27.5763886 76,38 C76,48.4236114 72.2725695,57.3628476 64.8177086,64.8177086 C57.3628476,72.2725695 48.4236114,76 38,76 C27.5763886,76 18.6371524,72.2725695 11.1822914,64.8177086 C3.72743047,57.3628476 0,48.4236114 0,38 C0,27.5763886 3.72743047,18.6371524 11.1822914,11.1822914 C18.6371524,3.72743047 27.5763886,0 38,0 Z M23.6875,22 C22.3854167,22 21.2786458,22.4557292 20.3671875,23.3671875 C19.4557292,24.2786458 19,25.3854167 19,26.6875 C19,27.9895833 19.4557292,29.0963542 20.3671875,30.0078125 C21.2786458,30.9192708 22.3854167,31.375 23.6875,31.375 C24.9895833,31.375 26.0963542,30.9192708 27.0078125,30.0078125 C27.9192708,29.0963542 28.375,27.9895833 28.375,26.6875 C28.375,25.3854167 27.9192708,24.2786458 27.0078125,23.3671875 C26.0963542,22.4557292 24.9895833,22 23.6875,22 Z M51.8125,22 C50.5104167,22 49.4036458,22.4557292 48.4921875,23.3671875 C47.5807292,24.2786458 47.125,25.3854167 47.125,26.6875 C47.125,27.9895833 47.5807292,29.0963542 48.4921875,30.0078125 C49.4036458,30.9192708 50.5104167,31.375 51.8125,31.375 C53.1145833,31.375 54.2213542,30.9192708 55.1328125,30.0078125 C56.0442708,29.0963542 56.5,27.9895833 56.5,26.6875 C56.5,25.3854167 56.0442708,24.2786458 55.1328125,23.3671875 C54.2213542,22.4557292 53.1145833,22 51.8125,22 Z M22.125,47 C22.125,48.5625 22.125,51.6875 22.125,53.25 C29.9375,53.25 45.5625,53.25 53.375,53.25 C53.375,51.6875 53.375,48.5625 53.375,47 C45.5625,47 29.9375,47 22.125,47 Z M38,6 C29.2,6 21.6666667,9.13333333 15.4,15.4 C9.13333333,21.6666667 6,29.2 6,38 C6,46.8 9.13333333,54.3333333 15.4,60.6 C21.6666667,66.8666667 29.2,70 38,70 C46.8,70 54.3333333,66.8666667 60.6,60.6 C66.8666667,54.3333333 70,46.8 70,38 C70,29.2 66.8666667,21.6666667 60.6,15.4 C54.3333333,9.13333333 46.8,6 38,6 Z" id="meh-o" fill="#000000" fill-rule="nonzero"></path>
    </g>
</svg>