<?xml version="1.0" encoding="UTF-8"?>
<svg width="43px" height="76px" viewBox="0 0 43 76" version="1.1" xmlns="http://www.w3.org/2000/svg" xmlns:xlink="http://www.w3.org/1999/xlink">
    <!-- Generator: Sketch 48.1 (47250) - http://www.bohemiancoding.com/sketch -->
    <title>mercury</title>
    <desc>Created with Sketch.</desc>
    <defs></defs>
    <g id="mercury---f223" stroke="none" stroke-width="1" fill="none" fill-rule="evenodd" transform="translate(-17.000000, 0.000000)">
        <path d="M25.0625,0 C26.40625,0 29.09375,0 30.4375,0 C30.4375,2.26190476 31.2213542,4.18452381 32.7890625,5.76785714 C34.3567708,7.35119048 36.2604167,8.14285714 38.5,8.14285714 C40.7395833,8.14285714 42.6432292,7.35119048 44.2109375,5.76785714 C45.7786458,4.18452381 46.5625,2.26190476 46.5625,0 C48.3541667,0 50.59375,0 51.9375,0 C51.9375,3.95833362 50.4257811,7.35119077 47.4023433,10.1785714 C51.2096356,11.8750003 54.2610681,14.5044646 56.5566408,18.0669645 C58.8522136,21.6294644 60,25.5595238 60,29.8571429 C60,35.2857143 58.1803386,40.063988 54.5410158,44.1919641 C50.9016931,48.3199401 46.4505211,50.7232141 41.1875,51.4017861 C41.1875,53.2490083 41.1875,56.0198415 41.1875,59.7142857 L51.9375,59.7142857 L51.9375,65.1428571 L41.1875,65.1428571 L41.1875,76 L35.8125,76 L35.8125,65.1428571 L25.0625,65.1428571 L25.0625,59.7142857 L35.8125,59.7142857 C35.8125,55.5580359 35.8125,52.7872027 35.8125,51.4017861 C30.5494789,50.7232141 26.0983069,48.3199401 22.4589842,44.1919641 C18.8196614,40.063988 17,35.2857143 17,29.8571429 C17,25.5595238 18.1477864,21.6294644 20.4433592,18.0669645 C22.7389319,14.5044646 25.7903644,11.8750003 29.5976567,10.1785714 C26.5742189,7.35119077 25.0625,3.95833362 25.0625,0 Z M38.5,13.5714286 C34.0208333,13.5714286 30.2135417,15.1547619 27.078125,18.3214286 C23.9427083,21.4880952 22.375,25.3333333 22.375,29.8571429 C22.375,34.3809524 23.9427083,38.2261905 27.078125,41.3928571 C30.2135417,44.5595238 34.0208333,46.1428571 38.5,46.1428571 C42.9791667,46.1428571 46.7864583,44.5595238 49.921875,41.3928571 C53.0572917,38.2261905 54.625,34.3809524 54.625,29.8571429 C54.625,25.3333333 53.0572917,21.4880952 49.921875,18.3214286 C46.7864583,15.1547619 42.9791667,13.5714286 38.5,13.5714286 Z" id="mercury" fill="#000000" fill-rule="nonzero"></path>
    </g>
</svg>