<?xml version="1.0" encoding="UTF-8"?>
<svg width="76px" height="76px" viewBox="0 0 76 76" version="1.1" xmlns="http://www.w3.org/2000/svg" xmlns:xlink="http://www.w3.org/1999/xlink">
    <!-- Generator: Sketch 48.1 (47250) - http://www.bohemiancoding.com/sketch -->
    <title>microchip</title>
    <desc>Created with Sketch.</desc>
    <defs></defs>
    <g id="microchip---f2db" stroke="none" stroke-width="1" fill="none" fill-rule="evenodd">
        <path d="M51,67 L51,76 L45,76 L45,67 L41,67 L41,76 L35,76 L35,67 L31,67 L31,76 L25,76 L25,67 L21,67 L21,76 L15,76 L15,66.9291111 C11.9343088,66.4905984 9.50940162,64.0656912 9.07088886,61 L-1.77635684e-15,61 L0,55 L9,55 L9,51 L-1.77635684e-15,51 L0,45 L9,45 L9,41 L-1.77635684e-15,41 L0,35 L9,35 L9,31 L-1.77635684e-15,31 L0,25 L9,25 L9,21 L-1.77635684e-15,21 L0,15 L9.07088886,15 C9.50940162,11.9343088 11.9343088,9.50940162 15,9.07088886 L15,0 L21,0 L21,9 L25,9 L25,0 L31,0 L31,9 L35,9 L35,0 L41,0 L41,9 L45,9 L45,0 L51,0 L51,9 L55,9 L55,0 L61,0 L61,9.07088886 C64.0656912,9.50940162 66.4905984,11.9343088 66.9291111,15 L76,15 L76,21 L67,21 L67,25 L76,25 L76,31 L67,31 L67,35 L76,35 L76,41 L67,41 L67,45 L76,45 L76,51 L67,51 L67,55 L76,55 L76,61 L66.9291111,61 C66.4905984,64.0656912 64.0656912,66.4905984 61,66.9291111 L61,76 L55,76 L55,67 L51,67 Z M20,15 L56,15 C58.7614237,15 61,17.2385763 61,20 L61,56 C61,58.7614237 58.7614237,61 56,61 L20,61 C17.2385763,61 15,58.7614237 15,56 L15,20 C15,17.2385763 17.2385763,15 20,15 Z M51,58 C53.7614237,58 56,55.7614237 56,53 C56,50.2385763 53.7614237,48 51,48 C48.2385763,48 46,50.2385763 46,53 C46,55.7614237 48.2385763,58 51,58 Z" id="microchip" fill="#000000"></path>
    </g>
</svg>