<?xml version="1.0" encoding="UTF-8"?>
<svg width="48px" height="76px" viewBox="0 0 48 76" version="1.1" xmlns="http://www.w3.org/2000/svg" xmlns:xlink="http://www.w3.org/1999/xlink">
    <!-- Generator: Sketch 48.1 (47250) - http://www.bohemiancoding.com/sketch -->
    <title>microphone</title>
    <desc>Created with Sketch.</desc>
    <defs></defs>
    <g id="microphone---f130" stroke="none" stroke-width="1" fill="none" fill-rule="evenodd" transform="translate(-14.000000, 0.000000)">
        <path d="M38,0 C46.2842712,-1.52179594e-15 53,6.71572875 53,15 L53,36 C53,44.2842712 46.2842712,51 38,51 C29.7157288,51 23,44.2842712 23,36 L23,15 C23,6.71572875 29.7157288,1.52179594e-15 38,0 Z M38,6 C33.0294373,6 29,10.0294373 29,15 L29,36 C29,40.9705627 33.0294373,45 38,45 C42.9705627,45 47,40.9705627 47,36 L47,15 C47,10.0294373 42.9705627,6 38,6 Z M41,70 L54,70 L54,76 L22,76 L22,70 L35,70 L35,60.9048949 C23.1610653,59.4286006 14,49.3294291 14,37.0905762 L14,24.0905762 L20,24 L20,37.0905762 C20,47.0317017 28.0588745,55.0905762 38,55.0905762 C47.9411255,55.0905762 56,47.0317017 56,37.0905762 L56,24.0905762 L62,24.0905762 L62,37.0905762 C62,49.3294291 52.8389347,59.4286006 41,60.9048949 L41,70 Z" id="microphone" fill="#000000"></path>
    </g>
</svg>