<?xml version="1.0" encoding="UTF-8"?>
<svg width="66px" height="76px" viewBox="0 0 66 76" version="1.1" xmlns="http://www.w3.org/2000/svg" xmlns:xlink="http://www.w3.org/1999/xlink">
    <!-- Generator: Sketch 48.1 (47250) - http://www.bohemiancoding.com/sketch -->
    <title>microphone-slash</title>
    <desc>Created with Sketch.</desc>
    <defs></defs>
    <g id="microphone-slash---f131" stroke="none" stroke-width="1" fill="none" fill-rule="evenodd" transform="translate(-8.000000, 0.000000)">
        <path d="M51.8975222,41.6548815 L54.5116492,44.2690085 C55.4690672,42.0698355 56,39.6422089 56,37.0905762 L56,24.0905762 L62,24.0905762 L62,37.0905762 C62,41.3195052 60.9062317,45.292971 58.9861546,48.7435139 L73.9741341,63.7314934 L69.7314934,67.9741341 L8,6.24264069 L12.2426407,2 L23.145445,12.9028043 C24.1655213,5.61135472 30.4274596,1.3910531e-15 38,0 C46.2842712,-1.52179594e-15 53,6.71572875 53,15 L53,36 C53,38.0006007 52.6083435,39.9097251 51.8975222,41.6548815 Z M29,18.7573593 L46.9709573,36.7283166 C46.9901955,36.4880815 47,36.2451857 47,36 L47,15 C47,10.0294373 42.9705627,6 38,6 C33.0294373,6 29,10.0294373 29,15 L29,18.7573593 Z M46.2721697,48.5148104 C43.9008706,50.0853697 41.057247,51 38,51 C29.7157288,51 23,44.2842712 23,36 L23,25.2426407 L29,31.2426407 L29,36 C29,40.9705627 33.0294373,45 38,45 C39.3894396,45 40.7053405,44.6851435 41.8802464,44.122887 L46.2721697,48.5148104 Z M49.0545215,51.2971622 L53.3216365,55.5642772 C49.890026,58.4135367 45.6517232,60.3248332 41,60.9048949 L41,70 L54,70 L54,76 L22,76 L22,70 L35,70 L35,60.9048949 C23.1610653,59.4286006 14,49.3294291 14,37.0905762 L14,24.0905762 L20,24 L20,37.0905762 C20,47.0317017 28.0588745,55.0905762 38,55.0905762 C42.167257,55.0905762 46.0037586,53.6744438 49.0545215,51.2971622 Z" id="microphone-slash" fill="#000000"></path>
    </g>
</svg>