<?xml version="1.0" encoding="UTF-8"?>
<svg width="50px" height="76px" viewBox="0 0 50 76" version="1.1" xmlns="http://www.w3.org/2000/svg" xmlns:xlink="http://www.w3.org/1999/xlink">
    <!-- Generator: Sketch 48.1 (47250) - http://www.bohemiancoding.com/sketch -->
    <title>mobile</title>
    <desc>Created with Sketch.</desc>
    <defs></defs>
    <g id="mobile---f10b" stroke="none" stroke-width="1" fill="none" fill-rule="evenodd" transform="translate(-13.000000, 0.000000)">
        <path d="M22.375,0 C30.1875,0 45.8125,0 53.625,0 C56.2291667,0 58.4427083,0.923611111 60.265625,2.77083333 C62.0885417,4.61805556 63,6.86111111 63,9.5 C63,28.5 63,52.25 63,66.5 C63,69.1388889 62.0885417,71.3819444 60.265625,73.2291667 C58.4427083,75.0763889 56.2291667,76 53.625,76 C43.2083333,76 30.1875,76 22.375,76 C19.7708333,76 17.5572917,75.0763889 15.734375,73.2291667 C13.9114583,71.3819444 13,69.1388889 13,66.5 C13,47.5 13,23.75 13,9.5 C13,6.86111111 13.9114583,4.61805556 15.734375,2.77083333 C17.5572917,0.923611111 19.7708333,0 22.375,0 Z M22.375,6.25 C21.4635413,6.25 20.7148433,6.54882804 20.128906,7.14648412 C19.5429687,7.7441402 19.25,8.50781216 19.25,9.4375 C19.25,28.5625 19.25,52.46875 19.25,66.8125 C19.25,67.7421878 19.5429687,68.5058598 20.128906,69.1035159 C20.7148433,69.701172 21.4635413,70 22.375,70 C32.7916667,70 45.8125,70 53.625,70 C54.5364587,70 55.2851567,69.701172 55.871094,69.1035159 C56.4570313,68.5058598 56.75,67.7421878 56.75,66.8125 C56.75,47.6875 56.75,23.78125 56.75,9.4375 C56.75,8.50781216 56.4570313,7.7441402 55.871094,7.14648412 C55.2851567,6.54882804 54.5364587,6.25 53.625,6.25 C43.2083333,6.25 30.1875,6.25 22.375,6.25 Z M38,60.375 C38.9114587,60.375 39.6601567,60.6679687 40.246094,61.253906 C40.8320313,61.8398433 41.125,62.5885413 41.125,63.5 C41.125,64.4114587 40.8320313,65.1601567 40.246094,65.746094 C39.6601567,66.3320313 38.9114587,66.625 38,66.625 C37.0885413,66.625 36.3398433,66.3320313 35.753906,65.746094 C35.1679687,65.1601567 34.875,64.4114587 34.875,63.5 C34.875,62.5885413 35.1679687,61.8398433 35.753906,61.253906 C36.3398433,60.6679687 37.0885413,60.375 38,60.375 Z" id="mobile" fill="#000000" fill-rule="nonzero"></path>
    </g>
</svg>