<?xml version="1.0" encoding="UTF-8"?>
<svg width="76px" height="58px" viewBox="0 0 76 58" version="1.1" xmlns="http://www.w3.org/2000/svg" xmlns:xlink="http://www.w3.org/1999/xlink">
    <!-- Generator: Sketch 48.1 (47250) - http://www.bohemiancoding.com/sketch -->
    <title>money</title>
    <desc>Created with Sketch.</desc>
    <defs></defs>
    <g id="money---f0d6" stroke="none" stroke-width="1" fill="none" fill-rule="evenodd" transform="translate(0.000000, -9.000000)">
        <path d="M70.4017861,9 C70.9107147,11.8703125 71.9285719,17.6109375 72.4375004,20.48125 C71.0379468,20.48125 68.2388394,20.48125 66.8392857,20.48125 C66.627232,19.1727251 66.2031247,16.5556752 65.991071,15.2471503 C58.3147318,16.5556752 42.9620535,19.1727251 35.2857143,20.48125 C27.2276786,20.48125 11.1116071,20.48125 3.05357143,20.48125 C19.8906251,17.6109375 53.5647325,11.8703125 70.4017861,9 Z M0,23.1827206 C0.678571429,23.1827206 2.03571429,23.1827206 2.71428571,23.1827206 C3.73214286,23.1827206 5.76785714,23.1827206 6.78571429,23.1827206 C23.4107143,23.1827206 56.6607143,23.1827206 73.2857143,23.1827206 C73.9642857,23.1827206 75.3214286,23.1827206 76,23.1827206 C76,23.8580882 76,25.2088235 76,25.8841912 C76,35.3393382 76,54.2496324 76,63.7047794 C76,64.3801471 76,65.7308824 76,66.40625 C75.3214286,66.40625 73.9642857,66.40625 73.2857143,66.40625 C55.6428571,66.40625 20.3571429,66.40625 2.71428571,66.40625 C2.03571429,66.40625 0.678571429,66.40625 0,66.40625 C0,65.7308824 0,64.3801471 0,63.7047794 C0,55.2626838 0,38.3784926 0,29.9363971 C0,28.9233456 0,26.8972426 0,25.8841912 C0,25.2088235 0,23.8580882 0,23.1827206 Z M13.830209,28.8400311 C13.9413431,29.3940049 13.9969101,29.8371842 13.9969101,30.1695689 C13.9969101,32.0530806 13.3578877,33.6319067 12.0798429,34.9060473 C10.8017981,36.1801879 9.21813417,36.8172582 7.32885106,36.8172582 C6.99544783,36.8172582 6.55091056,36.7618609 5.99523926,36.6510664 C5.99523926,42.0800123 5.99523926,48.8661947 5.99523926,52.9379042 C6.55091056,52.8271097 6.99544783,52.7717124 7.32885106,52.7717124 C9.21813417,52.7717124 10.8017981,53.4087827 12.0798429,54.6829233 C13.3578877,55.9570638 13.9969101,57.53589 13.9969101,59.4194016 C13.9969101,59.7517864 13.9413431,60.1949657 13.830209,60.7489395 C29.9446848,60.7489395 50.0877794,60.7489395 62.1736362,60.7489395 C62.0625021,60.1949657 62.0069351,59.7517864 62.0069351,59.4194016 C62.0069351,57.53589 62.6459575,55.9570638 63.9240023,54.6829233 C65.2020471,53.4087827 66.785711,52.7717124 68.6749942,52.7717124 C69.0083974,52.7717124 69.4529347,52.8271097 70.008606,52.9379042 C70.008606,47.5089583 70.008606,40.7227758 70.008606,36.6510664 C69.4529347,36.7618609 69.0083974,36.8172582 68.6749942,36.8172582 C66.785711,36.8172582 65.2020471,36.1801879 63.9240023,34.9060473 C62.6459575,33.6319067 62.0069351,32.0530806 62.0069351,30.1695689 C62.0069351,29.8371842 62.0625021,29.3940049 62.1736362,28.8400311 C46.0591605,28.8400311 25.9160658,28.8400311 13.830209,28.8400311 Z M37.5,32 C40.9374997,32 43.880208,33.2239584 46.3281248,35.6718752 C48.7760416,38.119792 50,41.0625003 50,44.5 C50,47.9374997 48.7760416,50.880208 46.3281248,53.3281248 C43.880208,55.7760416 40.9374997,57 37.5,57 C34.0625003,57 31.119792,55.7760416 28.6718752,53.3281248 C26.2239584,50.880208 25,47.9374997 25,44.5 C25,41.0625003 26.2239584,38.119792 28.6718752,35.6718752 C31.119792,33.2239584 34.0625003,32 37.5,32 Z M37.5,37 C35.4166667,37 33.6458333,37.7291667 32.1875,39.1875 C30.7291667,40.6458333 30,42.4166667 30,44.5 C30,46.5833333 30.7291667,48.3541667 32.1875,49.8125 C33.6458333,51.2708333 35.4166667,52 37.5,52 C39.5833333,52 41.3541667,51.2708333 42.8125,49.8125 C44.2708333,48.3541667 45,46.5833333 45,44.5 C45,42.4166667 44.2708333,40.6458333 42.8125,39.1875 C41.3541667,37.7291667 39.5833333,37 37.5,37 Z" id="money" fill="#000000" fill-rule="nonzero"></path>
    </g>
</svg>