<?xml version="1.0" encoding="UTF-8"?>
<svg width="73px" height="76px" viewBox="0 0 73 76" version="1.1" xmlns="http://www.w3.org/2000/svg" xmlns:xlink="http://www.w3.org/1999/xlink">
    <!-- Generator: Sketch 48.1 (47250) - http://www.bohemiancoding.com/sketch -->
    <title>moon-o</title>
    <desc>Created with Sketch.</desc>
    <defs></defs>
    <g id="moon-o---f186" stroke="none" stroke-width="1" fill="none" fill-rule="evenodd" transform="translate(-2.000000, 0.000000)">
        <path d="M64.4839517,58.134354 C62.6973871,58.4092101 60.8650131,58.5924475 59.0326392,58.5924475 C53.0316145,58.5924475 47.4428739,57.1265483 42.3580362,54.1489407 C37.2273892,51.171333 33.1961665,47.1401103 30.2185588,42.0094632 C27.2409511,36.8788162 25.775052,31.335885 25.775052,25.3348603 C25.775052,19.0131702 27.4699979,13.1037642 30.905699,7.6524517 C24.2633435,9.6222537 18.8578403,13.3786203 14.6433802,18.9673608 C10.4289202,24.5561014 8.32169012,30.8777915 8.32169012,37.9782406 C8.32169012,42.2843193 9.1462584,46.3613514 10.8412043,50.3009554 C12.5361502,54.2405594 14.7808083,57.5846418 17.6209879,60.3790121 C20.4611675,63.2191917 23.80525,65.4638498 27.6990446,67.1587957 C31.5928393,68.8537416 35.7156807,69.6783099 40.0217594,69.6783099 C44.7859317,69.6783099 49.2752479,68.6705042 53.5813267,66.6548929 C57.8415961,64.5934722 61.4605346,61.7532925 64.4839517,58.134354 Z M74.516199,53.9198939 C71.4011633,60.6080588 66.7286097,65.9677526 60.4985383,69.9989753 C54.2226575,74.030198 47.3970646,76 40.0217594,76 C34.8911124,76 29.9437027,74.9921943 25.2711492,72.976583 C20.5985956,70.9609716 16.5215635,68.2582201 13.1316717,64.8683283 C9.74177993,61.4784365 7.03902836,57.4472138 5.02341702,52.7288508 C3.00780567,48.0104879 2,43.154697 2,37.9782406 C2,32.9392122 2.96199632,28.0834212 4.84017962,23.5024864 C6.71836292,18.9215515 9.3294958,14.8903288 12.5819596,11.5462463 C15.8344233,8.20216389 19.728218,5.45360297 24.2175341,3.39218227 C28.7068503,1.33076158 33.5168319,0.185527862 38.5558603,0.00229046744 C40.0217594,-0.0435188813 41.0295651,0.597812001 41.5792773,1.92628311 C42.1747988,3.30056358 41.9457521,4.44579729 40.8463277,5.49941231 C38.0061481,8.06473584 35.8531087,11.0881529 34.3414002,14.4780447 C32.8296917,17.8679365 32.0967421,21.5326844 32.0967421,25.289051 C32.0967421,30.1906513 33.2877852,34.6799675 35.7156807,38.8028088 C38.1435761,42.9256502 41.3960399,46.2239233 45.5188813,48.6518188 C49.6417227,51.0797143 54.1310388,52.2707574 59.0326392,52.2707574 C62.9264338,52.2707574 66.6828004,51.4461891 70.3017389,49.7512432 C71.6760194,49.1557216 72.8212531,49.3847684 73.8748681,50.3925741 C74.3329616,50.8506676 74.6078177,51.4003797 74.7452458,52.08752 C74.8826738,52.7288508 74.7910551,53.3243724 74.516199,53.9198939 Z" id="moon-o" fill="#000000" fill-rule="nonzero"></path>
    </g>
</svg>