<?xml version="1.0" encoding="UTF-8"?>
<svg width="76px" height="62px" viewBox="0 0 76 62" version="1.1" xmlns="http://www.w3.org/2000/svg" xmlns:xlink="http://www.w3.org/1999/xlink">
    <!-- Generator: Sketch 48.1 (47250) - http://www.bohemiancoding.com/sketch -->
    <title>motorcycle</title>
    <desc>Created with Sketch.</desc>
    <defs></defs>
    <g id="motorcycle---f21c" stroke="none" stroke-width="1" fill="none" fill-rule="evenodd" transform="translate(0.000000, -7.000000)">
        <path d="M4.71840841,60.0672054 C6.21503356,60.0672054 7.71697342,60.0672054 9.21572446,60.0682683 C8.98081384,62.0347147 9.29969704,64.1648545 13.95114,67.2835322 C14.6473683,67.7501646 15.4626463,68.0626701 16.3002462,68.0626701 C20.2437684,68.0626701 23.440041,64.8663975 23.440041,60.9228753 C23.440041,60.6337545 23.4177192,60.3510114 23.384768,60.0714571 C24.4732226,60.0714571 25.5574255,60.0725201 26.6469431,60.0725201 C27.0583024,60.0725201 27.4707247,60.0725201 27.882084,60.0725201 C33.6156039,60.0725201 39.3533756,60.0714571 45.0900844,60.0714571 C46.0605523,60.0714571 47.0299572,60.0714571 48.0004251,60.0714571 L49.5874004,60.0714571 C49.5544492,60.3520743 49.5321274,60.6348175 49.5321274,60.9239382 C49.5321274,64.8674604 52.7284,68.0637331 56.6719222,68.0637331 C60.6154444,68.0637331 63.811717,64.8674604 63.811717,60.9239382 C63.811717,60.6348175 63.7893952,60.3510114 63.7564439,60.0703942 L68.25376,60.0703942 L69.3145781,60.0703942 L69.4793344,60.0640165 C69.4793344,60.0640165 73.4855703,59.7291892 73.4908851,59.7291892 C73.4908851,59.7291892 73.4908851,59.7291892 73.4908851,59.7291892 C74.6207945,59.6356501 75.5062269,58.9202888 75.8633761,57.8169529 C77.3759454,53.1368105 65.8727654,33.8178033 63.8839972,32.114967 C56.3657943,25.6756523 48.4319803,25.7436807 40.0315339,25.8191497 C39.1088985,25.8276533 38.1735078,25.8361568 37.2232359,25.8361568 L34.9070809,25.8361568 L37.3635445,41.663393 C37.5017272,42.555203 37.2444947,43.4597683 36.6566867,44.1453672 C36.0688787,44.8309661 35.2142717,45.2242554 34.3118323,45.2242554 L25.6562793,45.2242554 C24.4997962,45.2242554 23.3390614,44.9478899 22.3749712,44.3090606 C20.3978953,43.0005765 19.4869523,40.6961139 19.8791786,38.5776666 L24.9759951,15.7530701 L30.9975729,14.0757445 C32.190196,13.743043 32.8885502,12.5068391 32.5558488,11.313153 C32.2231473,10.1205298 30.9869434,9.42217563 29.7943203,9.75487711 L25.3118854,11.0038363 C25.1609474,10.4883085 24.960051,9.98553595 24.6581749,9.52209237 C23.7578613,8.13920223 22.3250128,7.24314044 20.6668202,7.03905519 C17.9754459,6.70847961 15.4860311,8.51229557 14.6505571,11.0920607 C13.2644781,15.3735991 11.6966358,19.7795019 10.1787517,24.0429703 C6.29050258,34.9657828 2.27151132,46.2616887 0.379471007,57.7627428 L0,60.0682683 L2.33635091,60.0682683 C3.12718124,60.0672054 3.92438924,60.0672054 4.71840841,60.0672054 Z M14.2329102,26.8979492 C15.6635072,22.3440067 17.4844491,17.4560482 18.8238257,13.3049805 C19.0547182,12.5873146 19.5188599,12.1956177 20.0289917,12.3450317 C20.5391235,12.4944458 20.5502319,13.0565796 20.3691406,13.8325195 L14.2329102,39.8505859 C13.7381405,42.5093483 14.4458111,45.2270832 16.1750061,47.3061155 C17.9032017,49.3861472 20.446018,50.5785922 23.150759,50.5785922 L36.5991211,50.5785922 C38.539218,50.5785922 40.3753633,49.7339853 41.6377757,48.2606711 C42.900188,46.787357 43.4529307,44.8432619 43.1560689,42.9261543 L41.6377757,31.1621094 C41.8036984,31.1611098 53.1350929,30.6978867 59.1333008,35.8334961 C61.083393,37.6656433 67.6743838,49.9401656 68.4150391,53.9882812 L65.7952585,54.2071794 L46.875269,54.2081789 C33.2905925,54.2091784 19.6999188,54.2111775 6.16222047,54.2061798 C8.01435832,44.4487218 11.2560202,36.3741229 14.2329102,26.8979492 Z M36.3367406,23.5104354 C35.0984108,23.5104354 34.0949917,22.5059533 34.0949917,21.2686865 C34.0949917,20.0303567 35.0984108,19.0269376 36.3367406,19.0269376 L50.9787941,19.0269376 C52.2171239,19.0269376 53.220543,20.0303567 53.220543,21.2686865 C53.220543,22.5070162 52.2171239,23.5104354 50.9787941,23.5104354 L36.3367406,23.5104354 Z" id="motorcycle" fill="#000000" fill-rule="nonzero"></path>
    </g>
</svg>