<?xml version="1.0" encoding="UTF-8"?>
<svg width="53px" height="76px" viewBox="0 0 53 76" version="1.1" xmlns="http://www.w3.org/2000/svg" xmlns:xlink="http://www.w3.org/1999/xlink">
    <!-- Generator: Sketch 48.1 (47250) - http://www.bohemiancoding.com/sketch -->
    <title>mouse-pointer</title>
    <desc>Created with Sketch.</desc>
    <defs></defs>
    <g id="mouse-pointer---f245" stroke="none" stroke-width="1" fill="none" fill-rule="evenodd" transform="translate(-12.000000, 0.000000)">
        <path d="M12,0 C13.2912621,1.19902913 15.8737864,3.59708738 17.1650485,4.7961165 C27.9563107,15.6796117 49.538835,37.4466019 60.3300971,48.3300971 C61.4368932,49.3907768 63.6504854,51.5121363 64.7572816,52.572816 C63.2354368,52.757282 60.1917472,53.1262141 58.6699024,53.3106801 C54.9344657,53.7718449 47.4635921,54.6941745 43.7281553,55.1553393 C45.1116505,57.8300969 47.8786408,63.1796119 49.2621359,65.8543694 C49.538835,66.5461169 50.092233,67.9296118 50.368932,68.6213592 C49.723301,68.8980583 48.4320388,69.4514563 47.7864078,69.7281553 C45.5266989,70.9271845 41.0072812,73.3252427 38.7475723,74.5242718 C38.0558249,74.8932039 36.67233,75.631068 35.9805825,76 C35.7038835,75.3082525 35.1504854,73.9247576 34.8737864,73.2330102 C33.3519419,70.2354372 30.3082528,64.2402914 28.7864082,61.2427184 C25.7888353,63.7330097 19.7936894,68.7135922 16.7961165,71.2038835 C15.5970874,72.2184466 13.1990291,74.2475728 12,75.2621359 C12,73.6941748 12,70.5582524 12,68.9902913 C12,53.4951456 12,22.5048544 12,7.00970874 C12,5.25728155 12,1.75242718 12,0 Z M17.9029126,14.203884 C17.9029126,26.3325246 17.9029126,50.5898059 17.9029126,62.7184466 C20.3932039,60.5970874 25.3737864,56.3543689 27.8640777,54.2330097 C28.5558251,53.6796117 29.93932,52.5728155 30.6310675,52.0194175 C31.0461162,52.8495146 31.8762135,54.5097087 32.2912621,55.3398058 C33.9053397,58.4757282 37.1334948,64.7475728 38.7475723,67.8834951 C39.7160191,67.4223301 41.6529125,66.5 42.6213592,66.038835 C41.0995144,63.0873786 38.0558249,57.184466 36.5339801,54.2330097 C36.0266987,53.2645632 35.0121358,51.3276703 34.5048544,50.3592238 C35.5655339,50.2208741 37.6868928,49.9441749 38.7475723,49.8058252 C42.0679607,49.4368932 48.7087374,48.6990291 52.0291257,48.3300971 C43.4975725,39.7985438 26.4344659,22.7354372 17.9029126,14.203884 Z" id="mouse-pointer" fill="#000000" fill-rule="nonzero"></path>
    </g>
</svg>