<?xml version="1.0" encoding="UTF-8"?>
<svg width="76px" height="76px" viewBox="0 0 76 76" version="1.1" xmlns="http://www.w3.org/2000/svg" xmlns:xlink="http://www.w3.org/1999/xlink">
    <!-- Generator: Sketch 48.1 (47250) - http://www.bohemiancoding.com/sketch -->
    <title>music</title>
    <desc>Created with Sketch.</desc>
    <defs></defs>
    <g id="music---f001" stroke="none" stroke-width="1" fill="none" fill-rule="evenodd">
        <path d="M76,0 C76,33.611735 76,51.611735 76,54 C76,57.5823975 74.8427229,60.1913631 72.3292158,62.7048702 C69.8157086,65.2183773 66.839187,66.4751309 63.399651,66.4751309 C59.9601149,66.4751309 56.9835933,65.2183773 54.4700862,62.7048702 C51.956579,60.1913631 50.6998255,57.2148415 50.6998255,53.7753054 C50.6998255,50.3357693 51.956579,47.3592477 54.4700862,44.8457406 C56.9835933,42.3322335 59.9601149,41.0754799 63.399651,41.0754799 C65.648578,41.0754799 68.0156519,41.8093917 70,43 C70,37.7965995 70,30.4632662 70,21 L25,30 C25,45.4133625 25,56.0800292 25,62 C25,65.4395361 24.043421,69.7162322 21.5299138,72.2297393 C19.0164067,74.7432464 16.0398851,76 12.600349,76 C9.16081297,76 6.18429138,74.7432464 3.67078425,72.2297393 C1.15727712,69.7162322 -0.0994764398,66.7397106 -0.0994764398,63.3001745 C-0.0994764398,59.8606385 1.15727712,56.8841169 3.67078425,54.3706097 C6.18429138,51.8571026 9.16081297,50.600349 12.600349,50.600349 C14.8492761,50.600349 17.0156519,51.3093917 19,52.5 C19,43.6365802 19,29.8032469 19,11 L76,0 Z M70,8 L25,17 L25,23.3499127 L70,14.3499127 L70,8 Z M63.399651,47.4253927 C61.6798833,47.4253927 60.1916226,48.0537695 58.9348688,49.3105233 C57.6781151,50.567277 57.0497382,52.0555377 57.0497382,53.7753054 C57.0497382,55.4950731 57.6781151,56.9833338 58.9348688,58.2400876 C60.1916226,59.4968413 61.6798833,60.1252182 63.399651,60.1252182 C65.1194187,60.1252182 66.6076794,59.4968413 67.8644331,58.2400876 C69.1211868,56.9833338 69.7495637,55.4950731 69.7495637,53.7753054 C69.7495637,52.0555377 69.1211868,50.567277 67.8644331,49.3105233 C66.6076794,48.0537695 65.1194187,47.4253927 63.399651,47.4253927 Z M12.600349,56.9502618 C10.8805813,56.9502618 9.39232063,57.5786386 8.1355669,58.8353924 C6.87881317,60.0921461 6.2504363,61.5804068 6.2504363,63.3001745 C6.2504363,65.0199422 6.87881317,66.5082029 8.1355669,67.7649567 C9.39232063,69.0217104 10.8805813,69.6500873 12.600349,69.6500873 C14.3201167,69.6500873 15.8083774,69.0217104 17.0651312,67.7649567 C18.3218849,66.5082029 18.9502618,65.0199422 18.9502618,63.3001745 C18.9502618,61.5804068 18.3218849,60.0921461 17.0651312,58.8353924 C15.8083774,57.5786386 14.3201167,56.9502618 12.600349,56.9502618 Z" id="music" fill="#000000" fill-rule="nonzero"></path>
    </g>
</svg>