<?xml version="1.0" encoding="UTF-8"?>
<svg width="51px" height="76px" viewBox="0 0 51 76" version="1.1" xmlns="http://www.w3.org/2000/svg" xmlns:xlink="http://www.w3.org/1999/xlink">
    <!-- Generator: Sketch 48.1 (47250) - http://www.bohemiancoding.com/sketch -->
    <title>neuter</title>
    <desc>Created with Sketch.</desc>
    <defs></defs>
    <g id="neuter---f22c" stroke="none" stroke-width="1" fill="none" fill-rule="evenodd" transform="translate(-13.000000, 0.000000)">
        <path d="M38.3333333,0 C45.3263886,0 51.2968746,2.47395842 56.2447914,7.42187525 C61.1927082,12.3697921 63.6666667,18.3402781 63.6666667,25.3333333 C63.6666667,31.6666667 61.5225695,37.2413194 57.2343753,42.0572914 C52.946181,46.8732635 47.7013892,49.6770832 41.5,50.4687505 C41.5,58.979167 41.5,69.6171876 41.5,76 C39.9166667,76 36.75,76 35.1666667,76 C35.1666667,69.6171876 35.1666667,56.8515629 35.1666667,50.4687505 C28.9652774,49.6770832 23.7204857,46.8732635 19.4322914,42.0572914 C15.1440971,37.2413194 13,31.6666667 13,25.3333333 C13,18.3402781 15.4409721,12.4027781 20.3229162,7.52083333 C25.3368057,2.50694444 31.3402781,0 38.3333333,0 Z M38.3333333,6.33333333 C33.0555556,6.33333333 28.5694444,8.18055556 24.875,11.875 C21.1805556,15.5694444 19.3333333,20.0555556 19.3333333,25.3333333 C19.3333333,30.6111111 21.1805556,35.0972222 24.875,38.7916667 C28.5694444,42.4861111 33.0555556,44.3333333 38.3333333,44.3333333 C43.6111111,44.3333333 48.0972222,42.4861111 51.7916667,38.7916667 C55.4861111,35.0972222 57.3333333,30.6111111 57.3333333,25.3333333 C57.3333333,20.0555556 55.4861111,15.5694444 51.7916667,11.875 C48.0972222,8.18055556 43.6111111,6.33333333 38.3333333,6.33333333 Z" id="neuter" fill="#000000" fill-rule="nonzero"></path>
    </g>
</svg>