<?xml version="1.0" encoding="UTF-8"?>
<svg width="76px" height="70px" viewBox="0 0 76 70" version="1.1" xmlns="http://www.w3.org/2000/svg" xmlns:xlink="http://www.w3.org/1999/xlink">
    <!-- Generator: Sketch 48.1 (47250) - http://www.bohemiancoding.com/sketch -->
    <title>newspaper-o</title>
    <desc>Created with Sketch.</desc>
    <defs></defs>
    <g id="newspaper-o---f1ea" stroke="none" stroke-width="1" fill="none" fill-rule="evenodd" transform="translate(0.000000, -3.000000)">
        <path d="M76,69 L76,70 C76,71.6568542 74.6568542,73 73,73 L3,73 C1.34314575,73 2.02906125e-16,71.6568542 0,70 L0,15 L10,15 L10,3 L76,3 L76,69 Z M70,67 L70,9 L16,9 L16,63 L10,63 L10,21 L6,21 L6,67 L70,67 Z M21,13 L66,13 L66,19 L21,19 L21,13 Z M21,23 L66,23 L66,29 L21,29 L21,23 Z M47,33 L66,33 L66,39 L47,39 L47,33 Z M21,33 L42,33 L42,59 L21,59 L21,33 Z M26,38 L37,38 L37,54 L26,54 L26,38 Z M47,43 L66,43 L66,49 L47,49 L47,43 Z M47,53 L66,53 L66,59 L47,59 L47,53 Z" id="newspaper-o" fill="#000000"></path>
    </g>
</svg>