<?xml version="1.0" encoding="UTF-8"?>
<svg width="76px" height="76px" viewBox="0 0 76 76" version="1.1" xmlns="http://www.w3.org/2000/svg" xmlns:xlink="http://www.w3.org/1999/xlink">
    <!-- Generator: Sketch 48.1 (47250) - http://www.bohemiancoding.com/sketch -->
    <title>object-ungroup</title>
    <desc>Created with Sketch.</desc>
    <defs></defs>
    <g id="object-ungroup---f248" stroke="none" stroke-width="1" fill="none" fill-rule="evenodd">
        <path d="M49,56 L10,56 L10,58 L0,58 L0,48 L2,48 L2,10 L0,10 L0,0 L10,0 L10,2 L49,2 L49,0 L59,0 L59,10 L57,10 L57,48 L59,48 L59,58 L49,58 L49,56 Z M49,50 L49,48 L51,48 L51,10 L49,10 L49,8 L10,8 L10,10 L8,10 L8,48 L10,48 L10,50 L49,50 Z M74,28 L74,66 L76,66 L76,76 L66,76 L66,74 L27,74 L27,76 L17,76 L17,66 L19,66 L19,58 L25,58 L25,66 L27,66 L27,68 L66,68 L66,66 L68,66 L68,28 L66,28 L66,26 L59,26 L59,20 L66,20 L66,18 L76,18 L76,28 L74,28 Z" id="object-ungroup" fill="#000000" fill-rule="nonzero"></path>
    </g>
</svg>