<?xml version="1.0" encoding="UTF-8"?>
<svg width="76px" height="54px" viewBox="0 0 76 54" version="1.1" xmlns="http://www.w3.org/2000/svg" xmlns:xlink="http://www.w3.org/1999/xlink">
    <!-- Generator: Sketch 48.1 (47250) - http://www.bohemiancoding.com/sketch -->
    <title>outdent</title>
    <desc>Created with Sketch.</desc>
    <defs></defs>
    <g id="outdent---f03b" stroke="none" stroke-width="1" fill="none" fill-rule="evenodd" transform="translate(0.000000, -11.000000)" opacity="0.699999988">
        <path d="M0,11 L76,11 L76,17 L0,17 L0,11 Z M0,35 L56,35 L56,41 L0,41 L0,35 Z M0,59 L76,59 L76,65 L0,65 L0,59 Z M0,23 L56,23 L56,29 L0,29 L0,23 Z M0,47 L56,47 L56,53 L0,53 L0,47 Z M76,23 L76,53 L61.8232422,38 L76,23 Z" id="outdent" fill="#000000"></path>
    </g>
</svg>