<?xml version="1.0" encoding="UTF-8"?>
<svg width="76px" height="76px" viewBox="0 0 76 76" version="1.1" xmlns="http://www.w3.org/2000/svg" xmlns:xlink="http://www.w3.org/1999/xlink">
    <!-- Generator: Sketch 48.1 (47250) - http://www.bohemiancoding.com/sketch -->
    <title>paint-brush</title>
    <desc>Created with Sketch.</desc>
    <defs></defs>
    <g id="paint-brush---f1fc" stroke="none" stroke-width="1" fill="none" fill-rule="evenodd">
        <path d="M66.095238,0 C68.761905,0 71.1111116,1.05555556 73.1428576,3.16666667 C75.0476192,5.14583367 76,7.55381987 76,10.3906253 C76,13.2274306 75.0476192,15.7013889 73.1428576,17.8125 C60.1904766,31.0069444 44.0000003,47.5 34.2857145,57.3958333 C33.9047621,57.7916667 33.1428574,58.5833333 32.761905,58.9791667 C32.3809529,61.6180556 31.3650799,63.8611111 29.7142859,65.7083333 C29.6507937,65.7743054 29.5714284,65.8567705 29.5238092,65.9062495 C23.047619,72.6354165 15.1111112,76 5.71428575,76 C3.80952383,76 1.42857144,76 0,76 C0.761904767,74.763021 2.2857143,72.2890629 3.04761907,71.0520838 C5.20634956,67.6215276 6.98412735,63.3993054 8.38095243,58.3854172 C8.38095243,58.1215276 8.50793656,57.428819 8.76190482,56.3072914 C9.01587307,55.1857638 9.20634943,54.4270832 9.33333388,54.0312495 C9.46031768,53.5034717 9.68253966,52.8437495 9.99999982,52.0520828 C10.31746,51.2604162 10.6666664,50.6006939 11.0476191,50.0729162 C11.4285718,49.4131943 11.8095242,48.8194444 12.1904763,48.2916667 C13.9682541,46.3124997 16.0634923,45.1249997 18.4761911,44.7291667 C19.1111114,44.0694444 19.9047618,43.2447917 20.380952,42.75 C30.0476189,32.8541667 49.3809526,13.0625 59.0476194,3.16666667 C61.0793655,1.05555556 63.4285717,0 66.095238,0 Z M66.0333328,6 C65.0259254,6 64.0814812,6.39325843 63.2,7.17977528 C54.1333333,16.5524343 42.8,28.268258 36,35.2977523 C37.3222222,36.7233142 39.9666667,39.5744381 41.2888889,41 C48.1361112,33.9705057 61.8305559,19.9115172 68.6777783,12.882023 C70.4407406,11.0468163 70.4407406,9.14606708 68.6777783,7.17977528 C67.7962965,6.39325843 66.9148147,6 66.0333328,6 Z M31.4444444,40 C30.3333333,41.1057694 28.1111111,43.3173081 27,44.4230774 C28.3888889,45.8173081 31.1666667,48.6057694 32.5555556,50 C33.6666667,48.8461538 35.8888889,46.5384615 37,45.3846154 C35.6111111,44.0384615 32.8333333,41.3461538 31.4444444,40 Z M20.7142862,51.0195439 C19.0634922,50.8892511 17.7301587,51.4104237 16.7142857,52.5830618 C16.0793648,53.2345279 15.1904759,55.7752447 14.047619,60.2052122 C13.2857143,63.0716617 12.2698413,66.0032576 11,69 C16.5873016,67.9576547 21.2857143,65.4169383 25.0952381,61.3778506 C26.3650794,60.2052118 27,58.7394137 27,56.9804562 C27,55.2214987 26.4285716,53.8208473 25.2857148,52.778502 C24.0158729,51.6058633 22.4920633,51.0195439 20.7142862,51.0195439 Z" id="paint-brush" fill="#000000" fill-rule="nonzero"></path>
    </g>
</svg>