<?xml version="1.0" encoding="UTF-8"?>
<svg width="66px" height="76px" viewBox="0 0 66 76" version="1.1" xmlns="http://www.w3.org/2000/svg" xmlns:xlink="http://www.w3.org/1999/xlink">
    <!-- Generator: Sketch 48.1 (47250) - http://www.bohemiancoding.com/sketch -->
    <title>paperclip</title>
    <desc>Created with Sketch.</desc>
    <defs></defs>
    <g id="paperclip---f0c6" stroke="none" stroke-width="1" fill="none" fill-rule="evenodd" transform="translate(-5.000000, 0.000000)" opacity="0.699999988">
        <path d="M53.808383,0 C58.5508979,0 62.6017961,1.68229175 65.9610777,5.04687525 C69.3203592,8.41145876 71,12.4687505 71,17.2187505 C71,21.9687505 69.3532933,25.9930559 66.0598798,29.2916667 C56.1796404,39.1875 43.8293412,51.5572917 36.4191617,58.9791667 C34.4431135,60.958333 32.0389218,61.9479162 29.2065867,61.9479162 C26.3742516,61.9479162 23.9700603,60.958333 21.9940127,58.9791667 C20.0179645,57.0000003 19.0299404,54.5920143 19.0299404,51.7552086 C19.0299404,48.9184029 20.0179645,46.5763889 21.9940127,44.7291667 C31.0179645,35.625 42.2979043,24.2447917 49.0658681,17.4166667 C50.2020957,18.5052083 52.4745511,20.6822917 53.6107787,21.7708333 C46.8428146,28.5989583 33.3068864,42.2552083 26.5389223,49.0833333 C25.7485032,49.875 25.3532936,50.7986111 25.3532936,51.8541667 C25.3532936,52.9097222 25.6826348,53.8333333 26.341317,54.625 C27.1317369,55.2847219 28.0538929,55.6145828 29.1077851,55.6145828 C30.1616773,55.6145828 31.0838326,55.2847219 31.8742511,54.625 C41.7544908,44.7291667 54.1047904,32.359375 61.5149702,24.9375 C63.6227546,22.6944441 64.6766468,20.0885412 64.6766468,17.1197914 C64.6766468,14.1510416 63.6227546,11.6111111 61.5149702,9.5 C59.4071858,7.38888889 56.8712576,6.33333333 53.9071856,6.33333333 C50.9431137,6.33333333 48.4071855,7.38888889 46.2994011,9.5 C36.4191617,19.3958333 24.0688625,31.765625 16.658683,39.1875 C13.1017965,42.6180556 11.3233532,46.8072918 11.3233532,51.7552086 C11.3233532,56.7031254 13.0359284,60.9583337 16.4610787,64.5208333 C20.0179645,67.9513889 24.2335331,69.6666667 29.1077846,69.6666667 C33.982036,69.6666667 38.197605,67.9513889 41.7544915,64.5208333 C48.3413177,57.9236111 56.5748505,49.6770833 61.5149702,44.7291667 C62.6511976,45.8177083 64.9236524,47.9947917 66.0598798,49.0833333 C61.1197601,54.03125 51.2395208,63.9270833 46.2994011,68.875 C41.5568862,73.625 35.8592814,76 29.2065867,76 C22.553892,76 16.8562872,73.625 12.1137723,68.875 C7.37125745,64.125 5,58.4184029 5,51.7552086 C5,45.0920143 7.37125745,39.4513892 12.1137723,34.8333333 C21.9940121,24.9375 34.3443117,12.5677083 41.7544915,5.14583333 C45.0479043,1.71527778 49.0658681,0 53.808383,0 Z" id="paperclip" fill="#000000" fill-rule="nonzero"></path>
    </g>
</svg>