<?xml version="1.0" encoding="UTF-8"?>
<svg width="62px" height="76px" viewBox="0 0 62 76" version="1.1" xmlns="http://www.w3.org/2000/svg" xmlns:xlink="http://www.w3.org/1999/xlink">
    <!-- Generator: Sketch 48.1 (47250) - http://www.bohemiancoding.com/sketch -->
    <title>paragraph</title>
    <desc>Created with Sketch.</desc>
    <defs></defs>
    <g id="paragraph---f1dd" stroke="none" stroke-width="1" fill="none" fill-rule="evenodd" transform="translate(-7.000000, 0.000000)" opacity="0.699999988">
        <path d="M27.6666667,0 C34.5555556,0 48.3333333,0 69,0 L69,6.90909091 L62.1111111,6.90909091 L62.1111111,76 L55.2222222,76 L55.2222222,6.04545455 L48.3333333,6.04545455 L48.3333333,76 L41.4444444,76 C41.4444444,58.7272727 41.4444444,47.2121212 41.4444444,41.4545455 C38,41.4545455 31.1111111,41.4545455 27.6666667,41.4545455 C21.9259259,41.4545455 17.0462963,39.4393939 13.0277778,35.4090909 C9.00925926,31.3787879 7,26.4848485 7,20.7272727 C7,14.969697 9.00925926,10.0757576 13.0277778,6.04545455 C17.0462963,2.01515152 21.9259259,0 27.6666667,0 Z M27.6666667,6.12903226 C23.5729163,6.12903226 20.1235528,7.53563346 17.3185761,10.3488359 C14.5135994,13.1620382 13.1111111,16.6215172 13.1111111,20.7272727 C13.1111111,24.8330282 14.5135994,28.2925072 17.3185761,31.1057096 C20.1235528,33.918912 23.5729163,35.3255132 27.6666667,35.3255132 C32.5185185,35.3255132 38.5833333,35.3255132 42.2222222,35.3255132 C42.2222222,28.026393 42.2222222,13.4281525 42.2222222,6.12903226 C38.5833333,6.12903226 31.3055556,6.12903226 27.6666667,6.12903226 Z" id="paragraph" fill="#000000" fill-rule="nonzero"></path>
    </g>
</svg>