<?xml version="1.0" encoding="UTF-8"?>
<svg width="76px" height="70px" viewBox="0 0 76 70" version="1.1" xmlns="http://www.w3.org/2000/svg" xmlns:xlink="http://www.w3.org/1999/xlink">
    <!-- Generator: Sketch 48.1 (47250) - http://www.bohemiancoding.com/sketch -->
    <title>paw</title>
    <desc>Created with Sketch.</desc>
    <defs></defs>
    <g id="paw---f1b0" stroke="none" stroke-width="1" fill="none" fill-rule="evenodd" transform="translate(0.000000, -3.000000)">
        <path d="M26.9166667,3.08333333 C30.2152774,3.08333333 32.9861108,4.60069461 35.2291667,7.63541717 C37.0763889,10.2743061 38,13.5069448 38,17.3333333 C38,21.1597219 37.0763889,24.3923606 35.2291667,27.0312495 C32.9861108,30.0659721 30.2152774,31.5833333 26.9166667,31.5833333 C23.6180559,31.5833333 20.8472226,30.0659721 18.6041667,27.0312495 C16.7569444,24.3923606 15.8333333,21.1597219 15.8333333,17.3333333 C15.8333333,13.5069448 16.7569444,10.2743061 18.6041667,7.63541717 C20.8472226,4.60069461 23.6180559,3.08333333 26.9166667,3.08333333 Z M38,17.3333333 C38,13.5069448 38.9236111,10.2743061 40.7708333,7.63541717 C43.0138892,4.60069461 45.7847226,3.08333333 49.0833333,3.08333333 C52.3819441,3.08333333 55.1527774,4.60069461 57.3958333,7.63541717 C59.2430556,10.2743061 60.1666667,13.5069448 60.1666667,17.3333333 C60.1666667,21.1597219 59.2430556,24.3923606 57.3958333,27.0312495 C55.1527774,30.0659721 52.3819441,31.5833333 49.0833333,31.5833333 C45.7847226,31.5833333 43.0138892,30.0659721 40.7708333,27.0312495 C38.9236111,24.3923606 38,21.1597219 38,17.3333333 Z M26.9166667,9.41666667 C25.729167,9.41666667 24.6736114,10.0763889 23.75,11.3958333 C22.6944444,12.8472219 22.1666667,14.8263886 22.1666667,17.3333333 C22.1666667,19.8402781 22.6944444,21.8194448 23.75,23.2708333 C24.6736114,24.5902778 25.729167,25.25 26.9166667,25.25 C28.1041663,25.25 29.1597219,24.5902778 30.0833333,23.2708333 C31.1388889,21.8194448 31.6666667,19.8402781 31.6666667,17.3333333 C31.6666667,14.8263886 31.1388889,12.8472219 30.0833333,11.3958333 C29.1597219,10.0763889 28.1041663,9.41666667 26.9166667,9.41666667 Z M49.0833333,9.41666667 C47.8958337,9.41666667 46.8402781,10.0763889 45.9166667,11.3958333 C44.8611111,12.8472219 44.3333333,14.8263886 44.3333333,17.3333333 C44.3333333,19.8402781 44.8611111,21.8194448 45.9166667,23.2708333 C46.8402781,24.5902778 47.8958337,25.25 49.0833333,25.25 C50.270833,25.25 51.3263886,24.5902778 52.25,23.2708333 C53.3055556,21.8194448 53.8333333,19.8402781 53.8333333,17.3333333 C53.8333333,14.8263886 53.3055556,12.8472219 52.25,11.3958333 C51.3263886,10.0763889 50.270833,9.41666667 49.0833333,9.41666667 Z M11.0833333,25.25 C14.3819441,25.25 17.1527774,26.7673613 19.3958333,29.8020838 C21.2430556,32.4409727 22.1666667,35.6736114 22.1666667,39.5 C22.1666667,43.3263886 21.2430556,46.5590273 19.3958333,49.1979162 C17.1527774,52.2326387 14.3819441,53.75 11.0833333,53.75 C7.78472256,53.75 5.01388923,52.2326387 2.77083333,49.1979162 C0.923611111,46.5590273 0,43.3263886 0,39.5 C0,35.6736114 0.923611111,32.4409727 2.77083333,29.8020838 C5.01388923,26.7673613 7.78472256,25.25 11.0833333,25.25 Z M64.9166667,25.25 C68.2152774,25.25 70.9861108,26.7673613 73.2291667,29.8020838 C75.0763889,32.4409727 76,35.6736114 76,39.5 C76,43.3263886 75.0763889,46.5590273 73.2291667,49.1979162 C70.9861108,52.2326387 68.2152774,53.75 64.9166667,53.75 C61.6180559,53.75 58.8472226,52.2326387 56.6041667,49.1979162 C54.7569444,46.5590273 53.8333333,43.3263886 53.8333333,39.5 C53.8333333,35.6736114 54.7569444,32.4409727 56.6041667,29.8020838 C58.8472226,26.7673613 61.6180559,25.25 64.9166667,25.25 Z M11.0833333,31.5833333 C9.89583367,31.5833333 8.84027812,32.2430556 7.91666667,33.5625 C6.86111111,35.0138886 6.33333333,36.9930552 6.33333333,39.5 C6.33333333,42.0069448 6.86111111,43.9861114 7.91666667,45.4375 C8.84027812,46.7569444 9.89583367,47.4166667 11.0833333,47.4166667 C12.270833,47.4166667 13.3263886,46.7569444 14.25,45.4375 C15.3055556,43.9861114 15.8333333,42.0069448 15.8333333,39.5 C15.8333333,36.9930552 15.3055556,35.0138886 14.25,33.5625 C13.3263886,32.2430556 12.270833,31.5833333 11.0833333,31.5833333 Z M64.9166667,31.5833333 C63.729167,31.5833333 62.6736114,32.2430556 61.75,33.5625 C60.6944444,35.0138886 60.1666667,36.9930552 60.1666667,39.5 C60.1666667,42.0069448 60.6944444,43.9861114 61.75,45.4375 C62.6736114,46.7569444 63.729167,47.4166667 64.9166667,47.4166667 C66.1041663,47.4166667 67.1597219,46.7569444 68.0833333,45.4375 C69.1388889,43.9861114 69.6666667,42.0069448 69.6666667,39.5 C69.6666667,36.9930552 69.1388889,35.0138886 68.0833333,33.5625 C67.1597219,32.2430556 66.1041663,31.5833333 64.9166667,31.5833333 Z M38,37.9166667 C41.6944444,37.9166667 44.5972222,39.6319444 46.7083333,43.0625 C47.104167,43.7222226 47.5329865,44.4479172 47.9947919,45.2395838 C48.4565973,46.0312505 48.8194444,46.6909727 49.0833333,47.2187505 C49.3472222,47.7465283 49.6111111,48.0763892 49.875,48.2083333 C49.875,48.3402774 50.2048611,48.5711801 50.8645833,48.9010414 C51.5243056,49.2309027 52.3819444,49.7256946 53.4375,50.3854172 C54.6250003,50.913195 55.6805559,51.3750003 56.6041667,51.7708333 C58.583333,52.8263889 60.0347219,54.0138889 60.9583333,55.3333333 C62.5416667,57.0486108 63.3333333,59.1597219 63.3333333,61.6666667 C63.3333333,64.7013892 62.2447918,67.3072921 60.0677086,69.4843753 C57.8906254,71.6614584 55.2847226,72.75 52.25,72.75 C50.5347226,72.75 47.7638892,72.2222222 43.9375,71.1666667 C40.3750003,70.1111111 38.3958337,69.5833333 38,69.5833333 C37.6041663,69.5833333 35.6249997,70.1111111 32.0625,71.1666667 C28.2361108,72.2222222 25.4652774,72.75 23.75,72.75 C20.7152774,72.75 18.1093746,71.6614584 15.9322914,69.4843753 C13.7552082,67.3072921 12.6666667,64.7013892 12.6666667,61.6666667 C12.6666667,59.1597219 13.4583333,56.9826387 15.0416667,55.1354172 C16.0972222,53.6840279 17.5486111,52.4965276 19.3958333,51.5729162 C20.3194441,51.1770832 21.3420135,50.7152778 22.4635414,50.1875 C23.5850694,49.6597222 24.4097222,49.2638889 24.9375,49 C25.5972226,48.7361111 25.9930559,48.4722222 26.125,48.2083333 C26.2569441,48.2083333 27.3124997,46.4930556 29.2916667,43.0625 C31.4027778,39.6319444 34.3055556,37.9166667 38,37.9166667 Z M38,44.25 C36.9444444,44.25 36.2517362,44.3819444 35.9218753,44.6458333 C35.5920143,44.9097222 35.229167,45.4375 34.8333333,46.2291667 C34.5694444,46.4930556 34.2395833,47.0868056 33.84375,48.0104167 C33.4479167,48.9340278 32.9861111,49.7916667 32.4583333,50.5833333 C32.0624997,51.375 31.5347219,52.1666667 30.875,52.9583333 C29.9513886,53.75 29.0277774,54.376736 28.1041667,54.8385414 C27.1805559,55.3003468 26.1250003,55.7951384 24.9375,56.3229162 C23.7499997,56.7187498 22.958333,57.0486111 22.5625,57.3125 C21.2430556,57.9722226 20.3194444,58.5659727 19.7916667,59.0937505 C19.2638889,59.7534724 19,60.6111111 19,61.6666667 C19,62.9861111 19.4618056,64.1076389 20.3854167,65.03125 C21.3090278,65.9548611 22.4305556,66.4166667 23.75,66.4166667 C24.6736114,66.4166667 26.916667,65.8888889 30.4791667,64.8333333 C34.3055559,63.7777778 36.8125003,63.25 38,63.25 C39.1874997,63.25 41.6944441,63.7777778 45.5208333,64.8333333 C49.083333,65.8888889 51.3263886,66.4166667 52.25,66.4166667 C53.5694444,66.4166667 54.6909722,65.9548611 55.6145833,65.03125 C56.5381944,64.1076389 57,62.9861111 57,61.6666667 C57,60.7430552 56.7361111,59.9513886 56.2083333,59.2916667 C55.6805556,58.6319448 54.7569444,57.9722226 53.4375,57.3125 C53.041667,57.0486111 52.2500003,56.6857638 51.0625,56.2239581 C49.8749997,55.7621524 48.7534717,55.2673606 47.6979162,54.7395828 C46.7743054,54.211805 45.9166667,53.6180552 45.125,52.9583333 C44.4652781,52.1666667 43.9045143,51.375 43.4427086,50.5833333 C42.9809029,49.7916667 42.5520832,49 42.1562495,48.2083333 C41.7604165,47.2847219 41.4305556,46.6249997 41.1666667,46.2291667 C40.9027778,45.7013889 40.6718751,45.3055556 40.4739586,45.0416667 C40.2760421,44.7777778 39.979167,44.5798609 39.5833333,44.4479162 C39.1874997,44.3159721 38.6597219,44.25 38,44.25 Z" id="paw" fill="#000000" fill-rule="nonzero"></path>
    </g>
</svg>