<?xml version="1.0" encoding="UTF-8"?>
<svg width="68px" height="76px" viewBox="0 0 68 76" version="1.1" xmlns="http://www.w3.org/2000/svg" xmlns:xlink="http://www.w3.org/1999/xlink">
    <!-- Generator: Sketch 48.1 (47250) - http://www.bohemiancoding.com/sketch -->
    <title>percent</title>
    <desc>Created with Sketch.</desc>
    <defs></defs>
    <g id="percent---f295" stroke="none" stroke-width="1" fill="none" fill-rule="evenodd" transform="translate(-4.000000, 0.000000)">
        <path d="M62.6934307,0.53989071 C64.1824818,1.53661202 64.5961071,3.53005464 63.6034063,5.02513661 L17.8150852,74.5464481 C17.1946472,75.5016393 16.1605839,76 15.1265207,76 C14.5060827,76 13.8856448,75.8338798 13.3479319,75.4601093 C11.8588808,74.463388 11.4452555,72.4699454 12.4379562,70.9748634 L58.2262774,1.45355191 C58.8053528,0.498360656 59.8394161,0 60.8734793,0 C61.4939173,0 62.1143552,0.166120219 62.6934307,0.53989071 Z M30.3892944,14.1202186 L30.3892944,27.7836066 C30.3892944,35.0928962 24.4744526,41.031694 17.1946472,41.031694 C9.91484185,41.031694 4,35.0928962 4,27.7836066 L4,14.1202186 C4,6.81092896 9.91484185,0.872131148 17.1946472,0.872131148 C24.4744526,0.872131148 30.3892944,6.81092896 30.3892944,14.1202186 Z M10.4525547,14.1202186 L10.4525547,27.8251366 C10.4525547,31.5628415 13.4720195,34.5945355 17.1946472,34.5945355 C20.9172749,34.5945355 23.9367397,31.5628415 23.9367397,27.8251366 L23.9367397,14.1617486 C23.9367397,10.4240437 20.9172749,7.39234973 17.1946472,7.39234973 C13.4720195,7.39234973 10.4525547,10.4240437 10.4525547,14.1202186 Z M72,48.2163934 L72,61.8797814 C72,69.189071 66.0851582,75.1278689 58.8053528,75.1278689 C51.5255474,75.1278689 45.6107056,69.189071 45.6107056,61.8797814 L45.6107056,48.2163934 C45.6107056,40.9071038 51.5255474,34.968306 58.8053528,34.968306 C66.0851582,34.968306 72,40.9071038 72,48.2163934 Z M52.0632603,48.2163934 L52.0632603,61.8797814 C52.0632603,65.6174863 55.0827251,68.6491803 58.8053528,68.6491803 C62.5279805,68.6491803 65.5474453,65.6174863 65.5474453,61.8797814 L65.5474453,48.2163934 C65.5474453,44.4786885 62.5279805,41.4469945 58.8053528,41.4469945 C55.0827251,41.4469945 52.0632603,44.4786885 52.0632603,48.2163934 Z" id="percent" fill="#000000" fill-rule="nonzero"></path>
    </g>
</svg>