<?xml version="1.0" encoding="UTF-8"?>
<svg width="76px" height="76px" viewBox="0 0 76 76" version="1.1" xmlns="http://www.w3.org/2000/svg" xmlns:xlink="http://www.w3.org/1999/xlink">
    <!-- Generator: Sketch 48.1 (47250) - http://www.bohemiancoding.com/sketch -->
    <title>pie-chart</title>
    <desc>Created with Sketch.</desc>
    <defs></defs>
    <g id="pie-chart---f200" stroke="none" stroke-width="1" fill="none" fill-rule="evenodd">
        <path d="M38,0 C48.474359,0 57.4262821,3.71474359 64.8557692,11.1442308 C72.2852564,18.5737179 76,27.525641 76,38 C76,48.474359 72.2852564,57.4262821 64.8557692,64.8557692 C57.4262821,72.2852564 48.474359,76 38,76 C27.525641,76 18.5737179,72.2852564 11.1442308,64.8557692 C3.71474359,57.4262821 0,48.474359 0,38 C0,27.525641 3.71474359,18.5737179 11.1442308,11.1442308 C18.5737179,3.71474359 27.525641,0 38,0 Z M34.7115385,6.02884569 C26.5512824,6.8814101 19.7003209,10.3525641 14.1586541,16.4423077 C8.61698726,22.5320513 5.84615385,29.7179487 5.84615385,38 C5.84615385,46.8910253 8.98237187,54.472756 15.2548079,60.7451921 C21.527244,67.0176281 29.1089747,70.1538462 38,70.1538462 C45.9166664,70.1538462 52.7980765,67.7179487 58.6442303,62.8461538 C51.032051,55.2948718 41.5168268,45.8557692 35.8076923,40.1923077 C35.625,39.9182692 35.2596154,39.3701923 35.0769231,39.0961538 C35.0769231,38.8221154 35.0769231,38.2740385 35.0769231,38 C35.0769231,30.0072114 35.0769231,14.0216343 35.0769231,6.02884569 C35.0312501,6.02884569 34.9399042,6.02884569 34.8942312,6.02884569 C34.848558,6.02884569 34.848558,6.02884569 34.7115385,6.02884569 Z M40.9230769,6.02884569 C40.9230769,13.290865 40.9230769,27.8149037 40.9230769,35.0769231 C48.1850963,35.0769231 48.1850963,35.0769231 69.9711543,35.0769231 C69.2403845,27.4038458 66.1346151,20.8269228 60.6538462,15.3461538 C55.1730772,9.86538493 48.5961542,6.75961554 40.9230769,6.02884569 Z M45.1250005,40.9230769 C49.5552888,45.3533653 49.5552888,45.3533653 62.8461538,58.6442303 C66.9871795,53.6506409 69.3621796,47.7435897 69.9711543,40.9230769 C61.689103,40.9230769 51.3365389,40.9230769 45.1250005,40.9230769 Z" id="pie-chart" fill="#000000" fill-rule="nonzero"></path>
    </g>
</svg>