<?xml version="1.0" encoding="UTF-8"?>
<svg width="70px" height="76px" viewBox="0 0 70 76" version="1.1" xmlns="http://www.w3.org/2000/svg" xmlns:xlink="http://www.w3.org/1999/xlink">
    <!-- Generator: Sketch 48.1 (47250) - http://www.bohemiancoding.com/sketch -->
    <title>plane</title>
    <desc>Created with Sketch.</desc>
    <defs></defs>
    <g id="plane---f072" stroke="none" stroke-width="1" fill="none" fill-rule="evenodd" transform="translate(-3.000000, 0.000000)">
        <path d="M37.7428571,0 C40.1555556,0 42.2063492,0.844444444 43.8952381,2.53333333 C45.584127,4.22222222 46.4285714,6.27301587 46.4285714,8.68571429 C46.4285714,15.8031746 46.4285714,24.7 46.4285714,30.0380952 C52.4904762,32.752381 64.6142857,38.1809524 70.6761905,40.8952381 C71.1285714,41.0761905 72.0333333,41.4380952 72.4857143,41.6190476 C72.4857143,42.0714286 72.4857143,42.9761905 72.4857143,43.4285714 C72.4857143,45.6 72.4857143,49.9428571 72.4857143,52.1142857 C72.4857143,52.9285714 72.4857143,54.5571429 72.4857143,55.3714286 C71.6714286,55.2809524 70.0428571,55.1 69.2285714,55.0095238 C63.5285714,54.3761905 52.1285714,53.1095238 46.4285714,52.4761905 C46.4285714,53.8333333 46.4285714,56.547619 46.4285714,57.9047619 C48.2833332,59.1261906 51.9928568,61.569048 53.8476186,62.7904767 C54.1642854,63.016667 54.7976189,63.4690477 55.1142857,63.6952381 C55.1142857,64.0571429 55.1142857,64.7809524 55.1142857,65.1428571 C55.1142857,66.952381 55.1142857,70.5714286 55.1142857,72.3809524 C55.1142857,73.2857143 55.1142857,75.0952381 55.1142857,76 C54.2547618,75.8190476 52.5357139,75.4571429 51.67619,75.2761905 C48.1928568,74.552381 41.2261904,73.1047619 37.7428571,72.3809524 C34.2595239,73.1047619 27.2928575,74.552381 23.8095243,75.2761905 C22.9500003,75.4571429 21.2309525,75.8190476 20.3714286,76 C20.3714286,75.0952381 20.3714286,73.2857143 20.3714286,72.3809524 C20.3714286,70.5714286 20.3714286,66.952381 20.3714286,65.1428571 C20.3714286,64.7809524 20.3714286,64.0571429 20.3714286,63.6952381 C20.6880954,63.4690477 21.3214289,63.016667 21.6380957,62.7904767 C23.4928575,61.569048 27.2023811,59.1261906 29.0571429,57.9047619 C29.0571429,56.547619 29.0571429,53.8333333 29.0571429,52.4761905 C23.3571429,53.1095238 11.9571429,54.3761905 6.25714286,55.0095238 C5.44285714,55.1 3.81428571,55.2809524 3,55.3714286 C3,54.5571429 3,52.9285714 3,52.1142857 C3,49.9428571 3,45.6 3,43.4285714 C3,42.9761905 3,42.0714286 3,41.6190476 C3.45238095,41.4380952 4.35714286,41.0761905 4.80952381,40.8952381 C10.8714286,38.1809524 22.9952381,32.752381 29.0571429,30.0380952 C29.0571429,24.7 29.0571429,14.0238095 29.0571429,8.68571429 C29.0571429,6.27301587 29.9015873,4.22222222 31.5904762,2.53333333 C33.2793651,0.844444444 35.3301587,0 37.7428571,0 Z M37.7428571,5.79047619 C35.8126984,5.79047619 34.847619,6.75555556 34.847619,8.68571429 C34.847619,16.4063492 34.847619,26.0571429 34.847619,31.847619 C34.847619,32.3 34.847619,33.2047619 34.847619,33.6571429 C34.3952381,33.8380952 33.4904762,34.2 33.0380952,34.3809524 C26.9761905,37.0952381 14.852381,42.5238095 8.79047619,45.2380952 C8.79047619,46.1428571 8.79047619,47.952381 8.79047619,48.8571429 C14.4904762,48.2238095 25.8904762,46.9571429 31.5904762,46.3238095 C32.4047619,46.2333333 34.0333333,46.052381 34.847619,45.9619048 C34.847619,46.7761905 34.847619,48.4047619 34.847619,49.2190476 C34.847619,51.752381 34.847619,56.8190476 34.847619,59.352381 C34.847619,59.7595237 34.847619,60.5738092 34.847619,60.9809519 C34.5309523,61.2071425 33.8976187,61.6595237 33.5809519,61.8857143 C31.7261901,63.1071427 28.0166666,65.5499997 26.1619048,66.7714281 C26.1619048,67.2690473 26.1619048,68.2642856 26.1619048,68.7619048 C28.9214285,68.2190476 34.4404758,67.1333333 37.1999995,66.5904762 C37.3357139,66.5904762 37.6071427,66.5904762 37.7428571,66.5904762 C37.8785715,66.5904762 38.1500003,66.5904762 38.2857147,66.5904762 C41.0452384,67.1333333 46.5642858,68.2190476 49.3238095,68.7619048 C49.3238095,68.2642856 49.3238095,67.2690473 49.3238095,66.7714281 C47.4690477,65.5499997 43.7595242,63.1071427 41.9047624,61.8857143 C41.5880956,61.6595237 40.954762,61.2071425 40.6380952,60.9809519 C40.6380952,60.5738092 40.6380952,59.7595237 40.6380952,59.352381 C40.6380952,56.8190476 40.6380952,51.752381 40.6380952,49.2190476 C40.6380952,48.4047619 40.6380952,46.7761905 40.6380952,45.9619048 C41.452381,46.052381 43.0809524,46.2333333 43.8952381,46.3238095 C49.5952381,46.9571429 60.9952381,48.2238095 66.6952381,48.8571429 C66.6952381,47.952381 66.6952381,46.1428571 66.6952381,45.2380952 C60.6333333,42.5238095 48.5095238,37.0952381 42.447619,34.3809524 C41.9952381,34.2 41.0904762,33.8380952 40.6380952,33.6571429 C40.6380952,33.2047619 40.6380952,32.3 40.6380952,31.847619 C40.6380952,26.0571429 40.6380952,14.4761905 40.6380952,8.68571429 C40.6380952,6.75555556 39.6730159,5.79047619 37.7428571,5.79047619 Z" id="plane" fill="#000000" fill-rule="nonzero"></path>
    </g>
</svg>