<?xml version="1.0" encoding="UTF-8"?>
<svg width="59px" height="76px" viewBox="0 0 59 76" version="1.1" xmlns="http://www.w3.org/2000/svg" xmlns:xlink="http://www.w3.org/1999/xlink">
    <!-- Generator: Sketch 48.1 (47250) - http://www.bohemiancoding.com/sketch -->
    <title>play</title>
    <desc>Created with Sketch.</desc>
    <defs></defs>
    <g id="play---f04b" stroke="none" stroke-width="1" fill="none" fill-rule="evenodd" transform="translate(-9.000000, 0.000000)">
        <path d="M9,0 C10.3111111,0.873563218 12.9333333,2.62068966 14.2444444,3.49425287 C26.4814815,11.3563218 50.9555556,27.0804598 63.1925926,34.9425287 C64.3944444,35.7068966 66.7981481,37.2356322 68,38 C66.7981481,38.7643678 64.3944444,40.2931034 63.1925926,41.0574713 C50.9555556,48.9195402 26.4814815,64.6436782 14.2444444,72.5057471 C12.9333333,73.3793103 10.3111111,75.1264368 9,76 C9,74.362069 9,71.0862069 9,69.4482759 C9,53.7241379 9,22.2758621 9,6.55172414 C9,4.9137931 9,1.63793103 9,0 Z M15.9925926,12.8850569 C15.9925926,25.4425285 15.9925926,50.5574715 15.9925926,63.1149431 C25.7166667,56.8362073 45.1648148,44.2787358 54.8888889,38 C45.1648148,31.7212642 25.7166667,19.1637927 15.9925926,12.8850569 Z" id="play" fill="#000000" fill-rule="nonzero"></path>
    </g>
</svg>