<?xml version="1.0" encoding="UTF-8"?>
<svg width="76px" height="76px" viewBox="0 0 76 76" version="1.1" xmlns="http://www.w3.org/2000/svg" xmlns:xlink="http://www.w3.org/1999/xlink">
    <!-- Generator: Sketch 48.1 (47250) - http://www.bohemiancoding.com/sketch -->
    <title>plug</title>
    <desc>Created with Sketch.</desc>
    <defs></defs>
    <g id="plug---f1e6" stroke="none" stroke-width="1" fill="none" fill-rule="evenodd">
        <path d="M55.9170984,0 L60.2487047,4.33160622 L47.8445601,16.9326425 L59.0673575,28.1554399 L71.6683938,15.7512953 L76,20.0829016 L63.5958554,32.6839378 L70.880829,39.7720207 L66.1554404,44.4974093 L63.7927461,42.134715 C55.7202073,50.2072539 50.3385147,55.5889465 47.6476684,58.2797927 C45.8100173,60.1174439 43.5457687,61.0362694 40.8549225,61.0362694 C38.1640764,61.0362694 35.8341972,60.1174439 33.865285,58.2797927 C32.552677,56.9671848 30.5837651,54.9982729 27.9585492,52.373057 L4.7253886,76 L0,71.2746114 L23.626943,48.0414508 C20.6735751,45.0880829 18.7046632,43.119171 17.7202073,42.134715 C15.8825561,40.1658028 14.9637306,37.8359236 14.9637306,35.1450775 C14.9637306,32.4542313 15.8825561,30.1899827 17.7202073,28.3523316 C21.3080023,24.7645366 26.6896949,19.382844 33.865285,12.2072539 L31.5025907,9.84455959 L36.2279793,5.11917098 L43.3160622,12.4041446 L55.9170984,0 Z M38.3937829,16.5388601 C34.3575132,20.5751295 26.2849738,28.6476684 22.2487042,32.6839378 C21.5924005,33.3402415 21.2642487,34.1934365 21.2642487,35.2435228 C21.2642487,36.2936092 21.5924005,37.1468045 22.2487042,37.8031088 C27.5647665,43.1191712 34.2098444,49.7642491 38.1968912,53.7512958 C38.8531955,54.4075995 39.7063908,54.7357513 40.7564772,54.7357513 C41.8065635,54.7357513 42.6597585,54.4075995 43.3160622,53.7512958 C48.6977547,48.3696029 55.4248705,41.6424868 59.4611399,37.6062171 C54.1943006,32.3393779 43.6606221,21.8056994 38.3937829,16.5388601 Z" id="plug" fill="#000000" fill-rule="nonzero"></path>
    </g>
</svg>