<?xml version="1.0" encoding="UTF-8"?>
<svg width="65px" height="76px" viewBox="0 0 65 76" version="1.1" xmlns="http://www.w3.org/2000/svg" xmlns:xlink="http://www.w3.org/1999/xlink">
    <!-- Generator: Sketch 48.1 (47250) - http://www.bohemiancoding.com/sketch -->
    <title>podcast</title>
    <desc>Created with Sketch.</desc>
    <defs></defs>
    <g id="podcast---f2ce" stroke="none" stroke-width="1" fill="none" fill-rule="evenodd" transform="translate(-6.000000, 0.000000)">
        <path d="M48.0613513,50.4422787 C48.0613513,52.860252 47.8259734,55.6419911 47.3338196,58.7874961 C46.4565018,64.8645261 45.6861741,69.2725127 45.0014383,72.0328539 C44.3808965,74.579215 42.2410972,75.8416966 38.5606424,75.8416966 C34.8801875,75.8416966 32.7403882,74.579215 32.1198464,72.0328539 C31.4351106,69.2725127 30.6647829,64.8431282 29.7874652,58.7874961 C29.3167093,55.6847871 29.0599334,52.903048 29.0599334,50.4422787 C29.0599334,45.6919243 32.2268364,43.338145 38.5392444,43.338145 C44.8516523,43.338145 48.0613513,45.6919243 48.0613513,50.4422787 Z M71,32.4893625 C71,39.2725263 69.1169766,45.3923524 65.3295318,50.8702386 C61.542087,56.3481249 56.5991506,60.3067536 50.5007225,62.7247268 C50.2653446,62.8103188 50.0727627,62.7675228 49.8587827,62.5963389 C49.6448028,62.4251549 49.5806088,62.211175 49.6020068,61.9543991 C49.7945888,60.6063255 49.9443747,59.6648138 50.0299667,59.151262 C50.1369567,58.2525463 50.2225486,57.5892085 50.2867426,57.1612486 C50.3081406,56.9044727 50.4365286,56.7332887 50.6719065,56.6476968 C55.1654851,54.3581115 58.7603479,51.0628206 61.499291,46.7404259 C64.2168362,42.4180313 65.5863077,37.6676768 65.5863077,32.4679645 C65.5863077,27.3966401 64.3024281,22.7318776 61.734669,18.473677 C59.1669098,14.2154763 55.6790369,10.9201854 51.2710503,8.54500812 C46.8630637,6.16983088 42.1127092,5.12132921 36.9985888,5.42090112 C33.489318,5.61348305 30.151231,6.46940278 26.9629301,8.01005829 C23.7746291,9.5507138 21.0570839,11.5193292 18.7674987,13.9587004 C16.4779134,16.3980716 14.680482,19.2440047 13.3538064,22.5178977 C12.0271308,25.7917906 11.363793,29.1726735 11.385191,32.7033424 C11.406589,37.9030548 12.8188566,42.6534092 15.5791977,46.9544059 C18.3395388,51.2554025 21.9771976,54.5292954 26.4707762,56.7546867 C26.6633581,56.8402787 26.7917461,57.0114627 26.8559401,57.2682386 C26.9415321,57.8673824 27.027124,58.4879242 27.112716,59.17266 C27.134114,59.4294359 27.219706,59.8787937 27.3266959,60.5421315 C27.4336859,61.2054693 27.5192779,61.6976232 27.5834719,62.039991 C27.6048698,62.296767 27.5192779,62.5107469 27.3052979,62.6819308 C27.091318,62.8531148 26.8773381,62.8745128 26.6419602,62.7675228 C22.4693515,61.1198773 18.7888967,58.7447001 15.6005957,55.5991951 C12.4122947,52.4536901 9.95152548,48.7304393 8.26108402,44.4294427 C6.57064256,40.128446 5.8217128,35.6134695 6.03569273,30.905911 C6.22827467,26.8616903 7.16978637,23.0100515 8.83882983,19.3295967 C10.5078733,15.6491419 12.6904686,12.4394429 15.3866157,9.72189774 C18.0827629,7.00435261 21.2496659,4.77896132 24.9087227,3.04572387 C28.5677795,1.31248643 32.4194183,0.32817874 36.442241,0.0714028221 C41.0428096,-0.228169082 45.4935921,0.413770713 49.7731908,2.0186202 C54.0527894,3.62346969 57.7332442,5.87025897 60.8145553,8.82318203 C63.8958663,11.7761051 66.3780335,15.285376 68.2182609,19.4365866 C70.0798863,23.5663993 71,27.9101919 71,32.4893625 Z M48.0613513,31.1198909 C48.0613513,33.7518441 47.1412376,35.9772354 45.2796122,37.8388608 C43.4393848,39.6790882 41.1925955,40.6205999 38.5606424,40.6205999 C35.9286892,40.6205999 33.7032979,39.7004862 31.8416725,37.8388608 C29.9800471,35.9772354 29.0599334,33.7518441 29.0599334,31.1198909 C29.0599334,28.4879378 29.9800471,26.2625465 31.8416725,24.4009211 C33.7032979,22.5392957 35.9286892,21.6191819 38.5606424,21.6191819 C41.1925955,21.6191819 43.4179868,22.5392957 45.2796122,24.4009211 C47.1412376,26.2625465 48.0613513,28.5093357 48.0613513,31.1198909 Z M60.2582074,32.4893625 C60.2582074,35.9344394 59.5092777,39.1655363 57.9900202,42.1612554 C56.4707626,45.1569744 54.4165553,47.6819376 51.7846021,49.671951 C51.5492242,49.8431349 51.3352443,49.8645329 51.0998663,49.757543 C50.8644884,49.650553 50.7361005,49.4365731 50.6719065,49.1583992 C50.5007225,47.6819376 50.0941607,46.398058 49.4522209,45.2639644 C49.2596389,44.9857905 49.3024349,44.7076166 49.5806088,44.4080447 C51.2282543,42.8887872 52.5121339,41.0913557 53.4322476,39.0371484 C54.3523613,36.982941 54.8231172,34.7789477 54.8231172,32.4679645 C54.8231172,29.3438575 53.9885954,26.4551284 52.34095,23.8231752 C50.6933045,21.1912221 48.4679132,19.2012087 45.6647761,17.8317372 C42.861639,16.4622656 39.8873179,15.9487138 36.677619,16.2910816 C32.9329701,16.7190415 29.6804752,18.302493 26.984328,21.0842321 C24.2667829,23.8445732 22.7261274,27.1184662 22.3623615,30.863115 C22.0841876,33.4522722 22.4051575,35.9344394 23.3680672,38.3096166 C24.3095789,40.6847939 25.7004485,42.7176032 27.5406759,44.4080447 C27.8188498,44.6862186 27.8616458,44.9643925 27.6690638,45.2639644 C26.984328,46.419456 26.5777662,47.7247336 26.4493782,49.2011951 C26.3851842,49.4579711 26.2567963,49.629155 26.0214184,49.757543 C25.7860404,49.8859309 25.5720605,49.8431349 25.3366826,49.671951 C22.6619334,47.5749477 20.5649301,45.0071885 19.0456726,41.9258775 C17.5264151,38.8445665 16.7988833,35.5492755 16.8630773,32.0186066 C16.9486692,28.3167538 17.9115789,24.8716769 19.7946023,21.6833759 C21.6776257,18.4950749 24.1597929,15.9273158 27.2838999,14.0014964 C30.408007,12.075677 33.8102879,11.0057773 37.4907427,10.8559914 C41.5563614,10.6634094 45.3438062,11.4979312 48.8316791,13.4023526 C52.319552,15.306774 55.1012911,17.9387271 57.1554984,21.341008 C59.2311038,24.721891 60.2582074,28.4451418 60.2582074,32.4893625 Z" id="podcast" fill="#000000" fill-rule="nonzero"></path>
    </g>
</svg>