<?xml version="1.0" encoding="UTF-8"?>
<svg width="76px" height="76px" viewBox="0 0 76 76" version="1.1" xmlns="http://www.w3.org/2000/svg" xmlns:xlink="http://www.w3.org/1999/xlink">
    <!-- Generator: Sketch 48.1 (47250) - http://www.bohemiancoding.com/sketch -->
    <title>power-off</title>
    <desc>Created with Sketch.</desc>
    <defs></defs>
    <g id="power-off---f011" stroke="none" stroke-width="1" fill="none" fill-rule="evenodd">
        <path d="M51,2.20211403 C56.0651622,4.04225545 60.6710651,7.03564791 64.8177086,11.1822914 C72.2725695,18.6371524 76,27.5763886 76,38 C76,48.4236114 72.2725695,57.3628476 64.8177086,64.8177086 C57.3628476,72.2725695 48.4236114,76 38,76 C27.5763886,76 18.6371524,72.2725695 11.1822914,64.8177086 C3.72743047,57.3628476 0,48.4236114 0,38 C0,27.5763886 3.72743047,18.6371524 11.1822914,11.1822914 C15.3289349,7.03564791 19.9348378,4.04225545 25,2.20211403 L25,8.67417663 C21.5241952,10.2338637 18.3241952,12.4758048 15.4,15.4 C9.13333333,21.6666667 6,29.2 6,38 C6,46.8 9.13333333,54.3333333 15.4,60.6 C21.6666667,66.8666667 29.2,70 38,70 C46.8,70 54.3333333,66.8666667 60.6,60.6 C66.8666667,54.3333333 70,46.8 70,38 C70,29.2 66.8666667,21.6666667 60.6,15.4 C57.6758048,12.4758048 54.4758048,10.2338637 51,8.67417663 L51,2.20211403 Z M35,2.66453526e-15 C36.5,2.66453526e-15 39.5,2.66453526e-15 41,2.66453526e-15 C41,9.5 41,28.5 41,38 C39.5,38 36.5,38 35,38 C35,28.5 35,9.5 35,2.66453526e-15 Z" id="power-off" fill="#000000"></path>
    </g>
</svg>