<?xml version="1.0" encoding="UTF-8"?>
<svg width="76px" height="52px" viewBox="0 0 76 52" version="1.1" xmlns="http://www.w3.org/2000/svg" xmlns:xlink="http://www.w3.org/1999/xlink">
    <!-- Generator: Sketch 48.1 (47250) - http://www.bohemiancoding.com/sketch -->
    <title>print</title>
    <desc>Created with Sketch.</desc>
    <defs></defs>
    <g id="print---f02f" stroke="none" stroke-width="1" fill="none" fill-rule="evenodd" transform="translate(0.000000, -12.000000)">
        <path d="M60.1666667,12 C63.3333333,12 65.4444444,12 66.5,12 C69.1388889,12 71.3819444,12.9236111 73.2291667,14.7708333 C75.0763889,16.6180556 76,18.8611111 76,21.5 C76,27.8333333 76,38.3333333 76,53 L70,53 L76,64 L0,64 L6,53 L0,53 C0,36.75 0,26.25 0,21.5 C0,18.8611111 0.923611111,16.6180556 2.77083333,14.7708333 C4.61805556,12.9236111 6.86111111,12 9.5,12 C10.9074074,12 13.0185185,12 15.8333333,12 L60.1666667,12 Z M10,18 C7.86666667,18 6,19.8641975 6,22 C6,27.6954733 6,36.0288066 6,47 L9,47 L15,36 L61,36 L67,47 L70,47 C70,34.6049383 70,26.2716049 70,22 C70,19.8641975 68.1333333,18 66,18 C46.8,18 24.4,18 10,18 Z M64.1666667,22 C64.7986113,22 65.3177086,22.2031249 65.7239585,22.6093748 C66.1302084,23.0156247 66.3333333,23.534722 66.3333333,24.1666667 C66.3333333,24.7986113 66.1302084,25.3177086 65.7239585,25.7239585 C65.3177086,26.1302084 64.7986113,26.3333333 64.1666667,26.3333333 C63.534722,26.3333333 63.0156247,26.1302084 62.6093748,25.7239585 C62.2031249,25.3177086 62,24.7986113 62,24.1666667 C62,23.534722 62.2031249,23.0156247 62.6093748,22.6093748 C63.0156247,22.2031249 63.534722,22 64.1666667,22 Z M64.1666667,29 C64.7986113,29 65.3177086,29.2031249 65.7239585,29.6093748 C66.1302084,30.0156247 66.3333333,30.534722 66.3333333,31.1666667 C66.3333333,31.7986113 66.1302084,32.3177086 65.7239585,32.7239585 C65.3177086,33.1302084 64.7986113,33.3333333 64.1666667,33.3333333 C63.534722,33.3333333 63.0156247,33.1302084 62.6093748,32.7239585 C62.2031249,32.3177086 62,31.7986113 62,31.1666667 C62,30.534722 62.2031249,30.0156247 62.6093748,29.6093748 C63.0156247,29.2031249 63.534722,29 64.1666667,29 Z M18,40 L7,60 L69,60 L58,40 L18,40 Z" id="print" fill="#000000" fill-rule="nonzero"></path>
    </g>
</svg>