<?xml version="1.0" encoding="UTF-8"?>
<svg width="76px" height="76px" viewBox="0 0 76 76" version="1.1" xmlns="http://www.w3.org/2000/svg" xmlns:xlink="http://www.w3.org/1999/xlink">
    <!-- Generator: Sketch 48.1 (47250) - http://www.bohemiancoding.com/sketch -->
    <title>puzzle-piece</title>
    <desc>Created with Sketch.</desc>
    <defs></defs>
    <g id="puzzle-piece---f12e" stroke="none" stroke-width="1" fill="none" fill-rule="evenodd">
        <path d="M0,24 C0,21.9332713 1.93060662,20 4,20 L18.9582312,20 C24.0215993,20 24.910335,15.5300177 22.3199551,12.5980341 C18.0550449,7.77179137 20.3398182,0.32265385 28.0993158,0 C35.8597835,0.32362278 38.1445568,7.7853564 33.8796467,12.6106302 C31.2892667,15.5416449 32.9366319,20 38,20 L52,20 C54.0703636,20 56,21.9332713 56,24 L56,38 C56,43.0568482 60.5304841,44.5795224 63.4672181,41.993447 C68.2987132,37.7340286 75.67596,40.0148909 76,47.7643969 C75.67596,55.5148718 68.2628166,57.7967031 63.4313215,53.5372847 C60.497498,50.9512093 56,51.9431518 56,57 L56,72 C56,74.0667287 54.0703636,76 52,76 L4,76 C1.93060662,76 0,74.0667287 0,72 L0,24 Z M6,29 L6,67.037852 C6,68.6422862 7.31352124,70 8.920024,70 L47.1997294,69.962148 C48.8069853,69.962148 50,68.6044341 50,67 L50,28.7507809 C50,27.1463467 48.6072559,26 47,26 L9.03667535,26 C7.43017259,26 6,27.3955659 6,29 Z" id="puzzle-piece" fill="#000000" fill-rule="nonzero"></path>
    </g>
</svg>