<?xml version="1.0" encoding="UTF-8"?>
<svg width="76px" height="76px" viewBox="0 0 76 76" version="1.1" xmlns="http://www.w3.org/2000/svg" xmlns:xlink="http://www.w3.org/1999/xlink">
    <!-- Generator: Sketch 48.1 (47250) - http://www.bohemiancoding.com/sketch -->
    <title>qrcode</title>
    <desc>Created with Sketch.</desc>
    <defs></defs>
    <g id="qrcode---f029" stroke="none" stroke-width="1" fill="none" fill-rule="evenodd">
        <path d="M0,0 C0.863636364,0 2.59090909,0 3.45454545,0 C8.63636364,0 19,0 24.1818182,0 C25.0454545,0 26.7727273,0 27.6363636,0 C27.6363636,0.863636364 27.6363636,2.59090909 27.6363636,3.45454545 C27.6363636,8.63636364 27.6363636,19 27.6363636,24.1818182 C27.6363636,25.0454545 27.6363636,26.7727273 27.6363636,27.6363636 C26.7727273,27.6363636 25.0454545,27.6363636 24.1818182,27.6363636 C21.5909091,27.6363636 16.4090909,27.6363636 13.8181818,27.6363636 C13.8181818,29.3636364 13.8181818,32.8181818 13.8181818,34.5454545 C12.0909091,34.5454545 8.63636364,34.5454545 6.90909091,34.5454545 C6.90909091,32.8181818 6.90909091,29.3636364 6.90909091,27.6363636 C6.04545455,27.6363636 4.31818182,27.6363636 3.45454545,27.6363636 C2.59090909,27.6363636 0.863636364,27.6363636 0,27.6363636 C0,26.7727273 0,25.0454545 0,24.1818182 C0,19 0,8.63636364 0,3.45454545 C0,2.59090909 0,0.863636364 0,0 Z M27.6363636,27.6363636 C32.8181818,27.6363636 43.1818182,27.6363636 48.3636364,27.6363636 C48.3636364,26.7727273 48.3636364,25.0454545 48.3636364,24.1818182 C48.3636364,19 48.3636364,8.63636364 48.3636364,3.45454545 C48.3636364,2.59090909 48.3636364,0.863636364 48.3636364,0 C49.2272727,0 50.9545455,0 51.8181818,0 C57,0 67.3636364,0 72.5454545,0 C73.4090909,0 75.1363636,0 76,0 C76,0.863636364 76,2.59090909 76,3.45454545 C76,8.63636364 76,19 76,24.1818182 C76,25.0454545 76,26.7727273 76,27.6363636 C75.1363636,27.6363636 73.4090909,27.6363636 72.5454545,27.6363636 C71.6818182,27.6363636 69.9545455,27.6363636 69.0909091,27.6363636 C69.0909091,29.3636364 69.0909091,32.8181818 69.0909091,34.5454545 C67.3636364,34.5454545 63.9090909,34.5454545 62.1818182,34.5454545 C62.1818182,32.8181818 62.1818182,29.3636364 62.1818182,27.6363636 C60.4545455,27.6363636 57,27.6363636 55.2727273,27.6363636 C55.2727273,29.3636364 55.2727273,32.8181818 55.2727273,34.5454545 C51.8181818,34.5454545 44.9090909,34.5454545 41.4545455,34.5454545 C41.4545455,36.2727273 41.4545455,39.7272727 41.4545455,41.4545455 C43.1818182,41.4545455 46.6363636,41.4545455 48.3636364,41.4545455 C48.3636364,43.1818182 48.3636364,46.6363636 48.3636364,48.3636364 C43.1818182,48.3636364 32.8181818,48.3636364 27.6363636,48.3636364 C27.6363636,49.2272727 27.6363636,50.9545455 27.6363636,51.8181818 C27.6363636,57 27.6363636,67.3636364 27.6363636,72.5454545 C27.6363636,73.4090909 27.6363636,75.1363636 27.6363636,76 C26.7727273,76 25.0454545,76 24.1818182,76 C19,76 8.63636364,76 3.45454545,76 C2.59090909,76 0.863636364,76 0,76 C0,75.1363636 0,73.4090909 0,72.5454545 C0,67.3636364 0,57 0,51.8181818 C0,50.9545455 0,49.2272727 0,48.3636364 C0.863636364,48.3636364 2.59090909,48.3636364 3.45454545,48.3636364 C7.77272727,48.3636364 16.4090909,48.3636364 20.7272727,48.3636364 C20.7272727,46.6363636 20.7272727,43.1818182 20.7272727,41.4545455 C24.1818182,41.4545455 31.0909091,41.4545455 34.5454545,41.4545455 C34.5454545,39.7272727 34.5454545,36.2727273 34.5454545,34.5454545 C32.8181818,34.5454545 29.3636364,34.5454545 27.6363636,34.5454545 C27.6363636,32.8181818 27.6363636,29.3636364 27.6363636,27.6363636 Z M69.0909091,34.5454545 C70.8181818,34.5454545 74.2727273,34.5454545 76,34.5454545 C76,36.2727273 76,39.7272727 76,41.4545455 C74.2727273,41.4545455 70.8181818,41.4545455 69.0909091,41.4545455 C69.0909091,39.7272727 69.0909091,36.2727273 69.0909091,34.5454545 Z M69.0909091,41.4545455 C69.0909091,43.1818182 69.0909091,46.6363636 69.0909091,48.3636364 C67.3636364,48.3636364 63.9090909,48.3636364 62.1818182,48.3636364 C62.1818182,46.6363636 62.1818182,43.1818182 62.1818182,41.4545455 C63.9090909,41.4545455 67.3636364,41.4545455 69.0909091,41.4545455 Z M69.0909091,48.3636364 C70.8181818,48.3636364 74.2727273,48.3636364 76,48.3636364 C76,50.0909091 76,53.5454545 76,55.2727273 C74.2727273,55.2727273 70.8181818,55.2727273 69.0909091,55.2727273 C69.0909091,53.5454545 69.0909091,50.0909091 69.0909091,48.3636364 Z M69.0909091,55.2727273 C69.0909091,57 69.0909091,60.4545455 69.0909091,62.1818182 C68.2272727,62.1818182 66.5,62.1818182 65.6363636,62.1818182 C65.6363636,63.9090909 65.6363636,67.3636364 65.6363636,69.0909091 C63.9090909,69.0909091 60.4545455,69.0909091 58.7272727,69.0909091 C58.7272727,67.3636364 58.7272727,63.9090909 58.7272727,62.1818182 C55.2727273,62.1818182 48.3636364,62.1818182 44.9090909,62.1818182 C44.9090909,65.6363636 44.9090909,72.5454545 44.9090909,76 C43.1818182,76 39.7272727,76 38,76 C38,70.8181818 38,60.4545455 38,55.2727273 C39.7272727,55.2727273 43.1818182,55.2727273 44.9090909,55.2727273 C47.5,55.2727273 52.6818182,55.2727273 55.2727273,55.2727273 C55.2727273,53.5454545 55.2727273,50.0909091 55.2727273,48.3636364 C57,48.3636364 60.4545455,48.3636364 62.1818182,48.3636364 C62.1818182,50.0909091 62.1818182,53.5454545 62.1818182,55.2727273 C63.9090909,55.2727273 67.3636364,55.2727273 69.0909091,55.2727273 Z M58.7272727,69.0909091 C58.7272727,70.8181818 58.7272727,74.2727273 58.7272727,76 C57,76 53.5454545,76 51.8181818,76 C51.8181818,74.2727273 51.8181818,70.8181818 51.8181818,69.0909091 C53.5454545,69.0909091 57,69.0909091 58.7272727,69.0909091 Z M62.1818182,41.4545455 C60.4545455,41.4545455 57,41.4545455 55.2727273,41.4545455 C55.2727273,39.7272727 55.2727273,36.2727273 55.2727273,34.5454545 C57,34.5454545 60.4545455,34.5454545 62.1818182,34.5454545 C62.1818182,36.2727273 62.1818182,39.7272727 62.1818182,41.4545455 Z M20.7272727,41.4545455 C19,41.4545455 15.5454545,41.4545455 13.8181818,41.4545455 C13.8181818,39.7272727 13.8181818,36.2727273 13.8181818,34.5454545 C15.5454545,34.5454545 19,34.5454545 20.7272727,34.5454545 C20.7272727,36.2727273 20.7272727,39.7272727 20.7272727,41.4545455 Z M6.90909091,34.5454545 C6.90909091,36.2727273 6.90909091,39.7272727 6.90909091,41.4545455 C5.18181818,41.4545455 1.72727273,41.4545455 0,41.4545455 C0,39.7272727 0,36.2727273 0,34.5454545 C1.72727273,34.5454545 5.18181818,34.5454545 6.90909091,34.5454545 Z M34.5454545,0 C36.2727273,0 39.7272727,0 41.4545455,0 C41.4545455,1.72727273 41.4545455,5.18181818 41.4545455,6.90909091 C42.3181818,6.90909091 44.0454545,6.90909091 44.9090909,6.90909091 C44.9090909,8.63636364 44.9090909,12.0909091 44.9090909,13.8181818 C44.0454545,13.8181818 42.3181818,13.8181818 41.4545455,13.8181818 C41.4545455,16.4090909 41.4545455,21.5909091 41.4545455,24.1818182 C39.7272727,24.1818182 36.2727273,24.1818182 34.5454545,24.1818182 C34.5454545,23.3181818 34.5454545,21.5909091 34.5454545,20.7272727 C33.6818182,20.7272727 31.9545455,20.7272727 31.0909091,20.7272727 C31.0909091,19 31.0909091,15.5454545 31.0909091,13.8181818 C31.9545455,13.8181818 33.6818182,13.8181818 34.5454545,13.8181818 C34.5454545,10.3636364 34.5454545,3.45454545 34.5454545,0 Z M6.90909091,6.90909091 C6.90909091,10.3636364 6.90909091,17.2727273 6.90909091,20.7272727 C10.3636364,20.7272727 17.2727273,20.7272727 20.7272727,20.7272727 C20.7272727,17.2727273 20.7272727,10.3636364 20.7272727,6.90909091 C17.2727273,6.90909091 10.3636364,6.90909091 6.90909091,6.90909091 Z M55.2727273,6.90909091 C55.2727273,10.3636364 55.2727273,17.2727273 55.2727273,20.7272727 C58.7272727,20.7272727 65.6363636,20.7272727 69.0909091,20.7272727 C69.0909091,17.2727273 69.0909091,10.3636364 69.0909091,6.90909091 C65.6363636,6.90909091 58.7272727,6.90909091 55.2727273,6.90909091 Z M10.3636364,10.3636364 C12.0909091,10.3636364 15.5454545,10.3636364 17.2727273,10.3636364 C17.2727273,12.0909091 17.2727273,15.5454545 17.2727273,17.2727273 C15.5454545,17.2727273 12.0909091,17.2727273 10.3636364,17.2727273 C10.3636364,15.5454545 10.3636364,12.0909091 10.3636364,10.3636364 Z M58.7272727,10.3636364 C60.4545455,10.3636364 63.9090909,10.3636364 65.6363636,10.3636364 C65.6363636,12.0909091 65.6363636,15.5454545 65.6363636,17.2727273 C63.9090909,17.2727273 60.4545455,17.2727273 58.7272727,17.2727273 C58.7272727,15.5454545 58.7272727,12.0909091 58.7272727,10.3636364 Z M6.90909091,55.2727273 C6.90909091,58.7272727 6.90909091,65.6363636 6.90909091,69.0909091 C10.3636364,69.0909091 17.2727273,69.0909091 20.7272727,69.0909091 C20.7272727,65.6363636 20.7272727,58.7272727 20.7272727,55.2727273 C17.2727273,55.2727273 10.3636364,55.2727273 6.90909091,55.2727273 Z M10.3636364,58.7272727 C12.0909091,58.7272727 15.5454545,58.7272727 17.2727273,58.7272727 C17.2727273,60.4545455 17.2727273,63.9090909 17.2727273,65.6363636 C15.5454545,65.6363636 12.0909091,65.6363636 10.3636364,65.6363636 C10.3636364,63.9090909 10.3636364,60.4545455 10.3636364,58.7272727 Z M69.0909091,69.0909091 C70.8181818,69.0909091 74.2727273,69.0909091 76,69.0909091 C76,70.8181818 76,74.2727273 76,76 C74.2727273,76 70.8181818,76 69.0909091,76 C69.0909091,74.2727273 69.0909091,70.8181818 69.0909091,69.0909091 Z" id="qrcode" fill="#000000" fill-rule="nonzero"></path>
    </g>
</svg>