<?xml version="1.0" encoding="UTF-8"?>
<svg width="76px" height="76px" viewBox="0 0 76 76" version="1.1" xmlns="http://www.w3.org/2000/svg" xmlns:xlink="http://www.w3.org/1999/xlink">
    <!-- Generator: Sketch 48.1 (47250) - http://www.bohemiancoding.com/sketch -->
    <title>question-circle</title>
    <desc>Created with Sketch.</desc>
    <defs></defs>
    <g id="question-circle---f059" stroke="none" stroke-width="1" fill="none" fill-rule="evenodd">
        <path d="M38,0 C48.4236114,0 57.3628476,3.72743047 64.8177086,11.1822914 C72.2725695,18.6371524 76,27.5763886 76,38 C76,48.4236114 72.2725695,57.3628476 64.8177086,64.8177086 C57.3628476,72.2725695 48.4236114,76 38,76 C27.5763886,76 18.6371524,72.2725695 11.1822914,64.8177086 C3.72743047,57.3628476 0,48.4236114 0,38 C0,27.5763886 3.72743047,18.6371524 11.1822914,11.1822914 C18.6371524,3.72743047 27.5763886,0 38,0 Z M38,5.9375 C29.1828125,5.9375 21.6347656,9.07695313 15.3558594,15.3558594 C9.07695313,21.6347656 5.9375,29.1828125 5.9375,38 C5.9375,46.8171875 9.07695313,54.3652344 15.3558594,60.6441406 C21.6347656,66.9230469 29.1828125,70.0625 38,70.0625 C46.8171875,70.0625 54.3652344,66.9230469 60.6441406,60.6441406 C66.9230469,54.3652344 70.0625,46.8171875 70.0625,38 C70.0625,29.1828125 66.9230469,21.6347656 60.6441406,15.3558594 C54.3652344,9.07695313 46.8171875,5.9375 38,5.9375 Z M40.6619048,47.2222222 L34.8428571,47.2222222 L34.8428571,44.2592593 C34.8428571,43.1892951 34.9460307,42.2222265 35.152381,41.3580247 C35.3587312,40.4938228 35.6579345,39.7119377 36.05,39.0123457 C36.4420655,38.3127537 36.9166639,37.6440361 37.4738095,37.0061728 C38.0309552,36.3683096 38.660314,35.7201679 39.3619048,35.0617284 L41.652381,32.9012346 C42.560322,32.1193377 43.3134891,31.2654367 43.9119048,30.3395062 C44.5103205,29.4135756 44.8095238,28.2304599 44.8095238,26.7901235 C44.8095238,24.8148049 44.180165,23.2407466 42.9214286,22.0679012 C41.6626921,20.8950559 40.042867,20.308642 38.0619048,20.308642 C35.9984024,20.308642 34.3476252,20.9670716 33.1095238,22.2839506 C31.8714224,23.6008296 31.1492074,25.2057519 30.9428571,27.0987654 L25,26.4197531 C25.2476203,24.6501969 25.7634881,23.0555627 26.547619,21.6358025 C27.33175,20.2160423 28.3118989,19.0123506 29.4880952,18.0246914 C30.6642916,17.0370321 32.0158654,16.2860108 33.5428571,15.7716049 C35.0698489,15.2571991 36.6999913,15 38.4333333,15 C40.1666753,15 41.7865004,15.2469111 43.2928571,15.7407407 C44.7992139,16.2345704 46.130153,16.9650157 47.2857143,17.9320988 C48.4412756,18.8991818 49.349203,20.0925855 50.0095238,21.5123457 C50.6698446,22.9321059 51,24.567892 51,26.4197531 C51,27.7366321 50.855557,28.888884 50.5666667,29.8765432 C50.2777763,30.8642025 49.8753994,31.7592552 49.3595238,32.5617284 C48.8436482,33.3642015 48.2142894,34.1152228 47.4714286,34.8148148 C46.7285677,35.5144068 45.9238139,36.2345642 45.0571429,36.9753086 C44.2317419,37.6749006 43.5301616,38.3024664 42.952381,38.8580247 C42.3746003,39.413583 41.9206366,39.979421 41.5904762,40.5555556 C41.2603158,41.1316901 41.0230166,41.7695438 40.8785714,42.4691358 C40.7341263,43.1687278 40.6619048,44.0329167 40.6619048,45.0617284 L40.6619048,47.2222222 Z M42.2095238,55.9259259 C42.2095238,56.9958901 41.8174642,57.9423827 41.0333333,58.7654321 C40.2492024,59.5884815 39.2587361,60 38.0619048,60 C36.9063434,60 35.9261945,59.5987694 35.1214286,58.7962963 C34.3166626,57.9938231 33.9142857,57.0576185 33.9142857,55.9876543 C33.9142857,54.8765377 34.3063453,53.9197571 35.0904762,53.117284 C35.8746071,52.3148108 36.8650734,51.9135802 38.0619048,51.9135802 C39.2587361,51.9135802 40.2492024,52.3045228 41.0333333,53.0864198 C41.8174642,53.8683167 42.2095238,54.8148093 42.2095238,55.9259259 Z" id="question-circle" fill="#000000" fill-rule="nonzero"></path>
    </g>
</svg>