<?xml version="1.0" encoding="UTF-8"?>
<svg width="44px" height="76px" viewBox="0 0 44 76" version="1.1" xmlns="http://www.w3.org/2000/svg" xmlns:xlink="http://www.w3.org/1999/xlink">
    <!-- Generator: Sketch 48.1 (47250) - http://www.bohemiancoding.com/sketch -->
    <title>question</title>
    <desc>Created with Sketch.</desc>
    <defs></defs>
    <g id="question---f128" stroke="none" stroke-width="1" fill="none" fill-rule="evenodd" transform="translate(-16.000000, 0.000000)">
        <path d="M42.3758573,54.4197531 L32.5761317,54.4197531 L32.5761317,49.4156379 C32.5761317,47.6085872 32.749884,45.9753159 33.0973937,44.515775 C33.4449034,43.0562341 33.948785,41.7357169 34.6090535,40.5541838 C35.269322,39.3726507 36.0685824,38.243261 37.0068587,37.1659808 C37.945135,36.0887006 39.0050238,34.9940613 40.1865569,33.8820302 L44.0438957,30.2331962 C45.5729386,28.9126591 46.8413301,27.4705154 47.8491084,25.9067215 C48.8568866,24.3429277 49.3607682,22.3447767 49.3607682,19.9122085 C49.3607682,16.576115 48.3008794,13.9177054 46.18107,11.9368999 C44.0612605,9.95609435 41.33335,8.96570645 37.9972565,8.96570645 C34.5221591,8.96570645 31.7421229,10.0777209 29.6570645,12.3017833 C27.572006,14.5258456 26.3557402,17.2363809 26.0082305,20.4334705 L16,19.2866941 C16.4170117,16.2981103 17.285773,13.6049503 18.60631,11.2071331 C19.926847,8.80931586 21.5774935,6.77641438 23.558299,5.10836763 C25.5391046,3.44032088 27.8152592,2.17192936 30.3868313,1.30315501 C32.9584033,0.434380658 35.7036891,0 38.6227709,0 C41.5418527,0 44.2697633,0.417005432 46.8065844,1.25102881 C49.3434055,2.08505218 51.5848097,3.31869325 53.5308642,4.95198903 C55.4769187,6.5852848 57.0059387,8.60081106 58.1179698,10.9986283 C59.230001,13.3964455 59.7860082,16.1591064 59.7860082,19.2866941 C59.7860082,21.5107564 59.5427551,23.4567818 59.0562414,25.1248285 C58.5697278,26.7928753 57.892094,28.30452 57.0233196,29.659808 C56.1545453,31.0150959 55.0946565,32.2834875 53.8436214,33.4650206 C52.5925863,34.6465537 51.2373187,35.8628195 49.7777778,37.1138546 C48.3877388,38.2953877 47.2062234,39.3552765 46.2331962,40.2935528 C45.2601689,41.2318291 44.4956589,42.1874666 43.9396433,43.1604938 C43.3836278,44.1335211 42.9839976,45.2107851 42.7407407,46.3923182 C42.4974839,47.5738514 42.3758573,49.0333704 42.3758573,50.7709191 L42.3758573,54.4197531 Z M44.9821674,69.1193416 C44.9821674,70.9263922 44.3219088,72.524913 43.0013717,73.914952 C41.6808347,75.3049909 40.012813,76 37.9972565,76 C36.051202,76 34.4005555,75.3223662 33.0452675,73.9670782 C31.6899795,72.6117902 31.0123457,71.0306446 31.0123457,69.223594 C31.0123457,67.3470414 31.6726043,65.7311453 32.9931413,64.3758573 C34.3136783,63.0205694 35.9817,62.3429355 37.9972565,62.3429355 C40.012813,62.3429355 41.6808347,63.0031941 43.0013717,64.3237311 C44.3219088,65.6442681 44.9821674,67.242789 44.9821674,69.1193416 Z" id="question" fill="#000000"></path>
    </g>
</svg>