<?xml version="1.0" encoding="UTF-8"?>
<svg width="76px" height="51px" viewBox="0 0 76 51" version="1.1" xmlns="http://www.w3.org/2000/svg" xmlns:xlink="http://www.w3.org/1999/xlink">
    <!-- Generator: Sketch 48.1 (47250) - http://www.bohemiancoding.com/sketch -->
    <title>quote-right</title>
    <desc>Created with Sketch.</desc>
    <defs></defs>
    <g id="quote-right---f10e" stroke="none" stroke-width="1" fill="none" fill-rule="evenodd" transform="translate(0.000000, -13.000000)">
        <path d="M0,13 C0.8,13 2.4,13 3.2,13 C9.6,13 22.4,13 28.8,13 C29.6,13 31.2,13 32,13 C32,13.796875 32,15.390625 32,16.1875 C32,23.359375 32,37.703125 32,44.875 C32,50.1875 30.1333333,54.703125 26.4,58.421875 C22.6666667,62.140625 18.1333333,64 12.8,64 C12.8,61.875 12.8,59.21875 12.8,57.625 C16.4000003,57.625 19.4333338,56.3964845 21.9000003,53.9394534 C24.3666668,51.4824223 25.6,48.4609378 25.6,44.875 C18.1333333,44.875 8.8,44.875 3.2,44.875 C2.4,44.875 0.8,44.875 0,44.875 C0,44.078125 0,42.484375 0,41.6875 C0,35.3125 0,22.5625 0,16.1875 C0,15.390625 0,13.796875 0,13 Z M44,13 C44.8,13 46.4,13 47.2,13 C53.6,13 66.4,13 72.8,13 C73.6,13 75.2,13 76,13 C76,13.796875 76,15.390625 76,16.1875 C76,23.359375 76,37.703125 76,44.875 C76,50.1875 74.1333333,54.703125 70.4,58.421875 C66.6666667,62.140625 62.1333333,64 56.8,64 C56.8,61.875 56.8,59.21875 56.8,57.625 C60.4000003,57.625 63.4333338,56.3964845 65.9000003,53.9394534 C68.3666668,51.4824223 69.6,48.4609378 69.6,44.875 C62.1333333,44.875 52.8,44.875 47.2,44.875 C46.4,44.875 44.8,44.875 44,44.875 C44,44.078125 44,42.484375 44,41.6875 C44,35.3125 44,22.5625 44,16.1875 C44,15.390625 44,13.796875 44,13 Z M6,19 C6,23.75 6,33.25 6,38 C10.75,38 20.25,38 25,38 C25,33.25 25,23.75 25,19 C20.25,19 10.75,19 6,19 Z M51,19 C51,23.75 51,33.25 51,38 C55.75,38 65.25,38 70,38 C70,33.25 70,23.75 70,19 C65.25,19 55.75,19 51,19 Z" id="quote-right" fill="#000000" fill-rule="nonzero"></path>
    </g>
</svg>