<?xml version="1.0" encoding="UTF-8"?>
<svg width="76px" height="76px" viewBox="0 0 76 76" version="1.1" xmlns="http://www.w3.org/2000/svg" xmlns:xlink="http://www.w3.org/1999/xlink">
    <!-- Generator: Sketch 48.1 (47250) - http://www.bohemiancoding.com/sketch -->
    <title>random</title>
    <desc>Created with Sketch.</desc>
    <defs></defs>
    <g id="random---f074" stroke="none" stroke-width="1" fill="none" fill-rule="evenodd">
        <path d="M60.1666667,0 C64.125,3.65384615 72.0416667,10.9615385 76,14.6153846 C72.0416667,18.2692308 64.125,25.5769231 60.1666667,29.2307692 C60.1666667,26.3076923 60.1666667,20.4615385 60.1666667,17.5384615 C57.4947917,17.5384615 52.1510417,17.5384615 49.4791667,17.5384615 C42.5520833,28.8653846 28.6979167,51.5192308 21.7708333,62.8461538 C21.5729167,63.2115385 21.1770833,63.9423077 20.9791667,64.3076923 C20.484375,64.3076923 19.4947917,64.3076923 19,64.3076923 C14.25,64.3076923 4.75,64.3076923 0,64.3076923 C0,62.8461538 0,59.9230769 0,58.4615385 C4.25520833,58.4615385 12.765625,58.4615385 17.0208333,58.4615385 C20.1875,53.3461538 26.5208333,43.1153846 29.6875,38 C26.5208333,32.8846154 20.1875,22.6538462 17.0208333,17.5384615 C12.765625,17.5384615 4.25520833,17.5384615 0,17.5384615 C0,16.0769231 0,13.1538462 0,11.6923077 C5.24479167,11.6923077 15.734375,11.6923077 20.9791667,11.6923077 C24.046875,16.8076923 30.1822917,27.0384615 33.25,32.1538462 C36.1197917,27.4038462 41.859375,17.9038462 44.7291667,13.1538462 C44.9270833,12.7884615 45.3229167,12.0576923 45.5208333,11.6923077 C46.015625,11.6923077 47.0052083,11.6923077 47.5,11.6923077 C50.6666667,11.6923077 57,11.6923077 60.1666667,11.6923077 C60.1666667,8.76923077 60.1666667,2.92307692 60.1666667,0 Z M40.375,43.8461538 C42.6510417,47.5 47.203125,54.8076923 49.4791667,58.4615385 C52.1510417,58.4615385 57.4947917,58.4615385 60.1666667,58.4615385 C60.1666667,55.5384615 60.1666667,49.6923077 60.1666667,46.7692308 C64.125,50.4230769 72.0416667,57.7307692 76,61.3846154 C72.0416667,65.0384615 64.125,72.3461538 60.1666667,76 C60.1666667,73.0769231 60.1666667,67.2307692 60.1666667,64.3076923 C56.5052083,64.3076923 49.1822917,64.3076923 45.5208333,64.3076923 C43.34375,60.6995191 38.9895833,53.4831727 36.8125,49.8749995 C37.703125,48.3677881 39.484375,45.3533653 40.375,43.8461538 Z" id="random" fill="#000000" fill-rule="nonzero"></path>
    </g>
</svg>