<?xml version="1.0" encoding="UTF-8"?>
<svg width="76px" height="74px" viewBox="0 0 76 74" version="1.1" xmlns="http://www.w3.org/2000/svg" xmlns:xlink="http://www.w3.org/1999/xlink">
    <!-- Generator: Sketch 48.1 (47250) - http://www.bohemiancoding.com/sketch -->
    <title>recycle</title>
    <desc>Created with Sketch.</desc>
    <defs></defs>
    <g id="recycle---f1b8" stroke="none" stroke-width="1" fill="none" fill-rule="evenodd" transform="translate(0.000000, -1.000000)">
        <path d="M37.9536162,1.66529944 C41.7648254,1.66529944 44.6560877,3.24235164 46.6274033,6.39645604 C49.9129287,11.6532967 54.0198355,18.2243475 56.4839796,22.166978 C57.6174857,21.5263007 59.884498,20.244946 61.0180041,19.6042687 C61.0180041,23.7933135 61.0180041,32.171403 61.0180041,36.3604478 C57.3710712,34.2905668 50.0772052,30.1508048 46.4302723,28.0809238 C47.6130614,27.3909634 49.9786397,26.0110428 51.1614289,25.3210824 C48.6972846,21.3784519 43.768996,13.4931909 41.3048516,9.55056043 C40.5163262,8.36777162 39.4321031,7.77637721 38.0521822,7.77637721 C36.6722614,7.77637721 35.5880379,8.36777162 34.7995118,9.55056043 C31.7768284,14.413138 27.9984742,20.4913601 25.7314617,24.1382933 C24.400824,23.3497672 21.7395487,21.772715 20.408911,20.9841889 C22.6266406,17.3372557 27.0620996,10.0433892 29.2798291,6.39645604 C31.2511447,3.24235164 34.1424071,1.66529944 37.9536162,1.66529944 Z M20.211779,27.2923977 C20.211779,31.4321597 20.211779,39.7116837 20.211779,43.8514457 C19.0289898,43.1614854 16.6634115,41.7815647 15.4806224,41.0916044 C13.4107414,44.4428403 9.27097937,51.1453122 7.20109836,54.4965481 C6.01830955,56.0736003 5.88688853,57.6506525 6.80683531,59.2277047 C7.72678209,60.8047569 9.17241327,61.593283 11.1437289,61.593283 C16.9262536,61.593283 24.1544095,61.593283 28.491303,61.593283 C28.491303,63.1703352 28.491303,66.3244396 28.491303,67.9014918 C24.1544095,67.9014918 15.4806224,67.9014918 11.1437289,67.9014918 C6.80683565,67.9014918 3.58702091,65.995887 1.48428465,62.1846775 C-0.618451619,58.3734681 -0.487030939,54.6936798 1.87854669,51.1453127 C1.87854669,51.079602 7.98962446,41.0423219 9.96093971,37.740369 C8.97528208,37.1489744 7.00396683,35.9661853 6.01830921,35.3747907 C9.56667666,33.3541924 16.6634115,29.3129959 20.211779,27.2923977 Z M66.5376868,38.331763 C68.5090021,41.4858674 74.4229478,51.0960297 74.4229478,51.1453127 C76.5256841,54.8251011 76.5256841,58.5377448 74.4229478,62.2832436 C72.3202115,66.0287424 69.2318178,67.9014918 65.1577666,67.9014918 C59.2438209,67.9014918 51.8513887,67.9014918 47.4159294,67.9014918 C47.4159294,69.478544 47.4159294,72.6326484 47.4159294,74.2097006 C43.5718647,71.8441223 35.8837352,67.1129657 32.0396705,64.7473874 C35.8837352,62.3818091 43.5718647,57.6506525 47.4159294,55.2850742 C47.4159294,56.8621264 47.4159294,60.0162308 47.4159294,61.593283 C51.8513887,61.593283 60.7223073,61.593283 65.1577666,61.593283 C66.9976609,61.593283 68.3447262,60.837612 69.1989626,59.3262702 C70.0531991,57.8149283 70.0203439,56.205021 69.1003971,54.4965481 C66.4719768,50.2910756 63.1864514,45.0342349 61.2151361,41.8801305 C62.5457738,40.9930386 65.2070491,39.2188549 66.5376868,38.331763 Z" id="recycle" fill="#000000" fill-rule="nonzero"></path>
    </g>
</svg>