<?xml version="1.0" encoding="UTF-8"?>
<svg width="71px" height="76px" viewBox="0 0 71 76" version="1.1" xmlns="http://www.w3.org/2000/svg" xmlns:xlink="http://www.w3.org/1999/xlink">
    <!-- Generator: Sketch 48.1 (47250) - http://www.bohemiancoding.com/sketch -->
    <title>refresh</title>
    <desc>Created with Sketch.</desc>
    <defs></defs>
    <g id="refresh---f021" stroke="none" stroke-width="1" fill="none" fill-rule="evenodd" transform="translate(-3.000000, 0.000000)">
        <path d="M38.2291667,0 C49.7083337,0 59.2083337,4.35416667 66.7291667,13.0625 C66.7291667,9.76388889 66.7291667,5.640625 66.7291667,3.16666667 C68.3125,3.16666667 71.4791667,3.16666667 73.0625,3.16666667 C73.0625,7.91666667 73.0625,17.4166667 73.0625,22.1666667 C73.0625,22.9583333 73.0625,24.5416667 73.0625,25.3333333 C72.2708333,25.3333333 70.6875,25.3333333 69.8958333,25.3333333 C65.1458333,25.3333333 55.6458333,25.3333333 50.8958333,25.3333333 C50.8958333,23.75 50.8958333,20.5833333 50.8958333,19 C54.013021,19 54.013021,19 63.3645838,19 C57.0312505,10.5555556 48.6527781,6.33333333 38.2291667,6.33333333 C31.4999997,6.33333333 25.4965273,8.18055556 20.2187495,11.875 C14.9409717,15.5694444 11.1805552,20.4513889 8.9375,26.5208333 C6.95833333,25.7291667 6.95833333,25.7291667 3,24.1458333 C5.77083367,17.0208333 10.3559032,11.2152778 16.7552086,6.72916667 C23.154514,2.24305556 30.3125,0 38.2291667,0 Z M67.5208333,49.4791667 C69.0052083,50.0729167 69.0052083,50.0729167 73.4583333,51.8541667 C70.6874997,58.9791667 66.1024301,64.7847222 59.7031247,69.2708333 C53.3038194,73.7569444 46.1458333,76 38.2291667,76 C26.8819444,76 17.3819444,71.6458333 9.72916667,62.9375 C9.72916667,66.2361111 9.72916667,70.359375 9.72916667,72.8333333 C8.14583333,72.8333333 4.97916667,72.8333333 3.39583333,72.8333333 C3.39583333,68.0833333 3.39583333,58.5833333 3.39583333,53.8333333 C3.39583333,53.0416667 3.39583333,51.4583333 3.39583333,50.6666667 C4.1875,50.6666667 5.77083333,50.6666667 6.5625,50.6666667 C11.3125,50.6666667 20.8125,50.6666667 25.5625,50.6666667 C25.5625,52.25 25.5625,55.4166667 25.5625,57 C22.3958333,57 22.3958333,57 12.8958333,57 C15.9305559,60.8263886 19.6579865,63.8940968 24.0781253,66.2031247 C28.498264,68.5121527 33.2152778,69.6666667 38.2291667,69.6666667 C44.9583337,69.6666667 50.9618061,67.8194444 56.2395838,64.125 C61.5173616,60.4305556 65.2777781,55.5486111 67.5208333,49.4791667 Z" id="refresh" fill="#000000" fill-rule="nonzero"></path>
    </g>
</svg>