<?xml version="1.0" encoding="UTF-8"?>
<svg width="76px" height="76px" viewBox="0 0 76 76" version="1.1" xmlns="http://www.w3.org/2000/svg" xmlns:xlink="http://www.w3.org/1999/xlink">
    <!-- Generator: Sketch 48.1 (47250) - http://www.bohemiancoding.com/sketch -->
    <title>registered</title>
    <desc>Created with Sketch.</desc>
    <defs></defs>
    <g id="registered---f25d" stroke="none" stroke-width="1" fill="none" fill-rule="evenodd">
        <path d="M44.2690355,54 L38.9458545,44.8328571 C38.7112227,44.8623811 38.3446161,44.8771429 37.8460237,44.8771429 L30.8950931,44.8771429 L30.8950931,54 L25,54 L25,23 L37.8460237,23 C41.8347633,23 44.9142587,23.9299907 47.0846024,25.79 C49.254946,27.6500093 50.3401015,30.2776021 50.3401015,33.6728571 C50.3401015,36.0938216 49.8195202,38.1604676 48.7783418,39.8728571 C47.7371634,41.5852467 46.2194121,42.8695195 44.2250423,43.7257143 L51,54 L44.2690355,54 Z M31,40 L38.044586,40 C40.3036206,40 42.0275949,39.4903526 43.2165605,38.4710425 C44.4055261,37.4517324 45,35.938234 45,33.9305019 C45,31.9536581 44.4055261,30.4710474 43.2165605,29.4826255 C42.0275949,28.4942036 40.3036206,28 38.044586,28 L31,28 L31,40 Z M38,0 C48.4236114,0 57.3628476,3.72743047 64.8177086,11.1822914 C72.2725695,18.6371524 76,27.5763886 76,38 C76,48.4236114 72.2725695,57.3628476 64.8177086,64.8177086 C57.3628476,72.2725695 48.4236114,76 38,76 C27.5763886,76 18.6371524,72.2725695 11.1822914,64.8177086 C3.72743047,57.3628476 0,48.4236114 0,38 C0,27.5763886 3.72743047,18.6371524 11.1822914,11.1822914 C18.6371524,3.72743047 27.5763886,0 38,0 Z M38,6 C29.2,6 21.6666667,9.13333333 15.4,15.4 C9.13333333,21.6666667 6,29.2 6,38 C6,46.8 9.13333333,54.3333333 15.4,60.6 C21.6666667,66.8666667 29.2,70 38,70 C46.8,70 54.3333333,66.8666667 60.6,60.6 C66.8666667,54.3333333 70,46.8 70,38 C70,29.2 66.8666667,21.6666667 60.6,15.4 C54.3333333,9.13333333 46.8,6 38,6 Z" id="registered" fill="#000000" fill-rule="nonzero"></path>
    </g>
</svg>