<?xml version="1.0" encoding="UTF-8"?>
<svg width="76px" height="68px" viewBox="0 0 76 68" version="1.1" xmlns="http://www.w3.org/2000/svg" xmlns:xlink="http://www.w3.org/1999/xlink">
    <!-- Generator: Sketch 48.1 (47250) - http://www.bohemiancoding.com/sketch -->
    <title>reply</title>
    <desc>Created with Sketch.</desc>
    <defs></defs>
    <g id="reply---f112" stroke="none" stroke-width="1" fill="none" fill-rule="evenodd" transform="translate(0.000000, -4.000000)">
        <path d="M26.953125,4 L31.640625,8.6875 L11.914063,28.21875 L54.296875,28.21875 C60.2864583,28.21875 65.4296875,30.3671875 69.7265625,34.6640625 C74.0234375,38.9609375 76.171875,44.1041667 76.171875,50.09375 C76.171875,56.0833333 74.0234375,61.2265625 69.7265625,65.5234375 C65.4296875,69.8203125 60.2864583,71.96875 54.296875,71.96875 L54.296875,65.71875 C58.5937497,65.71875 62.272135,64.188802 65.332031,61.128906 C68.391927,58.06901 69.921875,54.3906247 69.921875,50.09375 C69.921875,45.7968753 68.391927,42.11849 65.332031,39.058594 C62.272135,35.998698 58.5937497,34.46875 54.296875,34.46875 L11.914063,34.46875 L31.640625,54 L26.953125,58.6875 L0,31.34375 L26.953125,4 Z" id="reply" fill="#000000" fill-rule="nonzero"></path>
    </g>
</svg>