<?xml version="1.0" encoding="UTF-8"?>
<svg width="76px" height="69px" viewBox="0 0 76 69" version="1.1" xmlns="http://www.w3.org/2000/svg" xmlns:xlink="http://www.w3.org/1999/xlink">
    <!-- Generator: Sketch 48.1 (47250) - http://www.bohemiancoding.com/sketch -->
    <title>reply-all</title>
    <desc>Created with Sketch.</desc>
    <defs></defs>
    <g id="reply-all---f122" stroke="none" stroke-width="1" fill="none" fill-rule="evenodd" transform="translate(0.000000, -3.000000)">
        <path d="M43.039062,3.78125 L47.726562,8.46875 L28,28 L54.4375,28.21875 C60.4270833,28.21875 65.5703125,30.3671875 69.8671875,34.6640625 C74.1640625,38.9609375 76.3125,44.1041667 76.3125,50.09375 C76.3125,56.0833333 74.1640625,61.2265625 69.8671875,65.5234375 C65.5703125,69.8203125 60.4270833,71.96875 54.4375,71.96875 L54.4375,65.71875 C58.7343747,65.71875 62.41276,64.188802 65.472656,61.128906 C68.532552,58.06901 70.0625,54.3906247 70.0625,50.09375 C70.0625,45.7968753 68.532552,42.11849 65.472656,39.058594 C62.41276,35.998698 58.7343747,34.46875 54.4375,34.46875 L28,34.25 L47.726562,53.78125 L43.039062,58.46875 L16.085937,31.125 L43.039062,3.78125 Z M26.953125,4 L31.640625,8.6875 L8.5,31.34375 L31.640625,54 L26.953125,58.6875 L0,31.34375 L26.953125,4 Z" id="reply-all" fill="#000000" fill-rule="nonzero"></path>
    </g>
</svg>