<?xml version="1.0" encoding="UTF-8"?>
<svg width="76px" height="46px" viewBox="0 0 76 46" version="1.1" xmlns="http://www.w3.org/2000/svg" xmlns:xlink="http://www.w3.org/1999/xlink">
    <!-- Generator: Sketch 48.1 (47250) - http://www.bohemiancoding.com/sketch -->
    <title>retweet</title>
    <desc>Created with Sketch.</desc>
    <defs></defs>
    <g id="retweet---f079" stroke="none" stroke-width="1" fill="none" fill-rule="evenodd" transform="translate(0.000000, -15.000000)">
        <path d="M12.6666667,15 C15.8333333,18.1944444 22.1666667,24.5833333 25.3333333,27.7777778 C22.8,27.7777778 17.7333333,27.7777778 15.2,27.7777778 C15.2,34.8055556 15.2,48.8611111 15.2,55.8888889 C23.4333333,55.8888889 39.9,55.8888889 48.1333333,55.8888889 C49.4,57.1666667 51.9333333,59.7222222 53.2,61 C42.4333333,61 20.9,61 10.1333333,61 C10.1333333,52.6944444 10.1333333,36.0833333 10.1333333,27.7777778 C7.6,27.7777778 2.53333333,27.7777778 0,27.7777778 C3.16666667,24.5833333 9.5,18.1944444 12.6666667,15 Z M22.8,15 C33.5666667,15 55.1,15 65.8666667,15 C65.8666667,23.3055556 65.8666667,39.9166667 65.8666667,48.2222222 C68.4,48.2222222 73.4666667,48.2222222 76,48.2222222 C72.8333333,51.4166667 66.5,57.8055556 63.3333333,61 C60.1666667,57.8055556 53.8333333,51.4166667 50.6666667,48.2222222 C53.2,48.2222222 58.2666667,48.2222222 60.8,48.2222222 C60.8,41.1944444 60.8,27.1388889 60.8,20.1111111 C52.5666667,20.1111111 36.1,20.1111111 27.8666667,20.1111111 C26.6,18.8333333 24.0666667,16.2777778 22.8,15 Z" id="retweet" fill="#000000" fill-rule="nonzero"></path>
    </g>
</svg>