<?xml version="1.0" encoding="UTF-8"?>
<svg width="76px" height="76px" viewBox="0 0 76 76" version="1.1" xmlns="http://www.w3.org/2000/svg" xmlns:xlink="http://www.w3.org/1999/xlink">
    <!-- Generator: Sketch 48.1 (47250) - http://www.bohemiancoding.com/sketch -->
    <title>road</title>
    <desc>Created with Sketch.</desc>
    <defs></defs>
    <g id="road---f018" stroke="none" stroke-width="1" fill="none" fill-rule="evenodd">
        <path d="M28.2285383,42.1603653 L31.8394284,37.3685523 L69.6947435,65.8945782 C69.8927748,65.2990419 70,64.6620428 70,64 L70,52.3511133 L38.4593937,28.5835617 L42.0702838,23.7917486 L55.477328,6 L44.2081071,6 L6,56.7038707 L6,64 C6,65.8923555 6.87605223,67.5800981 8.24471867,68.6797897 L28.2285383,42.1603653 Z M33.0203513,45.7712555 L14.7626828,70 L64,70 C64.3586152,70 64.7098821,69.9685383 65.0511912,69.9082246 L33.0203513,45.7712555 Z M46.8620969,27.4026387 L70,44.8382994 L70,12 C70,8.6862915 67.3137085,6 64,6 L62.990142,6 L46.8620969,27.4026387 Z M36.6952932,6 L12,6 C8.6862915,6 6,8.6862915 6,12 L6,46.7340298 L36.6952932,6 Z M8,0 L68,0 C72.418278,-8.11624501e-16 76,3.581722 76,8 L76,68 C76,72.418278 72.418278,76 68,76 L8,76 C3.581722,76 5.41083001e-16,72.418278 0,68 L0,8 C-5.41083001e-16,3.581722 3.581722,8.11624501e-16 8,0 Z" id="road" fill="#000000"></path>
    </g>
</svg>