<?xml version="1.0" encoding="UTF-8"?>
<svg width="60px" height="76px" viewBox="0 0 60 76" version="1.1" xmlns="http://www.w3.org/2000/svg" xmlns:xlink="http://www.w3.org/1999/xlink">
    <!-- Generator: Sketch 48.1 (47250) - http://www.bohemiancoding.com/sketch -->
    <title>rocket</title>
    <desc>Created with Sketch.</desc>
    <defs></defs>
    <g id="rocket---f135" stroke="none" stroke-width="1" fill="none" fill-rule="evenodd" transform="translate(-8.000000, 0.000000)">
        <path d="M48.9627966,37.9690907 C48.9905042,36.0609561 49,34.0246959 49,31.8514133 C49,18.3474561 40.8442007,6 38,6 C35.1557993,6 27,18.116741 27,31.8514133 C27,34.0138486 27.0099461,36.0510734 27.0391818,37.9685549 L31.0283684,36.8881502 C31.0477931,38.2272999 31.0790358,39.4851644 31.12748,40.665344 L23,45 L18,58 L23,58 L23,64 L8,64 L19.5384615,40 L22.0915423,39.3085406 C22.022012,36.5969139 22,33.6724644 22,30.5230769 C22,14.3063829 33.8629808,1.01327747e-15 38,0 C42.1370192,0 54,14.578791 54,30.5230769 C54,33.6921316 53.9789332,36.6144265 53.9129186,39.3097488 L56.4615385,40 L68,64 L53,64 L53,58 L57,58 L52,45 L44.8673208,40.9241833 C44.9199717,39.676211 44.953078,38.3334889 44.9730531,36.8885352 L48.9627966,37.9690907 Z M38,32 C34.6862915,32 32,29.3137085 32,26 C32,22.6862915 34.6862915,20 38,20 C41.3137085,20 44,22.6862915 44,26 C44,29.3137085 41.3137085,32 38,32 Z M38,29 C39.6568542,29 41,27.6568542 41,26 C41,24.3431458 39.6568542,23 38,23 C36.3431458,23 35,24.3431458 35,26 C35,27.6568542 36.3431458,29 38,29 Z M29,60 C30.6568542,60 32,61.3431458 32,63 L32,68 C32,69.6568542 30.6568542,71 29,71 C27.3431458,71 26,69.6568542 26,68 L26,63 C26,61.3431458 27.3431458,60 29,60 Z M47,57 C48.6568542,57 50,58.3431458 50,60 L50,69 C50,70.6568542 48.6568542,72 47,72 C45.3431458,72 44,70.6568542 44,69 L44,60 C44,58.3431458 45.3431458,57 47,57 Z M38,65 C39.6568542,65 41,66.3431458 41,68 L41,73 C41,74.6568542 39.6568542,76 38,76 C36.3431458,76 35,74.6568542 35,73 L35,68 C35,66.3431458 36.3431458,65 38,65 Z" id="rocket" fill="#000000"></path>
    </g>
</svg>