<?xml version="1.0" encoding="UTF-8"?>
<svg width="76px" height="76px" viewBox="0 0 76 76" version="1.1" xmlns="http://www.w3.org/2000/svg" xmlns:xlink="http://www.w3.org/1999/xlink">
    <!-- Generator: Sketch 48.1 (47250) - http://www.bohemiancoding.com/sketch -->
    <title>rotate-left</title>
    <desc>Created with Sketch.</desc>
    <defs></defs>
    <g id="rotate-left---f0e2" stroke="none" stroke-width="1" fill="none" fill-rule="evenodd" opacity="0.699999988">
        <path d="M76,38 C76,48.4236114 72.2725695,57.3628476 64.8177086,64.8177086 C57.3628476,72.2725695 48.4236114,76 38,76 C27.5763886,76 18.6371524,72.2725695 11.1822914,64.8177086 C3.72743047,57.3628476 -1.42108547e-14,48.4236114 0,38 C0,36.3452372 0.0939387163,34.7278836 0.281816149,33.1479393 C2.7477417,33.8158569 3.30737305,33.9957275 6.47679495,34.8135977 C6.38115387,35.8564001 6.33333333,36.9185342 6.33333333,38 C6.33333333,46.7083333 9.43402778,54.1631944 15.6354167,60.3645833 C21.8368056,66.5659722 29.2916667,69.6666667 38,69.6666667 C46.7083333,69.6666667 54.1631944,66.5659722 60.3645833,60.3645833 C66.5659722,54.1631944 69.6666667,46.7083333 69.6666667,38 C69.6666667,32.1944444 68.2482638,26.8836806 65.4114581,22.0677086 C62.5746524,17.2517365 58.7152774,13.4583337 53.8333333,10.6875 C53.8333333,14.5138889 53.8333333,19.296875 53.8333333,22.1666667 C52.25,22.1666667 49.0833333,22.1666667 47.5,22.1666667 C47.5,17.4166667 47.5,7.91666667 47.5,3.16666667 C47.5,2.375 47.5,0.791666667 47.5,1.87006229e-15 C48.2916667,2.0154891e-15 49.875,2.30634271e-15 50.6666667,2.45176952e-15 C55.4166667,3.32433037e-15 64.9166667,5.06945205e-15 69.6666667,5.9420129e-15 C69.6666667,1.58333333 69.6666667,4.75 69.6666667,6.33333333 C66.9947917,6.33333333 66.9947917,6.33333333 58.9791667,6.33333333 C64.2569444,9.76388889 68.4131944,14.2829862 71.4479167,19.8906253 C74.4826389,25.4982643 76,31.5347226 76,38 Z M9.00862197,13.2512627 L13.2512627,9.00862197 L17.5929533,13.3503126 C16.0500169,14.6291158 14.6291158,16.0500169 13.3503126,17.5929533 L9.00862197,13.2512627 Z M20.9833979,3.89083331 L26.546501,1.64319375 L28.8437732,7.32914188 C26.9062907,7.90669177 25.0457808,8.66281922 23.2813366,9.57843126 L20.9833979,3.89083331 Z M35,0 L41,0 L41,6.13877474 C40.0123376,6.04694478 39.0116511,6 38,6 C36.9883489,6 35.9876624,6.04694478 35,6.13877474 L35,0 Z M1.64319375,26.546501 L3.89083331,20.9833979 L9.57843126,23.2813366 C8.66281922,25.0457808 7.90669177,26.9062907 7.32914188,28.8437732 L1.64319375,26.546501 Z" id="rotate-left" fill="#000000" fill-rule="nonzero"></path>
    </g>
</svg>