<?xml version="1.0" encoding="UTF-8"?>
<svg width="76px" height="76px" viewBox="0 0 76 76" version="1.1" xmlns="http://www.w3.org/2000/svg" xmlns:xlink="http://www.w3.org/1999/xlink">
    <!-- Generator: Sketch 48.1 (47250) - http://www.bohemiancoding.com/sketch -->
    <title>rotate-right</title>
    <desc>Created with Sketch.</desc>
    <defs></defs>
    <g id="repeat---f01e" stroke="none" stroke-width="1" fill="none" fill-rule="evenodd" opacity="0.699999988">
        <path d="M0,38 C0,31.5347226 1.51736111,25.4982643 4.55208333,19.8906253 C7.58680556,14.2829862 11.7430556,9.76388889 17.0208333,6.33333333 L6.33333333,6.33333333 L6.33333333,4.07195061e-15 L28.5,0 L28.5,22.1666667 L22.1666667,22.1666667 L22.1666667,10.6875 C17.2847226,13.4583337 13.4253476,17.2517365 10.5885419,22.0677086 C7.7517362,26.8836806 6.33333333,32.1944444 6.33333333,38 C6.33333333,46.7083333 9.43402778,54.1631944 15.6354167,60.3645833 C21.8368056,66.5659722 29.2916667,69.6666667 38,69.6666667 C46.7083333,69.6666667 54.1631944,66.5659722 60.3645833,60.3645833 C66.5659722,54.1631944 69.6666667,46.7083333 69.6666667,38 C69.6666667,36.9185342 69.6188461,35.8564001 69.523205,34.8135977 C72.692627,33.9957275 73.2522583,33.8158569 75.7181839,33.1479393 C75.9060613,34.7278836 76,36.3452372 76,38 C76,48.4236114 72.2725695,57.3628476 64.8177086,64.8177086 C57.3628476,72.2725695 48.4236114,76 38,76 C27.5763886,76 18.6371524,72.2725695 11.1822914,64.8177086 C3.72743047,57.3628476 1.42108547e-14,48.4236114 0,38 Z M58.4070467,13.3503126 L62.7487373,9.00862197 L66.991378,13.2512627 L62.6496874,17.5929533 C61.3708842,16.0500169 59.9499831,14.6291158 58.4070467,13.3503126 Z M47.1562268,7.32914188 L49.453499,1.64319375 L55.0166021,3.89083331 L52.7186634,9.57843126 C50.9542192,8.66281922 49.0937093,7.90669177 47.1562268,7.32914188 Z M41,6.13877474 C40.0123376,6.04694478 39.0116511,6 38,6 C36.9883489,6 35.9876624,6.04694478 35,6.13877474 L35,0 L41,0 L41,6.13877474 Z M66.4215687,23.2813366 L72.1091667,20.9833979 L74.3568063,26.546501 L68.6708581,28.8437732 C68.0933082,26.9062907 67.3371808,25.0457808 66.4215687,23.2813366 Z" id="rotate-right" fill="#000000" fill-rule="nonzero"></path>
    </g>
</svg>