<?xml version="1.0" encoding="UTF-8"?>
<svg width="76px" height="76px" viewBox="0 0 76 76" version="1.1" xmlns="http://www.w3.org/2000/svg" xmlns:xlink="http://www.w3.org/1999/xlink">
    <!-- Generator: Sketch 48.1 (47250) - http://www.bohemiancoding.com/sketch -->
    <title>rss-square</title>
    <desc>Created with Sketch.</desc>
    <defs></defs>
    <g id="rss-square---f143" stroke="none" stroke-width="1" fill="none" fill-rule="evenodd">
        <path d="M0,0 L76,0 L76,76 L0,76 L0,0 Z M6,6 L6,70 L70,70 L70,6 L6,6 Z M16,16 L16,24.4375 C36.21625,24.4375 52.5625,40.7865625 52.5625,61 L61,61 C61,35.5394737 41.4605263,16 16,16 Z M16,33 L16,41.4 C26.8948,41.4 35.6,50.1052 35.6,61 L44,61 C44,45.5748 31.4252,33 16,33 Z M16,50 L16,61 L27,61 C27,54.95 22.05,50 16,50 Z" id="rss-square" fill="#000000" fill-rule="nonzero"></path>
    </g>
</svg>