<?xml version="1.0" encoding="UTF-8"?>
<svg width="61px" height="76px" viewBox="0 0 61 76" version="1.1" xmlns="http://www.w3.org/2000/svg" xmlns:xlink="http://www.w3.org/1999/xlink">
    <!-- Generator: Sketch 48.1 (47250) - http://www.bohemiancoding.com/sketch -->
    <title>rub</title>
    <desc>Created with Sketch.</desc>
    <defs></defs>
    <g id="rouble---f158" stroke="none" stroke-width="1" fill="none" fill-rule="evenodd" transform="translate(-8.000000, 0.000000)">
        <path d="M15.625,0 C16.578125,0 18.484375,0 19.4375,0 C26.109375,0 39.453125,0 46.125,0 C52.4791667,0 57.8802083,2.21666667 62.328125,6.65 C66.7760417,11.0833333 69,16.4666667 69,22.8 C69,29.1333333 66.7760417,34.5166667 62.328125,38.95 C57.8802083,43.3833333 52.4791667,45.6 46.125,45.6 C38.5,45.6 28.96875,45.6 23.25,45.6 C23.25,47.5 23.25,51.3 23.25,53.2 C28.015625,53.2 37.546875,53.2 42.3125,53.2 C42.3125,55.1 42.3125,58.9 42.3125,60.8 C37.546875,60.8 28.015625,60.8 23.25,60.8 C23.25,64.6 23.25,72.2 23.25,76 C21.34375,76 17.53125,76 15.625,76 C15.625,72.2 15.625,64.6 15.625,60.8 C13.71875,60.8 9.90625,60.8 8,60.8 C8,58.9 8,55.1 8,53.2 C9.90625,53.2 13.71875,53.2 15.625,53.2 C15.625,51.3 15.625,47.5 15.625,45.6 C13.71875,45.6 9.90625,45.6 8,45.6 C8,43.7 8,39.9 8,38 C9.90625,38 13.71875,38 15.625,38 C15.625,29.45 15.625,12.35 15.625,3.8 C15.625,2.85 15.625,0.95 15.625,0 Z M23.25,7.6 C23.25,15.2 23.25,30.4 23.25,38 C28.96875,38 40.40625,38 46.125,38 C50.4140629,38 54.0279953,36.5354168 56.9667972,33.6062503 C59.9055991,30.6770838 61.375,27.0750004 61.375,22.8 C61.375,18.5249996 59.9055991,14.9229162 56.9667972,11.9937497 C54.0279953,9.06458323 50.4140629,7.6 46.125,7.6 C38.5,7.6 28.96875,7.6 23.25,7.6 Z" id="rub" fill="#000000" fill-rule="nonzero"></path>
    </g>
</svg>