<?xml version="1.0" encoding="UTF-8"?>
<svg width="76px" height="54px" viewBox="0 0 76 54" version="1.1" xmlns="http://www.w3.org/2000/svg" xmlns:xlink="http://www.w3.org/1999/xlink">
    <!-- Generator: Sketch 48.1 (47250) - http://www.bohemiancoding.com/sketch -->
    <title>scissors</title>
    <desc>Created with Sketch.</desc>
    <defs></defs>
    <g id="scissors---f0c4" stroke="none" stroke-width="1" fill="none" fill-rule="evenodd" transform="translate(0.000000, -11.000000)" opacity="0.699999988">
        <path d="M10.8571429,11 C13.797619,11 16.3422619,12.06875 18.4910714,14.20625 C20.639881,16.34375 21.7142857,18.875 21.7142857,21.8 C21.7142857,23.0375003 21.4880952,24.2750003 21.0357143,25.5125 C26.4642857,28.6625 33.25,32.6 37.3214286,34.9625 C44.2767857,30.996875 58.1875,23.065625 65.1428571,19.1 C67.8571429,19.1 73.2857143,19.1 76,19.1 C62.2589286,26.946875 34.7767857,42.640625 21.0357143,50.4875 C21.4880952,51.7249997 21.7142857,52.9624997 21.7142857,54.2 C21.7142857,57.125 20.639881,59.65625 18.4910714,61.79375 C16.3422619,63.93125 13.797619,65 10.8571429,65 C7.91666667,65 5.37202381,63.93125 3.22321429,61.79375 C1.07440476,59.65625 0,57.125 0,54.2 C0,51.275 1.07440476,48.74375 3.22321429,46.60625 C5.37202381,44.46875 7.91666667,43.4 10.8571429,43.4 C13.4583336,43.4 15.7767859,44.3 17.8124996,46.1 C22.5059521,43.4 28.3727677,40.025 31.8928571,38 C28.3303571,36.0171874 21.2053571,32.0515622 17.6428571,30.0687496 C15.6071429,31.7562499 13.3452381,32.6 10.8571429,32.6 C7.91666667,32.6 5.37202381,31.53125 3.22321429,29.39375 C1.07440476,27.25625 0,24.725 0,21.8 C0,18.875 1.07440476,16.34375 3.22321429,14.20625 C5.37202381,12.06875 7.91666667,11 10.8571429,11 Z M10.8571429,16.4 C9.5,16.4 8.34077388,16.79375 7.3794645,17.58125 C6.41815512,18.36875 5.76785743,19.4375 5.42857143,20.7875 C5.42857143,21.0125 5.42857143,21.35 5.42857143,21.8 C5.42857143,23.2624997 5.96577388,24.5281246 7.04017879,25.5968748 C8.1145837,26.6656249 9.38690505,27.2 10.8571429,27.2 C12.3273807,27.2 13.599702,26.6656249 14.6741069,25.5968748 C15.7485118,24.5281246 16.2857143,23.2624997 16.2857143,21.8 C16.2857143,20.3375003 15.7485118,19.0718754 14.6741069,18.0031252 C13.599702,16.9343751 12.3273807,16.4 10.8571429,16.4 Z M46.4821429,40.1937496 C53.8616071,44.3703122 68.6205357,52.7234374 76,56.9 C73.2857143,56.9 67.8571429,56.9 65.1428571,56.9 C59.1205357,53.440625 47.0758929,46.521875 41.0535714,43.0625 C42.4107143,42.3453124 45.125,40.9109372 46.4821429,40.1937496 Z M10.8571429,48.8 C9.5,48.8 8.34077388,49.19375 7.3794645,49.98125 C6.41815512,50.76875 5.76785743,51.8375 5.42857143,53.1875 C5.42857143,53.4125 5.42857143,53.75 5.42857143,54.2 C5.42857143,55.6624997 5.96577388,56.9281246 7.04017879,57.9968748 C8.1145837,59.0656249 9.38690505,59.6 10.8571429,59.6 C12.3273807,59.6 13.599702,59.0656249 14.6741069,57.9968748 C15.7485118,56.9281246 16.2857143,55.6624997 16.2857143,54.2 C16.2857143,52.7375003 15.7485118,51.4718754 14.6741069,50.4031252 C13.599702,49.3343751 12.3273807,48.8 10.8571429,48.8 Z" id="scissors" fill="#000000" fill-rule="nonzero"></path>
    </g>
</svg>