<?xml version="1.0" encoding="UTF-8"?>
<svg width="76px" height="76px" viewBox="0 0 76 76" version="1.1" xmlns="http://www.w3.org/2000/svg" xmlns:xlink="http://www.w3.org/1999/xlink">
    <!-- Generator: Sketch 48.1 (47250) - http://www.bohemiancoding.com/sketch -->
    <title>search</title>
    <desc>Created with Sketch.</desc>
    <defs></defs>
    <g id="search---f002" stroke="none" stroke-width="1" fill="none" fill-rule="evenodd">
        <path d="M28.3334226,52.0771869 L4.43572769,75.9748817 L0.193087001,71.7322411 L24.1971186,47.7282094 C20.3155282,42.7105432 18,36.3803441 18,29.5 C18,13.2075999 30.9837423,0 47,0 C63.0162577,0 76,13.2075999 76,29.5 C76,45.7924001 63.0162577,59 47,59 C39.8900075,59 33.3776269,56.3972043 28.3334226,52.0771869 Z M47,53 C59.7025492,53 70,42.4786916 70,29.5 C70,16.5213084 59.7025492,6 47,6 C34.2974508,6 24,16.5213084 24,29.5 C24,42.4786916 34.2974508,53 47,53 Z" id="search" fill="#000000"></path>
    </g>
</svg>