<?xml version="1.0" encoding="UTF-8"?>
<svg width="76px" height="63px" viewBox="0 0 76 63" version="1.1" xmlns="http://www.w3.org/2000/svg" xmlns:xlink="http://www.w3.org/1999/xlink">
    <!-- Generator: Sketch 48.1 (47250) - http://www.bohemiancoding.com/sketch -->
    <title>server</title>
    <desc>Created with Sketch.</desc>
    <defs></defs>
    <g id="server---f233" stroke="none" stroke-width="1" fill="none" fill-rule="evenodd" transform="translate(0.000000, -7.000000)">
        <path d="M0,7 C0.730769231,7 2.19230769,7 2.92307692,7 C20.4615385,7 55.5384615,7 73.0769231,7 C73.8076923,7 75.2692308,7 76,7 C76,7.7875 76,9.3625 76,10.15 C76,24.325 76,52.675 76,66.85 C76,67.6375 76,69.2125 76,70 C75.2692308,70 73.8076923,70 73.0769231,70 C55.5384615,70 20.4615385,70 2.92307692,70 C2.19230769,70 0.730769231,70 0,70 C0,69.2125 0,67.6375 0,66.85 C0,52.675 0,24.325 0,10.15 C0,9.3625 0,7.7875 0,7 Z M6,13 C6,16.25 6,22.75 6,26 C22,26 54,26 70,26 C70,22.75 70,16.25 70,13 C54,13 22,13 6,13 Z M6,32 C6,35.25 6,41.75 6,45 C22,45 54,45 70,45 C70,41.75 70,35.25 70,32 C54,32 22,32 6,32 Z M6,51 C6,54.25 6,60.75 6,64 C22,64 54,64 70,64 C70,60.75 70,54.25 70,51 C54,51 22,51 6,51 Z M62.5,17 C63.2291669,17 63.8281253,17.2343749 64.2968752,17.7031248 C64.7656251,18.1718747 65,18.7708331 65,19.5 C65,20.2291669 64.7656251,20.8281253 64.2968752,21.2968752 C63.8281253,21.7656251 63.2291669,22 62.5,22 C61.7708331,22 61.1718747,21.7656251 60.7031248,21.2968752 C60.2343749,20.8281253 60,20.2291669 60,19.5 C60,18.7708331 60.2343749,18.1718747 60.7031248,17.7031248 C61.1718747,17.2343749 61.7708331,17 62.5,17 Z M62.5,36 C63.2291669,36 63.8281253,36.2343749 64.2968752,36.7031248 C64.7656251,37.1718747 65,37.7708331 65,38.5 C65,39.2291669 64.7656251,39.8281253 64.2968752,40.2968752 C63.8281253,40.7656251 63.2291669,41 62.5,41 C61.7708331,41 61.1718747,40.7656251 60.7031248,40.2968752 C60.2343749,39.8281253 60,39.2291669 60,38.5 C60,37.7708331 60.2343749,37.1718747 60.7031248,36.7031248 C61.1718747,36.2343749 61.7708331,36 62.5,36 Z M62.5,55 C63.2291669,55 63.8281253,55.2343749 64.2968752,55.7031248 C64.7656251,56.1718747 65,56.7708331 65,57.5 C65,58.2291669 64.7656251,58.8281253 64.2968752,59.2968752 C63.8281253,59.7656251 63.2291669,60 62.5,60 C61.7708331,60 61.1718747,59.7656251 60.7031248,59.2968752 C60.2343749,58.8281253 60,58.2291669 60,57.5 C60,56.7708331 60.2343749,56.1718747 60.7031248,55.7031248 C61.1718747,55.2343749 61.7708331,55 62.5,55 Z M11,17 C16.875,17 28.625,17 34.5,17 C34.5,18.25 34.5,20.75 34.5,22 C28.625,22 16.875,22 11,22 C11,20.75 11,18.25 11,17 Z M11,36 C16.875,36 28.625,36 34.5,36 C34.5,37.25 34.5,39.75 34.5,41 C28.625,41 16.875,41 11,41 C11,39.75 11,37.25 11,36 Z M11,55 C16.875,55 28.625,55 34.5,55 C34.5,56.25 34.5,58.75 34.5,60 C28.625,60 16.875,60 11,60 C11,58.75 11,56.25 11,55 Z" id="server" fill="#000000" fill-rule="nonzero"></path>
    </g>
</svg>