<?xml version="1.0" encoding="UTF-8"?>
<svg width="76px" height="68px" viewBox="0 0 76 68" version="1.1" xmlns="http://www.w3.org/2000/svg" xmlns:xlink="http://www.w3.org/1999/xlink">
    <!-- Generator: Sketch 48.1 (47250) - http://www.bohemiancoding.com/sketch -->
    <title>share</title>
    <desc>Created with Sketch.</desc>
    <defs></defs>
    <g id="share---f064" stroke="none" stroke-width="1" fill="none" fill-rule="evenodd">
        <path d="M49.21875,0 C55.46875,6.25 67.96875,18.75 74.21875,25 C74.7070312,25.5859375 75.6835938,26.7578125 76.171875,27.34375 C75.6835938,27.9296875 74.7070312,29.1015625 74.21875,29.6875 C67.96875,35.9375 55.46875,48.4375 49.21875,54.6875 C48.046875,53.515625 45.703125,51.171875 44.53125,50 C49.4628905,45.1171875 59.3261715,35.3515625 64.257812,30.46875 C53.662109,30.46875 32.470703,30.46875 21.875,30.46875 C17.5781253,30.46875 13.89974,31.998698 10.839844,35.058594 C7.779948,38.11849 6.25,41.7968753 6.25,46.09375 C6.25,50.3906247 7.779948,54.06901 10.839844,57.128906 C13.89974,60.188802 17.5781253,61.71875 21.875,61.71875 C21.875,63.8020833 21.875,66.40625 21.875,67.96875 C15.8854167,67.96875 10.7421875,65.8203125 6.4453125,61.5234375 C2.1484375,57.2265625 0,52.0833333 0,46.09375 C0,40.1041667 2.1484375,34.9609375 6.4453125,30.6640625 C10.7421875,26.3671875 15.8854167,24.21875 21.875,24.21875 C36.002604,24.21875 53.662109,24.21875 64.257812,24.21875 C59.3261715,19.3359375 49.4628905,9.5703125 44.53125,4.6875 C45.703125,3.515625 48.046875,1.171875 49.21875,0 Z" id="share" fill="#000000" fill-rule="nonzero"></path>
    </g>
</svg>