<?xml version="1.0" encoding="UTF-8"?>
<svg width="70px" height="76px" viewBox="0 0 70 76" version="1.1" xmlns="http://www.w3.org/2000/svg" xmlns:xlink="http://www.w3.org/1999/xlink">
    <!-- Generator: Sketch 48.1 (47250) - http://www.bohemiancoding.com/sketch -->
    <title>share-alt</title>
    <desc>Created with Sketch.</desc>
    <defs></defs>
    <g id="share-alt---f1e0" stroke="none" stroke-width="1" fill="none" fill-rule="evenodd" transform="translate(-3.000000, 0.000000)">
        <path d="M50.0908094,12.9521558 C50.0308808,12.4765385 50,11.9918755 50,11.5 C50,5.14872538 55.1487254,0 61.5,0 C67.8512746,0 73,5.14872538 73,11.5 C73,17.8512746 67.8512746,23 61.5,23 C57.8073195,23 54.5211428,21.2595506 52.4170362,18.5542181 L25.3897407,34.7938556 C25.7853861,35.9567229 26,37.2032986 26,38.5 C26,39.2927621 25.9197835,40.0667887 25.7670245,40.8144057 L52.7555559,57.0307513 C54.8647963,54.5637538 57.999781,53 61.5,53 C67.8512746,53 73,58.1487254 73,64.5 C73,70.8512746 67.8512746,76 61.5,76 C55.1487254,76 50,70.8512746 50,64.5 C50,63.8111734 50.0605617,63.1364918 50.1766508,62.4809892 L23.0553933,46.1848936 C20.9501905,48.5270172 17.897112,50 14.5,50 C8.14872538,50 3,44.8512746 3,38.5 C3,32.1487254 8.14872538,27 14.5,27 C17.3814717,27 20.0154237,28.0597579 22.0333566,29.8107743 L50.0908094,12.9521558 Z" id="share-alt" fill="#000000"></path>
    </g>
</svg>