<?xml version="1.0" encoding="UTF-8"?>
<svg width="76px" height="76px" viewBox="0 0 76 76" version="1.1" xmlns="http://www.w3.org/2000/svg" xmlns:xlink="http://www.w3.org/1999/xlink">
    <!-- Generator: Sketch 48.1 (47250) - http://www.bohemiancoding.com/sketch -->
    <title>share-alt-square</title>
    <desc>Created with Sketch.</desc>
    <defs></defs>
    <g id="share-alt-square---f14d" stroke="none" stroke-width="1" fill="none" fill-rule="evenodd">
        <path d="M0,0 L76,0 L76,76 L0,76 L0,0 Z M6,6 L6,70 L70,70 L70,6 L6,6 Z M52.0043939,63.696875 C47.860492,63.696875 44.5317838,60.3681669 44.5317838,56.2242649 C44.5317838,55.1373398 44.8035151,54.1183476 45.211112,53.1672881 L29.0431012,42.7735669 C27.6844448,44.3360217 25.6464602,45.355014 23.4726101,45.355014 C19.3287081,45.355014 16,42.0263058 16,37.8824039 C16,33.738502 19.3287081,30.4097939 23.4726101,30.4097939 C25.7143931,30.4097939 27.7523776,31.4287861 29.111034,32.991241 L45.211112,22.5975197 C44.8035151,21.6464602 44.5317838,20.627468 44.5317838,19.4726101 C44.5317838,15.3287081 47.860492,12 52.0043939,12 C56.1482958,12 59.4770039,15.3287081 59.4770039,19.4726101 C59.4770039,23.616512 56.1482958,26.9452201 52.0043939,26.9452201 C49.9664093,26.9452201 48.1322232,26.1300263 46.7735669,24.7713699 L30.4696904,35.233024 C30.7414216,36.0482178 30.9452201,36.8634116 30.9452201,37.8144711 C30.9452201,38.6975977 30.8093545,39.5807244 30.4696904,40.3959182 L46.7735669,50.8575723 C48.1322232,49.4989159 49.9664093,48.6837221 52.0043939,48.6837221 C56.1482958,48.6837221 59.4770039,52.0124302 59.4770039,56.1563321 C59.4770039,60.3002341 56.1482958,63.696875 52.0043939,63.696875 Z" id="share-alt-square" fill="#000000" fill-rule="nonzero"></path>
    </g>
</svg>