<?xml version="1.0" encoding="UTF-8"?>
<svg width="57px" height="76px" viewBox="0 0 57 76" version="1.1" xmlns="http://www.w3.org/2000/svg" xmlns:xlink="http://www.w3.org/1999/xlink">
    <!-- Generator: Sketch 48.1 (47250) - http://www.bohemiancoding.com/sketch -->
    <title>shield</title>
    <desc>Created with Sketch.</desc>
    <defs></defs>
    <g id="shield---f132" stroke="none" stroke-width="1" fill="none" fill-rule="evenodd" transform="translate(-10.000000, 0.000000)">
        <path d="M11.7175141,8.30601093 C16.2259887,5.75031526 20.680791,3.76965111 25.0819209,2.3640185 C29.9661017,0.766708701 34.259887,0 38.5,0 C42.7937853,0 47.0338983,0.766708701 51.9717514,2.3640185 C56.319209,3.76965111 60.7740113,5.75031526 65.3361582,8.30601093 C66.3022599,8.75325767 67,9.90332072 67,11.2450609 C67,27.0903741 65.2824859,39.4216057 60.9887006,49.6443884 C56.6949153,59.9310635 49.9322034,68.0453972 39.9491525,75.5208071 C39.0903955,76.159731 37.9632768,76.159731 37.1045198,75.5208071 C27.1214689,68.0453972 20.3587571,59.9310635 16.0649718,49.6443884 C11.7711864,39.4216057 10,27.0903741 10,11.2450609 C10,9.90332072 10.6977401,8.75325767 11.7175141,8.30601093 Z M39,68 L39,6 C48.8520508,6 56.982,11.5 61,14 C61,33 54.5,55.5 39,68 Z" id="shield" fill="#000000"></path>
    </g>
</svg>