<?xml version="1.0" encoding="UTF-8"?>
<svg width="76px" height="76px" viewBox="0 0 76 76" version="1.1" xmlns="http://www.w3.org/2000/svg" xmlns:xlink="http://www.w3.org/1999/xlink">
    <!-- Generator: Sketch 48.1 (47250) - http://www.bohemiancoding.com/sketch -->
    <title>ship</title>
    <desc>Created with Sketch.</desc>
    <defs></defs>
    <g id="ship---f21a" stroke="none" stroke-width="1" fill="none" fill-rule="evenodd">
        <path d="M34.8916894,0 C36.3924072,0 39.3938428,0 40.8945606,0 C40.8945606,1.50071782 40.8945606,4.50215347 40.8945606,6.00287129 C43.1456374,6.00287129 47.6477908,6.00287129 49.8988676,6.00287129 C50.6492265,6.00287129 52.1499443,6.00287129 52.9003032,6.00287129 C52.9003032,6.7532302 52.9003032,8.25394802 52.9003032,9.00430693 C52.9003032,10.5050248 52.9003032,13.5064604 52.9003032,15.0071782 C55.15138,15.0071782 59.6535334,15.0071782 61.9046101,15.0071782 C62.6549691,15.0071782 64.1556869,15.0071782 64.9060458,15.0071782 C64.9060458,15.7575371 64.9060458,17.258255 64.9060458,18.0086139 C64.9060458,21.7135111 64.9060458,29.1233056 64.9060458,32.8282028 C65.5626098,32.968895 66.8757379,33.2502794 67.532302,33.3909715 C70.1585585,34.0162709 72.0344558,35.6107837 73.1599938,38.1745098 C74.2855319,40.738236 74.160472,43.2081674 72.7848144,45.5843043 C71.1590367,48.2730903 69.1268147,51.6340727 67.9074814,53.6506621 C67.9074814,57.4024567 67.9074814,64.9060458 67.9074814,68.6578403 C68.6578403,68.4077207 69.3769342,68.1263362 70.0647631,67.8136868 C70.7525919,67.5010374 71.2215665,67.2196526 71.4716867,66.9695323 C71.6592763,66.9070026 71.8937633,66.8288404 72.0344554,66.7819431 C72.9724041,67.9074814 74.8483014,70.1585582 75.78625,71.2840965 C72.7848144,73.7852929 69.1580796,75.0358911 64.9060458,75.0358911 C61.6544905,75.0358911 58.6530549,74.1604724 55.9017389,72.4096349 C53.1504229,74.1604724 50.1489872,75.0358911 46.8974319,75.0358911 C43.6458767,75.0358911 40.644441,74.1604724 37.893125,72.4096349 C35.141809,74.1604724 32.1403733,75.0358911 28.8888181,75.0358911 C25.6372628,75.0358911 22.6358271,74.1604724 19.8845111,72.4096349 C17.1331951,74.1604724 14.1317595,75.0358911 10.8802042,75.0358911 C9.00430661,75.0358911 7.15967421,74.7232415 5.346307,74.0979425 C3.53293979,73.4726434 2.18854666,72.8473441 1.31312761,72.2220447 C0.875418409,71.9093953 0.328281903,71.5185836 0,71.2840965 C0.937948639,70.1585582 2.81384592,67.9074814 3.75179455,66.7819431 C4.87733324,67.532302 6.25299124,68.1576011 7.87876856,68.6578403 C7.87876856,63.6554476 7.87876856,57.4024567 7.87876856,53.6506621 C6.65943533,51.6340727 4.22076887,47.6008938 3.00143564,45.5843043 C1.62577796,43.2081674 1.50071814,40.738236 2.62625619,38.1745098 C3.75179423,35.6107837 5.62769151,34.0162709 8.25394802,33.3909715 C9.12936675,33.1408519 10.2236402,32.8282024 10.8802042,32.6406126 C10.8802042,28.9826129 10.8802042,21.6666136 10.8802042,18.0086139 C10.8802042,17.258255 10.8802042,15.7575371 10.8802042,15.0071782 C11.6305631,15.0071782 13.1312809,15.0071782 13.8816399,15.0071782 C16.1327166,15.0071782 20.63487,15.0071782 22.8859468,15.0071782 C22.8859468,13.5064604 22.8859468,10.5050248 22.8859468,9.00430693 C22.8859468,8.25394802 22.8859468,6.7532302 22.8859468,6.00287129 C23.6363057,6.00287129 25.1370235,6.00287129 25.8873824,6.00287129 C28.1384592,6.00287129 32.6406126,6.00287129 34.8916894,6.00287129 C34.8916894,4.50215347 34.8916894,1.50071782 34.8916894,0 Z M28.8888181,12.0057426 C28.8888181,13.5064604 28.8888181,16.507896 28.8888181,18.0086139 C28.8888181,18.7589728 28.8888181,20.2596906 28.8888181,21.0100495 C28.1384592,21.0100495 26.6377413,21.0100495 25.8873824,21.0100495 C23.6363057,21.0100495 19.1341522,21.0100495 16.8830755,21.0100495 C16.8830755,23.6363057 16.8830755,28.8888181 16.8830755,31.5150743 C21.9479981,30.3895359 32.0778434,28.1384592 37.1427661,27.0129208 C37.3303558,27.0129208 37.7055353,27.0129208 37.893125,27.0129208 C38.0807147,27.0129208 38.4558942,27.0129208 38.6434839,27.0129208 C43.7084066,28.1384592 53.8382519,30.3895359 58.9031745,31.5150743 C58.9031745,28.8888181 58.9031745,23.6363057 58.9031745,21.0100495 C56.6520978,21.0100495 52.1499443,21.0100495 49.8988676,21.0100495 C49.1485087,21.0100495 47.6477908,21.0100495 46.8974319,21.0100495 C46.8974319,20.2596906 46.8974319,18.7589728 46.8974319,18.0086139 C46.8974319,16.507896 46.8974319,13.5064604 46.8974319,12.0057426 C42.3952785,12.0057426 33.3909715,12.0057426 28.8888181,12.0057426 Z M37.893125,33.2033813 C30.8585102,34.7040991 16.7892806,37.7055348 9.75466584,39.2062526 C8.87924743,39.3313128 8.28521337,39.7377572 7.97256367,40.4255861 C7.65991396,41.1134149 7.75370875,41.7699791 8.25394802,42.3952785 C10.0047855,45.3967141 12.1933323,49.1485087 13.5064604,51.3995854 C13.6002553,51.5402776 13.787845,51.8216619 13.8816399,51.9623541 C13.8816399,52.1968414 13.8816399,52.6658159 13.8816399,52.9003032 C13.8816399,56.8396875 13.8816399,64.7184561 13.8816399,68.6578403 C14.6319988,68.4077207 15.3510926,68.1263362 16.0389215,67.8136868 C16.7267503,67.5010374 17.1957249,67.2196526 17.4458452,66.9695323 C17.6334347,66.9070026 17.8679217,66.8288404 18.0086139,66.7819431 C18.4775882,66.4067636 19.4155368,65.6564047 19.8845111,65.2812252 C20.3534855,65.6564047 21.2914341,66.4067636 21.7604084,66.7819431 C23.8864257,68.2826609 26.2625622,69.0330198 28.8888181,69.0330198 C30.1394163,69.0330198 31.3587494,68.8454301 32.5468175,68.4702506 C33.7348856,68.0950712 34.5790393,67.7198919 35.0792786,67.3447127 C35.3919283,67.1571228 35.7827404,66.9226355 36.0172277,66.7819431 C36.486202,66.4067636 37.4241507,65.6564047 37.893125,65.2812252 C38.3620993,65.6564047 39.300048,66.4067636 39.7690223,66.7819431 C41.8950395,68.2826609 44.2711761,69.0330198 46.8974319,69.0330198 C48.1480301,69.0330198 49.3673633,68.8454301 50.5554314,68.4702506 C51.7434995,68.0950712 52.5876532,67.7198919 53.0878925,67.3447127 C53.4005422,67.1571228 53.7913543,66.9226355 54.0258416,66.7819431 C54.4948159,66.4067636 55.4327645,65.6564047 55.9017389,65.2812252 C56.3707132,65.6564047 57.3086618,66.4067636 57.7776361,66.7819431 C58.9031748,67.532302 60.2788328,68.1576011 61.9046101,68.6578403 C61.9046101,63.405328 61.9046101,56.8396875 61.9046101,52.9003032 C61.9046101,52.6658159 61.9046101,52.1968414 61.9046101,51.9623541 C61.998405,51.8216619 62.1859947,51.5402776 62.2797896,51.3995854 C63.5929177,49.1485087 66.2191739,44.6463552 67.532302,42.3952785 C68.0325413,41.7699791 68.126336,41.1134149 67.8136863,40.4255861 C67.5010366,39.7377572 66.9070026,39.3313128 66.0315842,39.2062526 C56.6520978,37.2052955 44.9277398,34.7040991 37.893125,33.2033813 Z M22.8859468,39.0186634 C24.8869039,39.0186634 25.8873824,40.5193812 25.8873824,43.5208168 C25.8873824,46.5222525 24.8869039,48.0229703 22.8859468,48.0229703 C20.8849897,48.0229703 19.8845111,46.5222525 19.8845111,43.5208168 C19.8845111,40.5193812 20.8849897,39.0186634 22.8859468,39.0186634 Z M52.9003032,39.0186634 C54.9012603,39.0186634 55.9017389,40.5193812 55.9017389,43.5208168 C55.9017389,46.5222525 54.9012603,48.0229703 52.9003032,48.0229703 C50.8993461,48.0229703 49.8988676,46.5222525 49.8988676,43.5208168 C49.8988676,40.5193812 50.8993461,39.0186634 52.9003032,39.0186634 Z" id="ship" fill="#000000" fill-rule="nonzero"></path>
    </g>
</svg>