<?xml version="1.0" encoding="UTF-8"?>
<svg width="66px" height="76px" viewBox="0 0 66 76" version="1.1" xmlns="http://www.w3.org/2000/svg" xmlns:xlink="http://www.w3.org/1999/xlink">
    <!-- Generator: Sketch 48.1 (47250) - http://www.bohemiancoding.com/sketch -->
    <title>shower</title>
    <desc>Created with Sketch.</desc>
    <defs></defs>
    <g id="shower---f2cc" stroke="none" stroke-width="1" fill="none" fill-rule="evenodd" transform="translate(-10.000000, 0.000000)">
        <path d="M27.8608879,21.4569998 C33.1321296,22.9249443 37,27.7607774 37,33.5 L37,46 L12,46 L12,33.5 C12,27.559683 16.1436686,22.5871717 21.6982658,21.315206 C24.5043005,9.10563905 35.4387823,2.39930678e-15 48.5,0 C63.6878306,-2.78995922e-15 76,12.3121694 76,27.5 L76,76 L70,76 L70,27.5 C70,15.6258779 60.3741221,6 48.5,6 C38.72397,6 30.4718718,12.5247275 27.8608879,21.4569998 Z M24.5,27 C20.9101491,27 18,29.9101491 18,33.5 L18,40 L31,40 L31,33.5 C31,29.9101491 28.0898509,27 24.5,27 Z M25,49 C26.1045695,49 27,49.8954305 27,51 L27,55 C27,56.1045695 26.1045695,57 25,57 C23.8954305,57 23,56.1045695 23,55 L23,51 C23,49.8954305 23.8954305,49 25,49 Z M25,60 C26.1045695,60 27,60.8954305 27,62 L27,66 C27,67.1045695 26.1045695,68 25,68 C23.8954305,68 23,67.1045695 23,66 L23,62 C23,60.8954305 23.8954305,60 25,60 Z M16.4587809,49.3237047 C17.5257131,49.6095883 18.1588781,50.7062622 17.8729945,51.7731944 L16.8377183,55.6368977 C16.5518347,56.7038299 15.4551608,57.3369949 14.3882286,57.0511113 C13.3212964,56.7652276 12.6881314,55.6685537 12.974015,54.6016215 L14.0092912,50.7379182 C14.2951748,49.670986 15.3918487,49.037821 16.4587809,49.3237047 Z M13.6117714,59.9488887 C14.6787036,60.2347724 15.3118686,61.3314463 15.025985,62.3983785 L13.9907088,66.2620818 C13.7048252,67.329014 12.6081513,67.962179 11.5412191,67.6762953 C10.4742869,67.3904117 9.84112189,66.2937378 10.1270055,65.2268056 L11.1622817,61.3631023 C11.4481653,60.2961701 12.5448392,59.6630051 13.6117714,59.9488887 Z M33.5412191,49.3237047 C34.6081513,49.037821 35.7048252,49.670986 35.9907088,50.7379182 L37.025985,54.6016215 C37.3118686,55.6685537 36.6787036,56.7652276 35.6117714,57.0511113 C34.5448392,57.3369949 33.4481653,56.7038299 33.1622817,55.6368977 L32.1270055,51.7731944 C31.8411219,50.7062622 32.4742869,49.6095883 33.5412191,49.3237047 Z M36.3882286,59.9488887 C37.4551608,59.6630051 38.5518347,60.2961701 38.8377183,61.3631023 L39.8729945,65.2268056 C40.1588781,66.2937378 39.5257131,67.3904117 38.4587809,67.6762953 C37.3918487,67.962179 36.2951748,67.329014 36.0092912,66.2620818 L34.974015,62.3983785 C34.6881314,61.3314463 35.3212964,60.2347724 36.3882286,59.9488887 Z" id="shower" fill="#000000"></path>
    </g>
</svg>