<?xml version="1.0" encoding="UTF-8"?>
<svg width="70px" height="76px" viewBox="0 0 70 76" version="1.1" xmlns="http://www.w3.org/2000/svg" xmlns:xlink="http://www.w3.org/1999/xlink">
    <!-- Generator: Sketch 49.3 (51167) - http://www.bohemiancoding.com/sketch -->
    <title>signing</title>
    <desc>Created with Sketch.</desc>
    <defs></defs>
    <g id="line" stroke="none" stroke-width="1" fill="none" fill-rule="evenodd">
        <g id="signing---f395" transform="translate(-3.000000, 0.000000)">
            <g id="signing" transform="translate(2.000000, 0.000000)">
                <path d="M30.1594749,20.0171394 C30.1594749,-5.85333812 15.3825387,3.90910622 14.3974097,20.0171394 C13.490678,34.8432815 18.8304905,48.3167876 20.3081841,58.5787945 C22.1760113,71.550127 10.1933751,70.7646599 7.0089416,53.7090127 C4.54611891,40.5182725 14.3974097,31.7320726 29.1743458,58.5787945 C34.8766227,68.9386851 28.0045276,47.6730514 28.1892167,45.8876169 C28.4831328,43.0462589 33.3997865,54.4934557 35.0851202,56.1381834 C36.2188279,57.2445758 33.7250999,47.7894728 35.0851202,46.8638613 C37.0172856,45.5488557 39.4951121,54.189508 40.5033302,52.7213279 C41.6683773,51.0247712 39.8655623,47.4688064 41.4884592,45.8876169 C42.6361084,44.7694616 44.2150585,48.6075002 45.9215401,48.3282279 C47.9652498,47.9937671 47.2268426,42.8883756 51.33975,41.9826391 C55.7728308,41.0063947 55.2802663,45.452883 55.2802663,48.6066102" id="Path-4" stroke="#000000" stroke-width="5.32467532" stroke-linecap="round" transform="translate(30.964163, 35.785962) rotate(11.000000) translate(-30.964163, -35.785962) "></path>
                <path d="M20.7175473,76.9505459 C39.3830473,74.4399293 42.6366179,57.540196 66.869285,58.2966599" id="Path-5" stroke="#000000" stroke-width="5.32467532" stroke-linecap="round" transform="translate(43.793416, 67.611287) rotate(11.000000) translate(-43.793416, -67.611287) "></path>
                <ellipse id="Oval-4" fill="#000000" transform="translate(61.791045, 53.779221) rotate(70.000000) translate(-61.791045, -53.779221) " cx="61.7910448" cy="53.7792208" rx="2.68656716" ry="2.66233766"></ellipse>
                <ellipse id="Oval-4-Copy" fill="#000000" transform="translate(68.238806, 53.779221) rotate(70.000000) translate(-68.238806, -53.779221) " cx="68.238806" cy="53.7792208" rx="2.68656716" ry="2.66233766"></ellipse>
            </g>
        </g>
    </g>
</svg>