<?xml version="1.0" encoding="UTF-8"?>
<svg width="76px" height="76px" viewBox="0 0 76 76" version="1.1" xmlns="http://www.w3.org/2000/svg" xmlns:xlink="http://www.w3.org/1999/xlink">
    <!-- Generator: Sketch 48.1 (47250) - http://www.bohemiancoding.com/sketch -->
    <title>sign-language</title>
    <desc>Created with Sketch.</desc>
    <defs></defs>
    <g id="sign-language---f2a7" stroke="none" stroke-width="1" fill="none" fill-rule="evenodd">
        <path d="M0.144536482,45.1661261 C0.284306553,43.5685468 0.910216673,42.164419 2.02226684,40.9537424 C3.13431706,39.7430653 4.50660303,39.0079144 6.13912477,38.7482897 C5.82708626,37.7148601 5.70600952,36.7987506 5.77589455,35.999961 C5.95060714,34.002987 6.79805375,32.3667084 8.31823438,31.0911254 C9.838415,29.8155424 11.5969923,29.2651072 13.5939663,29.4398198 L39.3549312,31.6936122 C35.6854235,25.3357937 38.8747312,19.3874087 45.2479436,17.7209164 C48.938023,22.1185818 58.3573701,31.8469156 63.277476,37.7104695 C66.3753204,41.4023367 67.7407944,45.3450931 67.373898,49.5387385 L66.4042431,60.6219443 C66.0024042,65.2149846 64.0098433,69.0148704 60.4265604,72.0216017 C56.8432775,75.0283331 52.7551159,76.3307793 48.1620756,75.9289403 L19.4056497,73.4130791 C17.4086757,73.2383665 15.7723972,72.3909199 14.4968142,70.8707393 C13.2212312,69.3505586 12.670796,67.5919813 12.8455086,65.5950073 C12.9153936,64.7962177 13.1350518,64.0105315 13.5044832,63.2379488 L10.6587949,62.9889834 C8.66182084,62.8142708 7.02554233,61.9668242 5.74995933,60.4466435 C4.47437633,58.9264629 3.92394112,57.1678856 4.09865371,55.1709116 C4.16853874,54.372122 4.44685681,53.4909549 4.93360791,52.5274104 C3.37097121,51.9882455 2.14719095,51.0259684 1.26226712,49.640579 C0.377343291,48.2551896 0.00476641192,46.7637053 0.144536482,45.1661261 Z M5.44177283,45.6295742 C5.30200276,47.2271534 6.01689348,48.094602 7.58644499,48.23192 L31.1297177,50.2916894 L30.7104074,55.0844271 L11.8757893,53.4366115 C10.3062378,53.2992935 9.45157701,54.0294242 9.31180694,55.6270034 C9.17203687,57.2245826 9.88692759,58.0920312 11.4564791,58.2293491 L30.2910972,59.8771647 L29.871787,64.6699024 L20.454478,63.8459946 C18.8849264,63.7086766 18.0302657,64.4388072 17.8904956,66.0363865 C17.7507255,67.6339657 18.4656162,68.5014143 20.0351677,68.6387322 L48.2870949,71.1104556 C51.5242947,71.3936739 54.3981776,70.4629036 56.9087439,68.3181448 C59.4193101,66.1733859 60.818731,63.4535031 61.1070068,60.1584962 L62.0766617,49.0752904 C62.3212593,46.2795267 61.371222,43.580472 59.2265499,40.9781263 C55.6139673,36.5117813 47.5655846,26.8199884 43.9016228,22.9409114 C43.5000474,23.2778731 40.5412235,25.7606212 42.4780606,29.0437791 C43.4308749,30.6589072 45.5534781,33.5135023 48.8458702,37.6075644 L13.5309612,34.5179103 C11.9614097,34.3805923 11.1288179,34.8584736 10.9890478,36.4560528 C10.8492777,38.053632 11.5641684,38.9210806 13.1337199,39.0583986 L31.9683381,40.7062141 L31.5490279,45.4989518 L8.0057552,43.4391823 C6.43620369,43.3018643 5.5815429,44.031995 5.44177283,45.6295742 Z M33.4665522,28.9245481 C33.503725,29.0475813 33.5431511,29.1708931 33.5848631,29.294468 C33.1834226,29.259152 22.2188884,28.0310661 14.2152994,27.213303 C14.0110242,26.7900068 13.8448503,26.3380479 13.7167776,25.8574263 C13.2044736,23.9348903 13.4481932,22.1030229 14.4479365,20.3618243 C14.8478339,19.6653448 15.470879,18.9823336 16.3170719,18.3127906 C15.1317356,17.1603257 14.4310824,15.7668833 14.2151125,14.1324634 C13.9991425,12.4980436 14.2910549,10.9843542 15.0908495,9.59139532 C15.8906442,8.19843642 17.0483596,7.1873879 18.5639957,6.55824977 C20.0796321,5.92911119 21.6300671,5.84253463 23.2153007,6.2985201 C23.3688511,5.22686449 23.645575,4.34279697 24.0454723,3.64631752 C25.0452156,1.9051189 26.5010596,0.776948591 28.4130043,0.261806601 C30.3249489,-0.253335389 32.1467244,-0.00826563718 33.8783306,0.997015855 L56.2160506,13.9651471 C55.5789075,6.63046011 60.9695066,2.57522931 67.4333516,3.76182829 C68.9153739,9.32345052 73.3295367,22.1591582 75.3055666,29.5746546 C76.5497335,34.2436707 76.1220865,38.4064374 74.0226255,42.0629545 L69.8597478,49.3132126 C70.0866116,46.488688 69.6093922,43.7643132 68.4280897,41.140088 L69.4293122,39.3963131 C70.8289529,36.958635 71.1078829,34.1024898 70.2661023,30.8278775 C68.8830879,25.2366743 65.6928666,13.0152999 64.0158487,7.9361465 C63.5107837,8.07222793 59.7894447,9.07488143 60.156354,12.8802578 C60.3368527,14.7522879 61.0523499,18.246841 62.3028458,23.3639174 L44.7420689,13.1690336 C44.6872851,13.1047415 44.6335076,13.0414525 44.5807593,12.979189 C44.5426566,12.9890156 44.5045788,12.9989756 44.4665272,13.0090683 L31.6807571,5.58630781 C30.3197753,4.79619183 29.3656705,4.87767241 28.5658759,6.27063131 C27.7660812,7.66359021 28.0466748,8.75512764 29.4076565,9.54524362 L39.3231932,15.3016942 C37.8823433,16.2437495 36.5984042,17.3900066 35.5693585,18.6942193 L22.9253274,11.3537724 C21.5643457,10.5636564 20.4839575,10.8650779 19.6841628,12.2580367 C18.8843682,13.6509956 19.1649617,14.7425331 20.5259434,15.5326491 L33.3588594,22.98278 C32.8537579,24.8330158 32.8363548,26.8387437 33.4665522,28.9245481 C33.4293794,28.8015149 33.3944599,28.6787604 33.3617607,28.5562999 L22.2095047,22.0818737 C20.8485229,21.2917577 19.7681348,21.5931792 18.9683401,22.9861381 C18.1685455,24.379097 18.449139,25.4706344 19.8101207,26.2607504 L23.0584819,28.1465818 C28.5603852,28.7401839 33.3228325,29.2714163 33.5848631,29.294468 C33.5431511,29.1708931 33.503725,29.0475813 33.4665522,28.9245481 Z" id="sign-language" fill="#000000" fill-rule="nonzero"></path>
    </g>
</svg>