<?xml version="1.0" encoding="UTF-8"?>
<svg width="76px" height="76px" viewBox="0 0 76 76" version="1.1" xmlns="http://www.w3.org/2000/svg" xmlns:xlink="http://www.w3.org/1999/xlink">
    <!-- Generator: Sketch 48.1 (47250) - http://www.bohemiancoding.com/sketch -->
    <title>signal</title>
    <desc>Created with Sketch.</desc>
    <defs></defs>
    <g id="signal---f012" stroke="none" stroke-width="1" fill="none" fill-rule="evenodd">
        <path d="M27,17 L49,17 L49,76 L27,76 L27,17 Z M54,0 L76,0 L76,76 L54,76 L54,0 Z M0,37 L22,37 L22,76 L0,76 L0,37 Z M70,6 L70,70 L60,70 L60,6 L70,6 Z M43,23 L43,70 L33,70 L33,23 L43,23 Z M16,43 L16,70 L6,70 L6,43 L16,43 Z" id="signal" fill="#000000"></path>
    </g>
</svg>