<?xml version="1.0" encoding="UTF-8"?>
<svg width="76px" height="68px" viewBox="0 0 76 68" version="1.1" xmlns="http://www.w3.org/2000/svg" xmlns:xlink="http://www.w3.org/1999/xlink">
    <!-- Generator: Sketch 48.1 (47250) - http://www.bohemiancoding.com/sketch -->
    <title>sliders</title>
    <desc>Created with Sketch.</desc>
    <defs></defs>
    <g id="sliders---f1de" stroke="none" stroke-width="1" fill="none" fill-rule="evenodd" transform="translate(0.000000, -4.000000)">
        <path d="M50.4578023,59 C51.7320659,54.942893 55.5223582,52 60,52 C64.4776418,52 68.2679341,54.942893 69.5421977,59 L76,59 L76,65 L69.5421977,65 C68.2679341,69.057107 64.4776418,72 60,72 C55.5223582,72 51.7320659,69.057107 50.4578023,65 L0,65 L0,59 L50.4578023,59 Z M6.45780228,35 C7.73206592,30.942893 11.5223582,28 16,28 C20.4776418,28 24.2679341,30.942893 25.5421977,35 L76,35 L76,41 L25.5421977,41 C24.2679341,45.057107 20.4776418,48 16,48 C11.5223582,48 7.73206592,45.057107 6.45780228,41 L0,41 L0,35 L6.45780228,35 Z M32.4578023,11 C33.7320659,6.94289305 37.5223582,4 42,4 C46.4776418,4 50.2679341,6.94289305 51.5421977,11 L76,11 L76,17 L51.5421977,17 C50.2679341,21.057107 46.4776418,24 42,24 C37.5223582,24 33.7320659,21.057107 32.4578023,17 L0,17 L0,11 L32.4578023,11 Z M42,19 C44.7614237,19 47,16.7614237 47,14 C47,11.2385763 44.7614237,9 42,9 C39.2385763,9 37,11.2385763 37,14 C37,16.7614237 39.2385763,19 42,19 Z M16,43 C18.7614237,43 21,40.7614237 21,38 C21,35.2385763 18.7614237,33 16,33 C13.2385763,33 11,35.2385763 11,38 C11,40.7614237 13.2385763,43 16,43 Z M60,67 C62.7614237,67 65,64.7614237 65,62 C65,59.2385763 62.7614237,57 60,57 C57.2385763,57 55,59.2385763 55,62 C55,64.7614237 57.2385763,67 60,67 Z" id="sliders" fill="#000000"></path>
    </g>
</svg>