<?xml version="1.0" encoding="UTF-8"?>
<svg width="76px" height="76px" viewBox="0 0 76 76" version="1.1" xmlns="http://www.w3.org/2000/svg" xmlns:xlink="http://www.w3.org/1999/xlink">
    <!-- Generator: Sketch 48.1 (47250) - http://www.bohemiancoding.com/sketch -->
    <title>smile-o</title>
    <desc>Created with Sketch.</desc>
    <defs></defs>
    <g id="smile-o---f118" stroke="none" stroke-width="1" fill="none" fill-rule="evenodd">
        <path d="M38,0 C48.4236114,0 57.3628476,3.72743047 64.8177086,11.1822914 C72.2725695,18.6371524 76,27.5763886 76,38 C76,48.4236114 72.2725695,57.3628476 64.8177086,64.8177086 C57.3628476,72.2725695 48.4236114,76 38,76 C27.5763886,76 18.6371524,72.2725695 11.1822914,64.8177086 C3.72743047,57.3628476 0,48.4236114 0,38 C0,27.5763886 3.72743047,18.6371524 11.1822914,11.1822914 C18.6371524,3.72743047 27.5763886,0 38,0 Z M38,6 C29.2,6 21.6666667,9.13333333 15.4,15.4 C9.13333333,21.6666667 6,29.2 6,38 C6,46.8 9.13333333,54.3333333 15.4,60.6 C21.6666667,66.8666667 29.2,70 38,70 C46.8,70 54.3333333,66.8666667 60.6,60.6 C66.8666667,54.3333333 70,46.8 70,38 C70,29.2 66.8666667,21.6666667 60.6,15.4 C54.3333333,9.13333333 46.8,6 38,6 Z M23.6875,21 C24.9895833,21 26.0963542,21.4557292 27.0078125,22.3671875 C27.9192708,23.2786458 28.375,24.3854167 28.375,25.6875 C28.375,26.9895833 27.9192708,28.0963542 27.0078125,29.0078125 C26.0963542,29.9192708 24.9895833,30.375 23.6875,30.375 C22.3854167,30.375 21.2786458,29.9192708 20.3671875,29.0078125 C19.4557292,28.0963542 19,26.9895833 19,25.6875 C19,24.3854167 19.4557292,23.2786458 20.3671875,22.3671875 C21.2786458,21.4557292 22.3854167,21 23.6875,21 Z M51.6875,21 C52.9895833,21 54.0963542,21.4557292 55.0078125,22.3671875 C55.9192708,23.2786458 56.375,24.3854167 56.375,25.6875 C56.375,26.9895833 55.9192708,28.0963542 55.0078125,29.0078125 C54.0963542,29.9192708 52.9895833,30.375 51.6875,30.375 C50.3854167,30.375 49.2786458,29.9192708 48.3671875,29.0078125 C47.4557292,28.0963542 47,26.9895833 47,25.6875 C47,24.3854167 47.4557292,23.2786458 48.3671875,22.3671875 C49.2786458,21.4557292 50.3854167,21 51.6875,21 Z M22.9090904,43 C26.3030298,49.25 31.333333,52.375 38,52.375 C44.666667,52.375 49.6969702,49.25 53.0909096,43 C54.727273,44.0416667 54.727273,44.0416667 58,46.125 C56.0606061,49.9010413 53.3030304,52.928385 49.727273,55.207031 C46.1515155,57.485677 42.2424246,58.625 38,58.625 C33.7575754,58.625 29.8484845,57.485677 26.272727,55.207031 C22.6969696,52.928385 19.9393939,49.9010413 18,46.125 C19.6363635,45.0833333 19.6363635,45.0833333 22.9090904,43 Z" id="smile-o" fill="#000000" fill-rule="nonzero"></path>
    </g>
</svg>