<?xml version="1.0" encoding="UTF-8"?>
<svg width="76px" height="76px" viewBox="0 0 76 76" version="1.1" xmlns="http://www.w3.org/2000/svg" xmlns:xlink="http://www.w3.org/1999/xlink">
    <!-- Generator: Sketch 48.1 (47250) - http://www.bohemiancoding.com/sketch -->
    <title>snowflake-o</title>
    <desc>Created with Sketch.</desc>
    <defs></defs>
    <g id="snowflake-o---f2dc" stroke="none" stroke-width="1" fill="none" fill-rule="evenodd">
        <path d="M19.5509413,52.2064181 L30.7573593,41 L14.9090909,41 L4,49 L2,45 L8,41 L0,41 L0,35 L8,35 L2,31 L4,27 L14.9090909,35 L30.7573593,35 L19.5509413,23.7935819 L6.18019485,21.736544 L7.59440841,17.4939033 L14.6654762,18.9081169 L9.00862197,13.2512627 L13.2512627,9.00862197 L18.9081169,14.6654762 L17.4939033,7.59440841 L21.736544,6.18019485 L23.7935819,19.5509413 L35,30.7573593 L35,14.9090909 L27,4 L31,2 L35,8 L35,0 L41,0 L41,8 L45,2 L49,4 L41,14.9090909 L41,30.7573593 L52.2064181,19.5509413 L54.263456,6.18019485 L58.5060967,7.59440841 L57.0918831,14.6654762 L62.7487373,9.00862197 L66.991378,13.2512627 L61.3345238,18.9081169 L68.4055916,17.4939033 L69.8198052,21.736544 L56.4490587,23.7935819 L45.2426407,35 L61.0909091,35 L72,27 L74,31 L68,35 L76,35 L76,41 L68,41 L74,45 L72,49 L61.0909091,41 L45.2426407,41 L56.4490587,52.2064181 L69.8198052,54.263456 L68.4055916,58.5060967 L61.3345238,57.0918831 L66.991378,62.7487373 L62.7487373,66.991378 L57.0918831,61.3345238 L58.5060967,68.4055916 L54.263456,69.8198052 L52.2064181,56.4490587 L41,45.2426407 L41,61.0909091 L49,72 L45,74 L41,68 L41,76 L35,76 L35,68 L31,74 L27,72 L35,61.0909091 L35,45.2426407 L23.7935819,56.4490587 L21.736544,69.8198052 L17.4939033,68.4055916 L18.9081169,61.3345238 L13.2512627,66.991378 L9.00862197,62.7487373 L14.6654762,57.0918831 L7.59440841,58.5060967 L6.18019485,54.263456 L19.5509413,52.2064181 Z" id="snowflake-o" fill="#000000"></path>
    </g>
</svg>