<?xml version="1.0" encoding="UTF-8"?>
<svg width="76px" height="76px" viewBox="0 0 76 76" version="1.1" xmlns="http://www.w3.org/2000/svg" xmlns:xlink="http://www.w3.org/1999/xlink">
    <!-- Generator: Sketch 48.1 (47250) - http://www.bohemiancoding.com/sketch -->
    <title>sort-alpha-asc</title>
    <desc>Created with Sketch.</desc>
    <defs></defs>
    <g id="sort-alpha-asc---f15d" stroke="none" stroke-width="1" fill="none" fill-rule="evenodd">
        <path d="M13,12 L10,20 L16,20 L13,12 Z M56.2,0 L62.8,0 L62.8,63.1222228 L71.4625,54.4666667 L76,59.1111111 L59.5,76 L43,59.1111111 L47.5375,54.4666667 L56.2,63.1222228 L56.2,27.7663889 L56.2,0 Z M0,43 L22.75,43 L26,43 L26,46.3 L26,49.6 L26,50.8375 L25.1875,52.075 L7.92187552,69.4 L26,69.4 L26,76 L3.25,76 L0,76 L0,72.7 L0,69.4 L0,68.1625 L0.8125,66.925 L18.0781245,49.6 L0,49.6 L0,43 Z M10.3593755,0 L12.59375,0 L13.40625,0 L15.6406245,0 L16.25,2.0625 L22.75,19.8 L22.75,20.0062495 L25.7968755,28.4625 L26,29.0812495 L26,29.7 L26,33 L19.5,33 L19.5,30.1125 L18.28125,26.4 L7.71875,26.4 L6.5,30.1125 L6.5,33 L0,33 L0,29.7 L0,29.0812495 L0.20312448,28.4625 L3.25,20.0062495 L3.25,19.8 L9.75,2.0625 L10.3593755,0 Z" id="sort-alpha-asc" fill="#000000" fill-rule="nonzero"></path>
    </g>
</svg>