<?xml version="1.0" encoding="UTF-8"?>
<svg width="74px" height="76px" viewBox="0 0 74 76" version="1.1" xmlns="http://www.w3.org/2000/svg" xmlns:xlink="http://www.w3.org/1999/xlink">
    <!-- Generator: Sketch 48.1 (47250) - http://www.bohemiancoding.com/sketch -->
    <title>sort-numeric-asc</title>
    <desc>Created with Sketch.</desc>
    <defs></defs>
    <g id="sort-numeric-asc---f162" stroke="none" stroke-width="1" fill="none" fill-rule="evenodd" transform="translate(-2.000000, 0.000000)">
        <path d="M56.2,0 L62.8,0 L62.8,63.1222228 L71.4625,54.4666667 L76,59.1111111 L59.5,76 L43,59.1111111 L47.5375,54.4666667 L56.2,63.1222228 L56.2,27.7663889 L56.2,0 Z M18.5899216,33.4437577 L12.165595,33.4437577 L12.165595,6.57601978 L5,12.4944376 L5,5.9184178 L12.165595,0 L18.5899216,0 L18.5899216,33.4437577 Z M23.3979492,75.7255871 L2,75.7255871 L2,70.2299135 L15.1451605,55.7156984 C16.4300258,54.2595797 16.9736227,53.2262052 16.9736227,51.6761434 C16.9736227,49.1866502 15.4416679,47.4956737 12.7236836,47.4956737 C10.598714,47.4956737 8.42432656,48.5290482 8.42432656,51.7700865 L2,51.7700865 C2,45.6637824 6.69470018,42 12.7236836,42 C18.9503385,42 23.3979492,45.710754 23.3979492,51.723115 C23.3979492,54.9641533 22.063666,56.7021014 19.6421891,59.3794808 L9.80802766,70.2299135 L23.3979492,70.2299135 L23.3979492,75.7255871 Z" id="sort-numeric-asc" fill="#000000"></path>
    </g>
</svg>