<?xml version="1.0" encoding="UTF-8"?>
<svg width="76px" height="76px" viewBox="0 0 76 76" version="1.1" xmlns="http://www.w3.org/2000/svg" xmlns:xlink="http://www.w3.org/1999/xlink">
    <!-- Generator: Sketch 48.1 (47250) - http://www.bohemiancoding.com/sketch -->
    <title>sort-amount-desc</title>
    <desc>Created with Sketch.</desc>
    <defs></defs>
    <g id="sort-amount-desc---f161" stroke="none" stroke-width="1" fill="none" fill-rule="evenodd">
        <path d="M0,0 L40,0 L40,7 L0,7 L0,0 Z M56.2,0 L62.8,0 L62.8,63.1222228 L71.4625,54.4666667 L76,59.1111111 L59.5,76 L43,59.1111111 L47.5375,54.4666667 L56.2,63.1222228 L56.2,0 Z M0,13 L33,13 L33,20 L0,20 L0,13 Z M0,27 L26,27 L26,34 L0,34 L0,27 Z M0,41 L20,41 L20,48 L0,48 L0,41 Z M0,54 L13,54 L13,61 L0,61 L0,54 Z M0,68 L7,68 L7,75 L0,75 L0,68 Z" id="sort-amount-desc" fill="#000000" fill-rule="nonzero"></path>
    </g>
</svg>