<?xml version="1.0" encoding="UTF-8"?>
<svg width="74px" height="76px" viewBox="0 0 74 76" version="1.1" xmlns="http://www.w3.org/2000/svg" xmlns:xlink="http://www.w3.org/1999/xlink">
    <!-- Generator: Sketch 48.1 (47250) - http://www.bohemiancoding.com/sketch -->
    <title>sort-numeric-desc</title>
    <desc>Created with Sketch.</desc>
    <defs></defs>
    <g id="sort-numeric-desc---f163" stroke="none" stroke-width="1" fill="none" fill-rule="evenodd" transform="translate(-2.000000, 0.000000)">
        <path d="M56.2,0 L62.8,0 L62.8,63.1222228 L71.4625,54.4666667 L76,59.1111111 L59.5,76 L43,59.1111111 L47.5375,54.4666667 L56.2,63.1222228 L56.2,27.7663889 L56.2,0 Z M18.5899216,76.4437577 L12.165595,76.4437577 L12.165595,49.5760198 L5,55.4944376 L5,48.9184178 L12.165595,43 L18.5899216,43 L18.5899216,76.4437577 Z M23.3979492,33.7255871 L2,33.7255871 L2,28.2299135 L15.1451605,13.7156984 C16.4300258,12.2595797 16.9736227,11.2262052 16.9736227,9.67614339 C16.9736227,7.18665019 15.4416679,5.49567367 12.7236836,5.49567367 C10.598714,5.49567367 8.42432656,6.52904821 8.42432656,9.77008653 L2,9.77008653 C2,3.66378245 6.69470018,0 12.7236836,0 C18.9503385,0 23.3979492,3.71075402 23.3979492,9.72311496 C23.3979492,12.9641533 22.063666,14.7021014 19.6421891,17.3794808 L9.80802766,28.2299135 L23.3979492,28.2299135 L23.3979492,33.7255871 Z" id="sort-numeric-desc" fill="#000000"></path>
    </g>
</svg>