<?xml version="1.0" encoding="UTF-8"?>
<svg width="76px" height="76px" viewBox="0 0 76 76" version="1.1" xmlns="http://www.w3.org/2000/svg" xmlns:xlink="http://www.w3.org/1999/xlink">
    <!-- Generator: Sketch 48.1 (47250) - http://www.bohemiancoding.com/sketch -->
    <title>sort-alpha-desc</title>
    <desc>Created with Sketch.</desc>
    <defs></defs>
    <g id="sort-alpha-desc---f15e" stroke="none" stroke-width="1" fill="none" fill-rule="evenodd">
        <path d="M0,0 L22.75,0 L26,0 L26,3.3 L26,6.6 L26,7.8375 L25.1875,9.075 L7.92187552,26.4 L26,26.4 L26,33 L3.25,33 L0,33 L0,29.7 L0,26.4 L0,25.1625 L0.8125,23.925 L18.0781245,6.6 L0,6.6 L0,0 Z M56.2,0 L62.8,0 L62.8,63.1222228 L71.4625,54.4666667 L76,59.1111111 L59.5,76 L43,59.1111111 L47.5375,54.4666667 L56.2,63.1222228 L56.2,27.7663889 L56.2,0 Z M10.3593755,41 L12.59375,41 L13.40625,41 L15.6406245,41 L16.25,43.0625 L22.75,60.8 L22.75,61.0062495 L25.7968755,69.4625 L26,70.0812495 L26,70.7 L26,74 L19.5,74 L19.5,71.1125 L18.28125,67.4 L7.71875,67.4 L6.5,71.1125 L6.5,74 L0,74 L0,70.7 L0,70.0812495 L0.20312448,69.4625 L3.25,61.0062495 L3.25,60.8 L9.75,43.0625 L10.3593755,41 Z M13,53 L10,61 L16,61 L13,53 Z" id="sort-alpha-desc" fill="#000000" fill-rule="nonzero"></path>
    </g>
</svg>