<?xml version="1.0" encoding="UTF-8"?>
<svg width="76px" height="57px" viewBox="0 0 76 57" version="1.1" xmlns="http://www.w3.org/2000/svg" xmlns:xlink="http://www.w3.org/1999/xlink">
    <!-- Generator: Sketch 48.1 (47250) - http://www.bohemiancoding.com/sketch -->
    <title>space-shuttle</title>
    <desc>Created with Sketch.</desc>
    <defs></defs>
    <g id="space-shuttle---f197" stroke="none" stroke-width="1" fill="none" fill-rule="evenodd" transform="translate(0.000000, -10.000000)">
        <path d="M4.72233007,10 C5.31262133,10 6.49320385,10 7.08349511,10 C9.18640763,10 13.3922327,10 15.4951452,10 C21.4964399,10 26.6614885,12.1770833 30.9902911,16.53125 C31.088673,16.6302083 31.2116503,16.7539062 31.2854367,16.828125 C33.7941746,19.2773438 38.8116503,24.1757812 41.3203881,26.625 C46.0427182,27.0703125 55.4873784,27.9609375 60.2097084,28.40625 C66.6045302,28.9010414 71.6220059,31.8203124 75.2621355,37.1640629 C75.5080904,37.6093753 75.8155339,38.1660157 76,38.5 C75.8155339,38.8339843 75.4466017,39.5019528 75.2621355,39.8359371 C71.6220059,45.1796876 66.6045302,48.0989586 60.2097084,48.59375 C53.9132683,49.1875 46.0427182,49.9296875 41.3203881,50.375 C38.7378639,52.8984375 33.5728154,57.9453125 30.9902911,60.46875 C26.7598707,64.8229167 21.594822,67 15.4951452,67 C12.6912618,67 9.18640763,67 7.08349511,67 C6.49320385,67 5.31262133,67 4.72233007,67 C4.72233007,66.40625 4.72233007,65.21875 4.72233007,64.625 C4.72233007,61.65625 4.72233007,55.71875 4.72233007,52.75 C3.54174756,52.75 1.18058252,52.75 0,52.75 C0,50.96875 0,47.40625 0,45.625 C0.590291259,45.625 1.77087378,45.625 2.36116504,45.625 C2.36116504,42.0625 2.36116504,34.9375 2.36116504,31.375 C1.77087378,31.375 0.590291259,31.375 0,31.375 C0,29.59375 0,26.03125 0,24.25 C1.18058252,24.25 3.54174756,24.25 4.72233007,24.25 C4.72233007,21.28125 4.72233007,15.34375 4.72233007,12.375 C4.72233007,11.78125 4.72233007,10.59375 4.72233007,10 Z M9.44466015,14.75 C9.44466015,17.125 9.44466015,21.875 9.44466015,24.25 C9.44466015,26.03125 9.44466015,29.59375 9.44466015,31.375 C8.85436889,31.375 7.67378637,31.375 7.08349511,31.375 C7.08349511,34.9375 7.08349511,42.0625 7.08349511,45.625 C7.67378637,45.625 8.85436889,45.625 9.44466015,45.625 C9.44466015,46.21875 9.44466015,47.40625 9.44466015,48 C9.44466015,48.59375 9.44466015,49.78125 9.44466015,50.375 C9.44466015,53.34375 9.44466015,59.28125 9.44466015,62.25 C10.9572814,62.25 13.9825239,62.25 15.4951452,62.25 C20.3158574,62.25 24.3987054,60.5677083 27.7436892,57.203125 C29.9572813,54.9270833 32.7242714,52.0820312 34.3844655,50.375 C31.6912617,50.375 26.3048541,50.375 23.6116504,50.375 C23.6116504,49.1875 23.6116504,46.8125 23.6116504,45.625 C27.6699028,45.625 35.7864076,45.625 39.84466,45.625 C44.8252424,45.2167968 54.7864072,44.4003903 59.7669896,43.9921871 C63.6038831,43.6953124 66.9488669,41.8645833 69.801941,38.5 C66.9488669,35.1354167 63.6038831,33.3046876 59.7669896,33.0078129 C53.224595,32.4635419 45.0466016,31.7832032 40.1398056,31.375 C36.0077668,31.375 27.7436892,31.375 23.6116504,31.375 C23.6116504,30.1875 23.6116504,27.8125 23.6116504,26.625 C26.3048541,26.625 31.6912617,26.625 34.3844655,26.625 C32.7242714,24.9179688 29.4038833,21.5039062 27.7436892,19.796875 C24.3987054,16.4322917 20.3158574,14.75 15.4951452,14.75 C13.4783168,14.75 10.9572814,14.75 9.44466015,14.75 Z M56.6679609,36.125 C57.8485434,36.125 60.2097084,36.125 61.390291,36.125 C61.390291,37.3125 61.390291,39.6875 61.390291,40.875 C60.2097084,40.875 57.8485434,40.875 56.6679609,40.875 C56.6679609,39.6875 56.6679609,37.3125 56.6679609,36.125 Z M14.1669902,50.375 C15.3475727,50.375 17.7087378,50.375 18.8893203,50.375 C18.8893203,52.15625 18.8893203,55.71875 18.8893203,57.5 C17.7087378,57.5 15.3475727,57.5 14.1669902,57.5 C14.1669902,55.71875 14.1669902,52.15625 14.1669902,50.375 Z" id="space-shuttle" fill="#000000" fill-rule="nonzero"></path>
    </g>
</svg>