<?xml version="1.0" encoding="UTF-8"?>
<svg width="76px" height="76px" viewBox="0 0 76 76" version="1.1" xmlns="http://www.w3.org/2000/svg" xmlns:xlink="http://www.w3.org/1999/xlink">
    <!-- Generator: Sketch 48.1 (47250) - http://www.bohemiancoding.com/sketch -->
    <title>spinner</title>
    <desc>Created with Sketch.</desc>
    <defs></defs>
    <g id="spinner---f110" stroke="none" stroke-width="1" fill="none" fill-rule="evenodd">
        <path d="M13.3503126,17.5929533 L9.00862197,13.2512627 L13.2512627,9.00862197 L17.5929533,13.3503126 C16.0500169,14.6291158 14.6291158,16.0500169 13.3503126,17.5929533 Z M23.2813366,9.57843126 L20.9833979,3.89083331 L26.546501,1.64319375 L28.8437732,7.32914188 C26.9062907,7.90669177 25.0457808,8.66281922 23.2813366,9.57843126 Z M35,6.13877474 L35,0 L41,0 L41,6.13877474 C40.0123376,6.04694478 39.0116511,6 38,6 C36.9883489,6 35.9876624,6.04694478 35,6.13877474 Z M47.1562268,7.32914188 L49.453499,1.64319375 L55.0166021,3.89083331 L52.7186634,9.57843126 C50.9542192,8.66281922 49.0937093,7.90669177 47.1562268,7.32914188 Z M58.4070467,13.3503126 L62.7487373,9.00862197 L66.991378,13.2512627 L62.6496874,17.5929533 C61.3708842,16.0500169 59.9499831,14.6291158 58.4070467,13.3503126 Z M66.4215687,23.2813366 L72.1091667,20.9833979 L74.3568063,26.546501 L68.6708581,28.8437732 C68.0933082,26.9062907 67.3371808,25.0457808 66.4215687,23.2813366 Z M69.8612253,35 L76,35 L76,41 L69.8612253,41 C69.9530552,40.0123376 70,39.0116511 70,38 C70,36.9883489 69.9530552,35.9876624 69.8612253,35 Z M68.6708581,47.1562268 L74.3568063,49.453499 L72.1091667,55.0166021 L66.4215687,52.7186634 C67.3371808,50.9542192 68.0933082,49.0937093 68.6708581,47.1562268 Z M62.6496874,58.4070467 L66.991378,62.7487373 L62.7487373,66.991378 L58.4070467,62.6496874 C59.9499831,61.3708842 61.3708842,59.9499831 62.6496874,58.4070467 Z M52.7186634,66.4215687 L55.0166021,72.1091667 L49.453499,74.3568063 L47.1562268,68.6708581 C49.0937093,68.0933082 50.9542192,67.3371808 52.7186634,66.4215687 Z M41,69.8612253 L41,76 L35,76 L35,69.8612253 C35.9876624,69.9530552 36.9883489,70 38,70 C39.0116511,70 40.0123376,69.9530552 41,69.8612253 Z M28.8437732,68.6708581 L26.546501,74.3568063 L20.9833979,72.1091667 L23.2813366,66.4215687 C25.0457808,67.3371808 26.9062907,68.0933082 28.8437732,68.6708581 Z M17.5929533,62.6496874 L13.2512627,66.991378 L9.00862197,62.7487373 L13.3503126,58.4070467 C14.6291158,59.9499831 16.0500169,61.3708842 17.5929533,62.6496874 Z M9.57843126,52.7186634 L3.89083331,55.0166021 L1.64319375,49.453499 L7.32914188,47.1562268 C7.90669177,49.0937093 8.66281922,50.9542192 9.57843126,52.7186634 Z M6.13877474,41 L0,41 L0,35 L6.13877474,35 C6.04694478,35.9876624 6,36.9883489 6,38 C6,39.0116511 6.04694478,40.0123376 6.13877474,41 Z M7.32914188,28.8437732 L1.64319375,26.546501 L3.89083331,20.9833979 L9.57843126,23.2813366 C8.66281922,25.0457808 7.90669177,26.9062907 7.32914188,28.8437732 Z" id="spinner" fill="#000000"></path>
    </g>
</svg>