<?xml version="1.0" encoding="UTF-8"?>
<svg width="76px" height="76px" viewBox="0 0 76 76" version="1.1" xmlns="http://www.w3.org/2000/svg" xmlns:xlink="http://www.w3.org/1999/xlink">
    <!-- Generator: Sketch 48.1 (47250) - http://www.bohemiancoding.com/sketch -->
    <title>spoon</title>
    <desc>Created with Sketch.</desc>
    <defs></defs>
    <g id="spoon---f1b1" stroke="none" stroke-width="1" fill="none" fill-rule="evenodd">
        <path d="M60.4,0 C61.7333333,0 63.0666667,0.133333333 64.4,0.4 C67.4666663,1.06666701 69.9333332,2.3333335 71.8000005,4.19999949 C75.5333338,7.93333282 76.8000003,13.1999997 75.6,20 C74.3999997,26.1333333 71.5999997,31.3333333 67.2,35.6 C63.0666663,39.8666667 58.3999997,41.8666667 53.2,41.6 C49.6000003,41.466667 46.1333337,40.1333337 42.8,37.6 C30.1333333,50.4 14.3,66.4 4.8,76 C3.6,74.8 1.2,72.4 0,71.2 C9.6,61.7 28.8,42.7 38.4,33.2 C35.8666663,29.8666663 34.533333,26.3999997 34.4,22.8 C34.1333333,17.6000003 36.1333333,12.9333337 40.4,8.8 C44.6666667,4.40000034 49.8666667,1.60000034 56,0.4 C57.6,0.133333333 59.0666667,0 60.4,0 Z M60.1999995,6.4 C59.1333328,6.4 58.133333,6.53333333 57.2,6.8 C52.5333337,7.6 48.4666668,9.73333333 44.9999995,13.2 C42.0666668,16.1333333 40.666667,19.2 40.8,22.4 C40.933333,25.466667 42.3333328,28.3333338 44.9999995,31.0000005 C47.6666662,33.6666672 50.533333,35.066667 53.6,35.2 C56.8,35.333333 59.8666667,33.9333332 62.8,31.0000005 C66.2666667,27.5333332 68.4,23.4666663 69.2,18.8 C70.133333,14.2666667 69.4666663,10.9333333 67.2,8.8 C66.2666663,7.73333333 64.933333,6.99999983 63.2,6.59999949 C62.4,6.4666665 61.3999998,6.4 60.1999995,6.4 Z" id="spoon" fill="#000000" fill-rule="nonzero"></path>
    </g>
</svg>