<?xml version="1.0" encoding="UTF-8"?>
<svg width="76px" height="73px" viewBox="0 0 76 73" version="1.1" xmlns="http://www.w3.org/2000/svg" xmlns:xlink="http://www.w3.org/1999/xlink">
    <!-- Generator: Sketch 49.3 (51167) - http://www.bohemiancoding.com/sketch -->
    <title>stethoscope</title>
    <desc>Created with Sketch.</desc>
    <defs></defs>
    <g id="line" stroke="none" stroke-width="1" fill="none" fill-rule="evenodd">
        <g id="stethoscope---f0f1" transform="translate(0.000000, -2.000000)" fill="#000000" fill-rule="nonzero">
            <path d="M11.6923077,2 C13.2756407,2 14.6458329,2.57791674 15.8028844,3.73375023 C16.9599358,4.88958372 17.5384615,6.25833364 17.5384615,7.84 C17.5384615,9.42166636 16.9599358,10.7904163 15.8028844,11.9462498 C14.6458329,13.1020833 13.2756407,13.68 11.6923077,13.68 C9.74358974,13.68 8.16025641,12.8891668 6.94230769,11.3075005 C6.21153846,11.9158335 5.84615385,12.7066667 5.84615385,13.68 C5.84615385,22.0141665 5.84615385,32.4318746 5.84615385,38.6824995 C10.5961542,43.4274998 15.467949,45.8 20.4615385,45.8 C25.4551279,45.8 30.3269228,43.4274998 35.0769231,38.6824995 C35.0769231,30.348333 35.0769231,19.9306249 35.0769231,13.68 C35.0769231,12.7066667 34.7115385,11.9158335 33.9807692,11.3075005 C32.7628205,12.8891668 31.1794872,13.68 29.2307692,13.68 C27.6474362,13.68 26.277244,13.1020833 25.1201925,11.9462498 C23.9631411,10.7904163 23.3846154,9.42166636 23.3846154,7.84 C23.3846154,6.25833364 23.9631411,4.88958372 25.1201925,3.73375023 C26.277244,2.57791674 27.6474362,2 29.2307692,2 C31.6666667,2 33.3717949,3.095 34.3461538,5.285 C36.2948718,5.77166667 37.8782051,6.80583333 39.0961538,8.3875 C40.3141026,9.96916667 40.9230769,11.7333333 40.9230769,13.68 C40.9230769,22.44 40.9230769,33.39 40.9230769,39.96 C40.9230769,40.23375 40.9230769,40.78125 40.9230769,41.055 C40.7403846,41.2375 40.375,41.6025 40.1923077,41.785 C39.7051282,42.3933336 38.974359,43.1841671 38,44.1575005 C37.025641,45.1308338 35.0769231,46.4691668 32.1538462,48.1724995 C29.2307692,49.8758335 26.3076923,50.9100003 23.3846154,51.275 C23.3846154,53.3433333 23.3846154,55.92875 23.3846154,57.48 C23.3846154,60.7650003 24.5112179,63.5329171 26.7644228,65.7837502 C29.0176278,68.0345834 31.7884612,69.16 35.0769231,69.16 C38.3653849,69.16 41.1362183,68.0345834 43.3894233,65.7837502 C45.6426283,63.5329171 46.7692308,60.7650003 46.7692308,57.48 C46.7692308,52.6133333 46.7692308,46.53 46.7692308,42.88 C46.7692308,39.7166667 47.9262821,36.9791667 50.2403846,34.6675 C52.5544872,32.3558333 55.2948718,31.2 58.4615385,31.2 C61.6282051,31.2 64.3685897,32.3558333 66.6826923,34.6675 C68.9967949,36.9791667 70.1538462,39.7166667 70.1538462,42.88 C70.1538462,43.0625002 70.1538462,43.2906254 70.1538462,43.4275005 C74.0512821,44.8875005 76,47.6250003 76,51.64 C76,54.0733333 75.1474359,56.1416667 73.4423077,57.845 C71.7371795,59.5483333 69.6666667,60.4 67.2307692,60.4 C64.7948718,60.4 62.724359,59.5483333 61.0192308,57.845 C59.3141026,56.1416667 58.4615385,54.0733333 58.4615385,51.64 C58.4615385,47.6250003 60.4102564,44.8875005 64.3076923,43.4275005 C64.3076923,43.2450003 64.3076923,43.0168751 64.3076923,42.88 C64.3076923,41.2983336 63.7291666,39.9295837 62.5721152,38.7737502 C61.4150637,37.6179167 60.0448715,37.04 58.4615385,37.04 C56.8782054,37.04 55.5080132,37.6179167 54.3509618,38.7737502 C53.1939103,39.9295837 52.6153846,41.2983336 52.6153846,42.88 C52.6153846,47.7466667 52.6153846,53.83 52.6153846,57.48 C52.6153846,62.3466667 50.9102564,66.4833333 47.5,69.89 C44.0897436,73.2966667 39.9487179,75 35.0769231,75 C30.2051282,75 26.0641026,73.2966667 22.6538462,69.89 C19.2435897,66.4833333 17.5384615,62.3466667 17.5384615,57.48 C17.5384615,55.4116667 17.5384615,52.82625 17.5384615,51.275 C14.6153846,50.9100003 11.7532051,49.936667 8.95192308,48.355 C6.15064103,46.773333 4.08012836,45.313333 2.74038508,43.975 C2.07051313,43.245 1.23317319,42.3325 0.730769231,41.785 C0.548076923,41.6025 0.182692308,41.2375 0,41.055 C0,40.78125 0,40.23375 0,39.96 C0,33.39 0,20.25 0,13.68 C0,11.7333333 0.608974359,9.96916667 1.82692308,8.3875 C3.04487179,6.80583333 4.62820513,5.77166667 6.57692308,5.285 C7.55128205,3.095 9.25641026,2 11.6923077,2 Z M67.2307692,48.72 C65.2820513,48.72 64.3076923,49.6933333 64.3076923,51.64 C64.3076923,53.5866667 65.2820513,54.56 67.2307692,54.56 C69.1794872,54.56 70.1538462,53.5866667 70.1538462,51.64 C70.1538462,49.6933333 69.1794872,48.72 67.2307692,48.72 Z" id="stethoscope"></path>
        </g>
    </g>
</svg>