<?xml version="1.0" encoding="UTF-8"?>
<svg width="76px" height="76px" viewBox="0 0 76 76" version="1.1" xmlns="http://www.w3.org/2000/svg" xmlns:xlink="http://www.w3.org/1999/xlink">
    <!-- Generator: Sketch 48.1 (47250) - http://www.bohemiancoding.com/sketch -->
    <title>street-view</title>
    <desc>Created with Sketch.</desc>
    <defs></defs>
    <g id="street-view---f21d" stroke="none" stroke-width="1" fill="none" fill-rule="evenodd">
        <path d="M38,0 C41.4666667,0 44.4666667,1.26289683 47,3.78869048 C49.5333333,6.31448413 50.8,9.30555556 50.8,12.7619048 C50.8,16.218254 49.4666667,19.2757937 46.8,21.9345238 C51.6,25.125 54,29.5119048 54,35.0952381 C54,39.3492063 54,44.6666667 54,47.8571429 C54,48.3556548 54,49.3526786 54,49.8511905 C53.5500001,50.0505952 52.6500004,50.4494048 52.2000005,50.6488095 C51.0500004,51.2470238 48.7500001,52.4434524 47.6,53.0416667 C47.6,55.733631 47.6,61.1175595 47.6,63.8095238 C47.6,64.6071429 47.6,66.202381 47.6,67 C46.8,67 45.2,67 44.4,67 C41.2,67 34.8,67 31.6,67 C30.8,67 29.2,67 28.4,67 C28.4,66.202381 28.4,64.6071429 28.4,63.8095238 C28.4,61.1175595 28.4,55.733631 28.4,53.0416667 C27.2499999,52.4434524 24.9499996,51.2470238 23.7999995,50.6488095 C23.3499996,50.4494048 22.4499999,50.0505952 22,49.8511905 C22,49.3526786 22,48.3556548 22,47.8571429 C22,44.6666667 22,38.2857143 22,35.0952381 C22,29.5119048 24.4,25.125 29.2,21.9345238 C26.5333333,19.2757937 25.2,16.218254 25.2,12.7619048 C25.2,9.30555556 26.4666668,6.3144843 29.0000005,3.78869099 C31.5333335,1.262897 34.5333333,0 38,0 Z M38.5,6 C36.7395837,6 35.2161463,6.64322925 33.9296878,7.92968776 C32.6432293,9.21614627 32,10.7395837 32,12.5 C32,14.2604163 32.6432293,15.7838537 33.9296878,17.0703122 C35.2161463,18.3567707 36.7395837,19 38.5,19 C40.2604163,19 41.7838537,18.3567707 43.0703122,17.0703122 C44.3567707,15.7838537 45,14.2604163 45,12.5 C45,10.7395837 44.3567707,9.21614627 43.0703122,7.92968776 C41.7838537,6.64322925 40.2604163,6 38.5,6 Z M38.5,25 C35.8611111,25 33.6180556,25.9280303 31.7708333,27.7840909 C29.9236111,29.6401515 29,31.8939394 29,34.5454545 C29,38.125 29,42.5994318 29,45.2840909 C30.138021,45.8806818 32.4140629,47.0738636 33.5520838,47.6704545 C33.9973962,47.8693182 34.888021,48.2670455 35.3333333,48.4659091 C35.3333333,48.9630682 35.3333333,49.9573864 35.3333333,50.4545455 C35.3333333,52.8409091 35.3333333,57.6136364 35.3333333,60 C36.9166667,60 40.0833333,60 41.6666667,60 C41.6666667,57.6136364 41.6666667,52.8409091 41.6666667,50.4545455 C41.6666667,49.9573864 41.6666667,48.9630682 41.6666667,48.4659091 C42.111979,48.2670455 43.0026038,47.8693182 43.4479162,47.6704545 C44.5859371,47.0738636 46.861979,45.8806818 48,45.2840909 C48,42.5994318 48,37.2301136 48,34.5454545 C48,31.8939394 47.0763889,29.6401515 45.2291667,27.7840909 C43.3819444,25.9280303 41.1388889,25 38.5,25 Z M15.8333333,47 C15.8333333,48.6883562 15.8333333,52.0650685 15.8333333,53.7534247 C9.5,55.7397264 6.33333333,57.8584478 6.33333333,60.109589 C6.33333333,61.43379 7.61979175,62.8242009 10.1927086,64.2808219 C12.7656254,65.7374429 16.5590279,66.9954338 21.5729162,68.0547945 C26.5868057,69.1141553 32.0625003,69.6438356 38,69.6438356 C43.9374997,69.6438356 49.4131943,69.1141553 54.4270838,68.0547945 C59.4409721,66.9954338 63.2343746,65.7374429 65.8072914,64.2808219 C68.3802082,62.8242009 69.6666667,61.43379 69.6666667,60.109589 C69.6666667,57.8584478 66.5,55.7397264 60.1666667,53.7534247 C60.1666667,51.5022831 60.1666667,48.6883562 60.1666667,47 C70.7222222,49.913242 76,54.283105 76,60.109589 C76,65.0091321 72.2065971,68.8824197 64.6197914,71.7294518 C57.0329857,74.5764839 48.1597219,76 38,76 C27.8402781,76 18.9670143,74.5764839 11.3802086,71.7294518 C3.79340286,68.8824197 0,65.0091321 0,60.109589 C0,54.283105 5.27777778,49.913242 15.8333333,47 Z" id="street-view" fill="#000000" fill-rule="nonzero"></path>
    </g>
</svg>