<?xml version="1.0" encoding="UTF-8"?>
<svg width="76px" height="76px" viewBox="0 0 76 76" version="1.1" xmlns="http://www.w3.org/2000/svg" xmlns:xlink="http://www.w3.org/1999/xlink">
    <!-- Generator: Sketch 48.1 (47250) - http://www.bohemiancoding.com/sketch -->
    <title>strikethrough</title>
    <desc>Created with Sketch.</desc>
    <defs></defs>
    <g id="strikethrough---f0cc" stroke="none" stroke-width="1" fill="none" fill-rule="evenodd" opacity="0.699999988">
        <path d="M35.9464182,41 L0,41 L0,35 L20.5305209,35 C16.8285425,31.6460245 14.977551,27.04687 14.977551,21.0994475 C14.977551,8.39779006 24.0326531,0 38.7081633,0 C48.1795918,0 54.4244898,2.41436464 60.7734694,8.1878453 L55.6734694,13.3314917 C51.0938776,9.13259669 46.2020408,6.9281768 38.3959184,6.9281768 C28.5081633,6.9281768 22.7836735,12.4917127 22.7836735,20.7845304 C22.7836735,24.4585635 23.8244898,27.3977901 26.1142857,29.3922652 C28.4040816,31.3867403 32.255102,32.8563536 36.1061224,33.4861878 L44.2244898,34.7458564 C44.7693456,34.8278741 45.2925982,34.9124551 45.7957866,35 L76,35 L76,41 L58.8347895,41 C62.2005119,44.4206275 64,49.1759875 64,54.7955801 C64,67.9171271 53.8,76 38.3959184,76 C27.2591837,76 19.9734694,73.1657459 13,66.1325967 L18.4122449,60.6740331 C24.5530612,66.8674033 30.277551,68.8618785 38.6040816,68.8618785 C49.4285714,68.8618785 56.0897959,63.718232 56.0897959,55.0055249 C56.0897959,51.121547 54.944898,47.7624309 52.5510204,45.6629834 C50.1571429,43.5635359 48.2836735,42.9337017 42.8714286,42.0939227 L35.9464182,41 Z" id="strikethrough" fill="#000000"></path>
    </g>
</svg>