<?xml version="1.0" encoding="UTF-8"?>
<svg width="63px" height="71px" viewBox="0 0 63 71" version="1.1" xmlns="http://www.w3.org/2000/svg" xmlns:xlink="http://www.w3.org/1999/xlink">
    <!-- Generator: Sketch 48.1 (47250) - http://www.bohemiancoding.com/sketch -->
    <title>subscript</title>
    <desc>Created with Sketch.</desc>
    <defs></defs>
    <g id="subscript---f12c" stroke="none" stroke-width="1" fill="none" fill-rule="evenodd" transform="translate(-6.000000, -5.000000)" opacity="0.699999988">
        <path d="M54,71 L45.8925144,71 L29.9539347,43.2837079 L13.9232246,71 L6,71 L26.084453,37.1657303 L7.28982726,5 L15.3973129,5 L29.9539347,31.0477528 L44.5105566,5 L52.6180422,5 L33.731286,37.1657303 L54,71 Z M68.1835,76 L57.0055,76 L57.0055,73.543 L64.4035,64.552 C65.1325,63.661 65.4295,62.959 65.4295,61.987 C65.4295,60.259 64.4035,59.071 62.6215,59.071 C61.1635,59.071 59.7865,59.881 59.7865,62.041 L57.0325,62.041 C57.0325,58.774 59.3545,56.614 62.6215,56.614 C65.9155,56.614 68.1835,58.693 68.1835,62.014 C68.1835,63.715 67.5625,64.714 66.3745,66.172 L60.3535,73.543 L68.1835,73.543 L68.1835,76 Z" id="subscript" fill="#000000"></path>
    </g>
</svg>