<?xml version="1.0" encoding="UTF-8"?>
<svg width="66px" height="76px" viewBox="0 0 66 76" version="1.1" xmlns="http://www.w3.org/2000/svg" xmlns:xlink="http://www.w3.org/1999/xlink">
    <!-- Generator: Sketch 48.1 (47250) - http://www.bohemiancoding.com/sketch -->
    <title>subway</title>
    <desc>Created with Sketch.</desc>
    <defs></defs>
    <g id="subway---f239" stroke="none" stroke-width="1" fill="none" fill-rule="evenodd" transform="translate(-5.000000, 0.000000)">
        <path d="M20,0 C29,0 29,0 56,0 C60.1249997,0 63.6562496,1.48833341 66.5937498,4.46500024 C69.5312499,7.44166707 71,11.0200003 71,15.2 C71,27.36 71,27.36 71,51.68 C71,55.353333 70.0312499,58.6783329 68.0937498,61.6549998 C66.1562496,64.6316666 63.6249997,66.88 60.5,68.4 C63,70.9333333 66.125,74.1 68,76 C66.21875,76 62.65625,76 60.875,76 C59.375,74.48 59.375,74.48 54.875,69.92 C54.2499997,69.92 53.6249997,69.92 53,69.92 C43,69.92 43,69.92 23,69.92 C22.3750003,69.92 21.7500003,69.92 21.125,69.92 C19.125,71.9466667 16.625,74.48 15.125,76 C13.34375,76 9.78125,76 8,76 C9.875,74.1 9.875,74.1 15.5,68.4 C12.3750003,66.88 9.8437504,64.6316666 7.90625024,61.6549998 C5.96875008,58.6783329 5,55.353333 5,51.68 C5,39.52 5,39.52 5,15.2 C5,11.0200003 6.46875008,7.44166707 9.40625024,4.46500024 C12.3437504,1.48833341 15.8750003,0 20,0 Z M20,6.08 C18,6.08 16.2187501,6.65 14.6562502,7.79 C13.0937504,8.93 12.0000003,10.3866667 11.375,12.16 C29.125,12.16 29.125,12.16 64.625,12.16 C63.9999997,10.3866667 62.9062496,8.93 61.3437498,7.79 C59.7812499,6.65 58,6.08 56,6.08 C44,6.08 44,6.08 20,6.08 Z M11,18.24 C11,22.8 11,31.92 11,36.48 C17,36.48 29,36.48 35,36.48 C35,31.92 35,22.8 35,18.24 C29,18.24 17,18.24 11,18.24 Z M41,18.24 C41,22.8 41,31.92 41,36.48 C47,36.48 59,36.48 65,36.48 C65,31.92 65,22.8 65,18.24 C59,18.24 47,18.24 41,18.24 Z M11,42.56 C11,44.84 11,44.84 11,51.68 C11,55.1000003 12.1562499,57.9816671 14.4687498,60.3250002 C16.7812496,62.6683334 19.6249997,63.84 23,63.84 C33,63.84 33,63.84 53,63.84 C56.3750003,63.84 59.2187504,62.6683334 61.5312502,60.3250002 C63.8437501,57.9816671 65,55.1000003 65,51.68 C65,48.64 65,44.84 65,42.56 C51.5,42.56 24.5,42.56 11,42.56 Z M21.5,48.64 C22.75,48.64 23.8125,49.0833333 24.6875,49.97 C25.5625,50.8566667 26,51.9333333 26,53.2 C26,54.4666667 25.5625,55.5433333 24.6875,56.43 C23.8125,57.3166667 22.75,57.76 21.5,57.76 C20.25,57.76 19.1875,57.3166667 18.3125,56.43 C17.4375,55.5433333 17,54.4666667 17,53.2 C17,51.9333333 17.4375,50.8566667 18.3125,49.97 C19.1875,49.0833333 20.25,48.64 21.5,48.64 Z M54.5,48.64 C55.75,48.64 56.8125,49.0833333 57.6875,49.97 C58.5625,50.8566667 59,51.9333333 59,53.2 C59,54.4666667 58.5625,55.5433333 57.6875,56.43 C56.8125,57.3166667 55.75,57.76 54.5,57.76 C53.25,57.76 52.1875,57.3166667 51.3125,56.43 C50.4375,55.5433333 50,54.4666667 50,53.2 C50,51.9333333 50.4375,50.8566667 51.3125,49.97 C52.1875,49.0833333 53.25,48.64 54.5,48.64 Z" id="subway" fill="#000000" fill-rule="nonzero"></path>
    </g>
</svg>