<?xml version="1.0" encoding="UTF-8"?>
<svg width="76px" height="68px" viewBox="0 0 76 68" version="1.1" xmlns="http://www.w3.org/2000/svg" xmlns:xlink="http://www.w3.org/1999/xlink">
    <!-- Generator: Sketch 48.1 (47250) - http://www.bohemiancoding.com/sketch -->
    <title>suitcase</title>
    <desc>Created with Sketch.</desc>
    <defs></defs>
    <g id="suitcase---f0f2" stroke="none" stroke-width="1" fill="none" fill-rule="evenodd" transform="translate(0.000000, -4.000000)">
        <path d="M31.8076923,4 C34.7307692,4 41.1923077,4 44.1153846,4 C45.6987176,4 47.0689099,4.57852572 48.2259613,5.73557716 C49.3830127,6.89262859 49.9615385,8.18589775 49.9615385,9.76923077 C49.9615385,10.7435897 49.9615385,12.0384615 49.9615385,12.7692308 C51.4230769,12.7692308 54.0897436,12.7692308 57.9615385,12.7692308 L57.9615385,9.84615385 L63.9615385,9.84615385 L63.9615385,12.7692308 C66.9871795,12.7692308 68.9871795,12.7692308 69.9615385,12.7692308 C71.5448715,12.7692308 73.1073714,13.3477565 74.2644228,14.5048079 C75.4214743,15.6618594 76,17.0320516 76,18.6153846 C76,34.2051282 76,54.0769231 76,65.7692308 C76,67.3525638 75.4214743,68.722756 74.2644228,69.8798075 C73.1073714,71.0368589 71.5448715,71.7692308 69.9615385,71.7692308 C48.525641,71.7692308 22.0384615,71.7692308 5.96153846,71.7692308 C4.37820544,71.7692308 2.7003209,71.1907051 1.54326946,70.0336536 C0.386218027,68.8766022 0,67.3525638 0,65.7692308 C0,50.1794872 0,30.3076923 0,18.6153846 C0,17.0320516 0.578525719,15.6618594 1.73557716,14.5048079 C2.89262859,13.3477565 4.37820544,12.7692308 5.96153846,12.7692308 C7.26068376,12.7692308 9.26068376,12.7692308 11.9615385,12.7692308 L11.9615385,9.84615385 L17.9615385,9.84615385 L17.9615385,12.7692308 C21.8333333,12.7692308 24.5,12.7692308 25.9615385,12.7692308 C25.9615385,12.0384615 25.9615385,10.5 25.9615385,9.76923077 C25.9615385,8.18589775 26.5400642,6.89262859 27.6971156,5.73557716 C28.8541671,4.57852572 30.2243593,4 31.8076923,4 Z M31.9615385,9.76923077 C31.9615385,10.5576923 31.9615385,12.1346154 31.9615385,12.9230769 C34.9615385,12.9230769 40.9615385,12.9230769 43.9615385,12.9230769 C43.9615385,12.1346154 43.9615385,10.5576923 43.9615385,9.76923077 C40.9615385,9.76923077 34.9615385,9.76923077 31.9615385,9.76923077 Z M17.9615385,18.7692308 C17.9615385,30.5192308 17.9615385,54.0192308 17.9615385,65.7692308 C27.9615385,65.7692308 47.9615385,65.7692308 57.9615385,65.7692308 C57.9615385,54.0192308 57.9615385,30.5192308 57.9615385,18.7692308 C47.9615385,18.7692308 27.9615385,18.7692308 17.9615385,18.7692308 Z M5.96153846,18.7692308 C5.96153846,30.5192308 5.96153846,54.0192308 5.96153846,65.7692308 C7.46153846,65.7692308 10.4615385,65.7692308 11.9615385,65.7692308 C11.9615385,54.0192308 11.9615385,30.5192308 11.9615385,18.7692308 C10.4615385,18.7692308 7.46153846,18.7692308 5.96153846,18.7692308 Z M63.9615385,18.7692308 C63.9615385,30.5192308 63.9615385,54.0192308 63.9615385,65.7692308 C65.4615385,65.7692308 68.4615385,65.7692308 69.9615385,65.7692308 C69.9615385,54.0192308 69.9615385,30.5192308 69.9615385,18.7692308 C68.4615385,18.7692308 65.4615385,18.7692308 63.9615385,18.7692308 Z" id="suitcase" fill="#000000"></path>
    </g>
</svg>