<?xml version="1.0" encoding="UTF-8"?>
<svg width="76px" height="76px" viewBox="0 0 76 76" version="1.1" xmlns="http://www.w3.org/2000/svg" xmlns:xlink="http://www.w3.org/1999/xlink">
    <!-- Generator: Sketch 48.1 (47250) - http://www.bohemiancoding.com/sketch -->
    <title>sun</title>
    <desc>Created with Sketch.</desc>
    <defs></defs>
    <g id="sun-o---f185" stroke="none" stroke-width="1" fill="none" fill-rule="evenodd">
        <path d="M35.0769231,0 C36.5384615,0 39.4615385,0 40.9230769,0 C40.9230769,3.65384615 40.9230769,10.9615385 40.9230769,14.6153846 C39.4615385,14.6153846 36.5384615,14.6153846 35.0769231,14.6153846 C35.0769231,10.9615385 35.0769231,3.65384615 35.0769231,0 Z M13.1538462,9.13461538 C15.7572114,11.6923077 20.963942,16.8076923 23.5673072,19.3653846 C22.5168266,20.4158653 20.4158653,22.5168266 19.3653846,23.5673072 C16.8076923,20.963942 11.6923077,15.7572114 9.13461538,13.1538462 C10.1394231,12.1490385 12.1490385,10.1394231 13.1538462,9.13461538 Z M62.8461538,9.13461538 C63.8509615,10.1394231 65.8605769,12.1490385 66.8653846,13.1538462 C64.3076923,15.7572114 59.1923077,20.963942 56.6346154,23.5673072 C55.5841347,22.5168266 53.4831734,20.4158653 52.4326928,19.3653846 C55.036058,16.8076923 60.2427886,11.6923077 62.8461538,9.13461538 Z M38,17.5384615 C43.6025641,17.5384615 48.4134615,19.5480769 52.4326923,23.5673077 C56.4519231,27.5865385 58.4615385,32.3974359 58.4615385,38 C58.4615385,43.6025641 56.4519231,48.4134615 52.4326923,52.4326923 C48.4134615,56.4519231 43.6025641,58.4615385 38,58.4615385 C32.3974359,58.4615385 27.5865385,56.4519231 23.5673077,52.4326923 C19.5480769,48.4134615 17.5384615,43.6025641 17.5384615,38 C17.5384615,32.3974359 19.5480769,27.5865385 23.5673077,23.5673077 C27.5865385,19.5480769 32.3974359,17.5384615 38,17.5384615 Z M38,23.3846154 C33.9807695,23.3846154 30.5400645,24.8157052 27.6778848,27.6778848 C24.8157052,30.5400645 23.3846154,33.9807695 23.3846154,38 C23.3846154,42.0192305 24.8157052,45.4599355 27.6778848,48.3221152 C30.5400645,51.1842948 33.9807695,52.6153846 38,52.6153846 C42.0192305,52.6153846 45.4599355,51.1842948 48.3221152,48.3221152 C51.1842948,45.4599355 52.6153846,42.0192305 52.6153846,38 C52.6153846,33.9807695 51.1842948,30.5400645 48.3221152,27.6778848 C45.4599355,24.8157052 42.0192305,23.3846154 38,23.3846154 Z M0,35.0769231 C3.65384615,35.0769231 10.9615385,35.0769231 14.6153846,35.0769231 C14.6153846,36.5384615 14.6153846,39.4615385 14.6153846,40.9230769 C10.9615385,40.9230769 3.65384615,40.9230769 0,40.9230769 C0,39.4615385 0,36.5384615 0,35.0769231 Z M61.3846154,35.0769231 C65.0384615,35.0769231 72.3461538,35.0769231 76,35.0769231 C76,36.5384615 76,39.4615385 76,40.9230769 C72.3461538,40.9230769 65.0384615,40.9230769 61.3846154,40.9230769 C61.3846154,39.4615385 61.3846154,36.5384615 61.3846154,35.0769231 Z M19.3653846,52.4326928 C20.4158653,53.4831734 22.5168266,55.5841347 23.5673072,56.6346154 C20.963942,59.1923077 15.7572114,64.3076923 13.1538462,66.8653846 C12.1490385,65.8605769 10.1394231,63.8509615 9.13461538,62.8461538 C11.6923077,60.2427886 16.8076923,55.036058 19.3653846,52.4326928 Z M56.6346154,52.4326928 C59.1923077,55.036058 64.3076923,60.2427886 66.8653846,62.8461538 C65.8605769,63.8509615 63.8509615,65.8605769 62.8461538,66.8653846 C60.2427886,64.3076923 55.036058,59.1923077 52.4326928,56.6346154 C53.4831734,55.5841347 55.5841347,53.4831734 56.6346154,52.4326928 Z M35.0769231,61.3846154 C36.5384615,61.3846154 39.4615385,61.3846154 40.9230769,61.3846154 C40.9230769,65.0384615 40.9230769,72.3461538 40.9230769,76 C39.4615385,76 36.5384615,76 35.0769231,76 C35.0769231,72.3461538 35.0769231,65.0384615 35.0769231,61.3846154 Z" id="sun" fill="#000000" fill-rule="nonzero"></path>
    </g>
</svg>