<?xml version="1.0" encoding="UTF-8"?>
<svg width="63px" height="71px" viewBox="0 0 63 71" version="1.1" xmlns="http://www.w3.org/2000/svg" xmlns:xlink="http://www.w3.org/1999/xlink">
    <!-- Generator: Sketch 48.1 (47250) - http://www.bohemiancoding.com/sketch -->
    <title>superscript</title>
    <desc>Created with Sketch.</desc>
    <defs></defs>
    <g id="superscript---f12b" stroke="none" stroke-width="1" fill="none" fill-rule="evenodd" transform="translate(-6.000000, 0.000000)" opacity="0.699999988">
        <path d="M54,71 L45.8925144,71 L29.9539347,43.2837079 L13.9232246,71 L6,71 L26.084453,37.1657303 L7.28982726,5 L15.3973129,5 L29.9539347,31.0477528 L44.5105566,5 L52.6180422,5 L33.731286,37.1657303 L54,71 Z M68.178,19.386 L57,19.386 L57,16.929 L64.398,7.938 C65.127,7.047 65.424,6.345 65.424,5.373 C65.424,3.645 64.398,2.457 62.616,2.457 C61.158,2.457 59.781,3.267 59.781,5.427 L57.027,5.427 C57.027,2.16 59.349,0 62.616,0 C65.91,0 68.178,2.079 68.178,5.4 C68.178,7.101 67.557,8.1 66.369,9.558 L60.348,16.929 L68.178,16.929 L68.178,19.386 Z" id="superscript" fill="#000000"></path>
    </g>
</svg>