<?xml version="1.0" encoding="UTF-8"?>
<svg width="76px" height="76px" viewBox="0 0 76 76" version="1.1" xmlns="http://www.w3.org/2000/svg" xmlns:xlink="http://www.w3.org/1999/xlink">
    <!-- Generator: Sketch 48.1 (47250) - http://www.bohemiancoding.com/sketch -->
    <title>table</title>
    <desc>Created with Sketch.</desc>
    <defs></defs>
    <g id="table---f0ce" stroke="none" stroke-width="1" fill="none" fill-rule="evenodd" opacity="0.699999988">
        <path d="M29,29 L29,47 L47,47 L47,29 L29,29 Z M29,23 L47,23 L47,6 L29,6 L29,23 Z M23,29 L6,29 L6,47 L23,47 L23,29 Z M23,23 L23,6 L6,6 L6,23 L23,23 Z M70,29 L53,29 L53,47 L70,47 L70,29 Z M70,23 L70,6 L53,6 L53,23 L70,23 Z M29,53 L29,70 L47,70 L47,53 L29,53 Z M23,53 L6,53 L6,70 L23,70 L23,53 Z M70,53 L53,53 L53,70 L70,70 L70,53 Z M6,76 L0,76 L0,6 L0,0 L76,0 L76,6 L76,76 L70,76 L6,76 Z" id="table" fill="#000000"></path>
    </g>
</svg>