<?xml version="1.0" encoding="UTF-8"?>
<svg width="76px" height="55px" viewBox="0 0 76 55" version="1.1" xmlns="http://www.w3.org/2000/svg" xmlns:xlink="http://www.w3.org/1999/xlink">
    <!-- Generator: Sketch 48.1 (47250) - http://www.bohemiancoding.com/sketch -->
    <title>tablet</title>
    <desc>Created with Sketch.</desc>
    <defs></defs>
    <g id="tablet---f10a" stroke="none" stroke-width="1" fill="none" fill-rule="evenodd" transform="translate(0.000000, -11.000000)">
        <path d="M8.14285714,11 C23.0714286,11 52.9285714,11 67.8571429,11 C70.1190476,11 72.0416667,11.7916667 73.625,13.375 C75.2083333,14.9583333 76,16.8809524 76,19.1428571 C76,31.8095238 76,47.6428571 76,57.1428571 C76,59.4047619 75.2083333,61.327381 73.625,62.9107143 C72.0416667,64.4940476 70.1190476,65.2857143 67.8571429,65.2857143 C47.952381,65.2857143 23.0714286,65.2857143 8.14285714,65.2857143 C5.88095238,65.2857143 3.95833333,64.4940476 2.375,62.9107143 C0.791666667,61.327381 0,59.4047619 0,57.1428571 C0,44.4761905 0,28.6428571 0,19.1428571 C0,16.8809524 0.791666667,14.9583333 2.375,13.375 C3.95833333,11.7916667 5.88095238,11 8.14285714,11 Z M8.66666667,16.7857143 C7.8888886,16.7857143 7.24999964,17.0368303 6.74999979,17.5390623 C6.24999993,18.0412943 6,18.6830354 6,19.4642857 C6,31.9642857 6,47.8035714 6,57.1785714 C6,57.9598217 6.24999993,58.6015629 6.74999979,59.1037949 C7.24999964,59.6060269 7.8888886,59.8571429 8.66666667,59.8571429 C28.2222222,59.8571429 52.6666667,59.8571429 67.3333333,59.8571429 C68.1111114,59.8571429 68.7500004,59.6060269 69.2500002,59.1037949 C69.7500001,58.6015629 70,57.9598217 70,57.1785714 C70,44.6785714 70,28.8392857 70,19.4642857 C70,18.6830354 69.7500001,18.0412943 69.2500002,17.5390623 C68.7500004,17.0368303 68.1111114,16.7857143 67.3333333,16.7857143 C47.7777778,16.7857143 23.3333333,16.7857143 8.66666667,16.7857143 Z M11.8571429,35.4285714 C12.6488098,35.4285714 13.2991075,35.6830356 13.8080359,36.1919641 C14.3169644,36.7008925 14.5714286,37.3511902 14.5714286,38.1428571 C14.5714286,38.9345241 14.3169644,39.5848218 13.8080359,40.0937502 C13.2991075,40.6026786 12.6488098,40.8571429 11.8571429,40.8571429 C11.0654759,40.8571429 10.4151782,40.6026786 9.90624978,40.0937502 C9.39732136,39.5848218 9.14285714,38.9345241 9.14285714,38.1428571 C9.14285714,37.3511902 9.39732136,36.7008925 9.90624978,36.1919641 C10.4151782,35.6830356 11.0654759,35.4285714 11.8571429,35.4285714 Z" id="tablet" fill="#000000" fill-rule="nonzero"></path>
    </g>
</svg>