<?xml version="1.0" encoding="UTF-8"?>
<svg width="76px" height="39px" viewBox="0 0 76 39" version="1.1" xmlns="http://www.w3.org/2000/svg" xmlns:xlink="http://www.w3.org/1999/xlink">
    <!-- Generator: Sketch 48.1 (47250) - http://www.bohemiancoding.com/sketch -->
    <title>tachometer</title>
    <desc>Created with Sketch.</desc>
    <defs></defs>
    <g id="tachometer---f0e4" stroke="none" stroke-width="1" fill="none" fill-rule="evenodd" transform="translate(0.000000, -19.000000)">
        <path d="M38,19 C58.9575758,19 76,36.0424242 76,57 C45.7151515,57 52,57 45.7151515,57 C46.6363636,55.0424242 46.8666667,52.7393939 46.1757576,50.6666667 C57.713773,36.5441358 57.5194627,36.7957161 58.9789509,35.0037393 C60.4521548,33.1949221 57.9690782,30.7793529 56.019257,32.372344 C52.5779406,35.183877 47.4159661,39.4011765 40.5333333,45.0242424 C37.5393939,44.1030303 34.2,44.7939394 31.8969697,47.2121212 C29.2484848,49.8606061 28.6727273,53.8909091 30.2848485,57.1151515 C0,57.1151515 5.64242424,57.1151515 0,57.1151515 L0,57 C0,36.0424242 17.0424242,19 38,19 Z M37,25 C21.4242215,25 8.66424268,36.1846043 6,51 C6.5,51 24,51 24,51 C25.0126506,44.6614297 30.3496946,40 37,40 C37,35.0833333 36.9809567,30.0628071 37,25 Z M40.6484848,50.5515152 C42.1454545,52.0484848 42.1454545,54.3515152 40.6484848,55.8484848 C39.1515152,57.3454545 36.8484848,57.3454545 35.3515152,55.8484848 C33.8545455,54.4666667 33.8545455,52.0484848 35.3515152,50.5515152 C36.8484848,49.0545455 39.1515152,49.0545455 40.6484848,50.5515152 Z" id="tachometer" fill="#000000" fill-rule="nonzero"></path>
    </g>
</svg>