<?xml version="1.0" encoding="UTF-8"?>
<svg width="76px" height="76px" viewBox="0 0 76 76" version="1.1" xmlns="http://www.w3.org/2000/svg" xmlns:xlink="http://www.w3.org/1999/xlink">
    <!-- Generator: Sketch 48.1 (47250) - http://www.bohemiancoding.com/sketch -->
    <title>tag</title>
    <desc>Created with Sketch.</desc>
    <defs></defs>
    <g id="tag---f02b" stroke="none" stroke-width="1" fill="none" fill-rule="evenodd">
        <path d="M40.2448628,0.0623630453 L75.9762195,0 L76.0385825,35.7313567 L35.5049266,76 L0.117953665,40.7363359 L40.2448628,0.0623630453 Z M43.4254807,6.04644998 L9.05079283,40.4997608 L35.7432658,67.0671608 L70,32.5 L70.0714476,6 L43.4254807,6.04644998 Z M59.7573712,13.0215674 C60.7047939,13.0199139 61.4835652,13.3230841 62.0936853,13.9310781 C62.7038053,14.5390722 63.0096921,15.3167805 63.0113457,16.2642032 C63.0129993,17.2116259 62.709829,17.9903973 62.101835,18.6005173 C61.493841,19.2106374 60.7161326,19.5165242 59.7687099,19.5181777 C58.8212872,19.5198313 58.0425159,19.2166611 57.4323958,18.608667 C56.8222758,18.000673 56.516389,17.2229646 56.5147354,16.275542 C56.5130818,15.3281193 56.8162521,14.5493479 57.4242461,13.9392279 C58.0322401,13.3291078 58.8099485,13.023221 59.7573712,13.0215674 Z" id="tag" fill="#000000" fill-rule="nonzero"></path>
    </g>
</svg>