<?xml version="1.0" encoding="UTF-8"?>
<svg width="76px" height="76px" viewBox="0 0 76 76" version="1.1" xmlns="http://www.w3.org/2000/svg" xmlns:xlink="http://www.w3.org/1999/xlink">
    <!-- Generator: Sketch 48.1 (47250) - http://www.bohemiancoding.com/sketch -->
    <title>tags</title>
    <desc>Created with Sketch.</desc>
    <defs></defs>
    <g id="tags---f02c" stroke="none" stroke-width="1" fill="none" fill-rule="evenodd">
        <path d="M34.5781991,0 L64,0 L64,31.0738916 L29.8957346,67.0147783 L0,35.9408867 L34.5781991,0 Z M36.9194317,5.99014778 L8.10426586,35.9408867 L30,58 L58,29 L58,6 L36.9194317,5.99014778 Z M67.3554502,8.98522167 L76,8.98522167 L76,41.9310345 L42.8625592,76 L35,68 L39.3981043,63.2561576 L43,67 L70,39.5 L70,15 L67.3554502,14.9753695 L67.3554502,8.98522167 Z M50.0663507,11.9802956 C50.9067934,11.9802956 51.5971568,12.2610837 52.137441,12.8226599 C52.6777252,13.3842361 52.9478673,14.1018059 52.9478673,14.9753695 C52.9478673,15.848933 52.6777252,16.5665029 52.137441,17.1280791 C51.5971568,17.6896553 50.9067934,17.9704433 50.0663507,17.9704433 C49.2259081,17.9704433 48.5355446,17.6896553 47.9952604,17.1280791 C47.4549762,16.5665029 47.1848341,15.848933 47.1848341,14.9753695 C47.1848341,14.1018059 47.4549762,13.3842361 47.9952604,12.8226599 C48.5355446,12.2610837 49.2259081,11.9802956 50.0663507,11.9802956 Z" id="tags" fill="#000000" fill-rule="nonzero"></path>
    </g>
</svg>