<?xml version="1.0" encoding="UTF-8"?>
<svg width="76px" height="66px" viewBox="0 0 76 66" version="1.1" xmlns="http://www.w3.org/2000/svg" xmlns:xlink="http://www.w3.org/1999/xlink">
    <!-- Generator: Sketch 48.1 (47250) - http://www.bohemiancoding.com/sketch -->
    <title>tasks</title>
    <desc>Created with Sketch.</desc>
    <defs></defs>
    <g id="tasks---f0ae" stroke="none" stroke-width="1" fill="none" fill-rule="evenodd" transform="translate(0.000000, -5.000000)">
        <path d="M0,5 C0.863636364,5 2.59090909,5 3.45454545,5 C20.7272727,5 55.2727273,5 72.5454545,5 C73.4090909,5 75.1363636,5 76,5 C76,5.75 76,7.25 76,8 C76,11 76,17 76,20 C76,20.75 76,22.25 76,23 C75.1363636,23 73.4090909,23 72.5454545,23 C55.2727273,23 20.7272727,23 3.45454545,23 C2.59090909,23 0.863636364,23 0,23 C0,22.25 0,20.75 0,20 C0,17 0,11 0,8 C0,7.25 0,5.75 0,5 Z M20.0030518,11 C20.0030518,12.5 20.0030518,15.5 20.0030518,17 C32.5022888,17 57.5007629,17 70,17 C70,15.5 70,12.5 70,11 C57.5007629,11 32.5022888,11 20.0030518,11 Z M0,29 C0.863636364,29 2.59090909,29 3.45454545,29 C20.7272727,29 55.2727273,29 72.5454545,29 C73.4090909,29 75.1363636,29 76,29 C76,29.75 76,31.25 76,32 C76,35 76,41 76,44 C76,44.75 76,46.25 76,47 C75.1363636,47 73.4090909,47 72.5454545,47 C55.2727273,47 20.7272727,47 3.45454545,47 C2.59090909,47 0.863636364,47 0,47 C0,46.25 0,44.75 0,44 C0,41 0,35 0,32 C0,31.25 0,29.75 0,29 Z M55,35 C55,36.5 55,39.5 55,41 C58.75,41 66.25,41 70,41 C70,39.5 70,36.5 70,35 C66.25,35 58.75,35 55,35 Z M0,53 C0.863636364,53 2.59090909,53 3.45454545,53 C20.7272727,53 55.2727273,53 72.5454545,53 C73.4090909,53 75.1363636,53 76,53 C76,53.75 76,55.25 76,56 C76,59 76,65 76,68 C76,68.75 76,70.25 76,71 C75.1363636,71 73.4090909,71 72.5454545,71 C55.2727273,71 20.7272727,71 3.45454545,71 C2.59090909,71 0.863636364,71 0,71 C0,70.25 0,68.75 0,68 C0,65 0,59 0,56 C0,55.25 0,53.75 0,53 Z M39,59 C39,60.5 39,63.5 39,65 C46.75,65 62.25,65 70,65 C70,63.5 70,60.5 70,59 C62.25,59 46.75,59 39,59 Z" id="tasks" fill="#000000"></path>
    </g>
</svg>