<?xml version="1.0" encoding="UTF-8"?>
<svg width="76px" height="60px" viewBox="0 0 76 60" version="1.1" xmlns="http://www.w3.org/2000/svg" xmlns:xlink="http://www.w3.org/1999/xlink">
    <!-- Generator: Sketch 48.1 (47250) - http://www.bohemiancoding.com/sketch -->
    <title>television</title>
    <desc>Created with Sketch.</desc>
    <defs></defs>
    <g id="television---f26c" stroke="none" stroke-width="1" fill="none" fill-rule="evenodd" transform="translate(0.000000, -8.000000)">
        <path d="M0,8 C0.678571429,8 2.03571429,8 2.71428571,8 C20.3571429,8 55.6428571,8 73.2857143,8 C73.9642857,8 75.3214286,8 76,8 C76,8.78125 76,10.34375 76,11.125 C76,22.0625 76,43.9375 76,54.875 C76,55.65625 76,57.21875 76,58 C75.3214286,58 73.9642857,58 73.2857143,58 C55.6428571,58 20.3571429,58 2.71428571,58 C2.03571429,58 0.678571429,58 0,58 C0,57.21875 0,55.65625 0,54.875 C0,43.9375 0,22.0625 0,11.125 C0,10.34375 0,8.78125 0,8 Z M6,14 C6,23.5 6,42.5 6,52 C22,52 54,52 70,52 C70,42.5 70,23.5 70,14 C54,14 22,14 6,14 Z M20,61 C29.25,61 47.75,61 57,61 C57,62.5625 57,65.6875 57,67.25 C47.75,67.25 29.25,67.25 20,67.25 C20,65.6875 20,62.5625 20,61 Z" id="television" fill="#000000" fill-rule="nonzero"></path>
    </g>
</svg>