<?xml version="1.0" encoding="UTF-8"?>
<svg width="76px" height="64px" viewBox="0 0 76 64" version="1.1" xmlns="http://www.w3.org/2000/svg" xmlns:xlink="http://www.w3.org/1999/xlink">
    <!-- Generator: Sketch 48.1 (47250) - http://www.bohemiancoding.com/sketch -->
    <title>th-list</title>
    <desc>Created with Sketch.</desc>
    <defs></defs>
    <g id="th-list---f00b" stroke="none" stroke-width="1" fill="none" fill-rule="evenodd" transform="translate(0.000000, -6.000000)" opacity="0.699999988">
        <path d="M70,31 L29,31 L29,45 L70,45 L70,31 Z M70,25 L70,12 L29,12 L29,25 L70,25 Z M6,31 L6,45 L23,45 L23,31 L6,31 Z M6,25 L23,25 L23,12 L6,12 L6,25 Z M70,51 L29,51 L29,64 L70,64 L70,51 Z M6,51 L6,64 L23,64 L23,51 L6,51 Z M76,69.2822266 L76,70 L0,70 L0,69.2822266 L0,12 L0,6 L76,6 L76,12 L76,69.2822266 Z" id="th-list" fill="#000000"></path>
    </g>
</svg>