<?xml version="1.0" encoding="UTF-8"?>
<svg width="76px" height="59px" viewBox="0 0 76 59" version="1.1" xmlns="http://www.w3.org/2000/svg" xmlns:xlink="http://www.w3.org/1999/xlink">
    <!-- Generator: Sketch 48.1 (47250) - http://www.bohemiancoding.com/sketch -->
    <title>th</title>
    <desc>Created with Sketch.</desc>
    <defs></defs>
    <g id="th---f00a" stroke="none" stroke-width="1" fill="none" fill-rule="evenodd" transform="translate(0.000000, -9.000000)" opacity="0.699999988">
        <path d="M6,62 L18,62 L18,50 L6,50 L6,62 Z M0,64.1005859 L0,11 L0,9 L76,9 L76,11 L76,64.1005859 L76,68 L0,68 L0,64.1005859 Z M70,62 L70,50 L59,50 L59,62 L70,62 Z M53,62 L53,50 L41,50 L41,62 L53,62 Z M35,62 L35,50 L24,50 L24,62 L35,62 Z M6,44 L18,44 L18,33 L6,33 L6,44 Z M70,44 L70,33 L59,33 L59,44 L70,44 Z M53,44 L53,33 L41,33 L41,44 L53,44 Z M35,44 L35,33 L24,33 L24,44 L35,44 Z M6,27 L18,27 L18,15 L6,15 L6,27 Z M70,27 L70,15 L59,15 L59,27 L70,27 Z M53,27 L53,15 L41,15 L41,27 L53,27 Z M35,27 L35,15 L24,15 L24,27 L35,27 Z" id="th" fill="#000000"></path>
    </g>
</svg>