<?xml version="1.0" encoding="UTF-8"?>
<svg width="25px" height="76px" viewBox="0 0 25 76" version="1.1" xmlns="http://www.w3.org/2000/svg" xmlns:xlink="http://www.w3.org/1999/xlink">
    <!-- Generator: Sketch 48.1 (47250) - http://www.bohemiancoding.com/sketch -->
    <title>thermometer</title>
    <desc>Created with Sketch.</desc>
    <defs></defs>
    <g id="thermometer---f2c7" stroke="none" stroke-width="1" fill="none" fill-rule="evenodd" transform="translate(-26.000000, 0.000000)">
        <path d="M35.0794702,57.6736312 C32.7145229,58.7970951 31.0794702,61.207604 31.0794702,64 C31.0794702,67.8659932 34.213477,71 38.0794702,71 C41.9454634,71 45.0794702,67.8659932 45.0794702,64 C45.0794702,61.207604 43.4444175,58.7970951 41.0794702,57.6736312 L41.0794702,8.94736842 C41.0794702,7.29051417 39.7363244,5.94736842 38.0794702,5.94736842 C36.4226159,5.94736842 35.0794702,7.29051417 35.0794702,8.94736842 L35.0794702,57.6736312 Z M30.0794702,55.055574 L30.0794702,8 C30.0794702,3.581722 33.6611922,8.11624501e-16 38.0794702,0 C42.4977482,-8.11624501e-16 46.0794702,3.581722 46.0794702,8 L46.0794702,55.055574 C48.5344676,57.2528562 50.0794702,60.4460007 50.0794702,64 C50.0794702,70.627417 44.7068872,76 38.0794702,76 C31.4520532,76 26.0794702,70.627417 26.0794702,64 C26.0794702,60.4460007 27.6244728,57.2528562 30.0794702,55.055574 Z" id="thermometer" fill="#000000"></path>
    </g>
</svg>