<?xml version="1.0" encoding="UTF-8"?>
<svg width="25px" height="76px" viewBox="0 0 25 76" version="1.1" xmlns="http://www.w3.org/2000/svg" xmlns:xlink="http://www.w3.org/1999/xlink">
    <!-- Generator: Sketch 48.1 (47250) - http://www.bohemiancoding.com/sketch -->
    <title>thermometer-3</title>
    <desc>Created with Sketch.</desc>
    <defs></defs>
    <g id="thermometer-3---f2c8" stroke="none" stroke-width="1" fill="none" fill-rule="evenodd" transform="translate(-26.000000, 0.000000)">
        <path d="M35.0759039,57.6753266 C32.7128792,58.7995189 31.0794702,61.2090079 31.0794702,64 C31.0794702,67.8659932 34.213477,71 38.0794702,71 C41.9454634,71 45.0794702,67.8659932 45.0794702,64 C45.0794702,61.2061981 43.4427706,58.7946678 41.0758974,57.6719351 L41,18 L35,18 L35.0759039,57.6753266 Z M30.0794702,55.055574 L30.0794702,8 C30.0794702,3.581722 33.6611922,8.11624501e-16 38.0794702,0 C42.4977482,-8.11624501e-16 46.0794702,3.581722 46.0794702,8 L46.0794702,55.055574 C48.5344676,57.2528562 50.0794702,60.4460007 50.0794702,64 C50.0794702,70.627417 44.7068872,76 38.0794702,76 C31.4520532,76 26.0794702,70.627417 26.0794702,64 C26.0794702,60.4460007 27.6244728,57.2528562 30.0794702,55.055574 Z" id="thermometer-3" fill="#000000"></path>
    </g>
</svg>