<?xml version="1.0" encoding="UTF-8"?>
<svg width="73px" height="76px" viewBox="0 0 73 76" version="1.1" xmlns="http://www.w3.org/2000/svg" xmlns:xlink="http://www.w3.org/1999/xlink">
    <!-- Generator: Sketch 48.1 (47250) - http://www.bohemiancoding.com/sketch -->
    <title>thumbs-up</title>
    <desc>Created with Sketch.</desc>
    <defs></defs>
    <g id="Artboard-Copy-53" stroke="none" stroke-width="1" fill="none" fill-rule="evenodd" transform="translate(-2.000000, 0.000000)">
        <path d="M42.2007422,0 C44.8255326,0 47.0704193,0.863417915 48.9354024,2.59025375 C50.8003855,4.31708958 51.732877,6.35475615 51.732877,8.70325347 C51.732877,14.5 46.0861234,22.587015 45.930708,23.2086759 C50.6967754,23.2086759 50.6967754,23.2086759 64.9949775,23.2086759 C68.1723561,23.2086759 70.7626102,24.4519979 72.7657398,26.9386417 C74.7688694,29.4252856 75.4250672,32.1882232 74.7343331,35.2274545 C72.3167626,46.279205 72.3167626,46.279205 67.4816214,68.3827059 C67.0671804,70.7312032 65.9274685,72.6307229 64.0624858,74.081265 C62.1975031,75.531807 60.1598367,76.2570781 57.9494866,76.2570781 C40.4048328,76.2570781 18.4740155,76.2570781 5.31552513,76.2570781 C4.48664385,76.2570781 2.82888128,76.2570781 2,76.2570781 C2,75.4281968 2,73.7704342 2,72.9415529 C2,61.337215 2,38.128539 2,26.5242011 C2,25.6953198 2,24.0375572 2,23.2086759 C2.82888128,23.2086759 4.48664385,23.2086759 5.31552513,23.2086759 C8.32021979,23.2086759 14.3296091,23.2086759 17.3343037,23.2086759 C22.9292524,17.6137273 34.1191497,6.42382995 39.7140984,0.828881283 C39.9731239,0.621660962 40.491175,0.207220321 40.7502005,0 C41.112836,0 41.112836,0 42.2007422,0 Z M43.0296235,7.04549091 C37.7455053,12.2259989 27.177269,23.319492 21.8931508,28.5 C21.8931508,38.9646262 21.8931508,59.1614016 21.8931508,69.6260278 C30.9072348,69.6260278 30.9072348,69.6260278 57.9494866,69.6260278 C59.7453964,69.6260278 60.8505715,68.7971465 61.2650118,67.1393839 C63.6135087,56.0876335 63.6135087,56.0876335 68.3105027,33.9841326 C68.4486492,32.8789576 68.2068921,31.9119294 67.5852313,31.0830481 C66.9635705,30.2541668 66.1001526,29.8397262 64.9949775,29.8397262 C57.189679,29.8397262 37.0879068,29.8397262 36,29.8397262 C36.3108305,28.8036246 44.0855594,16.0801369 44.5,14.5 C44.9144406,12.9198631 48,7.04549091 43.0296235,7.04549091 Z M8.63105027,29.8397262 C8.63105027,39.7863016 8.63105027,59.6794524 8.63105027,69.6260278 C10.2888128,69.6260278 13.604338,69.6260278 15.2621005,69.6260278 C15.2621005,59.6794524 15.2621005,39.7863016 15.2621005,29.8397262 C13.604338,29.8397262 10.2888128,29.8397262 8.63105027,29.8397262 Z" id="thumbs-up" fill="#000000" fill-rule="nonzero"></path>
    </g>
</svg>