<?xml version="1.0" encoding="UTF-8"?>
<svg width="73px" height="76px" viewBox="0 0 73 76" version="1.1" xmlns="http://www.w3.org/2000/svg" xmlns:xlink="http://www.w3.org/1999/xlink">
    <!-- Generator: Sketch 48.1 (47250) - http://www.bohemiancoding.com/sketch -->
    <title>thumbs-down</title>
    <desc>Created with Sketch.</desc>
    <defs></defs>
    <g id="thumbs-down" stroke="none" stroke-width="1" fill="none" fill-rule="evenodd" transform="translate(-2.000000, 0.000000)">
        <path d="M34.7992578,76.2570781 C32.1744674,76.2570781 29.9295807,75.3936602 28.0645976,73.6668243 C26.1996145,71.9399885 25.267123,69.9023219 25.267123,67.5538246 C25.267123,61.7570781 30.9138766,53.6700631 31.069292,53.0484021 L12.0050225,53.0484021 C8.82764386,53.0484021 6.23738976,51.8050802 4.23426017,49.3184364 C2.23113058,46.8317925 1.57493281,44.0688549 2.26566686,41.0296235 L9.51837862,7.87437219 C9.93281961,5.52587487 11.0725315,3.62635517 12.9375142,2.1758131 C14.8024969,0.725271034 16.8401633,0 19.0505134,0 L75,0 L75,53.0484021 L59.6656963,53.0484021 L37.2859016,75.4281968 L36.2497995,76.2570781 L34.7992578,76.2570781 Z M33.9703765,69.2115872 C39.2544947,64.0310791 49.822731,52.9375861 55.1068492,47.7570781 L55.1068492,6.63105027 L19.0505134,6.63105027 C17.2546036,6.63105027 16.1494285,7.45993155 15.7349882,9.11769412 L8.68949733,42.2729454 C8.55135081,43.3781205 8.79310794,44.3451487 9.41476872,45.1740299 C10.0364295,46.0029112 10.8998474,46.4173519 12.0050225,46.4173519 L41,46.4173519 C40.6891695,47.4534535 32.9144406,60.1769412 32.5,61.7570781 C32.0855594,63.337215 29,69.2115872 33.9703765,69.2115872 Z M68.3689497,46.4173519 L68.3689497,6.63105027 L61.7378995,6.63105027 L61.7378995,46.4173519 L68.3689497,46.4173519 Z" fill="#000000" fill-rule="nonzero"></path>
    </g>
</svg>