<?xml version="1.0" encoding="UTF-8"?>
<svg width="76px" height="76px" viewBox="0 0 76 76" version="1.1" xmlns="http://www.w3.org/2000/svg" xmlns:xlink="http://www.w3.org/1999/xlink">
    <!-- Generator: Sketch 48.1 (47250) - http://www.bohemiancoding.com/sketch -->
    <title>thumb-tack</title>
    <desc>Created with Sketch.</desc>
    <defs></defs>
    <g id="thumb-tack---f08d" stroke="none" stroke-width="1" fill="none" fill-rule="evenodd">
        <path d="M50.4265403,0 C50.9668246,0.494089947 75.549763,25.1536646 76,25.6926717 C74.2278673,28.0571157 65.8546602,32.8794329 60.331754,32.1607568 C56.9099529,35.634358 52.6327015,39.9763596 50.0663507,42.5815605 C51.0268562,46.4144998 50.9968404,50.2474391 49.9763031,54.0803784 C48.9557658,57.9133177 47.0047389,61.2671396 44.1232223,64.141844 C43.4628749,64.8605202 42.6374406,65.7588653 42.1421801,66.2978724 C39.71406,63.7659575 35.3333333,59.3333333 29,53 C10.3333333,69 0.666666667,76.6666667 -2.02615702e-14,76 C-0.666666667,75.3333333 7,65.6666667 23,47 C15.3507109,39.6666667 10.8056872,35.2592592 9.36492891,33.7777776 C9.90521327,33.2836879 10.985782,32.2955084 11.5260664,31.8014187 C17.0489731,26.1717894 23.7725118,24.0756509 31.6966825,25.5130031 C35.6587678,21.620174 40.6113744,16.7541376 43.5829384,13.8345157 C43.9431277,9.16312128 48.4094787,1.83981086 50.4265403,0 Z M50.9668251,8.80378291 C49.6461297,11.19937 48.985782,16.2600474 48.985782,16.5295507 C48.8056872,16.7541371 38.2701422,27.3995275 34.9383886,30.7234045 C34.6232229,30.9929081 33.9928913,31.5319152 33.6777256,31.8014187 C33.2725122,31.7115842 32.4620854,31.5319152 32.056872,31.4420806 C27.4944708,30.1245075 22.8720378,31.0827423 18.189573,34.3167851 C26.0537122,42.1623329 35.8838861,51.9692676 41.7819905,57.8534285 C45.2638228,53.0622543 46.1042651,47.9117419 44.3033175,42.401891 C44.0631912,41.8628841 43.7630332,41.1891254 43.5829384,40.7848702 C43.943128,40.4255321 44.6635071,39.706856 45.0236967,39.347518 C47.9952607,36.382979 57.8554506,26.5460999 58.1706166,26.2316792 C58.5758297,26.3664309 64.5939971,26.710796 67.3554502,25.1536642 C61.8925752,19.7037037 55.0639814,12.8912532 50.9668251,8.80378291 Z" id="thumb-tack" fill="#000000" fill-rule="nonzero"></path>
    </g>
</svg>