<?xml version="1.0" encoding="UTF-8"?>
<svg width="76px" height="57px" viewBox="0 0 76 57" version="1.1" xmlns="http://www.w3.org/2000/svg" xmlns:xlink="http://www.w3.org/1999/xlink">
    <!-- Generator: Sketch 48.1 (47250) - http://www.bohemiancoding.com/sketch -->
    <title>ticket</title>
    <desc>Created with Sketch.</desc>
    <defs></defs>
    <g id="ticket" stroke="none" stroke-width="1" fill="none" fill-rule="evenodd" transform="translate(0.000000, -10.000000)">
        <path d="M0,10.25 C0.78125,10.25 75.46875,10 76.25,10 C76.25,10.78125 76.25,31.09375 76.25,31.875 C75.46875,31.875 73.90625,31.875 73.125,31.875 C71.3020833,31.875 69.8046875,32.4609375 68.6328125,33.6328125 C67.4609375,34.8046875 66.875,36.3020833 66.875,38.125 C66.875,39.9479167 67.4609375,41.4453125 68.6328125,42.6171875 C69.8046875,43.7890625 71.3020833,44.375 73.125,44.375 C74.1666667,44.375 75.46875,44.375 76.25,44.375 C76.25,45.15625 76.25,65.46875 76.25,66.25 C75.46875,66.25 0.78125,66.5 0,66.5 C0,65.71875 0,45.40625 0,44.625 C0.78125,44.625 2.34375,44.625 3.125,44.625 C4.94791667,44.625 6.4453125,44.0390625 7.6171875,42.8671875 C8.7890625,41.6953125 9.375,40.1979167 9.375,38.375 C9.375,36.5520833 8.7890625,35.0546875 7.6171875,33.8828125 C6.4453125,32.7109375 4.94791667,32.125 3.125,32.125 C2.08333333,32.125 0.78125,32.125 0,32.125 C0,31.34375 0,11.03125 0,10.25 Z M6.25,16.5 C6.25,18.9902345 6.25,23.9707035 6.25,26.460938 C8.98437467,27.2421873 11.2304683,28.7070308 12.988281,30.8554685 C14.7460937,33.0039062 15.625,35.5104167 15.625,38.375 C15.625,41.2395833 14.7460937,43.7460938 12.988281,45.8945315 C11.2304683,48.0429692 8.98437467,49.5078127 6.25,50.289062 C6.25,53.6093747 6.25,57.7597655 6.25,60.25 C25,60.25 51.25,60 70,60 C70,57.5097655 70,52.5292965 70,50.039062 C67.2656253,49.2578127 65.0195317,47.7929692 63.261719,45.6445315 C61.5039063,43.4960938 60.625,40.9895833 60.625,38.125 C60.625,35.2604167 61.5039063,32.7539062 63.261719,30.6054685 C65.0195317,28.4570308 67.2656253,26.9921873 70,26.210938 C70,22.8906253 70,18.7402345 70,16.25 C51.25,16.25 25,16.5 6.25,16.5 Z" fill="#000000" fill-rule="nonzero"></path>
    </g>
</svg>