<?xml version="1.0" encoding="UTF-8"?>
<svg width="64px" height="64px" viewBox="0 0 64 64" version="1.1" xmlns="http://www.w3.org/2000/svg" xmlns:xlink="http://www.w3.org/1999/xlink">
    <!-- Generator: Sketch 48.1 (47250) - http://www.bohemiancoding.com/sketch -->
    <title>times-circle</title>
    <desc>Created with Sketch.</desc>
    <defs></defs>
    <g id="times-circle" stroke="none" stroke-width="1" fill="none" fill-rule="evenodd" transform="translate(-6.000000, -6.000000)">
        <path d="M38,35.1715729 L51.4350288,21.736544 L55.6776695,25.9791847 L42.2426407,39.4142136 L55.6776695,52.8492424 L51.4350288,57.0918831 L38,43.6568542 L24.5649712,57.0918831 L20.3223305,52.8492424 L33.7573593,39.4142136 L20.3223305,25.9791847 L24.5649712,21.736544 L38,35.1715729 Z M60.627417,15.372583 C54.4048773,9.15004333 46.862405,6.03877349 38,6.03877349 C29.137595,6.03877349 21.5951227,9.15004333 15.372583,15.372583 C9.15004333,21.5951227 6.03877349,29.137595 6.03877349,38 C6.03877349,46.862405 9.15004333,54.4048773 15.372583,60.627417 C21.5951227,66.8499567 29.137595,69.9612265 38,69.9612265 C46.862405,69.9612265 54.4048773,66.8499567 60.627417,60.627417 C66.8499567,54.4048773 69.9612265,46.862405 69.9612265,38 C69.9612265,29.137595 66.8499567,21.5951227 60.627417,15.372583 Z" fill="#000000" fill-rule="nonzero"></path>
    </g>
</svg>