<?xml version="1.0" encoding="UTF-8"?>
<svg width="76px" height="76px" viewBox="0 0 76 76" version="1.1" xmlns="http://www.w3.org/2000/svg" xmlns:xlink="http://www.w3.org/1999/xlink">
    <!-- Generator: Sketch 48.1 (47250) - http://www.bohemiancoding.com/sketch -->
    <title>times-circle-o</title>
    <desc>Created with Sketch.</desc>
    <defs></defs>
    <g id="times-circle-o" stroke="none" stroke-width="1" fill="none" fill-rule="evenodd">
        <path d="M37.7517023,33.5090616 L48.1867312,23.0740328 L52.4293719,27.3166735 L41.994343,37.7517023 L52.4293719,48.1867312 L48.1867312,52.4293719 L37.7517023,41.994343 L27.3166735,52.4293719 L23.0740328,48.1867312 L33.5090616,37.7517023 L23.0740328,27.3166735 L27.3166735,23.0740328 L37.7517023,33.5090616 Z M64.8700577,11.1299423 C72.240664,18.5005487 75.9259672,27.4572345 75.9259672,38 C75.9259672,48.5427655 72.240664,57.4994513 64.8700577,64.8700577 C57.4994513,72.240664 48.5427655,75.9259672 38,75.9259672 C27.4572345,75.9259672 18.5005487,72.240664 11.1299423,64.8700577 C3.75933597,57.4994513 0.074032805,48.5427655 0.074032805,38 C0.074032805,27.4572345 3.75933597,18.5005487 11.1299423,11.1299423 C18.5005487,3.75933597 27.4572345,0.074032805 38,0.074032805 C48.5427655,0.074032805 57.4994513,3.75933597 64.8700577,11.1299423 Z M60.627417,15.372583 C54.4048773,9.15004333 46.862405,6.03877349 38,6.03877349 C29.137595,6.03877349 21.5951227,9.15004333 15.372583,15.372583 C9.15004333,21.5951227 6.03877349,29.137595 6.03877349,38 C6.03877349,46.862405 9.15004333,54.4048773 15.372583,60.627417 C21.5951227,66.8499567 29.137595,69.9612265 38,69.9612265 C46.862405,69.9612265 54.4048773,66.8499567 60.627417,60.627417 C66.8499567,54.4048773 69.9612265,46.862405 69.9612265,38 C69.9612265,29.137595 66.8499567,21.5951227 60.627417,15.372583 Z" fill="#000000" fill-rule="nonzero"></path>
    </g>
</svg>