<?xml version="1.0" encoding="UTF-8"?>
<svg width="56px" height="76px" viewBox="0 0 56 76" version="1.1" xmlns="http://www.w3.org/2000/svg" xmlns:xlink="http://www.w3.org/1999/xlink">
    <!-- Generator: Sketch 48.1 (47250) - http://www.bohemiancoding.com/sketch -->
    <title>tint</title>
    <desc>Created with Sketch.</desc>
    <defs></defs>
    <g id="tint---f043" stroke="none" stroke-width="1" fill="none" fill-rule="evenodd" transform="translate(-10.000000, 0.000000)">
        <path d="M38,0 C38.5833333,0.725190721 39.75,2.17557216 40.3333333,2.90076288 C44.6111108,7.92875241 48.8240736,13.4724335 52.9722217,19.5318062 C56.8611113,25.3333327 59.7777781,30.2323997 61.7222222,34.2290074 C64.5740741,39.9016113 66,44.5428327 66,48.1526716 C66,55.7591181 63.2453705,62.3019511 57.7361114,67.7811707 C52.2268523,73.2603902 45.6481485,76 38,76 C30.3518515,76 23.7731477,73.2603902 18.2638886,67.7811707 C12.7546295,62.3019511 10,55.7591181 10,48.1526716 C10,44.5428327 11.4259259,39.9016113 14.2777778,34.2290074 C16.2222219,30.2323997 19.1388887,25.3333327 23.0277783,19.5318062 C24.8425924,16.8244274 26.819444,14.0848177 28.9583331,11.3129769 C31.0972221,8.5411362 32.7500002,6.44614018 33.9166672,5.02798886 C34.5000003,4.31891354 35.2291668,3.43256938 35.6666667,2.90076288 C36.25,2.17557216 37.4166667,0.725190721 38,0 Z M38,9.86259499 C34.1111111,14.6327395 30.8055554,19.0161153 28.0833328,23.0127223 C24.7129631,27.9117893 21.9259263,32.5530107 19.7222222,36.9363865 C17.3888889,41.8354536 16.2222222,45.5742152 16.2222222,48.1526716 C16.2222222,54.0831211 18.3611111,59.1755724 22.6388889,63.4300254 C26.9166667,67.6844783 32.037037,69.8117048 38,69.8117048 C43.962963,69.8117048 49.0833333,67.6844783 53.3611111,63.4300254 C57.6388889,59.1755724 59.7777778,54.0831211 59.7777778,48.1526716 C59.7777778,45.5742152 58.6111111,41.8354536 56.2777778,36.9363865 C54.0740737,32.5530107 51.2870369,27.9117893 47.9166672,23.0127223 C45.1944446,19.0161153 41.8888889,14.6327395 38,9.86259499 Z M22.4444444,48.1526716 C24,48.1526716 27.1111111,48.1526716 28.6666667,48.1526716 C28.6666667,50.7311279 29.5740741,52.9228158 31.3888889,54.7277352 C33.2037037,56.5326547 35.4074074,57.4351144 38,57.4351144 C38,59.4978795 38,62.0763358 38,63.6234096 C33.7222226,63.6234096 30.0601856,62.1085664 27.0138891,59.07888 C23.9675927,56.0491937 22.4444444,52.4071242 22.4444444,48.1526716 Z" id="tint" fill="#000000" fill-rule="nonzero"></path>
    </g>
</svg>