<?xml version="1.0" encoding="UTF-8"?>
<svg width="76px" height="44px" viewBox="0 0 76 44" version="1.1" xmlns="http://www.w3.org/2000/svg" xmlns:xlink="http://www.w3.org/1999/xlink">
    <!-- Generator: Sketch 48.1 (47250) - http://www.bohemiancoding.com/sketch -->
    <title>toggle-off</title>
    <desc>Created with Sketch.</desc>
    <defs></defs>
    <g id="toggle-off---f204" stroke="none" stroke-width="1" fill="none" fill-rule="evenodd" transform="translate(0.000000, -16.000000)">
        <path d="M21.375,16.75 C29.6875,16.75 46.3125,16.75 54.625,16.75 C60.5625,16.75 65.609375,18.828125 69.765625,22.984375 C73.921875,27.140625 76,32.1875 76,38.125 C76,44.0625 73.921875,49.109375 69.765625,53.265625 C65.609375,57.421875 60.5625,59.5 54.625,59.5 C43.5416667,59.5 29.6875,59.5 21.375,59.5 C19.1979167,59.5 17.0703124,59.203125 14.9921871,58.609375 C14.4973957,58.4114583 13.8541667,58.1145833 13.0625,57.71875 C10.1927086,56.53125 7.69401073,54.7747395 5.56640644,52.4492186 C3.43880215,50.1236976 1.88020833,47.4765624 0.890625,44.5078129 C0.890625,44.4583336 0.890625,44.3964845 0.890625,44.359375 C0.296875,42.3802083 0,40.3020833 0,38.125 C0,35.9479167 0.296875,33.8203124 0.890625,31.7421871 C1.08854167,31.2473957 1.38541667,30.6041667 1.78125,29.8125 C2.96875,26.9427086 4.72526048,24.4440107 7.05078144,22.3164064 C9.3763024,20.1888021 12.0234376,18.6302083 14.9921871,17.640625 C15.5859376,17.5416664 16.2786462,17.393229 17.0703129,17.1953129 C18.5546876,16.8984376 19.9895833,16.75 21.375,16.75 Z M22.0715332,22.1553955 C17.994604,22.1553955 14.4391425,23.5341933 11.4051488,26.2917889 C8.37115515,29.0493845 6.61712768,32.4250619 6.14306641,36.4188211 C6.14306641,36.8942683 6.14306641,37.4648054 6.14306641,38.1304321 C6.14306641,42.599639 7.68376626,46.3794469 10.765166,49.4698556 C13.8465657,52.5602644 17.6153547,54.1054688 22.0715332,54.1054688 C26.5277117,54.1054688 30.2965007,52.5602644 33.3779004,49.4698556 C36.4593001,46.3794469 38,42.599639 38,38.1304321 C38,33.6612252 36.4593001,29.8814174 33.3779004,26.7910086 C30.2965007,23.7005999 26.5277117,22.1553955 22.0715332,22.1553955 Z M36.3202035,22.1553955 C41.4400678,26.2442444 44,31.5692566 44,38.1304321 C44,44.6916076 41.4400678,50.0166198 36.3202035,54.1054688 C42.6726278,54.1054688 49.1641486,54.1054688 53.9284668,54.1054688 C58.3846453,54.1054688 62.1534343,52.5602644 65.234834,49.4698556 C68.3162337,46.3794469 69.8569336,42.599639 69.8569336,38.1304321 C69.8569336,33.6612252 68.3162337,29.8814174 65.234834,26.7910086 C62.1534343,23.7005999 58.3846453,22.1553955 53.9284668,22.1553955 C47.5760425,22.1553955 41.0845217,22.1553955 36.3202035,22.1553955 Z" id="toggle-off" fill="#000000" fill-rule="nonzero"></path>
    </g>
</svg>