<?xml version="1.0" encoding="UTF-8"?>
<svg width="76px" height="76px" viewBox="0 0 76 76" version="1.1" xmlns="http://www.w3.org/2000/svg" xmlns:xlink="http://www.w3.org/1999/xlink">
    <!-- Generator: Sketch 48.1 (47250) - http://www.bohemiancoding.com/sketch -->
    <title>trademark</title>
    <desc>Created with Sketch.</desc>
    <defs></defs>
    <g id="trademark---f25c" stroke="none" stroke-width="1" fill="none" fill-rule="evenodd">
        <path d="M38,0 C48.4236114,1.42108547e-14 57.3628476,3.72743047 64.8177086,11.1822914 C72.2725695,18.6371524 76,27.5763886 76,38 C76,48.4236114 72.2725695,57.3628476 64.8177086,64.8177086 C57.3628476,72.2725695 48.4236114,76 38,76 C27.5763886,76 18.6371524,72.2725695 11.1822914,64.8177086 C3.72743047,57.3628476 0,48.4236114 0,38 C0,27.5763886 3.72743047,18.6371524 11.1822914,11.1822914 C18.6371524,3.72743047 27.5763886,1.42108547e-14 38,0 Z M38,6 C29.2,6 21.6666667,9.13333333 15.4,15.4 C9.13333333,21.6666667 6,29.2 6,38 C6,46.8 9.13333333,54.3333333 15.4,60.6 C21.6666667,66.8666667 29.2,70 38,70 C46.8,70 54.3333333,66.8666667 60.6,60.6 C66.8666667,54.3333333 70,46.8 70,38 C70,29.2 66.8666667,21.6666667 60.6,15.4 C54.3333333,9.13333333 46.8,6 38,6 Z M35.0625,25 L35.0625,29.9921875 L27.5625,29.9921875 L27.5625,50.1015625 L22.5,50.1015625 L22.5,29.9921875 L15,29.9921875 L15,25 L35.0625,25 Z M49.247321,41.5703125 L60.825446,25 L60.825446,50.1015625 L55.7395085,50.1015625 L55.7395085,40.5625 L49.247321,50.1015625 L42.684821,40.5625 L42.684821,50.1015625 L37.669196,50.1015625 L37.669196,25 L49.247321,41.5703125 Z" id="trademark" fill="#000000" fill-rule="nonzero"></path>
    </g>
</svg>