<?xml version="1.0" encoding="UTF-8"?>
<svg width="64px" height="76px" viewBox="0 0 64 76" version="1.1" xmlns="http://www.w3.org/2000/svg" xmlns:xlink="http://www.w3.org/1999/xlink">
    <!-- Generator: Sketch 48.1 (47250) - http://www.bohemiancoding.com/sketch -->
    <title>train</title>
    <desc>Created with Sketch.</desc>
    <defs></defs>
    <g id="train---f238" stroke="none" stroke-width="1" fill="none" fill-rule="evenodd" transform="translate(-6.000000, 0.000000)">
        <path d="M32.1818182,0 C35.0909091,0 35.0909091,0 43.8181818,0 C47.333333,0 49.8787876,1.94871795 51.4545455,5.84615385 C52.7878788,5.84615385 52.7878788,5.84615385 55.4545455,5.84615385 C59.4545451,5.84615385 62.8787875,7.27724367 65.7272725,10.1394233 C68.5757575,13.001603 70,16.442308 70,20.4615385 C70,31.1794872 70,31.1794872 70,52.6153846 C70,56.1474356 69.060606,59.3445509 67.1818179,62.2067305 C65.3030299,65.0689102 62.8484845,67.2307692 59.8181818,68.6923077 C62.2424242,71.1282051 65.2727273,74.1730769 67.0909091,76 C65.3636364,76 61.9090909,76 60.1818182,76 C58.7272727,74.5384615 58.7272727,74.5384615 54.3636364,70.1538462 C53.7575754,70.1538462 53.1515148,70.1538462 52.5454545,70.1538462 C42.8484848,70.1538462 42.8484848,70.1538462 23.4545455,70.1538462 C22.8484852,70.1538462 22.2424246,70.1538462 21.6363636,70.1538462 C19.6969697,72.1025641 17.2727273,74.5384615 15.8181818,76 C14.0909091,76 10.6363636,76 8.90909091,76 C10.7272727,74.1730769 10.7272727,74.1730769 16.1818182,68.6923077 C13.1515155,67.2307692 10.6969701,65.0689102 8.81818205,62.2067305 C6.93939402,59.3445509 6,56.1474356 6,52.6153846 C6,41.8974359 6,41.8974359 6,20.4615385 C6,16.442308 7.4242425,13.001603 10.2727275,10.1394233 C13.1212125,7.27724367 16.5454549,5.84615385 20.5454545,5.84615385 C21.8787879,5.84615385 21.8787879,5.84615385 24.5454545,5.84615385 C26.1212124,1.94871795 28.666667,0 32.1818182,0 Z M32.1408451,6 C30.1877934,6 29.2112676,7 29.2112676,9 C29.2112676,10 29.2112676,11.25 29.2112676,12 C28.4788732,12 27.0140845,12 26.2816901,12 C24.8169014,12 24.8169014,12 20.4225352,12 C18.4694836,12 16.730047,12.5625 15.2042256,13.6875 C13.6784041,14.8125 12.610329,16.25 12,18 C29.3333333,18 29.3333333,18 64,18 C63.389671,16.25 62.3215959,14.8125 60.7957744,13.6875 C59.269953,12.5625 57.5305164,12 55.5774648,12 C53.6244131,12 51.1830986,12 49.7183099,12 C48.9859155,12 47.5211268,12 46.7887324,12 C46.7887324,11.25 46.7887324,11.25 46.7887324,9 C46.7887324,7 45.8122066,6 43.8591549,6 C39.9530516,6 39.9530516,6 32.1408451,6 Z M12,23 C12,26.75 12,34.25 12,38 C25,38 51,38 64,38 C64,34.25 64,26.75 64,23 C51,23 25,23 12,23 Z M12,44 C12,46.1428571 12,46.1428571 12,52.5714286 C12,55.7857146 13.1134258,58.494048 15.3402775,60.6964288 C17.5671292,62.8988096 20.3055552,64 23.5555556,64 C33.1851852,64 33.1851852,64 52.4444444,64 C55.6944448,64 58.4328708,62.8988096 60.6597225,60.6964288 C62.8865742,58.494048 64,55.7857146 64,52.5714286 C64,49.7142857 64,46.1428571 64,44 C51,44 25,44 12,44 Z M38,47 C39.6249997,47 41.0312496,47.5937501 42.2187498,48.7812502 C43.4062499,49.9687504 44,51.3750003 44,53 C44,54.6249997 43.4062499,56.0312496 42.2187498,57.2187498 C41.0312496,58.4062499 39.6249997,59 38,59 C36.3750003,59 34.9687504,58.4062499 33.7812502,57.2187498 C32.5937501,56.0312496 32,54.6249997 32,53 C32,51.3750003 32.5937501,49.9687504 33.7812502,48.7812502 C34.9687504,47.5937501 36.3750003,47 38,47 Z" id="train" fill="#000000" fill-rule="nonzero"></path>
    </g>
</svg>