<?xml version="1.0" encoding="UTF-8"?>
<svg width="76px" height="76px" viewBox="0 0 76 76" version="1.1" xmlns="http://www.w3.org/2000/svg" xmlns:xlink="http://www.w3.org/1999/xlink">
    <!-- Generator: Sketch 48.1 (47250) - http://www.bohemiancoding.com/sketch -->
    <title>transgender-alt</title>
    <desc>Created with Sketch.</desc>
    <defs></defs>
    <g id="transgender-alt---f225" stroke="none" stroke-width="1" fill="none" fill-rule="evenodd">
        <path d="M0.0968208092,0 L22.2634875,0 L22.2634875,6.33333333 L10.7843208,6.33333333 L20.6801541,16.0312495 L26.2218208,10.2916667 L30.9718208,15.0416667 C28.1020294,17.8125 26.1888351,19.6597222 25.232238,20.5833333 C26.2713004,21.6223957 28.3494251,23.7005205 29.3884875,24.7395828 C32.0273764,23.0243054 34.9301541,22.1666667 38.0968208,22.1666667 C41.2634875,22.1666667 44.1662653,23.0243054 46.8051541,24.7395828 C50.9394134,20.6493052 57.1408023,14.5138887 65.4093208,6.33333333 L53.9301541,6.33333333 L53.9301541,0 L76.0968208,0 L76.0968208,22.1666667 L69.7634875,22.1666667 L69.7634875,10.6875 C60.5603627,19.9895833 54.4249462,26.1909722 51.357238,29.2916667 C53.0725154,31.9305556 53.9301541,34.8333333 53.9301541,38 C53.9301541,41.8263886 52.7426541,45.1909717 50.3676541,48.0937495 C47.9926541,50.9965273 44.9579319,52.7777774 41.2634875,53.4375 C41.2634875,54.9328704 41.2634875,57.1759259 41.2634875,60.1666667 L50.7634875,60.1666667 L50.7634875,66.5 L41.2634875,66.5 L41.2634875,76 L34.9301541,76 L34.9301541,66.5 L25.4301541,66.5 L25.4301541,60.1666667 L34.9301541,60.1666667 C34.9301541,56.8020833 34.9301541,54.5590278 34.9301541,53.4375 C31.2357097,52.7777774 28.2009875,50.9965273 25.8259875,48.0937495 C23.4509875,45.1909717 22.2634875,41.8263886 22.2634875,38 C22.2634875,34.8333333 23.1211262,31.9305556 24.8364036,29.2916667 C23.9127926,28.3680557 22.5273761,26.9826392 20.6801541,25.1354172 L15.1384875,30.875 L10.3884875,26.125 L16.1280703,20.5833333 L6.43015414,10.6875 L6.43015414,22.1666667 L0.0968208092,22.1666667 L0.0968208092,0 Z M38.0968208,28.5 C35.4579319,28.5 33.2148764,29.4236111 31.3676541,31.2708333 C29.5204319,33.1180556 28.5968208,35.3611111 28.5968208,38 C28.5968208,40.6388889 29.5204319,42.8819444 31.3676541,44.7291667 C33.2148764,46.5763889 35.4579319,47.5 38.0968208,47.5 C40.7357097,47.5 42.9787653,46.5763889 44.8259875,44.7291667 C46.6732097,42.8819444 47.5968208,40.6388889 47.5968208,38 C47.5968208,35.3611111 46.6732097,33.1180556 44.8259875,31.2708333 C42.9787653,29.4236111 40.7357097,28.5 38.0968208,28.5 Z" id="transgender-alt" fill="#000000" fill-rule="nonzero"></path>
    </g>
</svg>