<?xml version="1.0" encoding="UTF-8"?>
<svg width="54px" height="76px" viewBox="0 0 54 76" version="1.1" xmlns="http://www.w3.org/2000/svg" xmlns:xlink="http://www.w3.org/1999/xlink">
    <!-- Generator: Sketch 48.1 (47250) - http://www.bohemiancoding.com/sketch -->
    <title>transgender</title>
    <desc>Created with Sketch.</desc>
    <defs></defs>
    <g id="transgender---f224" stroke="none" stroke-width="1" fill="none" fill-rule="evenodd" transform="translate(-11.000000, 0.000000)">
        <path d="M44.7777778,0 L64.4814815,0 L64.4814815,19.7037037 L58.8518519,19.7037037 L58.8518519,9.5 C52.6944444,15.7453701 48.5895062,19.9089502 46.537037,21.9907403 C49.117284,25.5092594 50.4074074,29.4382719 50.4074074,33.7777778 C50.4074074,38.7037037 48.794753,43.0138888 45.5694442,46.7083331 C42.3441354,50.4027774 38.3271602,52.5432096 33.5185185,53.1296296 C33.5185185,55.0843621 33.5185185,58.0164609 33.5185185,61.9259259 L41.962963,61.9259259 L41.962963,67.5555556 L33.5185185,67.5555556 L33.5185185,76 L27.8888889,76 L27.8888889,67.5555556 L19.4444444,67.5555556 L19.4444444,61.9259259 L27.8888889,61.9259259 C27.8888889,57.5277778 27.8888889,54.595679 27.8888889,53.1296296 C23.0802472,52.5432096 19.063272,50.4027774 15.8379632,46.7083331 C12.6126544,43.0138888 11,38.7037037 11,33.7777778 C11,28.382716 12.9351852,23.75 16.8055556,19.8796296 C20.6759259,16.0092593 25.308642,14.0740741 30.7037037,14.0740741 C35.0432096,14.0740741 38.9722221,15.3641975 42.4907412,17.9444444 C45.2664613,15.2078189 49.4300414,11.1028807 54.9814815,5.62962963 L44.7777778,5.62962963 L44.7777778,0 Z M30.7037037,19.7037037 C26.8333336,19.7037037 23.5200621,21.0817902 20.7638891,23.8379632 C18.0077161,26.5941362 16.6296296,29.9074077 16.6296296,33.7777778 C16.6296296,37.6481478 18.0077161,40.9614194 20.7638891,43.7175924 C23.5200621,46.4737654 26.8333336,47.8518519 30.7037037,47.8518519 C34.5740738,47.8518519 37.8873453,46.4737654 40.6435183,43.7175924 C43.3996913,40.9614194 44.7777778,37.6481478 44.7777778,33.7777778 C44.7777778,29.9074077 43.3996913,26.5941362 40.6435183,23.8379632 C37.8873453,21.0817902 34.5740738,19.7037037 30.7037037,19.7037037 Z" id="transgender" fill="#000000" fill-rule="nonzero"></path>
    </g>
</svg>