<?xml version="1.0" encoding="UTF-8"?>
<svg width="64px" height="71px" viewBox="0 0 64 71" version="1.1" xmlns="http://www.w3.org/2000/svg" xmlns:xlink="http://www.w3.org/1999/xlink">
    <!-- Generator: Sketch 48.1 (47250) - http://www.bohemiancoding.com/sketch -->
    <title>trash</title>
    <desc>Created with Sketch.</desc>
    <defs></defs>
    <g id="trash---f1f8" stroke="none" stroke-width="1" fill="none" fill-rule="evenodd" transform="translate(-6.000000, -5.000000)">
        <path d="M31.4,5 C34.6,5 41.4,5 44.6,5 C46.4666667,5 48,5.59375 49.2,6.78125 C50.4,7.96875 51,9.48611111 51,11.3333333 C51,12.037037 51,13.2592593 51,15 L70,15 L70,21 L67,21 C67,42.8888889 67,58.0555556 67,66.5 C67,69.1388889 66.0666667,71.3819444 64.2,73.2291667 C62.3333333,75.0763889 60.0666667,76 57.4,76 C44.6,76 28.2,76 18.6,76 C15.9333333,76 13.6666667,75.0763889 11.8,73.2291667 C9.93333333,71.3819444 9,69.1388889 9,66.5 C9,55.2407407 9,40.0740741 9,21 L6,21 L6,15 L25,15 C25,13.0833333 25,11.8611111 25,11.3333333 C25,9.48611111 25.6,7.96875 26.8,6.78125 C28,5.59375 29.5333333,5 31.4,5 Z M31,12 L31,15 L45,15 L45,12 C45,10.8954305 44.1045695,10 43,10 L33,10 C31.8954305,10 31,10.8954305 31,12 Z M15,21 C15.1333333,44.124183 15.2,59.503268 15.2,67.1372549 C15.2,67.9722225 15.4999999,68.6580886 16.0999997,69.1948532 C16.6999996,69.7316177 17.4666663,70 18.4,70 C31.2,70 48.4,70 58,70 C58.9333337,70 59.7000004,69.7316177 60.3000003,69.1948532 C60.9000001,68.6580886 61.2,67.9722225 61.2,67.1372549 C61.2,56.9586057 61.1333333,41.5795207 61,21 L15,21 Z M35.3052632,31 L41.3684211,31 L41.3684211,60 L35.3052632,60 L35.3052632,31 Z M23.1789474,31 L29.2421053,31 L29.2421053,60 L23.1789474,60 L23.1789474,31 Z M47.4315789,31 L53.4947368,31 L53.4947368,60 L47.4315789,60 L47.4315789,31 Z" id="trash" fill="#000000" fill-rule="nonzero"></path>
    </g>
</svg>