<?xml version="1.0" encoding="UTF-8"?>
<svg width="65px" height="76px" viewBox="0 0 65 76" version="1.1" xmlns="http://www.w3.org/2000/svg" xmlns:xlink="http://www.w3.org/1999/xlink">
    <!-- Generator: Sketch 48.1 (47250) - http://www.bohemiancoding.com/sketch -->
    <title>trash-o</title>
    <desc>Created with Sketch.</desc>
    <defs></defs>
    <g id="trash-o---f014" stroke="none" stroke-width="1" fill="none" fill-rule="evenodd" transform="translate(-5.000000, 0.000000)">
        <path d="M35.3052632,31 L41.3684211,31 L41.3684211,60 L35.3052632,60 L35.3052632,31 Z M23.1789474,31 L29.2421053,31 L29.2421053,60 L23.1789474,60 L23.1789474,31 Z M47.4315789,31 L53.4947368,31 L53.4947368,60 L47.4315789,60 L47.4315789,31 Z M14.836402,21 C15.0788007,44.4798334 15.2,59.8589184 15.2,67.1372549 C15.2,67.9722225 15.4999999,68.6580886 16.0999997,69.1948532 C16.6999996,69.7316177 17.4666663,70 18.4,70 L58,70 C58.9333337,70 59.7000004,69.7316177 60.3000003,69.1948532 C60.9000001,68.6580886 61.2,67.9722225 61.2,67.1372549 C61.2,57.4844259 61.1400433,42.105341 61.0201299,21 L67,21 L67,66.5 C67,69.1388889 66.0666667,71.3819444 64.2,73.2291667 C62.3333333,75.0763889 60.0666667,76 57.4,76 L18.6,76 C15.9333333,76 13.6666667,75.0763889 11.8,73.2291667 C9.93333333,71.3819444 9,69.1388889 9,66.5 L9,21 L14.836402,21 Z M28.165028,3.49206273 L41.1225069,0.973383986 C42.9548776,0.617207195 44.5733321,0.907474542 45.9778704,1.84418603 C47.3824087,2.78089751 48.2609112,4.15589503 48.6133778,5.96917858 L49.3130108,9.56847825 L67.9639273,5.94310734 L69.1087812,11.8328704 L6.28464151,24.0446461 L5.13978754,18.154883 L23.790704,14.5295121 L23.091071,10.9302125 C22.7386044,9.11692891 23.0380546,7.5129606 23.9894215,6.11830752 C24.9407885,4.72365445 26.3326573,3.84823952 28.165028,3.49206273 Z M29.1080401,10.4397766 L29.6804671,13.3846582 L43.4232477,10.7133322 L42.8508207,7.76845067 C42.6400589,6.68417523 41.5902238,5.9760525 40.5059483,6.1868143 L30.6896765,8.09490425 C29.6054011,8.30566605 28.8972783,9.35550116 29.1080401,10.4397766 Z" id="trash-o" fill="#000000" fill-rule="nonzero"></path>
    </g>
</svg>