<?xml version="1.0" encoding="UTF-8"?>
<svg width="76px" height="61px" viewBox="0 0 76 61" version="1.1" xmlns="http://www.w3.org/2000/svg" xmlns:xlink="http://www.w3.org/1999/xlink">
    <!-- Generator: Sketch 48.1 (47250) - http://www.bohemiancoding.com/sketch -->
    <title>truck</title>
    <desc>Created with Sketch.</desc>
    <defs></defs>
    <g id="truck---f0d1" stroke="none" stroke-width="1" fill="none" fill-rule="evenodd" transform="translate(0.000000, -15.000000)">
        <path d="M0,15.2 L46,15.2 L46,25 L59,25 L76,42.1166667 L76,68.4 C71.6194444,68.4 68.9805556,68.4 68.0833333,68.4 C67.45,70.6166664 66.2361111,72.4374997 64.4416667,73.8624998 C62.6472222,75.2874999 60.5888889,76 58.2666667,76 C55.9444444,76 53.8861111,75.2874999 52.0916667,73.8624998 C50.2972222,72.4374997 49.0833333,70.6166664 48.45,68.4 C41.4833333,68.4 32.775,68.4 27.55,68.4 C26.9166667,70.6166664 25.7027778,72.4374997 23.9083333,73.8624998 C22.1138889,75.2874999 20.0555556,76 17.7333333,76 C15.4111111,76 13.3527778,75.2874999 11.5583333,73.8624998 C9.76388889,72.4374997 8.55,70.6166664 7.91666667,68.4 C6.72037037,68.4 4.08148148,68.4 0,68.4 L0,15.2 Z M6,21 L6,63 C6.66666667,63 7.33732763,63.0055141 8.0119829,63.0165424 C8.66799519,60.9425986 9.850112,59.2273624 11.5583333,57.8708335 C13.3527778,56.4458334 15.4111111,55.7333333 17.7333333,55.7333333 C20.0555556,55.7333333 22.1138889,56.4458334 23.9083333,57.8708335 C25.6148931,59.2260429 26.7963713,60.9392622 27.452768,63.0104915 C30,63 36.7541667,63 40,63 C40,57.0888889 40,43.0888889 40,21 L6,21 Z M46,31 L46,63 C47.3333333,63 48.1835246,62.9999881 48.5505737,62.9999644 C49.2076346,60.9334565 50.387999,59.2237462 52.0916667,57.8708335 C53.8861111,56.4458334 55.9444444,55.7333333 58.2666667,55.7333333 C60.5888889,55.7333333 62.6472222,56.4458334 64.4416667,57.8708335 C66.1591417,59.2347109 67.3461648,60.910914 68,63 C68.6675787,63 69.3342454,63 70,63 L70,44 L57,31 L46,31 Z M17.7333333,61.7 C16.6048613,61.7 15.6282989,62.1123264 14.803646,62.9369793 C13.9789931,63.7616322 13.5666667,64.7381947 13.5666667,65.8666667 C13.5666667,66.9951387 13.9789931,67.9717011 14.803646,68.796354 C15.6282989,69.6210069 16.6048613,70.0333333 17.7333333,70.0333333 C18.8618053,70.0333333 19.8383678,69.6210069 20.6630207,68.796354 C21.4876736,67.9717011 21.9,66.9951387 21.9,65.8666667 C21.9,64.7381947 21.4876736,63.7616322 20.6630207,62.9369793 C19.8383678,62.1123264 18.8618053,61.7 17.7333333,61.7 Z M58.165,61.7000008 C57.0369794,61.7000008 56.0608076,62.1121623 55.2364845,62.9364853 C54.4121615,63.7608083 54,64.7369801 54,65.8650007 C54,66.9930213 54.4121615,67.9691931 55.2364845,68.7935162 C56.0608076,69.6178392 57.0369794,70.0300007 58.165,70.0300007 C59.2930206,70.0300007 60.2691924,69.6178392 61.0935154,68.7935162 C61.9178384,67.9691931 62.3299999,66.9930213 62.3299999,65.8650007 C62.3299999,64.7369801 61.9178384,63.7608083 61.0935154,62.9364853 C60.2691924,62.1121623 59.2930206,61.7000008 58.165,61.7000008 Z" id="truck" fill="#000000" fill-rule="nonzero"></path>
    </g>
</svg>