<?xml version="1.0" encoding="UTF-8"?>
<svg width="54px" height="76px" viewBox="0 0 54 76" version="1.1" xmlns="http://www.w3.org/2000/svg" xmlns:xlink="http://www.w3.org/1999/xlink">
    <!-- Generator: Sketch 48.1 (47250) - http://www.bohemiancoding.com/sketch -->
    <title>try</title>
    <desc>Created with Sketch.</desc>
    <defs></defs>
    <g id="try---f195" stroke="none" stroke-width="1" fill="none" fill-rule="evenodd" transform="translate(-11.000000, 0.000000)">
        <path d="M20.5294118,0 C22.1176471,0 25.2941176,0 26.8823529,0 C26.8823529,4.10677096 26.8823529,12.3203129 26.8823529,16.4270838 C31.6470588,14.6953129 41.1764706,11.231771 45.9411765,9.5 C45.9411765,11.0833333 45.9411765,14.25 45.9411765,15.8333333 C41.1764706,17.5651043 31.6470588,21.0286462 26.8823529,22.7604172 C26.8823529,24.3437505 26.8823529,27.5104172 26.8823529,29.0937505 C31.6470588,27.3619795 41.1764706,23.8984376 45.9411765,22.1666667 C45.9411765,23.75 45.9411765,26.9166667 45.9411765,28.5 C41.1764706,30.231771 31.6470588,33.6953129 26.8823529,35.4270838 C26.8823529,43.8880212 26.8823529,60.809896 26.8823529,69.2708333 C34.0294118,68.4791667 40.3161765,65.8732638 45.7426471,61.4531247 C51.1691176,57.0329857 54.8088235,51.3923606 56.6617647,44.5312495 C57.3235294,42.0902774 58.1507353,39.0390624 58.6470588,37.2083333 C60.2352941,37.6041667 63.4117647,38.3958333 65,38.7916667 C64.5036765,40.671875 63.5110294,44.4322917 63.0147059,46.3125 C60.5000003,55.0208333 55.6029415,62.1458333 48.3235294,67.6875 C41.0441173,73.2291667 32.838235,76 23.7058824,76 C22.6470588,76 21.3235294,76 20.5294118,76 C20.5294118,75.2083333 20.5294118,73.625 20.5294118,72.8333333 C20.5294118,64.0260417 20.5294118,46.4114583 20.5294118,37.6041667 C18.1470588,38.4947917 13.3823529,40.2760417 11,41.1666667 C11,39.5833333 11,36.4166667 11,34.8333333 C13.3823529,33.9427083 18.1470588,32.1614583 20.5294118,31.2708333 C20.5294118,29.6875 20.5294118,26.5208333 20.5294118,24.9375 C18.1470588,25.828125 13.3823529,27.609375 11,28.5 C11,26.9166667 11,23.75 11,22.1666667 C13.3823529,21.2760417 18.1470588,19.4947917 20.5294118,18.6041667 C20.5294118,13.953125 20.5294118,4.65104167 20.5294118,0 Z" id="try" fill="#000000" fill-rule="nonzero"></path>
    </g>
</svg>