<?xml version="1.0" encoding="UTF-8"?>
<svg width="76px" height="62px" viewBox="0 0 76 62" version="1.1" xmlns="http://www.w3.org/2000/svg" xmlns:xlink="http://www.w3.org/1999/xlink">
    <!-- Generator: Sketch 48.1 (47250) - http://www.bohemiancoding.com/sketch -->
    <title>tty</title>
    <desc>Created with Sketch.</desc>
    <defs></defs>
    <g id="tty---f1e4" stroke="none" stroke-width="1" fill="none" fill-rule="evenodd" transform="translate(0.000000, -6.000000)">
        <path d="M25.1200654,14.8205217 L25.0466149,26.0584457 L10.0627163,31.6406824 L0,21.5779662 C20.7701515,0.807814698 54.4422036,0.806874532 75.2132952,21.5779662 L65.1505789,31.6406824 L50.1666803,26.0584457 L50.0932298,14.8205217 C41.9539761,12.5241658 33.258379,12.5251059 25.1200654,14.8205217 Z M23,36 L25,36 C26.6568542,36 28,37.3431458 28,39 L28,41 C28,42.6568542 26.6568542,44 25,44 L23,44 C21.3431458,44 20,42.6568542 20,41 L20,39 C20,37.3431458 21.3431458,36 23,36 Z M23,48 L25,48 C26.6568542,48 28,49.3431458 28,51 L28,53 C28,54.6568542 26.6568542,56 25,56 L23,56 C21.3431458,56 20,54.6568542 20,53 L20,51 C20,49.3431458 21.3431458,48 23,48 Z M23,60 L25,60 C26.6568542,60 28,61.3431458 28,63 L28,65 C28,66.6568542 26.6568542,68 25,68 L23,68 C21.3431458,68 20,66.6568542 20,65 L20,63 C20,61.3431458 21.3431458,60 23,60 Z M37,36 L39,36 C40.6568542,36 42,37.3431458 42,39 L42,41 C42,42.6568542 40.6568542,44 39,44 L37,44 C35.3431458,44 34,42.6568542 34,41 L34,39 C34,37.3431458 35.3431458,36 37,36 Z M37,48 L39,48 C40.6568542,48 42,49.3431458 42,51 L42,53 C42,54.6568542 40.6568542,56 39,56 L37,56 C35.3431458,56 34,54.6568542 34,53 L34,51 C34,49.3431458 35.3431458,48 37,48 Z M37,60 L39,60 C40.6568542,60 42,61.3431458 42,63 L42,65 C42,66.6568542 40.6568542,68 39,68 L37,68 C35.3431458,68 34,66.6568542 34,65 L34,63 C34,61.3431458 35.3431458,60 37,60 Z M51,36 L53,36 C54.6568542,36 56,37.3431458 56,39 L56,41 C56,42.6568542 54.6568542,44 53,44 L51,44 C49.3431458,44 48,42.6568542 48,41 L48,39 C48,37.3431458 49.3431458,36 51,36 Z M51,48 L53,48 C54.6568542,48 56,49.3431458 56,51 L56,53 C56,54.6568542 54.6568542,56 53,56 L51,56 C49.3431458,56 48,54.6568542 48,53 L48,51 C48,49.3431458 49.3431458,48 51,48 Z M51,60 L53,60 C54.6568542,60 56,61.3431458 56,63 L56,65 C56,66.6568542 54.6568542,68 53,68 L51,68 C49.3431458,68 48,66.6568542 48,65 L48,63 C48,61.3431458 49.3431458,60 51,60 Z" id="tty" fill="#000000"></path>
    </g>
</svg>