<?xml version="1.0" encoding="UTF-8"?>
<svg width="76px" height="76px" viewBox="0 0 76 76" version="1.1" xmlns="http://www.w3.org/2000/svg" xmlns:xlink="http://www.w3.org/1999/xlink">
    <!-- Generator: Sketch 48.1 (47250) - http://www.bohemiancoding.com/sketch -->
    <title>umbrella</title>
    <desc>Created with Sketch.</desc>
    <defs></defs>
    <g id="umbrella---f0e9" stroke="none" stroke-width="1" fill="none" fill-rule="evenodd">
        <path d="M34.8333333,0 C36.4166667,0 39.5833333,0 41.1666667,0 C41.1666667,1.6262018 41.1666667,4.87860539 41.1666667,6.50480719 C50.5347226,7.2932694 58.5833337,10.9727569 65.3125,17.5432697 C72.0416663,24.1137826 75.6041663,31.5384619 76,39.8173077 C76,40.2115381 76,40.6057689 76,41 C73.8888889,41 71.25,41 69.6666667,41 C69.6666667,40.474359 69.1388889,39.9487179 68.0833333,39.4230769 C66.2361111,38.3717949 64.125,37.8461538 61.75,37.8461538 C59.375,37.8461538 57.2638889,38.3717949 55.4166667,39.4230769 C54.3611111,39.9487179 53.8333333,40.474359 53.8333333,41 C51.7222222,41 49.0833333,41 47.5,41 C47.5,40.474359 46.8402778,39.9487179 45.5208333,39.4230769 C43.541667,38.3717949 41.0347226,37.8461538 38,37.8461538 C34.9652774,37.8461538 32.458333,38.3717949 30.4791667,39.4230769 C29.1597222,39.9487179 28.5,40.474359 28.5,41 C26.3888889,41 23.75,41 22.1666667,41 C22.1666667,40.474359 21.6388889,39.9487179 20.5833333,39.4230769 C18.7361111,38.3717949 16.625,37.8461538 14.25,37.8461538 C11.875,37.8461538 9.76388889,38.3717949 7.91666667,39.4230769 C6.86111111,39.9487179 6.33333333,40.474359 6.33333333,41 C4.22222222,41 1.58333333,41 0,41 C0,40.8685901 0,40.6714749 0,40.4086544 C0,40.1458338 0,39.9487183 0,39.8173077 C0.395833671,31.5384619 3.95833367,24.1137826 10.6875,17.5432697 C17.4166663,10.9727569 25.4652774,7.2932694 34.8333333,6.50480719 C34.8333333,4.33653813 34.8333333,1.6262018 34.8333333,0 Z M38,13 C31.3774836,13 25.2847684,14.9839182 19.7218546,18.9517546 C14.1589408,22.9195911 10.2516559,27.6608191 8,33.1754386 C9.98675527,32.6374269 12.0397355,32.3684211 14.1589408,32.3684211 C17.7351,32.3684211 20.9139079,33.1754386 23.6953645,34.7894737 C24.0927158,35.0584795 24.6225171,35.4619883 25.2847684,36 C25.3509934,36 25.4337747,36 25.4834434,36 C26.4105961,35.327485 27.139073,34.856725 27.6688743,34.5877198 C30.5827816,33.1081873 34.0264901,32.3684211 38,32.3684211 C41.9735099,32.3684211 45.4172184,33.1081873 48.3311257,34.5877198 C49.1258276,34.9912282 49.9205296,35.4619883 50.7152316,36 C51.3774829,35.4619883 51.9072842,35.0584795 52.3046355,34.7894737 C55.0860921,33.1754386 58.2649,32.3684211 61.8410592,32.3684211 C63.9602645,32.3684211 66.0132447,32.6374269 68,33.1754386 C65.7483441,27.6608191 61.8410592,22.9532167 56.2781454,19.0526316 C50.7152316,15.0175439 44.6225164,13 38,13 Z M34.6666667,41 C36.25,41 39.4166667,41 41,41 C41,47.3636364 41,60.0909091 41,66.4545455 C41,69.1060606 40.0763889,71.3598485 38.2291667,73.2159091 C36.3819444,75.0719697 34.1388889,76 31.5,76 C28.8611111,76 26.6180556,75.0719697 24.7708333,73.2159091 C22.9236111,71.3598485 22,69.1060606 22,66.4545455 C22,65.3939394 22,64.0681818 22,63.2727273 C23.5833333,63.2727273 26.75,63.2727273 28.3333333,63.2727273 C28.3333333,64.0681818 28.3333333,65.6590909 28.3333333,66.4545455 C28.3333333,68.5757576 29.3888889,69.6363636 31.5,69.6363636 C33.6111111,69.6363636 34.6666667,68.5757576 34.6666667,66.4545455 C34.6666667,57.969697 34.6666667,47.3636364 34.6666667,41 Z" id="umbrella" fill="#000000" fill-rule="nonzero"></path>
    </g>
</svg>