<?xml version="1.0" encoding="UTF-8"?>
<svg width="76px" height="61px" viewBox="0 0 76 61" version="1.1" xmlns="http://www.w3.org/2000/svg" xmlns:xlink="http://www.w3.org/1999/xlink">
    <!-- Generator: Sketch 48.1 (47250) - http://www.bohemiancoding.com/sketch -->
    <title>university</title>
    <desc>Created with Sketch.</desc>
    <defs></defs>
    <g id="university---f19c" stroke="none" stroke-width="1" fill="none" fill-rule="evenodd" transform="translate(0.000000, -8.000000)">
        <path d="M41.04,8 L41.04,24.775 L50.16,24.775 L50.16,41.1176625 C50.16,51.1399625 43.69392,52.225 38.37088,52.225 L37.16932,52.225 C31.84552,52.225 25.84,51.1399625 25.84,41.1176625 L25.84,24.775 L34.96,24.775 L34.96,8 L0,8 L0,24.775 L9.12,24.775 L9.12,41.1176625 C9.12,58.2129125 20.03056,69 37.16932,69 L38.37088,69 C55.50888,69 66.88,58.2129125 66.88,41.1176625 L66.88,24.775 L76,24.775 L76,8 L41.04,8 Z M70,18.8095238 L60.1325301,18.8095238 L60.1325301,41.2346667 C60.1325301,54.8034286 52.3273614,63 38.7072169,63 L37.5064217,63 C23.8862771,63 16.1084337,54.8034286 16.1084337,41.2346667 L16.1084337,18.8095238 L7,18.8095238 L7,15 L29.0120482,15 L29.0120482,18.8095238 L19.9036145,18.8095238 L19.9036145,41.2346667 C19.9036145,46.5702857 21.4027108,59.1904762 37.5064217,59.1904762 L38.7072169,59.1904762 C54.8109277,59.1904762 56.3373494,46.5702857 56.3373494,41.2346667 L56.3373494,18.8095238 L47.9879518,18.8095238 L47.9879518,15 L70,15 L70,18.8095238 Z" id="university" fill="#000000" fill-rule="nonzero"></path>
    </g>
</svg>