<?xml version="1.0" encoding="UTF-8"?>
<svg width="76px" height="76px" viewBox="0 0 76 76" version="1.1" xmlns="http://www.w3.org/2000/svg" xmlns:xlink="http://www.w3.org/1999/xlink">
    <!-- Generator: Sketch 48.1 (47250) - http://www.bohemiancoding.com/sketch -->
    <title>universal-access</title>
    <desc>Created with Sketch.</desc>
    <defs></defs>
    <g id="universal-access---f29a" stroke="none" stroke-width="1" fill="none" fill-rule="evenodd">
        <path d="M38,0 C48.4236114,1.42108547e-14 57.3628476,3.72743047 64.8177086,11.1822914 C72.2725695,18.6371524 76,27.5763886 76,38 C76,48.4236114 72.2725695,57.3628476 64.8177086,64.8177086 C57.3628476,72.2725695 48.4236114,76 38,76 C27.5763886,76 18.6371524,72.2725695 11.1822914,64.8177086 C3.72743047,57.3628476 0,48.4236114 0,38 C0,27.5763886 3.72743047,18.6371524 11.1822914,11.1822914 C18.6371524,3.72743047 27.5763886,1.42108547e-14 38,0 Z M38,6 C29.2,6 21.6666667,9.13333333 15.4,15.4 C9.13333333,21.6666667 6,29.2 6,38 C6,46.8 9.13333333,54.3333333 15.4,60.6 C21.6666667,66.8666667 29.2,70 38,70 C46.8,70 54.3333333,66.8666667 60.6,60.6 C66.8666667,54.3333333 70,46.8 70,38 C70,29.2 66.8666667,21.6666667 60.6,15.4 C54.3333333,9.13333333 46.8,6 38,6 Z M57.4857179,29.3536589 C57.1135667,29.9666137 56.5662856,30.3606561 55.8438746,30.5357861 C50.4805198,31.8054782 46.2992921,32.6154543 43.2783005,32.9438229 C43.3220829,37.3220717 43.5409954,41.0435832 43.9131465,44.1083574 C44.2852977,47.1950228 44.6574488,49.3403647 45.0077087,50.5662744 C45.3798599,51.7921841 45.9490322,53.3902449 46.7152258,55.3604569 C46.878541,55.747615 46.7152258,55.3604569 47.0873769,56.2361066 C47.3719631,56.9366264 47.3500719,57.615255 47.0435944,58.2719923 C46.737117,58.9287297 46.2555097,59.3884458 45.5549898,59.673032 C45.2922949,59.7824882 44.9858175,59.8481619 44.5917751,59.8481619 C43.3658654,59.8481619 42.5339982,59.2789896 42.0961733,58.1406449 C41.9359178,57.7606107 42.0961733,58.1406449 41.7678046,57.3087776 C40.2573088,53.4559186 39.2722028,49.8876459 38.8124867,46.5601767 C37.2800996,46.5601767 38.8124867,46.5601767 37.0611871,46.5601767 C36.5795798,49.8876459 35.5944738,53.4559186 34.1058692,57.3087776 C33.9305878,57.792746 34.1058692,57.3087776 33.7775005,58.1406449 C33.3396756,59.2789896 32.5078084,59.8481619 31.2818987,59.8481619 C30.8878563,59.8481619 30.5594876,59.7824882 30.318684,59.673032 C29.6400554,59.410337 29.1365568,58.9287297 28.8300794,58.2719923 C28.5236019,57.615255 28.5017107,56.9366264 28.7862969,56.2361066 C28.9351313,55.7945634 28.7862969,56.2361066 29.158448,55.3604569 C29.9465328,53.3902449 30.5157052,51.7921841 30.8659651,50.5662744 C31.216225,49.3403647 31.5883761,47.1731316 31.9605273,44.1083574 C32.3326784,41.0435832 32.5296996,37.3220717 32.5953733,32.9438229 C29.5962729,32.6154543 25.393154,31.8054782 20.0297992,30.5357861 C19.3073882,30.3606561 18.7601071,29.9666137 18.3879559,29.3536589 C18.0158048,28.7188128 17.9063486,28.0620755 18.0814785,27.3396644 C18.2566085,26.6172534 18.6506509,26.0699723 19.2636057,25.6978211 C19.8984518,25.32567 20.5551891,25.2162138 21.2776001,25.3913437 C28.5017107,27.120752 34.0401955,27.9745105 37.9149457,27.9745105 C41.7896959,27.9745105 47.3281806,27.0988608 54.5522912,25.3913437 C55.2747022,25.2162138 55.9533308,25.32567 56.5662856,25.6978211 C57.1792405,26.0699723 57.5732828,26.6172534 57.7484128,27.3396644 C57.9235428,28.0620755 57.8140865,28.7407041 57.4857179,29.3536589 Z M41.6802396,25.0848663 C40.6294599,26.1137548 39.381659,26.6391446 37.9149457,26.6391446 C36.4482323,26.6391446 35.1785401,26.1137548 34.1496517,25.0848663 C33.1207632,24.0340866 32.5953733,22.7862857 32.5953733,21.3195723 C32.5953733,19.852859 33.1207632,18.5831668 34.1496517,17.5542783 C35.2004314,16.5253899 36.4482323,16 37.9149457,16 C39.381659,16 40.6513512,16.5253899 41.6802396,17.5542783 C42.7091281,18.605058 43.234518,19.852859 43.234518,21.3195723 C43.234518,22.7862857 42.7091281,24.0559778 41.6802396,25.0848663 Z" id="universal-access" fill="#000000" fill-rule="nonzero"></path>
    </g>
</svg>