<?xml version="1.0" encoding="UTF-8"?>
<svg width="58px" height="76px" viewBox="0 0 58 76" version="1.1" xmlns="http://www.w3.org/2000/svg" xmlns:xlink="http://www.w3.org/1999/xlink">
    <!-- Generator: Sketch 48.1 (47250) - http://www.bohemiancoding.com/sketch -->
    <title>unlock</title>
    <desc>Created with Sketch.</desc>
    <defs></defs>
    <g id="unlock---f09c" stroke="none" stroke-width="1" fill="none" fill-rule="evenodd" transform="translate(-9.000000, 0.000000)">
        <path d="M17,29 L23,29 L23,23 L17,23 L17,20.2307692 C17,14.6282051 19.778846,10.0480768 23.7980765,6.02884569 C27.8173075,2.00961523 32.6282051,0 38.2307692,0 C43.8333333,0 48.6442308,2.00961538 52.6634615,6.02884615 C56.6826923,10.0480769 59,14.6282051 59,20.2307692 C59,23.1538462 59,26.8076923 59,29 C59.974359,29 62.6410256,29 67,29 L67,76 L9,76 L9,29 C13.3589744,29 16.025641,29 17,29 Z M38,6 C34.1500003,6 30.854167,7.40755216 28.1125002,10.2226565 C25.3708334,13.0377608 23,16.4218753 23,20.375 C23,23.25 23,26.84375 23,29 C30,29 45,29 52,29 C52,26.84375 52,22.53125 52,20.375 C52,16.4218753 50.6,13.0677086 47.8,10.3125 C45.1166664,7.4375 41.8499997,6 38,6 Z M15,35.0769231 C15,43.8076923 15,61.2692308 15,70 C26.5,70 49.5,70 61,70 C61,61.2692308 61,43.8076923 61,35.0769231 C49.5,35.0769231 26.5,35.0769231 15,35.0769231 Z" id="unlock" fill="#000000" fill-rule="nonzero"></path>
    </g>
</svg>