<?xml version="1.0" encoding="UTF-8"?>
<svg width="76px" height="76px" viewBox="0 0 76 76" version="1.1" xmlns="http://www.w3.org/2000/svg" xmlns:xlink="http://www.w3.org/1999/xlink">
    <!-- Generator: Sketch 48.1 (47250) - http://www.bohemiancoding.com/sketch -->
    <title>user-circle</title>
    <desc>Created with Sketch.</desc>
    <defs></defs>
    <g id="user-circle---f2bd" stroke="none" stroke-width="1" fill="none" fill-rule="evenodd">
        <path d="M38,0 C48.4236114,1.42108547e-14 57.3628476,3.72743047 64.8177086,11.1822914 C72.2725695,18.6371524 76,27.5763886 76,38 C76,48.4236114 72.2725695,57.3628476 64.8177086,64.8177086 C57.3628476,72.2725695 48.4236114,76 38,76 C27.5763886,76 18.6371524,72.2725695 11.1822914,64.8177086 C3.72743047,57.3628476 0,48.4236114 0,38 C0,27.5763886 3.72743047,18.6371524 11.1822914,11.1822914 C18.6371524,3.72743047 27.5763886,1.42108547e-14 38,0 Z M63.6970149,57.0698667 C67.899005,51.5625829 70,45.2059607 70,38 C70,29.2 66.8666667,21.6666667 60.6,15.4 C54.3333333,9.13333333 46.8,6 38,6 C29.2,6 21.6666667,9.13333333 15.4,15.4 C9.13333333,21.6666667 6,29.2 6,38 C6,45.2016225 8.09846611,51.5549289 12.2953983,57.0599192 C14.8963055,54.4669681 18.73852,52.4894559 24.3590351,50.9440492 C24.794682,50.823455 25.2457566,50.7631579 25.6997697,50.7631579 C27.5084759,50.7631579 29.024057,51.6853487 30.6285307,52.6614522 C32.5746162,53.8461127 34.7807675,55.1889644 38,55.1889644 C41.1993969,55.1889644 43.4665241,53.8709409 45.4669737,52.7068524 C47.1250768,51.7428083 48.6913487,50.8312581 50.5184211,50.8312581 C51.0025548,50.8312581 51.4822807,50.8972303 51.944375,51.0291745 C57.3953579,52.5756252 61.14372,54.5298015 63.6970149,57.0698667 Z M60.064887,61.1245401 C57.9972013,58.7375051 54.8043546,57.3998588 50.1362555,56.1372916 C50.0786943,56.1217814 50.023239,56.1146725 49.961466,56.1146725 C49.386556,56.1146725 48.3764271,56.6749796 47.308035,57.2675997 C45.1642312,58.4560712 42.2279079,60.0846455 37.9999673,60.0846455 C33.7074459,60.0846455 30.8195583,58.408248 28.7108527,57.1848785 C27.7505634,56.6278027 26.7586856,56.0526316 26.2469525,56.0526316 C26.2020266,56.0526316 26.1627166,56.0578017 26.1191947,56.0681418 C21.1312293,57.3764476 17.9482483,58.9083345 15.9441033,61.1331742 C22.1012484,67.0443914 29.4532139,70 38,70 C46.5509463,70 53.9059086,67.0415134 60.064887,61.1245401 Z M38,15.5 C45.3031469,15.5 51.2236842,21.4693826 51.2236842,28.8279926 L51.2236842,39.1983232 C51.2236842,46.5584142 45.3046162,52.5263158 38,52.5263158 C30.6968531,52.5263158 24.7763158,46.5569332 24.7763158,39.1983232 L24.7763158,28.8279926 C24.7763158,21.4679016 30.6953838,15.5 38,15.5 Z M38,20.8071053 C33.4373198,20.8071053 29.7255309,24.5478934 29.7255309,29.14638 L29.7255309,38.8799358 C29.7255309,43.4784224 33.4373198,47.2192105 38,47.2192105 C42.5626802,47.2192105 46.2744691,43.4784224 46.2744691,38.8799358 L46.2744691,29.14638 C46.2744691,24.5478934 42.5626802,20.8071053 38,20.8071053 Z" id="user-circle" fill="#000000" fill-rule="nonzero"></path>
    </g>
</svg>