<?xml version="1.0" encoding="UTF-8"?>
<svg width="70px" height="76px" viewBox="0 0 70 76" version="1.1" xmlns="http://www.w3.org/2000/svg" xmlns:xlink="http://www.w3.org/1999/xlink">
    <!-- Generator: Sketch 48.1 (47250) - http://www.bohemiancoding.com/sketch -->
    <title>user</title>
    <desc>Created with Sketch.</desc>
    <defs></defs>
    <g id="user---f007" stroke="none" stroke-width="1" fill="none" fill-rule="evenodd" transform="translate(-3.000000, 0.000000)">
        <path d="M9.33699846,65.9673784 C11.9614708,67.3638779 23.9555324,70 38.0620712,70 L38.2619324,70 C52.2362921,69.9728764 64.0798606,67.3565472 66.6613349,65.9769083 C66.5347296,52.4048383 62.7516992,49.0671676 51.7664988,46.0960323 C51.7012055,46.0784386 51.638301,46.0703748 51.5682301,46.0703748 C50.9160933,46.0703748 49.7702755,46.705947 48.558368,47.3781728 C46.1265906,48.7262897 42.7958358,50.5736278 37.9999629,50.5736278 C33.1308342,50.5736278 29.8550213,48.6720425 27.4630568,47.2843398 C26.3737734,46.6524329 25.2486583,46 24.6681849,46 C24.6172243,46 24.5726337,46.0058646 24.5232656,46.0175937 C11.7870899,49.3581966 9.4253833,53.9838724 9.33699846,65.9673784 Z M38.065,76 C30.4758333,76 22.1341667,75.2114263 15.1783333,73.8354456 C4.475,71.7175619 3,69.5634681 3,67.5509958 C3,52.6614363 5.92166667,44.7708711 22.5266667,40.2051901 C23.0208333,40.0683967 23.5325,40 24.0475,40 C26.0991667,40 27.8183333,41.0460672 29.6383333,42.1532891 C31.8458333,43.4970831 34.3483333,45.0203178 38,45.0203178 C41.6291667,45.0203178 44.2008333,43.5252464 46.47,42.2047878 C48.3508333,41.1112452 50.1275,40.077248 52.2,40.077248 C52.7491667,40.077248 53.2933333,40.1520821 53.8175,40.3017502 C70.1291667,44.9293905 73,52.7756991 73,67.5509958 C73,69.5626634 71.5408333,71.7159525 60.9541667,73.8257896 C54.0975,75.1921143 45.835,75.9839067 38.285,76 L38.065,76 Z M38,0 C29.7141667,0 23,6.76956 23,15.11832 L23,26.88168 C23,35.22876 29.7158333,42 38,42 C46.2858333,42 53,35.23044 53,26.88168 L53,15.11832 C53,6.77124 46.2841667,0 38,0 M38,6.02 C43.1755775,6.02 47.3859649,10.2632821 47.3859649,15.4794758 L47.3859649,26.5205242 C47.3859649,31.7367179 43.1755775,35.98 38,35.98 C32.8244225,35.98 28.6140351,31.7367179 28.6140351,26.5205242 L28.6140351,15.4794758 C28.6140351,10.2632821 32.8244225,6.02 38,6.02" id="user" fill="#000000" fill-rule="nonzero"></path>
    </g>
</svg>