<?xml version="1.0" encoding="UTF-8"?>
<svg width="70px" height="76px" viewBox="0 0 70 76" version="1.1" xmlns="http://www.w3.org/2000/svg" xmlns:xlink="http://www.w3.org/1999/xlink">
    <!-- Generator: Sketch 49.3 (51167) - http://www.bohemiancoding.com/sketch -->
    <title>user-md</title>
    <desc>Created with Sketch.</desc>
    <defs></defs>
    <g id="line" stroke="none" stroke-width="1" fill="none" fill-rule="evenodd">
        <g id="user-md---f0f0" transform="translate(-3.000000, 0.000000)" fill="#000000" fill-rule="nonzero">
            <path d="M38.0620712,70 L38.2619324,70 C52.2362921,69.9728764 64.0798606,67.3565472 66.6613349,65.9769083 C66.5347296,52.4048383 62.7516992,49.0671676 51.7664988,46.0960323 C51.7012055,46.0784386 51.638301,46.0703748 51.5682301,46.0703748 C50.9160933,46.0703748 49.7702755,46.705947 48.558368,47.3781728 C46.1265906,48.7262897 42.7958358,50.5736278 37.9999629,50.5736278 C33.1308342,50.5736278 29.8550213,48.6720425 27.4630568,47.2843398 C26.3737734,46.6524329 25.2486583,46 24.6681849,46 C11.7870899,49.3581966 9.4253833,53.9838724 9.33699846,65.9673784 C11.9614708,67.3638779 23.9555324,70 38.0620712,70 Z M38.065,76 C30.4758333,76 22.1341667,75.2114263 15.1783333,73.8354456 C4.475,71.7175619 3,69.5634681 3,67.5509958 C3,52.6614363 5.92166667,44.7708711 22.5266667,40.2051901 C23.0208333,40.0683967 23.5325,40 24.0475,40 C26.0991667,40 27.8183333,41.0460672 29.6383333,42.1532891 C31.8458333,43.4970831 34.3483333,45.0203178 38,45.0203178 C41.6291667,45.0203178 44.2008333,43.5252464 46.47,42.2047878 C48.3508333,41.1112452 50.1275,40.077248 52.2,40.077248 C52.7491667,40.077248 53.2933333,40.1520821 53.8175,40.3017502 C70.1291667,44.9293905 73,52.7756991 73,67.5509958 C73,69.5626634 71.5408333,71.7159525 60.9541667,73.8257896 C54.0975,75.1921143 45.835,75.9839067 38.285,76 L38.065,76 Z M23,10.3359375 L23,26.88168 C23,35.22876 29.7158333,42 38,42 C46.2858333,42 53,35.23044 53,26.88168 L53,10.3359375 C53,1.9888575 46.2841667,0 38,0 C29.7141667,0 23,1.9871775 23,10.3359375 Z M39,5 L41,5 L41,7 L39,7 L39,9 L37,9 L37,7 L35,7 L35,5 L37,5 L37,3 L39,3 L39,5 Z M47.3859649,13.78125 L47.3859649,24.0786133 C41.9553223,19.7724609 33.8730469,19.9233398 28.6140351,24.0786133 L28.6140351,13.78125 C33.0354004,10.3745117 43.0795898,10.293457 47.3859649,13.78125 Z M47.0879648,28.8379719 C46.0419555,32.9112862 42.3641054,35.98 38,35.98 C33.6174448,35.98 29.9269596,32.9374406 28.8989101,28.8379719 C28.7128848,28.096174 34.414808,25.5664164 38,25.5695801 C41.6127337,25.572768 47.2824622,28.0805702 47.0879648,28.8379719 Z" id="user-md"></path>
        </g>
    </g>
</svg>