<?xml version="1.0" encoding="UTF-8"?>
<svg width="76px" height="65px" viewBox="0 0 76 65" version="1.1" xmlns="http://www.w3.org/2000/svg" xmlns:xlink="http://www.w3.org/1999/xlink">
    <!-- Generator: Sketch 48.1 (47250) - http://www.bohemiancoding.com/sketch -->
    <title>users</title>
    <desc>Created with Sketch.</desc>
    <defs></defs>
    <g id="users---f0c0" stroke="none" stroke-width="1" fill="none" fill-rule="evenodd" transform="translate(0.000000, -6.000000)">
        <path d="M61.9183356,60.2713312 C61.8605309,59.0205457 61.7692691,57.8269331 61.6359355,56.6874696 C66.9998049,56.1838127 71.0696888,55.188517 72.1968009,54.586145 C72.1208377,46.442903 69.8510195,44.4403006 63.2598993,42.6576194 C63.2207233,42.6470631 63.1829806,42.6422249 63.1409381,42.6422249 C62.749656,42.6422249 62.0621653,43.0235682 61.3350208,43.4269037 C60.2837239,44.0097165 58.9523996,44.7480345 57.2139827,45.1151937 C56.2174405,43.9368397 55.0256421,42.8631397 53.6042686,41.8820467 C54.0377856,41.9647868 54.5010115,42.0121907 55,42.0121907 C57.1775,42.0121907 58.7205,41.1151479 60.082,40.3228727 C61.2105,39.6667471 62.2765,39.0463488 63.52,39.0463488 C63.8495,39.0463488 64.176,39.0912492 64.4905,39.1810501 C74.2775,41.9576343 76,46.6654194 76,55.5305975 C76,56.7375981 75.1245,58.0295715 68.7725,59.2954737 C66.6536455,59.7176969 64.3110432,60.0484793 61.9183356,60.2713312 Z M55,15 C59.9705,15 64,19.062744 64,24.070992 L64,31.129008 C64,36.138264 59.9715,40.2 55,40.2 C50.0295,40.2 46,36.137256 46,31.129008 L46,24.070992 C46,19.061736 50.0285,15 55,15 Z M55,18.612 C51.8946535,18.612 49.3684211,21.1579693 49.3684211,24.2876855 L49.3684211,30.9123145 C49.3684211,34.0420307 51.8946535,36.588 55,36.588 C58.1053465,36.588 60.6315789,34.0420307 60.6315789,30.9123145 L60.6315789,24.2876855 C60.6315789,21.1579693 58.1053465,18.612 55,18.612 Z M29.9766203,70.9714286 C23.4887387,70.9714286 16.3575545,70.297287 10.4111015,69.1209787 C1.26095865,67.3104269 0,65.4689197 0,63.7484829 C0,51.0195888 2.49769549,44.2740454 16.6930977,40.3709031 C17.1155545,40.2539602 17.5529718,40.1954887 17.9932387,40.1954887 C19.7471823,40.1954887 21.2168759,41.0897582 22.7727707,42.036308 C24.6599342,43.1851003 26.7992895,44.4872943 29.9210526,44.4872943 C33.0235808,44.4872943 35.2220658,43.2091768 37.1619474,42.0803336 C38.7698477,41.1454781 40.2886974,40.2615271 42.0604511,40.2615271 C42.5299267,40.2615271 42.9951278,40.3255017 43.4432312,40.4534511 C57.3878665,44.4095616 59.8421053,51.1172705 59.8421053,63.7484829 C59.8421053,65.4682318 58.5946823,67.3090511 49.5442763,69.1127239 C43.6825996,70.2807774 36.619094,70.9576706 30.1646955,70.9714286 L29.9766203,70.9714286 Z M5.41741898,62.3946686 C7.66104684,63.5885182 17.9146168,65.8421053 29.9741165,65.8421053 L30.1449753,65.8421053 C42.0914768,65.8189176 52.2163921,63.5822513 54.4232615,62.4028156 C54.3150282,50.8002264 51.0809639,47.9468944 41.6898565,45.4069088 C41.6340381,45.3918682 41.5802618,45.3849745 41.5203591,45.3849745 C40.9628557,45.3849745 39.9833107,45.9283171 38.9472665,46.5029944 C36.868371,47.6554823 34.0209513,49.234748 29.9210209,49.234748 C25.758465,49.234748 22.9580145,47.609107 20.9131546,46.4227777 C19.9819401,45.8825686 19.0200936,45.324812 18.5238543,45.324812 C18.4802887,45.324812 18.4421688,45.3298256 18.3999647,45.3398527 C7.51197084,48.1956914 5.49297805,52.1501225 5.41741898,62.3946686 Z M29.9210526,6 C37.0030808,6 42.7443609,11.7886465 42.7443609,18.9244585 L42.7443609,28.9808046 C42.7443609,36.1180528 37.0045056,41.9052632 29.9210526,41.9052632 C22.8390244,41.9052632 17.0977444,36.1166166 17.0977444,28.9808046 L17.0977444,18.9244585 C17.0977444,11.7872103 22.8375996,6 29.9210526,6 Z M29.9210526,11.1464211 C25.4965176,11.1464211 21.8971112,14.7739487 21.8971112,19.233206 L21.8971112,28.6720572 C21.8971112,33.1313145 25.4965176,36.7588421 29.9210526,36.7588421 C34.3455877,36.7588421 37.9449941,33.1313145 37.9449941,28.6720572 L37.9449941,19.233206 C37.9449941,14.7739487 34.3455877,11.1464211 29.9210526,11.1464211 Z" id="users" fill="#000000" fill-rule="nonzero"></path>
    </g>
</svg>