<?xml version="1.0" encoding="UTF-8"?>
<svg width="76px" height="76px" viewBox="0 0 76 76" version="1.1" xmlns="http://www.w3.org/2000/svg" xmlns:xlink="http://www.w3.org/1999/xlink">
    <!-- Generator: Sketch 48.1 (47250) - http://www.bohemiancoding.com/sketch -->
    <title>user-plus</title>
    <desc>Created with Sketch.</desc>
    <defs></defs>
    <g id="user-plus---f234" stroke="none" stroke-width="1" fill="none" fill-rule="evenodd">
        <path d="M57.5,39 C62.5746529,39 66.9266495,40.8146701 70.5559897,44.4440103 C74.1853299,48.0733505 76,52.4253471 76,57.5 C76,62.5746529 74.1853299,66.9266495 70.5559897,70.5559897 C66.9266495,74.1853299 62.5746529,76 57.5,76 C52.4253471,76 48.0733505,74.1853299 44.4440103,70.5559897 C40.8146701,66.9266495 39,62.5746529 39,57.5 C39,52.4253471 40.8146701,48.0733505 44.4440103,44.4440103 C48.0733505,40.8146701 52.4253471,39 57.5,39 Z M57.5,44 C53.7875,44 50.609375,45.321875 47.965625,47.965625 C45.321875,50.609375 44,53.7875 44,57.5 C44,61.2125 45.321875,64.390625 47.965625,67.034375 C50.609375,69.678125 53.7875,71 57.5,71 C61.2125,71 64.390625,69.678125 67.034375,67.034375 C69.678125,64.390625 71,61.2125 71,57.5 C71,53.7875 69.678125,50.609375 67.034375,47.965625 C64.390625,45.321875 61.2125,44 57.5,44 Z M55,55 L55,49 L60,49 L60,55 L66,55 L66,60 L60,60 L60,66 L55,66 L55,60 L49,60 L49,55 L55,55 Z M40.4350071,69.8737789 C40.968446,70.5417868 41.5500061,71.1906314 42.1796874,71.8203126 C43.6379498,73.2785751 45.1989903,74.4787505 46.8628087,75.4208389 C43.001692,75.7905656 39.0545409,75.991965 35.285,76 L35.065,76 C27.4758333,76 19.1341667,75.2114263 12.1783333,73.8354456 C1.475,71.7175619 0,69.5634681 0,67.5509958 C0,52.6614363 2.92166667,44.7708711 19.5266667,40.2051901 C20.0208333,40.0683967 20.5325,40 21.0475,40 C23.0991667,40 24.8183333,41.0460672 26.6383333,42.1532891 C28.8458333,43.4970831 31.3483333,45.0203178 35,45.0203178 C37.3104398,45.0203178 39.1922759,44.414367 40.8403179,43.6332869 C39.0758926,45.7182253 37.7938525,47.9952641 36.9941975,50.4644031 C36.359067,50.5348398 35.6948963,50.5736278 34.9999629,50.5736278 C30.1308342,50.5736278 26.8550213,48.6720425 24.4630568,47.2843398 C23.3737734,46.6524329 22.2486583,46 21.6681849,46 C21.6172243,46 21.5726337,46.0058646 21.5232656,46.0175937 C8.7870899,49.3581966 6.4253833,53.9838724 6.33699846,65.9673784 C8.9614708,67.3638779 20.9555324,70 35.0620712,70 L35.2619324,70 C37.0249803,69.996578 38.7541121,69.9519433 40.4350071,69.8737789 Z M35,0 C43.2841667,0 50,6.77124 50,15.11832 L50,26.88168 C50,35.23044 43.2858333,42 35,42 C26.7158333,42 20,35.22876 20,26.88168 L20,15.11832 C20,6.76956 26.7141667,0 35,0 Z M35,6.02 C29.8244225,6.02 25.6140351,10.2632821 25.6140351,15.4794758 L25.6140351,26.5205242 C25.6140351,31.7367179 29.8244225,35.98 35,35.98 C40.1755775,35.98 44.3859649,31.7367179 44.3859649,26.5205242 L44.3859649,15.4794758 C44.3859649,10.2632821 40.1755775,6.02 35,6.02 Z" id="user-plus" fill="#000000" fill-rule="nonzero"></path>
    </g>
</svg>