<?xml version="1.0" encoding="UTF-8"?>
<svg width="76px" height="76px" viewBox="0 0 76 76" version="1.1" xmlns="http://www.w3.org/2000/svg" xmlns:xlink="http://www.w3.org/1999/xlink">
    <!-- Generator: Sketch 48.1 (47250) - http://www.bohemiancoding.com/sketch -->
    <title>user-secret</title>
    <desc>Created with Sketch.</desc>
    <defs></defs>
    <g id="user-secret---f21b" stroke="none" stroke-width="1" fill="none" fill-rule="evenodd">
        <path d="M28.9797975,0 C30.2592594,0 31.8585862,0.263888889 33.7777778,0.791666667 C35.6969694,1.31944444 37.1043768,1.58333333 38,1.58333333 C39.1515148,1.58333333 40.6228955,1.31944444 42.4141419,0.791666667 C44.7171716,0.263888889 46.2525251,0 47.0202025,0 C49.4511786,0 51.6902357,1.05555556 53.7373737,3.16666667 C55.016835,4.61805589 56.2962963,6.79513906 57.5757576,9.69791616 C58.7272731,12.6006946 60.0067343,16.6909727 61.4141414,21.9687505 C64.8686865,23.0243061 67.6835014,24.2777781 69.8585859,25.7291667 C73.1851852,27.8402778 74.8484848,30.3472222 74.8484848,33.25 C74.8484848,35.7569448 73.5690236,38.0000003 71.010101,39.9791667 C69.2188552,41.4305552 66.9797978,42.6180552 64.2929288,43.5416667 C64.164983,44.3333333 63.973064,45.125 63.7171717,45.9166667 C67.6835014,48.1597219 71.2020197,51.458333 74.2727268,55.8125 C74.8484845,56.7361111 75.5681817,57.890625 76,58.5833333 C75.3762625,59.0286457 74.1287875,59.9192705 73.50505,60.3645828 C70.9621208,62.1458328 65.8762625,65.7083328 63.3333333,67.4895828 C63.8131313,68.4791662 64.7727273,70.4583328 65.2525253,71.4479162 C65.8282828,72.5859371 66.979798,74.861979 67.5555556,76 C66.3080808,76 63.8131313,76 62.5656566,76 C50.2828283,76 25.7171717,76 13.4343434,76 C12.1868687,76 9.69191919,76 8.44444444,76 C9.02020202,74.861979 10.1717172,72.5859371 10.7474747,71.4479162 C11.2272727,70.4583328 12.1868687,68.4791662 12.6666667,67.4895828 C10.1237375,65.7083328 5.03787916,62.1458328 2.49494999,60.3645828 C1.87121249,59.9192705 0.623737497,59.0286457 0,58.5833333 C0.431818305,57.890625 1.29545491,56.5052083 1.72727322,55.8125 C4.79798029,51.458333 8.31649864,48.1597219 12.2828283,45.9166667 C12.026936,45.125 11.835017,44.3333333 11.7070712,43.5416667 C9.02020218,42.6180552 6.78114478,41.4305552 4.98989899,39.9791667 C2.43097643,38.0000003 1.15151515,35.7569448 1.15151515,33.25 C1.15151515,30.3472222 2.81481481,27.8402778 6.14141414,25.7291667 C8.31649864,24.2777781 11.1313135,23.0243061 14.5858586,21.9687505 C15.8653199,16.6909727 17.1447811,12.666667 18.4242424,9.89583333 C19.5757579,6.99305556 20.8552192,4.75 22.2626263,3.16666667 C24.1818179,1.05555556 26.4208749,0 28.9797975,0 Z M29.492146,6 C28.8464221,6 28.1361255,6.39285714 27.3612564,7.17857143 C26.3280976,8.22619048 25.3595114,9.86309541 24.4554978,12.0892862 C23.2931938,14.7083338 22.0017453,18.7023813 20.5811523,24.0714286 C20.5811523,24.1369046 20.5811523,24.2187496 20.5811523,24.2678566 C20.5811523,24.7916662 20.4520071,25.2499997 20.1937168,25.6428571 C20.1937168,25.6428571 20.1291445,25.6428571 20,25.6428571 C20,25.7083332 20,25.7901782 20,25.8392852 C20.0484292,25.8392852 20.1452876,25.8392852 20.1937168,25.8392852 C20.1452876,25.8883925 20.0484292,25.986607 20,26.0357143 C20.0484292,26.0357143 20.1452876,26.0357143 20.1937168,26.0357143 C20.322862,26.0357143 20.3874345,26.0357143 20.3874345,26.0357143 C21.4205933,26.5595238 22.905759,26.952381 24.8429314,27.2142857 C27.8132633,27.7380952 32.3979056,28 38.5968584,28 C45.1832461,28 49.7678884,27.8035713 52.3507854,27.4107138 C54.1588126,27.1488097 55.6439782,26.6904765 56.8062822,26.0357143 C56.8708548,26.0357143 56.9515706,26.0357143 57,26.0357143 C54.8045372,18.1785714 53.3193713,13.4642857 52.5445022,11.8928571 C51.7696331,9.79761905 50.8656191,8.22619048 49.8324603,7.17857143 C49.0575912,6.39285714 48.3472947,6 47.7015708,6 C47.4432804,6 46.4101216,6.26190476 44.6020944,6.78571429 C42.2774864,7.30952381 40.2757411,7.57142857 38.5968584,7.57142857 C37.1762647,7.57142857 35.7879575,7.44047619 34.4319367,7.17857143 C33.075916,6.91666667 31.9458985,6.6547619 31.0418842,6.39285714 C30.1378706,6.13095238 29.6212912,6 29.492146,6 Z M13.6718755,29 C11.7656252,29.6451616 10.1770833,30.3548389 8.90625,31.1290318 C7.63541667,32.0322579 7,32.7419355 7,33.2580645 C7,33.6451616 7.50833333,34.2258066 8.525,34.9999995 C9.92291699,36.1612902 11.9562503,37.1290323 14.625,37.9032258 C20.852083,39.9677419 28.477083,41 37.5,41 C46.522917,41 54.147917,39.9677419 60.375,37.9032258 C63.0437497,37.1290323 65.077083,36.1612902 66.475,34.9999995 C67.4916667,34.2258066 68,33.6451616 68,33.2580645 C68,32.7419355 67.3010415,31.9677419 65.9031245,30.9354839 C64.7593748,30.2903229 63.2343748,29.6451616 61.3281245,29 C60.6927082,30.4193545 59.6125,31.5161289 58.0875,32.2903231 C56.689583,33.064516 54.6562497,33.645161 51.9875,34.0322581 C48.9375,34.5483871 44.1083333,34.8064516 37.5,34.8064516 C31.1458333,34.8064516 26.3166667,34.5483871 23.0125,34.0322581 C20.3437503,33.645161 18.310417,32.9999997 16.9125,32.0967742 C15.3875,31.3225806 14.3072918,30.2903226 13.6718755,29 Z M22,47 C22.0952381,47.4854371 22.2857143,48.4563114 22.3809524,48.9417485 C23.3968254,54.1197419 25.4285714,58.4563112 28.4761905,61.9514564 C31.2698413,65.3171521 34.4444444,67 38,67 C41.5555556,67 44.7301587,65.3171521 47.5238095,61.9514564 C50.5714286,58.4563112 52.6031746,54.1197419 53.6190476,48.9417485 C53.7460317,48.294499 53.9047619,47.4854371 54,47 C53.6190473,47 53.1111108,47.0970875 52.4761905,47.2912624 C51.8412702,47.4854373 51.3333337,47.5825248 50.952381,47.5825248 C50.6984127,49.0064733 50.0634921,50.2362469 49.047619,51.2718455 C48.031746,52.3074442 46.6984125,52.8899683 45.0476186,53.0194178 C43.6507935,53.0194178 42.3809524,52.6634307 41.2380952,51.9514564 C40.0952381,51.2394822 39.4603176,50.0420713 39.3333338,48.3592238 C39.1428575,48.3592238 38.904762,48.3592238 38.7619048,48.3592238 C38.5714286,48.3592238 38.1904762,48.3592238 38,48.3592238 C37.8095238,48.3592238 37.4285714,48.3592238 37.2380952,48.3592238 C37.095238,48.3592238 36.8095234,48.3592238 36.6666662,48.3592238 C36.5396824,50.0420713 35.9047619,51.2394822 34.7619048,51.9514564 C33.6190476,52.6634307 32.3492065,53.0194178 30.9523814,53.0194178 C29.3015875,52.8899683 27.968254,52.3074442 26.952381,51.2718455 C25.9365079,50.2362469 25.3015873,49.0064733 25.047619,47.5825248 C24.6666663,47.5825248 24.1587298,47.4854373 23.5238095,47.2912624 C22.8888892,47.0970875 22.3809527,47 22,47 Z M59.4,51 C59.4,51 59.3683334,51.032986 59.3050002,51.0989581 C59.2416671,51.1649301 59.146667,51.1979162 59.02,51.1979162 C57.7533333,57.2673613 55.4733333,62.2152781 52.18,66.0416667 C50.9133333,67.625 49.52,68.9444444 48,70 C51.1666667,70 55.125,70 57.5,70 C57.31,69.5546876 56.93,68.6640629 56.74,68.2187505 C56.455,67.5755212 55.885,66.2890626 55.6,65.6458333 C56.1225001,65.2994793 57.1675004,64.6067712 57.6900005,64.2604172 C60.0175004,62.6276045 64.6725001,59.3619793 67,57.7291667 C64.3400003,54.6944448 61.806667,52.4513892 59.4,51 Z M16.8431373,51 C14.2287582,52.7152774 11.6143791,54.958333 9,57.7291667 C12.2026142,59.9062502 16.205882,62.6276045 18.6078426,64.2604172 C19.1470584,64.6067712 20.2254901,65.2994793 20.7647059,65.6458333 C20.4705882,66.2890626 19.8823529,67.5755212 19.5882353,68.2187505 C19.3921569,68.6640629 19,69.5546876 18.8039216,70 C21.3529412,70 26.4509804,70 29,70 C27.1699346,68.8125003 25.6013072,67.4270838 24.2941176,65.8437505 C21.0261435,62.1493061 18.6732023,57.3333337 17.2352941,51.3958333 C17.1045748,51.2638886 17.0065355,51.1979162 16.9411762,51.1979162 C16.8758169,51.1979162 16.8431373,51.1319441 16.8431373,51 Z" id="user-secret" fill="#000000" fill-rule="nonzero"></path>
    </g>
</svg>