<?xml version="1.0" encoding="UTF-8"?>
<svg width="47px" height="76px" viewBox="0 0 47 76" version="1.1" xmlns="http://www.w3.org/2000/svg" xmlns:xlink="http://www.w3.org/1999/xlink">
    <!-- Generator: Sketch 48.1 (47250) - http://www.bohemiancoding.com/sketch -->
    <title>venus</title>
    <desc>Created with Sketch.</desc>
    <defs></defs>
    <g id="venus---f221" stroke="none" stroke-width="1" fill="none" fill-rule="evenodd" transform="translate(-13.000000, 0.000000)">
        <path d="M36.2990218,0 C42.7305223,0 48.2215677,2.27529517 52.7721581,6.82588552 C57.3227484,11.3764759 59.5980436,16.8675213 59.5980436,23.2990218 C59.5980436,29.1237772 57.6261212,34.2507754 53.6822766,38.6800164 C49.7384319,43.1092574 44.9148062,45.6879254 39.2113995,46.4160204 C39.2113995,49.0452502 39.2113995,52.9890949 39.2113995,58.2475545 L50.8609104,58.2475545 L50.8609104,64.0723099 L39.2113995,64.0723099 L39.2113995,75.7218208 L33.3866441,75.7218208 L33.3866441,64.0723099 L21.7371332,64.0723099 L21.7371332,58.2475545 L33.3866441,58.2475545 C33.3866441,52.3317875 33.3866441,48.3879428 33.3866441,46.4160204 C27.6832374,45.6879254 22.8596117,43.1092574 18.915767,38.6800164 C14.9719223,34.2507754 13,29.1237772 13,23.2990218 C13,16.8675213 15.2449577,11.4068131 19.734873,6.91689709 C24.3461384,2.30563236 29.8675213,0 36.2990218,0 Z M36.2990218,5.82475545 C31.4450589,5.82475545 27.3191905,7.52364245 23.9214165,10.9214165 C20.5236425,14.3191905 18.8247554,18.4450589 18.8247554,23.2990218 C18.8247554,28.1529847 20.5236425,32.2788531 23.9214165,35.6766271 C27.3191905,39.0744011 31.4450589,40.7732881 36.2990218,40.7732881 C41.1529847,40.7732881 45.2788531,39.0744011 48.6766271,35.6766271 C52.0744011,32.2788531 53.7732881,28.1529847 53.7732881,23.2990218 C53.7732881,18.4450589 52.0744011,14.3191905 48.6766271,10.9214165 C45.2788531,7.52364245 41.1529847,5.82475545 36.2990218,5.82475545 Z" id="venus" fill="#000000" fill-rule="nonzero"></path>
    </g>
</svg>