<?xml version="1.0" encoding="UTF-8"?>
<svg width="76px" height="76px" viewBox="0 0 76 76" version="1.1" xmlns="http://www.w3.org/2000/svg" xmlns:xlink="http://www.w3.org/1999/xlink">
    <!-- Generator: Sketch 48.1 (47250) - http://www.bohemiancoding.com/sketch -->
    <title>venus-mars</title>
    <desc>Created with Sketch.</desc>
    <defs></defs>
    <g id="venus-mars---f228" stroke="none" stroke-width="1" fill="none" fill-rule="evenodd">
        <path d="M55.3398058,0 L76,0 L76,20.6601942 L70.0970874,20.6601942 L70.0970874,10.1456315 C65.1165049,15.1262136 61.7961165,18.4466016 60.1359223,20.1067956 C62.8414239,23.7961167 64.1941748,27.9158579 64.1941748,32.4660194 C64.1941748,38.1229773 62.1650487,42.9805827 58.1067966,47.0388354 C57.3689319,47.7766989 56.8155337,48.3300968 56.4466019,48.6990291 C56.6925566,47.223301 56.815534,45.7475728 56.815534,44.2718447 C56.815534,42.7961165 56.6925566,41.197411 56.4466019,39.4757282 C57.6763754,37.2621359 58.2912621,34.9255663 58.2912621,32.4660194 C58.2912621,28.4077673 56.8462782,24.9336574 53.9563104,22.0436896 C51.0663426,19.1537218 47.5922327,17.7087379 43.5339806,17.7087379 C39.4757285,17.7087379 36.0016185,19.1537218 33.1116507,22.0436896 C30.2216829,24.9336574 28.776699,28.4077673 28.776699,32.4660194 C28.776699,36.5242715 30.2524272,39.9676372 33.2038835,42.7961165 C35.5404534,45.2556634 38.3689324,46.6699031 41.6893204,47.0388354 C41.0744333,48.8834953 40.2135919,50.420712 39.1067961,51.6504854 C38.8608414,51.7734625 38.4919094,52.0194172 38,52.3883495 C34.5566343,51.4045307 31.5436892,49.6213594 28.9611646,47.0388354 C24.9029125,42.9805827 22.8737864,38.1229773 22.8737864,32.4660194 C22.8737864,26.8090615 24.9029125,21.9514562 28.9611646,17.8932034 C33.0194173,13.8349513 37.8770227,11.8058252 43.5339806,11.8058252 C48.0841421,11.8058252 52.2038833,13.1585761 55.8932044,15.8640777 C58.1067964,13.6504854 61.4271844,10.3300971 65.8543685,5.90291262 L55.3398058,5.90291262 L55.3398058,0 Z M37.2621359,24.3495146 C40.7055016,25.3333333 43.7184468,27.1165047 46.3009713,29.6990287 C50.3592235,33.7572814 52.3883495,38.6148867 52.3883495,44.2718447 C52.3883495,49.9288026 50.3592235,54.7864079 46.3009713,58.8446607 C42.2427186,62.9029128 37.3851133,64.9320388 31.7281553,64.9320388 C27.1779938,64.9320388 23.0582526,63.579288 19.3689316,60.8737864 C17.7087375,62.4724919 15.633495,64.4708738 14.3883495,65.6699029 C15.3721683,66.6537217 17.3398058,68.6213592 20.2912621,71.5728155 L16.2330097,76 L10.3300971,70.0970874 L4.42718447,76 L0,71.5728155 L5.90291262,65.6699029 L0,59.7669903 L4.42718447,55.7087379 L10.3300971,61.6116505 C12.7281553,59.1213595 14.3268608,57.4611654 15.1262136,56.6310684 C12.420712,52.9417474 11.0679612,48.8220062 11.0679612,44.2718447 C11.0679612,38.6148867 13.0970872,33.7572814 17.1553393,29.6990287 C17.893204,28.9611652 18.4466023,28.4077673 18.815534,28.038835 C18.5695793,29.5145631 18.4466019,30.9902913 18.4466019,32.4660194 C18.4466019,33.9417476 18.5695793,35.5404531 18.815534,37.2621359 C17.5857605,39.4757282 16.9708738,41.8122977 16.9708738,44.2718447 C16.9708738,48.3300968 18.4158577,51.8042067 21.3058255,54.6941745 C24.1957933,57.5841423 27.6699032,59.0291262 31.7281553,59.0291262 C35.7864075,59.0291262 39.2605174,57.5841423 42.1504852,54.6941745 C45.040453,51.8042067 46.4854369,48.3300968 46.4854369,44.2718447 C46.4854369,40.2135925 45.0097087,36.7702269 42.0582524,33.9417476 C39.7216825,31.4822006 36.8932036,30.067961 33.5728155,29.6990287 C34.1877026,27.8543688 35.048544,26.3171521 36.1553398,25.0873786 C36.4012945,24.9644016 36.7702265,24.7184469 37.2621359,24.3495146 Z" id="venus-mars" fill="#000000" fill-rule="nonzero"></path>
    </g>
</svg>