<?xml version="1.0" encoding="UTF-8"?>
<svg width="76px" height="76px" viewBox="0 0 76 76" version="1.1" xmlns="http://www.w3.org/2000/svg" xmlns:xlink="http://www.w3.org/1999/xlink">
    <!-- Generator: Sketch 48.1 (47250) - http://www.bohemiancoding.com/sketch -->
    <title>venus-double</title>
    <desc>Created with Sketch.</desc>
    <defs></defs>
    <g id="venus-double---f226" stroke="none" stroke-width="1" fill="none" fill-rule="evenodd">
        <path d="M23.3846154,0 C29.8397433,0 35.3509611,2.28365392 39.918269,6.85096177 C44.4855768,11.4182696 46.7692308,16.9294875 46.7692308,23.3846154 C46.7692308,27.525641 45.7948718,31.3621796 43.8461538,34.8942312 C42.0192305,33.5544873 40.6185893,31.9102564 39.6442303,29.9615385 C40.4967947,27.891026 40.9230769,25.6987183 40.9230769,23.3846154 C40.9230769,18.5128205 39.2179487,14.3717949 35.8076923,10.9615385 C32.3974359,7.55128205 28.2564103,5.84615385 23.3846154,5.84615385 C18.5128205,5.84615385 14.3717949,7.55128205 10.9615385,10.9615385 C7.55128205,14.3717949 5.84615385,18.5128205 5.84615385,23.3846154 C5.84615385,28.2564103 7.55128205,32.3974359 10.9615385,35.8076923 C14.3717949,39.2179487 18.5128205,40.9230769 23.3846154,40.9230769 C26.1858977,40.9230769 28.8653849,40.253205 31.4230769,38.9134611 C32.5192305,40.4967947 33.858974,41.9583332 35.4423077,43.2980765 C32.7628205,45.0032053 29.7179487,46.0384619 26.3076923,46.4038462 C26.3076923,49.0833333 26.3076923,53.1025641 26.3076923,58.4615385 L38,58.4615385 L49.6923077,58.4615385 C49.6923077,52.5240387 49.6923077,48.5657055 49.6923077,46.5865389 C43.8461538,45.8557691 38.974359,43.2980765 35.0769231,38.9134611 C31.1794872,34.5288457 29.2307692,29.3525638 29.2307692,23.3846154 C29.2307692,19.2435897 30.2051282,15.4070511 32.1538462,11.8749995 C33.9807695,13.2147434 35.3814107,14.8589744 36.3557697,16.8076923 C35.5032053,18.8782048 35.0769231,21.0705125 35.0769231,23.3846154 C35.0769231,28.2564103 36.7820513,32.3974359 40.1923077,35.8076923 C43.6025641,39.2179487 47.7435897,40.9230769 52.6153846,40.9230769 C57.4871795,40.9230769 61.6282051,39.2179487 65.0384615,35.8076923 C68.4487179,32.3974359 70.1538462,28.2564103 70.1538462,23.3846154 C70.1538462,18.5128205 68.4487179,14.3717949 65.0384615,10.9615385 C61.6282051,7.55128205 57.4871795,5.84615385 52.6153846,5.84615385 C49.8141023,5.84615385 47.1346151,6.5160258 44.5769231,7.8557697 C43.4807695,6.27243605 42.141026,4.81089759 40.5576923,3.47115431 C44.333333,1.15705144 48.3525638,0 52.6153846,0 C59.0705125,0 64.5817304,2.28365392 69.1490382,6.85096177 C73.7163461,11.4182696 76,16.9294875 76,23.3846154 C76,29.3525638 74.0512821,34.5288457 70.1538462,38.9134611 C66.2564103,43.2980765 61.3846154,45.8557691 55.5384615,46.5865389 C55.5384615,49.2254277 55.5384615,53.1837609 55.5384615,58.4615385 L67.2307692,58.4615385 L67.2307692,64.3076923 L55.5384615,64.3076923 L55.5384615,76 L49.6923077,76 L49.6923077,64.3076923 L38,64.3076923 L26.3076923,64.3076923 L26.3076923,76 L20.4615385,76 L20.4615385,64.3076923 L8.76923077,64.3076923 L8.76923077,58.4615385 L20.4615385,58.4615385 C20.4615385,52.5240387 20.4615385,48.5657055 20.4615385,46.5865389 C14.6153846,45.8557691 9.74358974,43.2980765 5.84615385,38.9134611 C1.94871795,34.5288457 0,29.3525638 0,23.3846154 C0,16.9294875 2.25320497,11.4487183 6.75961492,6.94230769 C11.3878207,2.31410256 16.9294875,0 23.3846154,0 Z" id="venus-double" fill="#000000" fill-rule="nonzero"></path>
    </g>
</svg>