<?xml version="1.0" encoding="UTF-8"?>
<svg width="76px" height="76px" viewBox="0 0 76 76" version="1.1" xmlns="http://www.w3.org/2000/svg" xmlns:xlink="http://www.w3.org/1999/xlink">
    <!-- Generator: Sketch 48.1 (47250) - http://www.bohemiancoding.com/sketch -->
    <title>volume-up</title>
    <desc>Created with Sketch.</desc>
    <defs></defs>
    <g id="volume-up---f028" stroke="none" stroke-width="1" fill="none" fill-rule="evenodd">
        <path d="M36,0 L36,76 L15,54 L0,54 L0,22 L15,22 L36,0 Z M30,15 L17.956044,27.978022 L6,27.978022 L6,48.021978 L17.956044,48.021978 L30,61 L30,15 Z M64.0336058,8 C72.0112019,16.463542 76,26.4895837 76,38.078125 C76,49.6666663 72.0112019,59.692708 64.0336058,68.15625 C62.6182259,66.7239583 60.8490009,64.9335938 59.7874659,63.859375 C66.478353,56.5677083 69.8237965,47.9739583 69.8237965,38.078125 C69.8237965,28.1822917 66.478353,19.5885417 59.7874659,12.296875 C61.2028459,10.8645833 62.9720708,9.07421875 64.0336058,8 Z M55.3328787,17 C60.865728,22.9895827 63.6321526,30.0859367 63.6321526,38.289062 C63.6321526,46.4921873 60.865728,53.5885413 55.3328787,59.578124 C53.8531635,58.0807283 52.0035194,56.2089838 50.893733,55.085937 C55.2685437,50.2682283 57.4559491,44.66927 57.4559491,38.289062 C57.4559491,31.908854 55.2685437,26.3098957 50.893733,21.492187 C52.3734482,19.9947913 54.2230923,18.1230468 55.3328787,17 Z M46.4391467,26 C49.5272485,29.6458333 51.0712993,33.8125 51.0712993,38.5 C51.0712993,43.1875 49.5272485,47.3541667 46.4391467,51 C44.9594311,49.4375 43.1097867,47.484375 42,46.3125 C43.9300639,43.96875 44.8950959,41.3645833 44.8950959,38.5 C44.8950959,35.6354167 43.9300639,33.03125 42,30.6875 C43.4797156,29.125 45.32936,27.171875 46.4391467,26 Z" id="volume-up" fill="#000000" fill-rule="nonzero"></path>
    </g>
</svg>