<?xml version="1.0" encoding="UTF-8"?>
<svg width="52px" height="76px" viewBox="0 0 52 76" version="1.1" xmlns="http://www.w3.org/2000/svg" xmlns:xlink="http://www.w3.org/1999/xlink">
    <!-- Generator: Sketch 48.1 (47250) - http://www.bohemiancoding.com/sketch -->
    <title>volume-down</title>
    <desc>Created with Sketch.</desc>
    <defs></defs>
    <g id="volume-down---f027" stroke="none" stroke-width="1" fill="none" fill-rule="evenodd">
        <path d="M36,0 L36,76 L15,54 L0,54 L0,22 L15,22 L36,0 Z M30,15 L17.956044,27.978022 L6,27.978022 L6,48.021978 L17.956044,48.021978 L30,61 L30,15 Z M46.4391467,26 C49.5272485,29.6458333 51.0712993,33.8125 51.0712993,38.5 C51.0712993,43.1875 49.5272485,47.3541667 46.4391467,51 C44.9594311,49.4375 43.1097867,47.484375 42,46.3125 C43.9300639,43.96875 44.8950959,41.3645833 44.8950959,38.5 C44.8950959,35.6354167 43.9300639,33.03125 42,30.6875 C43.4797156,29.125 45.32936,27.171875 46.4391467,26 Z" id="volume-down" fill="#000000" fill-rule="nonzero"></path>
    </g>
</svg>