<?xml version="1.0" encoding="UTF-8"?>
<svg width="69px" height="70px" viewBox="0 0 69 70" version="1.1" xmlns="http://www.w3.org/2000/svg" xmlns:xlink="http://www.w3.org/1999/xlink">
    <!-- Generator: Sketch 48.1 (47250) - http://www.bohemiancoding.com/sketch -->
    <title>volume-control-phone</title>
    <desc>Created with Sketch.</desc>
    <defs></defs>
    <g id="volume-control-phone---f2a0" stroke="none" stroke-width="1" fill="none" fill-rule="evenodd" transform="translate(-4.000000, -3.000000)">
        <path d="M35.6894531,59.5722656 L43.9609375,51.4082031 L59,58.2832031 L59,73 C28.6235,73 4,48.377875 4,18 L18.7167969,18 L25.5917969,33.0390625 L17.4277344,41.3105469 C21.700375,48.941625 28.05975,55.299625 35.6894531,59.5722656 Z M36.3965436,3 C46.4585339,3.2275228 55.015185,6.71620277 62.0665,13.4660399 C69.117815,20.2158771 72.762315,28.3876403 73,38.0194308 L67.8855038,38.0194308 C67.5685908,29.828617 64.2848913,22.8703077 58.2635435,17.1064016 C52.2421957,11.3424956 44.9531968,8.41785967 36.3965446,8.1144962 L36.3965436,3 Z M36.3965446,13.2289924 C43.4478596,13.4565144 49.5880485,16.1007512 54.5794291,20.8787262 C59.5708097,25.6567011 62.1071154,31.2695937 62.3447996,38.0194308 L56.8040954,38.0194308 C56.5664104,32.6347289 54.6586571,28.2352903 50.7764726,24.5190879 C46.894288,20.8028855 42.0217513,18.9972194 36.3965446,18.7696966 L36.3965446,13.2289924 Z M36.3965436,23.4579848 C40.5164131,23.7613483 44.0024566,25.2781656 46.854674,28.0084369 C49.7068914,30.7387082 51.2914566,34.0757064 51.6083696,38.0194316 L46.148895,38.0194308 C45.9112104,35.516682 44.7947392,33.3172978 43.0517175,31.6487986 C41.3086957,29.9802995 39.0110774,29.2262114 36.3965446,28.998689 L36.3965436,23.4579848 Z" id="volume-control-phone" fill="#000000"></path>
    </g>
</svg>