<?xml version="1.0" encoding="UTF-8"?>
<svg width="57px" height="76px" viewBox="0 0 57 76" version="1.1" xmlns="http://www.w3.org/2000/svg" xmlns:xlink="http://www.w3.org/1999/xlink">
    <!-- Generator: Sketch 48.1 (47250) - http://www.bohemiancoding.com/sketch -->
    <title>wheelchair</title>
    <desc>Created with Sketch.</desc>
    <defs></defs>
    <g id="wheelchair---f193" stroke="none" stroke-width="1" fill="none" fill-rule="evenodd" transform="translate(-10.000000, 0.000000)">
        <path d="M52.56,0 C55.0933333,0 57.2466667,0.886666667 59.02,2.66 C60.7933333,4.43333333 61.68,6.58666667 61.68,9.12 C61.68,11.6533333 60.7933333,13.8066667 59.02,15.58 C57.2466667,17.3533333 55.0933333,18.24 52.56,18.24 C50.0266667,18.24 47.8733333,17.3533333 46.1,15.58 C44.3266667,13.8066667 43.44,11.6533333 43.44,9.12 C43.44,6.58666667 44.3266667,4.43333333 46.1,2.66 C47.8733333,0.886666667 50.0266667,0 52.56,0 Z M52.56,6.08 C50.5333333,6.08 49.52,7.09333333 49.52,9.12 C49.52,11.1466667 50.5333333,12.16 52.56,12.16 C54.5866667,12.16 55.6,11.1466667 55.6,9.12 C55.6,7.09333333 54.5866667,6.08 52.56,6.08 Z M35.84,14.44 C37.1066667,14.3133337 38.3733333,14.566667 39.64,15.2 C41.2866667,16.1500002 43.345,17.3375004 44.58,18.0500005 C46.6066667,19.0633338 48.0316667,20.646667 48.8550002,22.8 C49.6783337,24.953333 49.7100002,27.1066663 48.9499995,29.26 C47.7466663,32.4899998 46.2424999,36.5274996 45.34,38.9499995 C47.62,40.8499998 49.3299998,43.0666667 50.4699995,45.6 C52.3699998,45.6 54.7450002,45.6 56.1700005,45.6 C57.5633335,45.6 58.83,46.0433333 59.97,46.93 C61.11,47.8166667 61.8066667,48.9566665 62.06,50.3499995 C63.4533333,56.493333 65.195,64.1724999 66.24,68.78 C64.72,69.16 61.68,69.92 60.16,70.3 C59.1625001,65.645 57.1675004,56.335 56.1700005,51.68 C55.1725004,51.68 53.1775001,51.68 52.18,51.68 C52.4333333,52.9466667 52.56,53.96 52.56,54.72 C52.56,60.5466667 50.47,65.55 46.29,69.73 C42.11,73.91 37.1066667,76 31.28,76 C25.4533333,76 20.45,73.91 16.27,69.73 C12.09,65.55 10,60.5466667 10,54.72 C10,49.4 11.7416667,44.7450001 15.2250002,40.7550002 C18.7083337,36.7650004 23.046667,34.4533337 28.24,33.82 C29.76,29.5766668 31.66,24.2725004 32.8,21.0900005 C31.0425001,21.2800005 27.5275004,21.6600005 25.7700005,21.8500005 C23.8700005,24.7475004 20.0700005,30.5425001 18.1700005,33.44 C16.8875004,32.68 14.3225001,31.16 13.04,30.4 C14.94,27.455 18.74,21.565 20.64,18.62 C21.6533333,16.973333 23.1100002,16.0233332 25.0100005,15.7700005 C28.6200003,15.326667 33.1325001,14.7725001 35.84,14.44 Z M38.88,21.8500005 C37.835,24.8425004 35.745,30.8275001 34.7,33.82 C36.5999997,34.0733333 38.4366665,34.58 40.2100005,35.34 C41.2233338,32.5533333 42.4900005,29.07 43.2500005,26.98 C43.8833335,25.46 43.44,24.2566668 41.92,23.3700005 C40.9066667,22.8633338 39.64,22.2300005 38.88,21.8500005 Z M31.28,39.52 C27.1000003,39.52 23.5216671,41.0083334 20.5450002,43.9850002 C17.5683334,46.9616671 16.08,50.5400003 16.08,54.72 C16.08,58.8999997 17.5683334,62.4783329 20.5450002,65.4549998 C23.5216671,68.4316666 27.1000003,69.92 31.28,69.92 C35.4599997,69.92 39.0383329,68.4316666 42.0149998,65.4549998 C44.9916666,62.4783329 46.48,58.8999997 46.48,54.72 C46.48,50.5400003 44.9916666,46.9616671 42.0149998,43.9850002 C39.0383329,41.0083334 35.4599997,39.52 31.28,39.52 Z" id="wheelchair" fill="#000000" fill-rule="nonzero"></path>
    </g>
</svg>