<?xml version="1.0" encoding="UTF-8"?>
<svg width="76px" height="54px" viewBox="0 0 76 54" version="1.1" xmlns="http://www.w3.org/2000/svg" xmlns:xlink="http://www.w3.org/1999/xlink">
    <!-- Generator: Sketch 48.1 (47250) - http://www.bohemiancoding.com/sketch -->
    <title>wifi</title>
    <desc>Created with Sketch.</desc>
    <defs></defs>
    <g id="wifi---f1eb" stroke="none" stroke-width="1" fill="none" fill-rule="evenodd" transform="translate(0.000000, -11.000000)">
        <path d="M76,26.6853583 L68.7393562,33.9460021 C51.7715472,16.9781931 24.2284528,16.9781931 7.26064382,33.9460021 L0,26.6853583 C20.992731,5.77154725 55.086189,5.77154725 76,26.6853583 Z M38.03946,40.3385254 C44.5109034,40.3385254 50.5877466,42.8639668 55.2440291,47.4413292 L62.5046729,40.1806854 C49.0093458,26.7642783 27.0695742,26.7642783 13.6531672,40.2596054 L20.913811,47.5202492 C25.4911734,42.8639668 31.5680166,40.3385254 38.03946,40.3385254 Z M48.4569055,54.2284528 C45.9314642,51.2294912 42.2222222,49.3354102 38.03946,49.3354102 C33.8566978,49.3354102 30.1474559,51.2294912 27.6220145,54.2284528 L38.03946,64.6458982 L48.4569055,54.2284528 Z" id="wifi" fill="#000000" fill-rule="nonzero"></path>
    </g>
</svg>