<?xml version="1.0" encoding="UTF-8"?>
<svg width="76px" height="60px" viewBox="0 0 76 60" version="1.1" xmlns="http://www.w3.org/2000/svg" xmlns:xlink="http://www.w3.org/1999/xlink">
    <!-- Generator: Sketch 48.1 (47250) - http://www.bohemiancoding.com/sketch -->
    <title>wrench</title>
    <desc>Created with Sketch.</desc>
    <defs></defs>
    <g id="wrench---f0ad" stroke="none" stroke-width="1" fill="none" fill-rule="evenodd" transform="translate(0.000000, -8.000000)">
        <path d="M46.6793742,36.3877559 C47.3896546,30.1372886 45.2588135,24.0288774 40.8550751,19.6251391 C36.1672247,14.9372886 29.7747013,12.9485036 23.3821779,13.80084 L30.7690938,21.1877559 C34.6046078,25.0232699 34.6046078,31.4157933 30.7690938,35.2513073 L26.5074116,39.5129896 C24.6606826,41.3597185 22.1036733,42.4961671 19.4046078,42.4961671 C16.7055424,42.4961671 14.2905892,41.5017746 12.3018041,39.6550456 L5.6251686,32.9784101 C5.19900037,38.8027092 7.32984149,44.6270082 11.5915237,48.8886905 C15.853206,53.1503727 21.535449,55.2812139 27.5018041,54.8550456 C32.1896546,54.5709335 36.735449,56.1335503 39.8606826,59.40084 C41.6416268,61.1817843 42.977335,62.5174924 43.8678071,63.4079645 C44.7135759,64.2537333 45.9822291,65.5223865 47.6737667,67.2139241 C47.8168309,67.3569883 47.9944542,67.5050279 48.1014985,67.6635514 C46.8785047,67.6635514 41.9065421,67.6635514 40.3245771,67.6778186 C38.5585064,65.911748 37.1356769,64.4889185 36.0560886,63.4093301 C36.0176495,63.370891 35.9599908,63.3132323 35.8831125,63.236354 C33.7522714,61.1055129 30.7690938,60.1111204 27.7859163,60.2531765 C20.3990004,60.6793447 13.0120845,57.9802793 7.61395364,52.7242045 C1.22143028,46.3316811 -1.47763514,36.8139241 0.795262056,28.0064475 C1.07937421,26.7279428 2.07376673,25.8756064 3.21021533,25.4494382 C4.34666392,25.165326 5.76722467,25.4494382 6.61956112,26.3017746 L15.9952621,35.6774755 C16.8475985,36.529812 17.9840471,36.9559802 19.1204957,36.9559802 C20.3990004,36.9559802 21.535449,36.529812 22.2457293,35.6774755 L26.5074116,31.4157933 C28.2120845,29.7111204 28.2120845,26.7279428 26.5074116,25.0232699 L16.5634864,15.0793447 C15.7111499,14.2270082 15.2849817,12.9485036 15.7111499,11.812055 C15.9952621,10.6756064 16.8475985,9.68121386 17.9840471,9.25504563 C27.359748,6.27186806 37.4457293,8.68682133 44.406477,15.647569 C49.9466639,21.1877559 52.7877854,29.00084 51.7933929,36.9559802 C51.3672247,40.2232699 52.5036733,43.4905597 54.7765705,45.6214008 C66.5579222,57.9485666 73.6323988,65.2959502 76,67.6635514 C73.8691589,67.6778186 69.7959902,67.6772713 68.1869159,67.6778186 C67.2398754,66.2477464 61.5859596,60.2214638 51.2251686,49.5989709 C47.8158228,46.1896251 46.1111499,41.3597185 46.6793742,36.3877559 Z" id="wrench" fill="#000000" fill-rule="nonzero"></path>
    </g>
</svg>