<?xml version="1.0" encoding="UTF-8"?>
<svg width="76px" height="58px" viewBox="0 0 76 58" version="1.1" xmlns="http://www.w3.org/2000/svg" xmlns:xlink="http://www.w3.org/1999/xlink">
    <!-- Generator: Sketch 48.1 (47250) - http://www.bohemiancoding.com/sketch -->
    <title>youtube-play</title>
    <desc>Created with Sketch.</desc>
    <defs></defs>
    <g id="youtube-play---f16a" stroke="none" stroke-width="1" fill="none" fill-rule="evenodd" transform="translate(0.000000, -9.000000)">
        <path d="M38,9 C46.6474362,9 55.5384619,9.66458349 64.6730769,10.9937505 C67.1089744,11.3562502 69.2403846,12.3833333 71.0673077,14.075 C72.8942308,15.7666667 74.0512821,17.8208333 74.5384615,20.2375 C75.5128205,25.7958333 76,31.7166667 76,38 C76,44.2833333 75.5128205,50.2041667 74.5384615,55.7625 C74.0512821,58.1791667 72.8942308,60.2333333 71.0673077,61.925 C69.2403846,63.6166667 67.1089744,64.6437498 64.6730769,65.0062495 C55.4166667,66.3354165 46.525641,67 38,67 C29.474359,67 20.5833333,66.3354165 11.3269231,65.0062495 C8.89102564,64.6437498 6.75961538,63.6166667 4.93269231,61.925 C3.10576923,60.2333333 1.94871795,58.1791667 1.46153846,55.7625 C0.487179487,50.2041667 0,44.2833333 0,38 C0,31.7166667 0.487179487,25.7958333 1.46153846,20.2375 C1.94871795,17.8208333 3.10576923,15.7666667 4.93269231,14.075 C6.75961538,12.3833333 8.89102564,11.3562502 11.3269231,10.9937505 C20.4615381,9.66458349 29.3525638,9 38,9 Z M38,14.8 C29.5961542,14.8 20.9487183,15.4041667 12.0576923,16.6125 C9.37820513,17.0958333 7.79487179,18.6666667 7.30769231,21.325 C6.33333333,26.5208336 5.84615385,32.079167 5.84615385,38 C5.84615385,43.920833 6.33333333,49.4791664 7.30769231,54.675 C7.79487179,57.3333333 9.37820513,58.9041667 12.0576923,59.3875 C20.9487183,60.5958333 29.5961542,61.2 38,61.2 C46.4038458,61.2 55.0512817,60.5958333 63.9423077,59.3875 C66.6217949,58.9041667 68.2051282,57.3333333 68.6923077,54.675 C69.6666667,49.4791664 70.1538462,43.920833 70.1538462,38 C70.1538462,32.079167 69.6666667,26.5208336 68.6923077,21.325 C68.2051282,18.6666667 66.6217949,17.0958333 63.9423077,16.6125 C55.0512817,15.4041667 46.4038458,14.8 38,14.8 Z M29.2307692,21.325 C30.3269231,21.959375 32.5192308,23.228125 33.6153846,23.8625 C38.7307692,26.7625 48.9615385,32.5625 54.0769231,35.4625 C55.1730769,36.096875 57.3653846,37.365625 58.4615385,38 C57.3653846,38.634375 55.1730769,39.903125 54.0769231,40.5375 C48.9615385,43.4375 38.7307692,49.2375 33.6153846,52.1375 C32.5192308,52.771875 30.3269231,54.040625 29.2307692,54.675 C29.2307692,53.40625 29.2307692,50.86875 29.2307692,49.6 C29.2307692,43.8 29.2307692,32.2 29.2307692,26.4 C29.2307692,25.13125 29.2307692,22.59375 29.2307692,21.325 Z M35.0769231,31.475 C35.0769231,34.7375 35.0769231,41.2625 35.0769231,44.525 C38,42.89375 43.8461538,39.63125 46.7692308,38 C43.8461538,36.36875 38,33.10625 35.0769231,31.475 Z" id="youtube-play" fill="#000000" fill-rule="nonzero"></path>
    </g>
</svg>